ply
format ascii 1.0
comment made by tesseract
element vertex 553
property float x
property float y
property float z
element face 862
property list uchar int vertex_indices
end_header
0.2598922 0.2500000 0.0351173
0.2632503 0.2497553 0.0351173
0.2598922 0.2500000 0.0000335
-0.3348789 0.2500000 0.2479634
0.0005528 0.2459867 0.1924922
0.0103982 0.2457420 0.1924922
0.0202437 0.2451547 0.1924922
0.2632503 0.2497553 0.0000335
0.2632503 0.2495595 0.0364229
0.2665321 0.2490211 0.0364229
0.2665321 0.2491680 0.0351173
-0.1048468 0.2500000 -0.0000000
-0.4048654 0.2500000 0.2479634
-0.0000578 0.1937647 0.3420000
-0.0000578 0.1949393 0.3399579
0.0087192 0.1947435 0.3399579
0.0045215 0.2109436 0.3076527
0.0135274 0.2105521 0.3076527
0.0255861 0.2314996 0.2474947
0.0300891 0.2440779 0.1924922
0.2665321 0.2491680 0.0000335
0.0311576 0.2308634 0.2474947
0.0367290 0.2300313 0.2474947
0.2697376 0.2480912 0.0364229
0.2698140 0.2482870 0.0351173
0.0422242 0.2290525 0.2474947
0.0484825 0.2278778 0.2474947
0.0539776 0.2266053 0.2474947
0.0594727 0.2252349 0.2474947
0.0581753 0.2028191 0.3076527
-0.2948866 -0.2500000 0.0000335
-0.2982447 -0.2497553 0.0000335
-0.3016028 -0.2491680 0.0000335
-0.3048083 -0.2482870 0.0000335
-0.3079375 -0.2469655 0.0000335
-0.3109140 -0.2453504 0.0000335
-0.3136616 -0.2434417 0.0000335
-0.3161039 -0.2411903 0.0000335
-0.3183935 -0.2386942 0.0000335
-0.3203015 -0.2359045 0.0000335
-0.3219806 -0.2329679 0.0000335
-0.3232017 -0.2298356 0.0000335
-0.3241939 -0.2266053 0.0000335
-0.3247281 -0.2233262 0.0000335
-0.3248808 -0.2199980 0.0000335
-0.3248808 0.2199980 0.0000335
-0.3247281 0.2233262 0.0000335
-0.3241939 0.2266053 0.0000335
-0.3232017 0.2298356 0.0000335
-0.3219806 0.2329679 0.0000335
-0.3203015 0.2359045 0.0000335
-0.3183935 0.2386942 0.0000335
-0.3161039 0.2411903 0.0000335
-0.3136616 0.2434417 0.0000335
-0.3109140 0.2453504 0.0000335
-0.3079375 0.2469655 0.0000335
-0.3048083 0.2482870 0.0000335
-0.3016028 0.2491680 0.0000335
-0.2982447 0.2497553 0.0000335
-0.2948866 0.2500000 0.0000335
0.2698140 0.2482870 0.0000335
0.2729431 0.2469655 0.0000335
0.2758433 0.2453504 0.0000335
0.2785909 0.2434417 0.0000335
0.2811095 0.2411903 0.0000335
0.2833228 0.2386942 0.0000335
0.2853072 0.2359045 0.0000335
0.2869099 0.2329679 0.0000335
0.2949236 0.2149080 0.0000335
0.2949236 0.1449197 0.0000335
0.2898864 -0.2199980 0.0000335
0.2897338 -0.2233262 0.0000335
0.2891232 -0.2266053 0.0000335
0.2882074 -0.2298356 0.0000335
0.2869099 -0.2329679 0.0000335
0.2853072 -0.2359045 0.0000335
0.2833228 -0.2386942 0.0000335
0.2811095 -0.2411903 0.0000335
0.2785909 -0.2434417 0.0000335
0.2758433 -0.2453504 0.0000335
0.2729431 -0.2469655 0.0000335
0.2698140 -0.2482870 0.0000335
0.2665321 -0.2491680 0.0000335
0.2632503 -0.2497553 0.0000335
0.2598922 -0.2500000 0.0000335
-0.4531004 0.2500000 0.2349409
-0.4498949 0.2497553 0.2369160
-0.4498949 0.2491680 0.2388242
-0.4498949 0.2482870 0.2404980
-0.4498949 0.2470145 0.2420045
-0.4061629 0.2497553 0.2479634
-0.0346313 0.1906813 0.3420000
-0.0260833 0.1920027 0.3420000
-0.0174590 0.1929816 0.3420000
-0.0087584 0.1936179 0.3420000
0.0086428 0.1936179 0.3420000
0.0174198 0.1941562 0.3399579
0.0226096 0.2097690 0.3076527
0.0316155 0.2086433 0.3076527
0.2726378 0.2463782 0.0375611
0.2728668 0.2468187 0.0364229
0.0668759 0.2001273 0.3076527
0.0754239 0.1969949 0.3076527
0.0838192 0.1936179 0.3076527
0.2729431 0.2469655 0.0351173
0.0405451 0.2070282 0.3076527
0.0493983 0.2051684 0.3076527
0.0518406 0.1879405 0.3399579
0.0601596 0.1853955 0.3399579
-0.4498949 -0.2500000 0.0100096
-0.4531004 -0.2399667 0.0100096
-0.4531004 0.2399667 0.0100096
-0.4498949 0.2500000 0.0100096
0.2758433 0.2453504 0.0351173
0.2785909 0.2434417 0.0351173
0.2811095 0.2411903 0.0351173
0.2833228 0.2386942 0.0351173
0.2853072 0.2359045 0.0351173
0.2869099 0.2329679 0.0351173
0.2949236 0.2149080 0.0250407
0.2949236 0.1449197 0.0250407
0.2898864 -0.2199980 0.0351173
0.2897338 -0.2233262 0.0351173
0.2891232 -0.2266053 0.0351173
0.2882074 -0.2298356 0.0351173
0.2869099 -0.2329679 0.0351173
0.2853072 -0.2359045 0.0351173
0.2833228 -0.2386942 0.0351173
0.2811095 -0.2411903 0.0351173
0.2785909 -0.2434417 0.0351173
0.2758433 -0.2453504 0.0351173
0.2729431 -0.2469655 0.0351173
0.2698140 -0.2482870 0.0351173
0.2665321 -0.2491680 0.0351173
0.2632503 -0.2497553 0.0351173
0.2598922 -0.2500000 0.0351173
-0.4531004 0.2500000 0.0200192
-0.4601983 0.2449589 0.2337022
-0.4599693 0.2449589 0.2358448
-0.4498949 0.2455462 0.2433101
-0.0516509 0.1867659 0.3420000
-0.0431793 0.1889683 0.3420000
0.0173434 0.1929816 0.3420000
0.0261204 0.1932263 0.3399579
0.0347447 0.1918070 0.3399579
0.2735537 0.2459377 0.0375611
0.0920619 0.1898493 0.3076527
0.2737827 0.2463293 0.0364229
0.0684786 0.1825568 0.3399579
0.0765687 0.1792287 0.3399579
0.0845061 0.1756558 0.3399579
0.2757670 0.2452525 0.0364229
0.0432927 0.1900450 0.3399579
0.0598544 0.1842698 0.3420000
0.0430637 0.1889683 0.3420000
0.0515353 0.1867659 0.3420000
-0.4531004 -0.2500000 0.0200192
-0.4599693 -0.2449589 0.0191153
-0.4601983 -0.2430991 0.0180775
-0.4601983 -0.2418265 0.0173410
-0.4599693 -0.2399667 0.0162698
-0.4599693 0.2399667 0.0162698
-0.4601983 0.2418265 0.0173410
-0.4601983 0.2430991 0.0180775
-0.4599693 0.2449589 0.0191153
0.2785146 0.2432948 0.0364229
0.2796594 0.2423160 0.0364229
0.2822543 0.2397709 0.0364229
0.2809569 0.2410924 0.0364229
0.2832465 0.2385963 0.0364229
0.2844676 0.2368833 0.0364229
0.2851545 0.2358066 0.0364229
0.2862993 0.2337999 0.0364229
0.2877494 0.2305697 0.0364229
0.2882074 0.2298356 0.0351173
0.2949236 0.2148101 0.0263128
0.2867573 0.2328700 0.0364229
0.2949236 0.1451155 0.0263128
0.2949236 0.1456049 0.0275515
0.2949236 0.1463880 0.0285558
0.2949236 0.1474648 0.0293592
0.2949236 0.1486883 0.0298614
0.2949236 0.1499119 0.0300288
0.2897338 -0.2199980 0.0364229
0.2895048 -0.2233262 0.0364229
0.2889706 -0.2266053 0.0364229
0.2880547 -0.2298356 0.0364229
0.2867573 -0.2328700 0.0364229
0.2862993 -0.2337999 0.0364229
0.2851545 -0.2358066 0.0364229
0.2844676 -0.2368833 0.0364229
0.2832465 -0.2385963 0.0364229
0.2822543 -0.2397709 0.0364229
0.2809569 -0.2410924 0.0364229
0.2796594 -0.2423160 0.0364229
0.2785146 -0.2432948 0.0364229
0.2757670 -0.2452525 0.0364229
0.2737827 -0.2463293 0.0364229
0.2728668 -0.2468187 0.0364229
0.2705009 -0.2477976 0.0364229
0.2670664 -0.2488743 0.0364229
0.2634793 -0.2495595 0.0364229
0.0202437 -0.2451547 0.1924922
0.0103982 -0.2457420 0.1924922
0.0005528 -0.2459867 0.1924922
-0.3299180 -0.2500000 0.2479634
-0.4601983 0.2449589 0.0213248
-0.4847737 0.1478563 0.1363514
-0.4847737 0.1477584 0.1373557
-0.4601983 0.2447631 0.2342713
-0.4531004 0.2399667 0.2449505
-0.4601983 0.2442737 0.2354765
-0.4601983 0.2434906 0.2365143
-0.4601219 0.2437353 0.2365812
-0.4498949 0.2437353 0.2441805
-0.0681363 0.1814311 0.3420000
-0.0599699 0.1842698 0.3420000
0.0259677 0.1920027 0.3420000
0.0345157 0.1906813 0.3420000
0.2755380 0.2447631 0.0375611
0.1001519 0.1856891 0.3076527
0.0923672 0.1716425 0.3399579
0.0999230 0.1673356 0.3399579
0.0680207 0.1814311 0.3420000
0.0761108 0.1782009 0.3420000
0.0917566 0.1706637 0.3420000
0.0840482 0.1745791 0.3420000
0.2765302 0.2440779 0.0375611
0.2782093 0.2429033 0.0375611
-0.4531004 -0.2500000 0.2349409
-0.4601983 -0.2449589 0.0213248
-0.4601983 -0.2447631 0.0207557
-0.4601983 -0.2442737 0.0195170
-0.4601983 -0.2434906 0.0185127
-0.4847737 0.0971515 0.0469011
-0.4847737 0.0980325 0.0462985
-0.4847737 0.0989624 0.0458633
-0.4601983 -0.2412392 0.0171736
-0.4847737 0.1000392 0.0457629
-0.4847737 0.1438919 0.0457629
-0.4847737 0.1449197 0.0458633
-0.4847737 0.1459475 0.0462985
-0.4847737 0.1466817 0.0469011
-0.4601983 0.2434906 0.0185127
-0.4601983 0.2442737 0.0195170
-0.4601983 0.2447631 0.0207557
0.2793541 0.2419244 0.0375611
0.2806516 0.2407009 0.0375611
0.2818727 0.2393794 0.0375611
0.2828649 0.2382537 0.0375611
0.2846966 0.2356108 0.0375611
0.2858414 0.2336042 0.0375611
0.2862993 0.2326742 0.0375611
0.2872915 0.2303250 0.0375611
0.2714930 0.1128622 0.1580110
0.2883600 0.2269969 0.0375611
0.2888179 0.2270948 0.0364229
0.2949236 0.2143207 0.0275515
0.2949236 0.2099648 0.0300288
0.2717220 0.0000000 0.1749838
0.2717220 -0.1111981 0.1578436
0.2717220 -0.1124217 0.1573749
0.2714930 -0.1128622 0.1580110
0.2875968 -0.2296398 0.0375611
0.2862993 -0.2326742 0.0375611
0.2858414 -0.2336042 0.0375611
0.2846966 -0.2356108 0.0375611
0.2828649 -0.2382537 0.0375611
0.2818727 -0.2393794 0.0375611
0.2806516 -0.2407009 0.0375611
0.2793541 -0.2419244 0.0375611
0.2782093 -0.2429033 0.0375611
0.2765302 -0.2440779 0.0375611
0.2755380 -0.2447631 0.0375611
0.2735537 -0.2459377 0.0375611
0.2726378 -0.2463782 0.0375611
0.2702719 -0.2474060 0.0375611
0.0668759 -0.2001273 0.3076527
0.0581753 -0.2028191 0.3076527
0.0571068 -0.2258222 0.2474947
0.0493220 -0.2276821 0.2474947
0.0414609 -0.2292482 0.2474947
0.0335235 -0.2305208 0.2474947
0.0300891 -0.2440779 0.1924922
0.0255861 -0.2314996 0.2474947
0.0135274 -0.2105521 0.3076527
0.0045215 -0.2109436 0.3076527
0.0087192 -0.1947435 0.3399579
-0.0000578 -0.1949393 0.3399579
-0.0000578 -0.1937647 0.3420000
-0.4099026 -0.2500000 0.2479634
-0.4847737 0.1477584 0.0487089
-0.4847737 0.1478563 0.0497132
-0.4847737 0.1473669 0.1383265
-0.4601983 0.2430991 0.2369160
-0.4601983 0.2418265 0.2376860
-0.4599693 0.2399667 0.2387572
-0.4498949 -0.0949491 0.2479634
-0.4248616 0.0000000 0.2639988
-0.4247089 0.0030345 0.2639988
-0.3348789 0.1099256 0.2989487
-0.3347262 0.1118833 0.2989487
-0.3341157 0.1137921 0.2989487
-0.3331998 0.1155540 0.2989487
-0.2853464 0.1751175 0.2989487
-0.1339252 0.1400255 0.3420000
-0.1275142 0.1459475 0.3420000
-0.1207979 0.1515270 0.3420000
-0.1139290 0.1567639 0.3420000
-0.1067548 0.1617071 0.3420000
-0.0993517 0.1663567 0.3420000
-0.0918722 0.1706637 0.3420000
-0.4847737 0.1466817 0.1391635
-0.0841637 0.1745791 0.3420000
-0.0762263 0.1782009 0.3420000
0.1073261 0.1627349 0.3399579
0.0993124 0.1663567 0.3420000
0.1145766 0.1576938 0.3399579
0.1215219 0.1524080 0.3399579
0.1274749 0.1459475 0.3420000
-0.4498949 -0.2497553 0.2369160
-0.4498949 -0.2491680 0.2388242
-0.4498949 -0.2482870 0.2404980
-0.4599693 -0.2449589 0.2358448
-0.4601983 -0.2449589 0.2337022
-0.4847737 0.0959769 0.0497132
-0.4847737 0.0961237 0.0487089
-0.4847737 0.0965642 0.0477046
-0.4847737 0.1473669 0.0477046
0.1338859 0.1400255 0.3420000
0.1399916 0.1339076 0.3420000
0.1467842 0.1282792 0.3399579
0.1523556 0.1215740 0.3399579
0.1567059 0.1139389 0.3420000
0.1616668 0.1067443 0.3420000
0.1663224 0.0993540 0.3420000
0.1673146 0.0999413 0.3399579
0.1715886 0.0924041 0.3399579
0.1756336 0.0845243 0.3399579
0.2646241 0.0966621 0.1762224
0.2716457 0.1113449 0.1580110
0.2717220 0.1111981 0.1578436
0.2717220 0.1124217 0.1573749
0.2949236 0.2124119 0.0293592
0.1792207 0.0765955 0.3399579
0.1825025 0.0684221 0.3399579
0.1853264 0.0602486 0.3399579
0.1878450 0.0518305 0.3399579
0.1899820 0.0433144 0.3399579
0.1917374 0.0347494 0.3399579
0.1931112 0.0260865 0.3399579
0.2092149 0.0271143 0.3076527
0.2949236 0.2134886 0.0285558
0.2949236 0.2112373 0.0298614
0.2716457 -0.0013704 0.1749838
0.2716457 0.0013704 0.1749838
0.2107414 0.0090055 0.3076527
0.2109703 0.0000000 0.3076527
0.2107414 -0.0090055 0.3076527
0.2716457 -0.1113449 0.1580110
0.2646241 -0.0966621 0.1762224
0.2092149 -0.0271143 0.3076527
0.1931112 -0.0260865 0.3399579
0.1917374 -0.0347494 0.3399579
0.1899820 -0.0433144 0.3399579
0.1878450 -0.0518305 0.3399579
0.1853264 -0.0602486 0.3399579
0.1825025 -0.0684221 0.3399579
0.1792207 -0.0765955 0.3399579
0.1756336 -0.0845243 0.3399579
0.1715886 -0.0924041 0.3399579
0.1673146 -0.0999413 0.3399579
0.1663224 -0.0993540 0.3420000
0.1616668 -0.1067443 0.3420000
0.1567059 -0.1139389 0.3420000
0.1523556 -0.1215740 0.3399579
0.1467842 -0.1282792 0.3399579
0.1399916 -0.1339076 0.3420000
0.1338859 -0.1400255 0.3420000
0.1274749 -0.1459475 0.3420000
0.1215219 -0.1524080 0.3399579
0.1145766 -0.1576938 0.3399579
0.1073261 -0.1627349 0.3399579
0.0999230 -0.1673356 0.3399579
0.0923672 -0.1716425 0.3399579
0.1001519 -0.1856891 0.3076527
0.0920619 -0.1898493 0.3076527
0.0838192 -0.1936179 0.3076527
0.0754239 -0.1969949 0.3076527
0.0684786 -0.1825568 0.3399579
0.0601596 -0.1853955 0.3399579
0.0518406 -0.1879405 0.3399579
0.0493983 -0.2051684 0.3076527
0.0405451 -0.2070282 0.3076527
0.0316155 -0.2086433 0.3076527
0.0226096 -0.2097690 0.3076527
0.0174198 -0.1941562 0.3399579
0.0086428 -0.1936179 0.3420000
-0.0087584 -0.1936179 0.3420000
-0.4138713 -0.2497063 0.2479634
-0.0174590 -0.1929816 0.3420000
-0.4847737 0.1459475 0.1397995
-0.4847737 0.1449197 0.1401678
-0.4670672 0.1590153 0.2282120
-0.4670672 0.1570086 0.2287811
-0.4601983 0.2412392 0.2378199
-0.4599693 -0.2399667 0.2387572
-0.4670672 0.1549530 0.2289820
-0.4659987 0.1549530 0.2308232
-0.4498949 -0.2099648 0.2479634
-0.3348789 0.0599060 0.2989487
-0.4348596 -0.2299334 0.2565000
-0.4341727 -0.2299334 0.2568348
-0.1937610 0.0000000 0.3420000
-0.1936083 0.0086629 0.3420000
-0.1929978 0.0173258 0.3420000
-0.1920056 0.0259886 0.3420000
-0.1907081 0.0346026 0.3420000
-0.1889527 0.0430697 0.3420000
-0.1868157 0.0515368 0.3420000
-0.1842972 0.0598081 0.3420000
-0.1813969 0.0680795 0.3420000
-0.1781915 0.0761551 0.3420000
-0.1746044 0.0840838 0.3420000
-0.1706357 0.0918168 0.3420000
-0.1663617 0.0993540 0.3420000
-0.1617061 0.1067443 0.3420000
-0.1567452 0.1139389 0.3420000
-0.1514790 0.1207909 0.3420000
-0.1459076 0.1274961 0.3420000
-0.1400309 0.1339076 0.3420000
0.1067156 0.1617071 0.3420000
0.1138898 0.1567639 0.3420000
0.1207587 0.1515270 0.3420000
-0.4178400 -0.2491190 0.2479634
-0.4498949 -0.2470145 0.2420045
-0.4498949 -0.2455462 0.2433101
-0.4531004 -0.2399667 0.2449505
-0.4601219 -0.2437353 0.2365812
-0.4601983 -0.2434906 0.2365143
-0.4601983 -0.2442737 0.2354765
-0.4601983 -0.2447631 0.2342713
-0.4847737 0.0961237 0.1373557
-0.4847737 0.0959769 0.1363514
0.1458683 0.1274961 0.3420000
0.1514398 0.1207909 0.3420000
0.1705964 0.0918168 0.3420000
0.1745651 0.0840838 0.3420000
0.2646241 0.0932850 0.1767915
0.2102071 0.0180599 0.3076527
0.1781522 0.0761551 0.3420000
0.1813577 0.0680795 0.3420000
0.1842579 0.0598081 0.3420000
0.1867765 0.0515368 0.3420000
0.1889135 0.0430697 0.3420000
0.1906689 0.0346026 0.3420000
0.1941033 0.0174236 0.3399579
0.1919663 0.0259886 0.3420000
0.2102071 -0.0180599 0.3076527
0.2646241 -0.0932850 0.1767915
0.1947139 0.0086629 0.3399579
0.1949429 0.0000000 0.3399579
0.1947139 -0.0086629 0.3399579
0.1941033 -0.0174236 0.3399579
0.1919663 -0.0259886 0.3420000
0.1906689 -0.0346026 0.3420000
0.1889135 -0.0430697 0.3420000
0.1867765 -0.0515368 0.3420000
0.1842579 -0.0598081 0.3420000
0.1813577 -0.0680795 0.3420000
0.1781522 -0.0761551 0.3420000
0.1745651 -0.0840838 0.3420000
0.1705964 -0.0918168 0.3420000
0.1514398 -0.1207909 0.3420000
0.1458683 -0.1274961 0.3420000
0.1207587 -0.1515270 0.3420000
0.1138898 -0.1567639 0.3420000
0.1067156 -0.1617071 0.3420000
0.0993124 -0.1663567 0.3420000
0.0917566 -0.1706637 0.3420000
0.0845061 -0.1756558 0.3399579
0.0765687 -0.1792287 0.3399579
0.0680207 -0.1814311 0.3420000
0.0598544 -0.1842698 0.3420000
0.0761108 -0.1782009 0.3420000
0.0515353 -0.1867659 0.3420000
0.0430637 -0.1889683 0.3420000
0.0432927 -0.1900450 0.3399579
0.0347447 -0.1918070 0.3399579
0.0261204 -0.1932263 0.3399579
0.0173434 -0.1929816 0.3420000
-0.0260833 -0.1920027 0.3420000
-0.4847737 0.1438919 0.1403017
-0.4601983 -0.2399667 0.2379873
-0.4601983 -0.2412392 0.2378199
-0.4601983 -0.2418265 0.2376860
-0.4847737 0.1000392 0.1403017
-0.4497423 -0.2137823 0.2479634
-0.3199199 -0.1049824 0.2989487
-0.1929978 -0.0173258 0.3420000
-0.1936083 -0.0086629 0.3420000
-0.4347070 -0.2312549 0.2565000
-0.4340201 -0.2311081 0.2568348
-0.0346313 -0.1906813 0.3420000
-0.4311962 -0.2348277 0.2565000
-0.4217324 -0.2481891 0.2479634
-0.4324174 -0.2342404 0.2565000
-0.4334095 -0.2335063 0.2565000
-0.4601983 -0.2430991 0.2369160
-0.4342491 -0.2324785 0.2565000
-0.4847737 0.0971515 0.1391635
-0.4847737 0.0965642 0.1383265
0.1929585 0.0173258 0.3420000
0.1935691 0.0086629 0.3420000
0.1937217 0.0000000 0.3420000
0.1935691 -0.0086629 0.3420000
0.1929585 -0.0173258 0.3420000
0.0840482 -0.1745791 0.3420000
0.0345157 -0.1906813 0.3420000
0.0259677 -0.1920027 0.3420000
-0.4847737 0.0989624 0.1401678
-0.4847737 0.0980325 0.1397995
-0.1889527 -0.0430697 0.3420000
-0.1907081 -0.0346026 0.3420000
-0.1920056 -0.0259886 0.3420000
-0.4336385 -0.2320869 0.2568348
-0.1813969 -0.0680795 0.3420000
-0.1842972 -0.0598081 0.3420000
-0.1868157 -0.0515368 0.3420000
-0.0431793 -0.1889683 0.3420000
-0.4320357 -0.2337020 0.2568348
-0.0516509 -0.1867659 0.3420000
-0.0599699 -0.1842698 0.3420000
-0.0681363 -0.1814311 0.3420000
-0.0762263 -0.1782009 0.3420000
-0.4329516 -0.2329679 0.2568348
-0.1514790 -0.1207909 0.3420000
-0.1567452 -0.1139389 0.3420000
-0.1617061 -0.1067443 0.3420000
-0.1663617 -0.0993540 0.3420000
-0.1706357 -0.0918168 0.3420000
-0.1746044 -0.0840838 0.3420000
-0.1781915 -0.0761551 0.3420000
-0.0841637 -0.1745791 0.3420000
-0.0918722 -0.1706637 0.3420000
-0.0993517 -0.1663567 0.3420000
-0.1067548 -0.1617071 0.3420000
-0.1139290 -0.1567639 0.3420000
-0.1207979 -0.1515270 0.3420000
-0.1275142 -0.1459475 0.3420000
-0.1339252 -0.1400255 0.3420000
-0.1400309 -0.1339076 0.3420000
-0.1459076 -0.1274961 0.3420000
4 0 1 7 2
9 0 2 11 59 112 136 85 12 3
3 0 3 4
3 0 4 5
3 0 5 6
3 0 6 1
3 1 6 8
3 1 8 9
3 1 9 10
4 1 10 20 7
3 2 7 11
3 3 12 13
3 3 13 14
3 3 14 15
3 3 15 16
3 3 16 17
3 3 17 18
3 3 18 5
3 3 5 4
3 5 18 6
3 6 18 19
3 6 19 8
3 7 20 11
3 8 19 21
3 8 21 22
3 8 22 9
3 9 23 24
3 9 24 10
3 9 22 25
3 9 25 26
3 9 26 27
3 9 27 28
3 9 28 29
3 9 29 23
4 10 24 60 20
3 11 30 31
3 11 31 32
3 11 32 33
3 11 33 34
3 11 34 35
3 11 35 36
3 11 36 37
3 11 37 38
3 11 38 39
3 11 39 40
3 11 40 41
3 11 41 42
3 11 42 43
3 11 43 44
3 11 44 45
3 11 45 46
3 11 46 47
3 11 47 48
3 11 48 49
3 11 49 50
3 11 50 51
3 11 51 52
3 11 52 53
3 11 53 54
3 11 54 55
3 11 55 56
3 11 56 57
3 11 57 58
3 11 58 59
3 11 20 60
3 11 60 61
3 11 61 62
3 11 62 63
3 11 63 64
3 11 64 65
3 11 65 66
3 11 66 67
3 11 67 68
3 11 68 69
3 11 69 70
3 11 70 71
3 11 71 72
3 11 72 73
3 11 73 74
3 11 74 75
3 11 75 76
3 11 76 77
3 11 77 78
3 11 78 79
3 11 79 80
3 11 80 81
3 11 81 82
3 11 82 83
3 11 83 84
3 11 84 30
3 12 85 86
3 12 86 87
3 12 87 88
3 12 88 89
3 12 89 90
3 12 90 91
3 12 91 92
3 12 92 93
3 12 93 94
3 12 94 13
3 13 95 14
140 13 94 93 92 91 141 140 216 215 314 313 311 310 309 308 307 306 305 430 429 428 427 426 425 424 423 422 421 420 419 418 417 416 415 414 413 500 499 524 523 522 528 527 526 542 541 540 539 538 537 536 552 551 550 549 548 547 546 545 544 543 534 533 532 531 529 503 491 400 398 289 397 490 519 518 486 485 483 482 484 517 479 478 477 476 475 379 378 377 474 473 374 373 372 472 471 470 469 468 467 466 465 464 516 515 514 513 512 457 455 454 453 452 451 450 447 446 335 334 333 445 444 330 329 319 433 432 431 316 225 226 224 223 153 155 154 218 217 142 95
3 14 95 15
3 15 17 16
3 15 95 96
3 15 96 17
3 17 96 97
3 17 97 18
3 18 97 21
3 18 21 19
3 21 97 98
3 21 98 22
3 22 98 25
3 23 99 100
3 23 100 24
3 23 29 101
3 23 101 102
3 23 102 103
3 23 103 99
3 24 100 104
4 24 104 61 60
3 25 98 105
3 25 105 26
3 26 105 106
3 26 106 27
3 27 106 28
3 28 106 29
3 29 107 108
3 29 108 101
3 29 106 107
3 30 109 31
8 30 84 135 205 290 229 156 109
3 31 109 32
3 32 109 33
3 33 109 34
3 34 109 35
3 35 109 36
3 36 109 37
3 37 109 38
3 38 109 39
3 39 109 40
3 40 109 41
3 41 109 110
3 41 110 42
3 42 110 43
3 43 110 44
4 44 110 111 45
3 45 111 46
3 46 111 47
3 47 111 48
3 48 111 112
3 48 112 49
3 49 112 50
3 50 112 51
3 51 112 52
3 52 112 53
3 53 112 54
3 54 112 55
3 55 112 56
3 56 112 57
3 57 112 58
3 58 112 59
4 61 104 113 62
4 62 113 114 63
4 63 114 115 64
4 64 115 116 65
4 65 116 117 66
4 66 117 118 67
4 67 118 119 68
16 68 119 175 257 352 343 353 258 182 181 180 179 178 177 120 69
4 69 120 121 70
4 70 121 122 71
4 71 122 123 72
4 72 123 124 73
4 73 124 125 74
4 74 125 126 75
4 75 126 127 76
4 76 127 128 77
4 77 128 129 78
4 78 129 130 79
4 79 130 131 80
4 80 131 132 81
4 81 132 133 82
4 82 133 134 83
4 83 134 135 84
4 85 136 206 137
3 85 137 138
3 85 138 88
3 85 88 87
3 85 87 86
3 88 138 89
3 89 138 139
3 89 139 90
3 90 139 140
3 90 140 141
3 90 141 91
3 95 142 96
3 96 143 97
3 96 142 143
3 97 143 98
3 98 143 144
3 98 144 105
3 99 145 100
3 99 103 146
3 99 146 145
3 100 145 147
3 100 147 104
3 101 108 148
3 101 148 102
3 102 148 103
3 103 148 149
3 103 149 150
3 103 150 146
3 104 147 151
3 104 151 113
3 105 144 152
3 105 152 106
3 106 152 107
3 107 153 108
3 107 152 154
3 107 154 155
3 107 155 153
3 108 153 148
3 109 156 157
3 109 157 158
3 109 158 159
3 109 159 160
3 109 160 110
4 110 160 161 111
3 111 161 112
3 112 161 162
3 112 162 163
3 112 163 164
3 112 164 136
3 113 151 114
3 114 151 165
3 114 165 166
3 114 166 115
3 115 167 116
3 115 166 168
3 115 168 167
3 116 167 169
3 116 169 170
3 116 170 117
3 117 170 171
3 117 171 172
3 117 172 118
3 118 173 174
3 118 174 175
3 118 175 119
3 118 172 176
3 118 176 173
3 120 177 121
3 121 177 178
3 121 178 179
3 121 179 180
3 121 180 181
3 121 181 182
3 121 182 183
3 121 183 122
3 122 183 184
3 122 184 185
3 122 185 123
4 123 185 186 124
3 124 186 125
3 125 186 187
3 125 187 188
3 125 188 126
3 126 188 189
3 126 189 190
3 126 190 127
3 127 190 191
3 127 191 192
3 127 192 128
3 128 192 193
3 128 193 194
3 128 194 129
3 129 194 195
3 129 195 196
3 129 196 130
3 130 196 131
3 131 196 197
3 131 197 198
3 131 198 132
3 132 198 199
3 132 199 200
3 132 200 133
3 133 200 201
3 133 201 134
3 134 201 135
3 135 201 202
3 135 202 203
3 135 203 204
3 135 204 205
3 136 164 206
4 137 206 292 207
3 137 207 208
3 137 208 209
3 137 209 138
3 138 210 139
3 138 209 211
3 138 211 212
3 138 212 213
3 138 213 210
3 139 210 214
3 139 214 215
3 139 215 216
3 139 216 140
3 142 217 143
3 143 217 218
3 143 218 144
3 144 218 154
3 144 154 152
3 145 219 151
3 145 151 147
3 145 146 220
3 145 220 221
3 145 221 222
3 145 222 219
3 146 150 221
3 146 221 220
3 148 153 223
3 148 223 224
3 148 224 149
3 149 224 150
3 150 225 221
3 150 224 226
3 150 226 225
3 151 219 227
3 151 227 228
3 151 228 165
4 156 229 324 230
3 156 230 157
3 157 230 231
3 157 231 232
3 157 232 233
3 157 233 158
3 158 233 234
3 158 234 235
3 158 235 159
3 159 235 236
3 159 236 237
3 159 237 160
3 160 237 236
3 160 236 238
4 160 238 239 161
3 161 239 240
3 161 240 162
3 162 240 241
3 162 241 163
3 163 241 242
3 163 242 243
3 163 243 164
3 164 243 244
3 164 244 245
3 164 245 206
4 165 228 246 166
4 166 246 247 168
3 167 168 247
3 167 247 248
3 167 248 249
3 167 249 169
3 169 249 170
3 170 249 250
3 170 250 171
4 171 250 251 172
4 172 251 252 176
3 173 176 252
3 173 252 253
3 173 253 254
3 173 254 255
3 173 255 256
3 173 256 257
3 173 257 174
3 174 257 175
3 182 258 259
3 182 259 183
3 183 259 260
3 183 260 184
3 184 260 261
3 184 261 262
3 184 262 185
3 185 262 186
3 186 262 263
4 186 263 264 187
4 187 264 265 188
4 188 265 266 189
3 189 266 190
3 190 267 191
3 190 266 267
3 191 267 192
3 192 267 268
3 192 268 269
3 192 269 193
4 193 269 270 194
4 194 270 271 195
3 195 271 196
3 196 272 273
3 196 273 274
3 196 274 197
3 196 271 272
3 197 274 198
3 198 275 276
3 198 276 199
3 198 274 275
3 199 276 200
3 200 276 277
3 200 277 278
3 200 278 279
3 200 279 280
3 200 280 281
3 200 281 201
3 201 281 282
3 201 282 283
3 201 283 202
3 202 283 284
3 202 284 203
3 203 284 205
3 203 205 204
3 205 284 285
3 205 285 286
3 205 286 287
3 205 287 288
3 205 288 289
3 205 289 290
3 206 245 291
3 206 291 292
28 207 292 291 328 242 241 240 239 238 236 235 234 327 326 325 443 442 511 510 521 520 496 492 402 401 312 293 208
3 208 293 209
3 209 293 211
3 210 213 294
3 210 294 295
3 210 295 296
3 210 296 297
3 210 297 298
3 210 298 299
3 210 299 300
3 210 300 301
3 210 301 302
3 210 302 303
3 210 303 304
3 210 304 305
3 210 305 306
3 210 306 307
3 210 307 308
3 210 308 309
3 210 309 310
3 210 310 311
3 210 311 214
3 211 293 212
3 212 293 312
3 212 312 294
3 212 294 213
3 214 311 313
3 214 313 314
3 214 314 215
3 219 222 315
3 219 315 227
4 221 225 316 222
3 222 316 315
3 227 315 317
3 227 317 228
3 228 317 318
3 228 318 319
3 228 319 246
3 229 290 320
3 229 320 321
3 229 321 322
3 229 322 323
3 229 323 324
4 230 324 443 325
3 230 325 326
3 230 326 231
3 231 326 232
3 232 326 327
3 232 327 234
3 232 234 233
3 242 328 243
3 243 328 244
3 244 328 245
3 245 328 291
3 246 319 329
3 246 329 247
3 247 329 330
3 247 330 248
3 248 330 331
3 248 331 249
3 249 331 332
3 249 332 333
3 249 333 250
3 250 333 334
3 250 334 335
3 250 335 336
3 250 336 251
3 251 336 337
3 251 337 338
3 251 338 252
3 252 338 254
3 252 254 253
3 254 339 340
3 254 340 341
3 254 341 342
3 254 342 343
3 254 343 256
3 254 256 255
3 254 338 344
3 254 344 345
3 254 345 346
3 254 346 347
3 254 347 348
3 254 348 349
3 254 349 350
3 254 350 351
3 254 351 339
3 256 343 352
3 256 352 257
3 258 353 259
3 259 354 260
3 259 353 341
3 259 341 355
3 259 355 356
3 259 356 357
3 259 357 358
3 259 358 354
3 260 354 359
3 260 359 262
3 260 262 261
3 262 264 263
3 262 359 360
3 262 360 361
3 262 361 362
3 262 362 363
3 262 363 364
3 262 364 365
3 262 365 366
3 262 366 367
3 262 367 368
3 262 368 369
3 262 369 264
3 264 369 265
3 265 369 370
3 265 370 371
3 265 371 266
3 266 371 372
3 266 372 373
3 266 373 374
3 266 374 267
3 267 374 375
3 267 375 376
3 267 376 268
3 268 376 377
3 268 377 269
3 269 377 378
3 269 378 270
3 270 378 379
3 270 379 271
3 271 379 380
3 271 380 381
3 271 381 272
3 272 381 382
3 272 382 273
3 273 382 383
3 273 383 274
3 274 383 384
3 274 384 385
3 274 385 386
3 274 386 275
3 275 386 387
3 275 387 276
3 276 387 388
3 276 388 277
3 277 388 389
3 277 389 390
3 277 390 278
3 278 390 391
3 278 391 392
3 278 392 279
3 279 392 280
3 280 392 393
3 280 393 281
3 281 393 394
3 281 394 282
3 282 394 395
3 282 395 284
3 282 284 283
3 284 395 285
3 285 396 287
3 285 287 286
3 285 395 396
3 287 396 397
3 287 397 288
3 288 397 289
3 289 398 290
3 290 399 320
3 290 398 400
3 290 400 399
3 294 312 401
3 294 401 295
3 295 401 402
3 295 402 403
3 295 403 404
3 295 404 405
3 295 405 296
4 296 406 409 297
3 296 405 404
3 296 404 407
3 296 407 408
3 296 408 406
3 297 409 298
3 298 410 300
3 298 300 299
3 298 409 411
3 298 411 412
3 298 412 410
3 300 410 413
3 300 413 414
3 300 414 415
3 300 415 301
3 301 415 416
3 301 416 417
3 301 417 418
3 301 418 419
3 301 419 420
3 301 420 302
3 302 420 421
3 302 421 422
3 302 422 423
3 302 423 424
3 302 424 303
3 303 424 425
3 303 425 426
3 303 426 427
3 303 427 428
3 303 428 304
3 304 428 429
3 304 429 430
3 304 430 305
3 315 316 431
3 315 431 432
3 315 432 317
3 317 432 318
3 318 432 433
3 318 433 319
3 320 399 321
3 321 399 434
3 321 434 322
3 322 435 323
3 322 434 435
3 323 435 436
3 323 436 437
3 323 437 438
3 323 438 439
3 323 439 440
3 323 440 441
3 323 441 324
3 324 441 442
3 324 442 443
3 330 444 331
4 331 444 445 332
3 332 445 333
4 335 446 337 336
3 337 446 338
3 338 446 447
4 338 447 450 344
3 339 448 340
3 339 351 449
3 339 449 448
3 340 448 355
3 340 355 341
3 341 353 342
3 342 353 343
3 344 450 345
3 345 450 451
3 345 451 452
3 345 452 346
3 346 452 453
3 346 453 347
3 347 453 454
3 347 454 348
3 348 454 455
3 348 455 349
3 349 455 350
3 350 456 351
3 350 455 457
4 350 457 512 456
3 351 456 449
3 354 358 458
3 354 458 459
3 354 459 359
3 355 448 449
3 355 449 356
3 356 449 460
3 356 460 461
3 356 461 357
3 357 461 358
3 358 461 462
3 358 462 458
3 359 459 360
3 360 458 361
3 360 459 458
3 361 458 463
3 361 463 362
4 362 463 516 464
3 362 464 465
3 362 465 363
3 363 465 364
3 364 465 466
3 364 466 365
3 365 466 467
3 365 467 366
3 366 467 468
3 366 468 367
3 367 468 469
3 367 469 470
3 367 470 368
4 368 470 471 369
3 369 471 472
3 369 472 370
4 370 472 372 371
3 374 473 375
4 375 473 474 376
3 376 474 377
3 379 475 380
3 380 475 476
3 380 476 381
3 381 476 382
3 382 476 477
3 382 477 478
3 382 478 383
4 383 478 479 384
3 384 479 480
3 384 480 386
3 384 386 385
3 386 480 387
3 387 480 481
3 387 481 389
3 387 389 388
3 389 482 483
3 389 483 390
3 389 481 484
3 389 484 482
3 390 483 391
3 391 483 485
3 391 485 486
3 391 486 487
3 391 487 392
3 392 487 393
3 393 488 394
3 393 487 488
3 394 489 395
3 394 488 489
3 395 489 396
3 396 490 397
3 396 489 490
3 399 400 491
3 399 491 434
3 402 492 404
3 402 404 403
3 404 492 407
3 406 437 409
3 406 408 407
3 406 407 493
3 406 493 494
3 406 494 495
3 406 495 437
3 407 492 496
3 407 496 493
3 409 497 411
3 409 437 497
3 410 412 498
3 410 498 499
3 410 499 500
3 410 500 413
3 411 497 437
3 411 437 501
3 411 501 412
3 412 501 502
3 412 502 498
3 434 491 503
3 434 503 504
3 434 504 505
3 434 505 435
3 435 505 436
3 436 505 504
3 436 504 506
3 436 506 507
3 436 507 437
3 437 495 508
3 437 508 438
3 437 507 509
3 437 509 501
3 438 508 439
3 439 508 510
3 439 510 440
3 440 510 511
3 440 511 442
3 440 442 441
3 449 456 460
3 456 512 513
3 456 513 460
3 458 462 463
3 460 513 461
3 461 513 514
3 461 514 515
3 461 515 462
3 462 515 463
3 463 515 516
3 479 517 480
3 480 517 484
3 480 484 481
3 486 488 487
3 486 518 488
3 488 518 489
3 489 518 519
3 489 519 490
3 493 496 520
3 493 520 494
3 494 520 495
3 495 520 521
3 495 521 508
3 498 522 523
3 498 523 524
3 498 524 499
3 498 502 522
3 501 509 502
3 502 509 525
3 502 525 526
3 502 526 527
3 502 527 528
3 502 528 522
3 503 529 504
3 504 530 506
3 504 529 531
3 504 531 532
3 504 532 533
3 504 533 534
3 504 534 530
3 506 530 507
3 507 530 535
3 507 535 509
3 508 521 510
3 509 535 525
3 525 535 536
3 525 536 537
3 525 537 538
3 525 538 539
3 525 539 540
3 525 540 541
3 525 541 542
3 525 542 526
3 530 534 543
3 530 543 544
3 530 544 545
3 530 545 546
3 530 546 547
3 530 547 548
3 530 548 535
3 535 548 549
3 535 549 550
3 535 550 551
3 535 551 552
3 535 552 536
