ply
format ascii 1.0
comment made by tesseract
element vertex 476
property float x
property float y
property float z
element face 661
property list uchar int vertex_indices
end_header
1.7740043 -0.0934505 2.0969622
1.7730000 -0.0924339 2.0969988
1.7730000 -0.0920527 2.0909784
1.7740043 -0.0930330 2.0909052
1.7820017 -0.0934505 2.0969622
1.7740043 -0.0934505 2.1030376
1.7730000 -0.0924339 2.1030010
1.7730000 -0.0912540 2.0849945
1.7740043 -0.0922524 2.0848847
1.7820017 -0.0930330 2.0909052
1.7989956 -0.0899288 2.0968524
1.7989956 -0.0899470 2.1027814
1.7820017 -0.0934505 2.1030376
1.7740043 -0.0930330 2.1091129
1.7730000 -0.0920527 2.1090397
1.7730000 -0.0900740 2.0790656
1.7820017 -0.0922524 2.0848847
1.7740043 -0.0910543 2.0788826
1.7989956 -0.0895113 2.0909235
1.8000000 -0.0889304 2.0967792
1.7999260 -0.0885310 2.1096985
1.7989956 -0.0894568 2.1097351
1.7820017 -0.0930330 2.1091129
1.7999260 -0.0890212 2.1027082
1.7740043 -0.0922524 2.1151151
1.7730000 -0.0912540 2.1150236
1.7730000 -0.0885310 2.0732098
1.7989956 -0.0887307 2.0850128
1.7820017 -0.0910543 2.0788826
1.7740043 -0.0894931 2.0730268
1.8000000 -0.0884947 2.0908503
1.8000000 -0.0889304 2.1027082
1.8000000 -0.0876960 2.1150419
1.8000000 -0.0884403 2.1096619
1.7989956 -0.0886762 2.1151883
1.7820017 -0.0922524 2.1151151
1.7740043 -0.0910543 2.1210989
1.7730000 -0.0900740 2.1209525
1.7730000 -0.0865705 2.0675005
1.7740043 -0.0875508 2.0672626
1.7989956 -0.0875508 2.0791754
1.8000000 -0.0876960 2.0849579
1.7820017 -0.0894931 2.0730268
1.8000000 -0.0866250 2.1203670
1.7989956 -0.0875871 2.1205865
1.7820017 -0.0910543 2.1210989
1.7740043 -0.0894931 2.1269730
1.7730000 -0.0885310 2.1267900
1.7730000 -0.0842651 2.0619009
1.7740043 -0.0852272 2.0616081
1.7820017 -0.0875508 2.0672626
1.7989956 -0.0859715 2.0734294
1.8000000 -0.0864979 2.0791205
1.8000000 -0.0851909 2.1256371
1.7989956 -0.0861711 2.1259116
1.7820017 -0.0894931 2.1269730
1.7740043 -0.0875508 2.1327372
1.7730000 -0.0865705 2.1324993
1.7730000 -0.0816148 2.0565026
1.7820017 -0.0852272 2.0616081
1.7740043 -0.0825587 2.0561732
1.7989956 -0.0840109 2.0677933
1.8000000 -0.0849004 2.0733562
1.8000000 -0.0834845 2.1307975
1.7989956 -0.0844285 2.1311635
1.7820017 -0.0875508 2.1327372
1.7740043 -0.0852272 2.1383734
1.7730000 -0.0842651 2.1380989
1.7730000 -0.0786014 2.0512507
1.7820017 -0.0825587 2.0561732
1.7989956 -0.0817055 2.0623218
1.7740043 -0.0795090 2.0508665
1.8000000 -0.0829218 2.0677567
1.8000000 -0.0814514 2.1358298
1.7989956 -0.0823590 2.1362690
1.7820017 -0.0852272 2.1383734
1.7740043 -0.0825587 2.1438449
1.7730000 -0.0816148 2.1434972
1.7730000 -0.0752431 2.0462185
1.7740043 -0.0761689 2.0458159
1.7989956 -0.0790552 2.0570150
1.7820017 -0.0795090 2.0508665
1.8000000 -0.0805982 2.0622669
1.8000000 -0.0783654 2.1421064
1.7999260 -0.0784561 2.1421247
1.7989956 -0.0792730 2.1425639
1.7820017 -0.0825587 2.1438449
1.7740043 -0.0795090 2.1491150
1.7730000 -0.0786014 2.1487491
1.7730000 -0.0715580 2.0414241
1.7740043 -0.0724838 2.0409483
1.7820017 -0.0761689 2.0458159
1.7989956 -0.0760055 2.0518729
1.8000000 -0.0748437 2.0518729
1.8000000 -0.0778752 2.0569967
1.8000000 -0.0753701 2.1472668
1.7989956 -0.0762778 2.1477060
1.7820017 -0.0795090 2.1491150
1.7740043 -0.0761689 2.1541839
1.7730000 -0.0752431 2.1537631
1.7730000 -0.0675825 2.0368859
1.7740043 -0.0684720 2.0363735
1.7820017 -0.0724838 2.0409483
1.7989956 -0.0726835 2.0469504
1.8000000 -0.0714310 2.0469687
1.8000000 -0.0720663 2.1521893
1.7989956 -0.0729740 2.1526285
1.7820017 -0.0761689 2.1541839
1.7740043 -0.0724838 2.1590332
1.7730000 -0.0715580 2.1585757
1.7730000 -0.0633347 2.0326221
1.7740043 -0.0641879 2.0320366
1.7820017 -0.0684720 2.0363735
1.7989956 -0.0689985 2.0422658
1.8000000 -0.0677278 2.0423024
1.8000000 -0.0684176 2.1568922
1.7989956 -0.0693252 2.1573314
1.7820017 -0.0724838 2.1590332
1.7740043 -0.0684720 2.1636080
1.7730000 -0.0675825 2.1631323
1.7730000 -0.0587965 2.0286146
1.7820017 -0.0641879 2.0320366
1.7740043 -0.0596497 2.0280290
1.7989956 -0.0650411 2.0378374
1.8000000 -0.0637341 2.0379289
1.8000000 -0.0644421 2.1613389
1.7989956 -0.0653860 2.1617964
1.7820017 -0.0684720 2.1636080
1.7740043 -0.0641879 2.1679450
1.7730000 -0.0633347 2.1673960
1.7730000 -0.0540041 2.0249365
1.7740043 -0.0548210 2.0242960
1.7820017 -0.0596497 2.0280290
1.7989956 -0.0607933 2.0336469
1.8000000 -0.0594319 2.0337933
1.8000000 -0.0602124 2.1655295
1.7989956 -0.0611382 2.1659869
1.7820017 -0.0641879 2.1679450
1.7740043 -0.0596497 2.1719708
1.7730000 -0.0587965 2.1714035
1.7730000 -0.0489758 2.0215694
1.7740043 -0.0497745 2.0208923
1.7820017 -0.0548210 2.0242960
1.7989956 -0.0562732 2.0298040
1.8000000 -0.0548755 2.0299504
1.8000000 -0.0556742 2.1694089
1.7989956 -0.0566545 2.1699030
1.7820017 -0.0596497 2.1719708
1.7740043 -0.0548210 2.1757038
1.7730000 -0.0540041 2.1750634
1.7730000 -0.0437659 2.0185317
1.7740043 -0.0445283 2.0178181
1.7820017 -0.0497745 2.0208923
1.7989956 -0.0514990 2.0262357
1.8000000 -0.0500831 2.0264553
1.8000000 -0.0509363 2.1729589
1.7989956 -0.0519165 2.1734713
1.7820017 -0.0548210 2.1757038
1.7740043 -0.0497745 2.1791075
1.7730000 -0.0489758 2.1784304
1.7730000 -0.0383563 2.0158417
1.7740043 -0.0390824 2.0150732
1.7820017 -0.0445283 2.0178181
1.7989956 -0.0464888 2.0229784
1.8000000 -0.0450547 2.0232712
1.8000000 -0.0459261 2.1762162
1.7989956 -0.0469245 2.1767652
1.7820017 -0.0497745 2.1791075
1.7740043 -0.0445283 2.1821818
1.7730000 -0.0437659 2.1814681
1.7730000 -0.0327652 2.0135177
1.7740043 -0.0334731 2.0127126
1.7820017 -0.0390824 2.0150732
1.7989956 -0.0412971 2.0200872
1.8000000 -0.0398085 2.0204165
1.8000000 -0.0407343 2.1790892
1.7989956 -0.0417690 2.1796931
1.7820017 -0.0445283 2.1821818
1.7740043 -0.0390824 2.1849266
1.7730000 -0.0383563 2.1841398
1.7730000 -0.0270470 2.0115780
1.7740043 -0.0277368 2.0107179
1.7820017 -0.0334731 2.0127126
1.7989956 -0.0359419 2.0175253
1.8000000 -0.0343808 2.0179461
1.8000000 -0.0353611 2.1816694
1.7989956 -0.0363958 2.1822733
1.7820017 -0.0390824 2.1849266
1.7740043 -0.0334731 2.1872872
1.7730000 -0.0327652 2.1864821
1.7730000 -0.0212199 2.0099860
1.7740043 -0.0218553 2.0091076
1.7820017 -0.0277368 2.0107179
1.7989956 -0.0303871 2.0153111
1.8000000 -0.0288260 2.0158417
1.8000000 -0.0298063 2.1838287
1.7989956 -0.0308773 2.1845058
1.7820017 -0.0334731 2.1872872
1.7740043 -0.0277368 2.1892819
1.7730000 -0.0270470 2.1884218
1.7730000 -0.0153020 2.0087782
1.7820017 -0.0218553 2.0091076
1.7740043 -0.0158829 2.0078999
1.7989956 -0.0247416 2.0134994
1.8000000 -0.0231260 2.0140667
1.8000000 -0.0241244 2.1856586
1.7989956 -0.0252317 2.1863540
1.7820017 -0.0277368 2.1892819
1.7740043 -0.0218553 2.1908739
1.7730000 -0.0212199 2.1900138
1.7730000 -0.0093116 2.0079731
1.7740043 -0.0098562 2.0070398
1.7820017 -0.0158829 2.0078999
1.7989956 -0.0189689 2.0120538
1.8000000 -0.0173352 2.0127126
1.8000000 -0.0183699 2.1870494
1.7989956 -0.0194591 2.1878545
1.7820017 -0.0218553 2.1908739
1.7740043 -0.0158829 2.1920999
1.7730000 -0.0153020 2.1912216
1.7730000 -0.0032666 2.0075888
1.7740043 -0.0038112 2.0065823
1.7820017 -0.0098562 2.0070398
1.7989956 -0.0131237 2.0109924
1.8000000 -0.0114718 2.0117610
1.8000000 -0.0124883 2.1880924
1.7989956 -0.0135957 2.1889342
1.7820017 -0.0158829 2.1920999
1.7740043 -0.0098562 2.1929600
1.7730000 -0.0093116 2.1920267
1.7730000 0.0027238 2.0075522
1.7740043 0.0022337 2.0065274
1.7820017 -0.0038112 2.0065823
1.7989956 -0.0072058 2.0102971
1.8000000 -0.0055539 2.0111754
1.8000000 -0.0065705 2.1887512
1.7989956 -0.0076960 2.1896661
1.7820017 -0.0098562 2.1929600
1.7740043 -0.0038112 2.1934175
1.7730000 -0.0032666 2.1924293
1.7740043 0.0083331 2.0068751
1.7730000 0.0087688 2.0079182
1.7820017 0.0022337 2.0065274
1.7989956 -0.0012517 2.0100409
1.8000000 0.0003821 2.0110107
1.8000000 -0.0006526 2.1889708
1.7989956 -0.0017418 2.1899772
1.7820017 -0.0038112 2.1934175
1.7740043 0.0022337 2.1934724
1.7730000 0.0027238 2.1924293
1.7820017 0.0083331 2.0068751
1.7740043 0.0143780 2.0076254
1.7730000 0.0147411 2.0087050
1.7989956 0.0046843 2.0101324
1.8000000 0.0063181 2.0112303
1.8000000 0.0052834 2.1888244
1.7989956 0.0041579 2.1898857
1.7820017 0.0022337 2.1934724
1.7740043 0.0083331 2.1931247
1.7730000 0.0087688 2.1920633
1.7820017 0.0143780 2.0076254
1.7989956 0.0106022 2.0106448
1.7740043 0.0203322 2.0087782
1.7730000 0.0206589 2.0098762
1.8000000 0.0122541 2.0118708
1.8000000 0.0112012 2.1882571
1.7989956 0.0101121 2.1894283
1.7820017 0.0083331 2.1931247
1.7740043 0.0143780 2.1923744
1.7730000 0.0147411 2.1912948
1.7820017 0.0203322 2.0087782
1.7989956 0.0164838 2.0115414
1.7740043 0.0262319 2.0102788
1.7730000 0.0265223 2.0113950
1.8000000 0.0180994 2.0128773
1.7989956 0.0159755 2.1885316
1.8000000 0.0170828 2.1873055
1.7820017 0.0143780 2.1923744
1.7740043 0.0203322 2.1912399
1.7730000 0.0206589 2.1901236
1.7820017 0.0262319 2.0102788
1.7989956 0.0222927 2.0128407
1.7740043 0.0320045 2.0121819
1.7730000 0.0322587 2.0133164
1.8000000 0.0238902 2.0142863
1.7989956 0.0218207 2.1873055
1.7820017 0.0203322 2.1912399
1.8000000 0.0228917 2.1859697
1.7740043 0.0262319 2.1897027
1.7730000 0.0265223 2.1886048
1.7820017 0.0320045 2.0121819
1.7989956 0.0280109 2.0144876
1.7740043 0.0376682 2.0144327
1.7730000 0.0378316 2.0156038
1.8000000 0.0295539 2.0160979
1.7989956 0.0275389 2.1856769
1.7820017 0.0262319 2.1897027
1.8000000 0.0285918 2.1842496
1.7740043 0.0320045 2.1878179
1.7730000 0.0322587 2.1866834
1.7820017 0.0376682 2.0144327
1.7989956 0.0336201 2.0165371
1.7740043 0.0431686 2.0170678
1.7730000 0.0432593 2.0182572
1.8000000 0.0351087 2.0182389
1.7820017 0.0320045 2.1878179
1.7989956 0.0331300 2.1836640
1.8000000 0.0341647 2.1821635
1.7740043 0.0376682 2.1855671
1.7730000 0.0378316 2.1843960
1.7820017 0.0431686 2.0170678
1.7989956 0.0390660 2.0189343
1.7740043 0.0484692 2.0200506
1.7730000 0.0485237 2.0212766
1.8000000 0.0405183 2.0207825
1.7820017 0.0376682 2.1855671
1.7989956 0.0385940 2.1812851
1.8000000 0.0395925 2.1796931
1.7740043 0.0431686 2.1829320
1.7730000 0.0432593 2.1817426
1.7820017 0.0484692 2.0200506
1.7989956 0.0443304 2.0217158
1.7740043 0.0535521 2.0233810
1.7730000 0.0535339 2.0246071
1.8000000 0.0457281 2.0236555
1.7820017 0.0431686 2.1829320
1.7989956 0.0438947 2.1785585
1.8000000 0.0448023 2.1768750
1.7740043 0.0484692 2.1799493
1.7730000 0.0485237 2.1787232
1.7820017 0.0535521 2.0233810
1.7989956 0.0493950 2.0247901
1.7740043 0.0584352 2.0270409
1.7730000 0.0583626 2.0282486
1.8000000 0.0507202 2.0268945
1.7820017 0.0484692 2.1799493
1.7989956 0.0489957 2.1754659
1.8000000 0.0498670 2.1736909
1.7740043 0.0535521 2.1766188
1.7730000 0.0535339 2.1754110
1.7820017 0.0584352 2.0270409
1.7989956 0.0542782 2.0282486
1.7740043 0.0630642 2.0309935
1.7730000 0.0629008 2.0322378
1.8000000 0.0554944 2.0304628
1.7820017 0.0535521 2.1766188
1.7989956 0.0538607 2.1720623
1.8000000 0.0546594 2.1701958
1.7740043 0.0584352 2.1729589
1.7730000 0.0583626 2.1717512
1.7820017 0.0630642 2.0309935
1.7989956 0.0589072 2.0319634
1.7740043 0.0674209 2.0352572
1.7730000 0.0672031 2.0364650
1.8000000 0.0600145 2.0343057
1.7820017 0.0584352 2.1729589
1.7989956 0.0585078 2.1683475
1.8000000 0.0592521 2.1663712
1.7740043 0.0630642 2.1690063
1.7730000 0.0629008 2.1677620
1.7820017 0.0674209 2.0352572
1.7989956 0.0632457 2.0360075
1.7740043 0.0714690 2.0397588
1.7730000 0.0712149 2.0409849
1.8000000 0.0642805 2.0384596
1.7820017 0.0630642 2.1690063
1.7989956 0.0629008 2.1643400
1.8000000 0.0635543 2.1622722
1.7740043 0.0674209 2.1647609
1.7730000 0.0672031 2.1635348
1.7820017 0.0714690 2.0397588
1.7989956 0.0673665 2.0403627
1.7740043 0.0752448 2.0445349
1.7730000 0.0749181 2.0457610
1.8000000 0.0682559 2.0429063
1.7820017 0.0674209 2.1647609
1.7989956 0.0670215 2.1600397
1.8000000 0.0675843 2.1578621
1.7740043 0.0714690 2.1602227
1.7730000 0.0712149 2.1590149
1.7820017 0.0752448 2.0445349
1.7989956 0.0711423 2.0449375
1.7740043 0.0787120 2.0495489
1.7730000 0.0782764 2.0507750
1.8000000 0.0719228 2.0476092
1.7820017 0.0714690 2.1602227
1.7989956 0.0708518 2.1554832
1.8000000 0.0712875 2.1532141
1.7740043 0.0752448 2.1554649
1.7730000 0.0749181 2.1542205
1.7820017 0.0787120 2.0495489
1.7989956 0.0746276 2.0497685
1.7740043 0.0818162 2.0547825
1.7730000 0.0813442 2.0559902
1.8000000 0.0752448 2.0525134
1.7820017 0.0752448 2.1554649
1.7989956 0.0743553 2.1506705
1.8000000 0.0747002 2.1483282
1.7740043 0.0787120 2.1504509
1.7730000 0.0782764 2.1492065
1.7820017 0.0818162 2.0547825
1.7989956 0.0777862 2.0547825
1.7740043 0.0845754 2.0601991
1.7730000 0.0840309 2.0613885
1.8000000 0.0782582 2.0576738
1.7820017 0.0787120 2.1504509
1.7989956 0.0775321 2.1456382
1.8000000 0.0777499 2.1432410
1.7740043 0.0818162 2.1451990
1.7730000 0.0813442 2.1440096
1.7820017 0.0845754 2.0601991
1.7989956 0.0806181 2.0600527
1.7740043 0.0869898 2.0657986
1.7730000 0.0863907 2.0669698
1.8000000 0.0809086 2.0629806
1.7820017 0.0818162 2.1451990
1.7989956 0.0803821 2.1404046
1.8000000 0.0804910 2.1379342
1.7740043 0.0845754 2.1398007
1.7730000 0.0840309 2.1386113
1.7820017 0.0869898 2.0657986
1.7989956 0.0830869 2.0654510
1.7740043 0.0890229 2.0715263
1.7730000 0.0883331 2.0726974
1.8000000 0.0832140 2.0684703
1.7820017 0.0845754 2.1398007
1.7989956 0.0828872 2.1350063
1.8000000 0.0828328 2.1324627
1.7740043 0.0869898 2.1342012
1.7730000 0.0863907 2.1330117
1.7820017 0.0890229 2.0715263
1.7989956 0.0851926 2.0710322
1.7740043 0.0907111 2.0774004
1.7730000 0.0899306 2.0785166
1.8000000 0.0851382 2.0741065
1.7820017 0.0869898 2.1342012
1.7989956 0.0850111 2.1294617
1.8000000 0.0848296 2.1268815
1.7740043 0.0890229 2.1284735
1.7730000 0.0883331 2.1273024
1.7820017 0.0907111 2.0774004
1.7989956 0.0869172 2.0767416
1.7740043 0.0920000 2.0833476
1.7730000 0.0911468 2.0844456
1.8000000 0.0866630 2.0798890
1.7820017 0.0890229 2.1284735
1.7989956 0.0867901 2.1237523
1.8000000 0.0864270 2.1211172
1.7740043 0.0907111 2.1225995
1.7730000 0.0899306 2.1214832
1.7820017 0.0920000 2.0833476
1.7989956 0.0882786 2.0825241
1.7734361 0.0920000 2.0868977
1.7730000 0.0920000 2.0904294
1.8000000 0.0878067 2.0857082
1.7820017 0.0907111 2.1225995
1.7989956 0.0881697 2.1179881
1.8000000 0.0876433 2.1153164
1.7740043 0.0920000 2.1166522
1.7730000 0.0911468 2.1155543
1.7825726 0.0920000 2.0868977
1.7989956 0.0899669 2.1002378
1.7989956 0.0898035 2.0943271
1.7989956 0.0892226 2.0883799
1.7730000 0.0920000 2.1095704
1.8000000 0.0885872 2.0916189
1.7820017 0.0920000 2.1166522
1.7989956 0.0891681 2.1120957
1.8000000 0.0884965 2.1094240
1.7734361 0.0920000 2.1131022
1.7830008 0.0920000 2.0904294
1.8000000 0.0889322 2.0975478
1.7830008 0.0920000 2.1095704
1.7825700 0.0920000 2.1131022
1.7989956 0.0897672 2.1061667
1.8000000 0.0888958 2.1034768
3 0 1 2
3 0 2 3
4 0 3 9 4
4 0 4 12 5
4 0 5 6 1
94 1 6 14 25 37 47 57 67 77 88 99 109 119 129 139 149 159 169 179 189 199 209 219 229 239 249 259 269 279 289 299 309 319 329 339 349 359 369 379 389 399 409 419 429 439 449 459 464 453 443 433 423 413 403 393 383 373 363 353 343 333 323 313 303 293 283 273 263 252 241 230 220 210 200 190 180 170 160 150 140 130 120 110 100 89 78 68 58 48 38 26 15 7 2
3 2 7 8
3 2 8 3
4 3 8 16 9
3 4 9 10
3 4 10 11
3 4 11 12
4 5 12 22 13
3 5 13 14
3 5 14 6
3 7 15 8
3 8 15 17
4 8 17 28 16
3 9 18 10
3 9 16 18
3 10 18 19
3 10 19 11
3 11 20 21
3 11 21 22
3 11 22 12
3 11 19 23
3 11 23 20
4 13 22 35 24
3 13 24 14
3 14 24 25
3 15 26 17
3 16 27 18
3 16 28 27
3 17 26 29
4 17 29 42 28
3 18 27 30
3 18 30 19
94 19 30 41 52 62 72 82 94 93 104 114 124 134 144 154 164 174 184 194 204 214 224 234 244 254 264 274 284 294 304 314 324 334 344 354 364 374 384 394 404 414 424 434 444 454 465 471 475 468 457 447 437 427 417 407 397 387 377 367 357 347 337 327 317 307 297 287 276 265 255 245 235 225 215 205 195 185 175 165 155 145 135 125 115 105 95 83 73 63 53 43 32 33 31
3 19 31 23
3 20 32 21
3 20 23 31
3 20 31 33
3 20 33 32
3 21 32 34
3 21 34 35
3 21 35 22
4 24 35 45 36
3 24 36 37
3 24 37 25
3 26 38 39
3 26 39 29
3 27 28 40
3 27 40 41
3 27 41 30
3 28 42 40
4 29 39 50 42
3 32 43 34
3 34 43 44
3 34 44 45
3 34 45 35
4 36 45 55 46
3 36 46 47
3 36 47 37
3 38 48 49
3 38 49 39
4 39 49 59 50
3 40 42 51
3 40 51 52
3 40 52 41
3 42 50 51
3 43 53 54
3 43 54 44
3 44 54 55
3 44 55 45
4 46 55 65 56
3 46 56 47
3 47 56 57
3 48 58 49
3 49 58 60
4 49 60 69 59
3 50 61 51
3 50 59 61
3 51 61 62
3 51 62 52
3 53 63 54
3 54 63 64
3 54 64 55
3 55 64 65
4 56 65 75 66
3 56 66 67
3 56 67 57
3 58 68 60
3 59 69 70
3 59 70 61
3 60 68 71
4 60 71 81 69
3 61 70 72
3 61 72 62
3 63 73 64
3 64 73 74
3 64 74 65
3 65 74 75
4 66 75 86 76
3 66 76 67
3 67 76 77
3 68 78 79
3 68 79 71
3 69 80 70
3 69 81 80
3 70 80 82
3 70 82 72
4 71 79 91 81
3 73 83 84
3 73 84 74
3 74 84 85
3 74 85 86
3 74 86 75
4 76 86 97 87
3 76 87 88
3 76 88 77
3 78 89 90
3 78 90 79
4 79 90 102 91
3 80 81 92
3 80 92 93
3 80 93 94
3 80 94 82
3 81 91 92
3 83 95 84
3 84 95 96
3 84 96 85
3 85 96 97
3 85 97 86
4 87 97 107 98
3 87 98 88
3 88 98 99
3 89 100 90
3 90 100 101
4 90 101 112 102
3 91 102 103
3 91 103 92
3 92 103 93
3 93 103 104
4 95 105 106 96
3 96 106 107
3 96 107 97
4 98 107 117 108
3 98 108 99
3 99 108 109
3 100 110 111
3 100 111 101
4 101 111 121 112
3 102 112 113
3 102 113 103
3 103 113 104
3 104 113 114
4 105 115 116 106
3 106 116 117
3 106 117 107
4 108 117 127 118
3 108 118 119
3 108 119 109
4 110 120 122 111
4 111 122 132 121
3 112 123 113
3 112 121 123
3 113 123 114
3 114 123 124
3 115 125 126
3 115 126 116
3 116 126 127
3 116 127 117
4 118 127 137 128
3 118 128 119
3 119 128 129
3 120 130 131
3 120 131 122
3 121 132 133
3 121 133 123
4 122 131 142 132
3 123 133 124
3 124 133 134
3 125 135 126
3 126 135 136
3 126 136 137
3 126 137 127
4 128 137 147 138
3 128 138 129
3 129 138 139
3 130 140 141
3 130 141 131
4 131 141 152 142
3 132 142 143
3 132 143 133
3 133 143 134
3 134 143 144
3 135 145 146
3 135 146 136
3 136 146 147
3 136 147 137
4 138 147 157 148
3 138 148 139
3 139 148 149
3 140 150 151
3 140 151 141
4 141 151 162 152
3 142 153 143
3 142 152 153
3 143 153 144
3 144 153 154
3 145 155 156
3 145 156 146
3 146 156 157
3 146 157 147
4 148 157 167 158
3 148 158 149
3 149 158 159
3 150 160 161
3 150 161 151
4 151 161 172 162
3 152 162 163
3 152 163 153
3 153 163 154
3 154 163 164
3 155 165 166
3 155 166 156
3 156 166 167
3 156 167 157
4 158 167 177 168
3 158 168 159
3 159 168 169
3 160 170 171
3 160 171 161
4 161 171 182 172
3 162 173 163
3 162 172 173
3 163 173 164
3 164 173 174
3 165 175 176
3 165 176 166
3 166 176 177
3 166 177 167
4 168 177 187 178
3 168 178 169
3 169 178 179
3 170 180 181
3 170 181 171
4 171 181 192 182
3 172 182 183
3 172 183 173
3 173 183 174
3 174 183 184
4 175 185 186 176
3 176 186 187
3 176 187 177
4 178 187 197 188
3 178 188 179
3 179 188 189
3 180 190 191
3 180 191 181
4 181 191 201 192
3 182 192 193
3 182 193 183
3 183 193 184
3 184 193 194
3 185 195 196
3 185 196 186
3 186 196 197
3 186 197 187
4 188 197 207 198
3 188 198 189
3 189 198 199
3 190 200 191
3 191 200 202
4 191 202 212 201
3 192 203 193
3 192 201 203
3 193 203 194
3 194 203 204
3 195 205 206
3 195 206 196
3 196 206 207
3 196 207 197
4 198 207 217 208
3 198 208 209
3 198 209 199
3 200 210 211
3 200 211 202
3 201 212 213
3 201 213 203
4 202 211 222 212
3 203 213 204
3 204 213 214
3 205 215 216
3 205 216 206
3 206 216 217
3 206 217 207
4 208 217 227 218
3 208 218 209
3 209 218 219
3 210 220 221
3 210 221 211
4 211 221 232 222
3 212 222 223
3 212 223 213
3 213 223 214
3 214 223 224
3 215 225 226
3 215 226 216
3 216 226 227
3 216 227 217
4 218 227 237 228
3 218 228 219
3 219 228 229
3 220 230 231
3 220 231 221
4 221 231 242 232
3 222 232 233
3 222 233 223
3 223 233 224
3 224 233 234
3 225 235 236
3 225 236 226
3 226 236 237
3 226 237 227
4 228 237 247 238
3 228 238 229
3 229 238 239
3 230 240 231
3 230 241 240
4 231 240 250 242
3 232 242 243
3 232 243 233
3 233 243 234
3 234 243 244
3 235 245 246
3 235 246 236
3 236 246 247
3 236 247 237
4 238 247 257 248
3 238 248 239
3 239 248 249
3 240 241 251
4 240 251 260 250
3 241 252 251
3 242 250 253
3 242 253 243
3 243 253 244
3 244 253 254
3 245 255 256
3 245 256 246
3 246 256 257
3 246 257 247
4 248 257 267 258
3 248 258 249
3 249 258 259
3 250 260 261
3 250 261 253
3 251 252 262
4 251 262 270 260
3 252 263 262
3 253 261 254
3 254 261 264
3 255 265 266
3 255 266 256
3 256 266 267
3 256 267 257
3 258 268 259
4 258 267 277 268
3 259 268 269
3 260 270 271
3 260 271 261
3 261 271 264
3 262 263 272
4 262 272 280 270
3 263 273 272
3 264 271 274
3 265 275 266
3 265 276 275
3 266 277 267
3 266 275 277
4 268 277 286 278
3 268 278 269
3 269 278 279
3 270 280 281
3 270 281 271
3 271 281 274
3 272 273 282
4 272 282 290 280
3 273 283 282
3 274 281 284
3 275 276 285
3 275 285 286
3 275 286 277
3 276 287 285
4 278 286 296 288
3 278 288 289
3 278 289 279
3 280 290 291
3 280 291 281
3 281 291 284
3 282 283 292
4 282 292 300 290
3 283 293 292
3 284 291 294
3 285 287 295
3 285 295 296
3 285 296 286
3 287 297 295
3 288 298 289
4 288 296 305 298
3 289 298 299
3 290 300 301
3 290 301 291
3 291 301 294
3 292 293 302
4 292 302 310 300
3 293 303 302
3 294 301 304
3 295 305 296
3 295 297 306
3 295 306 305
3 297 307 306
3 298 308 299
4 298 305 315 308
3 299 308 309
3 300 310 311
3 300 311 301
3 301 311 304
3 302 303 312
4 302 312 320 310
3 303 313 312
3 304 311 314
3 305 306 315
3 306 307 316
3 306 316 315
3 307 317 316
3 308 318 309
4 308 315 325 318
3 309 318 319
3 310 320 321
3 310 321 311
3 311 321 314
3 312 313 322
4 312 322 330 320
3 313 323 322
3 314 321 324
3 315 316 325
3 316 317 326
3 316 326 325
3 317 327 326
4 318 325 335 328
3 318 328 319
3 319 328 329
3 320 330 331
3 320 331 321
3 321 331 324
3 322 323 332
4 322 332 340 330
3 323 333 332
3 324 331 334
3 325 326 335
3 326 327 336
3 326 336 335
3 327 337 336
4 328 335 345 338
3 328 338 329
3 329 338 339
3 330 340 341
3 330 341 331
3 331 341 334
3 332 333 342
4 332 342 350 340
3 333 343 342
3 334 341 344
3 335 336 345
3 336 337 346
3 336 346 345
3 337 347 346
3 338 348 339
4 338 345 355 348
3 339 348 349
3 340 350 351
3 340 351 341
3 341 351 344
3 342 343 352
4 342 352 360 350
3 343 353 352
3 344 351 354
3 345 346 355
3 346 347 356
3 346 356 355
3 347 357 356
4 348 355 365 358
3 348 358 349
3 349 358 359
3 350 360 361
3 350 361 351
3 351 361 354
3 352 353 362
4 352 362 370 360
3 353 363 362
3 354 361 364
3 355 356 365
3 356 357 366
3 356 366 365
3 357 367 366
4 358 365 375 368
3 358 368 359
3 359 368 369
3 360 370 371
3 360 371 361
3 361 371 364
3 362 363 372
4 362 372 380 370
3 363 373 372
3 364 371 374
3 365 366 375
3 366 367 376
3 366 376 375
3 367 377 376
3 368 378 369
4 368 375 385 378
3 369 378 379
3 370 380 381
3 370 381 371
3 371 381 374
3 372 373 382
4 372 382 390 380
3 373 383 382
3 374 381 384
3 375 376 385
3 376 377 386
3 376 386 385
3 377 387 386
4 378 385 395 388
3 378 388 379
3 379 388 389
3 380 390 391
3 380 391 381
3 381 391 384
3 382 383 392
4 382 392 400 390
3 383 393 392
3 384 391 394
3 385 386 395
3 386 387 396
3 386 396 395
3 387 397 396
3 388 398 389
4 388 395 405 398
3 389 398 399
3 390 400 401
3 390 401 391
3 391 401 394
3 392 393 402
4 392 402 410 400
3 393 403 402
3 394 401 404
3 395 396 405
3 396 397 406
3 396 406 405
3 397 407 406
3 398 408 399
4 398 405 415 408
3 399 408 409
3 400 410 411
3 400 411 401
3 401 411 404
3 402 403 412
4 402 412 420 410
3 403 413 412
3 404 411 414
3 405 406 415
3 406 407 416
3 406 416 415
3 407 417 416
4 408 415 425 418
3 408 418 409
3 409 418 419
3 410 420 421
3 410 421 411
3 411 421 414
3 412 413 422
4 412 422 430 420
3 413 423 422
3 414 421 424
3 415 416 425
3 416 417 426
3 416 426 425
3 417 427 426
4 418 425 435 428
3 418 428 419
3 419 428 429
3 420 430 431
3 420 431 421
3 421 431 424
3 422 423 432
4 422 432 440 430
3 423 433 432
3 424 431 434
3 425 426 435
3 426 427 436
3 426 436 435
3 427 437 436
4 428 435 445 438
3 428 438 429
3 429 438 439
3 430 440 441
3 430 441 431
3 431 441 434
3 432 433 442
4 432 442 450 440
3 433 443 442
3 434 441 444
3 435 436 445
3 436 437 446
3 436 446 445
3 437 447 446
4 438 445 455 448
3 438 448 439
3 439 448 449
3 440 450 451
3 440 451 441
3 441 451 444
3 442 443 452
12 442 452 453 464 469 458 466 473 472 470 460 450
3 443 453 452
3 444 451 454
3 445 446 455
3 446 447 456
3 446 456 455
3 447 457 456
4 448 455 466 458
3 448 458 449
3 449 458 459
3 450 460 461
3 450 461 462
3 450 462 463
3 450 463 451
3 451 463 454
3 454 463 465
3 455 456 466
3 456 457 467
3 456 467 466
3 457 468 467
3 458 469 459
3 459 469 464
3 460 470 461
3 461 471 462
3 461 470 472
3 461 472 473
3 461 473 466
3 461 466 474
3 461 474 475
3 461 475 471
3 462 471 465
3 462 465 463
3 466 467 474
3 467 468 474
3 468 475 474
