ply
format ascii 1.0
comment made by tesseract
element vertex 808
property float x
property float y
property float z
element face 1421
property list uchar int vertex_indices
end_header
0.2487656 0.0414369 1.6080000
0.2035757 0.0414369 1.6130509
0.2487656 0.0489152 1.6080000
0.2689439 0.0414369 1.6080000
0.3246458 -0.2784120 1.7751217
0.3215043 -0.2782894 1.7751217
0.3186044 -0.2777990 1.7751217
0.2035757 0.0489152 1.6130509
0.3152212 -0.2767570 1.7751217
0.3124421 -0.2757149 1.7751217
0.3096631 -0.2739986 1.7751217
0.3070049 -0.2723436 1.7751217
0.3045883 -0.2700756 1.7751217
0.2007967 0.0414369 1.6150713
0.3215043 0.1384091 1.6252362
0.3254916 0.1396351 1.6251731
0.3297206 0.1409836 1.6252362
0.3380578 0.1436807 1.6256782
0.2689439 0.0489152 1.6080000
0.2708772 0.0414369 1.6082526
0.3410785 -0.0054554 1.6383054
0.3308081 -0.2777990 1.7751217
0.3276665 -0.2782894 1.7751217
0.2934721 -0.2822124 1.9236813
0.2905722 -0.2820285 1.9227343
0.2875515 -0.2815381 1.9217241
0.2842891 -0.2806187 1.9208402
0.2007967 0.0489152 1.6150713
0.2993927 0.3057505 1.6987900
0.2998760 0.3055054 1.6984743
0.3093006 0.1352217 1.6261201
0.3148587 0.1369993 1.6256782
0.2817517 -0.2795766 1.9200194
0.2395826 -0.2637006 1.9652250
0.2314871 -0.2597163 1.9676873
0.2230291 -0.2552416 1.9684449
0.2168669 -0.2516864 1.9685712
0.2070797 -0.2456180 1.9694551
0.1989842 -0.2398560 1.9691394
0.1948761 -0.2366073 1.9694551
0.1920970 -0.2348910 1.9714755
0.1918554 -0.2341554 1.9697708
0.1889555 -0.2317035 1.9702759
0.2096171 -0.2264319 1.9020887
0.3026550 -0.2678689 1.7751217
0.1986218 0.0414369 1.6172179
0.3257333 0.1406158 1.6254888
0.3309289 0.1419644 1.6254888
0.3381786 0.1445389 1.6259939
0.3392661 0.1447227 1.6259939
0.3414410 0.1453970 1.6261833
0.3407160 0.1441098 1.6258045
0.2708772 0.0489152 1.6082526
0.3443409 0.1451518 1.6261833
0.3490532 0.1468068 1.6267515
0.3648817 0.1507299 1.6296558
0.3671774 0.0414369 1.6302240
0.3569070 -0.0054554 1.6406415
0.3490532 -0.0054554 1.6393788
0.3340704 -0.2769408 1.7751217
1.2936899 -0.1078831 2.0786808
1.2936899 -0.1080057 2.0803855
1.2829362 -0.1103963 2.0954751
1.2829362 -0.1104576 2.1020412
0.3096631 -0.2806187 1.8834635
0.3282707 -0.2781668 1.7814985
0.3062799 -0.2809252 1.8813800
0.2770394 -0.2757762 1.9534185
0.2734146 -0.2752858 1.9555020
0.2752270 -0.2760214 1.9520295
0.2986677 -0.2817220 1.9140846
0.2992718 -0.2816607 1.9203351
0.2966136 -0.2818446 1.9246915
0.4240876 -0.2182794 2.2032487
0.2712397 -0.2749793 1.9560071
0.2702730 -0.2749793 1.9551863
0.2694272 -0.2749793 1.9544287
0.2685814 -0.2748567 1.9536079
0.2635066 -0.2733856 1.9561965
0.2591568 -0.2720371 1.9593533
0.2583110 -0.2717306 1.9581537
0.2990302 0.3059344 1.6991688
0.1986218 0.0489152 1.6172179
0.2998760 0.3061183 1.6987900
0.3004801 0.3058118 1.6986006
0.3506239 0.1485845 1.6273829
0.3466366 0.1472359 1.6268778
0.3340704 0.1433129 1.6258045
0.2545653 -0.2703820 1.9621313
0.2484031 -0.2677463 1.9621313
0.2423617 -0.2652331 1.9666140
0.2358369 -0.2621069 1.9686975
0.2316079 -0.2599615 1.9690131
0.2273789 -0.2578774 1.9717280
0.2174710 -0.2522994 1.9714755
0.2070797 -0.2458632 1.9721068
0.1993467 -0.2407142 1.9731801
0.1991051 -0.2402238 1.9705284
0.1952386 -0.2374654 1.9722331
0.1924595 -0.2353813 1.9728645
0.1895596 -0.2331746 1.9736221
0.1869014 -0.2310292 1.9746323
0.1866597 -0.2304776 1.9734958
0.1865389 -0.2299872 1.9723594
0.1835182 -0.2267384 1.9720437
0.3006010 -0.2650492 1.7751217
0.1790475 -0.2231832 1.9764001
0.1786851 -0.2217120 1.9743797
0.1745769 -0.2185859 1.9792412
0.1721603 -0.2146016 1.9786099
0.1702271 -0.2120271 1.9798726
0.1916137 0.0414369 1.6283931
0.1943928 0.0414369 1.6224582
0.1964468 0.0414369 1.6198065
0.3525572 0.1477263 1.6273197
0.3565445 0.1481554 1.6279511
0.3608944 0.1504234 1.6288350
0.3506239 0.1476037 1.6270672
0.3548529 0.1489523 1.6277617
0.3645192 0.1515880 1.6296558
0.3670566 0.1528753 1.6302871
0.3689899 0.1529366 1.6307291
0.3729772 0.1532431 1.6317393
0.3751521 0.0414369 1.6323706
0.3646400 -0.0054554 1.6424724
0.3367287 -0.2757762 1.7751217
1.3524126 -0.0695110 2.0389050
1.3524126 -0.0733728 2.0436402
1.3524126 -0.0768667 2.0485648
1.3524126 -0.0800542 2.0536789
1.3524126 -0.0828738 2.0589823
1.3524126 -0.0854483 2.0645383
1.2936899 -0.1073314 2.0769130
1.3524126 -0.0875324 2.0701574
1.3524126 -0.0893100 2.0759660
1.3524126 -0.0907199 2.0819008
1.3524126 -0.0916393 2.0878987
1.3524126 -0.0922523 2.0938335
1.2936899 -0.1080057 2.1201613
1.3524126 -0.0924975 2.0998946
1.2584080 -0.1139515 2.1298843
0.2752270 -0.2749793 1.9570804
0.2717230 -0.2744277 1.9590376
0.4240876 -0.2176664 2.2050165
0.2981844 -0.2182794 2.2032487
0.2670107 -0.2738147 1.9598584
0.2615734 -0.2724661 1.9622576
0.2608484 -0.2723436 1.9613737
0.2561361 -0.2708111 1.9642779
0.2993927 0.3063635 1.6992951
0.2242374 0.3059344 1.7740484
0.1964468 0.0489152 1.6198065
0.2998760 0.3066087 1.6992951
0.3004801 0.3063635 1.6989794
0.3498990 0.3057505 1.6984743
0.3558196 0.1499943 1.6281405
0.2510613 -0.2689109 1.9669296
0.2504572 -0.2687270 1.9657932
0.2498530 -0.2684818 1.9644673
0.2492489 -0.2681753 1.9633309
0.2448991 -0.2663977 1.9664877
0.2407909 -0.2645588 1.9691394
0.2364411 -0.2624747 1.9713492
0.2254457 -0.2565902 1.9740640
0.2231499 -0.2554255 1.9731801
0.2320912 -0.2601454 1.9729907
0.2323329 -0.2601454 1.9741903
0.2210958 -0.2541996 1.9738746
0.2189209 -0.2529736 1.9735590
0.2132420 -0.2494797 1.9748217
0.2072006 -0.2459245 1.9733064
0.1995884 -0.2407755 1.9745060
0.1934261 -0.2363621 1.9767789
0.1904054 -0.2340328 1.9762107
0.1927012 -0.2356878 1.9741903
0.1877472 -0.2319487 1.9770315
0.1852098 -0.2298646 1.9781048
0.1843640 -0.2288225 1.9758319
0.1840015 -0.2280870 1.9743797
0.1756644 -0.2209152 1.9829663
0.1733686 -0.2184633 1.9841658
0.1731270 -0.2178503 1.9830925
0.1709520 -0.2154597 1.9844815
0.1705896 -0.2138047 1.9821455
0.1667230 -0.2089009 1.9847972
0.1611649 -0.2017905 1.9898481
0.1563318 -0.1925346 1.9932575
0.1546402 -0.1902053 1.9957829
0.1529486 -0.1877534 1.9984346
0.1696229 -0.0054554 1.7528346
0.1566943 0.0414369 1.7525189
0.1916137 0.0489152 1.6283931
0.1943928 0.0489152 1.6224582
0.3579945 0.1506686 1.6285193
0.3629484 0.1514654 1.6293401
0.3726147 0.1542238 1.6317393
0.3660900 0.1531818 1.6302871
0.3752729 0.1563692 1.6328757
0.3770854 0.1554498 1.6330020
0.3809519 0.1557562 1.6342016
0.3828851 0.0414369 1.6348961
0.3799852 -0.0054554 1.6470182
0.3722522 -0.0054554 1.6445559
0.3398702 -0.2742438 1.7751217
1.3524126 -0.0609294 2.0303816
1.3524126 -0.0653428 2.0344854
1.3535000 -0.0687755 2.0395995
1.3535000 -0.0725146 2.0442716
1.3535000 -0.0760086 2.0491331
1.3535000 -0.0791347 2.0542471
1.3535000 -0.0819544 2.0594243
1.3535000 -0.0845289 2.0649803
1.3535000 -0.0865517 2.0704731
1.3535000 -0.0882680 2.0762816
1.3535000 -0.0896778 2.0820270
1.3535000 -0.0905973 2.0879619
1.3535000 -0.0912716 2.0939598
1.2936899 -0.1076379 2.1219292
1.3524126 -0.0922523 2.1059557
1.3524126 -0.0916393 2.1120168
1.3524126 -0.0907199 2.1179516
1.3535000 -0.0914555 2.0998946
1.3535000 -0.0912716 2.1058925
1.2936899 -0.1069636 2.1236970
1.2936899 -0.0917619 2.1604423
0.4240876 -0.2168083 2.2067211
0.2680981 -0.2736921 1.9609317
0.2981844 -0.2176664 2.2050165
0.2722063 -0.2182794 2.1914422
0.2631441 -0.2724661 1.9642779
0.2638691 -0.2723436 1.9650987
0.2575860 -0.2708111 1.9664877
0.2517863 -0.2690335 1.9681292
0.2245999 0.3066700 1.7745535
0.2236332 0.3054441 1.7746166
0.2239957 0.3060570 1.7746166
0.3068840 0.3438161 1.7806146
0.3093006 0.3438161 1.7784679
0.3120797 0.3438161 1.7767001
0.3143754 0.3438161 1.7756268
0.3151004 0.3438161 1.7753111
0.3172753 0.3438161 1.7745535
0.3205377 0.3438161 1.7737958
0.3213835 0.3438161 1.7736064
0.3004801 0.3067926 1.6996107
0.3495365 0.3065474 1.6991688
0.3501406 0.3062409 1.6989162
0.3506239 0.3059344 1.6987900
0.3506239 0.3053215 1.6984743
0.3964179 0.1631119 1.6407678
0.3956929 0.1626215 1.6403258
0.3898932 0.1608439 1.6379266
0.3830060 0.1588211 1.6354643
0.3802269 0.1577178 1.6343910
0.3629484 0.1525075 1.6297189
0.2498530 -0.2682979 1.9685081
0.2461073 -0.2668268 1.9691394
0.2433283 -0.2656622 1.9692657
0.2411534 -0.2646201 1.9705284
0.2416367 -0.2647427 1.9717911
0.2370452 -0.2624747 1.9739378
0.2281039 -0.2575096 1.9767789
0.2192834 -0.2528510 1.9760213
0.2328162 -0.2598389 1.9767789
0.2152961 -0.2502766 1.9770946
0.2115504 -0.2479473 1.9775997
0.2111879 -0.2481924 1.9750742
0.2074422 -0.2459245 1.9748217
0.2035757 -0.2434113 1.9745060
0.1964468 -0.2383236 1.9777259
0.1943928 -0.2367299 1.9795569
0.1912512 -0.2346458 1.9786730
0.1887138 -0.2326843 1.9794306
0.1861764 -0.2306001 1.9804408
0.1813433 -0.2264319 1.9829031
0.1765102 -0.2220185 1.9851129
0.1804975 -0.2255738 1.9807565
0.1737311 -0.2190150 1.9851129
0.1678105 -0.2122110 1.9897850
0.1670855 -0.2105560 1.9871333
0.1632190 -0.2053457 1.9895324
0.1599567 -0.2014840 1.9944571
0.1564526 -0.1957833 1.9972982
0.1563318 -0.1941283 1.9952778
0.1546402 -0.1919216 1.9979296
0.1529486 -0.1893471 2.0007075
0.1499279 -0.1821140 2.0034855
0.1546402 0.0414369 1.7606004
0.1550027 0.0845902 1.7585800
0.1639440 0.0890649 1.7328204
0.1668439 0.0900456 1.7260648
0.1570568 0.0851418 1.7514456
0.1575401 0.0863678 1.7499303
0.1603191 0.0869195 1.7410913
0.1617691 0.0876550 1.7376819
0.3751521 0.1553272 1.6325600
0.3790186 0.1566757 1.6337596
0.3830060 0.1578403 1.6350855
0.3850600 0.1580242 1.6357169
0.3888057 0.1583307 1.6369796
0.3904973 0.0414369 1.6377372
1.3524126 -0.0179601 2.0091678
1.3524126 -0.0239059 2.0105568
1.3524126 -0.0296679 2.0123246
1.3524126 -0.0353685 2.0145344
1.3524126 -0.0408239 2.0169336
1.3524126 -0.0461568 2.0198378
1.3524126 -0.0513671 2.0229946
1.3524126 -0.0562708 2.0265934
1.3535000 -0.0556579 2.0273510
1.3535000 -0.0602552 2.0311392
1.3535000 -0.0646073 2.0351799
1.3524126 -0.0893100 2.1238864
1.3524126 -0.0875324 2.1296949
1.3524126 -0.0854483 2.1353140
1.3535000 -0.0905973 2.1118274
1.3535000 -0.0896778 2.1177622
1.3524126 -0.0828738 2.1408700
1.3524126 -0.0800542 2.1462366
1.3524126 -0.0768667 2.1512875
1.3524126 -0.0733728 2.1562121
1.2936899 -0.0907199 2.1618313
0.4240876 -0.2157049 2.2081101
0.2981844 -0.2168083 2.2067211
0.2703939 -0.2176664 2.1914422
0.2445366 -0.2653557 1.9745060
0.2473156 -0.2669494 1.9717280
0.2534779 -0.2690335 1.9705284
0.2554111 -0.2695239 1.9702127
0.2241166 0.3063635 1.7752480
0.2245999 0.3067926 1.7752480
0.2854974 0.3436322 1.8198853
0.3012051 0.3438161 1.7884435
0.3027759 0.3438161 1.7856655
0.3045883 0.3438161 1.7829506
0.2237541 0.3058118 1.7751217
0.1615274 0.0880841 1.7387552
0.1589900 0.0872872 1.7456371
0.1568151 0.0866743 1.7527083
0.1553652 0.0866743 1.7590851
0.1546402 0.0855096 1.7606004
0.1540361 0.0858774 1.7643254
0.1524653 0.0853257 1.7724068
0.1321661 0.1299501 2.0298134
0.3073674 0.3440000 1.7811828
0.3099048 0.3440000 1.7792256
0.3126838 0.3440000 1.7774577
0.3154629 0.3440000 1.7760688
0.3183627 0.3440000 1.7751217
0.3215043 0.3440000 1.7744903
0.3236792 0.3438161 1.7734170
0.3268207 0.3438161 1.7734170
0.3501406 0.3066700 1.6994845
0.3506239 0.3066700 1.6996107
0.3506239 0.3064248 1.6992951
1.3524126 0.0654041 2.0344854
1.3524126 0.0608681 2.0303816
1.3524126 0.0562709 2.0265934
1.3524126 0.0513058 2.0229946
1.3524126 0.0462181 2.0198378
0.4197378 0.1710193 1.6537738
0.4184087 0.1700998 1.6526374
0.4176837 0.1696707 1.6520691
0.4150255 0.1696094 1.6508696
0.4114006 0.1678318 1.6484072
0.4077758 0.1666059 1.6463237
0.4001636 0.1643379 1.6425356
0.4011302 0.1636023 1.6425356
0.3971429 0.1623763 1.6407678
0.3927931 0.1604761 1.6386843
0.3909806 0.1603535 1.6380529
0.3869933 0.1591276 1.6365376
0.2433283 -0.2654783 1.9718543
0.2419992 -0.2647427 1.9731801
0.2377702 -0.2621069 1.9765264
0.2239957 -0.2547513 1.9787993
0.2195251 -0.2524220 1.9782310
0.2080464 -0.2454954 1.9786099
0.2039382 -0.2432887 1.9772209
0.2689439 -0.2168083 2.1914422
0.1975343 -0.2384462 1.9804408
0.1908887 -0.2332972 1.9840396
0.1884722 -0.2315196 1.9848603
0.1898013 -0.2331133 1.9818298
0.1891971 -0.2328681 1.9807565
0.1824307 -0.2272288 1.9849235
0.1777184 -0.2229380 1.9873227
0.1753019 -0.2206700 1.9886485
0.1748186 -0.2202409 1.9873858
0.1743352 -0.2197505 1.9863125
0.1686563 -0.2134369 1.9921842
0.1638232 -0.2069394 1.9919316
0.1628565 -0.2063877 1.9964143
0.1624941 -0.2057135 1.9953410
0.1604400 -0.2030164 1.9967300
0.1568151 -0.1971932 1.9994448
0.1546402 -0.1933314 2.0000762
0.1530694 -0.1908182 2.0029805
0.1514987 -0.1872630 2.0045589
0.1499279 -0.1834626 2.0060741
0.1485988 -0.1795396 2.0073369
0.1472697 -0.1753713 2.0083470
0.1487196 -0.1782523 2.0044957
0.1321661 -0.1298888 2.0298134
0.1529486 0.0414369 1.7686818
0.1535527 0.0839772 1.7658407
0.1528278 0.0845902 1.7695026
0.3884432 0.1591889 1.6369796
1.3524126 0.0061297 2.0075894
1.3524126 0.0000613 2.0074631
1.3524126 -0.0059458 2.0075894
1.3524126 -0.0120143 2.0082208
1.3535000 -0.0118304 2.0091678
1.3535000 -0.0178375 2.0101780
1.3535000 -0.0236607 2.0115670
1.3535000 -0.0293001 2.0132717
1.3535000 -0.0349394 2.0153552
1.3535000 -0.0404562 2.0178806
1.3535000 -0.0457277 2.0206586
1.3535000 -0.0508154 2.0238786
1.3535000 -0.0882680 2.1236338
1.3535000 -0.0865517 2.1293161
1.3535000 -0.0845289 2.1349352
1.3535000 -0.0819544 2.1403649
1.3535000 -0.0791347 2.1456684
1.3535000 -0.0760086 2.1507824
1.3524126 -0.0695110 2.1608842
1.3535000 -0.0725146 2.1555808
1.3535000 -0.0687755 2.1602529
1.3524126 -0.0653428 2.1653038
1.2936899 -0.0626458 2.1900532
1.2829362 -0.0777249 2.1783730
1.2829362 -0.0822609 2.1735746
1.2829362 -0.0730050 2.1827925
1.2936899 -0.0612972 2.1911896
0.4240876 -0.2141725 2.2093097
0.2981844 -0.2157049 2.2081101
0.2241166 0.3063635 1.8246837
0.2245999 0.3067926 1.8248099
0.2839266 0.3426515 1.8379423
0.2858599 0.3438161 1.8202641
0.2862224 0.3440000 1.8205798
0.3018092 0.3440000 1.7888854
0.3033800 0.3440000 1.7861074
0.3051924 0.3440000 1.7835188
0.2237541 0.3058118 1.8246205
0.1531903 0.0849580 1.7677979
0.1522236 0.0846515 1.7732908
0.1517403 0.0842224 1.7768264
0.1511362 0.0842837 1.7823192
0.1191166 0.0799316 2.0781757
0.2295538 0.2538931 1.9604266
0.2279831 0.2538931 1.9586588
0.2040590 0.2578161 1.9189461
0.2022466 0.2563450 1.9188198
0.2018841 0.2572031 1.9163575
0.2001925 0.2553642 1.9164206
0.1991051 0.2545674 1.9151579
0.1989842 0.2546900 1.9138952
0.1980176 0.2535866 1.9122537
0.1971718 0.2521768 1.9120642
0.3246458 0.3440000 1.7742378
0.3280290 0.3440000 1.7743641
0.3300831 0.3438161 1.7739221
0.3312914 0.3438161 1.7741747
0.3332246 0.3438161 1.7746166
0.3360037 0.3438161 1.7757531
0.3373328 0.3438161 1.7763844
0.3389036 0.3438161 1.7772683
0.3402327 0.3438161 1.7780891
0.3415618 0.3438161 1.7790993
0.3427701 0.3438161 1.7801095
1.3524126 0.0854483 2.0645383
1.3524126 0.0828738 2.0589823
1.3524126 0.0800542 2.0536789
1.3524126 0.0768667 2.0485648
1.3524126 0.0733728 2.0436402
1.3524126 0.0695111 2.0389050
1.3535000 0.0646686 2.0351799
1.3535000 0.0602552 2.0311392
1.3535000 0.0555966 2.0273510
1.3535000 0.0508154 2.0238786
1.3535000 0.0456664 2.0206586
1.3524126 0.0408852 2.0169336
0.4147838 0.1689351 1.6504276
0.4085008 0.1659316 1.6463237
1.3524126 0.0353072 2.0145344
1.3524126 0.0239672 2.0105568
1.3524126 0.0181440 2.0091678
1.3524126 0.0120756 2.0082208
0.2981844 -0.2141725 2.2093097
0.2674940 -0.2157049 2.1914422
0.1702271 -0.2121497 2.0036750
0.1780809 -0.2221411 1.9929418
0.1802558 -0.2241026 1.9914897
0.1835182 -0.2276579 1.9869438
0.1873847 -0.2312131 1.9827768
0.1773560 -0.2218346 1.9917422
0.1759060 -0.2210991 1.9896587
0.1731270 -0.2183407 1.9898481
0.1698646 -0.2144790 1.9945833
0.1650314 -0.2084718 2.0007707
0.1645481 -0.2080428 1.9997605
0.1639440 -0.2074911 1.9986240
0.1620107 -0.2050392 2.0002656
0.1609233 -0.2038746 1.9981190
0.1574193 -0.1985417 2.0015283
0.1551235 -0.1946800 2.0020965
0.1540361 -0.1929024 2.0067686
0.1524653 -0.1897149 2.0093572
0.1521028 -0.1887954 2.0075263
0.1556068 -0.1957833 2.0041169
0.1493238 -0.1823592 2.0101780
0.1490821 -0.1816237 2.0084102
0.1487196 -0.1807655 2.0104305
0.1493238 -0.1818076 2.0130823
0.1191166 -0.0799929 2.0781757
0.1517403 0.0414369 1.7768264
0.1522236 0.0836094 1.7730382
1.3535000 0.0119530 2.0091678
1.3535000 0.0060684 2.0085996
1.3535000 0.0000613 2.0084102
1.3535000 -0.0058845 2.0085996
1.3535000 -0.0646073 2.1646093
1.3524126 -0.0609294 2.1695339
1.3524126 -0.0562708 2.1732589
1.3524126 -0.0513671 2.1768577
1.2936899 -0.0597648 2.1921367
0.4240876 -0.2125175 2.2102568
0.2242374 0.3063635 1.8257570
0.2239957 0.3061183 1.8253150
0.2245999 0.3066700 1.8255044
0.2851349 0.3431419 1.8392050
0.2846516 0.3429580 1.8385736
0.3045883 0.3440000 1.8390156
0.1512570 0.0833642 1.7802989
0.1506529 0.0414369 1.7850341
0.2645941 -0.1029793 2.1914422
0.3474824 -0.0296066 2.2394257
0.3469991 -0.0289936 2.2389838
0.3469991 0.1056151 2.1947253
0.3473616 0.1062281 2.1945358
0.3846976 0.1995225 2.1397967
0.3844559 0.2002580 2.1389128
0.2306413 0.2538931 1.9612474
0.2922638 0.3431419 1.8462131
0.2015216 0.2572031 1.9154105
0.3311706 0.3440000 1.7748692
0.3341913 0.3440000 1.7758162
0.3370912 0.3440000 1.7771421
0.3396285 0.3440000 1.7787836
0.3422868 0.3440000 1.7806777
0.3451867 0.3438161 1.7823824
1.3524126 0.0874711 2.0701574
1.3535000 0.0865517 2.0704731
1.3535000 0.0844676 2.0649803
1.3535000 0.0820157 2.0594243
1.3535000 0.0791960 2.0542471
1.3535000 0.0760086 2.0491331
1.3535000 0.0725146 2.0442716
1.3535000 0.0687142 2.0395995
1.3535000 0.0403949 2.0178806
1.3535000 0.0349394 2.0153552
1.3524126 0.0298517 2.0123246
1.3535000 0.0294227 2.0132717
1.3535000 0.0237220 2.0115670
1.3535000 0.0179601 2.0101780
0.2981844 -0.2125175 2.2102568
0.2662857 -0.2141725 2.1914422
0.1568151 -0.1925346 2.0172492
0.1574193 -0.1956607 2.0132717
0.1593525 -0.1981739 2.0127666
0.1611649 -0.2004419 2.0120721
0.1630982 -0.2027099 2.0113144
0.1658772 -0.2074298 2.0063898
0.1657564 -0.2089009 2.0019703
0.1711937 -0.2153371 1.9969825
0.1730061 -0.2158888 1.9993185
0.1744561 -0.2193215 1.9920579
0.1630982 -0.2060200 2.0024122
0.1592317 -0.2006871 2.0057584
0.1581442 -0.1996450 2.0036750
0.1550027 -0.1940057 2.0090415
0.1529486 -0.1902053 2.0105568
0.1504112 -0.1838917 2.0143450
0.1496862 -0.1830335 2.0119458
0.1575401 -0.1979287 2.0084102
0.1496862 -0.1822366 2.0143450
0.1514987 -0.1846272 2.0168704
0.1528278 -0.1853015 2.0192696
0.2653191 -0.2125175 2.1914422
0.2647149 -0.2108011 2.1914422
0.2645941 -0.2089009 2.1914422
1.3535000 -0.0602552 2.1687763
1.3535000 -0.0556579 2.1725644
1.3524126 -0.0461568 2.1800145
1.3535000 -0.0508154 2.1759738
1.3535000 -0.0457277 2.1791306
1.3524126 -0.0408239 2.1829188
1.3524126 -0.0353685 2.1854442
1.2936899 -0.0230478 2.2073525
1.2829362 -0.0395980 2.2030592
1.2829362 -0.0456051 2.2005338
1.2829362 -0.0514284 2.1976295
0.6221254 -0.0696949 2.2530000
0.6200714 -0.0699401 2.2530000
0.2927471 0.3429580 1.8468445
0.6052095 0.2199344 2.0998946
0.3363662 0.3438161 1.8243048
0.3363662 0.3440000 1.8232947
0.2981844 -0.1618860 2.2108881
0.3477241 -0.0287484 2.2392363
0.3473616 0.1052473 2.1950409
0.3474824 -0.1036536 2.2394257
0.5701692 0.0599487 2.2530000
0.5702900 0.0619102 2.2530000
0.5708942 0.0637491 2.2530000
0.5717400 0.0654654 2.2530000
0.5729483 0.0670592 2.2530000
0.5745190 0.0682238 2.2530000
0.3480865 -0.0291775 2.2394257
0.3477241 0.1059216 2.1948515
0.3882016 0.1998289 2.1411226
0.3863892 0.1995225 2.1406175
0.3872350 0.2002580 2.1403649
0.3857850 0.2008710 2.1389759
0.3857850 0.2017292 2.1379658
0.3844559 0.2008710 2.1381552
0.3866308 0.2020356 2.1379658
0.3445825 0.3440000 1.7829506
0.3461533 0.3438161 1.7835820
1.3524126 0.0893101 2.0759660
1.3535000 0.0883293 2.0762816
0.2981844 -0.2108011 2.2107619
0.5801980 -0.0699401 2.2530000
0.1546402 -0.1883664 2.0189539
0.1552443 -0.1919216 2.0151026
0.1579026 -0.1974996 2.0107462
0.1603191 -0.2014840 2.0077157
0.1645481 -0.2068781 2.0044326
0.1546402 -0.1915538 2.0139030
0.1521028 -0.1870178 2.0142818
0.1581442 -0.1982965 2.0094835
0.1531903 -0.1877534 2.0166179
0.2981844 -0.2089009 2.2108881
1.3535000 -0.0404562 2.1820349
1.3524126 -0.0296679 2.1875277
1.3535000 -0.0349394 2.1844340
1.3535000 -0.0293001 2.1866438
1.2936899 -0.0214540 2.2078576
1.2829362 -0.0334070 2.2052690
0.6239379 -0.0692046 2.2530000
0.3879599 0.2025873 2.1377764
0.3902557 0.2025873 2.1382814
0.3920681 0.2025873 2.1382814
0.5950599 0.1949252 2.1449739
0.5969931 0.1949252 2.1447213
1.2936899 0.0912716 2.1612630
1.2584080 0.1139515 2.1298843
0.3392661 0.3438161 1.8227896
0.3391452 0.3440000 1.8217794
0.5762106 0.0692046 2.2530000
0.3480865 -0.1041440 2.2394257
0.5729483 -0.0670592 2.2530000
0.5717400 -0.0654654 2.2530000
0.5708942 -0.0638104 2.2530000
0.5702900 -0.0618489 2.2530000
0.5701692 -0.0598874 2.2530000
0.3888057 0.1987869 2.1419433
0.3902557 0.1995225 2.1416908
0.3897724 0.1998289 2.1413751
0.3895307 0.2002580 2.1409963
0.3884432 0.2008710 2.1402387
0.3877183 0.2008710 2.1399230
0.3865100 0.2008710 2.1393548
0.3877183 0.2017292 2.1389128
0.3463949 0.3440000 1.7854129
0.3488115 0.3438161 1.7877490
1.3524126 0.0907199 2.0819008
1.3535000 0.0897391 2.0820270
0.5782647 -0.0696949 2.2530000
1.3524126 -0.0239059 2.1892955
1.3535000 -0.0236607 2.1882854
1.2936899 -0.0197990 2.2079839
1.2584080 -0.0099914 2.2149920
1.3524126 -0.0179601 2.1906845
1.3524126 -0.0120143 2.1916947
1.3524126 -0.0059458 2.1921998
0.6257503 -0.0682238 2.2530000
0.3888057 0.2020356 2.1387865
0.3892890 0.2017292 2.1392916
0.3908598 0.2017292 2.1395442
0.3913431 0.2020356 2.1391654
0.3915848 0.2008710 2.1405544
0.6200714 0.0699401 2.2530000
1.2829362 0.0711048 2.1844340
1.2829362 0.0760086 2.1800145
1.2829362 0.0806058 2.1754056
1.2829362 0.0849580 2.1705441
1.2936899 0.0901069 2.1625889
1.3524126 0.0695111 2.1608842
1.3524126 0.0733728 2.1562121
1.3524126 0.0768667 2.1512875
1.3524126 0.0800542 2.1462366
1.2936899 0.0921297 2.1597478
1.2936899 0.1073927 2.1230025
1.2936899 0.1078218 2.1211715
0.3477241 0.3440000 1.8126246
0.3459116 0.3440000 1.8153395
0.3439784 0.3440000 1.8177387
0.3438575 0.3438774 1.8184963
0.3415618 0.3438774 1.8205798
0.3415618 0.3440000 1.8198853
0.5782647 0.0696949 2.2530000
0.5762106 -0.0692046 2.2530000
0.5745190 -0.0682238 2.2530000
0.5801980 0.0699401 2.2530000
0.3907390 0.2008710 2.1405544
0.3892890 0.2008710 2.1403649
0.3479657 0.3440000 1.7881909
0.3494157 0.3440000 1.7910320
0.3494157 0.3438161 1.7890748
1.2936899 0.1080057 2.0796279
1.3524126 0.0916393 2.0878987
1.3535000 0.0905973 2.0879619
1.3535000 -0.0178375 2.1897375
1.2936899 0.0199829 2.2079839
1.2829362 -0.0011646 2.2104462
1.3524126 0.0000613 2.1924524
1.2584080 0.0100527 2.2149920
0.6301001 -0.0598874 2.2530000
0.6298585 -0.0618489 2.2530000
0.6293752 -0.0638104 2.2530000
0.6284085 -0.0654654 2.2530000
0.6272002 -0.0670592 2.2530000
1.3535000 -0.0118304 2.1906845
1.3535000 -0.0058845 2.1911896
1.3535000 0.0000613 2.1914422
0.6221254 0.0696949 2.2530000
1.2936899 0.0605004 2.1918210
1.2936899 0.0619102 2.1906845
1.3524126 0.0654041 2.1653038
1.3535000 0.0646686 2.1646093
1.3535000 0.0687142 2.1602529
1.3535000 0.0725146 2.1555808
1.3535000 0.0760086 2.1507824
1.3524126 0.0828738 2.1408700
1.3535000 0.0791960 2.1456684
1.3535000 0.0820157 2.1403649
1.3524126 0.0854483 2.1353140
1.3524126 0.0874711 2.1296949
1.3524126 0.0893101 2.1238864
1.3524126 0.0907199 2.1179516
1.2936899 0.1080057 2.1194037
0.3491740 0.3440000 1.8097204
1.3524126 0.0916393 2.1120168
0.3502615 0.3440000 1.7941257
0.3502615 0.3438774 1.7922316
1.3524126 0.0924975 2.0998946
1.3524126 0.0921910 2.0938335
0.3517114 0.3438161 1.7971563
0.3509864 0.3440000 1.8003762
1.3535000 0.0912716 2.0939598
1.2936899 0.0221283 2.2077313
1.3524126 0.0061297 2.1921998
1.3524126 0.0120756 2.1916947
0.6239379 0.0692046 2.2530000
0.6257503 0.0682238 2.2530000
0.6272002 0.0670592 2.2530000
0.6284085 0.0654654 2.2530000
0.6293752 0.0637491 2.2530000
0.6298585 0.0619102 2.2530000
0.6301001 0.0599487 2.2530000
1.2829362 0.0310164 2.2059635
1.3535000 0.0060684 2.1911896
1.2829362 0.0372074 2.2038800
1.2829362 0.0433984 2.2016071
1.2829362 0.0492830 2.1988291
1.3524126 0.0353072 2.1854442
1.3524126 0.0408852 2.1829188
1.3524126 0.0462181 2.1800145
1.3524126 0.0513058 2.1768577
1.3524126 0.0562709 2.1732589
1.3524126 0.0608681 2.1695339
1.3535000 0.0602552 2.1687763
1.3535000 0.0844676 2.1349352
1.3535000 0.0865517 2.1293161
1.3535000 0.0883293 2.1236338
1.3535000 0.0897391 2.1177622
1.3524126 0.0921910 2.1059557
0.3506239 0.3440000 1.8035962
0.3501406 0.3440000 1.8067530
1.3535000 0.0905973 2.1118274
1.3535000 0.0912716 2.1058925
0.3507448 0.3440000 1.7972194
1.3535000 0.0914555 2.0998946
1.3524126 0.0181440 2.1906845
1.3524126 0.0239672 2.1892955
1.3524126 0.0298517 2.1875277
1.3535000 0.0119530 2.1906845
1.3535000 0.0179601 2.1897375
1.3535000 0.0294227 2.1866438
1.3535000 0.0349394 2.1844340
1.3535000 0.0403949 2.1820349
1.3535000 0.0456664 2.1791306
1.3535000 0.0508154 2.1759738
1.3535000 0.0555966 2.1725644
1.3535000 0.0237220 2.1882854
4 0 1 7 2
4 0 2 18 3
3 0 3 4
3 0 4 5
3 0 5 6
3 0 6 1
3 1 6 8
3 1 8 9
3 1 9 10
3 1 10 11
3 1 11 12
3 1 12 13
4 1 13 27 7
3 2 7 14
3 2 14 15
3 2 15 16
3 2 16 17
3 2 17 18
4 3 18 52 19
3 3 19 20
3 3 20 21
3 3 21 22
3 3 22 4
3 4 22 23
3 4 23 5
3 5 23 24
3 5 24 25
3 5 25 6
3 6 25 26
3 6 26 8
3 7 27 28
3 7 28 29
3 7 29 30
3 7 30 31
3 7 31 14
3 8 26 9
3 9 26 32
3 9 32 33
3 9 33 34
3 9 34 35
3 9 35 36
3 9 36 10
3 10 36 11
3 11 36 37
3 11 37 38
3 11 38 39
3 11 39 40
3 11 40 41
3 11 41 42
3 11 42 12
3 12 42 43
3 12 43 44
3 12 44 13
4 13 45 82 27
3 13 44 45
3 14 31 46
3 14 46 15
3 15 46 16
3 16 46 47
3 16 47 17
3 17 47 48
3 17 48 49
3 17 49 50
3 17 50 51
3 17 51 18
3 18 51 53
3 18 53 54
3 18 54 52
3 19 52 55
3 19 55 56
3 19 56 57
3 19 57 58
3 19 58 20
3 20 58 59
3 20 59 21
3 21 59 60
3 21 60 61
3 21 61 62
3 21 62 63
3 21 63 64
3 21 64 65
3 21 65 22
3 22 65 64
3 22 64 66
3 22 66 23
3 23 67 68
3 23 68 69
3 23 69 24
3 23 66 70
3 23 70 71
3 23 71 72
3 23 72 73
3 23 73 67
3 24 69 74
3 24 74 75
3 24 75 76
3 24 76 25
3 25 76 77
3 25 77 78
3 25 78 79
3 25 79 26
3 26 79 80
3 26 80 32
3 27 81 28
3 27 82 81
4 28 81 149 83
3 28 83 29
3 29 46 31
3 29 31 30
3 29 83 84
3 29 84 85
3 29 85 86
3 29 86 50
3 29 50 49
3 29 49 48
3 29 48 87
3 29 87 47
3 29 47 46
3 32 80 88
3 32 88 89
3 32 89 33
3 33 89 90
3 33 90 91
3 33 91 92
3 33 92 34
3 34 92 35
3 35 92 93
3 35 93 94
3 35 94 36
3 36 94 95
3 36 95 37
3 37 95 96
3 37 96 97
3 37 97 38
3 38 97 40
3 38 40 39
3 40 97 98
3 40 98 99
3 40 99 100
3 40 100 42
3 40 42 41
3 42 100 101
3 42 101 102
3 42 102 103
3 42 103 104
3 42 104 43
3 43 105 44
3 43 104 106
3 43 106 107
3 43 107 108
3 43 108 109
3 43 109 110
3 43 110 111
3 43 111 112
3 43 112 105
3 44 105 112
3 44 112 113
3 44 113 45
4 45 113 151 82
3 47 87 48
3 50 86 85
3 50 85 54
3 50 54 51
3 51 54 53
3 52 54 114
3 52 114 115
3 52 115 116
3 52 116 55
3 54 85 117
3 54 117 118
3 54 118 114
3 55 116 119
3 55 119 120
3 55 120 121
3 55 121 122
3 55 122 56
3 56 122 123
3 56 123 124
3 56 124 57
3 57 125 59
3 57 59 58
3 57 124 125
3 59 125 126
3 59 126 127
3 59 127 128
3 59 128 129
3 59 129 130
3 59 130 131
3 59 131 132
3 59 132 60
3 60 132 133
3 60 133 134
3 60 134 135
3 60 135 136
3 60 136 137
3 60 137 61
3 61 138 63
3 61 63 62
3 61 137 139
3 61 139 138
3 63 140 71
3 63 71 64
3 63 138 140
3 64 71 70
3 64 70 66
3 67 73 141
3 67 141 68
3 68 142 74
3 68 74 69
3 68 141 142
3 71 140 72
3 72 140 73
3 73 140 143
4 73 143 227 144
3 73 144 141
3 74 142 145
3 74 145 75
3 75 145 76
3 76 145 146
3 76 146 77
3 77 146 78
3 78 146 147
3 78 147 79
3 79 148 88
3 79 88 80
3 79 147 148
3 81 82 150
3 81 150 149
3 82 151 150
3 83 149 152
3 83 152 153
3 83 153 154
3 83 154 84
3 84 154 85
3 85 154 155
3 85 155 117
3 88 148 156
3 88 156 157
3 88 157 158
3 88 158 159
3 88 159 89
3 89 159 160
3 89 160 90
3 90 160 161
3 90 161 91
3 91 161 162
3 91 162 93
3 91 93 92
3 93 163 164
3 93 164 94
3 93 162 165
3 93 165 166
3 93 166 163
3 94 164 167
3 94 167 168
3 94 168 169
3 94 169 170
3 94 170 95
3 95 170 96
3 96 171 172
3 96 172 173
3 96 173 174
3 96 174 98
3 96 98 97
3 96 170 171
3 98 174 99
3 99 174 100
3 100 174 173
3 100 173 175
3 100 175 101
3 101 175 176
3 101 176 177
3 101 177 178
3 101 178 102
3 102 178 103
3 103 178 104
3 104 178 106
3 106 179 108
3 106 108 107
3 106 178 177
3 106 177 179
3 108 179 180
3 108 180 181
3 108 181 182
3 108 182 109
3 109 182 183
3 109 183 184
3 109 184 110
3 110 184 185
3 110 185 111
3 111 185 186
3 111 186 187
3 111 187 188
3 111 188 189
3 111 189 190
3 111 190 191
4 111 191 192 112
4 112 192 151 113
3 114 118 115
3 115 118 116
3 116 118 193
3 116 193 194
3 116 194 119
3 117 155 118
3 118 155 193
3 119 194 120
3 120 195 121
3 120 194 196
3 120 196 197
3 120 197 195
3 121 195 122
3 122 198 123
3 122 195 198
3 123 198 199
3 123 199 200
3 123 200 201
3 123 201 202
3 123 202 124
3 124 202 203
3 124 203 125
3 125 203 204
3 125 204 205
3 125 205 126
4 126 205 311 206
3 126 206 127
3 127 206 207
3 127 207 208
3 127 208 128
3 128 208 129
3 129 208 209
3 129 209 210
3 129 210 130
4 130 210 211 131
3 131 211 133
3 131 133 132
3 133 211 212
3 133 212 134
3 134 212 213
3 134 213 214
3 134 214 135
3 135 214 215
3 135 215 136
3 136 215 216
3 136 216 137
3 137 216 139
3 138 217 140
3 138 139 218
3 138 218 219
3 138 219 220
3 138 220 217
3 139 216 221
3 139 221 222
3 139 222 218
3 140 217 223
3 140 223 224
3 140 224 225
3 140 225 143
3 141 144 142
3 142 144 226
3 142 226 145
4 143 225 323 227
3 144 227 228
3 144 228 229
3 144 229 230
3 144 230 226
3 145 226 229
3 145 229 146
3 146 229 231
3 146 231 148
3 146 148 147
3 148 231 232
3 148 232 156
3 149 150 233
3 149 233 152
3 150 234 235
3 150 235 233
3 150 151 192
3 150 192 234
3 152 236 237
3 152 237 238
3 152 238 239
3 152 239 240
3 152 240 241
3 152 241 242
3 152 242 243
3 152 243 244
3 152 244 245
3 152 245 153
3 152 233 236
3 153 245 154
3 154 245 246
3 154 246 247
3 154 247 248
3 154 248 249
3 154 249 250
3 154 250 251
3 154 251 252
3 154 252 253
3 154 253 197
3 154 197 196
3 154 196 254
3 154 254 193
3 154 193 155
3 156 232 255
3 156 255 256
3 156 256 157
3 157 256 160
3 157 160 158
3 158 160 159
3 160 256 257
3 160 257 161
3 161 257 258
3 161 258 162
3 162 258 259
3 162 259 260
3 162 260 166
3 162 166 165
3 163 261 262
3 163 262 167
3 163 167 164
3 163 166 261
3 166 260 263
3 166 263 261
3 167 262 168
3 168 262 169
3 169 264 265
3 169 265 266
3 169 266 267
3 169 267 170
3 169 262 264
3 170 267 268
3 170 268 171
3 171 269 172
3 171 268 269
3 172 269 270
3 172 270 271
3 172 271 272
3 172 272 173
3 173 272 175
3 175 272 176
3 176 272 273
3 176 273 274
3 176 274 275
3 176 275 276
3 176 276 177
3 177 276 179
3 179 276 275
3 179 275 277
3 179 277 180
3 180 277 278
3 180 278 182
3 180 182 181
3 182 278 279
4 182 279 184 183
3 184 279 280
3 184 280 185
3 185 281 282
3 185 282 283
3 185 283 186
3 185 280 281
3 186 283 284
3 186 284 187
3 187 284 188
3 188 284 285
3 188 285 286
3 188 286 189
3 189 286 190
3 190 286 287
3 190 287 288
3 190 288 191
3 191 289 290
3 191 290 234
3 191 234 192
3 191 288 291
3 191 291 292
3 191 292 293
3 191 293 294
3 191 294 289
3 193 254 196
3 193 196 194
3 195 197 295
3 195 295 198
3 197 253 296
3 197 296 198
3 197 198 295
3 198 296 297
3 198 297 298
3 198 298 199
3 199 298 299
3 199 299 200
3 200 299 300
3 200 300 301
3 200 301 302
3 200 302 201
3 201 203 202
3 201 302 303
3 201 303 304
3 201 304 305
3 201 305 203
3 203 305 306
3 203 306 307
3 203 307 308
3 203 308 204
3 204 308 309
3 204 309 310
3 204 310 311
3 204 311 205
96 206 311 310 309 419 418 417 416 415 414 413 412 522 521 520 519 566 565 564 562 561 482 481 480 479 478 560 559 558 557 556 555 554 632 679 724 762 795 793 792 788 787 786 785 748 747 745 744 743 742 784 806 805 804 803 802 801 807 800 799 774 737 736 735 725 682 648 647 645 597 596 594 593 523 428 427 425 424 423 422 421 420 316 315 222 221 216 215 214 213 212 211 210 209 208 207
3 217 220 312
3 217 312 313
3 217 313 314
3 217 314 223
3 218 222 219
3 219 222 315
4 219 315 316 220
3 220 316 312
3 223 314 224
3 224 314 317
3 224 317 318
3 224 318 319
3 224 319 320
3 224 320 321
3 224 321 225
3 225 321 322
4 225 322 436 323
3 226 230 229
3 227 323 228
3 228 323 324
3 228 324 325
3 228 325 326
3 228 326 327
3 228 327 328
3 228 328 229
3 229 328 231
3 231 328 327
3 231 327 232
3 232 327 326
3 232 326 255
3 233 235 329
3 233 329 330
3 233 330 331
3 233 331 332
3 233 332 333
3 233 333 334
3 233 334 236
3 234 335 235
3 234 290 289
3 234 289 336
3 234 336 293
3 234 293 337
3 234 337 338
3 234 338 339
3 234 339 340
3 234 340 341
3 234 341 342
3 234 342 343
3 234 343 335
3 235 335 329
3 236 344 237
3 236 334 344
3 237 344 345
4 237 345 346 238
3 238 346 347
3 238 347 239
3 239 347 240
3 240 347 241
3 241 347 348
3 241 348 242
3 242 348 243
3 243 348 349
3 243 349 350
3 243 350 244
3 244 350 351
3 244 351 245
3 245 352 246
3 245 351 352
3 246 352 353
3 246 353 354
3 246 354 247
3 247 354 355
3 247 355 356
3 247 356 357
3 247 357 358
3 247 358 359
3 247 359 360
3 247 360 361
3 247 361 362
3 247 362 363
3 247 363 364
3 247 364 365
3 247 365 366
3 247 366 248
3 248 366 249
3 249 366 367
3 249 367 250
3 250 367 368
3 250 368 369
3 250 369 370
3 250 370 251
3 251 370 371
3 251 371 252
3 252 371 297
3 252 297 253
3 253 297 296
3 255 326 372
3 255 372 256
3 256 372 257
3 257 372 259
3 257 259 258
3 259 372 373
3 259 373 260
3 260 374 263
3 260 373 374
3 261 375 262
3 261 263 324
3 261 324 375
3 262 375 376
3 262 376 264
3 263 374 324
3 264 376 265
3 265 377 270
3 265 270 378
3 265 378 267
3 265 267 266
3 265 376 324
3 265 324 379
3 265 379 377
3 267 378 270
3 267 270 269
3 267 269 268
3 270 380 381
3 270 381 382
3 270 382 383
3 270 383 384
3 270 384 271
3 270 377 380
3 271 384 272
3 272 384 385
3 272 385 273
3 273 385 274
3 274 386 275
3 274 385 386
3 275 386 387
3 275 387 388
3 275 388 389
3 275 389 277
3 277 389 390
3 277 390 278
3 278 391 279
3 278 390 392
3 278 392 393
3 278 393 391
3 279 391 280
3 280 391 394
3 280 394 281
3 281 394 395
3 281 395 396
3 281 396 282
3 282 396 284
3 282 284 283
3 284 396 285
3 285 397 398
3 285 398 286
3 285 396 397
3 286 399 400
3 286 400 401
3 286 401 402
3 286 402 287
3 286 398 399
3 287 402 403
3 287 403 404
3 287 404 288
3 288 338 292
3 288 292 291
3 288 404 405
3 288 405 406
3 288 406 340
3 288 340 338
3 289 294 293
3 289 293 336
3 292 338 337
3 292 337 293
3 297 371 298
3 298 371 407
3 298 407 299
3 299 407 369
3 299 369 408
3 299 408 409
3 299 409 300
3 300 409 410
3 300 410 411
3 300 411 301
3 301 411 412
3 301 412 413
3 301 413 302
3 302 413 414
3 302 414 415
3 302 415 303
3 303 415 416
3 303 416 304
3 304 416 305
3 305 416 417
3 305 417 418
3 305 418 306
3 306 418 307
3 307 418 419
3 307 419 309
3 307 309 308
3 312 316 420
3 312 420 421
3 312 421 313
3 313 421 422
3 313 422 314
3 314 422 317
3 317 422 423
3 317 423 318
3 318 423 424
3 318 424 425
3 318 425 319
3 319 425 320
3 320 426 321
3 320 425 427
3 320 427 428
3 320 428 426
3 321 426 429
3 321 429 430
3 321 430 431
3 321 431 432
3 321 432 322
3 322 432 431
3 322 431 433
3 322 433 430
3 322 430 434
3 322 434 435
4 322 435 490 436
3 323 436 324
3 324 436 379
3 324 376 375
3 324 374 373
3 324 373 325
3 325 373 326
3 326 373 372
4 329 437 438 330
4 329 335 445 437
3 330 438 331
3 331 439 440
3 331 440 441
3 331 441 332
3 331 438 439
3 332 441 442
4 332 442 443 333
3 333 443 334
3 334 443 444
3 334 444 344
3 335 343 445
3 338 340 339
3 340 406 446
3 340 446 341
3 341 446 342
3 342 446 406
3 342 406 447
3 342 447 343
3 343 447 448
3 343 448 449
3 343 449 450
3 343 450 451
3 343 451 452
3 343 452 453
3 343 453 454
3 343 454 455
3 343 455 456
3 343 456 457
3 343 457 458
3 343 458 459
3 343 459 460
3 343 460 445
34 344 444 443 442 441 534 609 660 712 709 708 707 754 791 790 761 794 756 720 719 676 629 551 550 549 548 547 462 461 349 348 347 346 345
3 349 461 350
3 350 461 351
3 351 461 462
3 351 462 463
3 351 463 352
3 352 463 464
3 352 464 465
3 352 465 353
3 353 465 466
3 353 466 467
3 353 467 468
3 353 468 469
3 353 469 470
3 353 470 471
3 353 471 472
3 353 472 473
3 353 473 474
3 353 474 475
3 353 475 476
3 353 476 354
3 354 476 477
3 354 477 355
3 355 477 478
3 355 478 479
3 355 479 356
3 356 479 357
3 357 479 480
3 357 480 481
3 357 481 358
3 358 481 482
3 358 482 359
3 359 482 483
3 359 483 361
3 359 361 360
3 361 483 362
3 362 484 363
3 362 483 484
3 363 484 364
3 364 485 365
3 364 484 483
3 364 483 486
3 364 486 485
3 365 485 367
3 365 367 366
3 367 369 368
3 367 485 487
3 367 487 488
3 367 488 489
3 367 489 369
3 369 407 370
3 369 489 408
3 370 407 371
3 377 379 381
3 377 381 380
3 379 436 490
3 379 490 491
3 379 491 492
3 379 492 493
3 379 493 494
3 379 494 382
3 379 382 381
3 382 494 495
3 382 495 383
3 383 495 496
3 383 496 384
3 384 496 385
3 385 496 495
3 385 495 497
3 385 497 498
3 385 498 386
3 386 498 387
3 387 499 388
3 387 498 500
3 387 500 499
3 388 499 389
3 389 499 390
3 390 499 500
3 390 500 501
3 390 501 502
3 390 502 503
3 390 503 392
3 391 393 394
3 392 504 505
3 392 505 394
3 392 394 393
3 392 503 504
3 394 505 506
3 394 506 395
3 395 506 507
3 395 507 396
3 396 507 397
3 397 508 509
3 397 509 510
3 397 510 398
3 397 507 511
3 397 511 508
3 398 510 512
3 398 512 513
3 398 513 399
3 399 513 400
3 400 513 401
3 401 403 402
3 401 513 403
3 403 513 514
3 403 514 515
3 403 515 516
3 403 516 404
3 404 516 517
3 404 517 518
3 404 518 406
3 404 406 405
3 406 518 447
3 408 489 519
3 408 519 520
3 408 520 521
3 408 521 409
3 409 521 410
3 410 521 522
3 410 522 412
3 410 412 411
3 426 428 429
3 428 523 429
3 429 524 430
3 429 523 524
3 430 433 431
3 430 524 434
3 434 524 525
3 434 525 526
3 434 526 527
3 434 527 435
3 435 527 528
4 435 528 567 490
3 437 529 438
3 437 445 530
3 437 530 529
3 438 529 531
3 438 531 439
3 439 532 533
3 439 533 441
3 439 441 440
3 439 531 532
3 441 533 532
3 441 532 534
3 445 460 459
3 445 459 530
3 447 518 448
3 448 518 535
3 448 535 449
3 449 535 450
3 450 535 536
3 450 536 516
4 450 516 592 537
3 450 537 538
3 450 538 539
3 450 539 540
3 450 540 541
3 450 541 542
3 450 542 543
3 450 543 544
3 450 544 451
3 451 544 545
3 451 545 532
3 451 532 452
3 452 532 453
3 453 529 455
3 453 455 454
3 453 532 529
3 455 529 546
3 455 546 456
3 456 546 457
3 457 546 529
3 457 529 458
3 458 529 530
3 458 530 459
3 462 547 463
3 463 547 464
3 464 547 465
3 465 547 548
3 465 548 466
3 466 548 549
3 466 549 467
3 467 549 468
3 468 549 469
3 469 549 550
3 469 550 551
3 469 551 470
3 470 551 471
3 471 551 552
3 471 552 472
3 472 553 554
3 472 554 555
3 472 555 556
3 472 556 473
3 472 552 553
3 473 556 474
3 474 556 557
4 474 557 558 475
3 475 558 476
3 476 558 559
3 476 559 560
3 476 560 477
3 477 560 478
3 482 561 483
3 483 561 562
3 483 562 486
3 485 486 563
3 485 563 487
3 486 562 563
3 487 563 564
3 487 564 565
3 487 565 566
3 487 566 488
3 488 566 519
3 488 519 489
3 490 567 491
3 491 567 568
3 491 568 569
3 491 569 570
3 491 570 571
3 491 571 572
3 491 572 573
3 491 573 574
3 491 574 492
3 492 574 575
3 492 575 576
3 492 576 577
3 492 577 493
3 493 577 576
3 493 576 578
3 493 578 497
3 493 497 495
3 493 495 494
3 497 578 498
3 498 578 500
3 500 576 501
3 500 578 576
3 501 575 579
4 501 579 504 503
3 501 503 502
3 501 576 575
3 504 580 581
3 504 581 505
3 504 579 580
4 505 581 511 506
3 506 511 507
3 508 511 582
3 508 582 509
3 509 582 583
3 509 583 584
3 509 584 585
3 509 585 512
3 509 512 510
3 511 581 586
3 511 586 582
3 512 585 514
3 512 514 513
3 514 585 515
3 515 585 587
3 515 587 516
3 516 536 517
3 516 587 584
3 516 584 588
3 516 588 589
3 516 589 568
3 516 568 590
3 516 590 591
3 516 591 592
3 517 536 535
3 517 535 518
3 523 593 524
3 524 593 594
3 524 594 525
3 525 594 526
3 526 595 527
3 526 594 596
3 526 596 597
3 526 597 595
3 527 595 598
3 527 598 599
3 527 599 600
3 527 600 601
3 527 601 602
3 527 602 603
3 527 603 528
3 528 603 602
3 528 602 604
3 528 604 605
4 528 605 634 567
3 529 532 531
3 532 545 534
3 534 545 606
3 534 606 607
3 534 607 608
3 534 608 609
4 537 592 644 610
3 537 610 538
3 538 611 612
3 538 612 539
4 538 610 644 613
4 538 613 667 614
3 538 614 615
3 538 615 616
3 538 616 617
3 538 617 618
3 538 618 619
3 538 619 620
3 538 620 611
3 539 612 540
3 540 612 621
3 540 621 541
3 541 621 622
3 541 622 623
3 541 623 542
3 542 623 624
5 542 624 674 625 543
3 543 625 626
3 543 626 627
3 543 627 544
3 544 606 545
3 544 627 626
3 544 626 628
3 544 628 606
3 551 629 552
3 552 629 630
3 552 630 631
3 552 631 553
3 553 631 554
3 554 631 632
3 562 564 563
3 567 633 590
3 567 590 568
3 567 634 633
3 568 589 635
3 568 635 569
3 569 635 636
3 569 636 570
3 570 637 571
3 570 636 637
3 571 637 638
3 571 638 572
3 572 638 573
3 573 638 574
3 574 638 639
3 574 639 575
3 575 639 638
3 575 638 579
3 579 638 580
3 580 638 586
3 580 586 581
3 582 586 640
3 582 640 583
3 583 641 584
3 583 640 641
3 584 587 585
3 584 641 588
3 586 637 640
3 586 638 642
3 586 642 637
3 588 641 643
3 588 643 589
3 589 643 635
3 590 633 591
3 591 633 644
3 591 644 592
3 595 597 645
3 595 645 598
3 598 645 599
3 599 646 600
3 599 645 647
3 599 647 648
3 599 648 646
3 600 649 650
3 600 650 601
3 600 646 649
3 601 650 604
3 601 604 602
36 604 651 688 734 733 732 731 730 772 771 770 769 768 767 766 738 694 716 713 661 619 618 617 616 615 614 667 666 665 664 663 715 714 680 634 605
3 604 650 651
3 606 628 652
3 606 652 653
3 606 653 654
3 606 654 607
3 607 654 655
3 607 655 656
3 607 656 657
3 607 657 658
3 607 658 608
3 608 658 659
3 608 659 609
3 609 659 660
3 611 620 619
3 611 619 612
3 612 619 661
3 612 661 621
3 613 644 633
3 613 633 662
3 613 662 663
3 613 663 664
3 613 664 665
3 613 665 666
3 613 666 667
3 621 661 668
3 621 668 622
3 622 668 669
3 622 669 670
3 622 670 671
3 622 671 672
3 622 672 624
3 622 624 623
3 624 673 674
3 624 672 673
3 625 674 626
3 626 674 675
3 626 675 628
3 628 675 652
3 629 676 630
3 630 676 677
3 630 677 678
3 630 678 631
3 631 678 679
3 631 679 632
3 633 634 662
3 634 680 662
3 635 643 636
3 636 643 640
3 636 640 637
3 637 642 638
3 640 643 641
3 646 681 649
3 646 648 681
3 648 682 681
3 649 683 684
3 649 684 650
3 649 681 685
3 649 685 686
3 649 686 687
3 649 687 683
3 650 684 651
3 651 684 688
3 652 675 689
3 652 689 653
3 653 689 690
3 653 690 691
3 653 691 692
3 653 692 654
3 654 692 655
3 655 692 691
3 655 691 693
3 655 693 694
3 655 694 695
3 655 695 696
3 655 696 697
3 655 697 656
3 656 697 698
3 656 698 657
3 657 698 699
3 657 699 700
3 657 700 701
3 657 701 702
3 657 702 703
3 657 703 704
3 657 704 658
3 658 704 705
3 658 705 706
3 658 706 707
3 658 707 708
3 658 708 709
3 658 709 710
3 658 710 711
3 658 711 659
3 659 711 712
3 659 712 660
3 661 713 668
3 662 680 714
3 662 714 715
3 662 715 663
3 668 713 669
3 669 671 670
3 669 713 716
3 669 716 717
3 669 717 671
3 671 717 718
3 671 718 672
3 672 718 691
3 672 691 690
3 672 690 689
3 672 689 675
3 672 675 673
3 673 675 674
3 676 719 677
3 677 719 720
3 677 720 721
3 677 721 722
3 677 722 678
3 678 723 679
3 678 722 723
3 679 723 724
3 681 682 725
3 681 725 685
3 683 726 727
3 683 727 684
3 683 687 728
3 683 728 726
4 684 729 772 730
3 684 730 731
3 684 731 732
3 684 732 733
3 684 733 734
3 684 734 688
3 684 727 729
3 685 725 686
3 686 725 735
3 686 735 736
3 686 736 687
3 687 736 737
3 687 737 728
3 691 717 693
3 691 718 717
4 693 717 716 694
3 694 738 695
3 695 739 740
3 695 740 696
3 695 738 739
3 696 740 699
3 696 699 697
3 697 699 698
3 699 740 741
3 699 741 700
3 700 741 742
3 700 742 743
3 700 743 701
3 701 743 744
3 701 744 745
3 701 745 702
3 702 745 703
3 703 746 704
3 703 745 747
3 703 747 748
3 703 748 746
3 704 746 749
3 704 749 705
3 705 749 750
3 705 750 751
3 705 751 752
3 705 752 706
3 706 753 754
3 706 754 707
3 706 752 755
3 706 755 753
3 709 712 711
3 709 711 710
3 720 756 757
3 720 757 721
3 721 757 722
3 722 753 758
3 722 758 759
3 722 759 723
3 722 757 760
3 722 760 761
3 722 761 753
3 723 759 762
3 723 762 724
3 726 763 729
3 726 729 727
3 726 728 764
3 726 764 765
3 726 765 763
3 728 737 764
3 729 766 767
3 729 767 768
3 729 768 769
3 729 769 770
3 729 770 771
3 729 771 772
3 729 763 773
3 729 773 766
3 737 774 764
3 738 766 773
3 738 773 775
3 738 775 776
3 738 776 777
3 738 777 739
3 739 777 776
3 739 776 763
3 739 763 778
3 739 778 779
3 739 779 780
3 739 780 781
3 739 781 782
3 739 782 740
3 740 782 783
3 740 783 741
3 741 783 784
3 741 784 742
3 746 748 749
3 748 785 749
3 749 785 786
3 749 786 750
3 750 786 751
3 751 786 787
3 751 787 788
3 751 788 752
3 752 788 755
3 753 755 789
3 753 789 758
3 753 761 790
3 753 790 791
3 753 791 754
3 755 788 792
3 755 792 793
3 755 793 789
3 756 794 760
3 756 760 757
3 758 789 793
3 758 793 795
3 758 795 762
3 758 762 759
3 760 794 761
3 763 776 775
3 763 775 773
3 763 765 796
3 763 796 797
3 763 797 798
3 763 798 778
3 764 774 765
3 765 774 799
3 765 799 800
3 765 800 796
3 778 798 801
3 778 801 802
3 778 802 803
3 778 803 779
3 779 803 780
3 780 803 804
3 780 804 805
3 780 805 781
3 781 805 806
3 781 806 782
3 782 806 783
3 783 806 784
3 796 800 797
3 797 800 807
3 797 807 801
3 797 801 798
