ply
format ascii 1.0
comment made by tesseract
element vertex 658
property float x
property float y
property float z
element face 1102
property list uchar int vertex_indices
end_header
1.3695483 0.0950000 2.1180273
1.3695483 0.0950000 2.0819725
1.3675460 0.0950000 2.1398273
1.5957805 0.0599748 2.1042023
1.5959743 0.0599748 2.0999999
1.3675460 0.0950000 2.0601964
1.5957805 0.0599748 2.0957975
1.3672230 0.0950000 2.1399228
1.5625481 0.0599748 2.1441968
1.5665851 0.0599748 2.1428597
1.5704606 0.0599748 2.1411405
1.5741746 0.0599748 2.1390871
1.5776948 0.0599748 2.1366994
1.5809567 0.0599748 2.1339773
1.5839602 0.0599748 2.1309688
1.5866731 0.0599748 2.1276737
1.5890630 0.0599748 2.1241876
1.5911299 0.0599748 2.1204628
1.5928739 0.0599748 2.1165946
1.5941980 0.0599748 2.1125594
1.5951992 0.0599748 2.1084286
1.6086019 0.0371408 2.1203673
1.6089249 0.0366492 2.1202240
1.6089249 0.0367476 2.1194838
1.6089249 0.0367476 2.0805399
1.3672230 0.0950000 2.0600770
1.5951992 0.0599748 2.0915951
1.5941980 0.0599748 2.0874166
1.5928739 0.0599748 2.0834290
1.5911299 0.0599748 2.0795132
1.5890630 0.0599748 2.0757883
1.5866731 0.0599748 2.0723261
1.5839602 0.0599748 2.0690310
1.5809567 0.0599748 2.0660225
1.5776948 0.0599748 2.0633243
1.5741746 0.0599748 2.0609127
1.5704606 0.0599748 2.0588593
1.5665851 0.0599748 2.0571401
1.6089249 0.0366492 2.0797758
1.6086019 0.0371408 2.0796325
1.3665448 0.0950000 2.1399706
1.3665448 0.0607367 2.1697456
1.5542158 0.0599748 2.1457727
1.5584142 0.0599748 2.1451997
1.5744330 -0.0474850 2.1951988
1.5773396 -0.0474850 2.1944347
1.5803431 -0.0474850 2.1934797
1.5833789 -0.0474850 2.1924529
1.5861563 -0.0474850 2.1914023
1.5892567 -0.0474850 2.1901130
1.5918404 -0.0474850 2.1889430
1.5949731 -0.0474850 2.1874148
1.5973307 -0.0474850 2.1861493
1.6005280 -0.0474850 2.1843346
1.6026595 -0.0474850 2.1830214
1.6058245 -0.0474850 2.1808724
1.6077622 -0.0474850 2.1795353
1.5969109 0.0476361 2.1306345
1.5965556 0.0479310 2.1307062
1.5965556 0.0484226 2.1302047
1.5965556 0.0494304 2.1289631
1.5965556 0.0502415 2.1278648
1.5971369 0.0504627 2.1265993
1.5971369 0.0512984 2.1251189
1.5971369 0.0516916 2.1243548
1.5971369 0.0525027 2.1224446
1.5975245 0.0520357 2.1223013
1.6086019 0.0367721 2.1212030
1.6089249 0.0363297 2.1209881
1.6464526 -0.0474850 2.1188869
1.6474861 -0.0474850 2.1126310
1.6480674 -0.0474850 2.1063035
1.6482935 -0.0474850 2.0999999
1.6480997 -0.0474850 2.0938634
1.5625481 0.0599748 2.0557791
1.5584142 0.0599748 2.0548001
1.5542158 0.0599748 2.0542032
1.3668678 0.0607367 2.0302781
1.3665448 0.0950000 2.0600293
1.5971369 0.0525027 2.0775552
1.5971369 0.0516916 2.0756450
1.5971369 0.0512984 2.0748810
1.5971369 0.0504627 2.0734244
1.5966525 0.0501677 2.0722067
1.5966525 0.0493566 2.0710845
1.5966525 0.0483735 2.0698428
1.5966525 0.0478327 2.0693175
1.6077622 -0.0474850 2.0204645
1.6058245 -0.0474850 2.0191274
1.6026595 -0.0474850 2.0170023
1.6005280 -0.0474850 2.0156652
1.5973307 -0.0474850 2.0138505
1.5949731 -0.0474850 2.0125850
1.5918404 -0.0474850 2.0110568
1.5892567 -0.0474850 2.0098869
1.5861563 -0.0474850 2.0086214
1.5833789 -0.0474850 2.0075469
1.5803431 -0.0474850 2.0064963
1.6089249 0.0363297 2.0790117
1.6475184 -0.0474850 2.0876792
1.6465495 -0.0474850 2.0816144
1.6086019 0.0367721 2.0787968
1.3535619 0.0950000 2.1399706
1.3535619 0.0610071 2.1694829
1.3535619 0.0565829 2.1731362
1.3665448 0.0562633 2.1733988
1.3668678 0.0530926 2.1756910
1.3670616 0.0523799 2.1761686
1.3665448 0.0515687 2.1767655
1.3642518 0.0472674 2.1794637
1.3621526 0.0427694 2.1819947
1.5622897 -0.0474850 2.1975388
1.5650026 -0.0474850 2.1971329
1.5683936 -0.0474850 2.1965837
1.5712034 -0.0474850 2.1959629
1.5745621 -0.0486648 2.1957002
1.5713326 -0.0486648 2.1964882
1.5775011 -0.0486648 2.1949123
1.5805046 -0.0486648 2.1939811
1.5835404 -0.0486648 2.1929066
1.5863501 -0.0486648 2.1918799
1.5894505 -0.0486648 2.1905905
1.5920342 -0.0486648 2.1893966
1.5951992 -0.0486648 2.1878446
1.5975891 -0.0486648 2.1866030
1.6007863 -0.0486648 2.1847406
1.6029179 -0.0486648 2.1834273
1.6061152 -0.0486648 2.1813022
1.6080529 -0.0486648 2.1799173
1.6112502 -0.0486648 2.1775057
1.6109272 -0.0474850 2.1771237
1.5972338 0.0472674 2.1305629
1.5971369 0.0474886 2.1304913
1.6126389 -0.0474850 2.1757388
1.6157716 -0.0474850 2.1730407
1.6172895 -0.0474850 2.1716797
1.5971369 0.0490371 2.1286527
1.5971369 0.0497990 2.1276021
1.6086019 0.0362068 2.1219670
1.6089249 0.0358627 2.1215611
1.6437075 -0.0486648 2.1312792
1.6450316 -0.0474850 2.1250233
1.6455160 -0.0486648 2.1251427
1.6469371 -0.0486648 2.1189585
1.6479705 -0.0486648 2.1126549
1.6485841 -0.0486648 2.1063513
1.6487779 -0.0486648 2.0999999
1.6485841 -0.0486648 2.0938157
1.5773396 -0.0474850 2.0055889
1.5744330 -0.0474850 2.0048010
1.5712034 -0.0474850 2.0040369
1.5683936 -0.0474850 2.0034161
1.5650026 -0.0474850 2.0028430
1.3637997 0.0463334 2.0199631
1.3651238 0.0489879 2.0215629
1.3665448 0.0515687 2.0232582
1.3670616 0.0523799 2.0238312
1.3668678 0.0530926 2.0243088
1.3665448 0.0562633 2.0266010
1.3665448 0.0607367 2.0302781
1.3535619 0.0950000 2.0600293
1.5971369 0.0497990 2.0723977
1.5971369 0.0490371 2.0713232
1.5971369 0.0476115 2.0696518
1.5970723 0.0474886 2.0694369
1.6109272 -0.0474850 2.0228761
1.6112502 -0.0486648 2.0224941
1.6080529 -0.0486648 2.0200825
1.6061152 -0.0486648 2.0187215
1.6029179 -0.0486648 2.0165725
1.6007863 -0.0486648 2.0152593
1.5975891 -0.0486648 2.0133968
1.5951992 -0.0486648 2.0121552
1.5920342 -0.0486648 2.0106032
1.5894505 -0.0486648 2.0094093
1.5863501 -0.0486648 2.0081199
1.5835404 -0.0486648 2.0070932
1.5805046 -0.0486648 2.0060187
1.6089249 0.0358627 2.0784148
1.6086019 0.0362068 2.0780328
1.6451931 -0.0474850 2.0755734
1.6434814 -0.0474850 2.0696518
1.6480028 -0.0486648 2.0876553
1.6470339 -0.0486648 2.0814950
1.3420323 0.0713058 2.0999999
1.3420323 0.0711091 2.1053007
1.3420323 0.0705438 2.1106014
1.3420323 0.0695361 2.1158545
1.3420323 0.0681596 2.1210120
1.3420323 0.0663899 2.1260262
1.3420323 0.0642516 2.1309210
1.3420323 0.0617445 2.1356249
1.3420323 0.0589179 2.1401855
1.3420323 0.0557718 2.1444356
1.3420323 0.0522570 2.1484948
1.3420323 0.0484964 2.1522913
1.3420323 0.0444408 2.1557774
1.3420323 0.0401886 2.1589053
1.3535619 0.0519620 2.1764790
1.3535619 0.0471445 2.1795353
1.3535619 0.0421304 2.1823051
1.3603117 0.0382715 2.1841914
1.5623543 -0.0486648 2.1980402
1.5650672 -0.0486648 2.1976582
1.5684905 -0.0486648 2.1970613
1.5803108 -0.1264822 2.2176196
1.5735287 -0.1264822 2.2191478
1.5869637 -0.1264822 2.2156856
1.5935198 -0.1264822 2.2134172
1.5999144 -0.1264822 2.2107191
1.6061475 -0.1264822 2.2076867
1.6122191 -0.1264822 2.2043200
1.6180646 -0.1264822 2.2006190
1.6236841 -0.1264822 2.1965598
1.6129619 -0.0486648 2.1761447
1.6203253 -0.0474850 2.1686711
1.6216494 -0.0474850 2.1672862
1.6246207 -0.0474850 2.1639912
1.6257187 -0.0474850 2.1626779
1.6285930 -0.0474850 2.1590485
1.6322102 -0.0474850 2.1538672
1.6160946 -0.0486648 2.1733988
1.6176125 -0.0486648 2.1720378
1.6206806 -0.0486648 2.1690054
1.6359565 -0.0486648 2.1487097
1.6388954 -0.0486648 2.1430746
1.6410269 -0.0474850 2.1370575
1.6414791 -0.0486648 2.1372247
1.6641830 -0.1264822 2.1413554
1.6663791 -0.1264822 2.1347653
1.6681554 -0.1264822 2.1280796
1.6695764 -0.1264822 2.1212746
1.6705776 -0.1264822 2.1144218
1.6712235 -0.1264822 2.1074735
1.6714496 -0.1264822 2.1005730
1.6712881 -0.1264822 2.0936485
1.6707391 -0.1264822 2.0867719
1.5775011 -0.0486648 2.0051114
1.5745621 -0.0486648 2.0042757
1.5713326 -0.0486648 2.0035355
1.5684905 -0.0486648 2.0029386
1.5650672 -0.0486648 2.0023655
1.5623543 -0.0486648 2.0019596
1.5622897 -0.0474850 2.0024610
1.3616359 0.0415651 2.0173843
1.3535619 0.0421304 2.0176947
1.3535619 0.0471445 2.0204406
1.3535619 0.0519620 2.0235208
1.3535619 0.0565829 2.0268636
1.3535619 0.0610071 2.0305169
1.3420323 0.0484964 2.0477085
1.3420323 0.0522570 2.0515050
1.3420323 0.0557718 2.0555642
1.3420323 0.0589179 2.0598382
1.3420323 0.0617445 2.0643749
1.3420323 0.0642516 2.0690549
1.3420323 0.0663899 2.0739736
1.3420323 0.0681596 2.0789879
1.3420323 0.0695361 2.0841454
1.3420323 0.0705438 2.0893984
1.3420323 0.0711091 2.0946991
1.5974599 0.0469233 2.0695086
1.6246207 -0.0474850 2.0360087
1.6216494 -0.0474850 2.0327136
1.6203253 -0.0474850 2.0313287
1.6172895 -0.0474850 2.0283440
1.6157716 -0.0474850 2.0269830
1.6126389 -0.0474850 2.0242610
1.6129619 -0.0486648 2.0238790
1.6246207 -0.1264822 2.0041802
1.6190335 -0.1264822 2.0000494
1.6131879 -0.1264822 1.9962768
1.6071809 -0.1264822 1.9928146
1.6009478 -0.1264822 1.9897583
1.5945856 -0.1264822 1.9870363
1.5880618 -0.1264822 1.9846724
1.5814089 -0.1264822 1.9826428
1.6413822 -0.0474850 2.0638257
1.6389277 -0.0474850 2.0581429
1.6365701 -0.0486648 2.0523885
1.6329853 -0.0474850 2.0473504
1.6456775 -0.0486648 2.0754540
1.6439336 -0.0486648 2.0694608
1.6697702 -0.1264822 2.0798952
1.6684138 -0.1264822 2.0730663
1.3420323 0.0356661 2.1617706
1.3420323 0.0309223 2.1642538
1.3535619 0.0369933 2.1847406
1.3591491 0.0350516 2.1855524
1.5587372 -0.0486648 2.1984223
1.5598030 -0.1264822 2.2210580
1.5666820 -0.1264822 2.2203178
1.5736256 -0.1309802 2.2196731
1.5804077 -0.1309802 2.2180972
1.5871252 -0.1309802 2.2161870
1.5936813 -0.1309802 2.2138948
1.6001081 -0.1309802 2.2111728
1.6063735 -0.1309802 2.2081403
1.6124774 -0.1309802 2.2047498
1.6183553 -0.1309802 2.2010249
1.6240070 -0.1309802 2.1969180
1.6294004 -0.1309802 2.1925723
1.6290775 -0.1264822 2.1921664
1.6220047 -0.0486648 2.1676205
1.6249759 -0.0486648 2.1642777
1.6261063 -0.0486648 2.1629644
1.6289806 -0.0486648 2.1593590
1.6326300 -0.0486648 2.1541298
1.6342125 -0.1264822 2.1874864
1.6390892 -0.1264822 2.1825438
1.6518460 -0.1264822 2.1661640
1.6554632 -0.1264822 2.1602185
1.6587250 -0.1264822 2.1540821
1.6616317 -0.1264822 2.1478023
1.6621161 -0.1309802 2.1480172
1.6646675 -0.1309802 2.1415226
1.6668313 -0.1309802 2.1348847
1.6686398 -0.1309802 2.1281513
1.6700609 -0.1309802 2.1213462
1.6710943 -0.1309802 2.1144457
1.6717402 -0.1309802 2.1075213
1.6719663 -0.1309802 2.1005730
1.6717725 -0.1309802 2.0936485
1.6712235 -0.1309802 2.0867002
1.6702546 -0.1309802 2.0797997
1.5746590 -0.1264822 1.9810669
1.5678446 -0.1264822 1.9798253
1.5609333 -0.1264822 1.9790135
1.5587372 -0.0486648 2.0016014
1.3597304 0.0367476 2.0151160
1.3535619 0.0369933 2.0152593
1.3420323 0.0309223 2.0357460
1.3420323 0.0356661 2.0382292
1.3420323 0.0401886 2.0410945
1.3420323 0.0444408 2.0442225
1.6294973 -0.0474850 2.0422406
1.6261063 -0.0486648 2.0370115
1.6257187 -0.0474850 2.0373697
1.6249759 -0.0486648 2.0356983
1.6220047 -0.0486648 2.0323793
1.6206806 -0.0486648 2.0309944
1.6176125 -0.0486648 2.0279620
1.6160946 -0.0486648 2.0266010
1.6299495 -0.1264822 2.0085736
1.6249113 -0.1309802 2.0037504
1.6192918 -0.1309802 1.9996435
1.6134463 -0.1309802 1.9958709
1.6074070 -0.1309802 1.9924086
1.6011739 -0.1309802 1.9893046
1.5947793 -0.1309802 1.9865587
1.5882233 -0.1309802 1.9841948
1.5815380 -0.1309802 1.9821892
1.5747559 -0.1309802 1.9805894
1.6393798 -0.0486648 2.0579519
1.6418343 -0.0486648 2.0636586
1.6592418 -0.1264822 2.0469206
1.6560445 -0.1264822 2.0407841
1.6334051 -0.0486648 2.0470639
1.6299172 -0.0486648 2.0419302
1.6667021 -0.1264822 2.0663329
1.6645706 -0.1264822 2.0597427
1.6688982 -0.1309802 2.0729469
1.3420323 0.0260311 2.1664028
1.3535619 0.0316843 2.1868656
1.3580510 0.0316843 2.1868656
1.5561858 -0.0486648 2.1985894
1.3577604 0.0305782 2.1872238
1.5528594 -0.1264822 2.2214639
1.5598353 -0.1309802 2.2215833
1.5667466 -0.1309802 2.2207953
1.5736256 -0.1444987 2.2196731
1.5804077 -0.1444987 2.2180972
1.5871252 -0.1444987 2.2161870
1.5936813 -0.1444987 2.2138948
1.6001081 -0.1444987 2.2111728
1.6063735 -0.1444987 2.2081403
1.6124774 -0.1444987 2.2047498
1.6183553 -0.1444987 2.2010249
1.6240070 -0.1444987 2.1969180
1.6294004 -0.1444987 2.1925723
1.6345678 -0.1309802 2.1878924
1.6436429 -0.1264822 2.1773386
1.6479059 -0.1264822 2.1718707
1.6394444 -0.1309802 2.1829020
1.6522659 -0.1309802 2.1664266
1.6483258 -0.1309802 2.1721572
1.6558830 -0.1309802 2.1604812
1.6591772 -0.1309802 2.1543447
1.6621161 -0.1444987 2.1480172
1.6646675 -0.1444987 2.1415226
1.6668313 -0.1444987 2.1348847
1.6686398 -0.1444987 2.1281513
1.6700609 -0.1444987 2.1213462
1.6710943 -0.1444987 2.1144457
1.6717402 -0.1444987 2.1075213
1.6719663 -0.1444987 2.1005730
1.6717725 -0.1444987 2.0936485
1.6712235 -0.1444987 2.0867002
1.6702546 -0.1444987 2.0797997
1.5679092 -0.1309802 1.9793716
1.5609979 -0.1309802 1.9785359
1.5540220 -0.1264822 1.9785837
1.5561858 -0.0486648 2.0013865
1.3580510 0.0316843 2.0131342
1.3535619 0.0316843 2.0131342
1.3420323 0.0260311 2.0335970
1.6443857 -0.1264822 2.0235686
1.6398643 -0.1264822 2.0183156
1.6350522 -0.1264822 2.0133013
1.6303047 -0.1309802 2.0082154
1.6249113 -0.1444987 2.0037504
1.6192918 -0.1444987 1.9996435
1.6134463 -0.1444987 1.9958709
1.6074070 -0.1444987 1.9924086
1.6011739 -0.1444987 1.9893046
1.5947793 -0.1444987 1.9865587
1.5882233 -0.1444987 1.9841948
1.5815380 -0.1444987 1.9821892
1.5747559 -0.1444987 1.9805894
1.6620838 -0.1264822 2.0532481
1.6625682 -0.1309802 2.0530809
1.6596939 -0.1309802 2.0467296
1.6564643 -0.1309802 2.0405215
1.6529118 -0.1309802 2.0345521
1.6524919 -0.1264822 2.0348387
1.6485841 -0.1264822 2.0290842
1.6671865 -0.1309802 2.0662135
1.6650550 -0.1309802 2.0595756
1.6688982 -0.1444987 2.0729469
1.3420323 0.0209924 2.1681697
1.3535619 0.0305782 2.1872238
1.5459158 -0.1264822 2.2213923
1.5459158 -0.1309802 2.2218937
1.5528917 -0.1309802 2.2219653
1.5598353 -0.1444987 2.2215833
1.5667466 -0.1444987 2.2207953
1.5508247 -0.1550677 2.2209147
1.5524395 -0.1550677 2.2205804
1.6323394 -0.1550677 2.1874864
1.6338573 -0.1550677 2.1868179
1.6352137 -0.1550677 2.1858389
1.6345678 -0.1444987 2.1878924
1.6440304 -0.1309802 2.1776490
1.6394444 -0.1444987 2.1829020
1.6522659 -0.1444987 2.1664266
1.6483258 -0.1444987 2.1721572
1.6558830 -0.1444987 2.1604812
1.6591772 -0.1444987 2.1543447
1.6371837 -0.1550677 2.1831169
1.6361826 -0.1561000 2.1829020
1.6641830 -0.1449657 2.1413554
1.6663791 -0.1449657 2.1347653
1.6681554 -0.1449657 2.1280796
1.6695764 -0.1449657 2.1212746
1.6659270 -0.1561000 2.0723500
1.6669282 -0.1550677 2.0724216
1.6670896 -0.1550677 2.0707979
1.6669282 -0.1550677 2.0691026
1.5679092 -0.1444987 1.9793716
1.5609979 -0.1444987 1.9785359
1.5540543 -0.1309802 1.9781061
1.5470784 -0.1309802 1.9780345
1.5470784 -0.1264822 1.9785359
1.3576958 0.0302095 2.0127044
1.3535619 0.0305782 2.0127760
1.3420323 0.0209924 2.0318301
1.6447732 -0.1309802 2.0232582
1.6490040 -0.1309802 2.0287738
1.6402195 -0.1309802 2.0179813
1.6354075 -0.1309802 2.0129432
1.6303047 -0.1444987 2.0082154
1.5835727 -0.1561000 1.9853887
1.5845739 -0.1550677 1.9849112
1.5832174 -0.1550677 1.9839561
1.5816995 -0.1550677 1.9832875
1.5800524 -0.1550677 1.9829293
1.6625682 -0.1444987 2.0530809
1.6596939 -0.1444987 2.0467296
1.6564643 -0.1444987 2.0405215
1.6529118 -0.1444987 2.0345521
1.6671865 -0.1444987 2.0662135
1.6650550 -0.1444987 2.0595756
1.3420323 0.0158553 2.1695546
1.3420323 0.0105954 2.1705097
1.3535619 0.0294476 2.1874148
1.5390045 -0.1264822 2.2209863
1.5389722 -0.1309802 2.2214639
1.5459158 -0.1444987 2.2218937
1.5528917 -0.1444987 2.2219653
1.5491453 -0.1550677 2.2209147
1.5499850 -0.1561000 2.2199596
1.5515352 -0.1561000 2.2198164
1.5530208 -0.1561000 2.2192672
1.6328884 -0.1561000 2.1861732
1.6342125 -0.1561000 2.1853614
1.6353429 -0.1561000 2.1842391
1.6363440 -0.1550677 2.1845734
1.6440304 -0.1444987 2.1776490
1.6366993 -0.1561000 2.1814455
1.6660885 -0.1561000 2.0707979
1.6659270 -0.1561000 2.0691981
1.6664114 -0.1550677 2.0675267
1.5508247 -0.1550677 1.9790851
1.5540543 -0.1444987 1.9781061
1.5470784 -0.1444987 1.9780345
1.5401025 -0.1309802 1.9784404
1.5401671 -0.1264822 1.9789180
1.3535619 0.0294476 2.0125850
1.3420323 0.0105954 2.0294901
1.3420323 0.0158553 2.0304452
1.6447732 -0.1444987 2.0232582
1.6490040 -0.1444987 2.0287738
1.6402195 -0.1444987 2.0179813
1.6354075 -0.1444987 2.0129432
1.6299495 -0.1449657 2.0085736
1.6350522 -0.1449657 2.0133013
1.5847030 -0.1561000 1.9864871
1.5822486 -0.1561000 1.9845530
1.5807629 -0.1561000 1.9840516
1.6655717 -0.1550677 2.0660941
1.3420323 0.0052863 2.1711066
1.3420323 -0.0000473 2.1713215
1.3535619 0.0282432 2.1874626
1.5320286 -0.1309802 2.2206521
1.5389722 -0.1444987 2.2214639
1.5484025 -0.1561000 2.2198164
1.5320286 -0.1444987 2.2206521
1.5198853 -0.1550677 2.2170705
1.6654103 -0.1561000 2.0677416
1.5515352 -0.1561000 1.9802073
1.5499850 -0.1561000 1.9800402
1.5491453 -0.1550677 1.9790851
1.5401025 -0.1444987 1.9784404
1.5331912 -0.1309802 1.9792045
1.3535619 0.0282432 2.0125372
1.3420323 0.0052863 2.0288932
1.6443857 -0.1449657 2.0235686
1.6398643 -0.1449657 2.0183156
1.6645706 -0.1561000 2.0664284
1.6634725 -0.1561000 2.0653061
1.3420323 -0.0053564 2.1711066
1.3535619 -0.0283133 2.1874626
1.5251819 -0.1309802 2.2194104
1.5191748 -0.1561000 2.2159721
1.5251819 -0.1444987 2.2194104
1.5182706 -0.1550677 2.2167123
1.5484025 -0.1561000 1.9802073
1.5474983 -0.1550677 1.9794194
1.5263122 -0.1444987 1.9803267
1.5331912 -0.1444987 1.9792045
1.5263122 -0.1309802 1.9803267
1.3535619 -0.0283133 2.0125372
1.3420323 -0.0000473 2.0287022
1.3420323 -0.0106655 2.1705097
1.3535619 -0.0294931 2.1874148
1.5176892 -0.1561000 2.2154229
1.5183997 -0.1444987 2.2178107
1.5167204 -0.1550677 2.2160437
1.3535619 -0.0305746 2.1872238
1.3535619 -0.0317052 2.1868656
1.5469492 -0.1561000 1.9807088
1.4676630 -0.1550677 2.0125134
1.5062888 -0.1444987 1.9861050
1.5128449 -0.1444987 1.9838128
1.5195301 -0.1444987 1.9819026
1.3535619 -0.0294931 2.0125850
1.3420323 -0.0053564 2.0288932
1.3420323 -0.0159009 2.1695546
1.5163651 -0.1561000 2.2145872
1.5153962 -0.1550677 2.2150648
1.3535619 -0.0372355 2.1846689
1.3535619 -0.0425938 2.1820663
1.4865238 -0.1444987 2.2041289
1.4806782 -0.1444987 2.2003563
1.4750588 -0.1444987 2.1962494
1.3420323 -0.0210625 2.1681697
1.3420323 -0.0261012 2.1664028
1.4670817 -0.1561000 2.0138266
1.4998619 -0.1444987 1.9888271
1.4661128 -0.1550677 2.0131819
1.3535619 -0.0317052 2.0131342
1.3535619 -0.0305746 2.0127760
1.3420323 -0.0106655 2.0294901
1.4696977 -0.1444987 2.1918082
1.4700206 -0.1449657 2.1914262
1.4649179 -0.1449657 2.1867224
1.5152670 -0.1561000 2.2134889
1.3420323 -0.0309187 2.1642538
1.3420323 -0.0356379 2.1617706
1.3535619 -0.0478045 2.1791771
1.3535619 -0.0527941 2.1759298
1.3535619 -0.0575870 2.1723721
1.3535619 -0.0621096 2.1685040
1.4657576 -0.1561000 2.0146384
1.4935966 -0.1444987 1.9918595
1.3535619 -0.0370880 2.0152831
1.4647564 -0.1550677 2.0141609
1.3535619 -0.0522779 2.0237596
1.3535619 -0.0473867 2.0206078
1.3535619 -0.0423480 2.0177903
1.4875249 -0.1444987 1.9952501
1.3420323 -0.0261012 2.0335970
1.3420323 -0.0210625 2.0318301
1.3420323 -0.0159009 2.0304452
1.4645949 -0.1444987 2.1870805
1.3535619 -0.0664109 2.1643493
1.4597505 -0.1444987 2.1820424
1.4601058 -0.1449657 2.1817081
1.4353995 -0.1561000 2.1335714
1.3420323 -0.0401850 2.1589053
1.3420323 -0.0444372 2.1557774
1.3420323 -0.0485173 2.1522913
1.4646595 -0.1561000 2.0157607
1.3420323 -0.0309187 2.0357460
1.4636583 -0.1550677 2.0154264
1.3535619 -0.0949964 2.0600293
1.3535619 -0.0614213 2.0308989
1.3535619 -0.0569725 2.0271740
1.3420323 -0.0401850 2.0410945
1.3420323 -0.0356379 2.0382292
1.3535619 -0.0704173 2.1599320
1.3420323 -0.0522533 2.1484948
1.4552291 -0.1444987 2.1767655
1.3535619 -0.0741042 2.1552520
1.4556167 -0.1449657 2.1764312
1.4343983 -0.1550677 2.1339296
1.4345598 -0.1561000 2.1322582
1.4638198 -0.1561000 2.0170739
1.3535619 -0.0949964 2.1149710
1.3420323 -0.0713021 2.0999999
1.3420323 -0.0711055 2.0946991
1.3420323 -0.0705156 2.0893984
1.3420323 -0.0695079 2.0841454
1.3420323 -0.0681314 2.0789879
1.3420323 -0.0664109 2.0739736
1.3420323 -0.0642479 2.0690549
1.3420323 -0.0617654 2.0643749
1.3420323 -0.0589143 2.0598382
1.3420323 -0.0557436 2.0555642
1.3420323 -0.0522533 2.0515050
1.3420323 -0.0485173 2.0477085
1.4633031 -0.1561000 2.0185543
1.4340431 -0.1561000 2.1276737
1.4338816 -0.1561000 2.1292019
1.3420323 -0.0444372 2.0442225
1.3420323 -0.0557436 2.1444356
1.3535619 -0.0775206 2.1503811
1.3420323 -0.0589143 2.1401855
1.3535619 -0.0806176 2.1452713
1.3535619 -0.0833459 2.1399944
1.4340431 -0.1561000 2.1308017
1.3420323 -0.0642479 2.1309210
1.3420323 -0.0664109 2.1260262
1.3420323 -0.0681314 2.1210120
1.3420323 -0.0695079 2.1158545
1.3420323 -0.0705156 2.1106014
1.3420323 -0.0711055 2.1053007
1.3420323 -0.0617654 2.1356249
10 0 1 5 25 78 160 102 40 7 2
3 0 2 3
3 0 3 4
3 0 4 1
3 1 4 6
3 1 6 5
3 2 7 8
3 2 8 9
3 2 9 10
3 2 10 11
3 2 11 12
3 2 12 13
3 2 13 14
3 2 14 15
3 2 15 16
3 2 16 17
3 2 17 18
3 2 18 19
3 2 19 20
3 2 20 3
3 3 20 21
3 3 21 22
3 3 22 23
3 3 23 4
3 4 23 24
3 4 24 6
3 5 6 26
3 5 26 27
3 5 27 28
3 5 28 29
3 5 29 30
3 5 30 31
3 5 31 32
3 5 32 33
3 5 33 34
3 5 34 35
3 5 35 36
3 5 36 37
3 5 37 25
3 6 24 38
3 6 38 39
3 6 39 26
3 7 40 41
3 7 41 42
3 7 42 43
3 7 43 8
3 8 43 44
3 8 44 45
3 8 45 46
3 8 46 9
3 9 46 47
3 9 47 48
3 9 48 49
3 9 49 10
3 10 49 50
3 10 50 51
3 10 51 52
3 10 52 11
3 11 52 53
3 11 53 54
3 11 54 12
3 12 54 55
3 12 55 56
3 12 56 57
3 12 57 58
3 12 58 13
3 13 58 59
3 13 59 14
3 14 59 60
3 14 60 15
3 15 60 61
3 15 61 16
3 16 61 62
3 16 62 63
3 16 63 17
3 17 63 64
3 17 64 18
3 18 64 65
3 18 65 19
3 19 65 66
3 19 66 20
3 20 66 21
3 21 67 68
3 21 68 22
3 21 66 64
3 21 64 67
3 22 68 69
3 22 69 70
3 22 70 71
3 22 71 23
3 23 71 72
3 23 72 24
3 24 72 73
3 24 73 38
3 25 37 74
3 25 74 75
3 25 75 76
3 25 76 77
3 25 77 78
3 26 39 27
3 27 39 79
3 27 79 28
3 28 79 80
3 28 80 29
3 29 80 81
3 29 81 30
3 30 81 82
3 30 82 83
3 30 83 31
3 31 83 84
3 31 84 85
3 31 85 32
3 32 85 33
3 33 85 86
3 33 86 34
3 34 86 87
3 34 87 88
3 34 88 35
3 35 88 89
3 35 89 90
3 35 90 91
3 35 91 36
3 36 91 92
3 36 92 93
3 36 93 94
3 36 94 37
3 37 94 95
3 37 95 96
3 37 96 97
3 37 97 74
3 38 98 39
3 38 73 99
3 38 99 100
3 38 100 98
3 39 98 101
3 39 101 80
3 39 80 79
3 40 102 41
3 41 102 103
3 41 103 104
3 41 104 105
3 41 105 42
3 42 105 106
3 42 106 107
3 42 107 108
3 42 108 43
3 43 108 109
3 43 109 110
3 43 110 111
3 43 111 112
3 43 112 113
3 43 113 114
3 43 114 44
3 44 115 45
3 44 114 116
3 44 116 115
3 45 115 117
3 45 117 118
3 45 118 46
3 46 118 47
3 47 118 119
3 47 119 120
3 47 120 48
4 48 120 121 49
3 49 121 50
3 50 121 122
3 50 122 51
3 51 122 123
3 51 123 124
3 51 124 52
3 52 124 53
3 53 124 125
4 53 125 126 54
3 54 126 127
3 54 127 55
3 55 127 56
3 56 127 128
3 56 128 129
3 56 129 130
3 56 130 57
3 57 131 132
3 57 132 59
3 57 59 58
3 57 130 133
3 57 133 134
3 57 134 135
3 57 135 131
3 59 132 136
3 59 136 60
3 60 136 61
3 61 136 137
3 61 137 62
3 62 137 67
3 62 67 63
3 63 67 64
3 64 66 65
3 67 138 68
3 67 137 136
3 67 136 138
3 68 138 139
3 68 139 140
3 68 140 141
3 68 141 69
3 69 141 142
3 69 142 143
3 69 143 70
3 70 144 145
3 70 145 71
3 70 143 144
3 71 145 72
3 72 145 146
3 72 146 147
3 72 147 73
3 73 147 99
3 74 97 148
3 74 148 149
3 74 149 75
3 75 149 150
3 75 150 151
3 75 151 152
3 75 152 153
3 75 153 76
3 76 153 154
3 76 154 155
3 76 155 156
3 76 156 157
3 76 157 158
3 76 158 77
4 77 158 248 159
4 77 159 160 78
3 80 101 81
3 81 101 82
3 82 161 83
3 82 101 161
3 83 161 162
3 83 162 84
3 84 162 85
3 85 162 163
3 85 163 164
3 85 164 86
3 86 164 165
3 86 165 87
3 87 165 166
3 87 166 167
3 87 167 168
3 87 168 88
3 88 168 169
3 88 169 89
3 89 169 90
3 90 169 170
3 90 170 171
3 90 171 91
3 91 171 92
3 92 171 172
3 92 172 173
3 92 173 93
3 93 173 174
3 93 174 94
3 94 174 175
3 94 175 95
3 95 175 96
3 96 176 177
3 96 177 97
3 96 175 176
4 97 177 237 148
3 98 178 179
3 98 179 101
3 98 100 180
3 98 180 181
3 98 181 178
3 99 147 182
3 99 182 183
3 99 183 100
4 100 183 281 180
3 101 179 162
3 101 162 161
3 102 160 184
3 102 184 185
3 102 185 186
3 102 186 187
3 102 187 188
3 102 188 189
3 102 189 190
3 102 190 191
3 102 191 192
3 102 192 193
3 102 193 194
3 102 194 195
3 102 195 103
3 103 195 196
3 103 196 104
3 104 196 197
3 104 197 198
3 104 198 105
3 105 198 106
3 106 198 108
3 106 108 107
3 108 198 199
3 108 199 109
3 109 199 110
3 110 199 200
3 110 200 201
3 110 201 111
3 111 202 203
3 111 203 112
3 111 201 202
3 112 203 113
3 113 203 204
3 113 204 116
3 113 116 114
3 115 205 117
3 115 116 205
3 116 204 206
3 116 206 205
3 117 205 207
3 117 207 118
3 118 207 208
3 118 208 119
3 119 208 120
3 120 208 121
3 121 208 209
3 121 209 122
3 122 209 210
3 122 210 123
3 123 210 124
3 124 210 211
3 124 211 125
3 125 211 126
3 126 211 212
3 126 212 127
3 127 212 128
3 128 212 213
3 128 213 129
3 129 213 214
3 129 214 130
3 130 214 133
3 131 135 215
3 131 215 216
3 131 216 217
3 131 217 218
3 131 218 219
3 131 219 220
3 131 220 138
3 131 138 132
3 132 138 136
3 133 214 134
3 134 214 221
4 134 221 222 135
3 135 222 223
3 135 223 215
3 138 220 224
3 138 224 225
3 138 225 226
3 138 226 139
3 139 226 140
3 140 226 227
3 140 227 228
3 140 228 229
3 140 229 142
3 140 142 141
3 142 229 230
3 142 230 143
3 143 230 231
3 143 231 144
3 144 231 232
3 144 232 145
3 145 232 233
3 145 233 234
3 145 234 146
3 146 234 235
3 146 235 147
3 147 235 236
3 147 236 182
3 148 237 238
3 148 238 149
3 149 238 150
3 150 239 151
3 150 238 239
3 151 239 240
3 151 240 152
3 152 240 241
3 152 241 242
3 152 242 243
3 152 243 153
3 153 244 245
3 153 245 246
3 153 246 154
3 153 243 244
3 154 246 247
3 154 247 155
3 155 157 156
3 155 247 157
3 157 247 158
3 158 247 248
3 159 248 249
3 159 249 160
3 160 249 250
3 160 250 251
3 160 251 252
3 160 252 253
3 160 253 254
3 160 254 255
3 160 255 256
3 160 256 257
3 160 257 258
3 160 258 259
3 160 259 260
3 160 260 184
3 162 179 163
3 163 179 261
3 163 261 164
3 164 261 262
3 164 262 263
3 164 263 264
3 164 264 265
3 164 265 266
3 164 266 267
3 164 267 165
4 165 267 268 166
3 166 268 269
3 166 269 167
3 167 269 270
3 167 270 168
3 168 270 169
3 169 270 271
3 169 271 170
3 170 271 171
3 171 271 272
3 171 272 172
3 172 272 173
3 173 272 273
3 173 273 174
3 174 273 274
3 174 274 175
3 175 274 176
3 176 274 275
3 176 275 177
3 177 275 276
3 177 276 237
3 178 181 277
3 178 277 179
3 179 277 278
3 179 278 279
3 179 279 280
3 179 280 261
3 180 281 181
3 181 282 277
3 181 281 282
3 182 236 283
3 182 283 183
3 183 283 284
3 183 284 281
84 184 260 259 258 257 256 255 254 253 252 251 250 334 333 332 331 405 465 509 508 535 552 566 582 603 602 601 613 619 618 644 640 639 638 637 636 635 634 633 632 631 630 629 656 655 654 653 652 651 657 647 645 621 611 610 609 588 587 576 575 567 553 540 521 520 483 482 429 362 286 285 197 196 195 194 193 192 191 190 189 188 187 186 185
3 197 285 199
3 197 199 198
3 199 285 200
3 200 285 286
3 200 286 287
3 200 287 201
3 201 287 288
3 201 288 289
3 201 289 202
3 202 289 290
3 202 290 291
3 202 291 203
3 203 291 206
3 203 206 204
3 205 206 292
3 205 292 293
3 205 293 294
3 205 294 207
3 206 291 292
3 207 294 208
3 208 294 295
3 208 295 209
3 209 295 296
3 209 296 297
3 209 297 210
3 210 297 211
3 211 297 298
3 211 298 212
3 212 298 299
3 212 299 213
3 213 299 300
3 213 300 301
3 213 301 302
3 213 302 214
3 214 302 221
4 215 223 303 216
3 216 303 217
3 217 303 304
3 217 304 305
3 217 305 218
3 218 305 306
3 218 306 219
3 219 306 220
3 220 306 307
3 220 307 224
3 221 302 222
3 222 302 308
3 222 308 223
3 223 308 309
3 223 309 303
3 224 307 310
3 224 310 311
3 224 311 312
3 224 312 225
3 225 312 313
3 225 313 227
3 225 227 226
3 227 313 228
3 228 313 314
3 228 314 315
3 228 315 229
3 229 315 316
3 229 316 317
3 229 317 230
4 230 317 318 231
3 231 318 319
3 231 319 232
3 232 319 320
3 232 320 233
3 233 320 234
3 234 320 321
3 234 321 235
3 235 321 322
3 235 322 323
3 235 323 236
3 236 324 283
3 236 323 324
3 237 276 238
3 238 276 325
3 238 325 239
3 239 325 240
3 240 325 326
3 240 326 241
3 241 326 242
3 242 326 327
3 242 327 328
3 242 328 329
3 242 329 244
3 242 244 243
3 244 329 330
3 244 330 245
3 245 330 331
3 245 331 332
3 245 332 246
3 246 332 333
3 246 333 247
3 247 333 248
3 248 333 334
3 248 334 249
3 249 334 250
3 261 280 335
3 261 335 336
3 261 336 337
3 261 337 262
3 262 338 339
3 262 339 263
3 262 337 336
3 262 336 338
4 263 339 340 264
3 264 340 341
3 264 341 265
4 265 341 342 266
4 266 342 268 267
3 268 342 343
3 268 343 269
3 269 344 270
3 269 343 344
3 270 344 345
4 270 345 346 271
3 271 346 272
3 272 346 347
3 272 347 348
3 272 348 273
3 273 348 349
3 273 349 274
3 274 349 275
3 275 349 350
3 275 350 276
3 276 351 352
3 276 352 325
3 276 350 351
3 277 353 278
3 277 282 354
3 277 354 353
3 278 353 279
3 279 353 355
3 279 355 356
3 279 356 357
3 279 357 280
3 280 357 358
3 280 358 335
3 281 284 359
3 281 359 282
3 282 359 360
3 282 360 354
3 283 324 361
3 283 361 284
4 284 361 426 359
3 286 362 287
3 287 362 363
3 287 363 288
3 288 364 289
3 288 363 364
3 289 365 290
3 289 364 365
3 290 365 366
3 290 366 367
3 290 367 368
3 290 368 291
3 291 369 292
3 291 368 369
4 292 369 435 370
4 292 370 371 293
4 293 371 372 294
4 294 372 373 295
4 295 373 374 296
4 296 374 375 297
4 297 375 376 298
4 298 376 377 299
4 299 377 378 300
4 300 378 379 301
4 301 379 441 380
3 301 380 302
3 302 380 308
3 303 309 304
3 304 309 381
3 304 381 305
3 305 381 306
3 306 381 382
3 306 382 307
3 307 382 310
3 308 380 309
3 309 380 383
3 309 383 381
4 310 384 386 311
3 310 382 385
3 310 385 384
3 311 386 387
3 311 387 312
3 312 387 314
3 312 314 313
4 314 387 447 388
4 314 388 389 315
4 315 389 390 316
4 316 390 391 317
4 317 391 392 318
4 318 392 393 319
4 319 393 394 320
4 320 394 395 321
4 321 395 396 322
4 322 396 397 323
4 323 397 398 324
4 324 398 428 361
3 325 352 326
3 326 399 400
3 326 400 327
3 326 352 399
3 327 400 401
3 327 401 402
3 327 402 328
3 328 402 403
3 328 403 329
3 329 403 404
3 329 404 330
3 330 404 405
3 330 405 331
3 335 358 336
3 336 358 406
4 336 406 407 338
3 338 407 339
3 339 407 340
3 340 407 408
3 340 408 341
3 341 408 343
3 341 343 342
4 343 408 469 409
3 343 409 344
4 344 410 411 345
4 344 409 470 410
4 345 411 412 346
4 346 412 413 347
4 347 413 414 348
4 348 414 415 349
4 349 415 416 350
4 350 416 417 351
4 351 417 418 352
4 352 418 458 399
3 353 354 419
3 353 419 355
3 354 360 419
3 355 419 420
3 355 420 421
3 355 421 422
3 355 422 356
3 356 422 423
3 356 423 424
3 356 424 357
3 357 424 425
3 357 425 358
3 358 425 406
3 359 426 427
3 359 427 360
4 360 427 420 419
4 361 428 480 426
3 362 429 363
3 363 429 430
4 363 430 366 364
3 364 366 365
3 366 430 367
3 367 431 432
3 367 432 433
3 367 433 368
3 367 430 431
4 368 434 435 369
4 368 433 488 434
3 370 435 436
3 370 436 437
3 370 437 371
3 371 437 372
3 372 437 373
3 373 438 374
3 373 437 438
3 374 438 439
3 374 439 375
3 375 439 376
3 376 439 377
3 377 439 440
3 377 440 378
3 378 440 379
3 379 440 441
4 380 441 443 383
3 381 383 442
3 381 442 385
3 381 385 382
4 383 443 497 442
4 384 385 445 444
4 384 444 446 386
4 385 442 497 445
4 386 446 447 387
3 388 447 448
3 388 448 449
3 388 449 389
3 389 449 450
3 389 450 451
3 389 451 390
3 390 451 391
3 391 451 452
4 391 452 453 392
3 392 453 454
3 392 454 393
3 393 454 455
3 393 455 456
3 393 456 394
3 394 456 395
3 395 456 396
3 396 456 397
3 397 456 457
3 397 457 398
3 398 457 428
4 399 458 459 400
4 400 459 503 460
3 400 460 401
3 401 460 461
3 401 461 462
3 401 462 463
3 401 463 403
3 401 403 402
3 403 463 464
3 403 464 404
3 404 464 465
3 404 465 405
3 406 466 407
3 406 425 467
3 406 467 466
3 407 466 468
3 407 468 469
3 407 469 408
4 409 469 513 470
3 410 470 471
3 410 471 472
3 410 472 411
3 411 472 473
3 411 473 412
3 412 473 413
3 413 473 414
3 414 473 474
3 414 474 415
3 415 474 416
3 416 474 417
3 417 474 418
3 418 474 475
3 418 475 458
4 420 476 477 421
4 420 427 481 476
4 421 477 478 422
4 422 478 479 423
4 423 479 511 467
3 423 467 424
3 424 467 425
4 426 480 481 427
3 428 457 480
3 429 482 430
3 430 482 483
3 430 483 484
3 430 484 431
3 431 485 432
3 431 484 485
3 432 485 486
4 432 486 524 487
4 432 487 488 433
3 434 488 436
3 434 436 435
3 436 489 490
3 436 490 491
3 436 491 437
3 436 488 489
3 437 491 492
3 437 492 438
3 438 493 439
3 438 492 493
3 439 493 494
3 439 494 440
3 440 494 495
3 440 495 496
3 440 496 443
3 440 443 441
3 443 496 497
3 444 445 496
3 444 496 446
3 445 497 496
3 446 496 448
3 446 448 447
3 448 496 449
3 449 498 450
3 449 496 495
37 449 495 494 493 492 491 490 525 543 555 568 586 608 626 650 643 642 641 627 612 593 577 560 546 530 529 518 517 471 516 539 538 528 500 499 454 498
3 450 498 451
3 451 454 452
3 451 498 454
3 452 454 453
3 454 499 455
3 455 499 456
3 456 499 457
3 457 499 500
3 457 500 501
3 457 501 481
3 457 481 480
3 458 475 502
3 458 502 459
3 459 502 503
4 460 503 504 461
4 461 504 532 505
3 461 505 506
3 461 506 462
3 462 506 507
3 462 507 464
3 462 464 463
3 464 507 508
3 464 508 509
3 464 509 465
4 466 510 512 468
4 466 467 511 510
4 468 512 513 469
3 470 514 471
4 470 513 515 514
3 471 473 472
3 471 514 515
3 471 515 516
3 471 517 473
3 473 517 474
3 474 517 518
3 474 518 475
4 475 518 529 502
3 476 481 501
3 476 501 477
3 477 501 478
3 478 501 519
3 478 519 479
3 479 519 511
3 483 520 484
3 484 520 521
3 484 521 522
3 484 522 523
3 484 523 486
3 484 486 485
4 486 523 526 524
3 487 524 489
3 487 489 488
3 489 525 490
3 489 524 526
3 489 526 527
3 489 527 525
3 500 528 501
3 501 528 519
3 502 529 530
3 502 530 531
3 502 531 504
3 502 504 503
3 504 531 532
4 505 532 549 533
3 505 533 507
3 505 507 506
3 507 534 535
3 507 535 508
3 507 533 534
3 510 536 537
3 510 537 512
3 510 511 519
3 510 519 538
3 510 538 536
3 512 537 513
3 513 537 515
3 515 537 538
3 515 538 539
3 515 539 516
3 519 528 538
4 521 540 554 541
3 521 541 522
4 522 541 544 542
3 522 542 523
4 523 542 544 526
3 525 527 543
3 526 544 527
3 527 545 543
3 527 544 545
3 530 546 531
3 531 546 547
3 531 547 548
3 531 548 549
3 531 549 532
4 533 549 548 550
3 533 550 534
3 534 551 552
3 534 552 535
4 534 550 548 551
3 536 538 537
3 540 553 554
3 541 554 544
3 543 545 555
3 544 554 556
3 544 556 545
3 545 557 555
3 545 556 554
3 545 554 558
3 545 558 559
3 545 559 557
3 546 560 547
3 547 560 561
3 547 561 562
3 547 562 563
3 547 563 564
3 547 564 548
3 548 564 565
3 548 565 551
3 551 565 566
3 551 566 552
3 553 567 558
3 553 558 554
3 555 557 568
3 557 569 568
3 557 559 570
3 557 570 571
3 557 571 572
3 557 572 573
3 557 573 574
3 557 574 569
3 558 567 575
3 558 575 559
3 559 575 576
3 559 576 570
3 560 577 561
3 561 578 562
3 561 577 579
3 561 579 578
3 562 578 580
3 562 580 581
3 562 581 563
3 563 581 565
3 563 565 564
3 565 581 582
3 565 582 566
3 568 569 574
3 568 574 583
3 568 583 584
3 568 584 585
3 568 585 586
3 570 576 587
3 570 587 571
3 571 587 588
3 571 588 589
3 571 589 572
3 572 589 573
3 573 589 590
3 573 590 591
3 573 591 574
3 574 591 592
3 574 592 583
3 577 593 579
3 578 579 594
3 578 594 595
3 578 595 580
3 579 593 596
3 579 596 597
3 579 597 598
3 579 598 599
3 579 599 600
3 579 600 594
3 580 595 601
3 580 601 602
3 580 602 581
3 581 602 603
3 581 603 582
3 583 604 585
3 583 585 584
3 583 592 605
3 583 605 604
3 585 604 606
3 585 606 607
3 585 607 608
3 585 608 586
3 588 609 589
3 589 609 590
3 590 609 610
3 590 610 591
3 591 610 611
3 591 611 592
3 592 611 605
3 593 612 596
3 594 600 599
3 594 599 595
3 595 599 613
3 595 613 601
3 596 612 614
3 596 614 615
3 596 615 616
3 596 616 617
3 596 617 597
3 597 617 618
3 597 618 598
3 598 618 619
3 598 619 599
3 599 619 613
3 604 605 620
3 604 620 606
3 605 611 621
3 605 621 620
3 606 622 607
3 606 620 623
3 606 623 622
3 607 622 624
3 607 624 608
3 608 624 622
3 608 622 625
3 608 625 626
3 612 627 615
3 612 615 614
3 615 628 629
3 615 629 630
3 615 630 631
3 615 631 632
3 615 632 633
3 615 633 634
3 615 634 635
3 615 635 636
3 615 636 637
3 615 637 638
3 615 638 639
3 615 639 640
3 615 640 616
3 615 627 641
3 615 641 642
3 615 642 643
3 615 643 628
3 616 640 644
3 616 644 617
3 617 644 618
3 620 621 645
3 620 645 623
3 622 623 646
3 622 646 625
3 623 645 647
3 623 647 646
3 625 646 648
3 625 648 626
3 626 648 649
3 626 649 628
3 626 628 650
3 628 643 650
3 628 649 651
3 628 651 652
3 628 652 653
3 628 653 654
3 628 654 655
3 628 655 656
3 628 656 629
3 646 647 657
3 646 657 648
3 648 657 651
3 648 651 649
