ply
format ascii 1.0
comment made by tesseract
element vertex 96
property float x
property float y
property float z
element face 192
property list uchar int vertex_indices
end_header
-0.4532000 0.1516000 0.0460000
-0.4532000 0.1516733 0.0454435
-0.4588500 0.1516000 0.0460000
-0.4588500 0.1516733 0.0454435
-0.4532000 0.1518880 0.0449250
-0.4588500 0.1518880 0.0449250
-0.4532000 0.1522297 0.0444797
-0.4588500 0.1522297 0.0444797
-0.4532000 0.1526750 0.0441380
-0.4588500 0.1526750 0.0441380
-0.4532000 0.1531935 0.0439233
-0.4588500 0.1531935 0.0439233
-0.4532000 0.1537500 0.0438500
-0.4588500 0.1537500 0.0438500
-0.4532000 0.1543065 0.0439233
-0.4588500 0.1543065 0.0439233
-0.4532000 0.1548250 0.0441380
-0.4588500 0.1548250 0.0441380
-0.4532000 0.1552703 0.0444797
-0.4588500 0.1552703 0.0444797
-0.4532000 0.1556119 0.0449250
-0.4588500 0.1556119 0.0449250
-0.4532000 0.1558267 0.0454435
-0.4588500 0.1558267 0.0454435
-0.4588500 0.1559000 0.0460000
-0.4532000 0.1559000 0.0460000
-0.4588500 0.1554821 0.0470000
-0.4588500 0.1556119 0.0470750
-0.4588500 0.1552703 0.0475203
-0.4588500 0.1551642 0.0474142
-0.4588500 0.1547500 0.0477321
-0.4588500 0.1548250 0.0478620
-0.4588500 0.1542676 0.0479318
-0.4588500 0.1543065 0.0480767
-0.4588500 0.1556818 0.0465176
-0.4588500 0.1558267 0.0465565
-0.4588500 0.1537500 0.0480000
-0.4588500 0.1537500 0.0481500
-0.4588500 0.1557500 0.0460000
-0.4588500 0.1532324 0.0479318
-0.4588500 0.1531935 0.0480767
-0.4588500 0.1556818 0.0454824
-0.4588500 0.1527500 0.0477321
-0.4588500 0.1526750 0.0478620
-0.4588500 0.1554821 0.0450000
-0.4588500 0.1523358 0.0474142
-0.4588500 0.1522297 0.0475203
-0.4588500 0.1551642 0.0445858
-0.4588500 0.1547500 0.0442679
-0.4588500 0.1518880 0.0470750
-0.4588500 0.1520180 0.0470000
-0.4588500 0.1542676 0.0440682
-0.4588500 0.1516733 0.0465565
-0.4588500 0.1518181 0.0465176
-0.4588500 0.1517500 0.0460000
-0.4588500 0.1537500 0.0440000
-0.4588500 0.1518181 0.0454824
-0.4588500 0.1532324 0.0440682
-0.4588500 0.1527500 0.0442679
-0.4588500 0.1520180 0.0450000
-0.4588500 0.1523358 0.0445858
-0.4532000 0.1558267 0.0465565
-0.4532000 0.1556119 0.0470750
-0.4532000 0.1552703 0.0475203
-0.4532000 0.1548250 0.0478620
-0.4532000 0.1543065 0.0480767
-0.4532000 0.1537500 0.0481500
-0.4532000 0.1531935 0.0480767
-0.4532000 0.1526750 0.0478620
-0.4532000 0.1522297 0.0475203
-0.4532000 0.1518880 0.0470750
-0.4532000 0.1516733 0.0465565
-0.4532000 0.1551642 0.0445858
-0.4532000 0.1547500 0.0442679
-0.4532000 0.1554821 0.0450000
-0.4532000 0.1542676 0.0440682
-0.4532000 0.1556818 0.0454824
-0.4532000 0.1537500 0.0440000
-0.4532000 0.1557500 0.0460000
-0.4532000 0.1556818 0.0465176
-0.4532000 0.1532324 0.0440682
-0.4532000 0.1527500 0.0442679
-0.4532000 0.1554821 0.0470000
-0.4532000 0.1551642 0.0474142
-0.4532000 0.1523358 0.0445858
-0.4532000 0.1547500 0.0477321
-0.4532000 0.1520180 0.0450000
-0.4532000 0.1542676 0.0479318
-0.4532000 0.1518181 0.0454824
-0.4532000 0.1537500 0.0480000
-0.4532000 0.1517500 0.0460000
-0.4532000 0.1518181 0.0465176
-0.4532000 0.1532324 0.0479318
-0.4532000 0.1520180 0.0470000
-0.4532000 0.1527500 0.0477321
-0.4532000 0.1523358 0.0474142
3 0 88 1
3 2 1 3
3 71 0 2
3 0 90 88
3 1 88 86
3 1 4 3
3 3 56 2
3 71 91 0
3 52 71 2
3 91 90 0
3 88 90 56
3 86 88 59
3 1 86 4
3 3 4 5
3 5 56 3
3 56 54 2
3 93 91 71
3 49 71 52
3 2 54 52
3 90 91 54
3 90 54 56
3 88 56 59
3 84 86 59
3 4 86 84
3 4 6 5
3 5 59 56
3 91 93 50
3 70 93 71
3 70 71 49
3 52 50 49
3 54 53 52
3 91 53 54
3 84 59 60
3 4 84 6
3 5 6 7
3 7 59 5
3 93 95 50
3 91 50 53
3 70 95 93
3 69 70 49
3 52 53 50
3 49 50 45
3 7 60 59
3 81 84 60
3 84 8 6
3 6 8 7
3 95 45 50
3 69 95 70
3 46 69 49
3 49 45 46
3 7 58 60
3 84 81 8
3 81 60 58
3 7 8 9
3 95 42 45
3 69 94 95
3 43 69 46
3 46 45 43
3 7 9 58
3 81 80 8
3 80 81 58
3 8 10 9
3 95 94 42
3 45 42 43
3 69 68 94
3 68 69 43
3 9 11 58
3 8 80 10
3 80 58 57
3 9 10 11
3 94 39 42
3 42 40 43
3 68 92 94
3 40 68 43
3 58 11 57
3 80 77 10
3 77 80 57
3 10 12 11
3 94 92 39
3 42 39 40
3 68 67 92
3 67 68 40
3 11 55 57
3 10 77 12
3 77 57 55
3 11 12 13
3 92 36 39
3 39 37 40
3 67 89 92
3 37 67 40
3 11 13 55
3 77 14 12
3 75 77 55
3 12 14 13
3 92 89 36
3 39 36 37
3 67 66 89
3 66 67 37
3 13 15 55
3 77 75 14
3 75 55 51
3 13 14 15
3 89 87 36
3 36 33 37
3 66 65 89
3 65 66 37
3 55 15 51
3 75 16 14
3 73 75 51
3 14 16 15
3 89 65 87
3 87 32 36
3 36 32 33
3 33 65 37
3 15 17 51
3 75 73 16
3 73 51 48
3 15 16 17
3 65 64 87
3 87 30 32
3 32 31 33
3 31 65 33
3 51 17 48
3 73 18 16
3 72 73 48
3 16 18 17
3 64 65 31
3 87 64 85
3 87 85 30
3 32 30 31
3 17 19 48
3 73 72 18
3 72 48 47
3 17 18 19
3 28 64 31
3 64 83 85
3 85 29 30
3 30 28 31
3 48 19 47
3 72 20 18
3 74 72 47
3 18 20 19
3 63 64 28
3 64 63 83
3 85 83 29
3 30 29 28
3 47 19 21
3 74 20 72
3 74 47 44
3 19 20 21
3 27 63 28
3 63 62 83
3 83 26 29
3 26 28 29
3 47 21 44
3 22 20 74
3 74 44 41
3 20 22 21
3 62 63 27
3 26 27 28
3 83 62 82
3 83 82 26
3 44 21 41
3 76 22 74
3 76 74 41
3 21 22 23
3 35 62 27
3 34 27 26
3 82 62 61
3 82 34 26
3 21 23 41
3 78 22 76
3 76 41 38
3 23 22 24
3 61 62 35
3 34 35 27
3 82 61 79
3 82 79 34
3 41 23 24
3 78 25 22
3 78 76 38
3 41 24 38
3 22 25 24
3 24 61 35
3 24 35 34
3 79 61 78
3 79 38 34
3 61 25 78
3 79 78 38
3 38 24 34
3 25 61 24
3 0 1 2
