ply
format ascii 1.0
comment made by tesseract
element vertex 104
property float x
property float y
property float z
element face 208
property list uchar int vertex_indices
end_header
0.0895085 -0.2019960 0.2225000
0.0903951 -0.2021768 0.2225000
0.0892222 -0.2011377 0.2225000
0.0904677 -0.2030787 0.2225000
0.0912852 -0.2034664 0.2225000
0.0883181 -0.2011743 0.2225000
0.0878347 -0.2004095 0.2225000
0.0911398 -0.2043595 0.2225000
0.0918409 -0.2049315 0.2225000
0.0869656 -0.2006614 0.2225000
0.0863132 -0.2000345 0.2225000
0.0914860 -0.2057639 0.2225000
0.0920298 -0.2064871 0.2225000
0.0855297 -0.2004871 0.2225000
0.0847463 -0.2000345 0.2225000
0.0914860 -0.2072103 0.2225000
0.0918409 -0.2080426 0.2225000
0.0840939 -0.2006614 0.2225000
0.0832248 -0.2004095 0.2225000
0.0911398 -0.2086147 0.2225000
0.0912852 -0.2095078 0.2225000
0.0827414 -0.2011743 0.2225000
0.0818373 -0.2011377 0.2225000
0.0904677 -0.2098955 0.2225000
0.0903951 -0.2107974 0.2225000
0.0815510 -0.2019960 0.2225000
0.0895085 -0.2109781 0.2225000
0.0806644 -0.2021768 0.2225000
0.0805918 -0.2030787 0.2225000
0.0892222 -0.2118365 0.2225000
0.0883181 -0.2117998 0.2225000
0.0797743 -0.2034664 0.2225000
0.0799196 -0.2043595 0.2225000
0.0878347 -0.2125647 0.2225000
0.0869656 -0.2123127 0.2225000
0.0792186 -0.2049315 0.2225000
0.0795735 -0.2057639 0.2225000
0.0863132 -0.2129397 0.2225000
0.0855297 -0.2124871 0.2225000
0.0790297 -0.2064871 0.2225000
0.0795735 -0.2072103 0.2225000
0.0847463 -0.2129397 0.2225000
0.0840939 -0.2123127 0.2225000
0.0792186 -0.2080426 0.2225000
0.0799196 -0.2086147 0.2225000
0.0832248 -0.2125647 0.2225000
0.0827414 -0.2117998 0.2225000
0.0797743 -0.2095078 0.2225000
0.0805918 -0.2098955 0.2225000
0.0818373 -0.2118365 0.2225000
0.0815510 -0.2109781 0.2225000
0.0806644 -0.2107974 0.2225000
0.0920298 -0.2064871 0.2245000
0.0918409 -0.2049315 0.2245000
0.0912852 -0.2034664 0.2245000
0.0903951 -0.2021768 0.2245000
0.0892222 -0.2011377 0.2245000
0.0878347 -0.2004095 0.2245000
0.0863132 -0.2000345 0.2245000
0.0847463 -0.2000345 0.2245000
0.0832248 -0.2004095 0.2245000
0.0818373 -0.2011377 0.2245000
0.0806644 -0.2021768 0.2245000
0.0797743 -0.2034664 0.2245000
0.0792186 -0.2049315 0.2245000
0.0790297 -0.2064871 0.2245000
0.0815510 -0.2109781 0.2245000
0.0818373 -0.2118365 0.2245000
0.0806644 -0.2107974 0.2245000
0.0805918 -0.2098955 0.2245000
0.0797743 -0.2095078 0.2245000
0.0827414 -0.2117998 0.2245000
0.0832248 -0.2125647 0.2245000
0.0799196 -0.2086147 0.2245000
0.0792186 -0.2080426 0.2245000
0.0840939 -0.2123127 0.2245000
0.0847463 -0.2129397 0.2245000
0.0795735 -0.2072103 0.2245000
0.0855297 -0.2124871 0.2245000
0.0863132 -0.2129397 0.2245000
0.0795735 -0.2057639 0.2245000
0.0869656 -0.2123127 0.2245000
0.0878347 -0.2125647 0.2245000
0.0799196 -0.2043595 0.2245000
0.0883181 -0.2117998 0.2245000
0.0892222 -0.2118365 0.2245000
0.0805918 -0.2030787 0.2245000
0.0895085 -0.2109781 0.2245000
0.0815510 -0.2019960 0.2245000
0.0903951 -0.2107974 0.2245000
0.0904677 -0.2098955 0.2245000
0.0827414 -0.2011743 0.2245000
0.0912852 -0.2095078 0.2245000
0.0911398 -0.2086147 0.2245000
0.0840939 -0.2006614 0.2245000
0.0918409 -0.2080426 0.2245000
0.0914860 -0.2072103 0.2245000
0.0855297 -0.2004871 0.2245000
0.0914860 -0.2057639 0.2245000
0.0869656 -0.2006614 0.2245000
0.0911398 -0.2043595 0.2245000
0.0883181 -0.2011743 0.2245000
0.0904677 -0.2030787 0.2245000
0.0895085 -0.2019960 0.2245000
3 3 1 0
3 1 56 2
3 5 0 2
3 3 4 1
3 3 0 103
3 55 56 1
3 2 56 6
3 0 5 101
3 5 2 6
3 7 4 3
3 4 55 1
3 0 101 103
3 3 103 102
3 55 103 56
3 56 57 6
3 5 99 101
3 9 5 6
3 7 8 4
3 7 3 102
3 54 55 4
3 56 103 101
3 55 102 103
3 56 101 57
3 57 58 6
3 5 9 99
3 57 101 99
3 10 9 6
3 11 8 7
3 8 54 4
3 7 102 100
3 55 54 102
3 57 99 58
3 6 58 10
3 9 97 99
3 13 9 10
3 12 8 11
3 11 7 100
3 53 54 8
3 54 100 102
3 99 97 58
3 58 59 10
3 9 13 97
3 14 13 10
3 12 53 8
3 15 12 11
3 11 100 98
3 54 53 100
3 58 97 59
3 10 59 14
3 13 94 97
3 17 13 14
3 52 53 12
3 16 12 15
3 15 11 98
3 53 98 100
3 97 94 59
3 59 60 14
3 13 17 94
3 18 17 14
3 53 52 98
3 16 52 12
3 19 16 15
3 15 98 96
3 59 94 60
3 14 60 18
3 17 91 94
3 21 17 18
3 98 52 96
3 95 52 16
3 20 16 19
3 19 15 96
3 94 91 60
3 60 61 18
3 17 21 91
3 22 21 18
3 52 95 96
3 20 95 16
3 23 20 19
3 19 96 93
3 60 91 61
3 18 61 22
3 21 88 91
3 25 21 22
3 96 95 93
3 92 95 20
3 24 20 23
3 23 19 90
3 19 93 90
3 91 88 61
3 61 62 22
3 21 25 88
3 27 25 22
3 95 92 93
3 24 92 20
3 26 24 23
3 26 23 90
3 93 92 90
3 61 88 62
3 22 62 27
3 25 86 88
3 28 25 27
3 89 92 24
3 29 24 26
3 26 90 87
3 92 89 90
3 88 86 62
3 62 63 27
3 25 28 86
3 31 28 27
3 29 89 24
3 30 29 26
3 90 89 87
3 30 26 87
3 62 86 63
3 27 63 31
3 28 83 86
3 32 28 31
3 85 89 29
3 33 29 30
3 89 85 87
3 30 87 84
3 86 83 63
3 63 64 31
3 28 32 83
3 35 32 31
3 33 85 29
3 34 33 30
3 87 85 84
3 34 30 84
3 63 83 64
3 31 64 35
3 32 80 83
3 36 32 35
3 82 85 33
3 37 33 34
3 85 82 84
3 34 84 81
3 83 80 64
3 64 65 35
3 32 36 80
3 39 36 35
3 79 82 33
3 37 79 33
3 38 37 34
3 84 82 81
3 34 81 78
3 64 80 65
3 35 65 39
3 36 77 80
3 40 36 39
3 82 79 81
3 41 79 37
3 41 37 38
3 38 34 78
3 81 79 78
3 80 77 65
3 65 74 39
3 36 40 77
3 43 40 39
3 76 79 41
3 42 41 38
3 42 38 78
3 79 76 78
3 65 77 74
3 39 74 43
3 40 73 77
3 43 44 40
3 45 76 41
3 45 41 42
3 42 78 75
3 78 76 75
3 77 73 74
3 74 70 43
3 40 44 73
3 47 44 43
3 72 76 45
3 45 42 46
3 46 42 75
3 76 72 75
3 73 70 74
3 43 70 47
3 44 69 73
3 47 48 44
3 67 72 45
3 49 45 46
3 46 75 71
3 75 72 71
3 73 69 70
3 70 68 47
3 44 48 69
3 51 48 47
3 71 72 67
3 49 67 45
3 49 46 50
3 50 46 71
3 69 68 70
3 47 68 51
3 48 66 69
3 51 50 48
3 71 67 66
3 51 67 49
3 51 49 50
3 50 71 66
3 69 66 68
3 68 67 51
3 48 50 66
3 66 67 68
3 0 1 2
