ply
format ascii 1.0
comment made by tesseract
element vertex 222
property float x
property float y
property float z
element face 444
property list uchar int vertex_indices
end_header
-0.4321213 -0.2321213 0.2480000
-0.4328579 -0.2316500 0.2480000
-0.4323335 -0.2323335 0.2480000
-0.4315000 -0.2325981 0.2480000
-0.4316500 -0.2328579 0.2480000
-0.4325981 -0.2315000 0.2480000
-0.4331876 -0.2308541 0.2480000
-0.4307764 -0.2328978 0.2480000
-0.4308541 -0.2331876 0.2480000
-0.4328978 -0.2307765 0.2480000
-0.4333000 -0.2300000 0.2480000
-0.4300000 -0.2330000 0.2480000
-0.4300000 -0.2333000 0.2480000
-0.4330000 -0.2300000 0.2480000
-0.4291459 -0.2331876 0.2480000
-0.4292235 -0.2328978 0.2480000
-0.4328978 -0.2292235 0.2480000
-0.4331876 -0.2291459 0.2480000
-0.4283500 -0.2328579 0.2480000
-0.4285000 -0.2325981 0.2480000
-0.4325981 -0.2285000 0.2480000
-0.4328579 -0.2283500 0.2480000
-0.4276665 -0.2323335 0.2480000
-0.4278787 -0.2321213 0.2480000
-0.4321213 -0.2278787 0.2480000
-0.4323335 -0.2276666 0.2480000
-0.4315000 -0.2274019 0.2480000
-0.4271421 -0.2316500 0.2480000
-0.4274019 -0.2315000 0.2480000
-0.4316500 -0.2271421 0.2480000
-0.4307764 -0.2271022 0.2480000
-0.4268124 -0.2308541 0.2480000
-0.4271022 -0.2307765 0.2480000
-0.4308541 -0.2268124 0.2480000
-0.4267000 -0.2300000 0.2480000
-0.4270000 -0.2300000 0.2480000
-0.4300000 -0.2267000 0.2480000
-0.4300000 -0.2270000 0.2480000
-0.4292235 -0.2271022 0.2480000
-0.4268124 -0.2291459 0.2480000
-0.4271022 -0.2292235 0.2480000
-0.4291459 -0.2268124 0.2480000
-0.4274019 -0.2285000 0.2480000
-0.4271421 -0.2283500 0.2480000
-0.4278787 -0.2278787 0.2480000
-0.4283500 -0.2271421 0.2480000
-0.4285000 -0.2274019 0.2480000
-0.4276665 -0.2276666 0.2480000
-0.4267000 -0.2300000 0.2503000
-0.4268124 -0.2308541 0.2503000
-0.4271421 -0.2316500 0.2503000
-0.4276665 -0.2323335 0.2503000
-0.4283500 -0.2328579 0.2503000
-0.4291459 -0.2331876 0.2503000
-0.4300000 -0.2333000 0.2503000
-0.4308541 -0.2331876 0.2503000
-0.4316500 -0.2328579 0.2503000
-0.4323335 -0.2323335 0.2503000
-0.4328579 -0.2316500 0.2503000
-0.4331876 -0.2308541 0.2503000
-0.4333000 -0.2300000 0.2503000
-0.4316500 -0.2271421 0.2503000
-0.4322627 -0.2277373 0.2503000
-0.4323335 -0.2276666 0.2503000
-0.4327713 -0.2284000 0.2503000
-0.4328579 -0.2283500 0.2503000
-0.4316000 -0.2272287 0.2503000
-0.4331876 -0.2291459 0.2503000
-0.4330910 -0.2291718 0.2503000
-0.4308282 -0.2269090 0.2503000
-0.4308541 -0.2268124 0.2503000
-0.4300000 -0.2267000 0.2503000
-0.4332000 -0.2300000 0.2503000
-0.4300000 -0.2268000 0.2503000
-0.4291459 -0.2268124 0.2503000
-0.4330910 -0.2308282 0.2503000
-0.4291718 -0.2269090 0.2503000
-0.4283500 -0.2271421 0.2503000
-0.4327713 -0.2316000 0.2503000
-0.4284000 -0.2272287 0.2503000
-0.4322627 -0.2322627 0.2503000
-0.4277372 -0.2277373 0.2503000
-0.4276665 -0.2276666 0.2503000
-0.4316000 -0.2327713 0.2503000
-0.4271421 -0.2283500 0.2503000
-0.4272287 -0.2284000 0.2503000
-0.4308282 -0.2330910 0.2503000
-0.4268124 -0.2291459 0.2503000
-0.4269090 -0.2291718 0.2503000
-0.4300000 -0.2332000 0.2503000
-0.4268000 -0.2300000 0.2503000
-0.4291718 -0.2330910 0.2503000
-0.4269090 -0.2308282 0.2503000
-0.4284000 -0.2327713 0.2503000
-0.4272287 -0.2316000 0.2503000
-0.4277372 -0.2322627 0.2503000
-0.4332000 -0.2300000 0.2509000
-0.4330910 -0.2291718 0.2509000
-0.4327713 -0.2284000 0.2509000
-0.4322627 -0.2277373 0.2509000
-0.4316000 -0.2272287 0.2509000
-0.4308282 -0.2269090 0.2509000
-0.4300000 -0.2268000 0.2509000
-0.4291718 -0.2269090 0.2509000
-0.4284000 -0.2272287 0.2509000
-0.4277372 -0.2277373 0.2509000
-0.4272287 -0.2284000 0.2509000
-0.4269090 -0.2291718 0.2509000
-0.4268000 -0.2300000 0.2509000
-0.4269090 -0.2308282 0.2509000
-0.4272287 -0.2316000 0.2509000
-0.4277372 -0.2322627 0.2509000
-0.4284000 -0.2327713 0.2509000
-0.4291718 -0.2330910 0.2509000
-0.4300000 -0.2332000 0.2509000
-0.4308282 -0.2330910 0.2509000
-0.4316000 -0.2327713 0.2509000
-0.4322627 -0.2322627 0.2509000
-0.4327713 -0.2316000 0.2509000
-0.4330910 -0.2308282 0.2509000
-0.4326847 -0.2284500 0.2509000
-0.4321920 -0.2278080 0.2509000
-0.4315500 -0.2273153 0.2509000
-0.4308023 -0.2270056 0.2509000
-0.4329944 -0.2291977 0.2509000
-0.4300000 -0.2269000 0.2509000
-0.4331000 -0.2300000 0.2509000
-0.4291977 -0.2270056 0.2509000
-0.4329944 -0.2308023 0.2509000
-0.4284500 -0.2273153 0.2509000
-0.4326847 -0.2315500 0.2509000
-0.4278080 -0.2278080 0.2509000
-0.4321920 -0.2321920 0.2509000
-0.4273153 -0.2284500 0.2509000
-0.4315500 -0.2326847 0.2509000
-0.4270056 -0.2291977 0.2509000
-0.4308023 -0.2329944 0.2509000
-0.4300000 -0.2331000 0.2509000
-0.4269000 -0.2300000 0.2509000
-0.4291977 -0.2329944 0.2509000
-0.4270056 -0.2308023 0.2509000
-0.4284500 -0.2326847 0.2509000
-0.4273153 -0.2315500 0.2509000
-0.4278080 -0.2321920 0.2509000
-0.4269966 -0.2300000 0.2508259
-0.4271022 -0.2307765 0.2508000
-0.4270000 -0.2300000 0.2508000
-0.4269259 -0.2300000 0.2508966
-0.4328978 -0.2307765 0.2508000
-0.4330034 -0.2300000 0.2508259
-0.4330000 -0.2300000 0.2508000
-0.4330741 -0.2300000 0.2508966
-0.4269866 -0.2300000 0.2508500
-0.4270893 -0.2307799 0.2508500
-0.4269707 -0.2300000 0.2508707
-0.4269500 -0.2300000 0.2508866
-0.4270539 -0.2307894 0.2508866
-0.4273903 -0.2315067 0.2508500
-0.4274019 -0.2315000 0.2508000
-0.4273586 -0.2315250 0.2508866
-0.4278692 -0.2321308 0.2508500
-0.4278787 -0.2321213 0.2508000
-0.4278433 -0.2321567 0.2508866
-0.4284933 -0.2326097 0.2508500
-0.4285000 -0.2325981 0.2508000
-0.4284750 -0.2326414 0.2508866
-0.4292235 -0.2328978 0.2508000
-0.4292201 -0.2329107 0.2508500
-0.4300000 -0.2330000 0.2508000
-0.4292106 -0.2329461 0.2508866
-0.4300000 -0.2330134 0.2508500
-0.4300000 -0.2330500 0.2508866
-0.4307799 -0.2329107 0.2508500
-0.4307764 -0.2328978 0.2508000
-0.4307894 -0.2329461 0.2508866
-0.4315000 -0.2325981 0.2508000
-0.4315067 -0.2326097 0.2508500
-0.4321213 -0.2321213 0.2508000
-0.4315250 -0.2326414 0.2508866
-0.4321308 -0.2321308 0.2508500
-0.4325981 -0.2315000 0.2508000
-0.4321567 -0.2321567 0.2508866
-0.4326097 -0.2315067 0.2508500
-0.4326414 -0.2315250 0.2508866
-0.4329107 -0.2307799 0.2508500
-0.4330134 -0.2300000 0.2508500
-0.4330293 -0.2300000 0.2508707
-0.4329461 -0.2307894 0.2508866
-0.4330500 -0.2300000 0.2508866
-0.4328978 -0.2292235 0.2508000
-0.4271022 -0.2292235 0.2508000
-0.4329107 -0.2292201 0.2508500
-0.4329461 -0.2292106 0.2508866
-0.4326097 -0.2284933 0.2508500
-0.4325981 -0.2285000 0.2508000
-0.4326414 -0.2284750 0.2508866
-0.4321308 -0.2278692 0.2508500
-0.4321213 -0.2278787 0.2508000
-0.4321567 -0.2278433 0.2508866
-0.4315067 -0.2273903 0.2508500
-0.4315000 -0.2274019 0.2508000
-0.4315250 -0.2273586 0.2508866
-0.4307799 -0.2270893 0.2508500
-0.4307764 -0.2271022 0.2508000
-0.4300000 -0.2270000 0.2508000
-0.4307894 -0.2270539 0.2508866
-0.4300000 -0.2269866 0.2508500
-0.4300000 -0.2269500 0.2508866
-0.4292201 -0.2270893 0.2508500
-0.4292235 -0.2271022 0.2508000
-0.4292106 -0.2270539 0.2508866
-0.4284933 -0.2273903 0.2508500
-0.4285000 -0.2274019 0.2508000
-0.4284750 -0.2273586 0.2508866
-0.4278692 -0.2278692 0.2508500
-0.4278787 -0.2278787 0.2508000
-0.4278433 -0.2278433 0.2508866
-0.4273903 -0.2284933 0.2508500
-0.4274019 -0.2285000 0.2508000
-0.4273586 -0.2284750 0.2508866
-0.4270893 -0.2292201 0.2508500
-0.4270539 -0.2292106 0.2508866
3 5 1 0
3 2 1 58
3 3 0 2
3 6 1 5
3 5 0 180
3 58 1 59
3 57 2 58
3 0 3 175
3 3 2 4
3 1 6 59
3 9 6 5
3 0 177 180
3 9 5 180
3 78 58 59
3 56 2 57
3 57 58 80
3 3 173 175
3 0 175 177
3 4 2 56
3 7 3 4
3 6 10 59
3 10 6 9
3 177 179 180
3 9 180 148
3 80 58 78
3 78 59 75
3 56 57 83
3 83 57 80
3 3 7 173
3 173 176 175
3 175 176 177
3 8 4 56
3 7 4 8
3 59 10 60
3 13 10 9
3 176 179 177
3 179 182 180
3 180 184 148
3 13 9 148
3 80 78 117
3 75 59 60
3 78 75 118
3 55 56 83
3 83 80 117
3 7 168 173
3 172 176 173
3 55 8 56
3 11 7 8
3 10 17 60
3 16 10 13
3 178 179 176
3 179 183 182
3 182 184 180
3 148 184 149
3 13 148 150
3 117 78 118
3 75 60 72
3 118 75 119
3 55 83 86
3 116 83 117
3 7 11 168
3 168 172 173
3 172 178 176
3 12 8 55
3 11 8 12
3 16 17 10
3 60 17 67
3 16 13 150
3 178 181 179
3 181 183 179
3 183 184 182
3 149 184 185
3 148 149 150
3 132 117 118
3 72 60 67
3 75 72 119
3 118 119 128
3 86 83 115
3 89 55 86
3 115 83 116
3 116 117 132
3 11 166 168
3 170 172 168
3 174 178 172
3 54 12 55
3 14 11 12
3 20 17 16
3 17 21 67
3 16 150 189
3 132 181 178
3 132 183 181
3 183 187 184
3 185 184 186
3 185 191 149
3 149 189 150
3 132 118 130
3 72 67 68
3 119 72 96
3 128 119 126
3 130 118 128
3 114 86 115
3 54 55 89
3 89 86 114
3 115 116 134
3 116 132 134
3 11 15 166
3 166 167 168
3 170 174 172
3 167 170 168
3 134 178 174
3 53 12 54
3 15 11 14
3 14 12 53
3 20 21 17
3 20 16 189
3 67 21 65
3 132 178 134
3 130 183 132
3 128 187 183
3 184 187 186
3 186 191 185
3 149 191 189
3 68 67 64
3 72 68 96
3 119 96 126
3 128 126 151
3 128 183 130
3 114 115 137
3 91 54 89
3 113 89 114
3 115 134 136
3 15 19 166
3 164 167 166
3 171 174 170
3 167 171 170
3 134 174 136
3 53 54 91
3 18 15 14
3 52 14 53
3 24 21 20
3 20 189 194
3 21 25 65
3 67 65 64
3 151 187 128
3 186 187 188
3 186 192 191
3 191 193 189
3 68 64 97
3 96 68 97
3 126 96 97
3 126 124 151
3 137 115 136
3 113 114 137
3 91 89 113
3 19 15 18
3 19 164 166
3 163 167 164
3 137 174 171
3 169 171 167
3 136 174 137
3 52 53 91
3 18 14 52
3 25 21 24
3 24 20 194
3 189 193 194
3 65 25 63
3 64 65 63
3 188 187 151
3 188 192 186
3 192 195 191
3 191 195 193
3 97 64 98
3 126 97 124
3 124 192 151
3 113 137 139
3 112 91 113
3 22 19 18
3 19 161 164
3 163 169 167
3 161 163 164
3 137 171 139
3 139 171 169
3 52 91 93
3 51 18 52
3 26 25 24
3 24 194 197
3 193 196 194
3 25 29 63
3 64 63 62
3 151 192 188
3 124 195 192
3 195 198 193
3 64 62 98
3 124 97 98
3 112 113 139
3 93 91 112
3 23 19 22
3 22 18 51
3 19 23 161
3 165 169 163
3 160 163 161
3 139 169 141
3 95 52 93
3 51 52 95
3 29 25 26
3 26 24 197
3 194 196 197
3 193 198 196
3 63 29 61
3 61 62 63
3 120 195 124
3 120 198 195
3 98 62 99
3 124 98 120
3 112 139 141
3 95 93 112
3 27 23 22
3 50 22 51
3 23 158 161
3 141 169 165
3 160 165 163
3 158 160 161
3 51 95 94
3 30 29 26
3 26 197 200
3 196 199 197
3 198 201 196
3 29 33 61
3 66 62 61
3 121 198 120
3 99 62 100
3 120 98 99
3 143 112 141
3 111 95 112
3 27 28 23
3 27 22 50
3 51 94 50
3 23 28 158
3 141 165 143
3 162 165 160
3 157 160 158
3 94 95 110
3 33 29 30
3 30 26 200
3 197 199 200
3 196 201 199
3 121 201 198
3 61 33 70
3 62 66 100
3 69 66 61
3 120 99 121
3 122 99 100
3 111 112 143
3 110 95 111
3 31 28 27
3 49 27 50
3 50 94 92
3 28 32 158
3 143 165 162
3 157 162 160
3 145 157 158
3 109 94 110
3 36 33 30
3 30 200 203
3 199 202 200
3 201 205 199
3 122 201 121
3 33 36 70
3 69 61 70
3 66 69 100
3 122 121 99
3 123 122 100
3 111 143 110
3 31 32 28
3 31 27 49
3 50 92 49
3 92 94 109
3 32 145 158
3 143 162 142
3 159 162 157
3 153 157 145
3 110 140 109
3 36 30 37
3 200 202 203
3 37 30 203
3 199 205 202
3 122 205 201
3 70 36 71
3 71 69 70
3 100 69 101
3 123 205 122
3 123 100 101
3 143 142 110
3 34 32 31
3 48 31 49
3 49 92 90
3 108 92 109
3 32 35 145
3 142 162 159
3 153 159 157
3 144 153 145
3 110 142 140
3 109 140 138
3 38 36 37
3 203 202 204
3 37 203 204
3 205 207 202
3 36 41 71
3 73 69 71
3 69 73 101
3 123 207 205
3 125 123 101
3 34 35 32
3 34 31 48
3 49 90 48
3 90 92 108
3 109 138 108
3 35 146 145
3 142 159 140
3 156 159 153
3 152 153 144
3 144 145 146
3 138 140 147
3 41 36 38
3 38 37 209
3 202 206 204
3 37 204 209
3 202 207 206
3 71 41 74
3 74 73 71
3 101 73 102
3 125 207 123
3 125 101 102
3 39 35 34
3 87 34 48
3 48 90 88
3 107 90 108
3 108 138 135
3 35 190 146
3 140 159 156
3 154 156 153
3 154 153 152
3 144 220 152
3 190 144 146
3 140 156 147
3 135 138 147
3 45 41 38
3 38 209 212
3 206 208 204
3 204 208 209
3 207 210 206
3 41 45 74
3 76 73 74
3 73 76 102
3 127 207 125
3 127 125 102
3 39 40 35
3 39 34 87
3 48 88 87
3 88 90 107
3 108 135 107
3 35 40 190
3 155 156 154
3 152 220 154
3 190 220 144
3 147 156 155
3 147 221 135
3 45 38 46
3 209 211 212
3 46 38 212
3 206 210 208
3 208 211 209
3 127 210 207
3 74 45 77
3 77 76 74
3 102 76 103
3 127 102 103
3 42 40 39
3 84 39 87
3 87 88 85
3 106 88 107
3 107 135 133
3 40 218 190
3 154 221 155
3 220 221 154
3 217 220 190
3 155 221 147
3 135 221 219
3 47 45 46
3 211 214 212
3 44 46 212
3 210 213 208
3 208 213 211
3 127 213 210
3 45 47 77
3 79 76 77
3 103 76 104
3 129 127 103
3 40 42 218
3 43 42 39
3 43 39 84
3 87 85 84
3 85 88 106
3 107 133 106
3 135 219 133
3 218 217 190
3 217 221 220
3 219 221 217
3 47 46 44
3 211 216 214
3 212 214 215
3 44 212 215
3 213 216 211
3 129 213 127
3 77 47 82
3 76 79 104
3 81 79 77
3 129 103 104
3 42 44 218
3 43 44 42
3 47 43 84
3 84 85 81
3 105 85 106
3 106 133 105
3 133 219 216
3 215 217 218
3 216 219 217
3 47 44 43
3 216 217 214
3 214 217 215
3 44 215 218
3 129 216 213
3 82 47 84
3 81 77 82
3 79 81 104
3 105 129 104
3 81 85 105
3 84 81 82
3 133 131 105
3 133 216 131
3 131 216 129
3 104 81 105
3 105 131 129
3 0 1 2
