ply
format ascii 1.0
comment made by tesseract
element vertex 246
property float x
property float y
property float z
element face 492
property list uchar int vertex_indices
end_header
-0.4548000 0.2424042 0.2354042
-0.4548000 0.2422627 0.2352627
-0.4548000 0.2417000 0.2359445
-0.4548000 0.2429445 0.2347000
-0.4548000 0.2427713 0.2346000
-0.4548000 0.2416000 0.2357713
-0.4548000 0.2408800 0.2362842
-0.4548000 0.2432842 0.2338800
-0.4548000 0.2430910 0.2338282
-0.4548000 0.2408282 0.2360910
-0.4548000 0.2434000 0.2330000
-0.4548000 0.2432000 0.2330000
-0.4548000 0.2400000 0.2362000
-0.4548000 0.2400000 0.2364000
-0.4548000 0.2391200 0.2362842
-0.4548000 0.2432842 0.2321200
-0.4548000 0.2430910 0.2321718
-0.4548000 0.2391718 0.2360910
-0.4548000 0.2383000 0.2359445
-0.4548000 0.2429445 0.2313000
-0.4548000 0.2427713 0.2314000
-0.4548000 0.2384000 0.2357713
-0.4548000 0.2377373 0.2352627
-0.4548000 0.2375958 0.2354042
-0.4548000 0.2424042 0.2305958
-0.4548000 0.2422627 0.2307373
-0.4548000 0.2417000 0.2300555
-0.4548000 0.2416000 0.2302287
-0.4548000 0.2370555 0.2347000
-0.4548000 0.2372287 0.2346000
-0.4548000 0.2369090 0.2338282
-0.4548000 0.2367159 0.2338800
-0.4548000 0.2408800 0.2297159
-0.4548000 0.2408282 0.2299090
-0.4548000 0.2400000 0.2298000
-0.4548000 0.2366000 0.2330000
-0.4548000 0.2368000 0.2330000
-0.4548000 0.2400000 0.2296000
-0.4548000 0.2367159 0.2321200
-0.4548000 0.2369090 0.2321718
-0.4548000 0.2391200 0.2297159
-0.4548000 0.2391718 0.2299090
-0.4548000 0.2383000 0.2300555
-0.4548000 0.2384000 0.2302287
-0.4548000 0.2377373 0.2307373
-0.4548000 0.2370555 0.2313000
-0.4548000 0.2372287 0.2314000
-0.4548000 0.2375958 0.2305958
-0.4563000 0.2434000 0.2330000
-0.4563000 0.2432842 0.2338800
-0.4563000 0.2429445 0.2347000
-0.4563000 0.2424042 0.2354042
-0.4563000 0.2417000 0.2359445
-0.4563000 0.2408800 0.2362842
-0.4563000 0.2400000 0.2364000
-0.4563000 0.2391200 0.2362842
-0.4563000 0.2383000 0.2359445
-0.4563000 0.2375958 0.2354042
-0.4563000 0.2370555 0.2347000
-0.4563000 0.2367159 0.2338800
-0.4563000 0.2366000 0.2330000
-0.4563000 0.2367159 0.2321200
-0.4563000 0.2370555 0.2313000
-0.4563000 0.2375958 0.2305958
-0.4563000 0.2383000 0.2300555
-0.4563000 0.2391200 0.2297159
-0.4563000 0.2400000 0.2296000
-0.4563000 0.2408800 0.2297159
-0.4563000 0.2417000 0.2300555
-0.4563000 0.2424042 0.2305958
-0.4563000 0.2429445 0.2313000
-0.4563000 0.2432842 0.2321200
-0.4557626 0.2400000 0.2303003
-0.4555750 0.2406923 0.2304161
-0.4555750 0.2400000 0.2303250
-0.4562753 0.2400000 0.2297876
-0.4555750 0.2406923 0.2355838
-0.4557626 0.2400000 0.2356997
-0.4555750 0.2400000 0.2356750
-0.4562753 0.2400000 0.2362124
-0.4559375 0.2400000 0.2302279
-0.4559375 0.2407175 0.2303223
-0.4560876 0.2400000 0.2301127
-0.4562029 0.2400000 0.2299625
-0.4562029 0.2407862 0.2300660
-0.4559375 0.2413861 0.2305993
-0.4555750 0.2413375 0.2306834
-0.4562029 0.2415188 0.2303694
-0.4559375 0.2419602 0.2310398
-0.4555750 0.2418915 0.2311085
-0.4562029 0.2421478 0.2308522
-0.4559375 0.2424007 0.2316139
-0.4555750 0.2423166 0.2316625
-0.4562029 0.2426306 0.2314813
-0.4559375 0.2426777 0.2322825
-0.4555750 0.2425838 0.2323077
-0.4562029 0.2429340 0.2322138
-0.4559375 0.2427721 0.2330000
-0.4555750 0.2426750 0.2330000
-0.4562029 0.2430375 0.2330000
-0.4559375 0.2426777 0.2337175
-0.4555750 0.2425838 0.2336923
-0.4562029 0.2429340 0.2337862
-0.4559375 0.2424007 0.2343861
-0.4555750 0.2423166 0.2343375
-0.4562029 0.2426306 0.2345188
-0.4555750 0.2418915 0.2348915
-0.4559375 0.2419602 0.2349602
-0.4555750 0.2413375 0.2353166
-0.4562029 0.2421478 0.2351478
-0.4559375 0.2413861 0.2354007
-0.4562029 0.2415188 0.2356306
-0.4559375 0.2407175 0.2356777
-0.4559375 0.2400000 0.2357721
-0.4560876 0.2400000 0.2358873
-0.4562029 0.2407862 0.2359340
-0.4562029 0.2400000 0.2360375
-0.4555750 0.2393077 0.2355838
-0.4555750 0.2393077 0.2304161
-0.4559375 0.2392825 0.2356777
-0.4562029 0.2392138 0.2359340
-0.4559375 0.2386139 0.2354007
-0.4555750 0.2386625 0.2353166
-0.4562029 0.2384813 0.2356306
-0.4559375 0.2380398 0.2349602
-0.4555750 0.2381085 0.2348915
-0.4562029 0.2378522 0.2351478
-0.4559375 0.2375993 0.2343861
-0.4555750 0.2376834 0.2343375
-0.4562029 0.2373694 0.2345188
-0.4559375 0.2373223 0.2337175
-0.4555750 0.2374161 0.2336923
-0.4562029 0.2370660 0.2337862
-0.4559375 0.2372279 0.2330000
-0.4555750 0.2373250 0.2330000
-0.4562029 0.2369625 0.2330000
-0.4559375 0.2373223 0.2322825
-0.4555750 0.2374161 0.2323077
-0.4555750 0.2376834 0.2316625
-0.4562029 0.2370660 0.2322138
-0.4559375 0.2375993 0.2316139
-0.4555750 0.2381085 0.2311085
-0.4562029 0.2373694 0.2314813
-0.4559375 0.2380398 0.2310398
-0.4562029 0.2378522 0.2308522
-0.4559375 0.2386139 0.2305993
-0.4555750 0.2386625 0.2306834
-0.4562029 0.2384813 0.2303694
-0.4559375 0.2392825 0.2303223
-0.4562029 0.2392138 0.2300660
-0.4500000 0.2393077 0.2355838
-0.4500000 0.2400000 0.2356750
-0.4500000 0.2386625 0.2353166
-0.4500000 0.2381085 0.2348915
-0.4500000 0.2376834 0.2343375
-0.4500000 0.2374161 0.2336923
-0.4500000 0.2373250 0.2330000
-0.4500000 0.2374161 0.2323077
-0.4500000 0.2376834 0.2316625
-0.4500000 0.2381085 0.2311085
-0.4500000 0.2386625 0.2306834
-0.4500000 0.2393077 0.2304161
-0.4500000 0.2400000 0.2303250
-0.4500000 0.2371421 0.2313500
-0.4500000 0.2376665 0.2306665
-0.4500000 0.2383500 0.2301421
-0.4500000 0.2391459 0.2298124
-0.4500000 0.2368124 0.2321459
-0.4500000 0.2400000 0.2297000
-0.4500000 0.2367000 0.2330000
-0.4500000 0.2408541 0.2298124
-0.4500000 0.2368124 0.2338541
-0.4500000 0.2406923 0.2304161
-0.4500000 0.2416500 0.2301421
-0.4500000 0.2371421 0.2346500
-0.4500000 0.2413375 0.2306834
-0.4500000 0.2423335 0.2306665
-0.4500000 0.2376665 0.2353335
-0.4500000 0.2418915 0.2311085
-0.4500000 0.2423166 0.2316625
-0.4500000 0.2383500 0.2358579
-0.4500000 0.2428579 0.2313500
-0.4500000 0.2425838 0.2323077
-0.4500000 0.2391459 0.2361876
-0.4500000 0.2431876 0.2321459
-0.4500000 0.2426750 0.2330000
-0.4500000 0.2400000 0.2363000
-0.4500000 0.2433000 0.2330000
-0.4500000 0.2408541 0.2361876
-0.4500000 0.2406923 0.2355838
-0.4500000 0.2431876 0.2338541
-0.4500000 0.2425838 0.2336923
-0.4500000 0.2416500 0.2358579
-0.4500000 0.2413375 0.2353166
-0.4500000 0.2428579 0.2346500
-0.4500000 0.2423166 0.2343375
-0.4500000 0.2418915 0.2348915
-0.4500000 0.2423335 0.2353335
-0.4532000 0.2433000 0.2330000
-0.4532000 0.2431876 0.2338541
-0.4532000 0.2428579 0.2346500
-0.4532000 0.2423335 0.2353335
-0.4532000 0.2416500 0.2358579
-0.4532000 0.2408541 0.2361876
-0.4532000 0.2400000 0.2363000
-0.4532000 0.2391459 0.2361876
-0.4532000 0.2383500 0.2358579
-0.4532000 0.2376665 0.2353335
-0.4532000 0.2371421 0.2346500
-0.4532000 0.2368124 0.2338541
-0.4532000 0.2367000 0.2330000
-0.4532000 0.2422627 0.2352627
-0.4532000 0.2427713 0.2346000
-0.4532000 0.2416000 0.2357713
-0.4532000 0.2430910 0.2338282
-0.4532000 0.2408282 0.2360910
-0.4532000 0.2432000 0.2330000
-0.4532000 0.2400000 0.2362000
-0.4532000 0.2431876 0.2321459
-0.4532000 0.2430910 0.2321718
-0.4532000 0.2391718 0.2360910
-0.4532000 0.2427713 0.2314000
-0.4532000 0.2428579 0.2313500
-0.4532000 0.2384000 0.2357713
-0.4532000 0.2422627 0.2307373
-0.4532000 0.2423335 0.2306665
-0.4532000 0.2377373 0.2352627
-0.4532000 0.2416000 0.2302287
-0.4532000 0.2372287 0.2346000
-0.4532000 0.2416500 0.2301421
-0.4532000 0.2408541 0.2298124
-0.4532000 0.2408282 0.2299090
-0.4532000 0.2369090 0.2338282
-0.4532000 0.2400000 0.2298000
-0.4532000 0.2400000 0.2297000
-0.4532000 0.2368000 0.2330000
-0.4532000 0.2391718 0.2299090
-0.4532000 0.2368124 0.2321459
-0.4532000 0.2369090 0.2321718
-0.4532000 0.2391459 0.2298124
-0.4532000 0.2383500 0.2301421
-0.4532000 0.2384000 0.2302287
-0.4532000 0.2371421 0.2313500
-0.4532000 0.2372287 0.2314000
-0.4532000 0.2377373 0.2307373
-0.4532000 0.2376665 0.2306665
3 0 4 1
3 1 5 2
3 0 2 51
3 3 4 0
3 4 211 1
3 1 213 5
3 5 6 2
3 51 2 52
3 50 0 51
3 3 7 4
3 3 0 50
3 212 211 4
3 211 213 1
3 213 215 5
3 5 9 6
3 2 6 52
3 52 111 51
3 51 109 50
3 7 3 49
3 7 8 4
3 49 3 50
3 212 201 211
3 8 212 4
3 213 211 202
3 215 213 202
3 5 215 9
3 9 12 6
3 52 6 53
3 52 115 111
3 51 111 109
3 50 109 105
3 48 7 49
3 7 11 8
3 50 102 49
3 212 200 201
3 202 211 201
3 214 212 8
3 215 202 203
3 215 217 9
3 9 217 12
3 6 12 13
3 53 6 54
3 53 115 52
3 111 115 110
3 109 111 110
3 105 109 103
3 50 105 102
3 10 7 48
3 49 102 48
3 10 11 7
3 11 214 8
3 199 200 212
3 200 197 201
3 201 192 202
3 214 199 212
3 202 192 203
3 204 215 203
3 217 215 204
3 217 220 12
3 12 14 13
3 6 13 54
3 53 54 79
3 79 115 53
3 110 115 112
3 109 110 107
3 103 109 107
3 100 105 103
3 102 105 100
3 15 10 48
3 48 102 99
3 10 16 11
3 216 214 11
3 199 194 200
3 194 197 200
3 197 192 201
3 216 199 214
3 192 188 203
3 203 186 204
3 205 217 204
3 220 217 205
3 12 220 17
3 12 17 14
3 13 14 54
3 54 55 79
3 116 115 79
3 112 115 114
3 110 112 76
3 107 110 108
3 103 107 104
3 100 103 101
3 97 102 100
3 15 16 10
3 71 15 48
3 99 102 97
3 48 99 71
3 16 219 11
3 219 216 11
3 190 194 199
3 196 197 194
3 192 197 193
3 216 198 199
3 188 192 189
3 188 186 203
3 204 186 205
3 206 220 205
3 220 223 17
3 17 18 14
3 54 14 55
3 55 120 79
3 114 115 116
3 79 120 116
3 113 112 114
3 76 112 77
3 108 110 76
3 106 107 108
3 104 107 106
3 101 103 104
3 98 100 101
3 97 100 98
3 15 19 16
3 70 15 71
3 94 99 97
3 71 99 96
3 20 219 16
3 219 218 216
3 191 194 190
3 198 190 199
3 193 197 196
3 196 194 195
3 189 192 193
3 218 198 216
3 151 188 189
3 186 188 151
3 186 183 205
3 223 220 206
3 205 180 206
3 17 223 21
3 17 21 18
3 14 18 55
3 55 123 120
3 116 120 114
3 77 112 113
3 114 119 113
3 76 77 78
3 193 108 76
3 193 106 108
3 195 104 106
3 195 101 104
3 191 98 101
3 95 97 98
3 19 15 70
3 19 20 16
3 71 96 70
3 96 99 94
3 94 97 95
3 221 219 20
3 221 218 219
3 195 194 191
3 191 190 185
3 187 190 198
3 193 196 106
3 196 195 106
3 189 193 76
3 218 184 198
3 151 189 76
3 183 186 151
3 183 180 205
3 226 223 206
3 180 177 206
3 223 226 21
3 21 22 18
3 55 18 56
3 56 123 55
3 120 123 119
3 114 120 119
3 113 119 77
3 77 117 78
3 151 76 78
3 195 191 101
3 191 185 98
3 185 95 98
3 24 19 70
3 19 25 20
3 70 96 93
3 91 96 94
3 92 94 95
3 25 221 20
3 221 222 218
3 185 190 187
3 184 187 198
3 222 184 218
3 183 151 150
3 180 183 150
3 226 206 207
3 177 180 152
3 206 177 207
3 21 226 22
3 22 23 18
3 18 23 56
3 56 126 123
3 119 123 121
3 77 119 117
3 150 78 117
3 150 151 78
3 185 182 95
3 24 25 19
3 69 24 70
3 93 96 91
3 70 93 69
3 91 94 92
3 182 92 95
3 224 221 25
3 224 222 221
3 185 187 184
3 181 184 222
3 180 150 152
3 208 226 207
3 177 152 153
3 207 177 208
3 226 228 22
3 22 28 23
3 56 23 57
3 57 126 56
3 123 126 121
3 119 121 117
3 152 150 117
3 182 185 184
3 24 26 25
3 68 24 69
3 88 93 91
3 69 93 90
3 89 91 92
3 182 179 92
3 27 224 25
3 225 222 224
3 182 184 181
3 176 181 222
3 208 228 226
3 153 152 125
3 174 177 153
3 177 174 208
3 22 228 29
3 29 28 22
3 23 28 58
3 57 23 58
3 58 126 57
3 121 126 124
3 117 121 122
3 152 117 122
3 26 24 68
3 25 26 27
3 69 90 68
3 90 93 88
3 88 91 89
3 179 89 92
3 179 182 181
3 227 224 27
3 225 176 222
3 227 225 224
3 179 181 176
3 209 228 208
3 152 122 125
3 153 125 128
3 174 153 154
3 174 171 208
3 228 232 29
3 29 30 28
3 58 28 59
3 58 129 126
3 126 129 124
3 121 124 122
3 67 26 68
3 26 32 27
3 68 90 87
3 85 90 88
3 86 88 89
3 179 178 89
3 33 227 27
3 173 176 225
3 229 225 227
3 178 179 176
3 209 232 228
3 208 171 209
3 122 124 125
3 125 127 128
3 154 153 128
3 174 154 155
3 171 174 155
3 29 232 30
3 30 31 28
3 28 31 59
3 59 132 58
3 58 132 129
3 124 129 127
3 32 26 67
3 68 87 67
3 27 32 33
3 87 90 85
3 85 88 86
3 175 86 89
3 178 175 89
3 231 227 33
3 175 176 173
3 229 173 225
3 230 229 227
3 175 178 176
3 210 232 209
3 209 171 210
3 124 127 125
3 127 130 128
3 155 154 128
3 171 155 156
3 232 235 30
3 30 35 31
3 31 35 59
3 59 135 132
3 129 132 127
3 66 32 67
3 67 87 84
3 32 34 33
3 81 87 85
3 73 85 86
3 175 172 86
3 230 227 231
3 34 231 33
3 172 175 173
3 230 173 229
3 210 235 232
3 171 169 210
3 127 132 130
3 128 130 131
3 155 128 131
3 156 155 131
3 169 171 156
3 30 235 36
3 36 35 30
3 59 35 60
3 60 135 59
3 132 135 133
3 37 32 66
3 66 67 75
3 84 87 81
3 67 84 75
3 32 37 34
3 81 85 73
3 172 73 86
3 233 230 231
3 233 231 34
3 172 173 170
3 170 173 230
3 237 235 210
3 169 167 210
3 132 133 130
3 130 133 131
3 156 131 134
3 169 156 167
3 235 238 36
3 36 38 35
3 35 38 60
3 60 139 135
3 135 136 133
3 65 37 66
3 65 66 75
3 82 84 81
3 75 84 83
3 37 40 34
3 72 81 73
3 172 162 73
3 234 230 233
3 41 233 34
3 162 172 170
3 168 170 230
3 237 238 235
3 210 167 237
3 131 133 134
3 157 156 134
3 167 156 157
3 36 238 39
3 39 38 36
3 60 38 61
3 61 139 60
3 135 139 136
3 133 136 134
3 40 37 65
3 75 149 65
3 83 84 82
3 82 81 80
3 83 149 75
3 34 40 41
3 80 81 72
3 72 73 74
3 162 74 73
3 234 168 230
3 236 234 233
3 236 233 41
3 162 170 168
3 242 238 237
3 167 163 237
3 157 134 137
3 167 157 163
3 238 243 39
3 39 45 38
3 38 45 61
3 62 139 61
3 139 142 136
3 134 136 137
3 64 40 65
3 65 149 64
3 82 149 83
3 80 148 82
3 40 42 41
3 72 148 80
3 118 72 74
3 162 161 74
3 166 168 234
3 239 234 236
3 43 236 41
3 166 162 168
3 242 243 238
3 237 163 242
3 157 137 138
3 163 157 158
3 39 243 46
3 46 45 39
3 61 45 62
3 62 142 139
3 136 142 140
3 137 136 138
3 42 40 64
3 64 149 147
3 148 149 82
3 41 42 43
3 118 148 72
3 161 118 74
3 161 162 166
3 239 166 234
3 240 239 236
3 241 236 43
3 245 243 242
3 163 164 242
3 158 157 138
3 163 158 164
3 243 244 46
3 44 45 46
3 45 47 62
3 62 144 142
3 142 144 140
3 136 140 138
3 63 42 64
3 147 149 145
3 64 147 63
3 145 149 148
3 43 42 44
3 145 148 118
3 161 146 118
3 165 161 166
3 165 166 239
3 240 165 239
3 240 236 241
3 44 241 43
3 245 244 243
3 242 164 245
3 159 158 138
3 164 158 159
3 46 244 44
3 44 47 45
3 62 47 63
3 63 144 62
3 140 144 143
3 138 140 141
3 47 42 63
3 144 147 145
3 63 147 144
3 42 47 44
3 146 145 118
3 161 160 146
3 160 161 165
3 245 165 240
3 244 240 241
3 244 241 44
3 245 240 244
3 164 165 245
3 159 138 141
3 159 160 164
3 144 145 143
3 140 143 141
3 141 145 146
3 160 141 146
3 164 160 165
3 160 159 141
3 143 145 141
3 0 1 2
