ply
format ascii 1.0
comment made by tesseract
element vertex 262
property float x
property float y
property float z
element face 524
property list uchar int vertex_indices
end_header
0.3245924 0.1240000 1.8932624
0.3250000 0.1240000 1.8940001
0.3262167 0.1240000 1.8933606
0.3229918 0.1240000 1.8935556
0.3235641 0.1240000 1.8941743
0.3264359 0.1240000 1.8941743
0.3277703 0.1240000 1.8938447
0.3215080 0.1240000 1.8942235
0.3222117 0.1240000 1.8946873
0.3277883 0.1240000 1.8946873
0.3291628 0.1240000 1.8946866
0.3202270 0.1240000 1.8952271
0.3210213 0.1240000 1.8955089
0.3289787 0.1240000 1.8955089
0.3303135 0.1240000 1.8958372
0.3192235 0.1240000 1.8965080
0.3200621 0.1240000 1.8965915
0.3299379 0.1240000 1.8965915
0.3311553 0.1240000 1.8972298
0.3193899 0.1240000 1.8978723
0.3306101 0.1240000 1.8978723
0.3185556 0.1240000 1.8979918
0.3316394 0.1240000 1.8987833
0.3190437 0.1240000 1.8992767
0.3309563 0.1240000 1.8992767
0.3182623 0.1240000 1.8995924
0.3317377 0.1240000 1.9004076
0.3190437 0.1240000 1.9007232
0.3309563 0.1240000 1.9007232
0.3183606 0.1240000 1.9012166
0.3314444 0.1240000 1.9020082
0.3193899 0.1240000 1.9021277
0.3306101 0.1240000 1.9021277
0.3188447 0.1240000 1.9027703
0.3200621 0.1240000 1.9034084
0.3307765 0.1240000 1.9034921
0.3299379 0.1240000 1.9034084
0.3196865 0.1240000 1.9041629
0.3210213 0.1240000 1.9044911
0.3297730 0.1240000 1.9047730
0.3289787 0.1240000 1.9044911
0.3208372 0.1240000 1.9053135
0.3222117 0.1240000 1.9053128
0.3284920 0.1240000 1.9057765
0.3277883 0.1240000 1.9053128
0.3222297 0.1240000 1.9061552
0.3235641 0.1240000 1.9058257
0.3264359 0.1240000 1.9058257
0.3270082 0.1240000 1.9064443
0.3237833 0.1240000 1.9066395
0.3250000 0.1240000 1.9060000
0.3254076 0.1240000 1.9067377
0.3297730 0.1420000 1.9047730
0.3307765 0.1420000 1.9034921
0.3314444 0.1420000 1.9020082
0.3317377 0.1420000 1.9004076
0.3316394 0.1420000 1.8987833
0.3311553 0.1420000 1.8972298
0.3303135 0.1420000 1.8958372
0.3291628 0.1420000 1.8946866
0.3277703 0.1420000 1.8938447
0.3262167 0.1420000 1.8933606
0.3245924 0.1420000 1.8932624
0.3229918 0.1420000 1.8935556
0.3215080 0.1420000 1.8942235
0.3202270 0.1420000 1.8952271
0.3206897 0.1420000 1.9048654
0.3208372 0.1420000 1.9053135
0.3196865 0.1420000 1.9041629
0.3196506 0.1420000 1.9036924
0.3188447 0.1420000 1.9027703
0.3219793 0.1420000 1.9057555
0.3222297 0.1420000 1.9061552
0.3189224 0.1420000 1.9023049
0.3234445 0.1420000 1.9063112
0.3237833 0.1420000 1.9066395
0.3183606 0.1420000 1.9012166
0.3185474 0.1420000 1.9007834
0.3250000 0.1420000 1.9065000
0.3254076 0.1420000 1.9067377
0.3182623 0.1420000 1.8995924
0.3185474 0.1420000 1.8992165
0.3265556 0.1420000 1.9063112
0.3270082 0.1420000 1.9064443
0.3185556 0.1420000 1.8979918
0.3189224 0.1420000 1.8976951
0.3280207 0.1420000 1.9057555
0.3284920 0.1420000 1.9057765
0.3192235 0.1420000 1.8965080
0.3196506 0.1420000 1.8963076
0.3293103 0.1420000 1.9048654
0.3206897 0.1420000 1.8951347
0.3303494 0.1420000 1.9036924
0.3219793 0.1420000 1.8942446
0.3310776 0.1420000 1.9023049
0.3234445 0.1420000 1.8936888
0.3314526 0.1420000 1.9007834
0.3250000 0.1420000 1.8935000
0.3314526 0.1420000 1.8992165
0.3265556 0.1420000 1.8936888
0.3310776 0.1420000 1.8976951
0.3280207 0.1420000 1.8942446
0.3303494 0.1420000 1.8963076
0.3293103 0.1420000 1.8951347
0.3250000 0.1445000 1.9065000
0.3234445 0.1445000 1.9063112
0.3219793 0.1445000 1.9057555
0.3206897 0.1445000 1.9048654
0.3196506 0.1445000 1.9036924
0.3189224 0.1445000 1.9023049
0.3185474 0.1445000 1.9007834
0.3185474 0.1445000 1.8992165
0.3189224 0.1445000 1.8976951
0.3196506 0.1445000 1.8963076
0.3206897 0.1445000 1.8951347
0.3219793 0.1445000 1.8942446
0.3234445 0.1445000 1.8936888
0.3250000 0.1445000 1.8935000
0.3265556 0.1445000 1.8936888
0.3280207 0.1445000 1.8942446
0.3293103 0.1445000 1.8951347
0.3303494 0.1445000 1.8963076
0.3310776 0.1445000 1.8976951
0.3314526 0.1445000 1.8992165
0.3314526 0.1445000 1.9007834
0.3310776 0.1445000 1.9023049
0.3303494 0.1445000 1.9036924
0.3293103 0.1445000 1.9048654
0.3280207 0.1445000 1.9057555
0.3265556 0.1445000 1.9063112
0.3264359 0.1440000 1.9058257
0.3250000 0.1441294 1.9060171
0.3250000 0.1440000 1.9060000
0.3250000 0.1444830 1.9063706
0.3250000 0.1441294 1.8939829
0.3264400 0.1441294 1.8941579
0.3250000 0.1440000 1.8940001
0.3250000 0.1442500 1.8939329
0.3264359 0.1440000 1.8941743
0.3250000 0.1443535 1.8938535
0.3264709 0.1443535 1.8940321
0.3264957 0.1444330 1.8939316
0.3250000 0.1444330 1.8937500
0.3265246 0.1444830 1.8938146
0.3250000 0.1444830 1.8936294
0.3277963 0.1441294 1.8946722
0.3277883 0.1440000 1.8946873
0.3278564 0.1443535 1.8945576
0.3279045 0.1444330 1.8944659
0.3279606 0.1444830 1.8943591
0.3289900 0.1441294 1.8954962
0.3289787 0.1440000 1.8955089
0.3290758 0.1443535 1.8953993
0.3291445 0.1444330 1.8953217
0.3292245 0.1444830 1.8952316
0.3299519 0.1441294 1.8965819
0.3299379 0.1440000 1.8965915
0.3300585 0.1443535 1.8965085
0.3301437 0.1444330 1.8964496
0.3302429 0.1444830 1.8963811
0.3306260 0.1441294 1.8978664
0.3306101 0.1440000 1.8978723
0.3307470 0.1443535 1.8978205
0.3308438 0.1444330 1.8977836
0.3309566 0.1444830 1.8977410
0.3309732 0.1441294 1.8992748
0.3309563 0.1440000 1.8992767
0.3311016 0.1443535 1.8992592
0.3312044 0.1444330 1.8992467
0.3313241 0.1444830 1.8992320
0.3309732 0.1441294 1.9007252
0.3309563 0.1440000 1.9007232
0.3311016 0.1443535 1.9007409
0.3312044 0.1444330 1.9007533
0.3313241 0.1444830 1.9007679
0.3306260 0.1441294 1.9021337
0.3306101 0.1440000 1.9021277
0.3307470 0.1443535 1.9021796
0.3308438 0.1444330 1.9022163
0.3309566 0.1444830 1.9022590
0.3299519 0.1441294 1.9034181
0.3299379 0.1440000 1.9034084
0.3300585 0.1443535 1.9034916
0.3301437 0.1444330 1.9035504
0.3302429 0.1444830 1.9036189
0.3289900 0.1441294 1.9045038
0.3289787 0.1440000 1.9044911
0.3290758 0.1443535 1.9046007
0.3291445 0.1444330 1.9046782
0.3292245 0.1444830 1.9047685
0.3277963 0.1441294 1.9053279
0.3277883 0.1440000 1.9053128
0.3278564 0.1443535 1.9054424
0.3279045 0.1444330 1.9055340
0.3279606 0.1444830 1.9056408
0.3264400 0.1441294 1.9058422
0.3250000 0.1442500 1.9060670
0.3264709 0.1443535 1.9059680
0.3250000 0.1443535 1.9061465
0.3264957 0.1444330 1.9060683
0.3250000 0.1444330 1.9062500
0.3265246 0.1444830 1.9061854
0.3235641 0.1440000 1.8941743
0.3235600 0.1441294 1.9058422
0.3235641 0.1440000 1.9058257
0.3235291 0.1443535 1.9059680
0.3235043 0.1444330 1.9060683
0.3234754 0.1444830 1.9061854
0.3222037 0.1441294 1.9053279
0.3222117 0.1440000 1.9053128
0.3221436 0.1443535 1.9054424
0.3220955 0.1444330 1.9055340
0.3220394 0.1444830 1.9056408
0.3210100 0.1441294 1.9045038
0.3210213 0.1440000 1.9044911
0.3209242 0.1443535 1.9046007
0.3208555 0.1444330 1.9046782
0.3207755 0.1444830 1.9047685
0.3200481 0.1441294 1.9034181
0.3200621 0.1440000 1.9034084
0.3199416 0.1443535 1.9034916
0.3198563 0.1444330 1.9035504
0.3197571 0.1444830 1.9036189
0.3193740 0.1441294 1.9021337
0.3193899 0.1440000 1.9021277
0.3192530 0.1443535 1.9021796
0.3191562 0.1444330 1.9022163
0.3190434 0.1444830 1.9022590
0.3190268 0.1441294 1.9007252
0.3190437 0.1440000 1.9007232
0.3188984 0.1443535 1.9007409
0.3187956 0.1444330 1.9007533
0.3186759 0.1444830 1.9007679
0.3190268 0.1441294 1.8992748
0.3190437 0.1440000 1.8992767
0.3188984 0.1443535 1.8992592
0.3187956 0.1444330 1.8992467
0.3186759 0.1444830 1.8992320
0.3193740 0.1441294 1.8978664
0.3193899 0.1440000 1.8978723
0.3192530 0.1443535 1.8978205
0.3191562 0.1444330 1.8977836
0.3190434 0.1444830 1.8977410
0.3200481 0.1441294 1.8965819
0.3200621 0.1440000 1.8965915
0.3199416 0.1443535 1.8965085
0.3198563 0.1444330 1.8964496
0.3197571 0.1444830 1.8963811
0.3210100 0.1441294 1.8954962
0.3210213 0.1440000 1.8955089
0.3209242 0.1443535 1.8953993
0.3208555 0.1444330 1.8953217
0.3207755 0.1444830 1.8952316
0.3222037 0.1441294 1.8946722
0.3222117 0.1440000 1.8946873
0.3221436 0.1443535 1.8945576
0.3220955 0.1444330 1.8944659
0.3220394 0.1444830 1.8943591
0.3235600 0.1441294 1.8941579
0.3235291 0.1443535 1.8940321
0.3235043 0.1444330 1.8939316
0.3234754 0.1444830 1.8938146
3 0 4 1
3 1 5 2
3 2 61 0
3 3 4 0
3 1 4 202
3 5 1 136
3 2 5 6
3 6 61 2
3 61 62 0
3 3 8 4
3 0 63 3
3 4 254 202
3 1 202 136
3 5 136 138
3 5 9 6
3 60 61 6
3 61 97 62
3 62 63 0
3 7 8 3
3 4 8 254
3 63 64 3
3 254 258 202
3 202 134 136
3 136 135 138
3 9 5 138
3 6 9 10
3 60 99 61
3 59 60 6
3 99 97 61
3 97 95 62
3 62 95 63
3 7 12 8
3 3 64 7
3 8 249 254
3 63 93 64
3 253 258 254
3 202 258 134
3 134 135 136
3 135 145 138
3 9 138 146
3 9 13 10
3 10 59 6
3 60 101 99
3 59 101 60
3 97 99 118
3 95 97 117
3 95 93 63
3 11 12 7
3 8 12 249
3 7 64 11
3 249 253 254
3 93 91 64
3 253 259 258
3 134 258 137
3 137 135 134
3 135 147 145
3 138 145 146
3 13 9 146
3 13 14 10
3 14 59 10
3 99 101 119
3 59 103 101
3 118 99 119
3 117 97 118
3 116 95 117
3 93 95 115
3 11 16 12
3 12 244 249
3 64 65 11
3 248 253 249
3 91 93 115
3 64 91 65
3 255 259 253
3 258 259 137
3 137 140 135
3 140 147 135
3 147 152 145
3 145 150 146
3 13 146 151
3 13 17 14
3 58 59 14
3 119 101 120
3 58 103 59
3 101 103 120
3 119 149 118
3 118 143 117
3 115 95 116
3 116 117 144
3 15 16 11
3 12 16 244
3 244 248 249
3 65 88 11
3 248 255 253
3 114 91 115
3 91 89 65
3 255 260 259
3 137 259 139
3 139 140 137
3 140 148 147
3 147 153 152
3 145 152 150
3 146 150 151
3 17 13 151
3 17 18 14
3 18 58 14
3 120 154 119
3 58 102 103
3 103 102 120
3 119 154 149
3 118 149 143
3 117 143 144
3 116 261 115
3 144 261 116
3 15 19 16
3 11 88 15
3 16 239 244
3 243 248 244
3 65 89 88
3 250 255 248
3 113 91 114
3 115 257 114
3 89 91 113
3 256 260 255
3 259 260 139
3 139 141 140
3 141 148 140
3 148 153 147
3 153 158 152
3 152 157 150
3 150 155 151
3 17 151 156
3 17 20 18
3 57 58 18
3 120 159 154
3 58 57 102
3 120 102 121
3 149 154 148
3 143 149 141
3 144 143 142
3 115 261 257
3 260 261 144
3 15 21 19
3 16 19 239
3 88 84 15
3 239 243 244
3 243 250 248
3 89 85 88
3 250 256 255
3 114 252 113
3 114 257 252
3 112 89 113
3 257 260 256
3 139 260 142
3 142 141 139
3 141 149 148
3 148 154 153
3 153 159 158
3 152 158 157
3 150 157 155
3 151 155 156
3 17 156 161
3 20 17 161
3 20 22 18
3 22 57 18
3 121 159 120
3 154 159 153
3 102 57 100
3 102 100 121
3 142 143 141
3 142 260 144
3 257 261 260
3 15 84 21
3 21 23 19
3 19 234 239
3 88 85 84
3 238 243 239
3 245 250 243
3 85 89 112
3 251 256 250
3 113 252 247
3 252 257 251
3 113 247 112
3 251 257 256
3 159 164 158
3 158 162 157
3 157 160 155
3 155 160 156
3 156 160 161
3 24 20 161
3 20 24 22
3 56 57 22
3 122 159 121
3 57 56 100
3 121 100 122
3 84 80 21
3 21 25 23
3 19 23 234
3 234 238 239
3 85 81 84
3 238 245 243
3 246 250 245
3 111 85 112
3 246 251 250
3 247 252 246
3 246 252 251
3 112 247 242
3 122 164 159
3 158 164 163
3 158 163 162
3 157 162 160
3 160 165 161
3 24 161 166
3 24 26 22
3 55 56 22
3 100 56 98
3 122 100 123
3 84 81 80
3 21 80 25
3 25 27 23
3 23 229 234
3 233 238 234
3 81 85 111
3 240 245 238
3 240 246 245
3 112 242 111
3 241 247 246
3 242 247 241
3 123 164 122
3 164 169 163
3 163 168 162
3 162 167 160
3 160 167 165
3 161 165 166
3 28 24 166
3 24 28 26
3 26 55 22
3 56 55 98
3 100 98 123
3 81 77 80
3 80 76 25
3 25 29 27
3 23 27 229
3 229 233 234
3 233 240 238
3 77 81 111
3 241 246 240
3 111 242 237
3 236 242 241
3 123 169 164
3 163 169 168
3 162 168 167
3 167 172 165
3 165 170 166
3 28 166 171
3 28 30 26
3 30 55 26
3 98 55 96
3 98 96 123
3 80 77 76
3 25 76 29
3 29 31 27
3 27 224 229
3 228 233 229
3 235 240 233
3 110 77 111
3 235 241 240
3 237 242 236
3 111 237 110
3 236 241 235
3 123 174 169
3 169 174 168
3 168 173 167
3 167 173 172
3 165 172 170
3 166 170 171
3 32 28 171
3 28 32 30
3 54 55 30
3 55 54 96
3 123 96 124
3 77 73 76
3 76 70 29
3 29 33 31
3 27 31 224
3 224 228 229
3 228 235 233
3 73 77 110
3 231 237 236
3 110 237 232
3 230 236 235
3 124 174 123
3 168 174 173
3 173 178 172
3 172 177 170
3 170 175 171
3 32 171 176
3 32 35 30
3 35 54 30
3 96 54 94
3 96 94 124
3 76 73 70
3 29 70 33
3 33 34 31
3 31 219 224
3 223 228 224
3 230 235 228
3 109 73 110
3 232 237 231
3 231 236 230
3 110 232 227
3 124 179 174
3 174 179 173
3 173 179 178
3 172 178 177
3 170 177 175
3 171 175 176
3 32 176 181
3 36 35 32
3 53 54 35
3 54 53 94
3 124 94 125
3 73 69 70
3 70 68 33
3 33 37 34
3 31 34 219
3 219 223 224
3 223 230 228
3 108 73 109
3 110 227 109
3 226 232 231
3 225 231 230
3 227 232 226
3 125 179 124
3 179 184 178
3 178 183 177
3 177 182 175
3 175 180 176
3 176 180 181
3 36 32 181
3 36 39 35
3 39 53 35
3 94 53 92
3 94 92 125
3 69 73 108
3 70 69 68
3 33 68 37
3 37 38 34
3 34 214 219
3 218 223 219
3 225 230 223
3 109 222 108
3 109 227 222
3 226 231 225
3 221 227 226
3 125 184 179
3 178 184 183
3 177 183 182
3 175 182 180
3 180 185 181
3 40 36 181
3 40 39 36
3 52 53 39
3 53 52 92
3 125 92 126
3 66 69 108
3 69 66 68
3 68 67 37
3 37 41 38
3 34 38 214
3 214 218 219
3 220 223 218
3 220 225 223
3 108 222 107
3 222 227 221
3 221 226 225
3 126 184 125
3 184 189 183
3 183 187 182
3 182 187 180
3 180 187 185
3 181 185 186
3 40 181 186
3 40 43 39
3 43 52 39
3 92 52 90
3 92 90 126
3 107 66 108
3 66 67 68
3 37 67 41
3 38 41 42
3 38 209 214
3 213 218 214
3 213 220 218
3 221 225 220
3 107 222 217
3 216 222 221
3 126 189 184
3 183 189 188
3 183 188 187
3 187 192 185
3 185 190 186
3 44 40 186
3 44 43 40
3 87 52 43
3 52 87 90
3 126 90 127
3 71 66 107
3 71 67 66
3 67 72 41
3 41 45 42
3 38 42 209
3 209 213 214
3 215 220 213
3 215 221 220
3 217 222 216
3 107 217 106
3 216 221 215
3 127 189 126
3 189 194 188
3 188 193 187
3 187 193 192
3 185 192 190
3 186 190 191
3 44 186 191
3 44 48 43
3 48 87 43
3 90 87 86
3 127 90 128
3 106 71 107
3 71 72 67
3 41 72 45
3 42 45 46
3 42 204 209
3 208 213 209
3 208 215 213
3 211 217 216
3 106 217 212
3 210 216 215
3 127 194 189
3 188 194 193
3 193 199 192
3 192 197 190
3 190 195 191
3 47 44 191
3 47 48 44
3 83 87 48
3 87 83 86
3 90 86 128
3 128 194 127
3 74 71 106
3 74 72 71
3 72 75 45
3 45 49 46
3 42 46 204
3 204 208 209
3 210 215 208
3 212 217 211
3 211 216 210
3 106 212 105
3 194 199 193
3 192 199 197
3 190 197 195
3 191 195 130
3 47 191 130
3 47 51 48
3 51 83 48
3 86 83 82
3 86 82 128
3 128 201 194
3 105 74 106
3 75 72 74
3 45 75 49
3 46 49 50
3 46 132 204
3 203 208 204
3 203 210 208
3 206 212 211
3 205 211 210
3 105 212 207
3 194 201 199
3 197 199 198
3 195 197 196
3 130 195 131
3 47 130 132
3 50 51 47
3 79 83 51
3 83 79 82
3 128 82 129
3 129 201 128
3 78 74 105
3 78 75 74
3 75 79 49
3 49 51 50
3 46 50 132
3 132 203 204
3 205 210 203
3 207 212 206
3 206 211 205
3 105 207 104
3 199 201 133
3 198 199 200
3 196 197 198
3 131 195 196
3 130 131 132
3 50 47 132
3 49 79 51
3 82 79 78
3 129 82 104
3 133 201 129
3 104 78 105
3 79 75 78
3 131 203 132
3 196 205 203
3 200 207 206
3 198 206 205
3 104 207 133
3 200 199 133
3 200 206 198
3 198 205 196
3 196 203 131
3 82 78 104
3 129 104 133
3 133 207 200
3 0 1 2
