ply
format ascii 1.0
comment made by tesseract
element vertex 277
property float x
property float y
property float z
element face 554
property list uchar int vertex_indices
end_header
0.0809876 0.0178165 0.4699990
0.0809512 0.0172349 0.4706149
0.0810014 0.0175718 0.4698236
0.0810251 0.0182932 0.4693789
0.0810424 0.0181025 0.4691462
0.0809416 0.0175168 0.4707211
0.0808951 0.0171147 0.4714661
0.0810518 0.0189145 0.4689028
0.0810713 0.0187906 0.4686288
0.0808905 0.0174146 0.4714959
0.0808369 0.0172194 0.4723192
0.0810657 0.0196380 0.4686034
0.0810861 0.0195895 0.4683066
0.0808376 0.0175168 0.4722705
0.0807806 0.0175418 0.4731161
0.0810660 0.0204145 0.4685009
0.0810858 0.0204445 0.4682017
0.0807866 0.0178165 0.4729923
0.0807301 0.0180599 0.4738024
0.0810525 0.0211909 0.4686025
0.0810705 0.0212975 0.4683212
0.0807409 0.0182932 0.4736120
0.0810263 0.0219144 0.4689011
0.0810412 0.0220904 0.4686569
0.0806888 0.0187386 0.4743315
0.0807037 0.0189145 0.4740873
0.0809891 0.0225357 0.4693764
0.0809999 0.0227690 0.4691859
0.0806595 0.0195314 0.4746672
0.0806775 0.0196380 0.4743859
0.0809434 0.0230125 0.4699961
0.0809494 0.0232872 0.4698723
0.0806442 0.0203844 0.4747866
0.0806640 0.0204145 0.4744874
0.0808924 0.0233121 0.4707178
0.0808931 0.0236096 0.4706692
0.0806440 0.0212395 0.4746817
0.0806643 0.0211909 0.4743850
0.0808395 0.0234144 0.4714925
0.0808349 0.0237142 0.4715223
0.0806588 0.0220383 0.4743596
0.0806782 0.0219144 0.4740856
0.0807884 0.0233121 0.4722672
0.0807788 0.0235940 0.4723735
0.0807424 0.0230125 0.4729893
0.0806876 0.0227265 0.4738422
0.0807049 0.0225357 0.4736095
0.0807286 0.0232571 0.4731648
0.0868213 0.0237653 0.4719242
0.0867651 0.0236451 0.4727754
0.0867149 0.0233082 0.4735667
0.0866739 0.0227776 0.4742441
0.0866451 0.0220894 0.4747615
0.0866303 0.0212906 0.4750836
0.0866305 0.0204355 0.4751886
0.0866458 0.0195825 0.4750691
0.0866751 0.0187897 0.4747334
0.0867164 0.0181111 0.4742043
0.0867669 0.0175929 0.4735180
0.0868232 0.0172705 0.4727211
0.0868814 0.0171658 0.4718680
0.0869877 0.0176230 0.4702255
0.0870221 0.0182029 0.4696397
0.0870287 0.0181536 0.4695481
0.0869820 0.0176944 0.4703013
0.0870506 0.0188656 0.4691319
0.0870576 0.0188417 0.4690307
0.0869375 0.0172861 0.4710168
0.0869331 0.0173747 0.4710715
0.0870654 0.0196374 0.4688126
0.0870724 0.0196406 0.4687085
0.0868785 0.0172657 0.4718979
0.0870657 0.0204656 0.4687033
0.0870721 0.0204956 0.4686036
0.0868221 0.0173747 0.4727242
0.0870513 0.0212938 0.4688116
0.0870568 0.0213487 0.4687231
0.0867677 0.0176944 0.4734941
0.0870234 0.0220655 0.4691301
0.0870275 0.0221415 0.4690588
0.0867190 0.0182029 0.4741551
0.0869837 0.0227282 0.4696372
0.0869862 0.0228201 0.4695879
0.0866793 0.0188656 0.4746621
0.0869349 0.0232368 0.4702981
0.0869357 0.0233383 0.4702742
0.0868805 0.0235564 0.4710680
0.0866513 0.0196374 0.4749806
0.0868794 0.0236607 0.4710711
0.0868241 0.0236655 0.4718943
0.0866369 0.0204656 0.4750889
0.0867696 0.0235564 0.4727207
0.0866372 0.0212938 0.4749796
0.0867206 0.0232368 0.4734909
0.0866521 0.0220655 0.4746602
0.0866805 0.0227282 0.4741525
0.0882629 0.0204758 0.4687837
0.0882627 0.0196476 0.4688929
0.0882478 0.0188759 0.4692124
0.0882194 0.0182131 0.4697201
0.0881793 0.0177046 0.4703816
0.0881303 0.0173850 0.4711519
0.0880758 0.0172759 0.4719783
0.0880194 0.0173850 0.4728046
0.0879649 0.0177046 0.4735745
0.0879162 0.0182131 0.4742354
0.0878765 0.0188759 0.4747425
0.0878486 0.0196476 0.4750610
0.0878342 0.0204758 0.4751693
0.0878345 0.0213040 0.4750600
0.0878493 0.0220757 0.4747406
0.0878778 0.0227385 0.4742329
0.0879178 0.0232470 0.4735713
0.0879668 0.0235667 0.4728011
0.0880214 0.0236757 0.4719747
0.0880778 0.0235667 0.4711484
0.0881322 0.0232470 0.4703785
0.0881809 0.0227385 0.4697175
0.0882206 0.0220757 0.4692105
0.0882486 0.0213040 0.4688920
0.0881752 0.0177912 0.4704315
0.0882140 0.0182839 0.4697906
0.0882416 0.0189259 0.4692988
0.0881278 0.0174815 0.4711777
0.0882560 0.0196735 0.4689893
0.0880749 0.0173759 0.4719783
0.0882562 0.0204758 0.4688835
0.0880203 0.0174815 0.4727787
0.0882423 0.0212781 0.4689884
0.0879676 0.0177912 0.4735245
0.0882152 0.0220257 0.4692970
0.0879204 0.0182839 0.4741648
0.0881768 0.0226678 0.4697881
0.0878819 0.0189259 0.4746560
0.0881296 0.0231604 0.4704284
0.0880769 0.0234701 0.4711743
0.0878548 0.0196735 0.4749646
0.0878409 0.0204758 0.4750695
0.0880222 0.0235757 0.4719747
0.0878412 0.0212781 0.4749637
0.0879694 0.0234701 0.4727753
0.0879219 0.0231604 0.4735215
0.0878556 0.0220257 0.4746543
0.0878831 0.0226678 0.4741623
0.0877734 0.0204752 0.4749682
0.0877481 0.0212514 0.4748606
0.0877478 0.0204750 0.4749630
0.0878392 0.0204758 0.4750435
0.0881363 0.0212514 0.4690781
0.0881758 0.0204752 0.4689749
0.0881498 0.0204750 0.4689765
0.0882511 0.0204758 0.4689091
0.0877968 0.0204754 0.4749798
0.0877971 0.0212553 0.4748769
0.0878164 0.0204756 0.4749970
0.0878167 0.0212596 0.4748936
0.0878309 0.0204757 0.4750187
0.0878311 0.0212651 0.4749146
0.0878395 0.0212714 0.4749385
0.0878111 0.0219820 0.4745761
0.0877620 0.0219749 0.4745612
0.0878307 0.0219901 0.4745912
0.0878453 0.0220006 0.4746102
0.0878538 0.0220128 0.4746317
0.0878378 0.0226061 0.4740979
0.0877887 0.0225962 0.4740852
0.0878576 0.0226175 0.4741105
0.0878724 0.0226323 0.4741262
0.0878811 0.0226494 0.4741439
0.0878756 0.0230850 0.4734750
0.0878262 0.0230729 0.4734649
0.0878956 0.0230989 0.4734843
0.0879106 0.0231170 0.4734957
0.0879196 0.0231379 0.4735084
0.0879217 0.0233860 0.4727497
0.0878722 0.0233726 0.4727429
0.0879420 0.0234015 0.4727551
0.0879573 0.0234217 0.4727615
0.0879666 0.0234450 0.4727684
0.0879731 0.0234887 0.4719714
0.0879233 0.0234748 0.4719681
0.0879936 0.0235047 0.4719728
0.0880093 0.0235256 0.4719738
0.0880190 0.0235498 0.4719745
0.0880262 0.0233860 0.4711933
0.0879762 0.0233726 0.4711934
0.0880470 0.0234015 0.4711906
0.0880630 0.0234217 0.4711863
0.0880732 0.0234450 0.4711807
0.0880774 0.0230850 0.4704683
0.0880272 0.0230729 0.4704717
0.0880985 0.0230989 0.4704618
0.0881149 0.0231170 0.4704525
0.0881255 0.0231379 0.4704411
0.0881233 0.0226061 0.4698459
0.0880729 0.0225962 0.4698520
0.0881446 0.0226175 0.4698361
0.0881614 0.0226323 0.4698225
0.0881723 0.0226494 0.4698062
0.0881607 0.0219820 0.4693685
0.0881101 0.0219749 0.4693767
0.0881822 0.0219901 0.4693561
0.0881992 0.0220006 0.4693393
0.0882105 0.0220128 0.4693191
0.0881870 0.0212553 0.4690685
0.0882006 0.0204754 0.4689665
0.0882223 0.0204756 0.4689520
0.0882087 0.0212596 0.4690546
0.0882395 0.0204757 0.4689324
0.0882259 0.0212651 0.4690357
0.0882373 0.0212714 0.4690131
0.0881756 0.0196979 0.4690774
0.0881495 0.0196985 0.4690790
0.0882003 0.0196955 0.4690694
0.0882220 0.0196915 0.4690555
0.0882393 0.0196863 0.4690366
0.0882509 0.0196802 0.4690140
0.0881616 0.0189735 0.4693772
0.0881356 0.0189750 0.4693784
0.0881863 0.0189687 0.4693702
0.0882080 0.0189610 0.4693578
0.0882251 0.0189507 0.4693410
0.0882366 0.0189388 0.4693209
0.0881349 0.0183515 0.4698538
0.0881089 0.0183537 0.4698544
0.0881595 0.0183447 0.4698484
0.0881811 0.0183336 0.4698385
0.0881980 0.0183191 0.4698250
0.0882093 0.0183021 0.4698087
0.0880973 0.0178742 0.4704747
0.0880714 0.0178770 0.4704746
0.0881218 0.0178658 0.4704713
0.0881431 0.0178522 0.4704648
0.0881598 0.0178344 0.4704555
0.0881708 0.0178136 0.4704442
0.0880514 0.0175742 0.4711976
0.0880254 0.0175773 0.4711967
0.0880757 0.0175648 0.4711966
0.0880967 0.0175496 0.4711939
0.0881131 0.0175297 0.4711896
0.0881237 0.0175065 0.4711841
0.0880002 0.0174719 0.4719732
0.0879743 0.0174751 0.4719715
0.0880243 0.0174621 0.4719748
0.0880451 0.0174464 0.4719763
0.0880611 0.0174258 0.4719773
0.0880713 0.0174018 0.4719780
0.0879472 0.0175742 0.4727488
0.0879214 0.0175773 0.4727462
0.0879712 0.0175648 0.4727530
0.0879917 0.0175496 0.4727585
0.0880074 0.0175297 0.4727649
0.0880171 0.0175065 0.4727718
0.0878961 0.0178742 0.4734713
0.0878704 0.0178770 0.4734679
0.0879199 0.0178658 0.4734779
0.0879402 0.0178522 0.4734873
0.0879555 0.0178344 0.4734986
0.0879648 0.0178136 0.4735114
0.0878504 0.0183515 0.4740917
0.0878247 0.0183537 0.4740876
0.0878741 0.0183447 0.4741004
0.0878941 0.0183336 0.4741130
0.0879091 0.0183191 0.4741287
0.0879180 0.0183021 0.4741464
0.0878131 0.0189735 0.4745676
0.0877875 0.0189750 0.4745629
0.0878367 0.0189687 0.4745778
0.0878565 0.0189610 0.4745929
0.0878712 0.0189507 0.4746119
0.0878799 0.0189388 0.4746334
0.0877869 0.0196979 0.4748665
0.0877613 0.0196985 0.4748615
0.0878103 0.0196955 0.4748778
0.0878300 0.0196915 0.4748945
0.0878446 0.0196863 0.4749155
0.0878530 0.0196802 0.4749394
3 5 1 0
3 1 61 2
3 3 0 2
3 6 1 5
3 5 0 236
3 67 61 1
3 61 63 2
3 0 3 230
3 3 2 4
3 6 67 1
3 9 6 5
3 0 230 236
3 5 236 242
3 67 64 61
3 61 62 63
3 2 63 4
3 3 224 230
3 7 3 4
3 60 67 6
3 10 6 9
3 9 5 242
3 230 235 236
3 236 241 242
3 68 64 67
3 64 62 61
3 65 63 62
3 63 66 4
3 3 7 224
3 224 229 230
3 7 4 8
3 60 68 67
3 10 60 6
3 13 10 9
3 9 242 248
3 229 235 230
3 235 241 236
3 241 247 242
3 64 68 101
3 62 64 99
3 65 66 63
3 65 62 98
3 4 66 8
3 7 218 224
3 223 229 224
3 11 7 8
3 71 68 60
3 59 60 10
3 14 10 13
3 13 9 248
3 242 247 248
3 231 235 229
3 237 241 235
3 241 249 247
3 68 71 101
3 100 64 101
3 99 64 100
3 98 62 99
3 69 66 65
3 97 65 98
3 66 70 8
3 7 11 218
3 218 223 224
3 223 231 229
3 11 8 12
3 59 71 60
3 14 59 10
3 17 14 13
3 13 248 254
3 247 253 248
3 231 237 235
3 237 243 241
3 243 249 241
3 249 255 247
3 101 71 102
3 123 100 101
3 120 99 100
3 122 98 99
3 69 70 66
3 69 65 97
3 124 97 98
3 8 70 12
3 11 212 218
3 217 223 218
3 225 231 223
3 15 11 12
3 74 71 59
3 58 59 14
3 18 14 17
3 17 13 254
3 248 253 254
3 247 255 253
3 231 238 237
3 237 244 243
3 243 250 249
3 249 256 255
3 71 74 102
3 125 101 102
3 123 120 100
3 125 123 101
3 120 121 99
3 124 98 122
3 122 99 121
3 72 70 69
3 96 69 97
3 126 97 124
3 70 73 12
3 11 15 212
3 212 217 218
3 217 225 223
3 225 232 231
3 15 12 16
3 58 74 59
3 18 58 14
3 21 18 17
3 17 254 260
3 253 259 254
3 255 261 253
3 232 238 231
3 238 244 237
3 244 250 243
3 250 256 249
3 256 262 255
3 102 74 103
3 127 125 102
3 123 240 120
3 125 246 123
3 120 234 121
3 122 222 124
3 121 228 122
3 72 73 70
3 72 69 96
3 126 96 97
3 124 216 126
3 12 73 16
3 15 150 212
3 211 217 212
3 219 225 217
3 226 232 225
3 19 15 16
3 77 74 58
3 57 58 18
3 24 18 21
3 21 17 260
3 254 259 260
3 253 261 259
3 255 262 261
3 232 239 238
3 238 245 244
3 244 251 250
3 250 257 256
3 256 263 262
3 74 77 103
3 127 102 103
3 127 252 125
3 123 246 240
3 120 240 234
3 125 252 246
3 121 234 228
3 122 228 222
3 124 222 216
3 75 73 72
3 75 72 96
3 128 96 126
3 126 216 151
3 73 76 16
3 15 148 150
3 150 211 212
3 211 219 217
3 219 226 225
3 226 233 232
3 15 19 148
3 19 16 20
3 57 77 58
3 24 57 18
3 25 24 21
3 21 260 266
3 259 265 260
3 261 265 259
3 262 268 261
3 233 239 232
3 239 245 238
3 245 251 244
3 251 257 250
3 257 263 256
3 263 269 262
3 103 77 104
3 104 127 103
3 127 258 252
3 240 246 245
3 234 240 233
3 246 252 251
3 228 234 227
3 222 228 221
3 216 222 215
3 75 76 73
3 119 75 96
3 128 119 96
3 128 126 151
3 151 216 215
3 16 76 20
3 148 149 150
3 149 211 150
3 213 219 211
3 220 226 219
3 227 233 226
3 19 200 148
3 22 19 20
3 80 77 57
3 56 57 24
3 28 24 25
3 25 21 266
3 260 265 266
3 261 267 265
3 262 269 268
3 261 268 267
3 233 240 239
3 240 245 239
3 246 251 245
3 251 258 257
3 257 264 263
3 263 270 269
3 77 80 104
3 129 127 104
3 129 258 127
3 252 258 251
3 227 234 233
3 221 228 227
3 215 222 221
3 78 76 75
3 118 75 119
3 118 119 128
3 151 210 128
3 151 215 208
3 76 79 20
3 148 204 149
3 205 211 149
3 213 220 219
3 205 213 211
3 220 227 226
3 19 22 200
3 200 204 148
3 23 22 20
3 56 80 57
3 28 56 24
3 28 25 29
3 25 266 272
3 265 271 266
3 267 273 265
3 269 274 268
3 268 274 267
3 258 264 257
3 264 270 263
3 270 276 269
3 104 80 105
3 131 129 104
3 129 264 258
3 221 227 220
3 215 221 214
3 79 76 78
3 78 75 118
3 130 118 128
3 209 210 151
3 128 210 130
3 208 215 214
3 208 209 151
3 20 79 23
3 149 204 205
3 214 220 213
3 206 213 205
3 22 195 200
3 199 204 200
3 26 22 23
3 83 80 56
3 55 56 28
3 29 25 272
3 32 28 29
3 266 271 272
3 265 273 271
3 267 274 273
3 269 275 274
3 131 270 264
3 133 276 270
3 269 276 275
3 80 83 105
3 131 104 105
3 131 264 129
3 214 221 220
3 81 79 78
3 117 78 118
3 117 118 130
3 202 210 209
3 130 210 203
3 208 214 206
3 207 209 208
3 79 82 23
3 205 204 206
3 206 214 213
3 22 26 195
3 195 199 200
3 199 207 204
3 27 26 23
3 55 83 56
3 32 55 28
3 29 272 146
3 32 29 33
3 272 271 146
3 271 273 144
3 273 274 152
3 274 275 156
3 133 270 131
3 136 276 133
3 275 276 156
3 105 83 106
3 133 131 105
3 82 79 81
3 81 78 117
3 117 130 132
3 203 210 202
3 202 209 201
3 130 203 132
3 206 207 208
3 201 209 207
3 23 82 27
3 204 207 206
3 26 190 195
3 194 199 195
3 201 207 199
3 30 26 27
3 55 87 83
3 54 55 32
3 33 29 146
3 36 32 33
3 146 271 144
3 144 273 152
3 152 274 154
3 154 274 156
3 147 276 136
3 107 136 133
3 156 276 147
3 106 83 107
3 106 133 105
3 84 82 81
3 116 81 117
3 134 117 132
3 197 203 202
3 196 202 201
3 132 203 198
3 82 85 27
3 26 30 190
3 190 194 195
3 196 199 194
3 196 201 199
3 31 30 27
3 54 87 55
3 83 87 107
3 36 54 32
3 37 33 146
3 36 33 37
3 144 145 146
3 152 153 144
3 154 155 152
3 156 157 154
3 136 137 147
3 108 136 107
3 107 133 106
3 147 158 156
3 85 82 84
3 84 81 116
3 116 117 134
3 132 198 134
3 198 203 197
3 197 202 196
3 27 85 31
3 30 185 190
3 189 194 190
3 189 196 194
3 34 30 31
3 54 90 87
3 107 87 108
3 53 54 36
3 37 146 145
3 40 36 37
3 144 153 145
3 152 155 153
3 154 157 155
3 156 158 157
3 108 137 136
3 137 139 147
3 139 158 147
3 86 85 84
3 115 84 116
3 135 116 134
3 134 198 193
3 192 198 197
3 191 197 196
3 85 88 31
3 30 34 185
3 185 189 190
3 191 196 189
3 35 34 31
3 53 90 54
3 87 90 108
3 40 53 36
3 41 37 145
3 40 37 41
3 153 159 145
3 155 161 153
3 157 162 155
3 158 163 157
3 109 137 108
3 109 139 137
3 139 163 158
3 88 85 86
3 86 84 115
3 115 116 135
3 134 193 135
3 193 198 192
3 192 197 191
3 31 88 35
3 34 180 185
3 184 189 185
3 184 191 189
3 38 34 35
3 53 92 90
3 90 92 108
3 52 53 40
3 41 145 160
3 45 40 41
3 153 161 159
3 145 159 160
3 155 162 161
3 157 163 162
3 108 92 109
3 110 139 109
3 142 163 139
3 89 88 86
3 114 86 115
3 114 115 135
3 135 193 188
3 188 193 192
3 186 192 191
3 88 48 35
3 34 38 180
3 180 184 185
3 186 191 184
3 39 38 35
3 52 92 53
3 45 52 40
3 46 41 160
3 45 41 46
3 161 166 159
3 159 164 160
3 162 167 161
3 163 168 162
3 92 94 109
3 110 142 139
3 109 94 110
3 142 168 163
3 48 88 89
3 89 86 114
3 114 135 138
3 135 188 138
3 188 192 187
3 187 192 186
3 35 48 39
3 38 175 180
3 179 184 180
3 179 186 184
3 42 38 39
3 52 94 92
3 51 52 45
3 46 160 165
3 47 45 46
3 161 167 166
3 159 166 164
3 160 164 165
3 162 168 167
3 111 142 110
3 94 95 110
3 143 168 142
3 91 48 89
3 113 89 114
3 113 114 138
3 138 188 183
3 182 188 187
3 181 187 186
3 48 49 39
3 38 42 175
3 175 179 180
3 181 186 179
3 43 42 39
3 51 94 52
3 47 51 45
3 44 46 165
3 47 46 44
3 167 171 166
3 166 171 164
3 164 169 165
3 168 173 167
3 111 143 142
3 110 95 111
3 51 95 94
3 143 173 168
3 49 48 91
3 91 89 113
3 113 138 140
3 183 188 182
3 138 183 140
3 182 187 181
3 39 49 43
3 42 170 175
3 174 179 175
3 176 181 179
3 43 44 42
3 50 51 47
3 44 165 170
3 47 44 43
3 167 172 171
3 164 171 169
3 165 169 170
3 167 173 172
3 111 141 143
3 95 93 111
3 51 50 95
3 141 173 143
3 93 49 91
3 112 91 113
3 141 113 140
3 177 183 182
3 140 183 178
3 176 182 181
3 49 50 43
3 42 44 170
3 170 174 175
3 176 179 174
3 43 50 47
3 172 177 171
3 171 176 169
3 169 174 170
3 173 178 172
3 111 112 141
3 95 50 93
3 111 93 112
3 141 178 173
3 50 49 93
3 93 91 112
3 112 113 141
3 140 178 141
3 178 183 177
3 177 182 176
3 169 176 174
3 172 178 177
3 171 177 176
3 0 1 2
