ply
format ascii 1.0
comment made by tesseract
element vertex 120
property float x
property float y
property float z
element face 236
property list uchar int vertex_indices
end_header
0.2715785 -0.2254000 1.8897123
0.2716807 -0.2265000 1.8904886
0.2715785 -0.2265000 1.8897123
0.2716807 -0.2254000 1.8904886
0.2712788 -0.2254000 1.8889886
0.2712788 -0.2265000 1.8889886
0.2708020 -0.2254000 1.8883674
0.2708020 -0.2265000 1.8883674
0.2701807 -0.2254000 1.8878906
0.2701807 -0.2265000 1.8878906
0.2694572 -0.2254000 1.8875909
0.2694572 -0.2265000 1.8875909
0.2686807 -0.2254000 1.8874886
0.2686807 -0.2265000 1.8874886
0.2679042 -0.2254000 1.8875909
0.2679042 -0.2265000 1.8875909
0.2671807 -0.2254000 1.8878906
0.2671807 -0.2265000 1.8878906
0.2665594 -0.2254000 1.8883674
0.2665594 -0.2265000 1.8883674
0.2660826 -0.2254000 1.8889886
0.2660826 -0.2265000 1.8889886
0.2657829 -0.2254000 1.8897123
0.2657829 -0.2265000 1.8897123
0.2656807 -0.2265000 1.8904886
0.2656807 -0.2254000 1.8904886
0.2651645 -0.2265000 1.8869644
0.2662000 -0.2265000 1.8861699
0.2643699 -0.2265000 1.8880000
0.2674059 -0.2265000 1.8856704
0.2687000 -0.2265000 1.8855000
0.2638704 -0.2265000 1.8892059
0.2699941 -0.2265000 1.8856704
0.2637000 -0.2265000 1.8904999
0.2712000 -0.2265000 1.8861699
0.2638704 -0.2265000 1.8917941
0.2657829 -0.2265000 1.8912652
0.2722355 -0.2265000 1.8869644
0.2660826 -0.2265000 1.8919886
0.2643699 -0.2265000 1.8930000
0.2730301 -0.2265000 1.8880000
0.2665594 -0.2265000 1.8926100
0.2651645 -0.2265000 1.8940356
0.2735296 -0.2265000 1.8892059
0.2671807 -0.2265000 1.8930868
0.2662000 -0.2265000 1.8948301
0.2679042 -0.2265000 1.8933865
0.2737000 -0.2265000 1.8904999
0.2715785 -0.2265000 1.8912652
0.2674059 -0.2265000 1.8953296
0.2686807 -0.2265000 1.8934886
0.2735296 -0.2265000 1.8917941
0.2712788 -0.2265000 1.8919886
0.2687000 -0.2265000 1.8954999
0.2694572 -0.2265000 1.8933865
0.2730301 -0.2265000 1.8930000
0.2699941 -0.2265000 1.8953296
0.2701807 -0.2265000 1.8930868
0.2722355 -0.2265000 1.8940356
0.2708020 -0.2265000 1.8926100
0.2712000 -0.2265000 1.8948301
0.2637000 -0.2205926 1.8904999
0.2638704 -0.2205926 1.8917941
0.2643699 -0.2205926 1.8930000
0.2651645 -0.2205926 1.8940356
0.2662000 -0.2205926 1.8948301
0.2674059 -0.2205926 1.8953296
0.2687000 -0.2205926 1.8954999
0.2699941 -0.2205926 1.8953296
0.2712000 -0.2205926 1.8948301
0.2722355 -0.2205926 1.8940356
0.2730301 -0.2205926 1.8930000
0.2735296 -0.2205926 1.8917941
0.2737000 -0.2205926 1.8904999
0.2662000 -0.2205926 1.8861699
0.2651645 -0.2205926 1.8869644
0.2643699 -0.2205926 1.8880000
0.2638704 -0.2205926 1.8892059
0.2687000 -0.2205926 1.8855000
0.2699941 -0.2205926 1.8856704
0.2674059 -0.2205926 1.8856704
0.2712000 -0.2205926 1.8861699
0.2722355 -0.2205926 1.8869644
0.2730301 -0.2205926 1.8880000
0.2735296 -0.2205926 1.8892059
0.2657829 -0.2254000 1.8912652
0.2660826 -0.2254000 1.8919886
0.2665594 -0.2254000 1.8926100
0.2671807 -0.2254000 1.8930868
0.2679042 -0.2254000 1.8933865
0.2686807 -0.2254000 1.8934886
0.2694572 -0.2254000 1.8933865
0.2701807 -0.2254000 1.8930868
0.2708020 -0.2254000 1.8926100
0.2712788 -0.2254000 1.8919886
0.2715785 -0.2254000 1.8912652
0.2706807 -0.2244000 1.8904886
0.2706125 -0.2244000 1.8910064
0.2704127 -0.2244000 1.8914887
0.2700949 -0.2244000 1.8919029
0.2696807 -0.2244000 1.8922207
0.2691983 -0.2244000 1.8924205
0.2686807 -0.2244000 1.8924886
0.2681631 -0.2244000 1.8924205
0.2676807 -0.2244000 1.8922207
0.2672665 -0.2244000 1.8919029
0.2669486 -0.2244000 1.8914887
0.2667488 -0.2244000 1.8910064
0.2666807 -0.2244000 1.8904886
0.2667488 -0.2244000 1.8899710
0.2669486 -0.2244000 1.8894887
0.2672665 -0.2244000 1.8890744
0.2676807 -0.2244000 1.8887566
0.2681631 -0.2244000 1.8885568
0.2686807 -0.2244000 1.8884887
0.2691983 -0.2244000 1.8885568
0.2696807 -0.2244000 1.8887566
0.2700949 -0.2244000 1.8890744
0.2704127 -0.2244000 1.8894887
0.2706125 -0.2244000 1.8899710
3 0 3 1
3 2 1 43
3 4 0 2
3 3 0 96
3 3 95 1
3 1 47 43
3 2 43 40
3 0 4 118
3 4 2 5
3 0 119 96
3 95 3 96
3 95 48 1
3 48 47 1
3 47 84 43
3 43 83 40
3 5 2 40
3 4 117 118
3 0 118 119
3 6 4 5
3 117 96 119
3 95 96 97
3 95 52 48
3 48 51 47
3 73 84 47
3 84 83 43
3 40 83 37
3 5 40 37
3 4 6 117
3 117 119 118
3 6 5 7
3 117 97 96
3 94 95 97
3 95 94 52
3 52 51 48
3 51 72 47
3 84 73 82
3 72 73 47
3 83 84 82
3 83 82 37
3 7 5 37
3 6 116 117
3 8 6 7
3 117 101 97
3 94 97 98
3 94 93 52
3 52 55 51
3 55 72 51
3 73 70 82
3 72 70 73
3 82 81 37
3 34 7 37
3 6 8 116
3 117 116 115
3 8 7 9
3 117 111 101
3 97 101 99
3 97 99 98
3 93 94 98
3 93 59 52
3 52 58 55
3 71 72 55
3 82 70 79
3 71 70 72
3 81 82 79
3 37 81 34
3 9 7 34
3 8 115 116
3 117 115 114
3 10 8 9
3 117 113 111
3 111 102 101
3 99 101 100
3 93 98 99
3 93 92 59
3 59 58 52
3 58 71 55
3 79 70 65
3 70 71 58
3 81 79 34
3 32 9 34
3 8 10 115
3 10 114 115
3 117 114 113
3 10 9 11
3 113 112 111
3 111 103 102
3 90 101 102
3 91 100 101
3 92 99 100
3 92 93 99
3 92 57 59
3 59 60 58
3 65 70 66
3 79 65 61
3 60 70 58
3 34 79 32
3 11 9 32
3 10 12 114
3 12 113 114
3 12 10 11
3 14 112 113
3 16 111 112
3 111 104 103
3 89 102 103
3 90 91 101
3 89 90 102
3 91 92 100
3 92 91 57
3 57 60 59
3 66 70 67
3 65 66 45
3 61 65 63
3 74 79 61
3 69 70 60
3 79 78 32
3 30 11 32
3 12 14 113
3 12 11 13
3 14 16 112
3 16 18 111
3 111 105 104
3 88 103 104
3 88 89 103
3 91 90 50
3 90 89 46
3 91 54 57
3 56 60 57
3 67 70 68
3 66 67 49
3 45 66 49
3 42 65 45
3 63 65 64
3 61 63 62
3 80 79 74
3 74 61 75
3 68 70 69
3 56 69 60
3 78 79 80
3 32 78 30
3 13 11 30
3 14 12 13
3 16 14 15
3 18 16 17
3 18 110 111
3 111 106 105
3 88 104 105
3 89 88 44
3 90 46 50
3 91 50 54
3 89 44 46
3 54 56 57
3 67 68 53
3 49 67 53
3 45 49 46
3 64 65 42
3 42 45 44
3 63 64 42
3 62 63 35
3 61 62 33
3 80 74 29
3 75 61 76
3 74 75 26
3 68 69 56
3 78 80 30
3 29 13 30
3 14 13 15
3 16 15 17
3 18 17 19
3 18 20 110
3 111 110 109
3 111 107 106
3 86 105 106
3 87 88 105
3 88 41 44
3 46 49 50
3 50 53 54
3 44 45 46
3 53 56 54
3 53 68 56
3 49 53 50
3 42 44 41
3 39 63 42
3 35 63 39
3 33 62 35
3 31 61 33
3 29 74 27
3 30 80 29
3 76 61 77
3 75 76 26
3 27 74 26
3 15 13 29
3 17 15 27
3 26 19 17
3 20 18 19
3 20 109 110
3 111 109 108
3 111 108 107
3 85 106 107
3 86 87 105
3 85 86 106
3 88 87 41
3 39 42 41
3 35 39 38
3 35 36 33
3 77 61 31
3 33 24 31
3 27 15 29
3 76 77 28
3 26 76 28
3 26 17 27
3 28 19 26
3 20 19 21
3 20 22 109
3 22 108 109
3 85 107 108
3 87 86 38
3 86 85 36
3 87 38 41
3 39 41 38
3 35 38 36
3 33 36 24
3 28 77 31
3 31 24 23
3 28 21 19
3 22 20 21
3 22 25 108
3 25 85 108
3 86 36 38
3 85 24 36
3 31 23 28
3 22 23 24
3 28 23 21
3 22 21 23
3 25 22 24
3 85 25 24
3 0 1 2
