ply
format ascii 1.0
comment made by tesseract
element vertex 252
property float x
property float y
property float z
element face 504
property list uchar int vertex_indices
end_header
0.0203952 -0.0697067 0.4435438
0.0205422 -0.0695721 0.4427855
0.0203918 -0.0697318 0.4435373
0.0203213 -0.0696118 0.4435623
0.0204767 -0.0694467 0.4427854
0.0203454 -0.0696219 0.4435614
0.0261268 -0.0711213 0.4427855
0.0261834 -0.0713124 0.4435438
0.0261734 -0.0713357 0.4435373
0.0262475 -0.0710476 0.4427854
0.0262957 -0.0712691 0.4435623
0.0262699 -0.0712653 0.4435614
0.0203918 -0.0696816 0.4435498
0.0205458 -0.0695468 0.4427911
0.0203819 -0.0696580 0.4435550
0.0205337 -0.0694967 0.4427958
0.0208251 -0.0693494 0.4420615
0.0205189 -0.0694752 0.4427946
0.0203660 -0.0696376 0.4435589
0.0208833 -0.0694525 0.4420897
0.0208793 -0.0694779 0.4420849
0.0208742 -0.0694016 0.4420884
0.0208617 -0.0693795 0.4420824
0.0213427 -0.0693264 0.4414398
0.0213848 -0.0694303 0.4414875
0.0213802 -0.0694557 0.4414833
0.0213800 -0.0693792 0.4414810
0.0219943 -0.0693794 0.4409629
0.0213709 -0.0693569 0.4414707
0.0220161 -0.0694816 0.4410253
0.0220108 -0.0695069 0.4410217
0.0220167 -0.0694309 0.4410148
0.0227355 -0.0695046 0.4406630
0.0220120 -0.0694090 0.4410014
0.0227341 -0.0696029 0.4407348
0.0227281 -0.0696281 0.4407315
0.0227409 -0.0695533 0.4407218
0.0235157 -0.0696936 0.4405607
0.0227412 -0.0695322 0.4407064
0.0234900 -0.0697860 0.4406357
0.0234831 -0.0698110 0.4406326
0.0235033 -0.0697380 0.4406219
0.0242817 -0.0699335 0.4406630
0.0235088 -0.0697182 0.4406058
0.0242322 -0.0700185 0.4407348
0.0242245 -0.0700432 0.4407315
0.0242520 -0.0699724 0.4407218
0.0242626 -0.0699542 0.4407064
0.0249102 -0.0702844 0.4410253
0.0249016 -0.0703088 0.4410217
0.0249358 -0.0702406 0.4410148
0.0255672 -0.0704983 0.4414398
0.0249510 -0.0702243 0.4410014
0.0249815 -0.0702080 0.4409629
0.0254777 -0.0705657 0.4414875
0.0254685 -0.0705897 0.4414833
0.0255081 -0.0705243 0.4414810
0.0259991 -0.0707847 0.4420615
0.0255273 -0.0705099 0.4414707
0.0258960 -0.0708431 0.4420897
0.0258864 -0.0708669 0.4420849
0.0259301 -0.0708041 0.4420884
0.0259522 -0.0707916 0.4420824
0.0261368 -0.0710978 0.4427911
0.0261993 -0.0712926 0.4435498
0.0261729 -0.0710610 0.4427958
0.0262200 -0.0712775 0.4435550
0.0262440 -0.0712682 0.4435589
0.0261966 -0.0710503 0.4427946
0.0260231 -0.0714954 0.4442891
0.0261403 -0.0714341 0.4443392
0.0203695 -0.0698333 0.4443392
0.0260329 -0.0714723 0.4442964
0.0260681 -0.0714388 0.4443141
0.0260911 -0.0714306 0.4443233
0.0256953 -0.0715666 0.4449978
0.0256859 -0.0715896 0.4449897
0.0257277 -0.0715339 0.4450215
0.0257919 -0.0715315 0.4450631
0.0257484 -0.0715264 0.4450355
0.0251938 -0.0715889 0.4456000
0.0251850 -0.0716118 0.4455912
0.0252218 -0.0715564 0.4456290
0.0252391 -0.0715490 0.4456471
0.0252743 -0.0715544 0.4456847
0.0245625 -0.0715376 0.4460622
0.0245544 -0.0715606 0.4460528
0.0245851 -0.0715046 0.4460951
0.0246227 -0.0715015 0.4461617
0.0245980 -0.0714969 0.4461164
0.0238445 -0.0714162 0.4463527
0.0238372 -0.0714394 0.4463430
0.0238609 -0.0713822 0.4463881
0.0238815 -0.0713762 0.4464616
0.0238688 -0.0713737 0.4464115
0.0230886 -0.0712331 0.4464518
0.0230821 -0.0712564 0.4464420
0.0230985 -0.0711975 0.4464881
0.0231012 -0.0711877 0.4465121
0.0231013 -0.0711872 0.4465638
0.0223464 -0.0710007 0.4463527
0.0223408 -0.0710243 0.4463430
0.0223499 -0.0709631 0.4463881
0.0223475 -0.0709516 0.4464115
0.0223352 -0.0709473 0.4464616
0.0216684 -0.0707348 0.4460622
0.0216636 -0.0707586 0.4460528
0.0216661 -0.0706949 0.4460951
0.0216590 -0.0706816 0.4461164
0.0216355 -0.0706729 0.4461617
0.0211009 -0.0704535 0.4456000
0.0210967 -0.0704777 0.4455912
0.0210937 -0.0704112 0.4456290
0.0210497 -0.0703825 0.4456847
0.0210827 -0.0703960 0.4456471
0.0206826 -0.0701761 0.4449978
0.0206788 -0.0702006 0.4449897
0.0206717 -0.0701314 0.4450215
0.0206179 -0.0700962 0.4450631
0.0206579 -0.0701142 0.4450355
0.0204419 -0.0699214 0.4442964
0.0204384 -0.0699462 0.4442891
0.0204289 -0.0698745 0.4443141
0.0204134 -0.0698556 0.4443233
0.0253377 -0.0715904 0.4457532
0.0246651 -0.0715357 0.4462456
0.0258720 -0.0715667 0.4451115
0.0239000 -0.0714064 0.4465551
0.0262316 -0.0714662 0.4443642
0.0230946 -0.0712113 0.4466607
0.0263920 -0.0712958 0.4435623
0.0223038 -0.0709637 0.4465551
0.0263423 -0.0710671 0.4427603
0.0215815 -0.0706803 0.4462456
0.0260859 -0.0707958 0.4420131
0.0209769 -0.0703807 0.4457532
0.0256401 -0.0705002 0.4413714
0.0205311 -0.0700851 0.4451115
0.0250355 -0.0702005 0.4408790
0.0202747 -0.0698137 0.4443642
0.0243131 -0.0699172 0.4405695
0.0202249 -0.0695850 0.4435623
0.0235223 -0.0696695 0.4404639
0.0203854 -0.0694147 0.4427603
0.0227170 -0.0694744 0.4405695
0.0207450 -0.0693142 0.4420131
0.0219519 -0.0693451 0.4408790
0.0212793 -0.0692905 0.4413714
0.0260815 -0.0724154 0.4432623
0.0259325 -0.0725797 0.4440294
0.0256009 -0.0726804 0.4447487
0.0251071 -0.0727114 0.4453755
0.0244821 -0.0726707 0.4458707
0.0237646 -0.0725608 0.4462035
0.0232559 -0.0724521 0.4463246
0.0227400 -0.0723186 0.4463603
0.0222312 -0.0721639 0.4463098
0.0215645 -0.0719228 0.4461002
0.0209743 -0.0716623 0.4457390
0.0204921 -0.0713964 0.4452457
0.0201436 -0.0711392 0.4446465
0.0199476 -0.0709044 0.4439734
0.0199144 -0.0707047 0.4432623
0.0238672 -0.0725874 0.4461963
0.0235049 -0.0738936 0.4458464
0.0217662 -0.0734436 0.4459670
0.0221286 -0.0721374 0.4463169
0.0259846 -0.0729004 0.4451725
0.0253644 -0.0728674 0.4456914
0.0246422 -0.0727606 0.4460406
0.0264604 -0.0728574 0.4445193
0.0267596 -0.0727413 0.4437764
0.0268616 -0.0725600 0.4429943
0.0260482 -0.0722157 0.4425512
0.0267596 -0.0723260 0.4422264
0.0258522 -0.0719809 0.4418781
0.0264604 -0.0720550 0.4415250
0.0259846 -0.0717657 0.4409378
0.0255037 -0.0717237 0.4412789
0.0253644 -0.0714777 0.4405050
0.0250216 -0.0714578 0.4407855
0.0246422 -0.0712106 0.4402559
0.0244313 -0.0711973 0.4404244
0.0238672 -0.0709827 0.4402076
0.0237646 -0.0709561 0.4402148
0.0200633 -0.0705404 0.4424952
0.0203950 -0.0704397 0.4417759
0.0208887 -0.0704087 0.4411491
0.0215138 -0.0704494 0.4406539
0.0222312 -0.0705593 0.4403211
0.0227400 -0.0706679 0.4402000
0.0232559 -0.0708015 0.4401642
0.0221286 -0.0705327 0.4403282
0.0217662 -0.0718389 0.4399782
0.0235049 -0.0722889 0.4398576
0.0213536 -0.0719095 0.4462686
0.0206314 -0.0716424 0.4460196
0.0200112 -0.0713544 0.4455867
0.0195354 -0.0710650 0.4449996
0.0192362 -0.0707941 0.4442981
0.0191342 -0.0705600 0.4435302
0.0192362 -0.0703788 0.4427481
0.0213536 -0.0703595 0.4404840
0.0195354 -0.0702627 0.4420052
0.0206314 -0.0702527 0.4408332
0.0200112 -0.0702197 0.4413521
0.0209912 -0.0732157 0.4459186
0.0202690 -0.0729486 0.4456696
0.0196489 -0.0726606 0.4452367
0.0191730 -0.0723713 0.4446496
0.0188739 -0.0721003 0.4439481
0.0187719 -0.0718663 0.4431802
0.0188739 -0.0716850 0.4423982
0.0191730 -0.0715689 0.4416552
0.0196489 -0.0715259 0.4410021
0.0202690 -0.0715589 0.4404832
0.0209912 -0.0716657 0.4401340
0.0248214 -0.0729223 0.4408583
0.0256222 -0.0730719 0.4405878
0.0250021 -0.0727839 0.4401550
0.0242546 -0.0726413 0.4403967
0.0242799 -0.0725168 0.4399059
0.0252393 -0.0731994 0.4414599
0.0260981 -0.0733613 0.4411750
0.0235774 -0.0723757 0.4401065
0.0254798 -0.0734538 0.4421605
0.0263972 -0.0736322 0.4418764
0.0264993 -0.0738663 0.4426443
0.0228360 -0.0721436 0.4400075
0.0255264 -0.0736682 0.4429123
0.0263972 -0.0740475 0.4434264
0.0220810 -0.0719606 0.4401065
0.0253760 -0.0738279 0.4436641
0.0260981 -0.0741636 0.4441693
0.0213638 -0.0718394 0.4403967
0.0250389 -0.0739221 0.4443647
0.0256222 -0.0742066 0.4448225
0.0207332 -0.0717882 0.4408583
0.0250021 -0.0741736 0.4453414
0.0245379 -0.0739443 0.4449663
0.0202323 -0.0718104 0.4414599
0.0242799 -0.0740668 0.4456906
0.0239074 -0.0738931 0.4454279
0.0198951 -0.0719046 0.4421605
0.0231901 -0.0737719 0.4457181
0.0197447 -0.0720643 0.4429123
0.0224351 -0.0735890 0.4458170
0.0216937 -0.0733568 0.4457181
0.0197913 -0.0722787 0.4436641
0.0210165 -0.0730912 0.4454279
0.0204497 -0.0728102 0.4449663
0.0200318 -0.0725331 0.4443647
3 0 13 1
3 245 2 1
3 2 120 0
3 12 13 0
3 13 19 1
3 245 121 2
3 243 245 1
3 121 120 2
3 0 120 12
3 12 15 13
3 13 21 19
3 1 19 20
3 245 248 121
3 212 245 243
3 240 243 1
3 116 120 121
3 120 122 12
3 14 15 12
3 15 21 13
3 21 26 19
3 19 24 20
3 240 1 20
3 211 248 245
3 248 251 121
3 211 245 212
3 212 243 213
3 213 243 240
3 115 120 116
3 251 116 121
3 115 122 120
3 12 122 14
3 14 17 15
3 15 22 21
3 21 28 26
3 19 26 24
3 20 24 25
3 237 240 20
3 210 248 211
3 209 251 248
3 211 212 201
3 212 213 203
3 213 240 214
3 111 115 116
3 251 250 116
3 117 122 115
3 122 123 14
3 18 17 14
3 17 22 15
3 22 28 21
3 28 33 26
3 26 31 24
3 24 29 25
3 237 20 25
3 240 237 215
3 209 248 210
3 210 211 200
3 208 251 209
3 201 212 203
3 200 211 201
3 203 213 205
3 214 240 215
3 213 214 205
3 110 115 111
3 250 111 116
3 208 250 251
3 117 123 122
3 112 117 115
3 14 123 18
3 5 17 18
3 16 22 17
3 23 28 22
3 27 33 28
3 26 33 31
3 24 31 29
3 25 29 30
3 234 237 25
3 215 237 216
3 209 210 199
3 199 210 200
3 208 209 198
3 203 185 201
3 201 162 200
3 205 186 203
3 214 215 204
3 205 214 204
3 112 115 110
3 106 110 111
3 250 249 111
3 208 207 250
3 119 123 117
3 112 119 117
3 18 123 5
3 4 17 5
3 23 22 16
3 16 17 4
3 27 28 23
3 32 33 27
3 33 38 31
3 31 36 29
3 29 34 30
3 234 25 30
3 237 234 216
3 215 216 202
3 198 209 199
3 200 161 199
3 197 208 198
3 203 186 185
3 201 185 162
3 200 162 161
3 205 187 186
3 204 215 202
3 205 204 187
3 105 112 110
3 105 110 106
3 249 106 111
3 207 249 250
3 207 208 197
3 118 123 119
3 114 119 112
3 5 123 71
3 3 4 5
3 147 23 16
3 145 16 4
3 147 27 23
3 32 38 33
3 146 32 27
3 31 38 36
3 29 36 34
3 30 34 35
3 231 234 30
3 216 234 193
3 202 216 192
3 199 160 198
3 199 161 160
3 198 160 197
3 185 186 143
3 162 185 141
3 161 162 141
3 186 187 145
3 204 202 187
3 107 112 105
3 101 105 106
3 249 247 106
3 207 206 249
3 196 207 197
3 71 123 118
3 118 119 113
3 113 119 114
3 107 114 112
3 71 3 5
3 143 4 3
3 147 16 145
3 145 4 143
3 147 146 27
3 37 38 32
3 146 144 32
3 38 43 36
3 36 41 34
3 34 39 35
3 231 30 35
3 234 231 193
3 216 193 192
3 202 192 188
3 160 161 139
3 160 159 197
3 143 186 145
3 141 185 143
3 139 161 141
3 145 187 147
3 202 188 187
3 100 107 105
3 100 105 101
3 247 101 106
3 206 247 249
3 206 207 196
3 197 159 196
3 139 71 118
3 137 118 113
3 113 114 109
3 108 114 107
3 141 3 71
3 143 3 141
3 147 188 146
3 37 43 38
3 144 37 32
3 146 189 144
3 36 43 41
3 34 41 39
3 35 39 40
3 228 231 35
3 193 231 228
3 192 193 189
3 188 192 189
3 137 160 139
3 159 160 137
3 141 71 139
3 187 188 147
3 102 107 100
3 96 100 101
3 247 246 101
3 206 165 247
3 195 206 196
3 159 158 196
3 139 118 137
3 137 113 135
3 109 114 108
3 113 109 133
3 103 108 107
3 188 189 146
3 42 43 37
3 144 142 37
3 189 190 144
3 43 47 41
3 41 46 39
3 39 44 40
3 228 35 40
3 193 228 194
3 193 194 189
3 135 159 137
3 103 107 102
3 95 102 100
3 95 100 96
3 246 96 101
3 165 246 247
3 165 206 195
3 196 158 195
3 158 159 135
3 113 133 135
3 109 108 104
3 109 104 133
3 104 108 103
3 42 47 43
3 142 42 37
3 144 190 142
3 189 191 190
3 41 47 46
3 39 46 44
3 40 44 45
3 224 228 40
3 228 224 194
3 189 194 184
3 97 103 102
3 97 102 95
3 91 95 96
3 246 244 96
3 165 164 246
3 166 165 195
3 158 157 195
3 133 158 135
3 133 104 131
3 104 103 99
3 42 52 47
3 142 140 42
3 190 191 142
3 189 184 191
3 47 52 46
3 46 50 44
3 44 48 45
3 224 40 45
3 224 221 194
3 184 194 183
3 98 103 97
3 90 97 95
3 90 95 91
3 244 91 96
3 246 164 244
3 164 165 153
3 156 165 166
3 195 157 166
3 157 158 133
3 104 129 131
3 131 157 133
3 99 103 98
3 104 99 129
3 53 52 42
3 142 184 140
3 140 138 42
3 191 184 142
3 46 52 50
3 44 50 48
3 45 48 49
3 220 224 45
3 224 220 221
3 194 221 183
3 184 183 182
3 92 98 97
3 92 97 90
3 86 90 91
3 244 242 91
3 244 164 242
3 153 165 156
3 163 164 153
3 157 156 166
3 129 156 131
3 156 157 131
3 99 98 93
3 99 127 129
3 51 52 53
3 42 138 53
3 184 182 140
3 140 182 138
3 52 56 50
3 50 56 48
3 48 54 49
3 220 45 49
3 220 219 221
3 183 221 181
3 183 181 182
3 94 98 92
3 85 92 90
3 85 90 86
3 242 86 91
3 164 241 242
3 156 154 153
3 169 164 163
3 153 152 163
3 155 156 129
3 93 98 94
3 99 93 127
3 127 154 129
3 51 58 52
3 53 136 51
3 138 136 53
3 182 180 138
3 52 58 56
3 48 56 54
3 49 54 55
3 217 220 49
3 220 217 219
3 221 219 181
3 182 181 180
3 87 94 92
3 87 92 85
3 81 85 86
3 242 239 86
3 241 164 169
3 242 241 239
3 156 155 154
3 153 154 127
3 163 152 169
3 152 153 125
3 154 155 129
3 93 94 88
3 93 125 127
3 57 58 51
3 136 134 51
3 138 180 136
3 58 62 56
3 56 61 54
3 54 59 55
3 217 49 55
3 217 218 219
3 181 219 179
3 181 179 180
3 89 94 87
3 80 87 85
3 80 85 81
3 239 81 86
3 168 241 169
3 241 238 239
3 125 153 127
3 152 151 169
3 124 152 125
3 88 94 89
3 93 88 125
3 57 62 58
3 51 134 57
3 136 178 134
3 180 178 136
3 56 62 61
3 54 61 59
3 55 59 60
3 222 217 55
3 222 218 217
3 219 218 179
3 180 179 178
3 82 89 87
3 82 87 80
3 76 80 81
3 239 235 81
3 238 241 168
3 151 168 169
3 239 238 235
3 151 152 124
3 88 124 125
3 88 89 84
3 57 68 62
3 57 134 132
3 178 175 134
3 62 68 61
3 61 65 59
3 59 63 60
3 222 55 60
3 222 223 218
3 179 218 177
3 179 177 178
3 83 89 82
3 75 82 80
3 75 80 76
3 235 76 81
3 167 238 168
3 151 167 168
3 238 236 235
3 126 151 124
3 88 84 124
3 84 89 83
3 9 68 57
3 134 175 132
3 57 132 9
3 178 177 175
3 61 68 65
3 59 65 63
3 60 63 6
3 225 222 60
3 225 223 222
3 218 223 177
3 77 83 82
3 77 82 75
3 69 75 76
3 235 232 76
3 236 238 167
3 150 167 151
3 235 236 233
3 150 151 126
3 78 126 124
3 78 124 84
3 84 83 78
3 11 68 9
3 175 173 132
3 9 132 130
3 177 176 175
3 65 68 67
3 63 65 64
3 6 63 7
3 225 60 6
3 225 226 223
3 177 223 176
3 79 83 77
3 72 77 75
3 72 75 69
3 232 69 76
3 235 233 232
3 170 236 167
3 150 170 167
3 233 236 170
3 128 150 126
3 70 126 78
3 78 83 79
3 67 68 11
3 9 10 11
3 175 174 173
3 132 173 130
3 9 130 10
3 175 176 174
3 66 65 67
3 64 65 66
3 7 63 64
3 6 7 8
3 229 225 6
3 225 227 226
3 223 226 176
3 73 79 77
3 73 77 72
3 7 72 69
3 232 229 69
3 232 233 230
3 149 170 150
3 171 233 170
3 149 150 128
3 70 128 126
3 78 79 70
3 11 74 67
3 10 70 11
3 173 174 172
3 173 148 130
3 10 130 128
3 176 226 174
3 67 73 66
3 66 73 64
3 64 72 7
3 7 69 8
3 229 6 8
3 229 227 225
3 226 227 174
3 74 79 73
3 64 73 72
3 232 230 229
3 229 8 69
3 230 233 171
3 149 171 170
3 130 149 128
3 10 128 70
3 70 79 74
3 70 74 11
3 67 74 73
3 174 227 172
3 173 172 148
3 148 149 130
3 229 230 227
3 172 230 171
3 148 171 149
3 227 230 172
3 148 172 171
3 0 1 2
