ply
format ascii 1.0
comment made by tesseract
element vertex 255
property float x
property float y
property float z
element face 510
property list uchar int vertex_indices
end_header
-0.2187835 -0.1443135 0.4277500
-0.2198522 -0.1443135 0.4271716
-0.2194987 -0.1443135 0.4268180
-0.2206807 -0.1443135 0.4265359
-0.2204306 -0.1443135 0.4261029
-0.2183340 -0.1443135 0.4288353
-0.2192166 -0.1443135 0.4280000
-0.2216454 -0.1443135 0.4261363
-0.2215160 -0.1443135 0.4256533
-0.2188170 -0.1443135 0.4289647
-0.2226806 -0.1443135 0.4260000
-0.2226806 -0.1443135 0.4255000
-0.2181806 -0.1443135 0.4300000
-0.2186806 -0.1443135 0.4300000
-0.2237159 -0.1443135 0.4261363
-0.2238453 -0.1443135 0.4256533
-0.2183340 -0.1443135 0.4311647
-0.2188170 -0.1443135 0.4310353
-0.2249306 -0.1443135 0.4261029
-0.2246806 -0.1443135 0.4265359
-0.2187835 -0.1443135 0.4322500
-0.2192166 -0.1443135 0.4320000
-0.2258626 -0.1443135 0.4268180
-0.2255091 -0.1443135 0.4271716
-0.2198522 -0.1443135 0.4328284
-0.2194987 -0.1443135 0.4331820
-0.2206807 -0.1443135 0.4334641
-0.2261448 -0.1443135 0.4280000
-0.2265778 -0.1443135 0.4277500
-0.2204306 -0.1443135 0.4338971
-0.2216454 -0.1443135 0.4338637
-0.2265444 -0.1443135 0.4289647
-0.2270273 -0.1443135 0.4288353
-0.2215160 -0.1443135 0.4343467
-0.2266807 -0.1443135 0.4300000
-0.2271806 -0.1443135 0.4300000
-0.2226806 -0.1443135 0.4345000
-0.2226806 -0.1443135 0.4340000
-0.2270273 -0.1443135 0.4311647
-0.2265444 -0.1443135 0.4310353
-0.2238453 -0.1443135 0.4343467
-0.2237159 -0.1443135 0.4338637
-0.2265778 -0.1443135 0.4322500
-0.2261448 -0.1443135 0.4320000
-0.2255091 -0.1443135 0.4328284
-0.2249306 -0.1443135 0.4338971
-0.2246806 -0.1443135 0.4334641
-0.2258626 -0.1443135 0.4331820
-0.2226806 -0.1503135 0.4345000
-0.2215160 -0.1503135 0.4343467
-0.2204306 -0.1503135 0.4338971
-0.2194987 -0.1503135 0.4331820
-0.2187835 -0.1503135 0.4322500
-0.2183340 -0.1503135 0.4311647
-0.2181806 -0.1503135 0.4300000
-0.2183340 -0.1503135 0.4288353
-0.2187835 -0.1503135 0.4277500
-0.2194987 -0.1503135 0.4268180
-0.2204306 -0.1503135 0.4261029
-0.2215160 -0.1503135 0.4256533
-0.2226806 -0.1503135 0.4255000
-0.2197108 -0.1503135 0.4329698
-0.2205807 -0.1503135 0.4336373
-0.2190433 -0.1503135 0.4321000
-0.2186238 -0.1503135 0.4310870
-0.2215936 -0.1503135 0.4340569
-0.2226806 -0.1503135 0.4342000
-0.2184806 -0.1503135 0.4300000
-0.2237677 -0.1503135 0.4340569
-0.2238453 -0.1503135 0.4343467
-0.2186238 -0.1503135 0.4289130
-0.2247806 -0.1503135 0.4336373
-0.2249306 -0.1503135 0.4338971
-0.2190433 -0.1503135 0.4279000
-0.2256505 -0.1503135 0.4329698
-0.2258626 -0.1503135 0.4331820
-0.2197108 -0.1503135 0.4270301
-0.2265778 -0.1503135 0.4322500
-0.2263180 -0.1503135 0.4321000
-0.2205807 -0.1503135 0.4263627
-0.2215936 -0.1503135 0.4259431
-0.2270273 -0.1503135 0.4311647
-0.2267375 -0.1503135 0.4310870
-0.2226806 -0.1503135 0.4258000
-0.2271806 -0.1503135 0.4300000
-0.2268807 -0.1503135 0.4300000
-0.2267375 -0.1503135 0.4289130
-0.2238453 -0.1503135 0.4256533
-0.2237677 -0.1503135 0.4259431
-0.2270273 -0.1503135 0.4288353
-0.2263180 -0.1503135 0.4279000
-0.2247806 -0.1503135 0.4263627
-0.2265778 -0.1503135 0.4277500
-0.2249306 -0.1503135 0.4261029
-0.2258626 -0.1503135 0.4268180
-0.2256505 -0.1503135 0.4270301
-0.2226806 -0.1520635 0.4342000
-0.2215936 -0.1520635 0.4340569
-0.2205807 -0.1520635 0.4336373
-0.2197108 -0.1520635 0.4329698
-0.2190433 -0.1520635 0.4321000
-0.2186238 -0.1520635 0.4310870
-0.2184806 -0.1520635 0.4300000
-0.2186238 -0.1520635 0.4289130
-0.2190433 -0.1520635 0.4279000
-0.2197108 -0.1520635 0.4270301
-0.2205807 -0.1520635 0.4263627
-0.2215936 -0.1520635 0.4259431
-0.2226806 -0.1520635 0.4258000
-0.2237677 -0.1520635 0.4259431
-0.2247806 -0.1520635 0.4263627
-0.2256505 -0.1520635 0.4270301
-0.2263180 -0.1520635 0.4279000
-0.2267375 -0.1520635 0.4289130
-0.2268807 -0.1520635 0.4300000
-0.2267375 -0.1520635 0.4310870
-0.2263180 -0.1520635 0.4321000
-0.2256505 -0.1520635 0.4329698
-0.2247806 -0.1520635 0.4336373
-0.2237677 -0.1520635 0.4340569
-0.2247307 -0.1520635 0.4335507
-0.2255798 -0.1520635 0.4328991
-0.2262314 -0.1520635 0.4320500
-0.2237418 -0.1520635 0.4339603
-0.2266409 -0.1520635 0.4310611
-0.2226806 -0.1520635 0.4341000
-0.2267807 -0.1520635 0.4300000
-0.2216195 -0.1520635 0.4339603
-0.2266409 -0.1520635 0.4289388
-0.2206307 -0.1520635 0.4335507
-0.2262314 -0.1520635 0.4279500
-0.2197815 -0.1520635 0.4328991
-0.2255798 -0.1520635 0.4271009
-0.2191300 -0.1520635 0.4320500
-0.2247307 -0.1520635 0.4264493
-0.2187204 -0.1520635 0.4310611
-0.2237418 -0.1520635 0.4260397
-0.2226806 -0.1520635 0.4259000
-0.2185807 -0.1520635 0.4300000
-0.2187204 -0.1520635 0.4289388
-0.2216195 -0.1520635 0.4260397
-0.2191300 -0.1520635 0.4279500
-0.2206307 -0.1520635 0.4264493
-0.2197815 -0.1520635 0.4271009
-0.2186065 -0.1520601 0.4300000
-0.2267548 -0.1520601 0.4300000
-0.2186773 -0.1519894 0.4300000
-0.2188137 -0.1519894 0.4289638
-0.2186806 -0.1519635 0.4300000
-0.2186673 -0.1520135 0.4300000
-0.2188170 -0.1519635 0.4289647
-0.2186514 -0.1520342 0.4300000
-0.2187887 -0.1520342 0.4289572
-0.2186307 -0.1520501 0.4300000
-0.2187687 -0.1520501 0.4289518
-0.2192136 -0.1519894 0.4279983
-0.2192166 -0.1519635 0.4280000
-0.2191912 -0.1520342 0.4279853
-0.2191733 -0.1520501 0.4279750
-0.2198498 -0.1519894 0.4271691
-0.2198522 -0.1519635 0.4271716
-0.2198315 -0.1520342 0.4271508
-0.2198169 -0.1520501 0.4271362
-0.2206790 -0.1519894 0.4265330
-0.2206807 -0.1519635 0.4265359
-0.2206660 -0.1520342 0.4265105
-0.2206556 -0.1520501 0.4264926
-0.2216445 -0.1519894 0.4261330
-0.2216454 -0.1519635 0.4261363
-0.2216378 -0.1520342 0.4261080
-0.2216325 -0.1520501 0.4260880
-0.2226806 -0.1519894 0.4259966
-0.2226806 -0.1519635 0.4260000
-0.2226806 -0.1520342 0.4259707
-0.2226806 -0.1520501 0.4259500
-0.2237168 -0.1519894 0.4261330
-0.2237159 -0.1519635 0.4261363
-0.2237235 -0.1520342 0.4261080
-0.2237289 -0.1520501 0.4260880
-0.2246824 -0.1519894 0.4265330
-0.2246806 -0.1519635 0.4265359
-0.2246953 -0.1520342 0.4265105
-0.2247057 -0.1520501 0.4264926
-0.2255115 -0.1519894 0.4271691
-0.2255091 -0.1519635 0.4271716
-0.2255298 -0.1520342 0.4271508
-0.2255444 -0.1520501 0.4271362
-0.2261477 -0.1519894 0.4279983
-0.2261448 -0.1519635 0.4280000
-0.2261701 -0.1520342 0.4279853
-0.2261881 -0.1520501 0.4279750
-0.2265444 -0.1519635 0.4289647
-0.2265477 -0.1519894 0.4289638
-0.2266807 -0.1519635 0.4300000
-0.2266841 -0.1519894 0.4300000
-0.2266940 -0.1520135 0.4300000
-0.2265726 -0.1520342 0.4289572
-0.2267099 -0.1520342 0.4300000
-0.2265926 -0.1520501 0.4289518
-0.2267306 -0.1520501 0.4300000
-0.2265477 -0.1519894 0.4310362
-0.2265444 -0.1519635 0.4310353
-0.2265573 -0.1520135 0.4310388
-0.2265726 -0.1520342 0.4310429
-0.2266160 -0.1520601 0.4310545
-0.2261477 -0.1519894 0.4320017
-0.2261448 -0.1519635 0.4320000
-0.2261564 -0.1520135 0.4320067
-0.2261701 -0.1520342 0.4320146
-0.2262089 -0.1520601 0.4320371
-0.2255115 -0.1519894 0.4328308
-0.2255091 -0.1519635 0.4328284
-0.2255186 -0.1520135 0.4328379
-0.2255298 -0.1520342 0.4328491
-0.2255615 -0.1520601 0.4328808
-0.2246824 -0.1519894 0.4334670
-0.2246806 -0.1519635 0.4334641
-0.2246874 -0.1520135 0.4334757
-0.2246953 -0.1520342 0.4334895
-0.2247177 -0.1520601 0.4335283
-0.2237168 -0.1519894 0.4338670
-0.2237159 -0.1519635 0.4338637
-0.2237194 -0.1520135 0.4338766
-0.2237235 -0.1520342 0.4338920
-0.2237351 -0.1520601 0.4339353
-0.2226806 -0.1519894 0.4340034
-0.2226806 -0.1519635 0.4340000
-0.2226806 -0.1520135 0.4340134
-0.2226806 -0.1520342 0.4340293
-0.2226806 -0.1520601 0.4340741
-0.2216445 -0.1519894 0.4338670
-0.2216454 -0.1519635 0.4338637
-0.2216419 -0.1520135 0.4338766
-0.2216378 -0.1520342 0.4338920
-0.2216262 -0.1520601 0.4339353
-0.2206790 -0.1519894 0.4334670
-0.2206807 -0.1519635 0.4334641
-0.2206739 -0.1520135 0.4334757
-0.2206660 -0.1520342 0.4334895
-0.2206436 -0.1520601 0.4335283
-0.2198498 -0.1519894 0.4328308
-0.2198522 -0.1519635 0.4328284
-0.2198428 -0.1520135 0.4328379
-0.2198315 -0.1520342 0.4328491
-0.2197998 -0.1520601 0.4328808
-0.2192136 -0.1519894 0.4320017
-0.2192166 -0.1519635 0.4320000
-0.2192050 -0.1520135 0.4320067
-0.2191912 -0.1520342 0.4320146
-0.2191524 -0.1520601 0.4320371
-0.2188137 -0.1519894 0.4310362
-0.2188170 -0.1519635 0.4310353
-0.2188040 -0.1520135 0.4310388
-0.2187887 -0.1520342 0.4310429
-0.2187454 -0.1520601 0.4310545
3 0 6 1
3 1 3 2
3 0 2 56
3 5 6 0
3 1 6 160
3 3 1 160
3 2 3 4
3 56 2 57
3 5 0 56
3 5 9 6
3 6 156 160
3 3 160 164
3 3 7 4
3 2 4 57
3 76 56 57
3 55 5 56
3 5 13 9
3 6 9 156
3 156 159 160
3 160 163 164
3 7 3 164
3 4 7 8
3 57 4 58
3 76 73 56
3 58 76 57
3 54 5 55
3 56 70 55
3 12 13 5
3 9 13 150
3 9 150 156
3 155 159 156
3 159 163 160
3 163 167 164
3 7 164 168
3 7 10 8
3 4 8 58
3 73 76 104
3 73 70 56
3 58 79 76
3 12 5 54
3 55 67 54
3 70 67 55
3 12 17 13
3 13 148 150
3 150 155 156
3 155 161 159
3 159 165 163
3 163 169 167
3 164 167 168
3 10 7 168
3 8 10 11
3 58 8 59
3 104 76 105
3 70 73 104
3 80 79 58
3 76 79 106
3 53 12 54
3 67 64 54
3 67 70 102
3 16 17 12
3 13 17 251
3 13 251 148
3 148 147 150
3 147 155 150
3 157 161 155
3 161 165 159
3 165 169 163
3 169 171 167
3 167 171 168
3 10 168 172
3 10 14 11
3 8 11 60
3 59 8 60
3 59 80 58
3 105 76 106
3 105 141 104
3 103 70 104
3 79 80 107
3 106 79 107
3 16 12 53
3 54 64 53
3 64 67 101
3 102 70 103
3 101 67 102
3 16 21 17
3 17 21 251
3 251 250 148
3 146 147 148
3 147 157 155
3 157 162 161
3 161 166 165
3 165 170 169
3 169 173 171
3 168 171 172
3 14 10 172
3 11 14 15
3 11 15 60
3 60 83 59
3 83 80 59
3 105 106 143
3 105 143 141
3 104 141 139
3 104 139 103
3 80 83 107
3 106 107 140
3 52 16 53
3 64 63 53
3 63 64 101
3 103 138 102
3 102 135 101
3 20 21 16
3 21 246 251
3 246 250 251
3 148 250 146
3 149 147 146
3 152 157 147
3 158 162 157
3 162 166 161
3 166 170 165
3 170 174 169
3 169 174 173
3 173 177 171
3 171 175 172
3 14 172 176
3 14 18 15
3 60 15 87
3 87 83 60
3 143 106 142
3 143 162 141
3 141 158 139
3 103 139 138
3 107 83 108
3 107 137 140
3 106 140 142
3 20 16 52
3 53 63 52
3 100 63 101
3 102 138 135
3 101 135 133
3 20 24 21
3 21 241 246
3 245 250 246
3 250 252 146
3 149 152 147
3 146 252 149
3 152 158 157
3 141 162 158
3 143 166 162
3 142 170 166
3 140 174 170
3 174 177 173
3 171 177 175
3 172 175 176
3 14 176 180
3 14 19 18
3 15 18 87
3 87 88 83
3 142 166 143
3 139 158 154
3 138 139 144
3 83 88 108
3 107 108 137
3 137 174 140
3 140 170 142
3 25 20 52
3 63 61 52
3 99 63 100
3 101 133 100
3 138 254 135
3 135 254 133
3 20 25 24
3 21 24 241
3 241 245 246
3 245 252 250
3 151 152 149
3 252 253 149
3 154 158 152
3 174 178 177
3 177 181 175
3 175 179 176
3 176 179 180
3 19 14 180
3 19 22 18
3 87 18 93
3 91 88 87
3 139 154 144
3 144 254 138
3 108 88 109
3 108 136 137
3 137 178 174
3 51 25 52
3 61 63 99
3 61 51 52
3 100 133 99
3 133 254 249
3 25 26 24
3 24 26 241
3 240 245 241
3 247 252 245
3 151 154 152
3 149 253 151
3 248 253 252
3 178 182 177
3 177 182 181
3 175 181 179
3 179 183 180
3 19 180 184
3 19 23 22
3 18 22 94
3 93 18 94
3 93 91 87
3 88 91 109
3 144 154 153
3 153 254 144
3 108 109 136
3 136 178 137
3 50 25 51
3 62 61 99
3 62 51 61
3 133 131 99
3 249 254 248
3 133 249 131
3 25 29 26
3 26 236 241
3 242 245 240
3 236 240 241
3 248 252 247
3 242 247 245
3 153 154 151
3 151 253 153
3 248 254 253
3 136 182 178
3 182 186 181
3 181 183 179
3 180 183 184
3 23 19 184
3 23 28 22
3 22 28 94
3 94 91 93
3 109 91 110
3 253 254 153
3 109 134 136
3 29 25 50
3 62 50 51
3 98 62 99
3 131 129 99
3 243 249 248
3 131 249 244
3 29 30 26
3 26 231 236
3 235 242 240
3 235 240 236
3 242 248 247
3 134 182 136
3 134 186 182
3 181 186 185
3 181 185 183
3 183 187 184
3 27 23 184
3 27 28 23
3 94 28 92
3 94 95 91
3 91 95 110
3 109 110 134
3 49 29 50
3 65 50 62
3 97 62 98
3 99 129 98
3 131 244 129
3 244 249 243
3 243 248 242
3 29 33 30
3 26 30 231
3 231 235 236
3 237 242 235
3 132 186 134
3 186 190 185
3 185 189 183
3 183 189 187
3 184 187 188
3 27 184 188
3 27 32 28
3 28 32 92
3 94 92 90
3 94 90 95
3 110 95 111
3 110 111 134
3 33 29 49
3 65 49 50
3 65 62 97
3 98 127 97
3 129 127 98
3 129 244 239
3 238 244 243
3 237 243 242
3 33 36 30
3 30 226 231
3 230 235 231
3 230 237 235
3 132 190 186
3 134 111 132
3 185 190 189
3 189 192 187
3 187 192 188
3 27 188 191
3 31 32 27
3 92 32 89
3 92 89 90
3 95 90 111
3 48 33 49
3 66 49 65
3 96 65 97
3 127 96 97
3 129 239 127
3 239 244 238
3 238 243 237
3 36 33 48
3 30 36 37
3 30 37 226
3 226 230 231
3 232 237 230
3 130 190 132
3 132 111 112
3 190 198 189
3 189 196 192
3 188 192 191
3 31 27 191
3 31 34 32
3 32 35 89
3 90 89 86
3 111 90 112
3 66 48 49
3 66 65 96
3 127 125 96
3 127 239 234
3 234 239 238
3 232 238 237
3 40 36 48
3 36 40 37
3 37 221 226
3 225 230 226
3 225 232 230
3 130 198 190
3 132 112 130
3 189 198 196
3 192 196 195
3 191 192 193
3 34 31 191
3 34 35 32
3 89 35 84
3 89 84 86
3 90 86 113
3 112 90 113
3 68 48 66
3 119 66 96
3 127 234 125
3 125 119 96
3 234 238 233
3 233 238 232
3 69 40 48
3 37 40 41
3 37 41 221
3 221 225 226
3 227 232 225
3 128 198 130
3 130 112 113
3 196 198 197
3 195 196 197
3 194 192 195
3 193 192 194
3 34 191 193
3 34 38 35
3 35 38 84
3 86 84 85
3 113 86 114
3 68 69 48
3 68 66 119
3 125 234 229
3 125 123 119
3 228 234 233
3 227 233 232
3 72 40 69
3 40 45 41
3 41 46 221
3 220 225 221
3 220 227 225
3 145 198 128
3 130 113 128
3 197 198 199
3 197 203 195
3 195 202 194
3 194 200 193
3 39 34 193
3 39 38 34
3 84 38 81
3 84 82 85
3 86 85 114
3 128 113 114
3 71 69 68
3 118 68 119
3 229 234 228
3 125 229 123
3 123 118 119
3 228 233 227
3 45 40 72
3 71 72 69
3 41 45 46
3 46 216 221
3 216 220 221
3 222 227 220
3 199 198 145
3 128 126 145
3 199 203 197
3 195 203 202
3 194 202 200
3 193 200 201
3 39 193 201
3 39 42 38
3 38 42 81
3 84 81 82
3 85 82 114
3 128 114 126
3 71 68 118
3 223 229 228
3 123 229 224
3 123 120 118
3 223 228 227
3 75 45 72
3 74 72 71
3 45 47 46
3 46 211 216
3 215 220 216
3 223 227 222
3 215 222 220
3 145 204 199
3 126 204 145
3 199 204 203
3 203 208 202
3 202 207 200
3 200 205 201
3 43 39 201
3 43 42 39
3 81 42 77
3 81 78 82
3 114 82 115
3 126 114 115
3 117 71 118
3 224 229 223
3 123 224 120
3 120 117 118
3 47 45 75
3 75 72 74
3 74 71 117
3 46 47 44
3 46 44 211
3 211 215 216
3 217 223 222
3 217 222 215
3 124 204 126
3 204 209 203
3 203 209 208
3 202 208 207
3 200 207 205
3 201 205 206
3 43 201 206
3 44 42 43
3 42 47 77
3 81 77 78
3 82 78 116
3 115 82 116
3 126 115 124
3 218 224 223
3 120 224 219
3 120 121 117
3 77 47 75
3 77 75 74
3 116 74 117
3 44 47 42
3 44 206 211
3 210 215 211
3 218 223 217
3 212 217 215
3 124 209 204
3 209 213 208
3 208 213 207
3 207 212 205
3 205 210 206
3 44 43 206
3 77 74 78
3 78 74 116
3 124 115 116
3 219 224 218
3 120 219 214
3 120 214 121
3 122 117 121
3 122 116 117
3 206 210 211
3 212 215 210
3 212 218 217
3 122 209 124
3 209 214 213
3 207 213 212
3 205 212 210
3 124 116 122
3 213 219 218
3 214 219 213
3 121 214 122
3 213 218 212
3 122 214 209
3 0 1 2
