ply
format ascii 1.0
comment made by tesseract
element vertex 222
property float x
property float y
property float z
element face 444
property list uchar int vertex_indices
end_header
0.2575000 0.1262320 1.9880000
0.2576250 0.1264486 1.9880000
0.2570823 0.1266733 1.9880000
0.2580910 0.1260910 1.9880000
0.2579142 0.1259142 1.9880000
0.2582321 0.1255000 1.9880000
0.2584485 0.1256250 1.9880000
0.2586733 0.1250823 1.9880000
0.2584319 0.1250176 1.9880000
0.2570176 0.1264319 1.9880000
0.2587500 0.1245000 1.9880000
0.2585000 0.1245000 1.9880000
0.2565000 0.1265000 1.9880000
0.2565000 0.1267500 1.9880000
0.2586733 0.1239177 1.9880000
0.2559824 0.1264319 1.9880000
0.2559177 0.1266733 1.9880000
0.2584319 0.1239824 1.9880000
0.2584485 0.1233750 1.9880000
0.2582321 0.1235000 1.9880000
0.2555000 0.1262320 1.9880000
0.2553750 0.1264486 1.9880000
0.2579142 0.1230858 1.9880000
0.2580910 0.1229090 1.9880000
0.2550858 0.1259142 1.9880000
0.2549090 0.1260910 1.9880000
0.2575000 0.1227680 1.9880000
0.2545514 0.1256250 1.9880000
0.2547680 0.1255000 1.9880000
0.2576250 0.1225514 1.9880000
0.2545682 0.1250176 1.9880000
0.2570823 0.1223267 1.9880000
0.2570176 0.1225681 1.9880000
0.2543267 0.1250823 1.9880000
0.2545000 0.1245000 1.9880000
0.2565000 0.1222500 1.9880000
0.2565000 0.1225000 1.9880000
0.2542500 0.1245000 1.9880000
0.2559824 0.1225681 1.9880000
0.2545682 0.1239824 1.9880000
0.2559177 0.1223267 1.9880000
0.2555000 0.1227680 1.9880000
0.2543267 0.1239177 1.9880000
0.2547680 0.1235000 1.9880000
0.2545514 0.1233750 1.9880000
0.2553750 0.1225514 1.9880000
0.2549090 0.1229090 1.9880000
0.2550858 0.1230858 1.9880000
0.2565000 0.1267500 1.9903001
0.2570823 0.1266733 1.9903001
0.2576250 0.1264486 1.9903001
0.2580910 0.1260910 1.9903001
0.2584485 0.1256250 1.9903001
0.2586733 0.1250823 1.9903001
0.2587500 0.1245000 1.9903001
0.2586733 0.1239177 1.9903001
0.2584485 0.1233750 1.9903001
0.2580910 0.1229090 1.9903001
0.2576250 0.1225514 1.9903001
0.2570823 0.1223267 1.9903001
0.2565000 0.1222500 1.9903001
0.2583620 0.1234250 1.9903001
0.2580203 0.1229797 1.9903001
0.2575750 0.1226380 1.9903001
0.2585768 0.1239435 1.9903001
0.2570564 0.1224233 1.9903001
0.2586500 0.1245000 1.9903001
0.2565000 0.1223500 1.9903001
0.2559177 0.1223267 1.9903001
0.2559435 0.1224233 1.9903001
0.2585768 0.1250565 1.9903001
0.2553750 0.1225514 1.9903001
0.2554250 0.1226380 1.9903001
0.2583620 0.1255750 1.9903001
0.2580203 0.1260203 1.9903001
0.2549797 0.1229797 1.9903001
0.2549090 0.1229090 1.9903001
0.2545514 0.1233750 1.9903001
0.2546380 0.1234250 1.9903001
0.2575750 0.1263620 1.9903001
0.2570564 0.1265768 1.9903001
0.2543267 0.1239177 1.9903001
0.2544233 0.1239435 1.9903001
0.2542500 0.1245000 1.9903001
0.2543500 0.1245000 1.9903001
0.2565000 0.1266500 1.9903001
0.2543267 0.1250823 1.9903001
0.2544233 0.1250565 1.9903001
0.2559177 0.1266733 1.9903001
0.2559435 0.1265768 1.9903001
0.2546380 0.1255750 1.9903001
0.2545514 0.1256250 1.9903001
0.2553750 0.1264486 1.9903001
0.2554250 0.1263620 1.9903001
0.2549090 0.1260910 1.9903001
0.2549797 0.1260203 1.9903001
0.2586500 0.1245000 1.9907500
0.2585768 0.1239435 1.9907500
0.2583620 0.1234250 1.9907500
0.2580203 0.1229797 1.9907500
0.2575750 0.1226380 1.9907500
0.2570564 0.1224233 1.9907500
0.2565000 0.1223500 1.9907500
0.2559435 0.1224233 1.9907500
0.2554250 0.1226380 1.9907500
0.2549797 0.1229797 1.9907500
0.2546380 0.1234250 1.9907500
0.2544233 0.1239435 1.9907500
0.2543500 0.1245000 1.9907500
0.2575500 0.1226813 1.9907500
0.2579849 0.1230151 1.9907500
0.2583187 0.1234500 1.9907500
0.2570435 0.1224716 1.9907500
0.2585284 0.1239565 1.9907500
0.2565000 0.1224000 1.9907500
0.2586000 0.1245000 1.9907500
0.2559565 0.1224716 1.9907500
0.2585284 0.1250435 1.9907500
0.2585768 0.1250565 1.9907500
0.2554500 0.1226813 1.9907500
0.2583187 0.1255500 1.9907500
0.2583620 0.1255750 1.9907500
0.2550151 0.1230151 1.9907500
0.2579849 0.1259849 1.9907500
0.2580203 0.1260203 1.9907500
0.2575500 0.1263187 1.9907500
0.2546813 0.1234500 1.9907500
0.2575750 0.1263620 1.9907500
0.2544716 0.1239565 1.9907500
0.2570564 0.1265768 1.9907500
0.2570435 0.1265284 1.9907500
0.2544000 0.1245000 1.9907500
0.2565000 0.1266500 1.9907500
0.2565000 0.1266000 1.9907500
0.2559435 0.1265768 1.9907500
0.2559565 0.1265284 1.9907500
0.2544233 0.1250565 1.9907500
0.2544716 0.1250435 1.9907500
0.2554250 0.1263620 1.9907500
0.2554500 0.1263187 1.9907500
0.2546380 0.1255750 1.9907500
0.2546813 0.1255500 1.9907500
0.2549797 0.1260203 1.9907500
0.2550151 0.1259849 1.9907500
0.2544966 0.1245000 1.9906759
0.2545682 0.1250176 1.9906501
0.2545000 0.1245000 1.9906501
0.2544259 0.1245000 1.9907466
0.2584319 0.1250176 1.9906501
0.2585034 0.1245000 1.9906759
0.2585000 0.1245000 1.9906501
0.2585741 0.1245000 1.9907466
0.2544866 0.1245000 1.9907000
0.2545552 0.1250211 1.9907000
0.2544707 0.1245000 1.9907207
0.2544500 0.1245000 1.9907366
0.2545199 0.1250306 1.9907366
0.2547564 0.1255067 1.9907000
0.2547680 0.1255000 1.9906501
0.2547247 0.1255250 1.9907366
0.2550763 0.1259237 1.9907000
0.2550858 0.1259142 1.9906501
0.2550504 0.1259496 1.9907366
0.2554933 0.1262437 1.9907000
0.2555000 0.1262320 1.9906501
0.2559824 0.1264319 1.9906501
0.2554750 0.1262753 1.9907366
0.2559789 0.1264448 1.9907000
0.2559694 0.1264801 1.9907366
0.2565000 0.1265134 1.9907000
0.2565000 0.1265000 1.9906501
0.2565000 0.1265500 1.9907366
0.2570211 0.1264448 1.9907000
0.2570176 0.1264319 1.9906501
0.2570306 0.1264801 1.9907366
0.2575067 0.1262437 1.9907000
0.2575000 0.1262320 1.9906501
0.2575250 0.1262753 1.9907366
0.2579237 0.1259237 1.9907000
0.2579142 0.1259142 1.9906501
0.2579496 0.1259496 1.9907366
0.2582437 0.1255067 1.9907000
0.2582321 0.1255000 1.9906501
0.2582754 0.1255250 1.9907366
0.2584448 0.1250211 1.9907000
0.2585134 0.1245000 1.9907000
0.2585293 0.1245000 1.9907207
0.2584801 0.1250306 1.9907366
0.2585500 0.1245000 1.9907366
0.2584319 0.1239824 1.9906501
0.2545682 0.1239824 1.9906501
0.2584448 0.1239789 1.9907000
0.2584801 0.1239694 1.9907366
0.2582437 0.1234933 1.9907000
0.2582321 0.1235000 1.9906501
0.2582754 0.1234750 1.9907366
0.2579237 0.1230763 1.9907000
0.2579142 0.1230858 1.9906501
0.2579496 0.1230504 1.9907366
0.2575067 0.1227563 1.9907000
0.2575000 0.1227680 1.9906501
0.2575250 0.1227246 1.9907366
0.2570211 0.1225552 1.9907000
0.2570176 0.1225681 1.9906501
0.2570306 0.1225199 1.9907366
0.2565000 0.1224866 1.9907000
0.2565000 0.1225000 1.9906501
0.2565000 0.1224500 1.9907366
0.2559789 0.1225552 1.9907000
0.2559824 0.1225681 1.9906501
0.2559694 0.1225199 1.9907366
0.2554933 0.1227563 1.9907000
0.2555000 0.1227680 1.9906501
0.2554750 0.1227246 1.9907366
0.2550763 0.1230763 1.9907000
0.2550858 0.1230858 1.9906501
0.2547680 0.1235000 1.9906501
0.2550504 0.1230504 1.9907366
0.2547564 0.1234933 1.9907000
0.2547247 0.1234750 1.9907366
0.2545552 0.1239789 1.9907000
0.2545199 0.1239694 1.9907366
3 0 3 1
3 2 1 49
3 9 0 2
3 0 4 3
3 1 3 50
3 49 1 50
3 48 2 49
3 0 9 173
3 12 9 2
3 4 0 176
3 5 3 4
3 50 3 51
3 49 50 80
3 13 2 48
3 48 49 80
3 9 12 173
3 0 173 176
3 12 2 13
3 4 176 179
3 5 6 3
3 5 4 182
3 51 3 52
3 50 51 74
3 80 50 79
3 16 13 48
3 48 80 85
3 12 170 173
3 173 175 176
3 15 12 13
3 176 178 179
3 4 179 182
3 5 7 6
3 3 6 52
3 8 5 182
3 74 51 52
3 50 74 79
3 80 79 127
3 15 13 16
3 88 16 48
3 85 80 132
3 88 48 85
3 12 165 170
3 170 172 173
3 172 175 173
3 175 178 176
3 12 15 165
3 178 181 179
3 179 181 182
3 8 7 5
3 6 7 52
3 8 182 148
3 74 52 73
3 79 74 127
3 129 80 127
3 20 15 16
3 92 16 88
3 132 80 129
3 134 85 132
3 88 85 89
3 165 169 170
3 169 172 170
3 172 177 175
3 175 180 178
3 15 164 165
3 178 183 181
3 181 184 182
3 10 7 8
3 52 7 53
3 182 184 148
3 11 8 148
3 73 52 70
3 74 73 121
3 127 74 124
3 129 127 125
3 15 20 164
3 20 16 21
3 21 16 92
3 92 88 89
3 132 129 130
3 89 85 134
3 134 132 133
3 167 169 165
3 169 174 172
3 174 177 172
3 177 180 175
3 180 183 178
3 164 163 165
3 183 184 181
3 7 10 53
3 11 10 8
3 52 53 70
3 148 184 149
3 11 148 150
3 73 70 118
3 121 73 118
3 124 74 121
3 127 124 125
3 129 125 130
3 20 161 164
3 24 20 21
3 94 21 92
3 92 89 93
3 132 130 133
3 138 89 134
3 134 133 135
3 167 171 169
3 163 167 165
3 171 174 169
3 125 177 174
3 125 180 177
3 123 183 180
3 161 163 164
3 183 187 184
3 53 10 54
3 14 10 11
3 70 53 54
3 149 184 185
3 148 149 150
3 17 11 150
3 70 66 118
3 120 121 118
3 123 124 121
3 125 124 123
3 125 174 130
3 20 24 161
3 24 21 25
3 25 21 94
3 94 92 93
3 93 89 138
3 130 174 133
3 138 134 135
3 133 171 135
3 168 171 167
3 163 168 167
3 133 174 171
3 123 180 125
3 120 183 123
3 160 163 161
3 117 187 183
3 184 187 186
3 10 14 54
3 17 14 11
3 70 54 66
3 185 184 186
3 185 191 149
3 149 189 150
3 17 150 189
3 118 66 96
3 123 121 120
3 120 118 117
3 24 158 161
3 27 24 25
3 91 25 94
3 94 93 95
3 142 93 138
3 138 135 139
3 135 171 168
3 166 168 163
3 117 183 120
3 160 166 163
3 158 160 161
3 151 187 117
3 186 187 188
3 54 14 55
3 18 14 17
3 66 54 55
3 186 191 185
3 149 191 189
3 19 17 189
3 66 64 96
3 117 118 96
3 24 28 158
3 27 28 24
3 27 25 91
3 94 90 91
3 95 93 142
3 94 95 90
3 142 138 139
3 135 168 139
3 139 168 166
3 162 166 160
3 157 160 158
3 188 187 151
3 117 115 151
3 188 192 186
3 14 18 55
3 19 18 17
3 66 55 64
3 186 192 191
3 191 193 189
3 19 189 194
3 96 64 97
3 117 96 115
3 28 145 158
3 30 28 27
3 86 27 91
3 91 90 86
3 140 95 142
3 90 95 140
3 142 139 143
3 139 166 143
3 143 166 162
3 157 162 160
3 145 157 158
3 151 192 188
3 115 113 151
3 55 18 56
3 22 18 19
3 64 55 56
3 192 195 191
3 191 195 193
3 189 193 194
3 22 19 194
3 64 61 97
3 115 96 97
3 28 30 145
3 33 30 27
3 33 27 86
3 90 87 86
3 142 141 140
3 136 90 140
3 142 143 141
3 143 162 141
3 159 162 157
3 153 157 145
3 113 192 151
3 115 97 113
3 18 23 56
3 22 23 18
3 64 56 61
3 113 195 192
3 195 198 193
3 193 196 194
3 22 194 197
3 97 61 98
3 30 146 145
3 34 30 33
3 83 33 86
3 87 90 136
3 86 87 84
3 140 141 137
3 140 137 136
3 141 162 159
3 153 159 157
3 144 153 145
3 113 97 98
3 56 23 57
3 26 23 22
3 61 56 57
3 111 195 113
3 111 198 195
3 193 198 196
3 194 196 197
3 26 22 197
3 61 62 98
3 30 34 146
3 144 145 146
3 37 34 33
3 37 33 83
3 86 84 83
3 108 87 136
3 84 87 108
3 141 159 137
3 136 137 131
3 156 159 153
3 152 153 144
3 113 98 111
3 23 29 57
3 29 23 26
3 61 57 62
3 110 198 111
3 198 201 196
3 196 199 197
3 26 197 200
3 98 62 99
3 34 190 146
3 190 144 146
3 39 34 37
3 81 37 83
3 83 84 82
3 136 131 108
3 107 84 108
3 137 159 156
3 131 137 147
3 154 156 153
3 154 153 152
3 144 220 152
3 111 98 99
3 57 29 58
3 31 29 26
3 63 62 57
3 110 201 198
3 111 99 110
3 196 201 199
3 197 199 200
3 32 26 200
3 62 63 99
3 34 39 190
3 190 220 144
3 42 39 37
3 42 37 81
3 83 82 81
3 82 84 107
3 108 131 128
3 108 128 107
3 137 156 147
3 128 131 147
3 155 156 154
3 152 220 154
3 29 31 58
3 63 57 58
3 31 26 32
3 109 201 110
3 109 110 99
3 201 204 199
3 199 202 200
3 32 200 203
3 99 63 100
3 39 216 190
3 216 220 190
3 42 43 39
3 77 42 81
3 81 82 78
3 106 82 107
3 107 128 126
3 147 156 155
3 147 221 128
3 154 221 155
3 220 221 154
3 58 31 59
3 65 63 58
3 35 31 32
3 109 204 201
3 109 99 100
3 199 204 202
3 200 202 203
3 36 32 203
3 100 63 101
3 39 43 216
3 218 220 216
3 44 43 42
3 44 42 77
3 81 78 77
3 78 82 106
3 107 126 106
3 128 219 126
3 155 221 147
3 128 221 219
3 219 221 220
3 59 31 60
3 65 58 59
3 63 65 101
3 31 35 60
3 35 32 36
3 112 204 109
3 112 109 100
3 204 205 202
3 202 205 203
3 36 203 206
3 112 100 101
3 43 215 216
3 219 220 218
3 214 218 216
3 46 43 44
3 76 44 77
3 77 78 75
3 75 78 106
3 106 126 105
3 126 219 217
3 60 65 59
3 65 67 101
3 35 40 60
3 38 35 36
3 114 204 112
3 204 207 205
3 203 205 206
3 36 206 209
3 114 112 101
3 43 47 215
3 215 214 216
3 214 219 218
3 46 47 43
3 46 44 76
3 77 75 76
3 105 75 106
3 126 122 105
3 217 219 214
3 126 217 122
3 67 65 60
3 101 67 102
3 40 35 38
3 60 40 68
3 38 36 209
3 114 207 204
3 207 210 205
3 205 208 206
3 206 208 209
3 114 101 102
3 47 41 215
3 212 214 215
3 46 41 47
3 71 46 76
3 75 71 76
3 72 75 105
3 105 122 119
3 211 217 214
3 122 217 119
3 68 67 60
3 67 69 102
3 40 38 41
3 40 45 68
3 41 38 209
3 114 210 207
3 205 210 208
3 208 211 209
3 103 114 102
3 41 212 215
3 211 214 212
3 46 45 41
3 45 46 71
3 75 72 71
3 104 72 105
3 105 119 104
3 213 217 211
3 119 217 213
3 69 67 68
3 102 69 103
3 45 40 41
3 68 45 71
3 41 209 212
3 116 210 114
3 210 211 208
3 209 211 212
3 116 114 103
3 72 69 71
3 103 72 104
3 119 103 104
3 210 213 211
3 119 213 210
3 71 69 68
3 69 72 103
3 119 210 116
3 119 116 103
3 0 1 2
