ply
format ascii 1.0
comment made by tesseract
element vertex 174
property float x
property float y
property float z
element face 348
property list uchar int vertex_indices
end_header
0.3538787 -0.2390000 1.4278786
0.3532287 -0.2390000 1.4284000
0.3537372 -0.2390000 1.4277374
0.3534019 -0.2390000 1.4285001
0.3545000 -0.2390000 1.4274020
0.3544000 -0.2390000 1.4272288
0.3529090 -0.2390000 1.4291718
0.3531022 -0.2390000 1.4292235
0.3552235 -0.2390000 1.4271022
0.3551718 -0.2390000 1.4269091
0.3528000 -0.2390000 1.4299999
0.3530000 -0.2390000 1.4299999
0.3560000 -0.2390000 1.4270000
0.3560000 -0.2390000 1.4268000
0.3529090 -0.2390000 1.4308282
0.3531022 -0.2390000 1.4307765
0.3567764 -0.2390000 1.4271022
0.3568282 -0.2390000 1.4269091
0.3532287 -0.2390000 1.4316000
0.3534019 -0.2390000 1.4315000
0.3575000 -0.2390000 1.4274020
0.3576000 -0.2390000 1.4272288
0.3537372 -0.2390000 1.4322627
0.3538787 -0.2390000 1.4321214
0.3581213 -0.2390000 1.4278786
0.3582627 -0.2390000 1.4277374
0.3585981 -0.2390000 1.4285001
0.3544000 -0.2390000 1.4327712
0.3545000 -0.2390000 1.4325980
0.3587713 -0.2390000 1.4284000
0.3588978 -0.2390000 1.4292235
0.3551718 -0.2390000 1.4330909
0.3552235 -0.2390000 1.4328978
0.3590910 -0.2390000 1.4291718
0.3560000 -0.2390000 1.4332000
0.3560000 -0.2390000 1.4330000
0.3592000 -0.2390000 1.4299999
0.3590000 -0.2390000 1.4299999
0.3588978 -0.2390000 1.4307765
0.3568282 -0.2390000 1.4330909
0.3567764 -0.2390000 1.4328978
0.3590910 -0.2390000 1.4308282
0.3585981 -0.2390000 1.4315000
0.3576000 -0.2390000 1.4327712
0.3575000 -0.2390000 1.4325980
0.3587713 -0.2390000 1.4316000
0.3581213 -0.2390000 1.4321214
0.3582627 -0.2390000 1.4322627
0.3528000 -0.2402000 1.4299999
0.3529090 -0.2402000 1.4308282
0.3532287 -0.2402000 1.4316000
0.3537372 -0.2402000 1.4322627
0.3544000 -0.2402000 1.4327712
0.3551718 -0.2402000 1.4330909
0.3560000 -0.2402000 1.4332000
0.3568282 -0.2402000 1.4330909
0.3576000 -0.2402000 1.4327712
0.3582627 -0.2402000 1.4322627
0.3587713 -0.2402000 1.4316000
0.3590910 -0.2402000 1.4308282
0.3592000 -0.2402000 1.4299999
0.3590910 -0.2402000 1.4291718
0.3587713 -0.2402000 1.4284000
0.3582627 -0.2402000 1.4277374
0.3576000 -0.2402000 1.4272288
0.3568282 -0.2402000 1.4269091
0.3560000 -0.2402000 1.4268000
0.3551718 -0.2402000 1.4269091
0.3544000 -0.2402000 1.4272288
0.3537372 -0.2402000 1.4277374
0.3532287 -0.2402000 1.4284000
0.3529090 -0.2402000 1.4291718
0.3538080 -0.2402000 1.4321920
0.3544500 -0.2402000 1.4326847
0.3533153 -0.2402000 1.4315500
0.3551977 -0.2402000 1.4329944
0.3530056 -0.2402000 1.4308023
0.3560000 -0.2402000 1.4331000
0.3529000 -0.2402000 1.4299999
0.3568023 -0.2402000 1.4329944
0.3530056 -0.2402000 1.4291977
0.3575500 -0.2402000 1.4326847
0.3533153 -0.2402000 1.4284500
0.3581920 -0.2402000 1.4321920
0.3538080 -0.2402000 1.4278079
0.3586847 -0.2402000 1.4315500
0.3544500 -0.2402000 1.4273154
0.3551977 -0.2402000 1.4270056
0.3589944 -0.2402000 1.4308023
0.3591000 -0.2402000 1.4299999
0.3560000 -0.2402000 1.4269000
0.3568023 -0.2402000 1.4270056
0.3589944 -0.2402000 1.4291977
0.3586847 -0.2402000 1.4284500
0.3575500 -0.2402000 1.4273154
0.3581920 -0.2402000 1.4278079
0.3590034 -0.2401259 1.4299999
0.3588978 -0.2401000 1.4292235
0.3590000 -0.2401000 1.4299999
0.3590741 -0.2401966 1.4299999
0.3531022 -0.2401000 1.4292235
0.3529966 -0.2401259 1.4299999
0.3530000 -0.2401000 1.4299999
0.3529259 -0.2401966 1.4299999
0.3590134 -0.2401500 1.4299999
0.3589107 -0.2401500 1.4292201
0.3590293 -0.2401707 1.4299999
0.3590500 -0.2401866 1.4299999
0.3589461 -0.2401866 1.4292105
0.3586097 -0.2401500 1.4284933
0.3585981 -0.2401000 1.4285001
0.3586414 -0.2401866 1.4284750
0.3581308 -0.2401500 1.4278693
0.3581213 -0.2401000 1.4278786
0.3581567 -0.2401866 1.4278433
0.3575067 -0.2401500 1.4273903
0.3575000 -0.2401000 1.4274020
0.3575250 -0.2401866 1.4273586
0.3567799 -0.2401500 1.4270892
0.3567764 -0.2401000 1.4271022
0.3567894 -0.2401866 1.4270539
0.3560000 -0.2401500 1.4269866
0.3560000 -0.2401000 1.4270000
0.3560000 -0.2401866 1.4269500
0.3552235 -0.2401000 1.4271022
0.3552200 -0.2401500 1.4270892
0.3545000 -0.2401000 1.4274020
0.3552106 -0.2401866 1.4270539
0.3544933 -0.2401500 1.4273903
0.3544750 -0.2401866 1.4273586
0.3538692 -0.2401500 1.4278693
0.3538787 -0.2401000 1.4278786
0.3538433 -0.2401866 1.4278433
0.3533903 -0.2401500 1.4284933
0.3534019 -0.2401000 1.4285001
0.3533586 -0.2401866 1.4284750
0.3530893 -0.2401500 1.4292201
0.3529866 -0.2401500 1.4299999
0.3529707 -0.2401707 1.4299999
0.3530539 -0.2401866 1.4292105
0.3529500 -0.2401866 1.4299999
0.3531022 -0.2401000 1.4307765
0.3588978 -0.2401000 1.4307765
0.3530893 -0.2401500 1.4307799
0.3530539 -0.2401866 1.4307895
0.3533903 -0.2401500 1.4315068
0.3534019 -0.2401000 1.4315000
0.3533586 -0.2401866 1.4315250
0.3538692 -0.2401500 1.4321307
0.3538787 -0.2401000 1.4321214
0.3538433 -0.2401866 1.4321566
0.3544933 -0.2401500 1.4326097
0.3545000 -0.2401000 1.4325980
0.3544750 -0.2401866 1.4326414
0.3552200 -0.2401500 1.4329108
0.3552235 -0.2401000 1.4328978
0.3560000 -0.2401000 1.4330000
0.3552106 -0.2401866 1.4329461
0.3560000 -0.2401500 1.4330134
0.3560000 -0.2401866 1.4330500
0.3567799 -0.2401500 1.4329108
0.3567764 -0.2401000 1.4328978
0.3567894 -0.2401866 1.4329461
0.3575067 -0.2401500 1.4326097
0.3575000 -0.2401000 1.4325980
0.3581213 -0.2401000 1.4321214
0.3575250 -0.2401866 1.4326414
0.3581308 -0.2401500 1.4321307
0.3581567 -0.2401866 1.4321566
0.3586097 -0.2401500 1.4315068
0.3585981 -0.2401000 1.4315000
0.3586414 -0.2401866 1.4315250
0.3589107 -0.2401500 1.4307799
0.3589461 -0.2401866 1.4307895
3 3 1 0
3 2 1 69
3 4 0 2
3 6 1 3
3 3 0 131
3 69 1 70
3 68 2 69
3 0 4 131
3 4 2 5
3 1 6 70
3 7 6 3
3 3 131 134
3 69 70 84
3 5 2 68
3 68 69 84
3 4 126 131
3 8 4 5
3 70 6 71
3 10 6 7
3 7 3 134
3 131 133 134
3 84 70 82
3 67 5 68
3 68 84 86
3 4 124 126
3 126 130 131
3 4 8 124
3 8 5 9
3 71 6 48
3 82 70 71
3 6 10 48
3 11 10 7
3 7 134 100
3 130 133 131
3 133 136 134
3 82 135 84
3 9 5 67
3 67 68 87
3 84 132 86
3 87 68 86
3 124 125 126
3 128 130 126
3 8 122 124
3 12 8 9
3 80 71 48
3 82 71 80
3 10 14 48
3 14 10 11
3 11 7 100
3 134 136 100
3 130 135 133
3 133 139 136
3 82 139 135
3 84 135 132
3 66 9 67
3 66 67 87
3 86 132 129
3 86 129 87
3 122 125 124
3 125 128 126
3 128 132 130
3 8 12 122
3 12 9 13
3 80 48 78
3 80 139 82
3 48 14 49
3 15 14 11
3 11 100 102
3 100 136 101
3 132 135 130
3 135 139 133
3 136 139 138
3 13 9 66
3 66 87 90
3 129 132 128
3 87 129 127
3 121 125 122
3 125 129 128
3 12 119 122
3 16 12 13
3 78 48 49
3 80 78 103
3 103 139 80
3 14 18 49
3 18 14 15
3 15 11 102
3 100 101 102
3 101 136 137
3 138 139 140
3 137 136 138
3 65 13 66
3 87 127 90
3 91 66 90
3 127 129 125
3 121 127 125
3 119 121 122
3 12 16 119
3 16 13 17
3 78 49 76
3 78 76 103
3 140 139 103
3 49 18 50
3 19 18 15
3 15 102 141
3 101 141 102
3 137 143 101
3 140 144 138
3 138 143 137
3 17 13 65
3 65 66 91
3 90 127 123
3 90 123 91
3 123 127 121
3 118 121 119
3 16 20 119
3 20 16 17
3 76 49 50
3 76 144 103
3 103 144 140
3 18 22 50
3 22 18 19
3 19 15 141
3 101 143 141
3 138 144 143
3 64 17 65
3 64 65 91
3 91 123 120
3 118 123 121
3 116 118 119
3 20 116 119
3 20 17 21
3 76 50 74
3 76 147 144
3 50 22 51
3 23 22 19
3 19 141 146
3 143 145 141
3 144 147 143
3 21 17 64
3 64 91 94
3 120 123 118
3 91 120 94
3 115 118 116
3 20 113 116
3 24 20 21
3 74 50 51
3 74 147 76
3 51 22 52
3 27 22 23
3 23 19 146
3 141 145 146
3 143 147 145
3 25 21 64
3 63 64 94
3 115 120 118
3 94 120 117
3 113 115 116
3 20 24 113
3 25 24 21
3 74 51 72
3 74 150 147
3 22 27 52
3 52 72 51
3 27 23 28
3 23 146 149
3 145 148 146
3 147 150 145
3 63 25 64
3 63 94 95
3 117 120 115
3 94 117 95
3 112 115 113
3 24 110 113
3 26 24 25
3 72 150 74
3 27 31 52
3 73 72 52
3 28 23 149
3 31 27 28
3 146 148 149
3 145 150 148
3 62 25 63
3 63 95 93
3 112 117 115
3 95 117 114
3 110 112 113
3 24 26 110
3 29 26 25
3 72 153 150
3 52 31 53
3 73 153 72
3 53 73 52
3 28 149 152
3 31 28 32
3 148 151 149
3 150 153 148
3 29 25 62
3 63 93 62
3 95 114 93
3 114 117 112
3 109 112 110
3 26 97 110
3 30 26 29
3 31 34 53
3 73 157 153
3 75 73 53
3 149 151 152
3 32 28 152
3 34 31 32
3 148 153 151
3 61 29 62
3 62 93 92
3 93 114 111
3 109 114 112
3 97 109 110
3 26 30 97
3 33 30 29
3 53 34 54
3 75 157 73
3 153 157 151
3 54 75 53
3 151 154 152
3 32 152 155
3 34 32 35
3 33 29 61
3 62 92 61
3 93 111 92
3 111 114 109
3 105 109 97
3 30 98 97
3 36 30 33
3 34 39 54
3 77 157 75
3 151 157 154
3 77 75 54
3 152 154 155
3 35 32 155
3 39 34 35
3 60 33 61
3 61 92 89
3 92 111 108
3 105 111 109
3 96 105 97
3 30 37 98
3 96 97 98
3 36 37 30
3 36 33 60
3 54 39 55
3 77 159 157
3 157 159 154
3 55 77 54
3 155 154 156
3 35 155 156
3 39 35 40
3 61 89 60
3 89 92 99
3 108 111 105
3 92 108 99
3 104 105 96
3 37 142 98
3 142 96 98
3 38 37 36
3 59 36 60
3 55 39 56
3 77 162 159
3 154 159 158
3 79 77 55
3 154 158 156
3 40 35 156
3 43 39 40
3 60 89 88
3 88 89 99
3 106 108 105
3 99 108 107
3 106 105 104
3 96 172 104
3 37 38 142
3 142 172 96
3 41 38 36
3 41 36 59
3 60 88 59
3 39 43 56
3 56 79 55
3 79 162 77
3 159 162 158
3 158 160 156
3 40 156 161
3 43 40 44
3 99 173 88
3 107 108 106
3 107 173 99
3 104 172 106
3 38 170 142
3 170 172 142
3 42 38 41
3 58 41 59
3 59 88 85
3 43 47 56
3 81 79 56
3 79 166 162
3 158 162 160
3 156 160 161
3 44 40 161
3 47 43 44
3 88 173 85
3 106 173 107
3 172 173 106
3 38 42 170
3 169 172 170
3 45 42 41
3 45 41 58
3 59 85 58
3 56 47 57
3 81 166 79
3 57 81 56
3 162 166 160
3 160 163 161
3 44 161 164
3 47 44 46
3 85 173 171
3 169 173 172
3 42 165 170
3 165 169 170
3 45 46 42
3 57 45 58
3 58 85 83
3 47 45 57
3 81 168 166
3 83 81 57
3 160 166 163
3 161 163 164
3 46 44 164
3 47 46 45
3 171 173 169
3 85 171 83
3 42 46 165
3 167 169 165
3 58 83 57
3 83 168 81
3 166 168 163
3 164 163 165
3 46 164 165
3 167 171 169
3 83 171 168
3 163 167 165
3 163 168 167
3 168 171 167
3 0 1 2
