ply
format ascii 1.0
comment made by tesseract
element vertex 244
property float x
property float y
property float z
element face 488
property list uchar int vertex_indices
end_header
1.7120000 0.0409216 2.1786058
1.7120000 0.0405680 2.1789591
1.7120000 0.0398529 2.1780274
1.7120000 0.0417500 2.1792412
1.7120000 0.0415000 2.1796744
1.7120000 0.0402859 2.1777773
1.7120000 0.0394033 2.1769419
1.7120000 0.0427147 2.1796408
1.7120000 0.0425853 2.1801238
1.7120000 0.0398863 2.1768124
1.7120000 0.0392500 2.1757774
1.7120000 0.0437500 2.1797774
1.7120000 0.0437500 2.1802773
1.7120000 0.0397500 2.1757774
1.7120000 0.0447853 2.1796408
1.7120000 0.0449147 2.1801238
1.7120000 0.0398863 2.1747420
1.7120000 0.0394033 2.1746125
1.7120000 0.0457500 2.1792412
1.7120000 0.0460000 2.1796744
1.7120000 0.0402859 2.1737773
1.7120000 0.0398529 2.1735272
1.7120000 0.0465784 2.1786058
1.7120000 0.0409216 2.1729488
1.7120000 0.0405680 2.1725953
1.7120000 0.0469320 2.1789591
1.7120000 0.0472141 2.1777773
1.7120000 0.0417500 2.1723132
1.7120000 0.0415000 2.1718802
1.7120000 0.0476471 2.1780274
1.7120000 0.0476137 2.1768124
1.7120000 0.0427147 2.1719136
1.7120000 0.0425853 2.1714306
1.7120000 0.0480967 2.1769419
1.7120000 0.0437500 2.1717772
1.7120000 0.0477500 2.1757774
1.7120000 0.0437500 2.1712773
1.7120000 0.0482500 2.1757774
1.7120000 0.0447853 2.1719136
1.7120000 0.0449147 2.1714306
1.7120000 0.0457500 2.1723132
1.7120000 0.0480967 2.1746125
1.7120000 0.0476137 2.1747420
1.7120000 0.0460000 2.1718802
1.7120000 0.0465784 2.1729488
1.7120000 0.0476471 2.1735272
1.7120000 0.0472141 2.1737773
1.7120000 0.0469320 2.1725953
1.7270000 0.0437500 2.1802773
1.7270000 0.0449147 2.1801238
1.7270000 0.0460000 2.1796744
1.7270000 0.0469320 2.1789591
1.7270000 0.0476471 2.1780274
1.7270000 0.0480967 2.1769419
1.7270000 0.0482500 2.1757774
1.7270000 0.0480967 2.1746125
1.7270000 0.0476471 2.1735272
1.7270000 0.0469320 2.1725953
1.7270000 0.0460000 2.1718802
1.7270000 0.0449147 2.1714306
1.7270000 0.0437500 2.1712773
1.7270000 0.0407802 2.1728075
1.7270000 0.0405680 2.1725953
1.7270000 0.0398529 2.1735272
1.7270000 0.0401127 2.1736772
1.7270000 0.0416500 2.1721399
1.7270000 0.0415000 2.1718802
1.7270000 0.0394033 2.1746125
1.7270000 0.0396931 2.1746902
1.7270000 0.0426630 2.1717203
1.7270000 0.0425853 2.1714306
1.7270000 0.0392500 2.1757774
1.7270000 0.0395500 2.1757774
1.7270000 0.0437500 2.1715772
1.7270000 0.0394033 2.1769419
1.7270000 0.0396931 2.1768641
1.7270000 0.0448370 2.1717203
1.7270000 0.0398529 2.1780274
1.7270000 0.0401127 2.1778772
1.7270000 0.0458500 2.1721399
1.7270000 0.0405680 2.1789591
1.7270000 0.0407802 2.1787472
1.7270000 0.0467198 2.1728075
1.7270000 0.0416500 2.1794145
1.7270000 0.0473873 2.1736772
1.7270000 0.0415000 2.1796744
1.7270000 0.0426630 2.1798341
1.7270000 0.0425853 2.1801238
1.7270000 0.0478069 2.1746902
1.7270000 0.0479500 2.1757774
1.7270000 0.0437500 2.1799772
1.7270000 0.0448370 2.1798341
1.7270000 0.0478069 2.1768641
1.7270000 0.0458500 2.1794145
1.7270000 0.0473873 2.1778772
1.7270000 0.0467198 2.1787472
1.7279000 0.0437500 2.1715772
1.7279000 0.0426630 2.1717203
1.7279000 0.0416500 2.1721399
1.7279000 0.0407802 2.1728075
1.7279000 0.0401127 2.1736772
1.7279000 0.0396931 2.1746902
1.7279000 0.0395500 2.1757774
1.7279000 0.0396931 2.1768641
1.7279000 0.0401127 2.1778772
1.7279000 0.0407802 2.1787472
1.7279000 0.0416500 2.1794145
1.7279000 0.0426630 2.1798341
1.7279000 0.0437500 2.1799772
1.7279000 0.0448370 2.1798341
1.7279000 0.0458500 2.1794145
1.7279000 0.0467198 2.1787472
1.7279000 0.0473873 2.1778772
1.7279000 0.0478069 2.1768641
1.7279000 0.0479500 2.1757774
1.7279000 0.0478069 2.1746902
1.7279000 0.0473873 2.1736772
1.7279000 0.0467198 2.1728075
1.7279000 0.0458500 2.1721399
1.7279000 0.0448370 2.1717203
1.7279000 0.0466491 2.1728783
1.7279000 0.0473007 2.1737273
1.7279000 0.0458000 2.1722267
1.7279000 0.0477103 2.1747160
1.7279000 0.0448112 2.1718168
1.7279000 0.0478500 2.1757774
1.7279000 0.0437500 2.1716774
1.7279000 0.0477103 2.1768384
1.7279000 0.0426888 2.1718168
1.7279000 0.0473007 2.1778271
1.7279000 0.0417000 2.1722267
1.7279000 0.0466491 2.1786764
1.7279000 0.0408509 2.1728783
1.7279000 0.0458000 2.1793280
1.7279000 0.0401993 2.1737273
1.7279000 0.0448112 2.1797376
1.7279000 0.0397897 2.1747160
1.7279000 0.0437500 2.1798773
1.7279000 0.0396500 2.1757774
1.7279000 0.0426888 2.1797376
1.7279000 0.0397897 2.1768384
1.7279000 0.0417000 2.1793280
1.7279000 0.0401993 2.1778271
1.7279000 0.0408509 2.1786764
1.7278259 0.0397466 2.1757774
1.7278000 0.0398863 2.1768124
1.7278000 0.0397500 2.1757774
1.7278000 0.0476137 2.1768124
1.7278259 0.0477534 2.1757774
1.7278000 0.0477500 2.1757774
1.7278500 0.0397366 2.1757774
1.7278500 0.0398734 2.1768160
1.7278707 0.0397207 2.1757774
1.7278707 0.0398580 2.1768200
1.7278866 0.0397000 2.1757774
1.7278966 0.0398147 2.1768317
1.7278966 0.0396759 2.1757774
1.7278500 0.0402743 2.1777840
1.7278000 0.0402859 2.1777773
1.7278707 0.0402605 2.1777918
1.7278966 0.0402217 2.1778142
1.7278500 0.0409121 2.1786153
1.7278000 0.0409216 2.1786058
1.7278707 0.0409009 2.1786265
1.7278966 0.0408692 2.1786580
1.7278500 0.0417433 2.1792529
1.7278000 0.0417500 2.1792412
1.7278707 0.0417354 2.1792667
1.7278966 0.0417129 2.1793053
1.7278500 0.0427113 2.1796539
1.7278000 0.0427147 2.1796408
1.7278707 0.0427071 2.1796691
1.7278966 0.0426955 2.1797123
1.7278500 0.0437500 2.1797905
1.7278000 0.0437500 2.1797774
1.7278000 0.0447853 2.1796408
1.7278707 0.0437500 2.1798065
1.7278966 0.0437500 2.1798513
1.7278500 0.0447887 2.1796539
1.7278000 0.0457500 2.1792412
1.7278707 0.0447929 2.1796691
1.7278966 0.0448045 2.1797123
1.7278500 0.0457567 2.1792529
1.7278707 0.0457646 2.1792667
1.7278966 0.0457871 2.1793053
1.7278500 0.0465879 2.1786153
1.7278000 0.0465784 2.1786058
1.7278707 0.0465991 2.1786265
1.7278966 0.0466308 2.1786580
1.7278500 0.0472257 2.1777840
1.7278000 0.0472141 2.1777773
1.7278707 0.0472395 2.1777918
1.7278966 0.0472783 2.1778142
1.7278500 0.0476266 2.1768160
1.7278500 0.0477634 2.1757774
1.7278707 0.0476420 2.1768200
1.7278707 0.0477793 2.1757774
1.7278866 0.0478000 2.1757774
1.7278966 0.0476853 2.1768317
1.7278966 0.0478241 2.1757774
1.7278000 0.0476137 2.1747420
1.7278259 0.0476170 2.1747410
1.7278707 0.0476420 2.1747344
1.7278866 0.0476620 2.1747291
1.7278259 0.0472171 2.1737757
1.7278000 0.0472141 2.1737773
1.7278707 0.0472395 2.1737628
1.7278866 0.0472574 2.1737523
1.7278259 0.0465808 2.1729462
1.7278000 0.0465784 2.1729488
1.7278707 0.0465991 2.1729281
1.7278866 0.0466138 2.1729133
1.7278259 0.0457517 2.1723101
1.7278000 0.0457500 2.1723132
1.7278707 0.0457646 2.1722879
1.7278866 0.0457750 2.1722698
1.7278259 0.0447862 2.1719100
1.7278000 0.0447853 2.1719136
1.7278707 0.0447929 2.1718853
1.7278866 0.0447982 2.1718652
1.7278259 0.0437500 2.1717739
1.7278000 0.0437500 2.1717772
1.7278707 0.0437500 2.1717482
1.7278866 0.0437500 2.1717272
1.7278259 0.0427138 2.1719100
1.7278000 0.0427147 2.1719136
1.7278707 0.0427071 2.1718853
1.7278866 0.0427018 2.1718652
1.7278259 0.0417483 2.1723101
1.7278000 0.0417500 2.1723132
1.7278707 0.0417354 2.1722879
1.7278866 0.0417250 2.1722698
1.7278259 0.0409192 2.1729462
1.7278000 0.0409216 2.1729488
1.7278707 0.0409009 2.1729281
1.7278866 0.0408862 2.1729133
1.7278259 0.0402829 2.1737757
1.7278000 0.0402859 2.1737773
1.7278707 0.0402605 2.1737628
1.7278866 0.0402426 2.1737523
1.7278259 0.0398830 2.1747410
1.7278000 0.0398863 2.1747420
1.7278707 0.0398580 2.1747344
1.7278866 0.0398380 2.1747291
3 3 1 0
3 2 1 77
3 5 0 2
3 3 4 1
3 3 0 166
3 77 1 80
3 6 2 77
3 0 5 158
3 5 2 6
3 7 4 3
3 1 4 80
3 0 162 166
3 7 3 166
3 80 78 77
3 74 6 77
3 5 9 158
3 0 158 162
3 9 5 6
3 7 8 4
3 80 4 85
3 162 165 166
3 7 166 170
3 81 78 80
3 78 75 77
3 71 6 74
3 77 75 74
3 9 145 158
3 158 161 162
3 10 9 6
3 11 8 7
3 4 8 85
3 85 83 80
3 161 165 162
3 165 169 166
3 166 169 170
3 11 7 170
3 78 81 105
3 83 81 80
3 75 78 104
3 10 6 71
3 74 72 71
3 75 72 74
3 9 13 145
3 145 157 158
3 157 161 158
3 13 9 10
3 11 12 8
3 85 8 87
3 86 83 85
3 161 167 165
3 165 171 169
3 169 173 170
3 11 170 174
3 105 81 106
3 104 78 105
3 81 83 106
3 103 75 104
3 67 10 71
3 72 68 71
3 72 75 103
3 13 146 145
3 151 157 145
3 157 163 161
3 16 13 10
3 14 12 11
3 8 12 87
3 87 86 85
3 83 86 106
3 163 167 161
3 167 171 165
3 171 176 169
3 169 176 173
3 170 173 174
3 14 11 174
3 105 106 143
3 105 142 104
3 104 140 103
3 17 10 67
3 71 68 67
3 68 72 102
3 102 72 103
3 13 16 146
3 144 145 146
3 151 159 157
3 144 151 145
3 159 163 157
3 16 10 17
3 14 15 12
3 87 12 48
3 48 86 87
3 106 86 107
3 163 168 167
3 167 172 171
3 172 176 171
3 176 180 173
3 174 173 175
3 14 174 175
3 143 106 141
3 105 143 142
3 104 142 140
3 103 140 138
3 63 17 67
3 68 64 67
3 101 68 102
3 103 138 102
3 16 241 146
3 146 240 144
3 153 159 151
3 150 151 144
3 159 164 163
3 20 16 17
3 18 15 14
3 12 15 49
3 48 12 49
3 48 90 86
3 107 86 108
3 106 107 141
3 164 168 163
3 168 172 167
3 172 177 176
3 176 181 180
3 173 180 178
3 173 178 175
3 18 14 175
3 141 164 143
3 143 164 142
3 142 160 140
3 140 155 138
3 21 17 63
3 67 64 63
3 64 68 101
3 102 136 101
3 102 138 136
3 16 20 241
3 241 240 146
3 144 240 150
3 153 160 159
3 150 153 151
3 160 164 159
3 20 17 21
3 18 19 15
3 15 19 49
3 49 90 48
3 86 90 108
3 107 108 139
3 141 107 139
3 141 168 164
3 141 172 168
3 139 177 172
3 177 181 176
3 181 184 180
3 180 183 178
3 175 178 179
3 18 175 179
3 142 164 160
3 140 160 155
3 138 155 156
3 62 21 63
3 64 61 63
3 100 64 101
3 101 136 134
3 136 138 156
3 20 237 241
3 237 240 241
3 240 242 150
3 155 160 153
3 152 153 150
3 23 20 21
3 22 19 18
3 49 19 50
3 49 91 90
3 90 91 108
3 139 108 137
3 139 172 141
3 137 177 139
3 135 181 177
3 135 184 181
3 180 184 183
3 178 183 182
3 178 182 179
3 22 18 179
3 156 155 154
3 24 21 62
3 61 62 63
3 61 64 100
3 101 134 100
3 136 243 134
3 156 243 136
3 20 23 237
3 236 240 237
3 236 242 240
3 150 242 152
3 154 155 153
3 154 153 152
3 24 23 21
3 25 19 22
3 50 19 51
3 50 91 49
3 108 91 109
3 108 109 137
3 135 177 137
3 133 184 135
3 184 187 183
3 183 187 182
3 182 185 179
3 22 179 186
3 154 243 156
3 28 24 62
3 65 62 61
3 99 61 100
3 100 134 132
3 134 243 239
3 23 233 237
3 233 236 237
3 238 242 236
3 242 243 152
3 152 243 154
3 27 23 24
3 19 25 51
3 26 25 22
3 51 93 50
3 50 93 91
3 91 93 109
3 137 109 135
3 131 184 133
3 135 110 133
3 184 188 187
3 182 187 185
3 179 185 186
3 22 186 190
3 28 27 24
3 66 28 62
3 65 66 62
3 65 61 99
3 100 132 99
3 134 235 132
3 239 243 238
3 134 239 235
3 23 27 233
3 232 236 233
3 238 243 242
3 232 238 236
3 25 29 51
3 29 25 26
3 26 22 190
3 51 95 93
3 109 93 110
3 109 110 135
3 131 188 184
3 133 111 131
3 110 111 133
3 188 191 187
3 187 191 185
3 185 189 186
3 186 189 190
3 31 27 28
3 70 28 66
3 69 66 65
3 98 65 99
3 132 130 99
3 132 235 231
3 234 239 238
3 235 239 234
3 27 229 233
3 229 232 233
3 234 238 232
3 51 29 52
3 30 29 26
3 30 26 190
3 51 94 95
3 93 95 110
3 131 192 188
3 111 112 131
3 110 95 111
3 188 192 191
3 185 191 189
3 189 193 190
3 27 31 229
3 32 31 28
3 32 28 70
3 69 70 66
3 69 65 98
3 99 130 98
3 132 231 130
3 231 235 230
3 230 235 234
3 228 232 229
3 230 234 232
3 52 29 53
3 51 52 94
3 33 29 30
3 30 190 147
3 95 94 111
3 129 192 131
3 111 94 112
3 131 112 129
3 192 195 191
3 191 193 189
3 190 193 147
3 31 225 229
3 34 31 32
3 60 32 70
3 60 70 69
3 97 69 98
3 130 128 98
3 130 231 227
3 226 231 230
3 230 232 228
3 225 228 229
3 29 33 53
3 52 53 92
3 52 92 94
3 35 33 30
3 30 147 149
3 127 192 129
3 94 92 112
3 129 112 113
3 192 198 195
3 191 195 193
3 147 193 148
3 31 34 225
3 36 34 32
3 36 32 60
3 73 60 69
3 96 69 97
3 98 128 97
3 130 227 128
3 227 231 226
3 226 230 224
3 224 230 228
3 224 228 225
3 33 37 53
3 53 89 92
3 37 33 35
3 35 30 149
3 147 148 149
3 127 198 192
3 129 113 127
3 112 92 113
3 195 198 197
3 193 195 194
3 148 193 194
3 34 221 225
3 38 34 36
3 59 36 60
3 76 60 73
3 73 69 96
3 97 126 96
3 128 126 97
3 128 227 223
3 222 227 226
3 220 226 224
3 221 224 225
3 53 37 54
3 53 54 89
3 92 89 113
3 41 37 35
3 42 35 149
3 148 200 149
3 125 198 127
3 127 113 114
3 197 198 199
3 196 195 197
3 194 195 196
3 194 201 148
3 34 38 221
3 39 38 36
3 39 36 59
3 76 59 60
3 76 73 96
3 126 124 96
3 128 223 126
3 223 227 222
3 222 226 220
3 220 224 221
3 37 41 54
3 54 55 89
3 113 89 114
3 41 35 42
3 42 149 200
3 148 201 200
3 199 198 125
3 127 114 125
3 199 203 197
3 197 202 196
3 196 202 194
3 194 202 201
3 38 217 221
3 39 40 38
3 43 39 59
3 79 59 76
3 119 76 96
3 126 223 124
3 96 124 119
3 218 223 222
3 218 222 220
3 217 220 221
3 54 41 55
3 89 55 88
3 89 88 114
3 45 41 42
3 42 200 205
3 201 204 200
3 125 123 199
3 125 114 115
3 123 203 199
3 197 203 202
3 202 206 201
3 38 40 217
3 43 40 39
3 58 43 59
3 79 58 59
3 79 76 118
3 118 76 119
3 124 223 219
3 124 122 119
3 219 223 218
3 218 220 216
3 216 220 217
3 41 45 55
3 55 84 88
3 114 88 115
3 45 42 46
3 200 204 205
3 46 42 205
3 201 206 204
3 125 115 123
3 123 207 203
3 203 207 202
3 202 207 206
3 40 213 217
3 43 44 40
3 57 43 58
3 57 58 79
3 117 79 118
3 119 122 118
3 124 219 215
3 124 215 122
3 214 219 218
3 214 218 216
3 213 216 217
3 55 45 56
3 55 56 84
3 88 84 115
3 47 45 46
3 204 208 205
3 46 205 209
3 206 210 204
3 123 115 116
3 121 207 123
3 207 211 206
3 40 44 213
3 47 44 43
3 47 43 57
3 57 79 82
3 82 79 117
3 118 120 117
3 122 120 118
3 215 219 214
3 122 215 211
3 214 216 212
3 212 216 213
3 56 45 57
3 56 57 84
3 115 84 116
3 45 47 57
3 47 46 44
3 204 210 208
3 205 208 209
3 44 46 209
3 206 211 210
3 123 116 121
3 121 211 207
3 44 209 213
3 84 57 82
3 116 82 117
3 121 117 120
3 122 211 120
3 210 215 214
3 211 215 210
3 208 214 212
3 209 212 213
3 84 82 116
3 210 214 208
3 208 212 209
3 121 116 117
3 120 211 121
3 0 1 2
