ply
format ascii 1.0
comment made by tesseract
element vertex 255
property float x
property float y
property float z
element face 510
property list uchar int vertex_indices
end_header
0.4866500 0.2200000 1.9621421
0.4871213 0.2200000 1.9628787
0.4873335 0.2200000 1.9626665
0.4875981 0.2200000 1.9635000
0.4878579 0.2200000 1.9633499
0.4865000 0.2200000 1.9624020
0.4858541 0.2200000 1.9618125
0.4878978 0.2200000 1.9642235
0.4881876 0.2200000 1.9641459
0.4857765 0.2200000 1.9621022
0.4850000 0.2200000 1.9617000
0.4880000 0.2200000 1.9650000
0.4883000 0.2200000 1.9650000
0.4850000 0.2200000 1.9620000
0.4878978 0.2200000 1.9657764
0.4881876 0.2200000 1.9658542
0.4841459 0.2200000 1.9618125
0.4842235 0.2200000 1.9621022
0.4875981 0.2200000 1.9665000
0.4878579 0.2200000 1.9666500
0.4833500 0.2200000 1.9621421
0.4835000 0.2200000 1.9624020
0.4871213 0.2200000 1.9671214
0.4828787 0.2200000 1.9628787
0.4873335 0.2200000 1.9673336
0.4826665 0.2200000 1.9626665
0.4865000 0.2200000 1.9675981
0.4824019 0.2200000 1.9635000
0.4866500 0.2200000 1.9678580
0.4821421 0.2200000 1.9633499
0.4857765 0.2200000 1.9678978
0.4821022 0.2200000 1.9642235
0.4858541 0.2200000 1.9681875
0.4818124 0.2200000 1.9641459
0.4850000 0.2200000 1.9680001
0.4820000 0.2200000 1.9650000
0.4850000 0.2200000 1.9683001
0.4817000 0.2200000 1.9650000
0.4821022 0.2200000 1.9657764
0.4841459 0.2200000 1.9681875
0.4842235 0.2200000 1.9678978
0.4818124 0.2200000 1.9658542
0.4824019 0.2200000 1.9665000
0.4833500 0.2200000 1.9678580
0.4835000 0.2200000 1.9675981
0.4821421 0.2200000 1.9666500
0.4828787 0.2200000 1.9671214
0.4826665 0.2200000 1.9673336
0.4817000 0.2223000 1.9650000
0.4818124 0.2223000 1.9658542
0.4821421 0.2223000 1.9666500
0.4826665 0.2223000 1.9673336
0.4833500 0.2223000 1.9678580
0.4841459 0.2223000 1.9681875
0.4850000 0.2223000 1.9683001
0.4858541 0.2223000 1.9681875
0.4866500 0.2223000 1.9678580
0.4873335 0.2223000 1.9673336
0.4878579 0.2223000 1.9666500
0.4881876 0.2223000 1.9658542
0.4883000 0.2223000 1.9650000
0.4827372 0.2223000 1.9672627
0.4822287 0.2223000 1.9665999
0.4834000 0.2223000 1.9677713
0.4819090 0.2223000 1.9658283
0.4841718 0.2223000 1.9680909
0.4818000 0.2223000 1.9650000
0.4850000 0.2223000 1.9682000
0.4818124 0.2223000 1.9641459
0.4819090 0.2223000 1.9641718
0.4858282 0.2223000 1.9680909
0.4822287 0.2223000 1.9634000
0.4821421 0.2223000 1.9633499
0.4866000 0.2223000 1.9677713
0.4826665 0.2223000 1.9626665
0.4827372 0.2223000 1.9627373
0.4872628 0.2223000 1.9672627
0.4877713 0.2223000 1.9665999
0.4833500 0.2223000 1.9621421
0.4834000 0.2223000 1.9622288
0.4841459 0.2223000 1.9618125
0.4841718 0.2223000 1.9619091
0.4880910 0.2223000 1.9658283
0.4882000 0.2223000 1.9650000
0.4850000 0.2223000 1.9617000
0.4850000 0.2223000 1.9618001
0.4858282 0.2223000 1.9619091
0.4858541 0.2223000 1.9618125
0.4881876 0.2223000 1.9641459
0.4880910 0.2223000 1.9641718
0.4877713 0.2223000 1.9634000
0.4866500 0.2223000 1.9621421
0.4866000 0.2223000 1.9622288
0.4878579 0.2223000 1.9633499
0.4872628 0.2223000 1.9627373
0.4873335 0.2223000 1.9626665
0.4850000 0.2235000 1.9682000
0.4841718 0.2235000 1.9680909
0.4834000 0.2235000 1.9677713
0.4827372 0.2235000 1.9672627
0.4822287 0.2235000 1.9665999
0.4819090 0.2235000 1.9658283
0.4818000 0.2235000 1.9650000
0.4819090 0.2235000 1.9641718
0.4822287 0.2235000 1.9634000
0.4827372 0.2235000 1.9627373
0.4834000 0.2235000 1.9622288
0.4841718 0.2235000 1.9619091
0.4850000 0.2235000 1.9618001
0.4858282 0.2235000 1.9619091
0.4866000 0.2235000 1.9622288
0.4872628 0.2235000 1.9627373
0.4877713 0.2235000 1.9634000
0.4880910 0.2235000 1.9641718
0.4882000 0.2235000 1.9650000
0.4880910 0.2235000 1.9658283
0.4877713 0.2235000 1.9665999
0.4872628 0.2235000 1.9672627
0.4866000 0.2235000 1.9677713
0.4858282 0.2235000 1.9680909
0.4834500 0.2235000 1.9676847
0.4828080 0.2235000 1.9671921
0.4823153 0.2235000 1.9665500
0.4820056 0.2235000 1.9658023
0.4841977 0.2235000 1.9679943
0.4819000 0.2235000 1.9650000
0.4850000 0.2235000 1.9681000
0.4820056 0.2235000 1.9641976
0.4858024 0.2235000 1.9679943
0.4823153 0.2235000 1.9634500
0.4865500 0.2235000 1.9676847
0.4828080 0.2235000 1.9628080
0.4871920 0.2235000 1.9671921
0.4834500 0.2235000 1.9623153
0.4876847 0.2235000 1.9665500
0.4879944 0.2235000 1.9658023
0.4841977 0.2235000 1.9620056
0.4881000 0.2235000 1.9650000
0.4850000 0.2235000 1.9619000
0.4879944 0.2235000 1.9641976
0.4858024 0.2235000 1.9620056
0.4876847 0.2235000 1.9634500
0.4865500 0.2235000 1.9623153
0.4871920 0.2235000 1.9628080
0.4850000 0.2234966 1.9619259
0.4857765 0.2234000 1.9678978
0.4850000 0.2234259 1.9680034
0.4850000 0.2234000 1.9680001
0.4850000 0.2234966 1.9680741
0.4850000 0.2234259 1.9619966
0.4857773 0.2234259 1.9620988
0.4850000 0.2234000 1.9620000
0.4850000 0.2234500 1.9619865
0.4857765 0.2234000 1.9621022
0.4850000 0.2234707 1.9619707
0.4857840 0.2234707 1.9620739
0.4850000 0.2234866 1.9619499
0.4857894 0.2234866 1.9620540
0.4865017 0.2234259 1.9623989
0.4865000 0.2234000 1.9624020
0.4865147 0.2234707 1.9623766
0.4865250 0.2234866 1.9623586
0.4871237 0.2234259 1.9628762
0.4871213 0.2234000 1.9628787
0.4871420 0.2234707 1.9628580
0.4871567 0.2234866 1.9628434
0.4876010 0.2234259 1.9634982
0.4875981 0.2234000 1.9635000
0.4876235 0.2234707 1.9634854
0.4876414 0.2234866 1.9634750
0.4879011 0.2234259 1.9642227
0.4878978 0.2234000 1.9642235
0.4879261 0.2234707 1.9642160
0.4879461 0.2234866 1.9642106
0.4880034 0.2234259 1.9650000
0.4880000 0.2234000 1.9650000
0.4880293 0.2234707 1.9650000
0.4880500 0.2234866 1.9650000
0.4879011 0.2234259 1.9657774
0.4878978 0.2234000 1.9657764
0.4879261 0.2234707 1.9657841
0.4879461 0.2234866 1.9657894
0.4876010 0.2234259 1.9665017
0.4875981 0.2234000 1.9665000
0.4876235 0.2234707 1.9665147
0.4876414 0.2234866 1.9665251
0.4871237 0.2234259 1.9671237
0.4871213 0.2234000 1.9671214
0.4871420 0.2234707 1.9671421
0.4871567 0.2234866 1.9671566
0.4865017 0.2234259 1.9676011
0.4865000 0.2234000 1.9675981
0.4865147 0.2234707 1.9676235
0.4865250 0.2234866 1.9676414
0.4857773 0.2234259 1.9679011
0.4850000 0.2234500 1.9680134
0.4857840 0.2234707 1.9679260
0.4850000 0.2234707 1.9680293
0.4857894 0.2234866 1.9679461
0.4850000 0.2234866 1.9680500
0.4842227 0.2234259 1.9679011
0.4842235 0.2234000 1.9678978
0.4842201 0.2234500 1.9679108
0.4842160 0.2234707 1.9679260
0.4842044 0.2234966 1.9679694
0.4834983 0.2234259 1.9676011
0.4835000 0.2234000 1.9675981
0.4834933 0.2234500 1.9676096
0.4834853 0.2234707 1.9676235
0.4834630 0.2234966 1.9676622
0.4828763 0.2234259 1.9671237
0.4828787 0.2234000 1.9671214
0.4828692 0.2234500 1.9671308
0.4828580 0.2234707 1.9671421
0.4828263 0.2234966 1.9671737
0.4823990 0.2234259 1.9665017
0.4824019 0.2234000 1.9665000
0.4821022 0.2234000 1.9657764
0.4823903 0.2234500 1.9665067
0.4823765 0.2234707 1.9665147
0.4823377 0.2234966 1.9665371
0.4820989 0.2234259 1.9657774
0.4820893 0.2234500 1.9657799
0.4820739 0.2234707 1.9657841
0.4820306 0.2234966 1.9657956
0.4819966 0.2234259 1.9650000
0.4820000 0.2234000 1.9650000
0.4821022 0.2234000 1.9642235
0.4819866 0.2234500 1.9650000
0.4819707 0.2234707 1.9650000
0.4819259 0.2234966 1.9650000
0.4820989 0.2234259 1.9642227
0.4820893 0.2234500 1.9642200
0.4820739 0.2234707 1.9642160
0.4820306 0.2234966 1.9642043
0.4823990 0.2234259 1.9634982
0.4824019 0.2234000 1.9635000
0.4828787 0.2234000 1.9628787
0.4823903 0.2234500 1.9634932
0.4823765 0.2234707 1.9634854
0.4823377 0.2234966 1.9634629
0.4828763 0.2234259 1.9628762
0.4828692 0.2234500 1.9628693
0.4828580 0.2234707 1.9628580
0.4828263 0.2234966 1.9628263
0.4834983 0.2234259 1.9623989
0.4835000 0.2234000 1.9624020
0.4834933 0.2234500 1.9623904
0.4834853 0.2234707 1.9623766
0.4834630 0.2234966 1.9623377
0.4842227 0.2234259 1.9620988
0.4842235 0.2234000 1.9621022
0.4842201 0.2234500 1.9620892
0.4842160 0.2234707 1.9620739
0.4842044 0.2234966 1.9620306
3 0 5 1
3 1 3 2
3 2 91 0
3 0 6 5
3 1 5 163
3 3 1 163
3 2 3 4
3 95 91 2
3 91 87 0
3 0 87 6
3 6 9 5
3 5 159 163
3 3 163 167
3 3 7 4
3 4 95 2
3 95 94 91
3 91 86 87
3 87 84 6
3 6 10 9
3 5 9 159
3 159 162 163
3 163 166 167
3 7 3 167
3 4 7 8
3 93 95 4
3 95 90 94
3 94 92 91
3 91 92 86
3 87 86 84
3 6 84 10
3 10 13 9
3 9 153 159
3 158 162 159
3 162 166 163
3 166 170 167
3 7 167 171
3 7 11 8
3 8 93 4
3 95 93 90
3 94 90 112
3 92 94 110
3 86 92 109
3 86 85 84
3 84 80 10
3 10 17 13
3 9 13 153
3 153 158 159
3 158 164 162
3 164 166 162
3 166 172 170
3 167 170 171
3 11 7 171
3 8 11 12
3 88 93 8
3 93 88 90
3 90 89 112
3 111 94 112
3 110 94 111
3 109 92 110
3 108 86 109
3 85 86 108
3 84 85 81
3 84 81 80
3 10 80 16
3 16 17 10
3 13 17 151
3 13 151 153
3 150 158 153
3 160 164 158
3 164 168 166
3 168 172 166
3 172 176 170
3 170 174 171
3 11 171 175
3 11 14 12
3 12 88 8
3 90 88 89
3 112 89 113
3 111 112 141
3 111 143 110
3 110 142 109
3 109 138 108
3 107 85 108
3 81 85 107
3 80 81 79
3 80 78 16
3 16 21 17
3 17 251 151
3 151 150 153
3 150 160 158
3 160 165 164
3 164 169 168
3 168 173 172
3 172 177 176
3 170 176 174
3 171 174 175
3 11 175 179
3 14 11 179
3 12 14 15
3 60 88 12
3 88 83 89
3 89 83 113
3 112 113 141
3 111 141 143
3 143 142 110
3 142 140 109
3 109 140 138
3 108 138 136
3 108 136 107
3 106 81 107
3 79 81 106
3 80 79 78
3 16 78 20
3 20 21 16
3 17 21 251
3 251 250 151
3 149 150 151
3 155 160 150
3 161 165 160
3 165 169 164
3 169 173 168
3 173 177 172
3 177 180 176
3 176 180 174
3 174 178 175
3 175 178 179
3 18 14 179
3 14 18 15
3 15 60 12
3 88 60 83
3 113 83 114
3 141 113 139
3 141 169 143
3 143 165 142
3 142 161 140
3 138 140 144
3 138 254 136
3 107 136 106
3 105 79 106
3 78 79 75
3 78 74 20
3 20 23 21
3 21 246 251
3 246 250 251
3 151 250 149
3 152 150 149
3 155 161 160
3 152 155 150
3 142 165 161
3 143 169 165
3 139 173 169
3 139 177 173
3 177 181 180
3 174 180 178
3 178 182 179
3 18 179 183
3 15 18 19
3 59 60 15
3 60 59 83
3 83 82 114
3 113 114 137
3 113 137 139
3 139 169 141
3 140 161 157
3 140 157 144
3 144 254 138
3 136 254 133
3 136 133 106
3 75 79 105
3 106 131 105
3 78 75 74
3 20 74 25
3 20 25 23
3 21 23 246
3 245 250 246
3 149 250 152
3 157 161 155
3 154 155 152
3 137 177 139
3 137 181 177
3 181 185 180
3 180 182 178
3 179 182 183
3 22 18 183
3 18 22 19
3 19 58 15
3 58 59 15
3 83 59 82
3 114 82 115
3 114 135 137
3 144 157 156
3 156 254 144
3 133 254 249
3 106 133 131
3 104 75 105
3 105 131 129
3 75 71 74
3 25 74 29
3 25 27 23
3 23 237 246
3 245 252 250
3 237 245 246
3 250 252 152
3 154 157 155
3 152 253 154
3 135 181 137
3 135 185 181
3 180 185 184
3 180 184 182
3 182 186 183
3 22 183 187
3 22 24 19
3 57 58 19
3 59 58 77
3 59 77 82
3 82 77 115
3 114 115 135
3 156 157 154
3 253 254 156
3 249 254 248
3 133 249 131
3 71 75 104
3 105 129 104
3 131 244 129
3 74 71 72
3 74 72 29
3 25 29 27
3 23 27 237
3 247 252 245
3 241 245 237
3 252 253 152
3 154 253 156
3 134 185 135
3 185 189 184
3 184 188 182
3 182 188 186
3 183 186 187
3 26 22 187
3 22 26 24
3 24 57 19
3 58 57 77
3 115 77 116
3 115 116 135
3 248 254 253
3 243 249 248
3 131 249 244
3 69 71 104
3 129 103 104
3 129 244 240
3 71 68 72
3 72 68 29
3 29 31 27
3 27 236 237
3 247 253 252
3 241 247 245
3 235 241 237
3 132 185 134
3 135 116 134
3 132 189 185
3 184 189 188
3 188 192 186
3 186 190 187
3 26 187 191
3 26 28 24
3 28 57 24
3 77 57 76
3 116 77 117
3 248 253 247
3 244 249 243
3 243 248 247
3 71 69 68
3 103 69 104
3 129 127 103
3 240 244 239
3 129 240 127
3 29 68 33
3 29 33 31
3 27 31 236
3 236 235 237
3 242 247 241
3 238 241 235
3 116 132 134
3 130 189 132
3 189 192 188
3 186 192 190
3 187 190 191
3 30 26 191
3 26 30 28
3 56 57 28
3 57 73 76
3 77 76 117
3 116 117 132
3 239 244 243
3 243 247 242
3 69 66 68
3 102 69 103
3 127 125 103
3 233 240 239
3 127 240 234
3 68 48 33
3 33 35 31
3 31 227 236
3 227 235 236
3 238 242 241
3 231 238 235
3 130 193 189
3 117 130 132
3 189 193 192
3 192 196 190
3 190 194 191
3 30 191 145
3 30 32 28
3 57 56 73
3 55 56 28
3 76 73 117
3 239 243 238
3 238 243 242
3 66 69 102
3 68 66 48
3 103 125 102
3 127 234 125
3 234 240 233
3 233 239 232
3 33 48 37
3 33 37 35
3 31 35 227
3 231 235 227
3 232 238 231
3 130 198 193
3 117 118 130
3 193 198 192
3 192 198 196
3 190 196 194
3 191 194 145
3 30 145 147
3 30 34 32
3 32 55 28
3 73 56 70
3 56 55 70
3 117 73 118
3 232 239 238
3 101 66 102
3 66 49 48
3 125 101 102
3 125 234 230
3 229 234 233
3 229 233 232
3 48 49 37
3 37 38 35
3 35 226 227
3 225 231 227
3 225 232 231
3 128 198 130
3 130 118 119
3 196 198 197
3 194 196 195
3 145 194 146
3 145 146 147
3 34 30 147
3 34 36 32
3 54 55 32
3 73 70 118
3 70 55 54
3 64 66 101
3 66 64 49
3 125 123 101
3 230 234 229
3 125 230 123
3 229 232 228
3 37 49 41
3 37 41 38
3 35 38 226
3 226 225 227
3 228 232 225
3 148 198 128
3 130 119 128
3 118 70 119
3 197 198 199
3 195 196 197
3 146 194 195
3 146 200 147
3 34 147 201
3 34 39 36
3 36 54 32
3 70 54 67
3 100 64 101
3 64 50 49
3 123 100 101
3 223 230 229
3 123 230 224
3 222 229 228
3 49 50 41
3 41 42 38
3 38 217 226
3 217 225 226
3 221 228 225
3 199 198 148
3 128 126 148
3 128 119 126
3 70 67 119
3 199 203 197
3 197 203 195
3 195 202 146
3 146 202 200
3 147 200 201
3 40 34 201
3 40 39 34
3 39 54 36
3 67 54 65
3 62 64 100
3 64 62 50
3 123 122 100
3 224 230 223
3 223 229 222
3 123 224 122
3 222 228 221
3 41 50 45
3 41 45 42
3 38 42 217
3 221 225 217
3 148 204 199
3 126 124 148
3 119 96 126
3 119 67 96
3 199 204 203
3 195 203 202
3 202 207 200
3 200 205 201
3 40 201 206
3 40 43 39
3 53 54 39
3 54 53 65
3 67 65 96
3 61 62 100
3 62 51 50
3 122 99 100
3 220 224 223
3 218 223 222
3 122 224 220
3 215 222 221
3 50 51 45
3 42 45 46
3 42 216 217
3 215 221 217
3 124 204 148
3 126 97 124
3 126 96 97
3 204 209 203
3 203 208 202
3 202 208 207
3 200 207 205
3 201 205 206
3 44 40 206
3 44 43 40
3 43 53 39
3 65 53 63
3 96 65 97
3 62 61 51
3 99 61 100
3 122 121 99
3 220 223 219
3 219 223 218
3 218 222 215
3 122 220 121
3 45 51 47
3 45 47 46
3 42 46 216
3 216 215 217
3 124 209 204
3 124 97 98
3 203 209 208
3 208 213 207
3 207 212 205
3 205 210 206
3 44 206 211
3 44 47 43
3 52 53 43
3 53 52 63
3 65 63 97
3 52 51 61
3 98 61 99
3 120 99 121
3 213 220 219
3 212 219 218
3 210 218 215
3 121 220 214
3 51 52 47
3 46 47 44
3 46 211 216
3 211 215 216
3 120 209 124
3 97 63 98
3 124 98 120
3 209 214 208
3 208 214 213
3 207 213 212
3 205 212 210
3 206 210 211
3 46 44 211
3 47 52 43
3 63 52 61
3 63 61 98
3 120 98 99
3 121 214 120
3 214 220 213
3 213 219 212
3 212 218 210
3 210 215 211
3 120 214 209
3 0 1 2
