ply
format ascii 1.0
comment made by tesseract
element vertex 120
property float x
property float y
property float z
element face 240
property list uchar int vertex_indices
end_header
0.2968978 -0.2262000 0.9792235
0.2970000 -0.2315000 0.9800000
0.2968978 -0.2315000 0.9792235
0.2970000 -0.2262000 0.9800000
0.2965981 -0.2262000 0.9785000
0.2965981 -0.2315000 0.9785000
0.2961213 -0.2262000 0.9778787
0.2961213 -0.2315000 0.9778787
0.2955000 -0.2315000 0.9774019
0.2955000 -0.2262000 0.9774019
0.2947765 -0.2315000 0.9771022
0.2947765 -0.2262000 0.9771022
0.2940000 -0.2315000 0.9770000
0.2940000 -0.2262000 0.9770000
0.2932235 -0.2262000 0.9771022
0.2932235 -0.2315000 0.9771022
0.2925000 -0.2315000 0.9774019
0.2925000 -0.2262000 0.9774019
0.2918787 -0.2262000 0.9778787
0.2918787 -0.2315000 0.9778787
0.2914019 -0.2315000 0.9785000
0.2914019 -0.2262000 0.9785000
0.2911022 -0.2262000 0.9792235
0.2911022 -0.2315000 0.9792235
0.2910000 -0.2315000 0.9800000
0.2910000 -0.2262000 0.9800000
0.2975355 -0.2315000 0.9835355
0.2961213 -0.2315000 0.9821213
0.2965000 -0.2315000 0.9843301
0.2983301 -0.2315000 0.9825000
0.2965981 -0.2315000 0.9815000
0.2955000 -0.2315000 0.9825981
0.2952941 -0.2315000 0.9848297
0.2988296 -0.2315000 0.9812941
0.2968978 -0.2315000 0.9807764
0.2947765 -0.2315000 0.9828978
0.2940000 -0.2315000 0.9850000
0.2990000 -0.2315000 0.9800000
0.2940000 -0.2315000 0.9830000
0.2927059 -0.2315000 0.9848297
0.2988296 -0.2315000 0.9787059
0.2932235 -0.2315000 0.9828978
0.2915000 -0.2315000 0.9843301
0.2983301 -0.2315000 0.9775000
0.2925000 -0.2315000 0.9825981
0.2904645 -0.2315000 0.9835355
0.2918787 -0.2315000 0.9821213
0.2975355 -0.2315000 0.9764645
0.2914019 -0.2315000 0.9815000
0.2896699 -0.2315000 0.9825000
0.2965000 -0.2315000 0.9756699
0.2911022 -0.2315000 0.9807764
0.2891704 -0.2315000 0.9812941
0.2952941 -0.2315000 0.9751704
0.2890000 -0.2315000 0.9800000
0.2940000 -0.2315000 0.9750000
0.2927059 -0.2315000 0.9751704
0.2891704 -0.2315000 0.9787059
0.2915000 -0.2315000 0.9756699
0.2896699 -0.2315000 0.9775000
0.2904645 -0.2315000 0.9764645
0.2940000 -0.2255926 0.9750000
0.2927059 -0.2255926 0.9751704
0.2915000 -0.2255926 0.9756699
0.2904645 -0.2255926 0.9764645
0.2896699 -0.2255926 0.9775000
0.2891704 -0.2255926 0.9787059
0.2890000 -0.2255926 0.9800000
0.2891704 -0.2255926 0.9812941
0.2896699 -0.2255926 0.9825000
0.2904645 -0.2255926 0.9835355
0.2915000 -0.2255926 0.9843301
0.2927059 -0.2255926 0.9848297
0.2940000 -0.2255926 0.9850000
0.2975355 -0.2255926 0.9835355
0.2956918 -0.2255926 0.9816918
0.2983301 -0.2255926 0.9825000
0.2965000 -0.2255926 0.9843301
0.2951963 -0.2255926 0.9820721
0.2960721 -0.2255926 0.9811963
0.2988296 -0.2255926 0.9812941
0.2963111 -0.2255926 0.9806193
0.2990000 -0.2255926 0.9800000
0.2952941 -0.2255926 0.9848297
0.2946193 -0.2255926 0.9823111
0.2940000 -0.2255926 0.9823925
0.2963926 -0.2255926 0.9800000
0.2988296 -0.2255926 0.9787059
0.2933807 -0.2255926 0.9823111
0.2963111 -0.2255926 0.9793807
0.2928037 -0.2255926 0.9820721
0.2960721 -0.2255926 0.9788037
0.2983301 -0.2255926 0.9775000
0.2923082 -0.2255926 0.9816918
0.2975355 -0.2255926 0.9764645
0.2956918 -0.2255926 0.9783081
0.2919279 -0.2255926 0.9811963
0.2965000 -0.2255926 0.9756699
0.2951963 -0.2255926 0.9779279
0.2916889 -0.2255926 0.9806193
0.2916074 -0.2255926 0.9800000
0.2952941 -0.2255926 0.9751704
0.2946193 -0.2255926 0.9776889
0.2940000 -0.2255926 0.9776074
0.2916889 -0.2255926 0.9793807
0.2919279 -0.2255926 0.9788037
0.2933807 -0.2255926 0.9776889
0.2923082 -0.2255926 0.9783081
0.2928037 -0.2255926 0.9779279
0.2968978 -0.2262000 0.9807764
0.2965981 -0.2262000 0.9815000
0.2961213 -0.2262000 0.9821213
0.2955000 -0.2262000 0.9825981
0.2947765 -0.2262000 0.9828978
0.2940000 -0.2262000 0.9830000
0.2932235 -0.2262000 0.9828978
0.2925000 -0.2262000 0.9825981
0.2918787 -0.2262000 0.9821213
0.2914019 -0.2262000 0.9815000
0.2911022 -0.2262000 0.9807764
3 0 3 1
3 37 2 1
3 4 0 2
3 3 0 86
3 3 34 1
3 40 2 37
3 37 1 33
3 0 4 89
3 4 2 5
3 0 89 86
3 109 3 86
3 3 109 34
3 33 1 34
3 40 5 2
3 37 87 40
3 33 82 37
3 4 91 89
3 6 4 5
3 86 89 87
3 109 86 81
3 109 30 34
3 33 34 29
3 43 5 40
3 82 87 37
3 87 92 40
3 80 82 33
3 4 6 91
3 89 91 87
3 6 5 7
3 82 86 87
3 81 86 82
3 110 109 81
3 109 110 30
3 29 34 30
3 29 80 33
3 43 7 5
3 40 92 43
3 87 91 92
3 80 81 82
3 6 95 91
3 6 7 8
3 110 81 79
3 110 27 30
3 29 30 26
3 76 80 29
3 43 47 7
3 43 92 47
3 91 94 92
3 79 81 80
3 6 98 95
3 91 95 94
3 47 8 7
3 9 6 8
3 111 110 79
3 110 111 27
3 26 30 27
3 26 76 29
3 76 79 80
3 92 94 47
3 6 9 98
3 98 97 95
3 95 97 94
3 47 50 8
3 9 8 10
3 111 79 75
3 111 31 27
3 26 27 28
3 74 76 26
3 75 79 76
3 94 97 47
3 9 102 98
3 98 101 97
3 47 97 50
3 50 10 8
3 11 9 10
3 112 111 75
3 111 112 31
3 27 31 28
3 28 77 26
3 74 75 76
3 77 74 26
3 9 11 102
3 102 101 98
3 97 101 53
3 50 97 53
3 50 53 10
3 11 10 12
3 112 75 78
3 112 35 31
3 28 31 32
3 32 77 28
3 74 78 75
3 77 78 74
3 11 103 102
3 102 61 101
3 53 101 55
3 10 53 12
3 13 11 12
3 113 112 78
3 112 113 35
3 31 35 32
3 83 77 32
3 77 84 78
3 11 13 103
3 103 61 102
3 101 61 55
3 53 55 12
3 14 13 12
3 113 78 84
3 113 38 35
3 32 35 36
3 83 84 77
3 36 83 32
3 13 106 103
3 103 62 61
3 61 62 55
3 12 55 15
3 13 14 106
3 14 12 15
3 114 113 84
3 113 114 38
3 35 38 36
3 83 85 84
3 73 83 36
3 106 62 103
3 55 62 56
3 55 56 15
3 14 108 106
3 14 15 16
3 114 84 85
3 114 41 38
3 36 38 39
3 73 85 83
3 72 73 36
3 106 63 62
3 62 63 56
3 15 56 16
3 14 17 108
3 108 63 106
3 17 14 16
3 115 114 85
3 114 115 41
3 38 41 39
3 39 72 36
3 73 88 85
3 72 88 73
3 56 63 58
3 56 58 16
3 17 107 108
3 108 64 63
3 18 17 16
3 115 85 88
3 115 44 41
3 41 42 39
3 42 72 39
3 72 90 88
3 58 63 60
3 16 58 19
3 17 18 107
3 107 64 108
3 63 64 60
3 18 16 19
3 116 115 88
3 115 116 44
3 41 44 42
3 71 72 42
3 71 90 72
3 116 88 90
3 58 60 19
3 18 105 107
3 65 64 107
3 64 65 60
3 18 19 20
3 116 117 44
3 44 45 42
3 45 71 42
3 71 93 90
3 116 90 93
3 19 60 20
3 18 21 105
3 105 65 107
3 60 65 59
3 21 18 20
3 117 116 93
3 117 46 44
3 44 46 45
3 70 71 45
3 71 70 93
3 20 60 59
3 21 104 105
3 66 65 105
3 65 66 59
3 22 21 20
3 118 117 93
3 117 48 46
3 46 49 45
3 49 70 45
3 70 96 93
3 20 59 23
3 21 22 104
3 104 66 105
3 59 66 57
3 22 20 23
3 117 118 48
3 118 93 96
3 48 49 46
3 69 70 49
3 70 69 96
3 23 59 57
3 22 100 104
3 100 66 104
3 66 67 57
3 22 23 24
3 118 51 48
3 119 118 96
3 48 52 49
3 52 69 49
3 69 68 96
3 23 57 54
3 22 25 100
3 67 66 100
3 57 67 54
3 23 54 24
3 25 22 24
3 118 119 51
3 51 52 48
3 119 96 99
3 68 69 52
3 96 68 99
3 25 119 100
3 68 67 100
3 67 68 54
3 24 54 51
3 119 25 24
3 119 24 51
3 51 54 52
3 119 99 100
3 54 68 52
3 99 68 100
3 0 1 2
