ply
format ascii 1.0
comment made by tesseract
element vertex 196
property float x
property float y
property float z
element face 392
property list uchar int vertex_indices
end_header
-0.0443629 -0.0536161 0.4460314
-0.0437714 -0.0539154 0.4465362
-0.0442171 -0.0536198 0.4458945
-0.0449297 -0.0533351 0.4455698
-0.0448218 -0.0533201 0.4454021
-0.0439450 -0.0538932 0.4466330
-0.0456069 -0.0530695 0.4452796
-0.0455441 -0.0530368 0.4450926
-0.0435149 -0.0541868 0.4472834
-0.0437045 -0.0541476 0.4473335
-0.0463483 -0.0528373 0.4451806
-0.0463349 -0.0527892 0.4449870
-0.0434652 -0.0544154 0.4480854
-0.0436579 -0.0543620 0.4480854
-0.0471033 -0.0526544 0.4452796
-0.0471403 -0.0525940 0.4450926
-0.0438083 -0.0545217 0.4488372
-0.0436256 -0.0545858 0.4488873
-0.0478205 -0.0525332 0.4455698
-0.0479053 -0.0524647 0.4454021
-0.0441455 -0.0546159 0.4495377
-0.0439852 -0.0546863 0.4496346
-0.0484511 -0.0524820 0.4460314
-0.0485779 -0.0524101 0.4458945
-0.0445196 -0.0547100 0.4502763
-0.0446464 -0.0546381 0.4501393
-0.0491123 -0.0524338 0.4465362
-0.0489521 -0.0525042 0.4466330
-0.0452770 -0.0545869 0.4506010
-0.0451922 -0.0546553 0.4507686
-0.0492892 -0.0525984 0.4473335
-0.0494719 -0.0525343 0.4472834
-0.0459942 -0.0544657 0.4508911
-0.0459572 -0.0545261 0.4510782
-0.0496323 -0.0527047 0.4480854
-0.0494396 -0.0527581 0.4480854
-0.0467626 -0.0543309 0.4511837
-0.0467492 -0.0542828 0.4509901
-0.0493930 -0.0529725 0.4488372
-0.0495826 -0.0529333 0.4488873
-0.0491525 -0.0532269 0.4495377
-0.0475534 -0.0540833 0.4510782
-0.0474906 -0.0540506 0.4508911
-0.0493261 -0.0532047 0.4496346
-0.0482757 -0.0538000 0.4507686
-0.0481678 -0.0537850 0.4506010
-0.0487346 -0.0535040 0.4501393
-0.0488804 -0.0535003 0.4502763
-0.0431546 -0.0532958 0.4483854
-0.0433150 -0.0534662 0.4491873
-0.0436747 -0.0535667 0.4499346
-0.0442090 -0.0535904 0.4505763
-0.0448816 -0.0535357 0.4510686
-0.0456466 -0.0534064 0.4513782
-0.0464520 -0.0532113 0.4514838
-0.0472428 -0.0529637 0.4513782
-0.0479651 -0.0526803 0.4510686
-0.0485698 -0.0523807 0.4505763
-0.0490155 -0.0520851 0.4499346
-0.0492720 -0.0518137 0.4491873
-0.0493217 -0.0515850 0.4483854
-0.0491613 -0.0514147 0.4475834
-0.0488017 -0.0513142 0.4468362
-0.0482674 -0.0512905 0.4461945
-0.0475948 -0.0513451 0.4457021
-0.0468297 -0.0514744 0.4453925
-0.0460243 -0.0516695 0.4452870
-0.0452335 -0.0519172 0.4453925
-0.0445112 -0.0522005 0.4457021
-0.0439066 -0.0525002 0.4461945
-0.0434608 -0.0527958 0.4468362
-0.0432043 -0.0530671 0.4475834
-0.0449240 -0.0535015 0.4509848
-0.0442724 -0.0535544 0.4505078
-0.0437548 -0.0535315 0.4498861
-0.0456651 -0.0533762 0.4512846
-0.0434064 -0.0534341 0.4491622
-0.0464453 -0.0531872 0.4513869
-0.0432510 -0.0532691 0.4483854
-0.0472114 -0.0529473 0.4512846
-0.0432991 -0.0530476 0.4476085
-0.0479112 -0.0526728 0.4509848
-0.0435476 -0.0527847 0.4468846
-0.0484969 -0.0523826 0.4505078
-0.0439794 -0.0524983 0.4462629
-0.0489287 -0.0520962 0.4498861
-0.0445652 -0.0522080 0.4457859
-0.0491772 -0.0518333 0.4491622
-0.0452649 -0.0519335 0.4454861
-0.0460310 -0.0516936 0.4453838
-0.0492254 -0.0516118 0.4483854
-0.0468112 -0.0515046 0.4454861
-0.0490700 -0.0514467 0.4476085
-0.0487216 -0.0513494 0.4468846
-0.0475524 -0.0513794 0.4457859
-0.0482039 -0.0513264 0.4462629
-0.0492013 -0.0516219 0.4483845
-0.0434198 -0.0531213 0.4476086
-0.0433632 -0.0533124 0.4483668
-0.0433732 -0.0533357 0.4483604
-0.0432768 -0.0532653 0.4483845
-0.0491515 -0.0517067 0.4483668
-0.0490009 -0.0515468 0.4476142
-0.0491549 -0.0517318 0.4483604
-0.0491549 -0.0516816 0.4483729
-0.0490045 -0.0515721 0.4476086
-0.0491648 -0.0516580 0.4483781
-0.0490129 -0.0514967 0.4476189
-0.0490278 -0.0514753 0.4476177
-0.0491807 -0.0516376 0.4483820
-0.0486634 -0.0514525 0.4469128
-0.0486673 -0.0514779 0.4469080
-0.0486725 -0.0514016 0.4469115
-0.0486850 -0.0513795 0.4469054
-0.0481619 -0.0514303 0.4463105
-0.0481664 -0.0514557 0.4463064
-0.0481667 -0.0513792 0.4463040
-0.0481757 -0.0513569 0.4462938
-0.0475306 -0.0514816 0.4458484
-0.0475358 -0.0515069 0.4458448
-0.0475300 -0.0514309 0.4458379
-0.0475346 -0.0514090 0.4458245
-0.0468125 -0.0516029 0.4455579
-0.0468186 -0.0516281 0.4455546
-0.0468057 -0.0515533 0.4455449
-0.0468054 -0.0515322 0.4455295
-0.0460566 -0.0517861 0.4454588
-0.0460636 -0.0518110 0.4454556
-0.0460433 -0.0517380 0.4454449
-0.0460378 -0.0517182 0.4454289
-0.0453144 -0.0520185 0.4455579
-0.0453222 -0.0520432 0.4455546
-0.0452947 -0.0519724 0.4455449
-0.0452841 -0.0519542 0.4455295
-0.0446365 -0.0522844 0.4458484
-0.0446450 -0.0523088 0.4458448
-0.0446109 -0.0522406 0.4458379
-0.0445956 -0.0522243 0.4458245
-0.0440690 -0.0525657 0.4463105
-0.0440782 -0.0525897 0.4463064
-0.0440385 -0.0525243 0.4463040
-0.0440193 -0.0525099 0.4462938
-0.0436506 -0.0528431 0.4469128
-0.0436603 -0.0528669 0.4469080
-0.0436166 -0.0528041 0.4469115
-0.0435945 -0.0527916 0.4469054
-0.0434099 -0.0530978 0.4476142
-0.0433474 -0.0532926 0.4483729
-0.0433738 -0.0530610 0.4476189
-0.0433267 -0.0532775 0.4483781
-0.0433026 -0.0532682 0.4483820
-0.0433500 -0.0530503 0.4476177
-0.0435236 -0.0534954 0.4491121
-0.0491083 -0.0519462 0.4491121
-0.0435138 -0.0534723 0.4491195
-0.0434785 -0.0534388 0.4491372
-0.0434555 -0.0534306 0.4491464
-0.0438513 -0.0535666 0.4498209
-0.0438608 -0.0535896 0.4498127
-0.0438190 -0.0535339 0.4498446
-0.0437983 -0.0535264 0.4498586
-0.0443528 -0.0535889 0.4504231
-0.0443617 -0.0536118 0.4504143
-0.0443248 -0.0535564 0.4504521
-0.0443076 -0.0535490 0.4504702
-0.0449841 -0.0535376 0.4508853
-0.0449923 -0.0535606 0.4508759
-0.0449615 -0.0535046 0.4509182
-0.0449486 -0.0534969 0.4509395
-0.0457022 -0.0534162 0.4511758
-0.0457095 -0.0534394 0.4511661
-0.0456858 -0.0533822 0.4512112
-0.0456778 -0.0533737 0.4512345
-0.0464581 -0.0532331 0.4512749
-0.0464645 -0.0532564 0.4512651
-0.0464482 -0.0531975 0.4513111
-0.0464455 -0.0531877 0.4513352
-0.0472003 -0.0530007 0.4511758
-0.0472059 -0.0530243 0.4511661
-0.0471968 -0.0529631 0.4512112
-0.0471992 -0.0529516 0.4512345
-0.0478782 -0.0527348 0.4508853
-0.0478831 -0.0527587 0.4508759
-0.0478806 -0.0526949 0.4509182
-0.0478877 -0.0526816 0.4509395
-0.0484457 -0.0524535 0.4504231
-0.0484499 -0.0524777 0.4504143
-0.0484530 -0.0524112 0.4504521
-0.0484640 -0.0523960 0.4504702
-0.0488641 -0.0521761 0.4498209
-0.0488678 -0.0522006 0.4498127
-0.0488749 -0.0521314 0.4498446
-0.0488888 -0.0521142 0.4498586
-0.0491048 -0.0519214 0.4491195
-0.0491177 -0.0518745 0.4491372
-0.0491333 -0.0518556 0.4491464
3 5 1 0
3 2 1 69
3 3 0 2
3 8 1 5
3 5 0 139
3 69 1 70
3 68 2 69
3 0 3 135
3 3 2 4
3 1 8 70
3 9 8 5
3 0 135 139
3 5 139 143
3 69 70 82
3 4 2 68
3 68 69 84
3 3 131 135
3 6 3 4
3 70 8 71
3 12 8 9
3 9 5 143
3 135 138 139
3 139 142 143
3 82 70 80
3 69 82 84
3 67 4 68
3 68 84 86
3 3 6 131
3 131 134 135
3 6 4 7
3 8 12 71
3 70 71 80
3 13 12 9
3 9 143 97
3 134 138 135
3 138 142 139
3 142 146 143
3 80 145 82
3 82 145 84
3 7 4 67
3 67 68 86
3 84 141 86
3 6 127 131
3 130 134 131
3 10 6 7
3 71 12 48
3 80 71 48
3 16 12 13
3 13 9 99
3 143 146 97
3 9 97 99
3 134 140 138
3 138 144 142
3 144 146 142
3 80 151 145
3 84 145 141
3 66 7 67
3 67 86 88
3 86 141 137
3 6 10 127
3 127 130 131
3 130 136 134
3 10 7 11
3 12 17 48
3 80 48 78
3 16 17 12
3 16 13 99
3 97 146 98
3 97 98 99
3 136 140 134
3 140 144 138
3 144 148 146
3 100 151 80
3 145 151 148
3 141 145 144
3 11 7 66
3 66 67 89
3 86 137 88
3 89 67 88
3 137 141 136
3 10 123 127
3 126 130 127
3 132 136 130
3 14 10 11
3 48 17 49
3 78 48 49
3 80 78 100
3 20 17 16
3 16 99 152
3 98 146 147
3 98 152 99
3 136 141 140
3 141 144 140
3 145 148 144
3 146 148 147
3 150 151 100
3 148 151 150
3 65 11 66
3 91 66 89
3 88 137 133
3 88 129 89
3 132 137 136
3 10 14 123
3 123 126 127
3 126 132 130
3 14 11 15
3 17 21 49
3 78 49 76
3 78 76 100
3 20 21 17
3 20 16 152
3 147 154 98
3 98 154 152
3 147 148 149
3 100 156 150
3 149 148 150
3 15 11 65
3 65 66 91
3 89 125 91
3 133 137 132
3 88 133 129
3 89 129 125
3 14 119 123
3 122 126 123
3 128 132 126
3 18 14 15
3 49 21 50
3 76 49 74
3 76 156 100
3 24 21 20
3 20 152 158
3 147 155 154
3 154 157 152
3 149 155 147
3 150 156 155
3 150 155 149
3 64 15 65
3 64 65 91
3 91 125 121
3 129 133 132
3 125 129 124
3 14 18 119
3 119 122 123
3 122 128 126
3 129 132 128
3 18 15 19
3 21 24 50
3 49 50 74
3 74 160 76
3 76 160 156
3 24 20 25
3 152 157 158
3 25 20 158
3 155 159 154
3 154 159 157
3 156 160 155
3 19 15 64
3 64 91 94
3 121 125 124
3 91 121 94
3 124 129 128
3 18 115 119
3 118 122 119
3 124 128 122
3 22 18 19
3 50 24 51
3 74 50 51
3 74 164 160
3 28 24 25
3 157 161 158
3 25 158 162
3 155 160 159
3 159 163 157
3 63 19 64
3 95 64 94
3 121 124 120
3 94 121 117
3 18 22 115
3 115 118 119
3 118 124 122
3 22 19 23
3 24 29 51
3 74 51 73
3 73 164 74
3 160 164 159
3 29 24 28
3 28 25 162
3 157 163 161
3 158 161 162
3 159 164 163
3 23 19 63
3 63 64 95
3 94 117 95
3 120 124 118
3 116 121 120
3 117 121 116
3 22 111 115
3 114 118 115
3 26 22 23
3 51 29 52
3 72 73 51
3 73 168 164
3 32 29 28
3 28 162 166
3 163 167 161
3 161 165 162
3 164 168 163
3 62 23 63
3 63 95 62
3 95 117 113
3 114 120 118
3 116 120 114
3 112 117 116
3 22 27 111
3 111 114 115
3 26 27 22
3 26 23 62
3 29 33 52
3 72 51 52
3 72 168 73
3 33 29 32
3 32 28 166
3 162 165 166
3 163 168 167
3 161 167 165
3 95 93 62
3 113 117 112
3 95 113 93
3 110 116 114
3 112 116 110
3 27 105 111
3 110 114 111
3 30 27 26
3 61 26 62
3 52 33 53
3 75 72 52
3 72 172 168
3 36 33 32
3 32 166 170
3 165 169 166
3 168 172 167
3 167 171 165
3 62 93 61
3 107 113 112
3 93 113 108
3 102 112 110
3 27 30 105
3 105 110 111
3 31 30 26
3 31 26 61
3 33 36 53
3 75 52 53
3 75 172 72
3 36 32 37
3 166 169 170
3 37 32 170
3 165 171 169
3 167 172 171
3 93 92 61
3 108 113 107
3 107 112 102
3 93 108 92
3 102 110 105
3 30 103 105
3 34 30 31
3 60 31 61
3 53 36 54
3 77 75 53
3 75 176 172
3 41 36 37
3 169 173 170
3 37 170 174
3 171 175 169
3 172 176 171
3 61 92 90
3 106 108 107
3 104 107 102
3 92 108 96
3 103 102 105
3 30 35 103
3 34 35 30
3 34 31 60
3 61 90 60
3 36 41 54
3 77 53 54
3 77 176 75
3 41 37 42
3 169 175 173
3 170 173 174
3 42 37 174
3 171 176 175
3 90 92 96
3 109 108 106
3 106 107 104
3 104 102 101
3 96 108 109
3 101 102 103
3 35 38 103
3 38 35 34
3 39 34 60
3 60 90 87
3 54 41 55
3 79 77 54
3 77 180 176
3 44 41 42
3 175 179 173
3 173 177 174
3 42 174 178
3 176 180 175
3 87 90 96
3 106 195 109
3 104 194 106
3 101 193 104
3 109 195 96
3 153 101 103
3 38 153 103
3 39 38 34
3 59 39 60
3 60 87 59
3 41 44 55
3 79 54 55
3 79 180 77
3 44 42 45
3 175 180 179
3 173 179 177
3 174 177 178
3 45 42 178
3 96 195 87
3 194 195 106
3 193 194 104
3 153 193 101
3 38 190 153
3 40 38 39
3 58 39 59
3 59 87 58
3 55 44 56
3 81 79 55
3 79 184 180
3 44 45 46
3 180 183 179
3 179 183 177
3 177 181 178
3 45 178 182
3 87 195 85
3 191 195 194
3 189 194 193
3 190 193 153
3 38 40 190
3 43 40 39
3 43 39 58
3 87 85 58
3 44 47 56
3 81 55 56
3 81 184 79
3 180 184 183
3 46 45 182
3 47 44 46
3 177 183 181
3 178 181 182
3 85 195 192
3 192 195 191
3 191 194 189
3 189 193 190
3 40 186 190
3 47 40 43
3 57 43 58
3 58 85 83
3 56 47 57
3 57 81 56
3 81 188 184
3 184 188 183
3 46 182 186
3 47 46 40
3 183 187 181
3 181 185 182
3 85 192 83
3 187 192 191
3 185 191 189
3 186 189 190
3 40 46 186
3 47 43 57
3 58 83 57
3 57 83 81
3 83 188 81
3 183 188 187
3 182 185 186
3 181 187 185
3 83 192 188
3 188 192 187
3 187 191 185
3 185 189 186
3 0 1 2
