ply
format ascii 1.0
comment made by tesseract
element vertex 174
property float x
property float y
property float z
element face 348
property list uchar int vertex_indices
end_header
0.3581213 -0.2360000 1.0031214
0.3587713 -0.2360000 1.0026000
0.3582627 -0.2360000 1.0032628
0.3585981 -0.2360000 1.0025001
0.3575000 -0.2360000 1.0035981
0.3576000 -0.2360000 1.0037713
0.3590910 -0.2360000 1.0018282
0.3588978 -0.2360000 1.0017765
0.3567764 -0.2360000 1.0038978
0.3568282 -0.2360000 1.0040909
0.3592000 -0.2360000 1.0010000
0.3590000 -0.2360000 1.0010000
0.3560000 -0.2360000 1.0039999
0.3560000 -0.2360000 1.0042000
0.3590910 -0.2360000 1.0001718
0.3588978 -0.2360000 1.0002235
0.3552235 -0.2360000 1.0038978
0.3551718 -0.2360000 1.0040909
0.3587713 -0.2360000 0.9994000
0.3585981 -0.2360000 0.9995000
0.3545000 -0.2360000 1.0035981
0.3544000 -0.2360000 1.0037713
0.3582627 -0.2360000 0.9987372
0.3581213 -0.2360000 0.9988787
0.3537372 -0.2360000 1.0032628
0.3538787 -0.2360000 1.0031214
0.3576000 -0.2360000 0.9982287
0.3575000 -0.2360000 0.9984019
0.3532287 -0.2360000 1.0026000
0.3534019 -0.2360000 1.0025001
0.3531022 -0.2360000 1.0017765
0.3568282 -0.2360000 0.9979091
0.3567764 -0.2360000 0.9981022
0.3529090 -0.2360000 1.0018282
0.3560000 -0.2360000 0.9978000
0.3560000 -0.2360000 0.9980000
0.3528000 -0.2360000 1.0010000
0.3530000 -0.2360000 1.0010000
0.3531022 -0.2360000 1.0002235
0.3551718 -0.2360000 0.9979091
0.3552235 -0.2360000 0.9981022
0.3529090 -0.2360000 1.0001718
0.3534019 -0.2360000 0.9995000
0.3544000 -0.2360000 0.9982287
0.3545000 -0.2360000 0.9984019
0.3532287 -0.2360000 0.9994000
0.3538787 -0.2360000 0.9988787
0.3537372 -0.2360000 0.9987372
0.3528000 -0.2372000 1.0010000
0.3529090 -0.2372000 1.0018282
0.3532287 -0.2372000 1.0026000
0.3537372 -0.2372000 1.0032628
0.3544000 -0.2372000 1.0037713
0.3551718 -0.2372000 1.0040909
0.3560000 -0.2372000 1.0042000
0.3568282 -0.2372000 1.0040909
0.3576000 -0.2372000 1.0037713
0.3582627 -0.2372000 1.0032628
0.3587713 -0.2372000 1.0026000
0.3590910 -0.2372000 1.0018282
0.3592000 -0.2372000 1.0010000
0.3590910 -0.2372000 1.0001718
0.3587713 -0.2372000 0.9994000
0.3582627 -0.2372000 0.9987372
0.3576000 -0.2372000 0.9982287
0.3568282 -0.2372000 0.9979091
0.3560000 -0.2372000 0.9978000
0.3551718 -0.2372000 0.9979091
0.3544000 -0.2372000 0.9982287
0.3537372 -0.2372000 0.9987372
0.3532287 -0.2372000 0.9994000
0.3529090 -0.2372000 1.0001718
0.3538080 -0.2372000 1.0031921
0.3544500 -0.2372000 1.0036846
0.3533153 -0.2372000 1.0025500
0.3551977 -0.2372000 1.0039943
0.3530056 -0.2372000 1.0018023
0.3560000 -0.2372000 1.0041000
0.3529000 -0.2372000 1.0010000
0.3568023 -0.2372000 1.0039943
0.3530056 -0.2372000 1.0001976
0.3575500 -0.2372000 1.0036846
0.3533153 -0.2372000 0.9994500
0.3581920 -0.2372000 1.0031921
0.3538080 -0.2372000 0.9988080
0.3586847 -0.2372000 1.0025500
0.3544500 -0.2372000 0.9983153
0.3551977 -0.2372000 0.9980056
0.3589944 -0.2372000 1.0018023
0.3591000 -0.2372000 1.0010000
0.3560000 -0.2372000 0.9979000
0.3568023 -0.2372000 0.9980056
0.3589944 -0.2372000 1.0001976
0.3575500 -0.2372000 0.9983153
0.3586847 -0.2372000 0.9994500
0.3581920 -0.2372000 0.9988080
0.3590034 -0.2371259 1.0010000
0.3588978 -0.2371000 1.0002235
0.3590000 -0.2371000 1.0010000
0.3590741 -0.2371966 1.0010000
0.3531022 -0.2371000 1.0002235
0.3529966 -0.2371259 1.0010000
0.3530000 -0.2371000 1.0010000
0.3529259 -0.2371966 1.0010000
0.3590134 -0.2371500 1.0010000
0.3589107 -0.2371500 1.0002201
0.3590293 -0.2371707 1.0010000
0.3590500 -0.2371866 1.0010000
0.3589461 -0.2371866 1.0002106
0.3586097 -0.2371500 0.9994933
0.3585981 -0.2371000 0.9995000
0.3586414 -0.2371866 0.9994750
0.3581213 -0.2371000 0.9988787
0.3581308 -0.2371500 0.9988692
0.3575000 -0.2371000 0.9984019
0.3581567 -0.2371866 0.9988433
0.3575067 -0.2371500 0.9983903
0.3575250 -0.2371866 0.9983587
0.3567764 -0.2371000 0.9981022
0.3567799 -0.2371500 0.9980893
0.3560000 -0.2371000 0.9980000
0.3567894 -0.2371866 0.9980540
0.3560000 -0.2371500 0.9979866
0.3560000 -0.2371866 0.9979500
0.3552235 -0.2371000 0.9981022
0.3552200 -0.2371500 0.9980893
0.3545000 -0.2371000 0.9984019
0.3552106 -0.2371866 0.9980540
0.3544933 -0.2371500 0.9983903
0.3544750 -0.2371866 0.9983587
0.3538692 -0.2371500 0.9988692
0.3538787 -0.2371000 0.9988787
0.3538433 -0.2371866 0.9988433
0.3533903 -0.2371500 0.9994933
0.3534019 -0.2371000 0.9995000
0.3533586 -0.2371866 0.9994750
0.3530893 -0.2371500 1.0002201
0.3529866 -0.2371500 1.0010000
0.3529707 -0.2371707 1.0010000
0.3530539 -0.2371866 1.0002106
0.3529500 -0.2371866 1.0010000
0.3531022 -0.2371000 1.0017765
0.3588978 -0.2371000 1.0017765
0.3530893 -0.2371500 1.0017799
0.3530539 -0.2371866 1.0017893
0.3533903 -0.2371500 1.0025067
0.3534019 -0.2371000 1.0025001
0.3533586 -0.2371866 1.0025250
0.3538692 -0.2371500 1.0031308
0.3538787 -0.2371000 1.0031214
0.3538433 -0.2371866 1.0031567
0.3544933 -0.2371500 1.0036097
0.3545000 -0.2371000 1.0035981
0.3544750 -0.2371866 1.0036414
0.3552200 -0.2371500 1.0039107
0.3552235 -0.2371000 1.0038978
0.3552106 -0.2371866 1.0039461
0.3560000 -0.2371500 1.0040134
0.3560000 -0.2371000 1.0039999
0.3567764 -0.2371000 1.0038978
0.3560000 -0.2371866 1.0040500
0.3567799 -0.2371500 1.0039107
0.3567894 -0.2371866 1.0039461
0.3575067 -0.2371500 1.0036097
0.3575000 -0.2371000 1.0035981
0.3575250 -0.2371866 1.0036414
0.3581308 -0.2371500 1.0031308
0.3581213 -0.2371000 1.0031214
0.3581567 -0.2371866 1.0031567
0.3586097 -0.2371500 1.0025067
0.3585981 -0.2371000 1.0025001
0.3586414 -0.2371866 1.0025250
0.3589107 -0.2371500 1.0017799
0.3589461 -0.2371866 1.0017893
3 3 1 0
3 2 1 57
3 4 0 2
3 6 1 3
3 3 0 167
3 57 1 58
3 56 2 57
3 0 4 164
3 4 2 5
3 1 6 58
3 7 6 3
3 0 164 167
3 3 167 170
3 58 83 57
3 5 2 56
3 57 81 56
3 4 159 164
3 8 4 5
3 58 6 59
3 10 6 7
3 7 3 170
3 164 166 167
3 167 169 170
3 58 85 83
3 83 81 57
3 9 5 56
3 81 79 56
3 4 8 159
3 159 163 164
3 8 5 9
3 6 10 59
3 59 85 58
3 11 10 7
3 7 170 142
3 163 166 164
3 166 169 167
3 169 172 170
3 85 171 83
3 83 168 81
3 55 9 56
3 81 162 79
3 56 79 55
3 8 158 159
3 161 163 159
3 12 8 9
3 59 10 60
3 59 88 85
3 14 10 11
3 11 7 142
3 170 172 142
3 163 168 166
3 166 171 169
3 171 172 169
3 88 171 85
3 83 171 168
3 81 168 165
3 54 9 55
3 81 165 162
3 79 162 77
3 79 77 55
3 8 12 158
3 158 157 159
3 161 165 163
3 157 161 159
3 12 9 13
3 10 14 60
3 60 88 59
3 15 14 11
3 11 142 98
3 142 172 96
3 165 168 163
3 168 171 166
3 171 173 172
3 88 173 171
3 13 9 54
3 55 77 54
3 162 165 161
3 77 162 160
3 12 155 158
3 155 157 158
3 157 162 161
3 16 12 13
3 60 14 61
3 60 89 88
3 18 14 15
3 15 11 98
3 142 96 98
3 96 172 104
3 172 173 106
3 99 173 88
3 53 13 54
3 77 75 54
3 160 162 157
3 77 160 75
3 12 16 155
3 154 157 155
3 16 13 17
3 14 18 61
3 61 89 60
3 88 89 99
3 19 18 15
3 15 98 97
3 96 97 98
3 104 172 106
3 104 105 96
3 106 173 107
3 107 173 99
3 17 13 53
3 54 75 53
3 154 160 157
3 75 160 156
3 16 152 155
3 152 154 155
3 20 16 17
3 61 18 62
3 61 92 89
3 89 92 99
3 22 18 19
3 19 15 97
3 96 105 97
3 106 105 104
3 107 108 106
3 99 108 107
3 52 17 53
3 75 73 53
3 156 160 154
3 75 156 73
3 16 20 152
3 151 154 152
3 20 17 21
3 18 22 62
3 62 92 61
3 92 108 99
3 23 22 19
3 19 97 110
3 105 109 97
3 106 108 105
3 21 17 52
3 53 73 52
3 151 156 154
3 73 156 153
3 20 149 152
3 149 151 152
3 24 20 21
3 62 22 63
3 62 94 92
3 92 111 108
3 26 22 23
3 23 19 110
3 97 109 110
3 105 111 109
3 108 111 105
3 24 21 52
3 73 72 52
3 153 156 151
3 73 153 72
3 20 25 149
3 148 151 149
3 24 25 20
3 63 22 64
3 63 94 62
3 94 111 92
3 22 26 64
3 26 23 27
3 23 110 112
3 109 113 110
3 111 115 109
3 51 24 52
3 52 72 51
3 148 153 151
3 72 153 150
3 25 146 149
3 146 148 149
3 28 25 24
3 63 64 93
3 63 95 94
3 94 115 111
3 26 31 64
3 27 23 112
3 31 26 27
3 110 113 112
3 109 115 113
3 50 24 51
3 74 51 72
3 150 153 148
3 72 150 74
3 25 29 146
3 145 148 146
3 28 29 25
3 28 24 50
3 64 65 93
3 63 93 95
3 95 115 94
3 64 31 65
3 27 112 114
3 31 27 32
3 112 113 114
3 115 117 113
3 74 50 51
3 145 150 148
3 74 150 147
3 29 141 146
3 141 145 146
3 30 29 28
3 49 28 50
3 93 65 91
3 93 117 95
3 95 117 115
3 31 34 65
3 27 114 118
3 32 27 118
3 34 31 32
3 113 116 114
3 113 117 116
3 76 50 74
3 147 150 145
3 74 147 76
3 29 30 141
3 143 145 141
3 33 30 28
3 33 28 49
3 76 49 50
3 65 66 91
3 91 121 93
3 93 121 117
3 65 34 66
3 114 119 118
3 35 32 118
3 34 32 35
3 116 119 114
3 117 121 116
3 143 147 145
3 76 147 144
3 30 102 141
3 101 143 141
3 36 30 33
3 48 33 49
3 78 49 76
3 91 66 90
3 91 123 121
3 34 39 66
3 118 119 120
3 35 118 120
3 39 34 35
3 116 121 119
3 144 147 143
3 76 144 103
3 30 37 102
3 101 141 102
3 137 143 101
3 36 37 30
3 36 33 48
3 78 48 49
3 78 76 103
3 66 87 90
3 90 123 91
3 121 123 119
3 66 39 67
3 119 122 120
3 40 35 120
3 39 35 40
3 138 144 143
3 103 144 140
3 37 100 102
3 100 101 102
3 138 143 137
3 101 136 137
3 38 37 36
3 41 36 48
3 80 48 78
3 80 78 103
3 66 67 87
3 87 127 90
3 90 127 123
3 119 123 122
3 39 43 67
3 122 125 120
3 40 120 124
3 43 39 40
3 140 144 138
3 140 139 103
3 37 38 100
3 100 136 101
3 137 136 138
3 41 38 36
3 71 41 48
3 80 71 48
3 103 139 80
3 67 68 87
3 86 127 87
3 123 127 125
3 123 125 122
3 67 43 68
3 120 125 124
3 44 40 124
3 43 40 44
3 138 139 140
3 38 134 100
3 134 136 100
3 136 139 138
3 42 38 41
3 70 41 71
3 82 71 80
3 80 139 82
3 87 68 86
3 86 129 127
3 127 129 125
3 43 47 68
3 124 125 126
3 44 124 126
3 47 43 44
3 38 42 134
3 133 136 134
3 135 139 136
3 45 42 41
3 45 41 70
3 82 70 71
3 82 139 135
3 68 84 86
3 86 132 129
3 125 129 128
3 68 47 69
3 125 128 126
3 44 126 131
3 47 44 46
3 42 131 134
3 135 136 133
3 131 133 134
3 45 46 42
3 69 45 70
3 84 70 82
3 82 135 84
3 68 69 84
3 84 132 86
3 129 132 130
3 129 130 128
3 47 45 69
3 128 130 126
3 126 130 131
3 46 44 131
3 47 46 45
3 42 46 131
3 130 135 133
3 130 133 131
3 69 70 84
3 84 135 132
3 132 135 130
3 0 1 2
