ply
format ascii 1.0
comment made by tesseract
element vertex 244
property float x
property float y
property float z
element face 488
property list uchar int vertex_indices
end_header
0.0185000 -0.1075981 0.3690000
0.0176665 -0.1073335 0.3690000
0.0183500 -0.1078579 0.3690000
0.0178787 -0.1071213 0.3690000
0.0174019 -0.1065000 0.3690000
0.0171421 -0.1066500 0.3690000
0.0168124 -0.1058541 0.3690000
0.0171022 -0.1057765 0.3690000
0.0192235 -0.1078978 0.3690000
0.0191459 -0.1081876 0.3690000
0.0167000 -0.1050000 0.3690000
0.0200000 -0.1080000 0.3690000
0.0200000 -0.1083000 0.3690000
0.0170000 -0.1050000 0.3690000
0.0208541 -0.1081876 0.3690000
0.0171022 -0.1042235 0.3690000
0.0168124 -0.1041459 0.3690000
0.0207765 -0.1078978 0.3690000
0.0216500 -0.1078579 0.3690000
0.0215000 -0.1075981 0.3690000
0.0174019 -0.1035000 0.3690000
0.0171421 -0.1033500 0.3690000
0.0223335 -0.1073335 0.3690000
0.0221213 -0.1071213 0.3690000
0.0178787 -0.1028787 0.3690000
0.0176665 -0.1026665 0.3690000
0.0225981 -0.1065000 0.3690000
0.0228579 -0.1066500 0.3690000
0.0183500 -0.1021421 0.3690000
0.0185000 -0.1024019 0.3690000
0.0231876 -0.1058541 0.3690000
0.0228978 -0.1057765 0.3690000
0.0191459 -0.1018124 0.3690000
0.0192235 -0.1021022 0.3690000
0.0233000 -0.1050000 0.3690000
0.0230000 -0.1050000 0.3690000
0.0200000 -0.1017000 0.3690000
0.0200000 -0.1020000 0.3690000
0.0208541 -0.1018124 0.3690000
0.0207765 -0.1021022 0.3690000
0.0231876 -0.1041459 0.3690000
0.0228978 -0.1042235 0.3690000
0.0225981 -0.1035000 0.3690000
0.0216500 -0.1021421 0.3690000
0.0215000 -0.1024019 0.3690000
0.0228579 -0.1033500 0.3690000
0.0223335 -0.1026665 0.3690000
0.0221213 -0.1028787 0.3690000
0.0167000 -0.1050000 0.3750000
0.0168124 -0.1041459 0.3750000
0.0171421 -0.1033500 0.3750000
0.0176665 -0.1026665 0.3750000
0.0183500 -0.1021421 0.3750000
0.0191459 -0.1018124 0.3750000
0.0200000 -0.1017000 0.3750000
0.0208541 -0.1018124 0.3750000
0.0216500 -0.1021421 0.3750000
0.0223335 -0.1026665 0.3750000
0.0228579 -0.1033500 0.3750000
0.0231876 -0.1041459 0.3750000
0.0233000 -0.1050000 0.3750000
0.0227713 -0.1066000 0.3750000
0.0228579 -0.1066500 0.3750000
0.0223335 -0.1073335 0.3750000
0.0222627 -0.1072627 0.3750000
0.0216000 -0.1077713 0.3750000
0.0216500 -0.1078579 0.3750000
0.0231876 -0.1058541 0.3750000
0.0208541 -0.1081876 0.3750000
0.0230910 -0.1058282 0.3750000
0.0208282 -0.1080910 0.3750000
0.0200000 -0.1083000 0.3750000
0.0232000 -0.1050000 0.3750000
0.0200000 -0.1082000 0.3750000
0.0230910 -0.1041718 0.3750000
0.0191718 -0.1080910 0.3750000
0.0191459 -0.1081876 0.3750000
0.0227713 -0.1034000 0.3750000
0.0184000 -0.1077713 0.3750000
0.0183500 -0.1078579 0.3750000
0.0222627 -0.1027373 0.3750000
0.0177373 -0.1072627 0.3750000
0.0176665 -0.1073335 0.3750000
0.0172287 -0.1066000 0.3750000
0.0216000 -0.1022287 0.3750000
0.0171421 -0.1066500 0.3750000
0.0208282 -0.1019090 0.3750000
0.0168124 -0.1058541 0.3750000
0.0169090 -0.1058282 0.3750000
0.0168000 -0.1050000 0.3750000
0.0200000 -0.1018000 0.3750000
0.0191718 -0.1019090 0.3750000
0.0169090 -0.1041718 0.3750000
0.0184000 -0.1022287 0.3750000
0.0172287 -0.1034000 0.3750000
0.0177373 -0.1027373 0.3750000
0.0232000 -0.1050000 0.3762000
0.0230910 -0.1058282 0.3762000
0.0227713 -0.1066000 0.3762000
0.0222627 -0.1072627 0.3762000
0.0216000 -0.1077713 0.3762000
0.0208282 -0.1080910 0.3762000
0.0200000 -0.1082000 0.3762000
0.0191718 -0.1080910 0.3762000
0.0184000 -0.1077713 0.3762000
0.0177373 -0.1072627 0.3762000
0.0172287 -0.1066000 0.3762000
0.0169090 -0.1058282 0.3762000
0.0168000 -0.1050000 0.3762000
0.0169090 -0.1041718 0.3762000
0.0172287 -0.1034000 0.3762000
0.0177373 -0.1027373 0.3762000
0.0184000 -0.1022287 0.3762000
0.0191718 -0.1019090 0.3762000
0.0200000 -0.1018000 0.3762000
0.0208282 -0.1019090 0.3762000
0.0216000 -0.1022287 0.3762000
0.0222627 -0.1027373 0.3762000
0.0227713 -0.1034000 0.3762000
0.0230910 -0.1041718 0.3762000
0.0215500 -0.1076847 0.3762000
0.0221920 -0.1071920 0.3762000
0.0226847 -0.1065500 0.3762000
0.0208023 -0.1079944 0.3762000
0.0229944 -0.1058023 0.3762000
0.0200000 -0.1081000 0.3762000
0.0231000 -0.1050000 0.3762000
0.0191977 -0.1079944 0.3762000
0.0229944 -0.1041977 0.3762000
0.0184500 -0.1076847 0.3762000
0.0226847 -0.1034500 0.3762000
0.0178080 -0.1071920 0.3762000
0.0221920 -0.1028080 0.3762000
0.0173153 -0.1065500 0.3762000
0.0215500 -0.1023153 0.3762000
0.0170056 -0.1058023 0.3762000
0.0208023 -0.1020056 0.3762000
0.0200000 -0.1019000 0.3762000
0.0169000 -0.1050000 0.3762000
0.0170056 -0.1041977 0.3762000
0.0191977 -0.1020056 0.3762000
0.0184500 -0.1023153 0.3762000
0.0173153 -0.1034500 0.3762000
0.0178080 -0.1028080 0.3762000
0.0169259 -0.1050000 0.3761966
0.0230741 -0.1050000 0.3761966
0.0169966 -0.1050000 0.3761259
0.0170989 -0.1042227 0.3761259
0.0170000 -0.1050000 0.3761000
0.0169866 -0.1050000 0.3761500
0.0171022 -0.1042235 0.3761000
0.0169707 -0.1050000 0.3761707
0.0170739 -0.1042160 0.3761707
0.0169500 -0.1050000 0.3761866
0.0170539 -0.1042106 0.3761866
0.0173990 -0.1034983 0.3761259
0.0174019 -0.1035000 0.3761000
0.0173766 -0.1034854 0.3761707
0.0173586 -0.1034750 0.3761866
0.0178763 -0.1028763 0.3761259
0.0178787 -0.1028787 0.3761000
0.0178580 -0.1028580 0.3761707
0.0178433 -0.1028433 0.3761866
0.0185000 -0.1024019 0.3761000
0.0184983 -0.1023990 0.3761259
0.0192235 -0.1021022 0.3761000
0.0184854 -0.1023766 0.3761707
0.0184750 -0.1023586 0.3761866
0.0192227 -0.1020989 0.3761259
0.0192160 -0.1020739 0.3761707
0.0192106 -0.1020539 0.3761866
0.0200000 -0.1019966 0.3761259
0.0200000 -0.1020000 0.3761000
0.0200000 -0.1019707 0.3761707
0.0200000 -0.1019500 0.3761866
0.0207765 -0.1021022 0.3761000
0.0207773 -0.1020989 0.3761259
0.0215000 -0.1024019 0.3761000
0.0207840 -0.1020739 0.3761707
0.0207894 -0.1020539 0.3761866
0.0215017 -0.1023990 0.3761259
0.0215146 -0.1023766 0.3761707
0.0215250 -0.1023586 0.3761866
0.0221237 -0.1028763 0.3761259
0.0221213 -0.1028787 0.3761000
0.0221420 -0.1028580 0.3761707
0.0221567 -0.1028433 0.3761866
0.0225981 -0.1035000 0.3761000
0.0226010 -0.1034983 0.3761259
0.0228978 -0.1042235 0.3761000
0.0226234 -0.1034854 0.3761707
0.0226414 -0.1034750 0.3761866
0.0229011 -0.1042227 0.3761259
0.0230000 -0.1050000 0.3761000
0.0230034 -0.1050000 0.3761259
0.0230134 -0.1050000 0.3761500
0.0229261 -0.1042160 0.3761707
0.0230293 -0.1050000 0.3761707
0.0229461 -0.1042106 0.3761866
0.0230500 -0.1050000 0.3761866
0.0171022 -0.1057765 0.3761000
0.0229011 -0.1057773 0.3761259
0.0228978 -0.1057765 0.3761000
0.0229261 -0.1057840 0.3761707
0.0229461 -0.1057894 0.3761866
0.0226010 -0.1065017 0.3761259
0.0225981 -0.1065000 0.3761000
0.0226234 -0.1065146 0.3761707
0.0226414 -0.1065250 0.3761866
0.0221237 -0.1071237 0.3761259
0.0221213 -0.1071213 0.3761000
0.0221420 -0.1071420 0.3761707
0.0221567 -0.1071567 0.3761866
0.0215017 -0.1076010 0.3761259
0.0215000 -0.1075981 0.3761000
0.0215146 -0.1076234 0.3761707
0.0215250 -0.1076414 0.3761866
0.0207773 -0.1079011 0.3761259
0.0207765 -0.1078978 0.3761000
0.0207840 -0.1079261 0.3761707
0.0207894 -0.1079461 0.3761866
0.0200000 -0.1080034 0.3761259
0.0200000 -0.1080000 0.3761000
0.0200000 -0.1080293 0.3761707
0.0200000 -0.1080500 0.3761866
0.0192227 -0.1079011 0.3761259
0.0192235 -0.1078978 0.3761000
0.0192160 -0.1079261 0.3761707
0.0192106 -0.1079461 0.3761866
0.0184983 -0.1076010 0.3761259
0.0185000 -0.1075981 0.3761000
0.0178787 -0.1071213 0.3761000
0.0184854 -0.1076234 0.3761707
0.0184750 -0.1076414 0.3761866
0.0178763 -0.1071237 0.3761259
0.0178580 -0.1071420 0.3761707
0.0178433 -0.1071567 0.3761866
0.0173990 -0.1065017 0.3761259
0.0174019 -0.1065000 0.3761000
0.0173766 -0.1065146 0.3761707
0.0173586 -0.1065250 0.3761866
0.0170989 -0.1057773 0.3761259
0.0170739 -0.1057840 0.3761707
0.0170539 -0.1057894 0.3761866
3 0 3 1
3 2 1 82
3 8 0 2
3 3 0 230
3 4 1 3
3 1 5 82
3 79 2 82
3 0 8 226
3 8 2 9
3 0 226 230
3 3 230 231
3 4 5 1
3 4 3 231
3 82 5 85
3 9 2 79
3 81 79 82
3 8 222 226
3 11 8 9
3 226 229 230
3 230 229 231
3 6 5 4
3 4 231 238
3 5 6 85
3 85 83 82
3 76 9 79
3 81 78 79
3 83 81 82
3 8 11 222
3 222 225 226
3 11 9 12
3 225 229 226
3 229 234 231
3 7 6 4
3 231 237 238
3 7 4 238
3 85 6 87
3 87 83 85
3 71 9 76
3 78 76 79
3 78 81 104
3 81 83 105
3 11 218 222
3 221 225 222
3 12 9 71
3 14 11 12
3 227 229 225
3 229 235 234
3 234 237 231
3 10 6 7
3 237 241 238
3 7 238 200
3 6 10 87
3 87 88 83
3 75 71 76
3 78 75 76
3 104 81 105
3 75 78 104
3 105 83 106
3 11 17 218
3 218 221 222
3 221 227 225
3 68 12 71
3 17 11 14
3 14 12 68
3 227 232 229
3 232 235 229
3 235 239 234
3 234 239 237
3 13 10 7
3 237 242 241
3 238 241 200
3 13 7 200
3 87 10 48
3 89 88 87
3 83 88 106
3 75 73 71
3 105 129 104
3 103 75 104
3 106 131 105
3 17 214 218
3 217 221 218
3 223 227 221
3 71 70 68
3 18 17 14
3 18 14 68
3 227 233 232
3 232 236 235
3 236 239 235
3 239 242 237
3 15 10 13
3 241 242 149
3 200 241 146
3 13 200 148
3 10 16 48
3 48 89 87
3 88 89 107
3 106 88 107
3 73 75 102
3 73 70 71
3 105 131 129
3 129 103 104
3 102 75 103
3 106 133 131
3 17 19 214
3 214 217 218
3 219 221 217
3 223 228 227
3 219 223 221
3 70 65 68
3 19 17 18
3 66 18 68
3 228 233 227
3 233 236 232
3 236 240 239
3 240 242 239
3 15 16 10
3 15 13 150
3 149 242 151
3 146 241 149
3 200 146 148
3 13 148 150
3 48 16 49
3 49 89 48
3 107 89 108
3 107 133 106
3 101 73 102
3 70 73 101
3 131 236 129
3 129 127 103
3 127 102 103
3 133 240 131
3 19 210 214
3 213 217 214
3 213 219 217
3 224 228 223
3 219 224 223
3 65 70 100
3 68 65 66
3 22 19 18
3 63 18 66
3 127 233 228
3 129 236 233
3 131 240 236
3 240 243 242
3 20 16 15
3 15 150 156
3 151 242 153
3 151 152 149
3 149 147 146
3 146 147 148
3 148 147 150
3 16 21 49
3 49 92 89
3 89 92 108
3 108 135 107
3 107 135 133
3 125 101 102
3 100 70 101
3 129 233 127
3 127 125 102
3 133 243 240
3 19 23 210
3 210 213 214
3 215 219 213
3 125 228 224
3 220 224 219
3 64 65 100
3 65 63 66
3 22 23 19
3 22 18 63
3 127 228 125
3 242 243 153
3 20 21 16
3 20 15 156
3 150 155 156
3 153 154 151
3 151 154 152
3 149 152 147
3 147 155 150
3 49 21 50
3 50 92 49
3 108 92 109
3 108 138 135
3 135 243 133
3 125 123 101
3 123 100 101
3 23 206 210
3 209 213 210
3 215 220 219
3 209 215 213
3 125 224 123
3 123 224 220
3 65 64 63
3 99 64 100
3 26 23 22
3 62 22 63
3 153 243 144
3 24 21 20
3 24 20 156
3 155 159 156
3 144 154 153
3 154 158 152
3 152 157 147
3 147 157 155
3 21 25 50
3 50 94 92
3 92 94 109
3 109 139 108
3 139 138 108
3 135 138 144
3 144 243 135
3 123 120 100
3 23 26 206
3 206 209 210
3 216 220 215
3 211 215 209
3 123 220 120
3 61 63 64
3 98 64 99
3 120 99 100
3 27 26 22
3 27 22 62
3 61 62 63
3 24 25 21
3 24 156 160
3 155 161 159
3 156 159 160
3 139 154 144
3 139 158 154
3 152 158 157
3 157 161 155
3 50 25 51
3 51 94 50
3 109 94 110
3 110 139 109
3 138 139 144
3 26 202 206
3 205 209 206
3 120 220 216
3 211 216 215
3 205 211 209
3 61 64 98
3 122 98 99
3 120 121 99
3 30 26 27
3 67 27 62
3 67 62 61
3 28 25 24
3 24 160 163
3 161 166 159
3 159 164 160
3 142 158 139
3 158 162 157
3 157 162 161
3 25 28 51
3 51 95 94
3 94 95 110
3 110 142 139
3 26 31 202
3 202 205 206
3 120 216 121
3 212 216 211
3 207 211 205
3 97 61 98
3 124 98 122
3 122 99 121
3 30 31 26
3 30 27 67
3 69 67 61
3 28 24 29
3 160 164 163
3 29 24 163
3 161 167 166
3 159 166 164
3 142 162 158
3 162 167 161
3 51 28 52
3 51 93 95
3 110 95 111
3 143 142 110
3 31 193 202
3 201 205 202
3 121 216 212
3 207 212 211
3 201 207 205
3 69 61 97
3 124 97 98
3 122 208 124
3 121 212 122
3 34 31 30
3 60 30 67
3 72 67 69
3 32 28 29
3 163 164 165
3 33 29 163
3 167 170 166
3 166 169 164
3 143 162 142
3 143 167 162
3 28 32 52
3 51 52 93
3 95 93 112
3 111 95 112
3 111 143 110
3 31 35 193
3 193 201 202
3 208 212 207
3 203 207 201
3 96 69 97
3 126 97 124
3 122 212 208
3 124 208 204
3 34 35 31
3 34 30 60
3 72 60 67
3 72 69 96
3 32 29 33
3 164 168 165
3 33 163 165
3 141 170 167
3 166 170 169
3 164 169 168
3 141 167 143
3 52 32 53
3 52 53 93
3 93 91 112
3 111 112 141
3 111 141 143
3 35 189 193
3 194 201 193
3 203 208 207
3 195 203 201
3 126 96 97
3 126 124 145
3 204 208 203
3 124 204 145
3 40 35 34
3 59 34 60
3 74 60 72
3 119 72 96
3 36 32 33
3 168 171 165
3 37 33 165
3 140 170 141
3 170 174 169
3 169 171 168
3 32 36 53
3 93 53 91
3 112 91 113
3 112 140 141
3 35 41 189
3 189 192 193
3 195 201 194
3 193 192 194
3 197 203 195
3 128 96 126
3 128 126 145
3 197 204 203
3 145 204 199
3 40 41 35
3 40 34 59
3 74 59 60
3 74 72 119
3 128 119 96
3 36 33 37
3 165 171 172
3 37 165 172
3 140 174 170
3 169 174 173
3 169 173 171
3 53 36 54
3 53 90 91
3 91 90 113
3 112 113 140
3 41 42 189
3 188 192 189
3 194 192 195
3 195 196 197
3 145 198 128
3 199 204 197
3 199 198 145
3 42 41 40
3 58 40 59
3 77 59 74
3 118 74 119
3 118 119 128
3 38 36 37
3 171 176 172
3 39 37 172
3 137 174 140
3 174 179 173
3 173 178 171
3 36 38 54
3 53 54 90
3 113 90 114
3 113 137 140
3 42 187 189
3 188 196 192
3 187 188 189
3 192 196 195
3 196 198 197
3 128 198 130
3 197 198 199
3 45 42 40
3 45 40 58
3 77 58 59
3 77 74 118
3 130 118 128
3 38 37 39
3 171 178 176
3 172 176 175
3 39 172 175
3 136 174 137
3 136 179 174
3 173 179 178
3 54 38 55
3 54 86 90
3 90 86 114
3 113 114 137
3 42 184 187
3 190 196 188
3 184 188 187
3 191 198 196
3 130 198 191
3 46 42 45
3 57 45 58
3 57 58 77
3 117 77 118
3 132 118 130
3 43 38 39
3 178 181 176
3 175 176 177
3 44 39 175
3 137 115 136
3 136 182 179
3 179 182 178
3 38 43 55
3 54 55 86
3 114 86 115
3 114 115 137
3 42 47 184
3 191 196 190
3 183 190 188
3 183 188 184
3 130 191 132
3 46 47 42
3 46 45 57
3 57 77 80
3 80 77 117
3 132 117 118
3 43 39 44
3 178 182 181
3 176 181 180
3 176 180 177
3 44 175 177
3 115 134 136
3 134 182 136
3 55 43 56
3 55 84 86
3 86 84 115
3 47 177 184
3 186 191 190
3 185 190 183
3 177 183 184
3 132 191 186
3 46 44 47
3 56 46 57
3 56 57 80
3 84 80 117
3 116 117 132
3 46 43 44
3 182 186 181
3 181 185 180
3 180 183 177
3 47 44 177
3 115 116 134
3 134 186 182
3 43 46 56
3 55 56 84
3 115 84 116
3 186 190 185
3 180 185 183
3 132 186 134
3 56 80 84
3 116 84 117
3 116 132 134
3 181 186 185
3 0 1 2
