ply
format ascii 1.0
comment made by tesseract
element vertex 255
property float x
property float y
property float z
element face 510
property list uchar int vertex_indices
end_header
0.4037592 -0.1233456 1.2469846
0.4030969 -0.1231313 1.2469345
0.4033789 -0.1228485 1.2469558
0.4026838 -0.1228135 1.2469033
0.4028833 -0.1224671 1.2469184
0.4039983 -0.1239244 1.2470027
0.4034138 -0.1235456 1.2469585
0.4022028 -0.1226137 1.2468669
0.4023061 -0.1222273 1.2468748
0.4036130 -0.1240279 1.2469735
0.4016867 -0.1225456 1.2468280
0.4016867 -0.1221456 1.2468280
0.4040799 -0.1245456 1.2470088
0.4036810 -0.1245456 1.2469786
0.4039983 -0.1251667 1.2470027
0.4011705 -0.1226137 1.2467890
0.4010673 -0.1222273 1.2467812
0.4036130 -0.1250632 1.2469735
0.4004901 -0.1224671 1.2467376
0.4006895 -0.1228135 1.2467527
0.4037592 -0.1257456 1.2469846
0.4034138 -0.1255456 1.2469585
0.3999944 -0.1228485 1.2467000
0.4002765 -0.1231313 1.2467214
0.4030969 -0.1259598 1.2469345
0.4033789 -0.1262426 1.2469558
0.4026838 -0.1262776 1.2469033
0.3999596 -0.1235456 1.2466975
0.3996141 -0.1233456 1.2466714
0.4028833 -0.1266240 1.2469184
0.4022028 -0.1264774 1.2468669
0.3997603 -0.1240279 1.2466825
0.3993751 -0.1239244 1.2466533
0.4023061 -0.1268638 1.2468748
0.3996924 -0.1245456 1.2466773
0.3992935 -0.1245456 1.2466472
0.4016867 -0.1269456 1.2468280
0.4016867 -0.1265456 1.2468280
0.3993751 -0.1251667 1.2466533
0.3997603 -0.1250632 1.2466825
0.3999596 -0.1255456 1.2466975
0.4010673 -0.1268638 1.2467812
0.4011705 -0.1264774 1.2467890
0.3996141 -0.1257456 1.2466714
0.4002765 -0.1259598 1.2467214
0.4004901 -0.1266240 1.2467376
0.4006895 -0.1262776 1.2467527
0.3999944 -0.1262426 1.2467000
0.4017620 -0.1221456 1.2458308
0.4023814 -0.1222273 1.2458777
0.4029586 -0.1224671 1.2459213
0.4034542 -0.1228485 1.2459587
0.4038346 -0.1233456 1.2459874
0.4040737 -0.1239244 1.2460055
0.4041552 -0.1245456 1.2460117
0.4040737 -0.1251667 1.2460055
0.4038346 -0.1257456 1.2459874
0.4034542 -0.1262426 1.2459587
0.4029586 -0.1266240 1.2459213
0.4023814 -0.1268638 1.2458777
0.4017620 -0.1269456 1.2458308
0.4002461 -0.1260658 1.2457163
0.4000698 -0.1262426 1.2457030
0.4005654 -0.1266240 1.2457405
0.3999054 -0.1256206 1.2456906
0.3996895 -0.1257456 1.2456743
0.4006901 -0.1264075 1.2457498
0.4011426 -0.1268638 1.2457840
0.3996912 -0.1251020 1.2456744
0.3994504 -0.1251667 1.2456561
0.4012071 -0.1266223 1.2457889
0.3996181 -0.1245456 1.2456688
0.3993689 -0.1245456 1.2456501
0.4017620 -0.1266956 1.2458308
0.3996912 -0.1239891 1.2456744
0.3994504 -0.1239244 1.2456561
0.4023169 -0.1266223 1.2458729
0.3996895 -0.1233456 1.2456743
0.3999054 -0.1234706 1.2456906
0.4028340 -0.1264075 1.2459118
0.4002461 -0.1230253 1.2457163
0.4000698 -0.1228485 1.2457030
0.4032780 -0.1260658 1.2459455
0.4036187 -0.1256206 1.2459712
0.4005654 -0.1224671 1.2457405
0.4006901 -0.1226836 1.2457498
0.4012071 -0.1224688 1.2457889
0.4011426 -0.1222273 1.2457840
0.4038329 -0.1251020 1.2459873
0.4017620 -0.1223956 1.2458308
0.4039059 -0.1245456 1.2459928
0.4023169 -0.1224688 1.2458729
0.4038329 -0.1239891 1.2459873
0.4028340 -0.1226836 1.2459118
0.4032780 -0.1230253 1.2459455
0.4036187 -0.1234706 1.2459712
0.3996520 -0.1245456 1.2452201
0.3997251 -0.1251020 1.2452255
0.3999393 -0.1256206 1.2452419
0.4002800 -0.1260658 1.2452676
0.4007240 -0.1264075 1.2453011
0.4012411 -0.1266223 1.2453402
0.4017959 -0.1266956 1.2453821
0.4023508 -0.1266223 1.2454240
0.4028679 -0.1264075 1.2454631
0.4033119 -0.1260658 1.2454967
0.4036526 -0.1256206 1.2455225
0.4038668 -0.1251020 1.2455386
0.4039398 -0.1245456 1.2455441
0.3999825 -0.1255956 1.2452451
0.4003153 -0.1260305 1.2452703
0.4007489 -0.1263642 1.2453030
0.3997732 -0.1250891 1.2452292
0.4012540 -0.1265740 1.2453412
0.3997019 -0.1245456 1.2452239
0.4017959 -0.1266456 1.2453821
0.3997732 -0.1240020 1.2452292
0.3997251 -0.1239891 1.2452255
0.4023379 -0.1265740 1.2454231
0.3999825 -0.1234956 1.2452451
0.3999393 -0.1234706 1.2452419
0.4028430 -0.1263642 1.2454612
0.4002800 -0.1230253 1.2452676
0.4003153 -0.1230606 1.2452703
0.4032767 -0.1260305 1.2454940
0.4007240 -0.1226836 1.2453011
0.4007489 -0.1227269 1.2453030
0.4036094 -0.1255956 1.2455192
0.4038186 -0.1250891 1.2455349
0.4012411 -0.1224688 1.2453402
0.4012540 -0.1225171 1.2453412
0.4017959 -0.1224456 1.2453821
0.4038900 -0.1245456 1.2455404
0.4017959 -0.1223956 1.2453821
0.4023379 -0.1225171 1.2454231
0.4023508 -0.1224688 1.2454240
0.4038668 -0.1239891 1.2455386
0.4038186 -0.1240020 1.2455349
0.4028679 -0.1226836 1.2454631
0.4028430 -0.1227269 1.2454612
0.4036526 -0.1234706 1.2455225
0.4036094 -0.1234956 1.2455192
0.4032767 -0.1230606 1.2454940
0.4033119 -0.1230253 1.2454967
0.4037881 -0.1245456 1.2456069
0.4037147 -0.1240279 1.2456274
0.4037827 -0.1245456 1.2456325
0.3997274 -0.1245456 1.2452292
0.4037998 -0.1245456 1.2455838
0.4037200 -0.1240270 1.2456018
0.4038173 -0.1245456 1.2455642
0.4037483 -0.1240203 1.2455590
0.4038391 -0.1245456 1.2455499
0.4037694 -0.1240150 1.2455447
0.4037934 -0.1240087 1.2455364
0.4038639 -0.1245456 1.2455417
0.4035204 -0.1235439 1.2455868
0.4035155 -0.1235456 1.2456123
0.4035462 -0.1235309 1.2455437
0.4035653 -0.1235206 1.2455293
0.4035868 -0.1235085 1.2455208
0.4032030 -0.1231289 1.2455628
0.4031986 -0.1231313 1.2455884
0.4032246 -0.1231106 1.2455194
0.4032404 -0.1230960 1.2455046
0.4032581 -0.1230789 1.2454959
0.4027892 -0.1228106 1.2455314
0.4027855 -0.1228135 1.2455571
0.4028055 -0.1227881 1.2454878
0.4028170 -0.1227702 1.2454727
0.4028298 -0.1227493 1.2454636
0.4023074 -0.1226104 1.2454951
0.4023046 -0.1226137 1.2455208
0.4017884 -0.1225456 1.2454818
0.4023174 -0.1225854 1.2454510
0.4023240 -0.1225654 1.2454355
0.4023310 -0.1225421 1.2454259
0.4017904 -0.1225422 1.2454561
0.4017937 -0.1225163 1.2454114
0.4017949 -0.1224956 1.2453955
0.4017957 -0.1224714 1.2453855
0.4012733 -0.1226104 1.2454170
0.4012722 -0.1226137 1.2454429
0.4012700 -0.1225854 1.2453717
0.4012659 -0.1225654 1.2453555
0.4012604 -0.1225421 1.2453451
0.4007913 -0.1228135 1.2454065
0.4007915 -0.1228106 1.2453805
0.4003782 -0.1231313 1.2453753
0.4007820 -0.1227881 1.2453349
0.4007729 -0.1227702 1.2453183
0.4007616 -0.1227493 1.2453073
0.4003778 -0.1231289 1.2453493
0.4003629 -0.1231106 1.2453033
0.4003495 -0.1230960 1.2452862
0.4003332 -0.1230789 1.2452750
0.4000603 -0.1235439 1.2453253
0.4000613 -0.1235456 1.2453513
0.4000413 -0.1235309 1.2452790
0.4000246 -0.1235206 1.2452617
0.4000045 -0.1235085 1.2452501
0.3998620 -0.1240279 1.2453363
0.3998607 -0.1240270 1.2453102
0.3997941 -0.1245456 1.2453312
0.3997926 -0.1245456 1.2453051
0.3997845 -0.1245456 1.2452803
0.3998392 -0.1240203 1.2452637
0.3997702 -0.1245456 1.2452585
0.3998204 -0.1240150 1.2452463
0.3997508 -0.1245456 1.2452409
0.3997979 -0.1240087 1.2452346
0.4037147 -0.1250632 1.2456274
0.3998607 -0.1250641 1.2453102
0.3998620 -0.1250632 1.2453363
0.3998392 -0.1250708 1.2452637
0.3998204 -0.1250761 1.2452463
0.4000603 -0.1255473 1.2453253
0.4000613 -0.1255456 1.2453513
0.4000413 -0.1255602 1.2452790
0.4000246 -0.1255706 1.2452617
0.4003778 -0.1259622 1.2453493
0.4003782 -0.1259598 1.2453753
0.4003629 -0.1259805 1.2453033
0.4003495 -0.1259951 1.2452862
0.4007915 -0.1262806 1.2453805
0.4007913 -0.1262776 1.2454065
0.4007820 -0.1263030 1.2453349
0.4007729 -0.1263209 1.2453183
0.4012733 -0.1264807 1.2454170
0.4012722 -0.1264774 1.2454429
0.4012700 -0.1265057 1.2453717
0.4012659 -0.1265257 1.2453555
0.4017904 -0.1265490 1.2454561
0.4017884 -0.1265456 1.2454818
0.4017937 -0.1265749 1.2454114
0.4017949 -0.1265956 1.2453955
0.4023074 -0.1264807 1.2454951
0.4023046 -0.1264774 1.2455208
0.4023174 -0.1265057 1.2454510
0.4023240 -0.1265257 1.2454355
0.4027892 -0.1262806 1.2455314
0.4027855 -0.1262776 1.2455571
0.4028055 -0.1263030 1.2454878
0.4028170 -0.1263209 1.2454727
0.4032030 -0.1259622 1.2455628
0.4031986 -0.1259598 1.2455884
0.4032246 -0.1259805 1.2455194
0.4032404 -0.1259951 1.2455046
0.4035204 -0.1255473 1.2455868
0.4035155 -0.1255456 1.2456123
0.4035462 -0.1255602 1.2455437
0.4035653 -0.1255706 1.2455293
0.4037200 -0.1250641 1.2456018
0.4037483 -0.1250708 1.2455590
0.4037694 -0.1250761 1.2455447
3 0 6 1
3 1 3 2
3 2 52 0
3 5 6 0
3 1 6 157
3 3 1 162
3 2 3 4
3 51 52 2
3 0 52 5
3 5 9 6
3 6 145 157
3 1 157 162
3 3 162 167
3 3 7 4
3 4 51 2
3 51 94 52
3 52 53 5
3 5 13 9
3 6 9 145
3 145 156 157
3 157 161 162
3 162 166 167
3 7 3 167
3 4 7 8
3 50 51 4
3 51 50 94
3 52 94 95
3 52 92 53
3 53 54 5
3 12 13 5
3 9 13 145
3 149 156 145
3 156 161 157
3 161 166 162
3 166 171 167
3 7 167 172
3 7 10 8
3 8 50 4
3 50 93 94
3 95 94 140
3 52 95 92
3 53 92 90
3 53 90 54
3 5 54 12
3 12 14 13
3 13 146 145
3 149 158 156
3 144 149 145
3 156 163 161
3 163 166 161
3 166 174 171
3 167 171 172
3 10 7 172
3 8 10 11
3 49 50 8
3 50 91 93
3 94 93 143
3 140 94 143
3 136 95 140
3 92 95 136
3 90 92 108
3 54 90 88
3 54 55 12
3 12 55 14
3 14 17 13
3 13 17 146
3 144 145 146
3 151 158 149
3 158 163 156
3 148 149 144
3 163 168 166
3 168 174 166
3 174 178 171
3 172 171 173
3 10 172 173
3 10 15 11
3 11 49 8
3 50 49 91
3 93 91 135
3 143 93 138
3 143 142 140
3 140 137 136
3 108 92 136
3 107 90 108
3 88 90 107
3 54 88 55
3 55 56 14
3 14 21 17
3 17 211 146
3 211 144 146
3 151 159 158
3 148 151 149
3 158 164 163
3 144 252 148
3 163 169 168
3 168 175 174
3 174 179 178
3 171 178 177
3 171 177 173
3 15 10 173
3 11 15 16
3 48 49 11
3 49 89 91
3 91 89 135
3 138 93 135
3 143 138 139
3 143 139 142
3 142 141 140
3 140 141 137
3 136 137 132
3 136 132 108
3 108 132 107
3 106 88 107
3 55 88 83
3 55 83 56
3 14 56 20
3 20 21 14
3 17 21 211
3 211 252 144
3 153 159 151
3 159 164 158
3 150 151 148
3 164 169 163
3 252 253 148
3 169 175 168
3 175 179 174
3 179 184 178
3 178 181 177
3 177 181 173
3 15 173 182
3 15 18 16
3 16 87 11
3 49 48 89
3 87 48 11
3 135 89 133
3 138 135 134
3 138 134 139
3 139 170 142
3 142 165 141
3 141 160 137
3 137 154 132
3 132 128 107
3 83 88 106
3 107 128 106
3 56 83 57
3 20 56 25
3 20 24 21
3 21 249 211
3 249 252 211
3 153 160 159
3 150 153 151
3 159 165 164
3 148 253 150
3 164 170 169
3 248 253 252
3 170 175 169
3 175 180 179
3 180 184 179
3 178 184 183
3 178 183 181
3 173 181 182
3 19 15 182
3 15 19 18
3 18 84 16
3 84 87 16
3 48 86 89
3 48 87 86
3 89 86 133
3 135 133 134
3 134 176 139
3 139 176 170
3 142 170 165
3 141 165 160
3 137 160 154
3 132 154 155
3 128 132 155
3 105 83 106
3 128 127 106
3 83 82 57
3 56 57 25
3 20 25 24
3 21 24 245
3 21 245 249
3 248 252 249
3 154 160 153
3 160 165 159
3 152 153 150
3 165 170 164
3 150 253 152
3 250 253 248
3 170 176 175
3 176 180 175
3 180 185 184
3 184 190 183
3 183 187 181
3 181 187 182
3 19 182 186
3 19 22 18
3 81 84 18
3 87 84 86
3 133 86 129
3 134 133 131
3 134 180 176
3 155 154 152
3 155 254 128
3 82 83 105
3 106 124 105
3 128 251 127
3 106 127 124
3 82 58 57
3 57 58 25
3 25 26 24
3 24 241 245
3 245 248 249
3 152 154 153
3 253 254 152
3 250 254 253
3 244 250 248
3 131 185 180
3 185 190 184
3 183 190 189
3 183 189 187
3 182 187 186
3 23 19 186
3 19 23 22
3 22 81 18
3 84 81 80
3 86 84 85
3 86 85 129
3 133 129 131
3 131 180 134
3 152 254 155
3 128 254 251
3 79 82 105
3 105 124 104
3 127 251 247
3 127 247 124
3 82 79 58
3 25 58 29
3 25 29 26
3 24 26 241
3 241 244 245
3 244 248 245
3 251 254 250
3 246 250 244
3 130 185 131
3 185 191 190
3 190 194 189
3 189 193 187
3 186 187 188
3 23 186 188
3 23 28 22
3 77 81 22
3 80 81 77
3 84 80 85
3 129 85 125
3 131 129 130
3 104 79 105
3 124 121 104
3 247 251 250
3 124 247 243
3 79 59 58
3 58 59 29
3 29 30 26
3 26 30 241
3 240 244 241
3 247 250 246
3 240 246 244
3 130 191 185
3 191 195 190
3 190 195 194
3 189 194 193
3 187 193 192
3 187 192 188
3 27 23 188
3 27 28 23
3 28 77 22
3 80 77 78
3 85 80 125
3 129 125 126
3 129 126 130
3 103 79 104
3 124 243 121
3 121 103 104
3 243 247 246
3 79 76 59
3 29 59 33
3 29 33 30
3 30 237 241
3 237 240 241
3 242 246 240
3 126 191 130
3 126 195 191
3 195 200 194
3 194 199 193
3 193 198 192
3 192 196 188
3 27 188 197
3 27 32 28
3 75 77 28
3 78 77 74
3 80 78 122
3 125 80 122
3 125 123 126
3 76 79 103
3 121 243 239
3 121 118 103
3 243 246 242
3 76 60 59
3 59 60 33
3 33 36 30
3 30 233 237
3 236 240 237
3 236 242 240
3 123 195 126
3 123 200 195
3 194 200 199
3 193 199 198
3 192 198 196
3 188 196 197
3 31 27 197
3 31 32 27
3 32 75 28
3 77 75 74
3 78 74 120
3 122 78 120
3 125 122 123
3 102 76 103
3 239 243 238
3 121 239 118
3 118 102 103
3 238 243 242
3 76 73 60
3 33 60 36
3 30 36 37
3 30 37 233
3 233 236 237
3 238 242 236
3 119 200 123
3 200 210 199
3 199 208 198
3 198 202 196
3 196 202 197
3 31 197 201
3 31 35 32
3 72 75 32
3 74 75 72
3 120 74 117
3 122 120 119
3 122 119 123
3 73 76 102
3 234 239 238
3 118 239 235
3 118 115 102
3 73 70 60
3 36 60 41
3 36 41 37
3 37 229 233
3 232 236 233
3 232 238 236
3 119 210 200
3 199 210 208
3 198 208 206
3 198 206 202
3 197 202 201
3 31 201 203
3 34 35 31
3 35 72 32
3 74 72 71
3 117 74 96
3 119 120 117
3 101 73 102
3 235 239 234
3 234 238 232
3 118 235 115
3 115 101 102
3 70 73 101
3 60 70 67
3 60 67 41
3 37 41 42
3 37 42 229
3 229 232 233
3 116 210 119
3 208 210 209
3 206 208 207
3 202 206 205
3 201 202 203
3 34 31 203
3 34 38 35
3 69 72 35
3 71 72 69
3 74 71 96
3 116 117 96
3 119 117 116
3 230 235 234
3 228 234 232
3 115 235 231
3 115 113 101
3 100 70 101
3 70 66 67
3 41 67 45
3 41 45 42
3 42 225 229
3 228 232 229
3 147 210 116
3 209 210 147
3 207 208 209
3 205 206 207
3 204 202 205
3 203 202 204
3 39 34 203
3 39 38 34
3 38 69 35
3 71 69 68
3 71 68 96
3 116 96 114
3 231 235 230
3 230 234 228
3 115 231 113
3 113 100 101
3 66 70 100
3 66 63 67
3 67 63 45
3 42 45 46
3 42 46 225
3 225 228 229
3 116 114 147
3 147 215 209
3 209 215 207
3 207 214 205
3 205 212 204
3 204 212 203
3 39 203 213
3 40 38 39
3 65 69 38
3 68 69 65
3 96 68 97
3 114 96 97
3 227 231 230
3 224 230 228
3 113 231 227
3 113 111 100
3 99 66 100
3 66 61 63
3 45 63 47
3 45 47 46
3 46 221 225
3 224 228 225
3 114 112 147
3 112 215 147
3 207 215 214
3 205 214 212
3 203 212 213
3 40 39 213
3 40 43 38
3 43 65 38
3 68 65 64
3 68 64 97
3 114 97 112
3 227 230 226
3 226 230 224
3 113 227 111
3 111 99 100
3 61 66 99
3 61 62 63
3 63 62 47
3 46 47 44
3 46 44 221
3 221 224 225
3 109 215 112
3 215 219 214
3 214 218 212
3 212 216 213
3 40 213 217
3 44 43 40
3 62 65 43
3 64 65 62
3 97 64 98
3 112 97 98
3 222 227 226
3 220 226 224
3 111 227 223
3 111 110 99
3 98 61 99
3 64 62 61
3 47 62 43
3 44 47 43
3 44 217 221
3 220 224 221
3 109 219 215
3 112 98 109
3 214 219 218
3 212 218 216
3 213 216 217
3 44 40 217
3 64 61 98
3 223 227 222
3 222 226 220
3 111 223 110
3 109 99 110
3 109 98 99
3 217 220 221
3 110 219 109
3 219 223 218
3 218 222 216
3 216 220 217
3 218 223 222
3 216 222 220
3 110 223 219
3 0 1 2
