ply
format ascii 1.0
comment made by tesseract
element vertex 255
property float x
property float y
property float z
element face 510
property list uchar int vertex_indices
end_header
0.0928787 -0.0386213 0.3750000
0.0921421 -0.0381500 0.3750000
0.0926666 -0.0388335 0.3750000
0.0924019 -0.0380000 0.3750000
0.0935000 -0.0390981 0.3750000
0.0933500 -0.0393579 0.3750000
0.0942235 -0.0393978 0.3750000
0.0941459 -0.0396876 0.3750000
0.0921022 -0.0372765 0.3750000
0.0918124 -0.0373541 0.3750000
0.0950000 -0.0398000 0.3750000
0.0920000 -0.0365000 0.3750000
0.0917000 -0.0365000 0.3750000
0.0950000 -0.0395000 0.3750000
0.0957765 -0.0393978 0.3750000
0.0958541 -0.0396876 0.3750000
0.0921022 -0.0357235 0.3750000
0.0918124 -0.0356459 0.3750000
0.0924019 -0.0350000 0.3750000
0.0921421 -0.0348500 0.3750000
0.0965000 -0.0390981 0.3750000
0.0966500 -0.0393579 0.3750000
0.0928787 -0.0343787 0.3750000
0.0926666 -0.0341665 0.3750000
0.0971213 -0.0386213 0.3750000
0.0973335 -0.0388335 0.3750000
0.0933500 -0.0336421 0.3750000
0.0935000 -0.0339019 0.3750000
0.0978579 -0.0381500 0.3750000
0.0975981 -0.0380000 0.3750000
0.0941459 -0.0333124 0.3750000
0.0942235 -0.0336022 0.3750000
0.0981876 -0.0373541 0.3750000
0.0978978 -0.0372765 0.3750000
0.0980000 -0.0365000 0.3750000
0.0950000 -0.0332000 0.3750000
0.0950000 -0.0335000 0.3750000
0.0983000 -0.0365000 0.3750000
0.0958541 -0.0333124 0.3750000
0.0957765 -0.0336022 0.3750000
0.0981876 -0.0356459 0.3750000
0.0978978 -0.0357235 0.3750000
0.0975981 -0.0350000 0.3750000
0.0966500 -0.0336421 0.3750000
0.0965000 -0.0339019 0.3750000
0.0978579 -0.0348500 0.3750000
0.0973335 -0.0341665 0.3750000
0.0971213 -0.0343787 0.3750000
0.0983000 -0.0365000 0.3810000
0.0981876 -0.0373541 0.3810000
0.0978579 -0.0381500 0.3810000
0.0973335 -0.0388335 0.3810000
0.0966500 -0.0393579 0.3810000
0.0958541 -0.0396876 0.3810000
0.0950000 -0.0398000 0.3810000
0.0941459 -0.0396876 0.3810000
0.0933500 -0.0393579 0.3810000
0.0926666 -0.0388335 0.3810000
0.0921421 -0.0381500 0.3810000
0.0918124 -0.0373541 0.3810000
0.0917000 -0.0365000 0.3810000
0.0977713 -0.0381000 0.3810000
0.0972627 -0.0387627 0.3810000
0.0966000 -0.0392713 0.3810000
0.0980910 -0.0373282 0.3810000
0.0958282 -0.0395910 0.3810000
0.0982000 -0.0365000 0.3810000
0.0950000 -0.0397000 0.3810000
0.0981876 -0.0356459 0.3810000
0.0980910 -0.0356718 0.3810000
0.0941718 -0.0395910 0.3810000
0.0977713 -0.0349000 0.3810000
0.0978579 -0.0348500 0.3810000
0.0934000 -0.0392713 0.3810000
0.0973335 -0.0341665 0.3810000
0.0972627 -0.0342373 0.3810000
0.0927373 -0.0387627 0.3810000
0.0922287 -0.0381000 0.3810000
0.0966500 -0.0336421 0.3810000
0.0966000 -0.0337287 0.3810000
0.0919090 -0.0373282 0.3810000
0.0958541 -0.0333124 0.3810000
0.0958282 -0.0334090 0.3810000
0.0918000 -0.0365000 0.3810000
0.0950000 -0.0332000 0.3810000
0.0950000 -0.0333000 0.3810000
0.0941459 -0.0333124 0.3810000
0.0941718 -0.0334090 0.3810000
0.0918124 -0.0356459 0.3810000
0.0919090 -0.0356718 0.3810000
0.0933500 -0.0336421 0.3810000
0.0934000 -0.0337287 0.3810000
0.0921421 -0.0348500 0.3810000
0.0922287 -0.0349000 0.3810000
0.0926666 -0.0341665 0.3810000
0.0927373 -0.0342373 0.3810000
0.0982000 -0.0365000 0.3822000
0.0980910 -0.0373282 0.3822000
0.0977713 -0.0381000 0.3822000
0.0972627 -0.0387627 0.3822000
0.0966000 -0.0392713 0.3822000
0.0958282 -0.0395910 0.3822000
0.0950000 -0.0397000 0.3822000
0.0941718 -0.0395910 0.3822000
0.0934000 -0.0392713 0.3822000
0.0927373 -0.0387627 0.3822000
0.0922287 -0.0381000 0.3822000
0.0919090 -0.0373282 0.3822000
0.0918000 -0.0365000 0.3822000
0.0919090 -0.0356718 0.3822000
0.0922287 -0.0349000 0.3822000
0.0927373 -0.0342373 0.3822000
0.0934000 -0.0337287 0.3822000
0.0941718 -0.0334090 0.3822000
0.0950000 -0.0333000 0.3822000
0.0958282 -0.0334090 0.3822000
0.0966000 -0.0337287 0.3822000
0.0972627 -0.0342373 0.3822000
0.0977713 -0.0349000 0.3822000
0.0980910 -0.0356718 0.3822000
0.0965500 -0.0391847 0.3822000
0.0971920 -0.0386920 0.3822000
0.0976847 -0.0380500 0.3822000
0.0958023 -0.0394944 0.3822000
0.0979944 -0.0373023 0.3822000
0.0950000 -0.0396000 0.3822000
0.0981000 -0.0365000 0.3822000
0.0941977 -0.0394944 0.3822000
0.0979944 -0.0356977 0.3822000
0.0934500 -0.0391847 0.3822000
0.0976847 -0.0349500 0.3822000
0.0928080 -0.0386920 0.3822000
0.0971920 -0.0343080 0.3822000
0.0965500 -0.0338153 0.3822000
0.0923153 -0.0380500 0.3822000
0.0958023 -0.0335056 0.3822000
0.0920056 -0.0373023 0.3822000
0.0950000 -0.0334000 0.3822000
0.0919000 -0.0365000 0.3822000
0.0941977 -0.0335056 0.3822000
0.0920056 -0.0356977 0.3822000
0.0934500 -0.0338153 0.3822000
0.0923153 -0.0349500 0.3822000
0.0928080 -0.0343080 0.3822000
0.0919259 -0.0365000 0.3821966
0.0980741 -0.0365000 0.3821966
0.0919966 -0.0365000 0.3821259
0.0920989 -0.0357227 0.3821259
0.0920000 -0.0365000 0.3821000
0.0919866 -0.0365000 0.3821500
0.0921022 -0.0357235 0.3821000
0.0919707 -0.0365000 0.3821707
0.0920739 -0.0357160 0.3821707
0.0919500 -0.0365000 0.3821866
0.0920539 -0.0357106 0.3821866
0.0923990 -0.0349983 0.3821259
0.0924019 -0.0350000 0.3821000
0.0923766 -0.0349854 0.3821707
0.0923586 -0.0349750 0.3821866
0.0928763 -0.0343763 0.3821259
0.0928787 -0.0343787 0.3821000
0.0928580 -0.0343580 0.3821707
0.0928433 -0.0343433 0.3821866
0.0934983 -0.0338990 0.3821259
0.0935000 -0.0339019 0.3821000
0.0934853 -0.0338766 0.3821707
0.0934750 -0.0338586 0.3821866
0.0942227 -0.0335989 0.3821259
0.0942235 -0.0336022 0.3821000
0.0950000 -0.0335000 0.3821000
0.0942160 -0.0335739 0.3821707
0.0942106 -0.0335539 0.3821866
0.0950000 -0.0334966 0.3821259
0.0950000 -0.0334707 0.3821707
0.0950000 -0.0334500 0.3821866
0.0957773 -0.0335989 0.3821259
0.0957765 -0.0336022 0.3821000
0.0957840 -0.0335739 0.3821707
0.0957894 -0.0335539 0.3821866
0.0965017 -0.0338990 0.3821259
0.0965000 -0.0339019 0.3821000
0.0965146 -0.0338766 0.3821707
0.0965250 -0.0338586 0.3821866
0.0971213 -0.0343787 0.3821000
0.0971237 -0.0343763 0.3821259
0.0975981 -0.0350000 0.3821000
0.0971420 -0.0343580 0.3821707
0.0971567 -0.0343433 0.3821866
0.0976010 -0.0349983 0.3821259
0.0976234 -0.0349854 0.3821707
0.0976414 -0.0349750 0.3821866
0.0978978 -0.0357235 0.3821000
0.0979011 -0.0357227 0.3821259
0.0980000 -0.0365000 0.3821000
0.0980034 -0.0365000 0.3821259
0.0980134 -0.0365000 0.3821500
0.0979261 -0.0357160 0.3821707
0.0980293 -0.0365000 0.3821707
0.0980500 -0.0365000 0.3821866
0.0979461 -0.0357106 0.3821866
0.0979011 -0.0372773 0.3821259
0.0978978 -0.0372765 0.3821000
0.0979107 -0.0372799 0.3821500
0.0979261 -0.0372840 0.3821707
0.0979694 -0.0372956 0.3821966
0.0976010 -0.0380017 0.3821259
0.0975981 -0.0380000 0.3821000
0.0976097 -0.0380067 0.3821500
0.0976234 -0.0380146 0.3821707
0.0976623 -0.0380371 0.3821966
0.0971237 -0.0386237 0.3821259
0.0971213 -0.0386213 0.3821000
0.0971308 -0.0386308 0.3821500
0.0971420 -0.0386420 0.3821707
0.0971737 -0.0386737 0.3821966
0.0965017 -0.0391010 0.3821259
0.0965000 -0.0390981 0.3821000
0.0965067 -0.0391097 0.3821500
0.0965146 -0.0391234 0.3821707
0.0965371 -0.0391623 0.3821966
0.0957773 -0.0394011 0.3821259
0.0957765 -0.0393978 0.3821000
0.0950000 -0.0395000 0.3821000
0.0957799 -0.0394107 0.3821500
0.0957840 -0.0394261 0.3821707
0.0957956 -0.0394694 0.3821966
0.0950000 -0.0395034 0.3821259
0.0950000 -0.0395134 0.3821500
0.0950000 -0.0395293 0.3821707
0.0950000 -0.0395741 0.3821966
0.0942227 -0.0394011 0.3821259
0.0942235 -0.0393978 0.3821000
0.0942201 -0.0394107 0.3821500
0.0942160 -0.0394261 0.3821707
0.0942044 -0.0394694 0.3821966
0.0934983 -0.0391010 0.3821259
0.0935000 -0.0390981 0.3821000
0.0928787 -0.0386213 0.3821000
0.0934933 -0.0391097 0.3821500
0.0934853 -0.0391234 0.3821707
0.0934629 -0.0391623 0.3821966
0.0928763 -0.0386237 0.3821259
0.0924019 -0.0380000 0.3821000
0.0928692 -0.0386308 0.3821500
0.0928580 -0.0386420 0.3821707
0.0928263 -0.0386737 0.3821966
0.0923990 -0.0380017 0.3821259
0.0921022 -0.0372765 0.3821000
0.0923903 -0.0380067 0.3821500
0.0923766 -0.0380146 0.3821707
0.0923377 -0.0380371 0.3821966
0.0920989 -0.0372773 0.3821259
0.0920893 -0.0372799 0.3821500
0.0920739 -0.0372840 0.3821707
0.0920306 -0.0372956 0.3821966
3 3 1 0
3 2 1 57
3 4 0 2
3 8 1 3
3 3 0 237
3 57 1 58
3 56 2 57
3 0 4 236
3 4 2 5
3 8 9 1
3 8 3 242
3 0 236 237
3 3 237 242
3 1 9 58
3 58 76 57
3 5 2 56
3 57 73 56
3 4 231 236
3 6 4 5
3 11 9 8
3 8 242 247
3 236 235 237
3 237 241 242
3 58 9 59
3 58 77 76
3 76 73 57
3 55 5 56
3 73 55 56
3 4 6 231
3 231 235 236
3 6 5 7
3 11 12 9
3 11 8 247
3 242 246 247
3 235 241 237
3 241 246 242
3 9 12 59
3 59 80 58
3 80 77 58
3 76 77 105
3 73 76 104
3 7 5 55
3 73 70 55
3 6 222 231
3 230 235 231
3 10 6 7
3 16 12 11
3 11 247 148
3 246 251 247
3 235 243 241
3 241 248 246
3 59 12 60
3 83 80 59
3 77 80 106
3 105 77 106
3 104 76 105
3 70 73 104
3 54 7 55
3 70 67 55
3 6 13 222
3 222 230 231
3 230 238 235
3 13 6 10
3 10 7 54
3 16 17 12
3 16 11 150
3 247 251 148
3 11 148 150
3 246 252 251
3 238 243 235
3 243 248 241
3 248 252 246
3 12 17 60
3 60 83 59
3 80 83 107
3 106 80 107
3 106 134 105
3 105 131 104
3 103 70 104
3 55 67 54
3 67 70 102
3 13 221 222
3 226 230 222
3 232 238 230
3 14 13 10
3 53 10 54
3 18 17 16
3 16 150 156
3 148 251 146
3 148 147 150
3 251 252 146
3 238 244 243
3 244 248 243
3 248 253 252
3 60 17 88
3 88 83 60
3 107 83 108
3 107 134 106
3 134 131 105
3 131 129 104
3 102 70 103
3 104 127 103
3 67 65 54
3 101 67 102
3 13 14 221
3 221 220 222
3 226 232 230
3 220 226 222
3 232 239 238
3 14 10 15
3 15 10 53
3 54 65 53
3 18 19 17
3 18 16 156
3 150 155 156
3 146 147 148
3 147 155 150
3 146 252 149
3 239 244 238
3 244 249 248
3 249 253 248
3 252 253 149
3 17 19 88
3 88 89 83
3 83 89 108
3 108 136 107
3 107 136 134
3 134 250 131
3 131 245 129
3 129 127 104
3 127 102 103
3 65 67 101
3 125 101 102
3 14 216 221
3 216 220 221
3 227 232 226
3 220 227 226
3 233 239 232
3 20 14 15
3 52 15 53
3 65 63 53
3 22 19 18
3 22 18 156
3 155 159 156
3 149 147 146
3 147 157 155
3 239 245 244
3 244 250 249
3 249 254 253
3 149 253 151
3 88 19 92
3 92 89 88
3 108 89 109
3 108 138 136
3 136 254 134
3 134 254 250
3 131 250 245
3 129 245 240
3 129 240 127
3 127 125 102
3 100 65 101
3 125 123 101
3 14 20 216
3 215 220 216
3 227 233 232
3 223 227 220
3 233 240 239
3 20 15 21
3 21 15 52
3 53 63 52
3 63 65 100
3 22 23 19
3 22 156 160
3 155 161 159
3 156 159 160
3 149 152 147
3 152 157 147
3 157 161 155
3 240 245 239
3 245 250 244
3 250 254 249
3 253 254 153
3 151 253 153
3 151 152 149
3 19 23 92
3 92 93 89
3 89 93 109
3 109 138 108
3 136 138 144
3 144 254 136
3 127 240 234
3 127 229 125
3 123 100 101
3 125 225 123
3 20 211 216
3 217 220 215
3 211 215 216
3 228 233 227
3 223 228 227
3 217 223 220
3 234 240 233
3 24 20 21
3 51 21 52
3 63 51 52
3 62 63 100
3 26 23 22
3 22 160 164
3 161 165 159
3 159 163 160
3 152 158 157
3 157 162 161
3 153 254 144
3 153 154 151
3 151 154 152
3 92 23 94
3 94 93 92
3 109 93 110
3 109 140 138
3 138 140 144
3 127 234 229
3 125 229 225
3 123 120 100
3 123 225 219
3 20 24 211
3 210 217 215
3 210 215 211
3 228 234 233
3 224 228 223
3 217 224 223
3 24 21 25
3 25 21 51
3 63 62 51
3 99 62 100
3 23 26 94
3 26 22 27
3 160 163 164
3 27 22 164
3 161 166 165
3 159 165 163
3 154 158 152
3 158 162 157
3 162 166 161
3 144 154 153
3 94 95 93
3 93 95 110
3 110 140 109
3 140 154 144
3 229 234 228
3 225 229 224
3 123 219 120
3 120 99 100
3 219 225 218
3 24 206 211
3 212 217 210
3 206 210 211
3 224 229 228
3 218 224 217
3 28 24 25
3 50 25 51
3 61 51 62
3 98 62 99
3 94 26 90
3 30 26 27
3 163 167 164
3 31 27 164
3 166 171 165
3 165 167 163
3 140 158 154
3 142 162 158
3 143 166 162
3 94 91 95
3 110 95 111
3 110 142 140
3 218 225 224
3 120 219 121
3 120 121 99
3 213 219 218
3 24 29 206
3 212 218 217
3 205 212 210
3 205 210 206
3 28 29 24
3 28 25 50
3 61 50 51
3 61 62 98
3 122 98 99
3 90 26 86
3 94 90 91
3 26 30 86
3 30 27 31
3 164 167 168
3 31 164 168
3 141 171 166
3 165 171 170
3 165 170 167
3 142 158 140
3 143 162 142
3 141 166 143
3 95 91 112
3 111 95 112
3 111 142 110
3 121 219 214
3 122 99 121
3 214 219 213
3 213 218 212
3 29 201 206
3 207 212 205
3 201 205 206
3 32 29 28
3 49 28 50
3 64 50 61
3 97 61 98
3 124 98 122
3 90 86 87
3 90 87 91
3 30 35 86
3 35 30 31
3 168 167 169
3 36 31 168
3 139 171 141
3 171 174 170
3 170 172 167
3 111 143 142
3 143 112 141
3 91 87 112
3 111 112 143
3 121 214 122
3 208 214 213
3 207 213 212
3 29 33 201
3 200 207 205
3 200 205 201
3 32 33 29
3 32 28 49
3 64 49 50
3 64 61 97
3 124 97 98
3 122 209 124
3 86 85 87
3 86 35 84
3 35 31 36
3 167 172 169
3 36 168 169
3 139 174 171
3 112 139 141
3 170 174 173
3 170 173 172
3 112 87 113
3 122 214 209
3 209 214 208
3 208 213 207
3 33 193 201
3 202 207 200
3 193 200 201
3 34 33 32
3 48 32 49
3 66 49 64
3 96 64 97
3 126 97 124
3 124 209 204
3 86 84 85
3 87 85 113
3 35 38 84
3 38 35 36
3 172 175 169
3 39 36 169
3 137 174 139
3 112 113 139
3 174 178 173
3 173 177 172
3 203 209 208
3 202 208 207
3 33 34 193
3 194 202 200
3 194 200 193
3 37 34 32
3 37 32 48
3 66 48 49
3 66 64 96
3 126 96 97
3 124 204 126
3 204 209 203
3 84 82 85
3 113 85 114
3 84 38 81
3 38 36 39
3 172 177 175
3 169 175 176
3 39 169 176
3 135 174 137
3 139 114 137
3 113 114 139
3 135 178 174
3 173 178 177
3 203 208 202
3 34 191 193
3 195 202 194
3 193 192 194
3 40 34 37
3 68 37 48
3 68 48 66
3 119 66 96
3 128 96 126
3 126 204 145
3 198 204 203
3 84 81 82
3 85 82 114
3 81 38 78
3 43 38 39
3 177 181 175
3 175 179 176
3 44 39 176
3 114 135 137
3 135 182 178
3 178 182 177
3 195 203 202
3 34 41 191
3 191 192 193
3 194 192 195
3 40 41 34
3 40 37 68
3 69 68 66
3 69 66 119
3 128 119 96
3 128 126 145
3 145 204 198
3 198 203 197
3 81 79 82
3 114 82 115
3 38 43 78
3 81 78 79
3 43 39 44
3 177 182 181
3 175 181 179
3 176 179 180
3 44 176 180
3 114 115 135
3 133 182 135
3 197 203 195
3 41 42 191
3 185 192 191
3 192 196 195
3 42 41 40
3 72 40 68
3 71 68 69
3 118 69 119
3 130 119 128
3 145 199 128
3 198 199 145
3 197 196 198
3 82 79 115
3 78 43 74
3 78 75 79
3 46 43 44
3 182 187 181
3 181 186 179
3 179 184 180
3 47 44 180
3 115 116 135
3 132 182 133
3 135 116 133
3 195 196 197
3 42 185 191
3 188 192 185
3 188 196 192
3 45 42 40
3 45 40 72
3 71 72 68
3 71 69 118
3 130 118 119
3 128 190 130
3 128 199 190
3 196 199 198
3 115 79 116
3 43 46 74
3 78 74 75
3 79 75 117
3 46 44 47
3 132 187 182
3 181 187 186
3 179 186 184
3 180 184 183
3 47 180 183
3 133 117 132
3 116 117 133
3 42 183 185
3 184 188 185
3 189 196 188
3 46 42 45
3 74 45 72
3 74 72 71
3 117 71 118
3 132 118 130
3 130 190 132
3 190 199 189
3 189 199 196
3 116 79 117
3 46 45 74
3 74 71 75
3 75 71 117
3 46 47 42
3 132 190 187
3 187 189 186
3 186 189 184
3 183 184 185
3 42 47 183
3 117 118 132
3 184 189 188
3 187 190 189
3 0 1 2
