ply
format ascii 1.0
comment made by tesseract
element vertex 174
property float x
property float y
property float z
element face 348
property list uchar int vertex_indices
end_header
0.3581213 -0.2390000 0.9821213
0.3587713 -0.2390000 0.9816000
0.3582627 -0.2390000 0.9822627
0.3585981 -0.2390000 0.9815000
0.3575000 -0.2390000 0.9825981
0.3576000 -0.2390000 0.9827713
0.3590910 -0.2390000 0.9808282
0.3588978 -0.2390000 0.9807764
0.3567764 -0.2390000 0.9828978
0.3568282 -0.2390000 0.9830909
0.3592000 -0.2390000 0.9800000
0.3590000 -0.2390000 0.9800000
0.3560000 -0.2390000 0.9830000
0.3560000 -0.2390000 0.9832000
0.3590910 -0.2390000 0.9791718
0.3588978 -0.2390000 0.9792235
0.3552235 -0.2390000 0.9828978
0.3551718 -0.2390000 0.9830909
0.3587713 -0.2390000 0.9784001
0.3585981 -0.2390000 0.9785000
0.3545000 -0.2390000 0.9825981
0.3544000 -0.2390000 0.9827713
0.3582627 -0.2390000 0.9777372
0.3581213 -0.2390000 0.9778787
0.3538787 -0.2390000 0.9821213
0.3537372 -0.2390000 0.9822627
0.3534019 -0.2390000 0.9815000
0.3576000 -0.2390000 0.9772287
0.3575000 -0.2390000 0.9774019
0.3532287 -0.2390000 0.9816000
0.3568282 -0.2390000 0.9769090
0.3567764 -0.2390000 0.9771022
0.3529090 -0.2390000 0.9808282
0.3531022 -0.2390000 0.9807764
0.3530000 -0.2390000 0.9800000
0.3560000 -0.2390000 0.9768000
0.3560000 -0.2390000 0.9770000
0.3528000 -0.2390000 0.9800000
0.3551718 -0.2390000 0.9769090
0.3552235 -0.2390000 0.9771022
0.3529090 -0.2390000 0.9791718
0.3531022 -0.2390000 0.9792235
0.3534019 -0.2390000 0.9785000
0.3544000 -0.2390000 0.9772287
0.3545000 -0.2390000 0.9774019
0.3532287 -0.2390000 0.9784001
0.3538787 -0.2390000 0.9778787
0.3537372 -0.2390000 0.9777372
0.3528000 -0.2402000 0.9800000
0.3529090 -0.2402000 0.9808282
0.3532287 -0.2402000 0.9816000
0.3537372 -0.2402000 0.9822627
0.3544000 -0.2402000 0.9827713
0.3551718 -0.2402000 0.9830909
0.3560000 -0.2402000 0.9832000
0.3568282 -0.2402000 0.9830909
0.3576000 -0.2402000 0.9827713
0.3582627 -0.2402000 0.9822627
0.3587713 -0.2402000 0.9816000
0.3590910 -0.2402000 0.9808282
0.3592000 -0.2402000 0.9800000
0.3590910 -0.2402000 0.9791718
0.3587713 -0.2402000 0.9784001
0.3582627 -0.2402000 0.9777372
0.3576000 -0.2402000 0.9772287
0.3568282 -0.2402000 0.9769090
0.3560000 -0.2402000 0.9768000
0.3551718 -0.2402000 0.9769090
0.3544000 -0.2402000 0.9772287
0.3537372 -0.2402000 0.9777372
0.3532287 -0.2402000 0.9784001
0.3529090 -0.2402000 0.9791718
0.3538080 -0.2402000 0.9821920
0.3544500 -0.2402000 0.9826847
0.3533153 -0.2402000 0.9815500
0.3551977 -0.2402000 0.9829944
0.3530056 -0.2402000 0.9808024
0.3560000 -0.2402000 0.9831000
0.3529000 -0.2402000 0.9800000
0.3568023 -0.2402000 0.9829944
0.3530056 -0.2402000 0.9791976
0.3575500 -0.2402000 0.9826847
0.3533153 -0.2402000 0.9784500
0.3581920 -0.2402000 0.9821920
0.3538080 -0.2402000 0.9778080
0.3586847 -0.2402000 0.9815500
0.3544500 -0.2402000 0.9773153
0.3551977 -0.2402000 0.9770056
0.3589944 -0.2402000 0.9808024
0.3591000 -0.2402000 0.9800000
0.3560000 -0.2402000 0.9769000
0.3568023 -0.2402000 0.9770056
0.3589944 -0.2402000 0.9791976
0.3575500 -0.2402000 0.9773153
0.3586847 -0.2402000 0.9784500
0.3581920 -0.2402000 0.9778080
0.3590034 -0.2401259 0.9800000
0.3588978 -0.2401000 0.9792235
0.3590000 -0.2401000 0.9800000
0.3590741 -0.2401966 0.9800000
0.3531022 -0.2401000 0.9792235
0.3529966 -0.2401259 0.9800000
0.3530000 -0.2401000 0.9800000
0.3529259 -0.2401966 0.9800000
0.3590134 -0.2401500 0.9800000
0.3589107 -0.2401500 0.9792201
0.3590293 -0.2401707 0.9800000
0.3590500 -0.2401866 0.9800000
0.3589461 -0.2401866 0.9792106
0.3586097 -0.2401500 0.9784933
0.3585981 -0.2401000 0.9785000
0.3586414 -0.2401866 0.9784750
0.3581213 -0.2401000 0.9778787
0.3581308 -0.2401500 0.9778692
0.3575000 -0.2401000 0.9774019
0.3581567 -0.2401866 0.9778433
0.3575067 -0.2401500 0.9773903
0.3575250 -0.2401866 0.9773586
0.3567764 -0.2401000 0.9771022
0.3567799 -0.2401500 0.9770893
0.3560000 -0.2401000 0.9770000
0.3567894 -0.2401866 0.9770539
0.3560000 -0.2401500 0.9769866
0.3560000 -0.2401866 0.9769500
0.3552235 -0.2401000 0.9771022
0.3552200 -0.2401500 0.9770893
0.3545000 -0.2401000 0.9774019
0.3552106 -0.2401866 0.9770539
0.3544933 -0.2401500 0.9773903
0.3544750 -0.2401866 0.9773586
0.3538692 -0.2401500 0.9778692
0.3538787 -0.2401000 0.9778787
0.3538433 -0.2401866 0.9778433
0.3533903 -0.2401500 0.9784933
0.3534019 -0.2401000 0.9785000
0.3533586 -0.2401866 0.9784750
0.3530893 -0.2401500 0.9792201
0.3529866 -0.2401500 0.9800000
0.3529707 -0.2401707 0.9800000
0.3530539 -0.2401866 0.9792106
0.3529500 -0.2401866 0.9800000
0.3531022 -0.2401000 0.9807764
0.3588978 -0.2401000 0.9807764
0.3530893 -0.2401500 0.9807799
0.3530539 -0.2401866 0.9807894
0.3533903 -0.2401500 0.9815067
0.3534019 -0.2401000 0.9815000
0.3533586 -0.2401866 0.9815250
0.3538692 -0.2401500 0.9821308
0.3538787 -0.2401000 0.9821213
0.3538433 -0.2401866 0.9821567
0.3544933 -0.2401500 0.9826097
0.3545000 -0.2401000 0.9825981
0.3544750 -0.2401866 0.9826413
0.3552200 -0.2401500 0.9829107
0.3552235 -0.2401000 0.9828978
0.3552106 -0.2401866 0.9829460
0.3560000 -0.2401500 0.9830135
0.3560000 -0.2401000 0.9830000
0.3567764 -0.2401000 0.9828978
0.3560000 -0.2401866 0.9830500
0.3567799 -0.2401500 0.9829107
0.3567894 -0.2401866 0.9829460
0.3575067 -0.2401500 0.9826097
0.3575000 -0.2401000 0.9825981
0.3575250 -0.2401866 0.9826413
0.3581308 -0.2401500 0.9821308
0.3581213 -0.2401000 0.9821213
0.3581567 -0.2401866 0.9821567
0.3586097 -0.2401500 0.9815067
0.3585981 -0.2401000 0.9815000
0.3586414 -0.2401866 0.9815250
0.3589107 -0.2401500 0.9807799
0.3589461 -0.2401866 0.9807894
3 3 1 0
3 2 1 57
3 4 0 2
3 6 1 3
3 3 0 167
3 57 1 58
3 56 2 57
3 0 4 164
3 4 2 5
3 1 6 58
3 7 6 3
3 0 164 167
3 3 167 170
3 58 83 57
3 5 2 56
3 57 81 56
3 4 159 164
3 8 4 5
3 58 6 59
3 10 6 7
3 7 3 170
3 164 166 167
3 167 169 170
3 58 85 83
3 83 81 57
3 9 5 56
3 81 79 56
3 4 8 159
3 159 163 164
3 8 5 9
3 6 10 59
3 59 85 58
3 11 10 7
3 7 170 142
3 163 166 164
3 166 169 167
3 169 172 170
3 85 171 83
3 83 168 81
3 55 9 56
3 81 162 79
3 56 79 55
3 8 158 159
3 161 163 159
3 12 8 9
3 59 10 60
3 59 88 85
3 14 10 11
3 11 7 142
3 170 172 142
3 163 168 166
3 166 171 169
3 171 172 169
3 88 171 85
3 83 171 168
3 81 168 165
3 54 9 55
3 81 165 162
3 79 162 77
3 79 77 55
3 8 12 158
3 158 157 159
3 161 165 163
3 157 161 159
3 12 9 13
3 10 14 60
3 60 88 59
3 15 14 11
3 11 142 98
3 142 172 96
3 165 168 163
3 168 171 166
3 171 173 172
3 88 173 171
3 13 9 54
3 55 77 54
3 162 165 161
3 77 162 160
3 12 155 158
3 155 157 158
3 157 162 161
3 16 12 13
3 60 14 61
3 60 89 88
3 18 14 15
3 15 11 98
3 142 96 98
3 96 172 104
3 172 173 106
3 99 173 88
3 53 13 54
3 77 75 54
3 160 162 157
3 77 160 75
3 12 16 155
3 154 157 155
3 16 13 17
3 14 18 61
3 61 89 60
3 88 89 99
3 19 18 15
3 15 98 97
3 96 97 98
3 104 172 106
3 104 105 96
3 106 173 107
3 107 173 99
3 17 13 53
3 54 75 53
3 154 160 157
3 75 160 156
3 16 152 155
3 152 154 155
3 20 16 17
3 61 18 62
3 61 92 89
3 89 92 99
3 22 18 19
3 19 15 97
3 96 105 97
3 106 105 104
3 107 108 106
3 99 108 107
3 52 17 53
3 75 73 53
3 156 160 154
3 75 156 73
3 16 20 152
3 151 154 152
3 20 17 21
3 18 22 62
3 62 92 61
3 92 108 99
3 23 22 19
3 19 97 110
3 105 109 97
3 106 108 105
3 21 17 52
3 53 73 52
3 151 156 154
3 73 156 153
3 20 149 152
3 149 151 152
3 24 20 21
3 62 22 63
3 62 94 92
3 92 111 108
3 27 22 23
3 23 19 110
3 97 109 110
3 105 111 109
3 108 111 105
3 25 21 52
3 73 72 52
3 153 156 151
3 73 153 72
3 20 24 149
3 148 151 149
3 25 24 21
3 63 22 64
3 63 94 62
3 94 111 92
3 22 27 64
3 27 23 28
3 23 110 112
3 109 113 110
3 111 115 109
3 51 25 52
3 52 72 51
3 148 153 151
3 72 153 150
3 24 146 149
3 146 148 149
3 26 24 25
3 63 64 93
3 63 95 94
3 94 115 111
3 27 30 64
3 28 23 112
3 30 27 28
3 110 113 112
3 109 115 113
3 50 25 51
3 74 51 72
3 150 153 148
3 72 150 74
3 24 26 146
3 145 148 146
3 29 26 25
3 64 65 93
3 63 93 95
3 95 115 94
3 64 30 65
3 28 112 114
3 30 28 31
3 112 113 114
3 115 117 113
3 29 25 50
3 74 50 51
3 145 150 148
3 74 150 147
3 26 141 146
3 141 145 146
3 32 26 29
3 93 65 91
3 93 117 95
3 95 117 115
3 30 35 65
3 28 114 118
3 31 28 118
3 35 30 31
3 113 116 114
3 113 117 116
3 49 29 50
3 76 50 74
3 147 150 145
3 74 147 76
3 26 33 141
3 143 145 141
3 32 33 26
3 32 29 49
3 65 66 91
3 91 121 93
3 93 121 117
3 65 35 66
3 114 119 118
3 36 31 118
3 35 31 36
3 116 119 114
3 117 121 116
3 76 49 50
3 143 147 145
3 76 147 144
3 33 102 141
3 101 143 141
3 34 33 32
3 48 32 49
3 91 66 90
3 91 123 121
3 35 38 66
3 118 119 120
3 36 118 120
3 38 35 36
3 116 121 119
3 78 49 76
3 144 147 143
3 76 144 103
3 33 34 102
3 101 141 102
3 137 143 101
3 37 34 32
3 37 32 48
3 78 48 49
3 66 87 90
3 90 123 91
3 121 123 119
3 66 38 67
3 119 122 120
3 39 36 120
3 38 36 39
3 78 76 103
3 138 144 143
3 103 144 140
3 34 100 102
3 100 101 102
3 138 143 137
3 101 136 137
3 40 34 37
3 40 37 48
3 80 48 78
3 66 67 87
3 87 127 90
3 90 127 123
3 119 123 122
3 38 43 67
3 122 125 120
3 39 120 124
3 43 38 39
3 80 78 103
3 140 144 138
3 140 139 103
3 34 41 100
3 100 136 101
3 137 136 138
3 40 41 34
3 71 40 48
3 80 71 48
3 67 68 87
3 86 127 87
3 123 127 125
3 123 125 122
3 67 43 68
3 120 125 124
3 44 39 124
3 43 39 44
3 103 139 80
3 138 139 140
3 41 134 100
3 134 136 100
3 136 139 138
3 42 41 40
3 70 40 71
3 82 71 80
3 87 68 86
3 86 129 127
3 127 129 125
3 43 47 68
3 124 125 126
3 44 124 126
3 47 43 44
3 80 139 82
3 41 42 134
3 133 136 134
3 135 139 136
3 45 42 40
3 45 40 70
3 82 70 71
3 68 84 86
3 86 132 129
3 125 129 128
3 68 47 69
3 125 128 126
3 44 126 131
3 47 44 46
3 82 139 135
3 42 131 134
3 135 136 133
3 131 133 134
3 45 46 42
3 69 45 70
3 84 70 82
3 68 69 84
3 84 132 86
3 129 132 130
3 129 130 128
3 47 45 69
3 128 130 126
3 126 130 131
3 46 44 131
3 47 46 45
3 82 135 84
3 42 46 131
3 130 135 133
3 130 133 131
3 69 70 84
3 84 135 132
3 132 135 130
3 0 1 2
