ply
format ascii 1.0
comment made by tesseract
element vertex 207
property float x
property float y
property float z
element face 414
property list uchar int vertex_indices
end_header
0.0206245 0.0672368 0.4427045
0.0198859 0.0671427 0.4430786
0.0205276 0.0671664 0.4425443
0.0200229 0.0672145 0.4432054
0.0195612 0.0672658 0.4438360
0.0193935 0.0671973 0.4437512
0.0213250 0.0673310 0.4423673
0.0212749 0.0672669 0.4421846
0.0192711 0.0673870 0.4445532
0.0190840 0.0673266 0.4445162
0.0220768 0.0674907 0.4422169
0.0220768 0.0674372 0.4420242
0.0191721 0.0675699 0.4453083
0.0189784 0.0675217 0.4453216
0.0228286 0.0677051 0.4422635
0.0228787 0.0676659 0.4420739
0.0192711 0.0678021 0.4460496
0.0190840 0.0677694 0.4461124
0.0235292 0.0679595 0.4425040
0.0236260 0.0679373 0.4423304
0.0195612 0.0680677 0.4467268
0.0193935 0.0680527 0.4468347
0.0241308 0.0682366 0.4429219
0.0242677 0.0682329 0.4427761
0.0198859 0.0683524 0.4474394
0.0200229 0.0683486 0.4472937
0.0245924 0.0685175 0.4434887
0.0247601 0.0685325 0.4433808
0.0206245 0.0686257 0.4477116
0.0205276 0.0686480 0.4478851
0.0250696 0.0688158 0.4441031
0.0248826 0.0687831 0.4441659
0.0212749 0.0689193 0.4481416
0.0213250 0.0688802 0.4479520
0.0249816 0.0690153 0.4449073
0.0251752 0.0690635 0.4448939
0.0220768 0.0691480 0.4481913
0.0220768 0.0690945 0.4479986
0.0248826 0.0691982 0.4456623
0.0250696 0.0692586 0.4456993
0.0228787 0.0693184 0.4480309
0.0228286 0.0692543 0.4478482
0.0247601 0.0693879 0.4464644
0.0245924 0.0693194 0.4463795
0.0236260 0.0694188 0.4476713
0.0235292 0.0693484 0.4475110
0.0241308 0.0693707 0.4470101
0.0242677 0.0694426 0.4471370
0.0222268 0.0685882 0.4483466
0.0230287 0.0687586 0.4481862
0.0237760 0.0688590 0.4478266
0.0244177 0.0688827 0.4472922
0.0249101 0.0688281 0.4466196
0.0252196 0.0686988 0.4458546
0.0253252 0.0685037 0.4450492
0.0252196 0.0682560 0.4442584
0.0249101 0.0679727 0.4435361
0.0244177 0.0676731 0.4429314
0.0237760 0.0673775 0.4424857
0.0230287 0.0671061 0.4422292
0.0222268 0.0668774 0.4421795
0.0214249 0.0667070 0.4423399
0.0206776 0.0666066 0.4426996
0.0200359 0.0665829 0.4432338
0.0195435 0.0666375 0.4439065
0.0192340 0.0667668 0.4446715
0.0191284 0.0669619 0.4454769
0.0192340 0.0672096 0.4462677
0.0195435 0.0674929 0.4469900
0.0200359 0.0677925 0.4475947
0.0206776 0.0680881 0.4480404
0.0214249 0.0683595 0.4482969
0.0248263 0.0687939 0.4465773
0.0243492 0.0688468 0.4472288
0.0237276 0.0688238 0.4477465
0.0230037 0.0687265 0.4480948
0.0251261 0.0686686 0.4458361
0.0252284 0.0684796 0.4450559
0.0222268 0.0685615 0.4482502
0.0251261 0.0682397 0.4442898
0.0214500 0.0683399 0.4482021
0.0248263 0.0679652 0.4435900
0.0207260 0.0680770 0.4479536
0.0243492 0.0676749 0.4430043
0.0201044 0.0677907 0.4475218
0.0237276 0.0673886 0.4425725
0.0196274 0.0675004 0.4469361
0.0230037 0.0671257 0.4423240
0.0193275 0.0672259 0.4462363
0.0192253 0.0669860 0.4454702
0.0222268 0.0669041 0.4422759
0.0193275 0.0667970 0.4446900
0.0214500 0.0667391 0.4424313
0.0196274 0.0666717 0.4439489
0.0207260 0.0666418 0.4427797
0.0201044 0.0666188 0.4432973
0.0222083 0.0669991 0.4423498
0.0214500 0.0668645 0.4424967
0.0222018 0.0670242 0.4423463
0.0222260 0.0685577 0.4482244
0.0222143 0.0669739 0.4423464
0.0214556 0.0668392 0.4425003
0.0222195 0.0669504 0.4423364
0.0214604 0.0667891 0.4424883
0.0222235 0.0669300 0.4423206
0.0214591 0.0667676 0.4424735
0.0214556 0.0667506 0.4424540
0.0222260 0.0669142 0.4422999
0.0207543 0.0667449 0.4428379
0.0207495 0.0667703 0.4428339
0.0207530 0.0666940 0.4428287
0.0207469 0.0666719 0.4428163
0.0207377 0.0666541 0.4427995
0.0201520 0.0667227 0.4433393
0.0201479 0.0667480 0.4433348
0.0201455 0.0666715 0.4433345
0.0201353 0.0666493 0.4433255
0.0201213 0.0666313 0.4433128
0.0196899 0.0667739 0.4439707
0.0196862 0.0667993 0.4439654
0.0196794 0.0667233 0.4439712
0.0196660 0.0667013 0.4439666
0.0196482 0.0666838 0.4439590
0.0193993 0.0668953 0.4446887
0.0193961 0.0669205 0.4446826
0.0193863 0.0668456 0.4446955
0.0193709 0.0668246 0.4446958
0.0193509 0.0668080 0.4446939
0.0193003 0.0670784 0.4454446
0.0192971 0.0671034 0.4454376
0.0192864 0.0670304 0.4454579
0.0192703 0.0670106 0.4454634
0.0192495 0.0669954 0.4454676
0.0193993 0.0673109 0.4461868
0.0193961 0.0673356 0.4461790
0.0193863 0.0672648 0.4462065
0.0193709 0.0672466 0.4462171
0.0193509 0.0672333 0.4462273
0.0196899 0.0675768 0.4468648
0.0196862 0.0676012 0.4468562
0.0196794 0.0675330 0.4468903
0.0196660 0.0675166 0.4469056
0.0196482 0.0675055 0.4469212
0.0201520 0.0678580 0.4474322
0.0201479 0.0678821 0.4474231
0.0201455 0.0678167 0.4474627
0.0201353 0.0678022 0.4474819
0.0201213 0.0677934 0.4475021
0.0207543 0.0681355 0.4478506
0.0207495 0.0681592 0.4478409
0.0207530 0.0680965 0.4478847
0.0207469 0.0680840 0.4479068
0.0207377 0.0680773 0.4479303
0.0214500 0.0684137 0.4480814
0.0214556 0.0683902 0.4480913
0.0222018 0.0686280 0.4481280
0.0222083 0.0686048 0.4481380
0.0222143 0.0685850 0.4481539
0.0214604 0.0683534 0.4481275
0.0222195 0.0685699 0.4481745
0.0214591 0.0683426 0.4481512
0.0222235 0.0685606 0.4481986
0.0214556 0.0683380 0.4481767
0.0229536 0.0672386 0.4423929
0.0229609 0.0687647 0.4479874
0.0229536 0.0687878 0.4479776
0.0229786 0.0687312 0.4480227
0.0229963 0.0687214 0.4480703
0.0236623 0.0688590 0.4476499
0.0236542 0.0688819 0.4476405
0.0236860 0.0688263 0.4476823
0.0237142 0.0688179 0.4477248
0.0242646 0.0688813 0.4471484
0.0242558 0.0689042 0.4471396
0.0242935 0.0688487 0.4471764
0.0243307 0.0688407 0.4472115
0.0247267 0.0688300 0.4465171
0.0247174 0.0688530 0.4465090
0.0250076 0.0687317 0.4457917
0.0247596 0.0687970 0.4465397
0.0248037 0.0687882 0.4465654
0.0250172 0.0687086 0.4457991
0.0250527 0.0686746 0.4458154
0.0251010 0.0686640 0.4458304
0.0251163 0.0685255 0.4450431
0.0251066 0.0685488 0.4450367
0.0251526 0.0684899 0.4450530
0.0252025 0.0684766 0.4450567
0.0250172 0.0682930 0.4443009
0.0250076 0.0683166 0.4442953
0.0250527 0.0682554 0.4443044
0.0251010 0.0682386 0.4442970
0.0247267 0.0680271 0.4436230
0.0247174 0.0680510 0.4436181
0.0242558 0.0677701 0.4430513
0.0247596 0.0679872 0.4436206
0.0248037 0.0679665 0.4436032
0.0242646 0.0677459 0.4430555
0.0242935 0.0677036 0.4430482
0.0243307 0.0676786 0.4430223
0.0236623 0.0674684 0.4426371
0.0236542 0.0674930 0.4426334
0.0236860 0.0674237 0.4426263
0.0237142 0.0673946 0.4425941
0.0229609 0.0672137 0.4423964
0.0229786 0.0671668 0.4423835
0.0229963 0.0671339 0.4423477
3 0 3 1
3 2 1 62
3 6 0 2
3 3 0 109
3 4 1 3
3 62 1 63
3 61 2 62
3 0 6 97
3 6 2 7
3 0 97 109
3 3 109 114
3 4 5 1
3 4 3 114
3 1 5 63
3 63 94 62
3 7 2 61
3 62 92 61
3 6 98 97
3 10 6 7
3 97 108 109
3 109 113 114
3 8 5 4
3 4 114 119
3 63 5 64
3 63 95 94
3 62 94 92
3 60 7 61
3 61 92 60
3 6 10 98
3 96 97 98
3 10 7 11
3 101 108 97
3 108 113 109
3 113 118 114
3 8 9 5
3 8 4 119
3 114 118 119
3 5 9 64
3 63 64 93
3 63 93 95
3 95 117 94
3 94 112 92
3 11 7 60
3 92 90 60
3 10 14 98
3 96 101 97
3 163 96 98
3 14 10 11
3 101 110 108
3 110 113 108
3 113 120 118
3 12 9 8
3 8 119 124
3 118 123 119
3 64 9 65
3 64 91 93
3 93 122 95
3 95 122 117
3 94 117 112
3 92 112 106
3 59 11 60
3 92 106 90
3 60 90 87
3 14 163 98
3 100 101 96
3 163 204 96
3 14 11 15
3 103 110 101
3 110 115 113
3 115 120 113
3 120 125 118
3 12 13 9
3 12 8 124
3 119 123 124
3 118 125 123
3 9 13 65
3 64 65 91
3 91 127 93
3 93 127 122
3 117 122 116
3 112 117 111
3 106 112 105
3 15 11 59
3 60 87 59
3 90 106 107
3 87 90 107
3 14 18 163
3 100 103 101
3 96 204 100
3 200 204 163
3 18 14 15
3 103 111 110
3 110 116 115
3 116 120 115
3 120 126 125
3 16 13 12
3 12 124 129
3 123 128 124
3 125 130 123
3 65 13 66
3 65 66 91
3 91 132 127
3 122 127 121
3 116 122 121
3 111 117 116
3 105 112 111
3 104 106 105
3 19 15 59
3 59 87 58
3 107 106 104
3 107 206 87
3 18 201 163
3 102 103 100
3 204 205 100
3 200 205 204
3 201 200 163
3 18 15 19
3 105 111 103
3 111 116 110
3 116 121 120
3 121 126 120
3 126 131 125
3 16 17 13
3 16 12 129
3 124 128 129
3 123 130 128
3 125 131 130
3 66 13 67
3 91 66 89
3 89 132 91
3 127 132 131
3 121 127 126
3 104 105 102
3 58 19 59
3 87 85 58
3 104 206 107
3 87 206 85
3 18 22 201
3 102 105 103
3 100 205 102
3 202 205 200
3 194 200 201
3 22 18 19
3 127 131 126
3 20 17 16
3 13 17 67
3 16 129 134
3 128 133 129
3 130 135 128
3 131 135 130
3 66 67 89
3 89 137 132
3 132 137 131
3 102 205 104
3 23 19 58
3 58 85 57
3 205 206 104
3 85 206 203
3 22 194 201
3 202 206 205
3 197 202 200
3 197 200 194
3 22 19 23
3 20 21 17
3 20 16 134
3 17 21 67
3 129 133 134
3 128 135 133
3 131 136 135
3 89 67 88
3 88 137 89
3 131 137 136
3 57 23 58
3 85 83 57
3 203 206 202
3 85 203 83
3 22 26 194
3 198 202 197
3 192 197 194
3 26 22 23
3 24 21 20
3 20 134 139
3 67 21 68
3 133 138 134
3 135 140 133
3 136 140 135
3 67 86 88
3 88 142 137
3 137 142 136
3 27 23 57
3 57 83 81
3 199 203 202
3 83 203 199
3 26 193 194
3 199 202 198
3 192 198 197
3 193 192 194
3 27 26 23
3 21 24 68
3 24 20 25
3 134 138 139
3 25 20 139
3 67 68 86
3 133 140 138
3 136 141 140
3 86 142 88
3 136 142 141
3 56 27 57
3 83 199 81
3 57 81 56
3 26 31 193
3 196 199 198
3 195 198 192
3 189 192 193
3 30 26 27
3 68 24 69
3 28 24 25
3 138 143 139
3 25 139 144
3 68 84 86
3 140 145 138
3 141 146 140
3 86 147 142
3 142 147 141
3 30 27 56
3 81 199 196
3 81 55 56
3 30 31 26
3 31 189 193
3 196 198 195
3 188 195 192
3 188 192 189
3 24 29 69
3 68 69 84
3 29 24 28
3 28 25 144
3 138 145 143
3 139 143 144
3 84 147 86
3 140 146 145
3 141 147 146
3 55 30 56
3 81 196 79
3 81 79 55
3 34 31 30
3 31 34 189
3 190 196 195
3 190 195 188
3 185 188 189
3 69 29 70
3 69 70 84
3 32 29 28
3 28 144 149
3 145 150 143
3 143 148 144
3 84 152 147
3 146 151 145
3 147 152 146
3 35 30 55
3 79 196 191
3 79 54 55
3 35 34 30
3 34 185 189
3 191 196 190
3 186 190 188
3 184 188 185
3 70 29 71
3 84 70 82
3 29 32 71
3 32 28 33
3 144 148 149
3 33 28 149
3 145 151 150
3 143 150 148
3 82 152 84
3 146 152 151
3 54 35 55
3 79 191 77
3 79 77 54
3 38 34 35
3 34 38 185
3 186 191 190
3 186 188 184
3 178 184 185
3 82 70 71
3 32 36 71
3 36 32 33
3 148 154 149
3 33 149 153
3 151 160 150
3 150 154 148
3 82 162 152
3 152 162 151
3 39 35 54
3 77 191 187
3 77 76 54
3 39 38 35
3 38 178 185
3 187 191 186
3 181 186 184
3 181 184 178
3 82 71 80
3 71 36 48
3 36 33 37
3 149 154 153
3 37 33 153
3 151 162 160
3 150 160 158
3 150 158 154
3 80 162 82
3 53 39 54
3 77 187 76
3 54 76 53
3 42 38 39
3 38 43 178
3 182 187 186
3 182 186 181
3 176 181 178
3 80 71 48
3 48 36 49
3 40 36 37
3 153 154 155
3 37 153 155
3 160 162 99
3 158 160 159
3 154 158 157
3 99 162 80
3 42 39 53
3 76 187 183
3 76 52 53
3 42 43 38
3 43 177 178
3 183 187 182
3 176 182 181
3 177 176 178
3 80 48 78
3 36 40 49
3 78 48 49
3 40 37 41
3 155 154 156
3 37 155 165
3 161 160 99
3 159 160 161
3 157 158 159
3 156 154 157
3 80 78 99
3 52 42 53
3 76 183 72
3 76 72 52
3 47 43 42
3 43 46 177
3 179 183 182
3 179 182 176
3 173 176 177
3 49 40 50
3 78 49 75
3 41 37 165
3 44 40 41
3 156 164 155
3 155 164 165
3 99 167 161
3 161 166 159
3 159 166 157
3 157 164 156
3 78 167 99
3 47 42 52
3 72 183 180
3 72 51 52
3 47 46 43
3 46 173 177
3 180 183 179
3 172 179 176
3 172 176 173
3 40 44 50
3 75 49 50
3 75 167 78
3 41 165 169
3 44 41 45
3 164 168 165
3 161 167 166
3 157 166 164
3 51 47 52
3 72 180 73
3 72 73 51
3 47 44 46
3 46 45 173
3 174 180 179
3 174 179 172
3 169 172 173
3 50 44 51
3 75 50 74
3 75 171 167
3 165 168 169
3 45 41 169
3 44 45 46
3 164 170 168
3 167 171 166
3 166 170 164
3 44 47 51
3 73 180 175
3 74 51 73
3 45 169 173
3 175 180 174
3 168 174 172
3 168 172 169
3 74 50 51
3 74 171 75
3 170 174 168
3 166 171 170
3 73 175 74
3 170 175 174
3 74 175 171
3 171 175 170
3 0 1 2
