ply
format ascii 1.0
comment made by tesseract
element vertex 244
property float x
property float y
property float z
element face 488
property list uchar int vertex_indices
end_header
0.3930352 -0.1865000 1.2511885
0.3939424 -0.1868713 1.2512571
0.3935899 -0.1872249 1.2512305
0.3945620 -0.1873481 1.2513038
0.3943127 -0.1877811 1.2512851
0.3926866 -0.1856559 1.2511623
0.3934670 -0.1862500 1.2512212
0.3952835 -0.1876478 1.2513584
0.3951544 -0.1881307 1.2513486
0.3931682 -0.1855265 1.2511986
0.3925677 -0.1847500 1.2511532
0.3930663 -0.1847500 1.2511909
0.3960577 -0.1877500 1.2514169
0.3960577 -0.1882500 1.2514169
0.3926866 -0.1838441 1.2511623
0.3931682 -0.1839735 1.2511986
0.3968320 -0.1876478 1.2514755
0.3969610 -0.1881307 1.2514851
0.3930352 -0.1830000 1.2511885
0.3934670 -0.1832500 1.2512212
0.3975535 -0.1873481 1.2515299
0.3978027 -0.1877811 1.2515489
0.3939424 -0.1826287 1.2512571
0.3981730 -0.1868713 1.2515768
0.3935899 -0.1822751 1.2512305
0.3985255 -0.1872249 1.2516034
0.3945620 -0.1821519 1.2513038
0.3986484 -0.1862500 1.2516127
0.3943127 -0.1817189 1.2512851
0.3990802 -0.1865000 1.2516452
0.3952835 -0.1818522 1.2513584
0.3989473 -0.1855265 1.2516353
0.3951544 -0.1813693 1.2513486
0.3994288 -0.1856559 1.2516717
0.3960577 -0.1817500 1.2514169
0.3990492 -0.1847500 1.2516429
0.3960577 -0.1812500 1.2514169
0.3995478 -0.1847500 1.2516806
0.3968320 -0.1818522 1.2514755
0.3989473 -0.1839735 1.2516353
0.3994288 -0.1838441 1.2516717
0.3969610 -0.1813693 1.2514851
0.3975535 -0.1821519 1.2515299
0.3986484 -0.1832500 1.2516127
0.3990802 -0.1830000 1.2516452
0.3978027 -0.1817189 1.2515489
0.3981730 -0.1826287 1.2515768
0.3985255 -0.1822751 1.2516034
0.3929444 -0.1847500 1.2461673
0.3930633 -0.1838441 1.2461764
0.3934120 -0.1830000 1.2462027
0.3939666 -0.1822751 1.2462447
0.3946894 -0.1817189 1.2462993
0.3955311 -0.1813693 1.2463629
0.3964345 -0.1812500 1.2464311
0.3973377 -0.1813693 1.2464994
0.3981795 -0.1817189 1.2465630
0.3989023 -0.1822751 1.2466176
0.3994569 -0.1830000 1.2466595
0.3998056 -0.1838441 1.2466859
0.3999245 -0.1847500 1.2466948
0.3941781 -0.1870127 1.2462606
0.3939666 -0.1872249 1.2462447
0.3946894 -0.1877811 1.2462993
0.3936711 -0.1863500 1.2462223
0.3934120 -0.1865000 1.2462027
0.3948390 -0.1875213 1.2463106
0.3933523 -0.1855782 1.2461983
0.3930633 -0.1856559 1.2461764
0.3956086 -0.1878410 1.2463688
0.3955311 -0.1881307 1.2463629
0.3932436 -0.1847500 1.2461901
0.3964345 -0.1879500 1.2464311
0.3964345 -0.1882500 1.2464311
0.3933523 -0.1839218 1.2461983
0.3972603 -0.1878410 1.2464936
0.3973377 -0.1881307 1.2464994
0.3936711 -0.1831500 1.2462223
0.3980299 -0.1875213 1.2465516
0.3981795 -0.1877811 1.2465630
0.3941781 -0.1824873 1.2462606
0.3989023 -0.1872249 1.2466176
0.3986908 -0.1870127 1.2466016
0.3991978 -0.1863500 1.2466398
0.3948390 -0.1819787 1.2463106
0.3994569 -0.1865000 1.2466595
0.3995166 -0.1855782 1.2466640
0.3956086 -0.1816590 1.2463688
0.3998056 -0.1856559 1.2466859
0.3964345 -0.1815500 1.2464311
0.3996254 -0.1847500 1.2466723
0.3972603 -0.1816590 1.2464936
0.3995166 -0.1839218 1.2466640
0.3980299 -0.1819787 1.2465516
0.3991978 -0.1831500 1.2466398
0.3986908 -0.1824873 1.2466016
0.3932888 -0.1847500 1.2455916
0.3933975 -0.1855782 1.2456000
0.3937162 -0.1863500 1.2456241
0.3942234 -0.1870127 1.2456623
0.3948842 -0.1875213 1.2457123
0.3956538 -0.1878410 1.2457703
0.3964797 -0.1879500 1.2458329
0.3973055 -0.1878410 1.2458953
0.3980751 -0.1875213 1.2459533
0.3987360 -0.1870127 1.2460033
0.3992431 -0.1863500 1.2460417
0.3995618 -0.1855782 1.2460656
0.3996706 -0.1847500 1.2460740
0.3995618 -0.1839218 1.2460656
0.3992431 -0.1831500 1.2460417
0.3987360 -0.1824873 1.2460033
0.3980751 -0.1819787 1.2459533
0.3973055 -0.1816590 1.2458953
0.3964797 -0.1815500 1.2458329
0.3956538 -0.1816590 1.2457703
0.3948842 -0.1819787 1.2457123
0.3942234 -0.1824873 1.2456623
0.3937162 -0.1831500 1.2456241
0.3933975 -0.1839218 1.2456000
0.3942938 -0.1869420 1.2456677
0.3938026 -0.1863000 1.2456305
0.3949341 -0.1874347 1.2457161
0.3934938 -0.1855523 1.2456071
0.3956796 -0.1877444 1.2457724
0.3933885 -0.1847500 1.2455993
0.3964797 -0.1878500 1.2458329
0.3934938 -0.1839477 1.2456071
0.3972797 -0.1877444 1.2458934
0.3938026 -0.1832000 1.2456305
0.3980253 -0.1874347 1.2459496
0.3942938 -0.1825580 1.2456677
0.3986655 -0.1869420 1.2459980
0.3949341 -0.1820653 1.2457161
0.3991567 -0.1863000 1.2460351
0.3956796 -0.1817556 1.2457724
0.3994655 -0.1855523 1.2460585
0.3964797 -0.1816500 1.2458329
0.3995709 -0.1847500 1.2460665
0.3972797 -0.1817556 1.2458934
0.3994655 -0.1839477 1.2460585
0.3991567 -0.1832000 1.2460351
0.3980253 -0.1820653 1.2459496
0.3986655 -0.1825580 1.2459980
0.3994689 -0.1847500 1.2461331
0.3993617 -0.1839735 1.2461509
0.3994636 -0.1847500 1.2461586
0.3995448 -0.1847500 1.2460679
0.3994807 -0.1847500 1.2461097
0.3993669 -0.1839727 1.2461253
0.3990628 -0.1832500 1.2461283
0.3994981 -0.1847500 1.2460903
0.3993952 -0.1839660 1.2460825
0.3995200 -0.1847500 1.2460761
0.3994403 -0.1839544 1.2460599
0.3990677 -0.1832483 1.2461027
0.3990934 -0.1832353 1.2460597
0.3991341 -0.1832129 1.2460369
0.3985874 -0.1826287 1.2460924
0.3985918 -0.1826263 1.2460668
0.3979679 -0.1821519 1.2460456
0.3986134 -0.1826080 1.2460234
0.3986470 -0.1825763 1.2460001
0.3979715 -0.1821490 1.2460198
0.3979878 -0.1821266 1.2459762
0.3980121 -0.1820877 1.2459520
0.3972492 -0.1818489 1.2459654
0.3972464 -0.1818522 1.2459911
0.3972593 -0.1818239 1.2459211
0.3972728 -0.1817806 1.2458961
0.3964741 -0.1817466 1.2459067
0.3964721 -0.1817500 1.2459325
0.3964775 -0.1817207 1.2458620
0.3964794 -0.1816759 1.2458361
0.3956979 -0.1818522 1.2458740
0.3956989 -0.1818489 1.2458482
0.3949764 -0.1821519 1.2458196
0.3956957 -0.1818239 1.2458030
0.3956860 -0.1817806 1.2457763
0.3949766 -0.1821490 1.2457936
0.3949671 -0.1821266 1.2457479
0.3949467 -0.1820877 1.2457205
0.3943564 -0.1826263 1.2457467
0.3943568 -0.1826287 1.2457727
0.3943415 -0.1826080 1.2457007
0.3943118 -0.1825763 1.2456725
0.3938804 -0.1832483 1.2457108
0.3938814 -0.1832500 1.2457368
0.3938615 -0.1832353 1.2456645
0.3938247 -0.1832129 1.2456356
0.3935826 -0.1839735 1.2457142
0.3935813 -0.1839727 1.2456881
0.3934807 -0.1847500 1.2457066
0.3934792 -0.1847500 1.2456805
0.3934711 -0.1847500 1.2456557
0.3935597 -0.1839660 1.2456416
0.3934568 -0.1847500 1.2456338
0.3934373 -0.1847500 1.2456163
0.3935185 -0.1839544 1.2456125
0.3934140 -0.1847500 1.2456046
0.3935813 -0.1855273 1.2456881
0.3935826 -0.1855265 1.2457142
0.3935597 -0.1855340 1.2456416
0.3935185 -0.1855456 1.2456125
0.3938804 -0.1862517 1.2457108
0.3938814 -0.1862500 1.2457368
0.3938615 -0.1862646 1.2456645
0.3938247 -0.1862871 1.2456356
0.3943564 -0.1868737 1.2457467
0.3943568 -0.1868713 1.2457727
0.3943415 -0.1868920 1.2457007
0.3943118 -0.1869237 1.2456725
0.3949766 -0.1873510 1.2457936
0.3949764 -0.1873481 1.2458196
0.3949671 -0.1873734 1.2457479
0.3949467 -0.1874123 1.2457205
0.3956989 -0.1876511 1.2458482
0.3956979 -0.1876478 1.2458740
0.3956957 -0.1876761 1.2458030
0.3956860 -0.1877194 1.2457763
0.3964741 -0.1877534 1.2459067
0.3964721 -0.1877500 1.2459325
0.3964775 -0.1877793 1.2458620
0.3964794 -0.1878241 1.2458361
0.3972492 -0.1876511 1.2459654
0.3972464 -0.1876478 1.2459911
0.3972593 -0.1876761 1.2459211
0.3972728 -0.1877194 1.2458961
0.3979715 -0.1873510 1.2460198
0.3979679 -0.1873481 1.2460456
0.3985874 -0.1868713 1.2460924
0.3979878 -0.1873734 1.2459762
0.3980121 -0.1874123 1.2459520
0.3985918 -0.1868737 1.2460668
0.3986134 -0.1868920 1.2460234
0.3986470 -0.1869237 1.2460001
0.3990677 -0.1862517 1.2461027
0.3990628 -0.1862500 1.2461283
0.3990934 -0.1862646 1.2460597
0.3991341 -0.1862871 1.2460369
0.3993669 -0.1855273 1.2461253
0.3993617 -0.1855265 1.2461509
0.3993952 -0.1855340 1.2460825
0.3994403 -0.1855456 1.2460599
3 0 6 1
3 1 3 2
3 2 62 0
3 5 6 0
3 1 6 205
3 3 1 209
3 2 3 4
3 63 62 2
3 62 65 0
3 5 9 6
3 0 65 5
3 6 201 205
3 1 205 209
3 3 209 213
3 3 7 4
3 4 63 2
3 61 62 63
3 64 65 62
3 5 10 9
3 6 9 201
3 65 68 5
3 201 204 205
3 205 208 209
3 209 212 213
3 7 3 213
3 4 7 8
3 70 63 4
3 64 62 61
3 66 61 63
3 67 65 64
3 5 48 10
3 10 11 9
3 9 192 201
3 67 68 65
3 68 48 5
3 200 204 201
3 204 208 205
3 208 212 209
3 212 216 213
3 7 213 217
3 7 12 8
3 8 70 4
3 69 63 70
3 64 61 98
3 61 66 99
3 69 66 63
3 67 64 97
3 10 48 14
3 10 15 11
3 9 11 192
3 192 200 201
3 71 68 67
3 71 48 68
3 200 206 204
3 204 210 208
3 208 214 212
3 212 218 216
3 213 216 217
3 12 7 217
3 8 12 13
3 73 70 8
3 72 69 70
3 98 61 99
3 97 64 98
3 99 66 100
3 66 69 100
3 71 67 97
3 48 49 14
3 14 15 10
3 11 15 192
3 193 200 192
3 74 48 71
3 202 206 200
3 206 210 204
3 210 214 208
3 214 218 212
3 218 220 216
3 216 220 217
3 12 217 221
3 12 16 13
3 13 73 8
3 72 70 73
3 69 72 101
3 121 98 99
3 123 97 98
3 100 120 99
3 100 69 101
3 96 71 97
3 74 49 48
3 14 49 18
3 14 19 15
3 15 190 192
3 194 200 193
3 192 191 193
3 74 71 119
3 202 207 206
3 194 202 200
3 206 211 210
3 210 215 214
3 215 218 214
3 218 222 220
3 217 220 221
3 16 12 221
3 13 16 17
3 76 73 13
3 75 72 73
3 101 72 102
3 123 98 121
3 121 99 120
3 125 97 123
3 122 120 100
3 124 100 101
3 119 71 96
3 125 96 97
3 77 49 74
3 49 50 18
3 18 19 14
3 15 19 187
3 15 187 190
3 190 191 192
3 193 191 194
3 77 74 119
3 203 207 202
3 207 211 206
3 196 202 194
3 211 215 210
3 215 219 218
3 218 223 222
3 222 226 220
3 220 224 221
3 16 221 225
3 16 20 17
3 17 76 13
3 75 73 76
3 72 75 102
3 126 101 102
3 121 207 123
3 120 211 121
3 123 203 125
3 122 215 120
3 124 122 100
3 126 124 101
3 127 119 96
3 127 96 125
3 77 50 49
3 18 50 24
3 18 22 19
3 19 183 187
3 187 191 190
3 191 195 194
3 118 77 119
3 123 207 203
3 197 203 202
3 121 211 207
3 197 202 196
3 194 195 196
3 120 215 211
3 122 219 215
3 219 223 218
3 223 227 222
3 222 227 226
3 220 226 224
3 221 224 225
3 20 16 225
3 17 20 21
3 79 76 17
3 78 75 76
3 102 75 103
3 128 126 102
3 125 203 199
3 124 219 122
3 126 223 124
3 118 119 127
3 125 198 127
3 51 50 77
3 50 51 24
3 18 24 22
3 19 22 183
3 183 186 187
3 186 191 187
3 186 195 191
3 80 77 118
3 199 203 197
3 196 195 197
3 124 223 219
3 126 227 223
3 227 232 226
3 226 231 224
3 224 228 225
3 20 225 229
3 20 23 21
3 21 79 17
3 78 76 79
3 75 78 103
3 128 102 103
3 128 227 126
3 199 198 125
3 129 118 127
3 127 198 189
3 80 51 77
3 24 51 28
3 24 26 22
3 22 176 183
3 182 186 183
3 188 195 186
3 117 80 118
3 197 198 199
3 195 198 197
3 128 232 227
3 226 232 231
3 224 231 228
3 225 228 229
3 23 20 229
3 23 25 21
3 81 79 21
3 81 78 79
3 103 78 104
3 104 128 103
3 131 118 129
3 127 189 129
3 189 198 188
3 52 51 80
3 51 52 28
3 24 28 26
3 22 26 176
3 176 182 183
3 182 188 186
3 188 198 195
3 84 80 117
3 117 118 131
3 130 232 128
3 232 235 231
3 231 234 228
3 229 228 230
3 23 229 230
3 23 27 25
3 25 81 21
3 82 78 81
3 78 82 104
3 130 128 104
3 129 185 131
3 129 189 185
3 184 189 188
3 52 80 84
3 28 52 32
3 28 30 26
3 26 174 176
3 179 182 176
3 184 188 182
3 116 84 117
3 116 117 131
3 130 235 232
3 231 235 234
3 228 234 233
3 228 233 230
3 27 23 230
3 27 29 25
3 85 81 25
3 83 82 81
3 104 82 105
3 132 130 104
3 131 185 181
3 185 189 184
3 53 52 84
3 52 53 32
3 28 32 30
3 26 30 174
3 174 175 176
3 179 184 182
3 175 179 176
3 87 84 116
3 116 131 133
3 132 235 130
3 235 238 234
3 234 238 233
3 233 236 230
3 27 230 237
3 27 31 29
3 29 85 25
3 85 83 81
3 82 83 105
3 105 132 104
3 181 185 180
3 131 181 133
3 180 185 184
3 53 84 87
3 32 53 36
3 32 34 30
3 30 171 174
3 171 175 174
3 180 184 179
3 175 180 179
3 115 87 116
3 115 116 133
3 132 239 235
3 235 239 238
3 233 238 236
3 230 236 237
3 31 27 237
3 31 33 29
3 88 85 29
3 86 83 85
3 105 83 106
3 106 132 105
3 178 181 180
3 133 181 178
3 54 53 87
3 53 54 36
3 32 36 34
3 30 34 171
3 170 175 171
3 177 180 175
3 89 87 115
3 115 133 135
3 134 239 132
3 239 243 238
3 238 242 236
3 236 240 237
3 31 237 241
3 31 35 33
3 33 88 29
3 88 86 85
3 83 86 106
3 106 134 132
3 178 180 177
3 133 178 135
3 54 87 89
3 36 54 41
3 36 38 34
3 34 167 171
3 170 177 175
3 167 170 171
3 114 89 115
3 137 115 135
3 134 243 239
3 238 243 242
3 236 242 240
3 237 240 241
3 35 31 241
3 35 37 33
3 60 88 33
3 60 86 88
3 106 86 107
3 107 134 106
3 172 178 177
3 135 178 173
3 91 54 89
3 54 55 41
3 36 41 38
3 34 38 167
3 172 177 170
3 166 170 167
3 91 89 114
3 114 115 137
3 135 173 137
3 136 243 134
3 242 243 153
3 240 242 148
3 241 240 146
3 35 241 146
3 35 40 37
3 37 60 33
3 60 90 86
3 107 86 108
3 107 136 134
3 173 178 172
3 55 54 91
3 41 55 45
3 38 41 42
3 38 160 167
3 166 172 170
3 160 166 167
3 113 91 114
3 113 114 137
3 137 173 169
3 147 243 136
3 153 243 147
3 151 242 153
3 148 242 151
3 144 240 148
3 146 240 144
3 35 146 145
3 39 40 35
3 40 60 37
3 92 90 60
3 86 90 108
3 108 138 107
3 138 136 107
3 168 173 172
3 56 55 91
3 55 56 45
3 41 45 42
3 38 42 160
3 168 172 166
3 163 166 160
3 93 91 113
3 113 137 139
3 169 173 168
3 137 169 139
3 136 138 147
3 147 154 153
3 153 152 151
3 151 152 148
3 148 149 144
3 144 145 146
3 39 35 145
3 39 44 40
3 59 60 40
3 90 92 108
3 59 92 60
3 109 138 108
3 56 91 93
3 56 57 45
3 42 45 46
3 42 158 160
3 164 168 166
3 164 166 163
3 159 163 160
3 112 93 113
3 112 113 139
3 164 169 168
3 139 169 165
3 138 140 147
3 140 154 147
3 153 154 152
3 148 152 149
3 144 149 145
3 43 39 145
3 43 44 39
3 44 58 40
3 58 59 40
3 108 92 109
3 58 92 59
3 109 140 138
3 57 56 93
3 45 57 47
3 45 47 46
3 42 46 158
3 158 159 160
3 159 164 163
3 95 93 112
3 112 139 142
3 165 169 164
3 139 165 142
3 141 154 140
3 154 157 152
3 152 156 149
3 145 149 150
3 43 145 150
3 43 47 44
3 47 58 44
3 109 92 110
3 58 94 92
3 141 140 109
3 57 93 95
3 57 58 47
3 46 47 43
3 46 150 158
3 150 159 158
3 161 164 159
3 111 95 112
3 143 112 142
3 161 165 164
3 142 165 162
3 141 157 154
3 152 157 156
3 149 156 155
3 149 155 150
3 46 43 150
3 92 94 110
3 110 141 109
3 57 94 58
3 57 95 94
3 155 159 150
3 155 161 159
3 94 95 111
3 111 112 143
3 142 162 143
3 162 165 161
3 143 157 141
3 157 162 156
3 156 161 155
3 110 94 111
3 111 141 110
3 111 143 141
3 143 162 157
3 156 162 161
3 0 1 2
