ply
format ascii 1.0
comment made by tesseract
element vertex 77
property float x
property float y
property float z
element face 150
property list uchar int vertex_indices
end_header
1.5792192 -0.0767625 2.1770742
1.5797611 -0.0767625 2.1768901
1.5790279 -0.0776438 2.1756201
1.5790279 -0.0750000 2.1800201
1.5794107 -0.0758813 2.1785283
1.5778891 -0.0750000 2.1798701
1.5801666 -0.0750000 2.1798701
1.5801914 -0.0767625 2.1765130
1.5812278 -0.0750000 2.1794305
1.5804945 -0.0758813 2.1781604
1.5821390 -0.0750000 2.1787312
1.5804445 -0.0767625 2.1759994
1.5828383 -0.0750000 2.1778200
1.5813550 -0.0758813 2.1774058
1.5804819 -0.0767625 2.1754284
1.5832778 -0.0750000 2.1767588
1.5818613 -0.0758813 2.1763792
1.5834279 -0.0750000 2.1756201
1.5802979 -0.0767625 2.1748867
1.5832778 -0.0750000 2.1744812
1.5819360 -0.0758813 2.1752372
1.5799206 -0.0767625 2.1744566
1.5828383 -0.0750000 2.1734200
1.5815681 -0.0758813 2.1741533
1.5821390 -0.0750000 2.1725087
1.5808135 -0.0758813 2.1732926
1.5801666 -0.0750000 2.1713698
1.5812278 -0.0750000 2.1718097
1.5788364 -0.0767625 2.1741660
1.5782944 -0.0767625 2.1743498
1.5778891 -0.0750000 2.1713698
1.5786449 -0.0758813 2.1727116
1.5790279 -0.0750000 2.1712201
1.5778643 -0.0767625 2.1747270
1.5759165 -0.0750000 2.1725087
1.5775611 -0.0758813 2.1730795
1.5768278 -0.0750000 2.1718097
1.5776111 -0.0767625 2.1752405
1.5752172 -0.0750000 2.1734200
1.5767007 -0.0758813 2.1738343
1.5775738 -0.0767625 2.1758115
1.5746278 -0.0750000 2.1756201
1.5761944 -0.0758813 2.1748610
1.5747777 -0.0750000 2.1744812
1.5777577 -0.0767625 2.1763532
1.5747777 -0.0750000 2.1767588
1.5761195 -0.0758813 2.1760030
1.5781350 -0.0767625 2.1767838
1.5759165 -0.0750000 2.1787312
1.5764874 -0.0758813 2.1770866
1.5752172 -0.0750000 2.1778200
1.5772420 -0.0758813 2.1779473
1.5768278 -0.0750000 2.1794305
1.5801666 -0.0710000 2.1713698
1.5790279 -0.0710000 2.1712201
1.5778891 -0.0710000 2.1713698
1.5768278 -0.0710000 2.1718097
1.5759165 -0.0710000 2.1725087
1.5752172 -0.0710000 2.1734200
1.5747777 -0.0710000 2.1744812
1.5746278 -0.0710000 2.1756201
1.5747777 -0.0710000 2.1767588
1.5752172 -0.0710000 2.1778200
1.5759165 -0.0710000 2.1787312
1.5768278 -0.0710000 2.1794305
1.5778891 -0.0710000 2.1798701
1.5821390 -0.0710000 2.1787312
1.5832778 -0.0710000 2.1767588
1.5828383 -0.0710000 2.1778200
1.5801666 -0.0710000 2.1798701
1.5790279 -0.0710000 2.1800201
1.5812278 -0.0710000 2.1794305
1.5834279 -0.0710000 2.1756201
1.5828383 -0.0710000 2.1734200
1.5832778 -0.0710000 2.1744812
1.5812278 -0.0710000 2.1718097
1.5821390 -0.0710000 2.1725087
3 0 9 1
3 1 7 2
3 2 4 0
3 4 9 0
3 9 13 1
3 1 13 7
3 7 11 2
3 5 4 2
3 6 9 4
3 10 13 9
3 13 16 7
3 7 16 11
3 11 14 2
3 3 4 5
3 2 51 5
3 8 9 6
3 6 4 3
3 12 13 10
3 10 9 8
3 12 16 13
3 16 20 11
3 11 20 14
3 14 18 2
3 5 65 3
3 47 51 2
3 5 51 52
3 6 69 8
3 3 70 6
3 10 66 12
3 8 71 10
3 15 16 12
3 17 20 16
3 14 20 18
3 18 21 2
3 64 65 5
3 65 70 3
3 44 51 47
3 44 47 2
3 52 51 48
3 52 64 5
3 70 69 6
3 69 71 8
3 71 66 10
3 66 68 12
3 17 16 15
3 12 68 15
3 19 20 17
3 20 23 18
3 18 25 21
3 21 25 2
3 65 64 70
3 49 51 44
3 40 44 2
3 48 51 49
3 48 63 52
3 63 64 52
3 69 70 71
3 71 70 66
3 66 67 68
3 15 67 17
3 68 67 15
3 19 23 20
3 17 72 19
3 23 25 18
3 2 25 26
3 64 63 70
3 40 49 44
3 37 40 2
3 48 49 50
3 62 63 48
3 70 61 66
3 66 61 67
3 67 72 17
3 22 23 19
3 72 74 19
3 24 25 23
3 26 25 27
3 26 28 2
3 63 62 70
3 46 49 40
3 37 46 40
3 33 37 2
3 50 49 45
3 50 62 48
3 62 61 70
3 61 60 67
3 67 60 72
3 24 23 22
3 19 74 22
3 72 73 74
3 27 25 24
3 27 75 26
3 26 31 28
3 28 29 2
3 45 49 46
3 42 46 37
3 33 42 37
3 29 33 2
3 45 61 50
3 61 62 50
3 60 61 45
3 60 59 72
3 22 73 24
3 74 73 22
3 72 59 73
3 24 76 27
3 76 75 27
3 75 53 26
3 32 31 26
3 31 35 28
3 28 35 29
3 45 46 41
3 41 46 42
3 39 42 33
3 29 39 33
3 41 60 45
3 59 60 41
3 73 76 24
3 59 58 73
3 73 75 76
3 75 54 53
3 26 53 32
3 30 31 32
3 30 35 31
3 35 39 29
3 41 42 43
3 38 42 39
3 43 59 41
3 58 59 43
3 73 58 75
3 75 55 54
3 53 54 32
3 32 54 30
3 36 35 30
3 34 39 35
3 43 42 38
3 38 39 34
3 38 58 43
3 58 57 75
3 75 56 55
3 54 55 30
3 34 35 36
3 30 55 36
3 34 57 38
3 57 58 38
3 75 57 56
3 55 56 36
3 36 56 34
3 56 57 34
3 0 1 2
