ply
format ascii 1.0
comment made by tesseract
element vertex 120
property float x
property float y
property float z
element face 214
property list uchar int vertex_indices
end_header
0.3949149 -0.1953000 0.4447326
0.3944201 -0.1953000 0.4358233
0.3955930 -0.1953000 0.4357582
0.3955930 -0.1958500 0.4357582
0.3944201 -0.1958500 0.4358233
0.3933040 -0.1953000 0.4361898
0.3933040 -0.1958500 0.4361898
0.3923208 -0.1953000 0.4368327
0.3923208 -0.1958500 0.4368327
0.3915375 -0.1953000 0.4377081
0.3915375 -0.1958500 0.4377082
0.3910074 -0.1953000 0.4387565
0.3910074 -0.1958500 0.4387565
0.3907667 -0.1953000 0.4399063
0.3907667 -0.1958500 0.4399063
0.3908319 -0.1953000 0.4410792
0.3908319 -0.1958500 0.4410793
0.3911984 -0.1953000 0.4421954
0.3911984 -0.1958500 0.4421954
0.3918412 -0.1953000 0.4431786
0.3918412 -0.1958500 0.4431786
0.3927167 -0.1953000 0.4439619
0.3927167 -0.1958500 0.4439619
0.3937650 -0.1953000 0.4444920
0.3937650 -0.1958500 0.4444920
0.3949149 -0.1958500 0.4447326
0.3960878 -0.1958500 0.4446675
0.3960878 -0.1953000 0.4446675
0.3972039 -0.1958500 0.4443009
0.3972039 -0.1953000 0.4443009
0.3981871 -0.1958500 0.4436581
0.3981871 -0.1953000 0.4436581
0.3989704 -0.1958500 0.4427826
0.3989705 -0.1953000 0.4427826
0.3995005 -0.1958500 0.4417343
0.3995005 -0.1953000 0.4417343
0.3997411 -0.1958500 0.4405845
0.3997411 -0.1953000 0.4405845
0.3996760 -0.1958500 0.4394116
0.3996760 -0.1953000 0.4394115
0.3993095 -0.1958500 0.4382955
0.3993095 -0.1953000 0.4382955
0.3986667 -0.1958500 0.4373122
0.3986666 -0.1953000 0.4373122
0.3977912 -0.1958500 0.4365289
0.3977912 -0.1953000 0.4365289
0.3967429 -0.1958500 0.4359988
0.3967428 -0.1953000 0.4359988
0.3980242 -0.1958500 0.4434685
0.3970956 -0.1958500 0.4440757
0.3987640 -0.1958500 0.4426417
0.3960415 -0.1958500 0.4444218
0.3992645 -0.1958500 0.4416516
0.3949337 -0.1958500 0.4444833
0.3994918 -0.1958500 0.4405656
0.3938477 -0.1958500 0.4442560
0.3994303 -0.1958500 0.4394579
0.3928576 -0.1958500 0.4437554
0.3990842 -0.1958500 0.4384038
0.3920308 -0.1958500 0.4430156
0.3984770 -0.1958500 0.4374752
0.3914237 -0.1958500 0.4420870
0.3976502 -0.1958500 0.4367354
0.3910775 -0.1958500 0.4410329
0.3966601 -0.1958500 0.4362348
0.3955742 -0.1958500 0.4360075
0.3910160 -0.1958500 0.4399252
0.3944664 -0.1958500 0.4360690
0.3912433 -0.1958500 0.4388392
0.3934123 -0.1958500 0.4364151
0.3924837 -0.1958500 0.4370223
0.3917439 -0.1958500 0.4378491
0.3910160 -0.2005500 0.4399252
0.3910775 -0.2005500 0.4410329
0.3914237 -0.2005500 0.4420870
0.3920308 -0.2005500 0.4430156
0.3928576 -0.2005500 0.4437554
0.3938477 -0.2005500 0.4442560
0.3949337 -0.2005500 0.4444833
0.3960415 -0.2005500 0.4444218
0.3970956 -0.2005500 0.4440757
0.3980242 -0.2005500 0.4434685
0.3987640 -0.2005500 0.4426417
0.3992645 -0.2005500 0.4416516
0.3994918 -0.2005500 0.4405656
0.3994303 -0.2005500 0.4394579
0.3990842 -0.2005500 0.4384038
0.3984770 -0.2005500 0.4374752
0.3976502 -0.2005500 0.4367354
0.3966601 -0.2005500 0.4362348
0.3955742 -0.2005500 0.4360075
0.3944664 -0.2005500 0.4360690
0.3934123 -0.2005500 0.4364151
0.3924837 -0.2005500 0.4370223
0.3917439 -0.2005500 0.4378491
0.3912433 -0.2005500 0.4388392
0.3989197 -0.2008500 0.4395542
0.3989737 -0.2008500 0.4405265
0.3986159 -0.2008500 0.4386289
0.3980830 -0.2008500 0.4378139
0.3973573 -0.2008500 0.4371645
0.3964882 -0.2008500 0.4367251
0.3955350 -0.2008500 0.4365256
0.3945627 -0.2008500 0.4365796
0.3936375 -0.2008500 0.4368834
0.3928224 -0.2008500 0.4374163
0.3921731 -0.2008500 0.4381421
0.3917337 -0.2008500 0.4390111
0.3915341 -0.2008500 0.4399643
0.3915882 -0.2008500 0.4409367
0.3918920 -0.2008500 0.4418619
0.3924249 -0.2008500 0.4426769
0.3931506 -0.2008500 0.4433263
0.3940197 -0.2008500 0.4437657
0.3949728 -0.2008500 0.4439652
0.3959452 -0.2008500 0.4439112
0.3968704 -0.2008500 0.4436074
0.3976855 -0.2008500 0.4430744
0.3983348 -0.2008500 0.4423487
0.3987742 -0.2008500 0.4414797
3 2 47 3
3 1 3 4
3 47 46 3
3 67 4 3
3 5 1 4
3 47 45 46
3 65 3 46
3 67 69 4
3 65 67 3
3 5 4 6
3 45 44 46
3 64 65 46
3 69 67 91
3 69 6 4
3 67 65 90
3 7 5 6
3 45 43 44
3 64 46 44
3 65 64 89
3 67 90 91
3 69 91 92
3 70 6 69
3 65 89 90
3 7 6 8
3 43 42 44
3 62 64 44
3 64 88 89
3 91 90 103
3 92 91 104
3 70 69 92
3 70 8 6
3 90 89 102
3 9 7 8
3 43 41 42
3 62 44 42
3 64 62 88
3 89 88 101
3 103 90 102
3 104 91 103
3 105 92 104
3 70 92 93
3 71 8 70
3 102 89 101
3 9 8 10
3 41 40 42
3 60 62 42
3 62 87 88
3 101 88 100
3 102 101 103
3 103 101 104
3 93 92 105
3 104 100 105
3 71 70 93
3 10 8 71
3 11 9 10
3 41 39 40
3 60 42 40
3 62 60 87
3 88 87 100
3 101 100 104
3 106 93 105
3 105 100 107
3 71 93 94
3 68 10 71
3 11 10 12
3 39 38 40
3 58 60 40
3 60 86 87
3 100 87 99
3 94 93 106
3 106 105 107
3 107 100 118
3 68 71 94
3 12 10 68
3 13 11 12
3 39 37 38
3 38 58 40
3 60 58 86
3 87 86 99
3 100 99 118
3 107 94 106
3 107 118 112
3 68 94 95
3 66 12 68
3 13 12 14
3 37 36 38
3 56 58 38
3 58 85 86
3 99 86 98
3 118 99 97
3 95 94 107
3 112 118 115
3 111 107 112
3 66 68 95
3 14 12 66
3 15 13 14
3 37 35 36
3 54 38 36
3 58 56 85
3 54 56 38
3 86 85 98
3 97 99 98
3 118 97 119
3 72 95 107
3 115 118 116
3 112 115 113
3 110 107 111
3 112 75 111
3 66 95 72
3 16 14 66
3 15 14 16
3 35 34 36
3 52 54 36
3 56 84 85
3 56 54 84
3 98 85 96
3 97 98 96
3 97 83 119
3 119 82 118
3 72 107 108
3 116 118 117
3 116 79 115
3 113 115 114
3 113 76 112
3 108 107 110
3 111 74 110
3 76 75 112
3 75 74 111
3 63 66 72
3 16 66 63
3 17 15 16
3 35 33 34
3 52 36 34
3 54 52 84
3 85 84 96
3 96 84 97
3 84 83 97
3 83 82 119
3 82 81 118
3 109 72 108
3 118 81 117
3 117 80 116
3 80 79 116
3 79 78 115
3 115 78 114
3 114 77 113
3 77 76 113
3 109 108 110
3 74 73 110
3 57 75 76
3 59 74 75
3 63 72 73
3 18 16 63
3 17 16 18
3 33 32 34
3 50 52 34
3 52 83 84
3 50 82 83
3 50 81 82
3 73 72 109
3 81 80 117
3 49 79 80
3 51 78 79
3 78 77 114
3 57 76 77
3 110 73 109
3 63 73 74
3 57 59 75
3 59 61 74
3 18 63 61
3 19 17 18
3 33 31 32
3 50 34 32
3 52 50 83
3 50 48 81
3 48 80 81
3 49 51 79
3 48 49 80
3 51 53 78
3 53 77 78
3 55 57 77
3 61 63 74
3 22 59 57
3 20 61 59
3 20 18 61
3 19 18 20
3 31 30 32
3 48 50 32
3 28 51 49
3 30 49 48
3 26 53 51
3 53 55 77
3 24 57 55
3 22 20 59
3 22 57 24
3 21 19 20
3 31 29 30
3 30 48 32
3 26 51 28
3 28 49 30
3 25 53 26
3 25 55 53
3 24 55 25
3 21 20 22
3 23 22 24
3 29 28 30
3 27 26 28
3 0 25 26
3 0 24 25
3 23 21 22
3 0 23 24
3 29 27 28
3 27 0 26
3 1 2 3
