ply
format ascii 1.0
comment made by tesseract
element vertex 120
property float x
property float y
property float z
element face 236
property list uchar int vertex_indices
end_header
0.3314784 -0.2254000 1.9057121
0.3315806 -0.2265000 1.9064887
0.3314784 -0.2265000 1.9057121
0.3315806 -0.2254000 1.9064887
0.3311787 -0.2254000 1.9049886
0.3311787 -0.2265000 1.9049886
0.3307019 -0.2254000 1.9043673
0.3307019 -0.2265000 1.9043673
0.3300806 -0.2254000 1.9038906
0.3300806 -0.2265000 1.9038906
0.3293571 -0.2254000 1.9035909
0.3293571 -0.2265000 1.9035909
0.3285806 -0.2254000 1.9034886
0.3285806 -0.2265000 1.9034886
0.3278042 -0.2254000 1.9035909
0.3278042 -0.2265000 1.9035909
0.3270806 -0.2254000 1.9038906
0.3270806 -0.2265000 1.9038906
0.3264593 -0.2254000 1.9043673
0.3264593 -0.2265000 1.9043673
0.3259825 -0.2254000 1.9049886
0.3259825 -0.2265000 1.9049886
0.3256828 -0.2254000 1.9057121
0.3256828 -0.2265000 1.9057121
0.3255806 -0.2265000 1.9064887
0.3255806 -0.2254000 1.9064887
0.3250645 -0.2265000 1.9029645
0.3261000 -0.2265000 1.9021699
0.3242699 -0.2265000 1.9040000
0.3273059 -0.2265000 1.9016705
0.3286000 -0.2265000 1.9015000
0.3237704 -0.2265000 1.9052060
0.3298941 -0.2265000 1.9016705
0.3236000 -0.2265000 1.9065000
0.3311000 -0.2265000 1.9021699
0.3237704 -0.2265000 1.9077941
0.3256828 -0.2265000 1.9072652
0.3321355 -0.2265000 1.9029645
0.3259825 -0.2265000 1.9079887
0.3242699 -0.2265000 1.9090000
0.3329301 -0.2265000 1.9040000
0.3264593 -0.2265000 1.9086100
0.3250645 -0.2265000 1.9100355
0.3334296 -0.2265000 1.9052060
0.3270806 -0.2265000 1.9090868
0.3261000 -0.2265000 1.9108300
0.3278042 -0.2265000 1.9093865
0.3336000 -0.2265000 1.9065000
0.3314784 -0.2265000 1.9072652
0.3273059 -0.2265000 1.9113296
0.3285806 -0.2265000 1.9094887
0.3334296 -0.2265000 1.9077941
0.3311787 -0.2265000 1.9079887
0.3286000 -0.2265000 1.9115000
0.3293571 -0.2265000 1.9093865
0.3329301 -0.2265000 1.9090000
0.3298941 -0.2265000 1.9113296
0.3300806 -0.2265000 1.9090868
0.3321355 -0.2265000 1.9100355
0.3307019 -0.2265000 1.9086100
0.3311000 -0.2265000 1.9108300
0.3236000 -0.2205926 1.9065000
0.3237704 -0.2205926 1.9077941
0.3242699 -0.2205926 1.9090000
0.3250645 -0.2205926 1.9100355
0.3261000 -0.2205926 1.9108300
0.3273059 -0.2205926 1.9113296
0.3286000 -0.2205926 1.9115000
0.3298941 -0.2205926 1.9113296
0.3311000 -0.2205926 1.9108300
0.3321355 -0.2205926 1.9100355
0.3329301 -0.2205926 1.9090000
0.3334296 -0.2205926 1.9077941
0.3336000 -0.2205926 1.9065000
0.3250645 -0.2205926 1.9029645
0.3237704 -0.2205926 1.9052060
0.3242699 -0.2205926 1.9040000
0.3273059 -0.2205926 1.9016705
0.3286000 -0.2205926 1.9015000
0.3261000 -0.2205926 1.9021699
0.3298941 -0.2205926 1.9016705
0.3321355 -0.2205926 1.9029645
0.3329301 -0.2205926 1.9040000
0.3311000 -0.2205926 1.9021699
0.3334296 -0.2205926 1.9052060
0.3256828 -0.2254000 1.9072652
0.3259825 -0.2254000 1.9079887
0.3264593 -0.2254000 1.9086100
0.3270806 -0.2254000 1.9090868
0.3278042 -0.2254000 1.9093865
0.3285806 -0.2254000 1.9094887
0.3293571 -0.2254000 1.9093865
0.3300806 -0.2254000 1.9090868
0.3307019 -0.2254000 1.9086100
0.3311787 -0.2254000 1.9079887
0.3314784 -0.2254000 1.9072652
0.3305806 -0.2244000 1.9064887
0.3305125 -0.2244000 1.9070064
0.3303126 -0.2244000 1.9074887
0.3299948 -0.2244000 1.9079028
0.3295806 -0.2244000 1.9082206
0.3290983 -0.2244000 1.9084206
0.3285806 -0.2244000 1.9084886
0.3280630 -0.2244000 1.9084206
0.3275806 -0.2244000 1.9082206
0.3271664 -0.2244000 1.9079028
0.3268486 -0.2244000 1.9074887
0.3266488 -0.2244000 1.9070064
0.3265806 -0.2244000 1.9064887
0.3266488 -0.2244000 1.9059711
0.3268486 -0.2244000 1.9054886
0.3271664 -0.2244000 1.9050745
0.3275806 -0.2244000 1.9047565
0.3280630 -0.2244000 1.9045568
0.3285806 -0.2244000 1.9044887
0.3290983 -0.2244000 1.9045568
0.3295806 -0.2244000 1.9047565
0.3299948 -0.2244000 1.9050745
0.3303126 -0.2244000 1.9054886
0.3305125 -0.2244000 1.9059711
3 0 3 1
3 2 1 43
3 4 0 2
3 3 0 96
3 3 48 1
3 1 47 43
3 2 43 40
3 0 4 118
3 4 2 5
3 0 119 96
3 3 96 97
3 3 95 48
3 48 47 1
3 47 84 43
3 43 82 40
3 5 2 40
3 4 117 118
3 0 118 119
3 6 4 5
3 117 96 119
3 117 97 96
3 95 3 97
3 95 52 48
3 48 51 47
3 73 84 47
3 84 82 43
3 40 82 37
3 5 40 37
3 4 6 117
3 117 119 118
3 6 5 7
3 117 101 97
3 94 95 97
3 95 94 52
3 52 51 48
3 51 72 47
3 73 72 84
3 72 73 47
3 82 84 80
3 82 81 37
3 7 5 37
3 6 116 117
3 8 6 7
3 117 111 101
3 97 101 99
3 94 97 98
3 94 59 52
3 52 55 51
3 55 72 51
3 84 72 75
3 80 84 74
3 83 82 80
3 81 82 83
3 81 83 37
3 34 7 37
3 6 8 116
3 117 116 115
3 8 7 9
3 117 113 111
3 111 102 101
3 99 101 100
3 97 99 98
3 93 94 98
3 94 93 59
3 59 58 52
3 52 58 55
3 71 72 55
3 75 72 62
3 74 84 75
3 79 80 74
3 83 80 34
3 37 83 34
3 9 7 34
3 8 115 116
3 117 115 114
3 10 8 9
3 117 114 113
3 113 112 111
3 111 103 102
3 90 101 102
3 91 100 101
3 92 99 100
3 93 98 99
3 93 57 59
3 59 60 58
3 58 71 55
3 72 71 64
3 62 72 63
3 75 62 61
3 74 75 76
3 78 80 79
3 79 74 26
3 34 80 32
3 32 9 34
3 8 10 115
3 10 114 115
3 10 9 11
3 12 113 114
3 14 112 113
3 16 111 112
3 111 104 103
3 89 102 103
3 90 91 101
3 89 90 102
3 91 92 100
3 92 93 99
3 93 92 57
3 57 60 59
3 60 70 58
3 70 71 58
3 64 71 65
3 63 72 64
3 62 63 35
3 61 62 33
3 75 61 31
3 76 75 28
3 74 76 26
3 80 78 32
3 77 78 79
3 27 79 26
3 11 9 32
3 10 12 114
3 12 10 11
3 12 14 113
3 14 16 112
3 16 18 111
3 111 105 104
3 88 103 104
3 88 89 103
3 91 90 50
3 90 89 46
3 92 91 54
3 92 54 57
3 56 60 57
3 69 70 60
3 71 70 69
3 65 71 67
3 64 65 42
3 63 64 42
3 35 63 39
3 33 62 35
3 31 61 33
3 28 75 31
3 26 76 28
3 32 78 30
3 78 77 30
3 77 79 29
3 29 79 27
3 26 17 27
3 30 11 32
3 12 11 13
3 14 12 13
3 16 14 15
3 18 16 17
3 18 110 111
3 111 106 105
3 88 104 105
3 89 88 44
3 90 46 50
3 91 50 54
3 89 44 46
3 54 56 57
3 56 69 60
3 71 69 67
3 65 67 66
3 42 65 45
3 39 63 42
3 35 39 38
3 35 36 33
3 33 24 31
3 31 23 28
3 28 19 26
3 30 77 29
3 27 15 29
3 26 19 17
3 17 15 27
3 13 11 30
3 14 13 15
3 16 15 17
3 18 17 19
3 18 20 110
3 111 110 109
3 111 107 106
3 86 105 106
3 87 88 105
3 88 41 44
3 46 49 50
3 50 53 54
3 44 45 46
3 53 56 54
3 68 69 56
3 67 69 68
3 66 67 49
3 65 66 45
3 42 45 44
3 39 42 41
3 39 41 38
3 35 38 36
3 33 36 24
3 31 24 23
3 28 23 21
3 28 21 19
3 29 13 30
3 15 13 29
3 20 18 19
3 20 109 110
3 111 109 108
3 111 108 107
3 85 106 107
3 86 87 105
3 85 86 106
3 88 87 41
3 42 44 41
3 45 49 46
3 49 53 50
3 53 68 56
3 67 68 53
3 49 67 53
3 45 66 49
3 87 38 41
3 86 36 38
3 25 24 36
3 22 23 24
3 22 21 23
3 20 19 21
3 20 22 109
3 22 108 109
3 85 107 108
3 87 86 38
3 86 85 36
3 25 22 24
3 85 25 36
3 22 20 21
3 22 25 108
3 25 85 108
3 0 1 2
