ply
format ascii 1.0
comment made by tesseract
element vertex 255
property float x
property float y
property float z
element face 510
property list uchar int vertex_indices
end_header
0.2153787 0.0728787 1.9820000
0.2146421 0.0733500 1.9820000
0.2151666 0.0726665 1.9820000
0.2160000 0.0724019 1.9820000
0.2158500 0.0721421 1.9820000
0.2149019 0.0735000 1.9820000
0.2143124 0.0741459 1.9820000
0.2167235 0.0721022 1.9820000
0.2166459 0.0718124 1.9820000
0.2146022 0.0742235 1.9820000
0.2142000 0.0750000 1.9820000
0.2175000 0.0720000 1.9820000
0.2175000 0.0717000 1.9820000
0.2145000 0.0750000 1.9820000
0.2183541 0.0718124 1.9820000
0.2182765 0.0721022 1.9820000
0.2146022 0.0757765 1.9820000
0.2143124 0.0758541 1.9820000
0.2191500 0.0721421 1.9820000
0.2190000 0.0724019 1.9820000
0.2149019 0.0765000 1.9820000
0.2146421 0.0766500 1.9820000
0.2198334 0.0726665 1.9820000
0.2196213 0.0728787 1.9820000
0.2153787 0.0771213 1.9820000
0.2151666 0.0773335 1.9820000
0.2160000 0.0775981 1.9820000
0.2203579 0.0733500 1.9820000
0.2200981 0.0735000 1.9820000
0.2158500 0.0778579 1.9820000
0.2167235 0.0778978 1.9820000
0.2206876 0.0741459 1.9820000
0.2203978 0.0742235 1.9820000
0.2166459 0.0781876 1.9820000
0.2205000 0.0750000 1.9820000
0.2175000 0.0780000 1.9820000
0.2208000 0.0750000 1.9820000
0.2175000 0.0783000 1.9820000
0.2206876 0.0758541 1.9820000
0.2203978 0.0757765 1.9820000
0.2183541 0.0781876 1.9820000
0.2182765 0.0778978 1.9820000
0.2200981 0.0765000 1.9820000
0.2203579 0.0766500 1.9820000
0.2196213 0.0771213 1.9820000
0.2191500 0.0778579 1.9820000
0.2190000 0.0775981 1.9820000
0.2198334 0.0773335 1.9820000
0.2208000 0.0750000 1.9880000
0.2206876 0.0741459 1.9880000
0.2203579 0.0733500 1.9880000
0.2198334 0.0726665 1.9880000
0.2191500 0.0721421 1.9880000
0.2183541 0.0718124 1.9880000
0.2175000 0.0717000 1.9880000
0.2166459 0.0718124 1.9880000
0.2158500 0.0721421 1.9880000
0.2151666 0.0726665 1.9880000
0.2146421 0.0733500 1.9880000
0.2143124 0.0741459 1.9880000
0.2142000 0.0750000 1.9880000
0.2197627 0.0727373 1.9880000
0.2202713 0.0734000 1.9880000
0.2191000 0.0722287 1.9880000
0.2205910 0.0741718 1.9880000
0.2183282 0.0719090 1.9880000
0.2207000 0.0750000 1.9880000
0.2175000 0.0718000 1.9880000
0.2206876 0.0758541 1.9880000
0.2205910 0.0758282 1.9880000
0.2166718 0.0719090 1.9880000
0.2202713 0.0766000 1.9880000
0.2203579 0.0766500 1.9880000
0.2159000 0.0722287 1.9880000
0.2197627 0.0772627 1.9880000
0.2198334 0.0773335 1.9880000
0.2152373 0.0727373 1.9880000
0.2191000 0.0777713 1.9880000
0.2147287 0.0734000 1.9880000
0.2191500 0.0778579 1.9880000
0.2183541 0.0781876 1.9880000
0.2183282 0.0780910 1.9880000
0.2144090 0.0741718 1.9880000
0.2175000 0.0782000 1.9880000
0.2175000 0.0783000 1.9880000
0.2143000 0.0750000 1.9880000
0.2166718 0.0780910 1.9880000
0.2143124 0.0758541 1.9880000
0.2144090 0.0758282 1.9880000
0.2166459 0.0781876 1.9880000
0.2158500 0.0778579 1.9880000
0.2159000 0.0777713 1.9880000
0.2146421 0.0766500 1.9880000
0.2147287 0.0766000 1.9880000
0.2152373 0.0772627 1.9880000
0.2151666 0.0773335 1.9880000
0.2207000 0.0750000 1.9886000
0.2205910 0.0741718 1.9886000
0.2202713 0.0734000 1.9886000
0.2197627 0.0727373 1.9886000
0.2191000 0.0722287 1.9886000
0.2183282 0.0719090 1.9886000
0.2175000 0.0718000 1.9886000
0.2166718 0.0719090 1.9886000
0.2159000 0.0722287 1.9886000
0.2152373 0.0727373 1.9886000
0.2147287 0.0734000 1.9886000
0.2144090 0.0741718 1.9886000
0.2143000 0.0750000 1.9886000
0.2144090 0.0758282 1.9886000
0.2147287 0.0766000 1.9886000
0.2152373 0.0772627 1.9886000
0.2159000 0.0777713 1.9886000
0.2166718 0.0780910 1.9886000
0.2175000 0.0782000 1.9886000
0.2183282 0.0780910 1.9886000
0.2191000 0.0777713 1.9886000
0.2197627 0.0772627 1.9886000
0.2202713 0.0766000 1.9886000
0.2205910 0.0758282 1.9886000
0.2201847 0.0734500 1.9886000
0.2196920 0.0728080 1.9886000
0.2190500 0.0723153 1.9886000
0.2183023 0.0720056 1.9886000
0.2204944 0.0741977 1.9886000
0.2175000 0.0719000 1.9886000
0.2206000 0.0750000 1.9886000
0.2166977 0.0720056 1.9886000
0.2204944 0.0758023 1.9886000
0.2159500 0.0723153 1.9886000
0.2201847 0.0765500 1.9886000
0.2153080 0.0728080 1.9886000
0.2196920 0.0771920 1.9886000
0.2148153 0.0734500 1.9886000
0.2190500 0.0776847 1.9886000
0.2145056 0.0741977 1.9886000
0.2183023 0.0779944 1.9886000
0.2144000 0.0750000 1.9886000
0.2175000 0.0781000 1.9886000
0.2166977 0.0779944 1.9886000
0.2145056 0.0758023 1.9886000
0.2159500 0.0776847 1.9886000
0.2148153 0.0765500 1.9886000
0.2153080 0.0771920 1.9886000
0.2144259 0.0750000 1.9885966
0.2203978 0.0757765 1.9885000
0.2205034 0.0750000 1.9885259
0.2205000 0.0750000 1.9885000
0.2205741 0.0750000 1.9885966
0.2144966 0.0750000 1.9885259
0.2145989 0.0757773 1.9885259
0.2145000 0.0750000 1.9885000
0.2144866 0.0750000 1.9885501
0.2146022 0.0757765 1.9885000
0.2144707 0.0750000 1.9885707
0.2145739 0.0757840 1.9885707
0.2144500 0.0750000 1.9885865
0.2145539 0.0757894 1.9885865
0.2148990 0.0765017 1.9885259
0.2149019 0.0765000 1.9885000
0.2148766 0.0765146 1.9885707
0.2148586 0.0765250 1.9885865
0.2153763 0.0771237 1.9885259
0.2153787 0.0771213 1.9885000
0.2153580 0.0771420 1.9885707
0.2153433 0.0771567 1.9885865
0.2160000 0.0775981 1.9885000
0.2159983 0.0776010 1.9885259
0.2167235 0.0778978 1.9885000
0.2159854 0.0776234 1.9885707
0.2159750 0.0776414 1.9885865
0.2167227 0.0779011 1.9885259
0.2167160 0.0779261 1.9885707
0.2167106 0.0779461 1.9885865
0.2175000 0.0780034 1.9885259
0.2175000 0.0780000 1.9885000
0.2175000 0.0780293 1.9885707
0.2175000 0.0780500 1.9885865
0.2182774 0.0779011 1.9885259
0.2182765 0.0778978 1.9885000
0.2182840 0.0779261 1.9885707
0.2182894 0.0779461 1.9885865
0.2190000 0.0775981 1.9885000
0.2190017 0.0776010 1.9885259
0.2196213 0.0771213 1.9885000
0.2190146 0.0776234 1.9885707
0.2190250 0.0776414 1.9885865
0.2196237 0.0771237 1.9885259
0.2196420 0.0771420 1.9885707
0.2196567 0.0771567 1.9885865
0.2200981 0.0765000 1.9885000
0.2201010 0.0765017 1.9885259
0.2201234 0.0765146 1.9885707
0.2201414 0.0765250 1.9885865
0.2204011 0.0757773 1.9885259
0.2205134 0.0750000 1.9885501
0.2204261 0.0757840 1.9885707
0.2205293 0.0750000 1.9885707
0.2204461 0.0757894 1.9885865
0.2205500 0.0750000 1.9885865
0.2204011 0.0742227 1.9885259
0.2203978 0.0742235 1.9885000
0.2204107 0.0742201 1.9885501
0.2204261 0.0742160 1.9885707
0.2204694 0.0742044 1.9885966
0.2201010 0.0734983 1.9885259
0.2200981 0.0735000 1.9885000
0.2201097 0.0734933 1.9885501
0.2201234 0.0734854 1.9885707
0.2201623 0.0734629 1.9885966
0.2196237 0.0728763 1.9885259
0.2196213 0.0728787 1.9885000
0.2196308 0.0728692 1.9885501
0.2196420 0.0728580 1.9885707
0.2196737 0.0728263 1.9885966
0.2190017 0.0723990 1.9885259
0.2190000 0.0724019 1.9885000
0.2190067 0.0723903 1.9885501
0.2190146 0.0723766 1.9885707
0.2190371 0.0723377 1.9885966
0.2182774 0.0720989 1.9885259
0.2182765 0.0721022 1.9885000
0.2182799 0.0720893 1.9885501
0.2182840 0.0720739 1.9885707
0.2182956 0.0720306 1.9885966
0.2175000 0.0719966 1.9885259
0.2175000 0.0720000 1.9885000
0.2175000 0.0719866 1.9885501
0.2175000 0.0719707 1.9885707
0.2175000 0.0719259 1.9885966
0.2167227 0.0720989 1.9885259
0.2167235 0.0721022 1.9885000
0.2167201 0.0720893 1.9885501
0.2167160 0.0720739 1.9885707
0.2167044 0.0720306 1.9885966
0.2159983 0.0723990 1.9885259
0.2160000 0.0724019 1.9885000
0.2153787 0.0728787 1.9885000
0.2159933 0.0723903 1.9885501
0.2159854 0.0723766 1.9885707
0.2159629 0.0723377 1.9885966
0.2153763 0.0728763 1.9885259
0.2153692 0.0728692 1.9885501
0.2153580 0.0728580 1.9885707
0.2153263 0.0728263 1.9885966
0.2148990 0.0734983 1.9885259
0.2149019 0.0735000 1.9885000
0.2148903 0.0734933 1.9885501
0.2148766 0.0734854 1.9885707
0.2148377 0.0734629 1.9885966
0.2145989 0.0742227 1.9885259
0.2146022 0.0742235 1.9885000
0.2145893 0.0742201 1.9885501
0.2145739 0.0742160 1.9885707
0.2145306 0.0742044 1.9885966
3 5 1 0
3 2 1 57
3 3 0 2
3 6 1 5
3 5 0 237
3 57 1 58
3 56 2 57
3 0 3 236
3 3 2 4
3 1 6 58
3 9 6 5
3 0 236 237
3 5 237 246
3 58 76 57
3 4 2 56
3 76 56 57
3 3 7 236
3 7 3 4
3 58 6 59
3 10 6 9
3 9 5 251
3 236 235 237
3 237 245 246
3 5 246 251
3 58 78 76
3 55 4 56
3 76 73 56
3 7 231 236
3 7 4 8
3 6 10 59
3 59 78 58
3 13 10 9
3 13 9 251
3 231 235 236
3 235 241 237
3 241 245 237
3 245 250 246
3 246 250 251
3 76 78 105
3 8 4 55
3 56 70 55
3 73 76 104
3 73 70 56
3 7 226 231
3 11 7 8
3 59 10 60
3 59 82 78
3 16 10 13
3 13 251 151
3 230 235 231
3 235 242 241
3 241 247 245
3 245 252 250
3 251 250 151
3 105 78 106
3 104 76 105
3 54 8 55
3 70 67 55
3 70 73 104
3 7 11 226
3 226 230 231
3 11 8 12
3 10 17 60
3 60 82 59
3 78 82 106
3 16 17 10
3 16 13 153
3 13 151 153
3 230 238 235
3 238 242 235
3 242 247 241
3 247 252 245
3 250 252 149
3 151 250 149
3 106 131 105
3 105 129 104
3 12 8 54
3 55 67 54
3 67 70 102
3 103 70 104
3 11 15 226
3 225 230 226
3 14 11 12
3 60 17 87
3 60 85 82
3 106 82 107
3 20 17 16
3 16 153 159
3 151 150 153
3 232 238 230
3 238 243 242
3 242 248 247
3 247 253 252
3 149 252 152
3 149 150 151
3 106 133 131
3 105 131 129
3 129 103 104
3 53 12 54
3 67 65 54
3 102 70 103
3 65 67 102
3 15 11 14
3 15 221 226
3 225 232 230
3 221 225 226
3 14 12 53
3 17 21 87
3 87 85 60
3 82 85 107
3 107 135 106
3 20 21 17
3 20 16 159
3 153 158 159
3 150 158 153
3 233 238 232
3 239 243 238
3 243 248 242
3 248 253 247
3 252 253 152
3 152 150 149
3 135 133 106
3 133 249 131
3 131 244 129
3 129 127 103
3 54 65 53
3 103 125 102
3 101 65 102
3 18 15 14
3 15 216 221
3 227 232 225
3 220 225 221
3 52 14 53
3 87 21 92
3 87 88 85
3 107 85 108
3 137 135 107
3 24 21 20
3 24 20 159
3 158 162 159
3 150 160 158
3 233 239 238
3 228 233 232
3 240 243 239
3 243 249 248
3 248 254 253
3 152 253 154
3 152 155 150
3 135 254 133
3 133 254 249
3 131 249 244
3 129 244 240
3 129 240 127
3 127 125 103
3 65 52 53
3 125 101 102
3 100 65 101
3 19 15 18
3 18 14 52
3 15 19 216
3 216 220 221
3 228 232 227
3 220 227 225
3 21 25 92
3 92 88 87
3 85 88 108
3 108 137 107
3 137 254 135
3 25 21 24
3 24 159 163
3 158 164 162
3 159 162 163
3 155 160 150
3 160 164 158
3 233 240 239
3 229 233 228
3 240 244 243
3 244 249 243
3 249 254 248
3 253 254 156
3 154 253 156
3 154 155 152
3 127 240 234
3 127 234 125
3 65 63 52
3 125 123 101
3 63 65 100
3 123 100 101
3 22 19 18
3 51 18 52
3 19 23 216
3 215 220 216
3 222 228 227
3 222 227 220
3 92 25 95
3 92 93 88
3 108 88 109
3 109 137 108
3 144 254 137
3 26 25 24
3 26 24 163
3 164 169 162
3 162 167 163
3 155 161 160
3 160 165 164
3 234 240 233
3 229 234 233
3 223 229 228
3 156 254 144
3 156 157 154
3 154 157 155
3 125 234 229
3 63 61 52
3 125 229 123
3 99 63 100
3 123 122 100
3 23 19 22
3 22 18 51
3 52 61 51
3 23 211 216
3 215 222 220
3 211 215 216
3 223 228 222
3 25 29 95
3 95 93 92
3 88 93 109
3 109 140 137
3 137 140 144
3 29 25 26
3 26 163 166
3 165 169 164
3 162 169 167
3 163 167 166
3 157 161 155
3 161 165 160
3 224 229 223
3 144 157 156
3 61 63 99
3 123 229 224
3 122 99 100
3 123 219 122
3 27 23 22
3 50 22 51
3 62 51 61
3 23 206 211
3 217 222 215
3 210 215 211
3 217 223 222
3 95 29 90
3 95 94 93
3 109 93 110
3 110 140 109
3 140 157 144
3 30 29 26
3 30 26 166
3 165 170 169
3 169 172 167
3 166 167 168
3 140 161 157
3 142 165 161
3 218 224 223
3 98 61 99
3 123 224 219
3 122 121 99
3 122 219 121
3 27 28 23
3 27 22 50
3 62 50 51
3 62 61 98
3 23 28 206
3 206 210 211
3 210 217 215
3 218 223 217
3 90 29 89
3 95 90 94
3 93 94 110
3 110 142 140
3 33 29 30
3 30 166 168
3 143 170 165
3 170 173 169
3 169 173 172
3 167 172 171
3 167 171 168
3 142 161 140
3 143 165 142
3 219 224 218
3 120 98 99
3 120 99 121
3 121 219 214
3 31 28 27
3 49 27 50
3 49 50 62
3 97 62 98
3 28 201 206
3 205 210 206
3 212 217 210
3 213 218 217
3 29 33 89
3 90 89 86
3 94 90 91
3 110 94 111
3 143 142 110
3 35 33 30
3 35 30 168
3 141 170 143
3 141 173 170
3 173 177 172
3 172 174 171
3 171 174 168
3 213 219 218
3 124 98 120
3 121 214 120
3 214 219 213
3 31 32 28
3 31 27 49
3 64 49 62
3 64 62 97
3 124 97 98
3 28 32 201
3 201 205 206
3 205 212 210
3 213 217 212
3 33 37 89
3 89 84 86
3 90 86 91
3 94 91 111
3 111 143 110
3 37 33 35
3 35 168 175
3 111 141 143
3 139 173 141
3 139 177 173
3 172 177 176
3 172 176 174
3 168 174 175
3 120 209 124
3 120 214 209
3 208 214 213
3 34 32 31
3 48 31 49
3 66 49 64
3 96 64 97
3 126 97 124
3 32 147 201
3 200 205 201
3 207 212 205
3 207 213 212
3 89 37 84
3 86 84 83
3 91 86 112
3 111 91 112
3 40 37 35
3 41 35 175
3 111 112 141
3 112 139 141
3 138 177 139
3 177 181 176
3 176 178 174
3 174 178 175
3 124 209 204
3 209 214 208
3 208 213 207
3 32 34 147
3 36 34 31
3 36 31 48
3 66 48 49
3 66 64 96
3 126 96 97
3 124 204 126
3 147 200 201
3 200 207 205
3 37 40 84
3 84 80 83
3 86 83 114
3 112 86 113
3 40 35 41
3 41 175 179
3 112 113 139
3 138 181 177
3 113 138 139
3 176 181 180
3 176 180 178
3 175 178 179
3 204 209 203
3 203 209 208
3 202 208 207
3 34 145 147
3 38 34 36
3 68 36 48
3 68 48 66
3 119 66 96
3 128 96 126
3 126 204 148
3 146 200 147
3 202 207 200
3 84 40 80
3 83 80 81
3 83 81 114
3 113 86 114
3 45 40 41
3 46 41 179
3 136 181 138
3 113 114 138
3 181 186 180
3 180 185 178
3 178 183 179
3 199 204 203
3 203 208 202
3 34 39 145
3 145 146 147
3 38 39 34
3 38 36 68
3 69 68 66
3 69 66 119
3 128 119 96
3 128 126 148
3 148 204 199
3 146 202 200
3 80 40 79
3 80 77 81
3 114 81 115
3 40 45 79
3 45 41 46
3 46 179 182
3 136 186 181
3 114 136 138
3 180 186 185
3 178 185 183
3 179 183 182
3 199 203 197
3 195 203 202
3 39 190 145
3 145 194 146
3 42 39 38
3 72 38 68
3 71 68 69
3 71 69 119
3 130 119 128
3 148 198 128
3 199 198 148
3 195 202 146
3 80 79 77
3 81 77 115
3 114 115 136
3 79 45 75
3 47 45 46
3 44 46 182
3 134 186 136
3 186 189 185
3 185 187 183
3 182 183 184
3 197 203 195
3 197 198 199
3 39 42 190
3 190 191 145
3 191 194 145
3 146 194 195
3 43 42 38
3 43 38 72
3 71 72 68
3 118 71 119
3 130 118 119
3 128 198 130
3 79 75 77
3 115 77 116
3 115 134 136
3 45 47 75
3 47 46 44
3 44 182 184
3 134 189 186
3 185 189 188
3 185 188 187
3 183 187 184
3 195 196 197
3 196 198 197
3 42 44 190
3 184 191 190
3 191 196 194
3 194 196 195
3 43 44 42
3 75 43 72
3 74 72 71
3 117 71 118
3 132 118 130
3 130 198 193
3 77 75 74
3 116 77 117
3 115 116 134
3 47 43 75
3 47 44 43
3 44 184 190
3 132 189 134
3 189 193 188
3 188 191 187
3 187 191 184
3 192 198 196
3 192 196 191
3 75 72 74
3 74 71 117
3 132 117 118
3 130 193 132
3 193 198 192
3 77 74 117
3 116 117 132
3 116 132 134
3 132 193 189
3 188 193 192
3 188 192 191
3 0 1 2
