ply
format ascii 1.0
comment made by tesseract
element vertex 292
property float x
property float y
property float z
element face 584
property list uchar int vertex_indices
end_header
-0.0449319 -0.1284000 0.5306176
-0.0450000 -0.1284000 0.5301000
-0.0450000 -0.1319500 0.5301000
-0.0449319 -0.1319500 0.5306176
-0.0447321 -0.1284000 0.5311000
-0.0447321 -0.1319500 0.5311000
-0.0444142 -0.1284000 0.5315142
-0.0444142 -0.1319500 0.5315142
-0.0440000 -0.1319500 0.5318320
-0.0440000 -0.1284000 0.5318320
-0.0435176 -0.1284000 0.5320318
-0.0435176 -0.1319500 0.5320318
-0.0430000 -0.1319500 0.5321000
-0.0430000 -0.1284000 0.5321000
-0.0424824 -0.1319500 0.5320318
-0.0424824 -0.1284000 0.5320318
-0.0420000 -0.1284000 0.5318320
-0.0420000 -0.1319500 0.5318320
-0.0415858 -0.1284000 0.5315142
-0.0415858 -0.1319500 0.5315142
-0.0412679 -0.1319500 0.5311000
-0.0412679 -0.1284000 0.5311000
-0.0410681 -0.1284000 0.5306176
-0.0410681 -0.1319500 0.5306176
-0.0410000 -0.1319500 0.5301000
-0.0410000 -0.1284000 0.5301000
-0.0408787 -0.1284000 0.5322213
-0.0404019 -0.1284000 0.5316000
-0.0415000 -0.1284000 0.5326980
-0.0401022 -0.1284000 0.5308765
-0.0422235 -0.1284000 0.5329978
-0.0400000 -0.1284000 0.5301000
-0.0430000 -0.1284000 0.5330999
-0.0437765 -0.1284000 0.5329978
-0.0410681 -0.1284000 0.5295823
-0.0401022 -0.1284000 0.5293235
-0.0445000 -0.1284000 0.5326980
-0.0412679 -0.1284000 0.5291000
-0.0404019 -0.1284000 0.5286000
-0.0451213 -0.1284000 0.5322213
-0.0415858 -0.1284000 0.5286858
-0.0408787 -0.1284000 0.5279787
-0.0420000 -0.1284000 0.5283679
-0.0455981 -0.1284000 0.5316000
-0.0415000 -0.1284000 0.5275019
-0.0424824 -0.1284000 0.5281681
-0.0458978 -0.1284000 0.5308765
-0.0430000 -0.1284000 0.5281000
-0.0422235 -0.1284000 0.5272022
-0.0460000 -0.1284000 0.5301000
-0.0449319 -0.1284000 0.5295823
-0.0430000 -0.1284000 0.5271000
-0.0458978 -0.1284000 0.5293235
-0.0447321 -0.1284000 0.5291000
-0.0437765 -0.1284000 0.5272022
-0.0435176 -0.1284000 0.5281681
-0.0455981 -0.1284000 0.5286000
-0.0444142 -0.1284000 0.5286858
-0.0440000 -0.1284000 0.5283679
-0.0445000 -0.1284000 0.5275019
-0.0451213 -0.1284000 0.5279787
-0.0400000 -0.1300000 0.5301000
-0.0401022 -0.1300000 0.5308765
-0.0404019 -0.1300000 0.5316000
-0.0408787 -0.1300000 0.5322213
-0.0415000 -0.1300000 0.5326980
-0.0422235 -0.1300000 0.5329978
-0.0430000 -0.1300000 0.5330999
-0.0437765 -0.1300000 0.5329978
-0.0445000 -0.1300000 0.5326980
-0.0451213 -0.1300000 0.5322213
-0.0455981 -0.1300000 0.5316000
-0.0458978 -0.1300000 0.5308765
-0.0460000 -0.1300000 0.5301000
-0.0451213 -0.1300000 0.5279787
-0.0446971 -0.1300000 0.5284029
-0.0445000 -0.1300000 0.5275019
-0.0455981 -0.1300000 0.5286000
-0.0450785 -0.1300000 0.5289000
-0.0442000 -0.1300000 0.5280216
-0.0437765 -0.1300000 0.5272022
-0.0458978 -0.1300000 0.5293235
-0.0453182 -0.1300000 0.5294788
-0.0436212 -0.1300000 0.5277818
-0.0454000 -0.1300000 0.5301000
-0.0430000 -0.1300000 0.5277000
-0.0430000 -0.1300000 0.5271000
-0.0422235 -0.1300000 0.5272022
-0.0453182 -0.1300000 0.5307212
-0.0423788 -0.1300000 0.5277818
-0.0450785 -0.1300000 0.5313000
-0.0418000 -0.1300000 0.5280216
-0.0415000 -0.1300000 0.5275019
-0.0446971 -0.1300000 0.5317971
-0.0413029 -0.1300000 0.5284029
-0.0408787 -0.1300000 0.5279787
-0.0409215 -0.1300000 0.5289000
-0.0442000 -0.1300000 0.5321785
-0.0404019 -0.1300000 0.5286000
-0.0406818 -0.1300000 0.5294788
-0.0436212 -0.1300000 0.5324182
-0.0401022 -0.1300000 0.5293235
-0.0430000 -0.1300000 0.5325000
-0.0406000 -0.1300000 0.5301000
-0.0423788 -0.1300000 0.5324182
-0.0418000 -0.1300000 0.5321785
-0.0406818 -0.1300000 0.5307212
-0.0413029 -0.1300000 0.5317971
-0.0409215 -0.1300000 0.5313000
-0.0454000 -0.1316000 0.5301000
-0.0453182 -0.1316000 0.5307212
-0.0450785 -0.1316000 0.5313000
-0.0446971 -0.1316000 0.5317971
-0.0442000 -0.1316000 0.5321785
-0.0436212 -0.1316000 0.5324182
-0.0430000 -0.1316000 0.5325000
-0.0423788 -0.1316000 0.5324182
-0.0418000 -0.1316000 0.5321785
-0.0413029 -0.1316000 0.5317971
-0.0409215 -0.1316000 0.5313000
-0.0406818 -0.1316000 0.5307212
-0.0406000 -0.1316000 0.5301000
-0.0445203 -0.1316000 0.5316203
-0.0448620 -0.1316000 0.5311750
-0.0440750 -0.1316000 0.5319620
-0.0450767 -0.1316000 0.5306565
-0.0435565 -0.1316000 0.5321767
-0.0451500 -0.1316000 0.5301000
-0.0430000 -0.1316000 0.5322500
-0.0450767 -0.1316000 0.5295435
-0.0453182 -0.1316000 0.5294788
-0.0424435 -0.1316000 0.5321767
-0.0450785 -0.1316000 0.5289000
-0.0448620 -0.1316000 0.5290250
-0.0419250 -0.1316000 0.5319620
-0.0445203 -0.1316000 0.5285797
-0.0446971 -0.1316000 0.5284029
-0.0414797 -0.1316000 0.5316203
-0.0411380 -0.1316000 0.5311750
-0.0442000 -0.1316000 0.5280216
-0.0440750 -0.1316000 0.5282381
-0.0435565 -0.1316000 0.5280232
-0.0436212 -0.1316000 0.5277818
-0.0409233 -0.1316000 0.5306565
-0.0408500 -0.1316000 0.5301000
-0.0430000 -0.1316000 0.5277000
-0.0430000 -0.1316000 0.5279500
-0.0424435 -0.1316000 0.5280232
-0.0423788 -0.1316000 0.5277818
-0.0419250 -0.1316000 0.5282381
-0.0406818 -0.1316000 0.5294788
-0.0409233 -0.1316000 0.5295435
-0.0418000 -0.1316000 0.5280216
-0.0414797 -0.1316000 0.5285797
-0.0409215 -0.1316000 0.5289000
-0.0411380 -0.1316000 0.5290250
-0.0413029 -0.1316000 0.5284029
-0.0451500 -0.1320500 0.5301000
-0.0450767 -0.1320500 0.5306565
-0.0448620 -0.1320500 0.5311750
-0.0445203 -0.1320500 0.5316203
-0.0440750 -0.1320500 0.5319620
-0.0435565 -0.1320500 0.5321767
-0.0430000 -0.1320500 0.5322500
-0.0424435 -0.1320500 0.5321767
-0.0419250 -0.1320500 0.5319620
-0.0414797 -0.1320500 0.5316203
-0.0411380 -0.1320500 0.5311750
-0.0409233 -0.1320500 0.5306565
-0.0408500 -0.1320500 0.5301000
-0.0444849 -0.1320500 0.5315849
-0.0448187 -0.1320500 0.5311500
-0.0440500 -0.1320500 0.5319186
-0.0450284 -0.1320500 0.5306435
-0.0435435 -0.1320500 0.5321284
-0.0451000 -0.1320500 0.5301000
-0.0430000 -0.1320500 0.5322000
-0.0450284 -0.1320500 0.5295565
-0.0450767 -0.1320500 0.5295435
-0.0424565 -0.1320500 0.5321284
-0.0448187 -0.1320500 0.5290500
-0.0448620 -0.1320500 0.5290250
-0.0419500 -0.1320500 0.5319186
-0.0445203 -0.1320500 0.5285797
-0.0444849 -0.1320500 0.5286151
-0.0415151 -0.1320500 0.5315849
-0.0440750 -0.1320500 0.5282381
-0.0440500 -0.1320500 0.5282814
-0.0411813 -0.1320500 0.5311500
-0.0409716 -0.1320500 0.5306435
-0.0435565 -0.1320500 0.5280232
-0.0435435 -0.1320500 0.5280715
-0.0430000 -0.1320500 0.5280000
-0.0430000 -0.1320500 0.5279500
-0.0409000 -0.1320500 0.5301000
-0.0424435 -0.1320500 0.5280232
-0.0424565 -0.1320500 0.5280715
-0.0409233 -0.1320500 0.5295435
-0.0409716 -0.1320500 0.5295565
-0.0419250 -0.1320500 0.5282381
-0.0419500 -0.1320500 0.5282814
-0.0411380 -0.1320500 0.5290250
-0.0411813 -0.1320500 0.5290500
-0.0415151 -0.1320500 0.5286151
-0.0414797 -0.1320500 0.5285797
-0.0450741 -0.1320466 0.5301000
-0.0409966 -0.1319759 0.5301000
-0.0410649 -0.1319759 0.5295815
-0.0409866 -0.1320000 0.5301000
-0.0410681 -0.1319500 0.5295823
-0.0409707 -0.1320207 0.5301000
-0.0410399 -0.1320207 0.5295748
-0.0409500 -0.1320366 0.5301000
-0.0409966 -0.1320466 0.5295632
-0.0409259 -0.1320466 0.5301000
-0.0412650 -0.1319759 0.5290983
-0.0412679 -0.1319500 0.5291000
-0.0412426 -0.1320207 0.5290853
-0.0412038 -0.1320466 0.5290629
-0.0415834 -0.1319759 0.5286834
-0.0415858 -0.1319500 0.5286858
-0.0415651 -0.1320207 0.5286651
-0.0415334 -0.1320466 0.5286334
-0.0419983 -0.1319759 0.5283650
-0.0420000 -0.1319500 0.5283679
-0.0419854 -0.1320207 0.5283426
-0.0419629 -0.1320466 0.5283037
-0.0424815 -0.1319759 0.5281649
-0.0424824 -0.1319500 0.5281681
-0.0424748 -0.1320207 0.5281398
-0.0424632 -0.1320466 0.5280966
-0.0430000 -0.1319759 0.5280966
-0.0430000 -0.1319500 0.5281000
-0.0430000 -0.1320207 0.5280707
-0.0430000 -0.1320466 0.5280259
-0.0435185 -0.1319759 0.5281649
-0.0435176 -0.1319500 0.5281681
-0.0435252 -0.1320207 0.5281398
-0.0435368 -0.1320466 0.5280966
-0.0440017 -0.1319759 0.5283650
-0.0440000 -0.1319500 0.5283679
-0.0440146 -0.1320207 0.5283426
-0.0440371 -0.1320466 0.5283037
-0.0444166 -0.1319759 0.5286834
-0.0444142 -0.1319500 0.5286858
-0.0444349 -0.1320207 0.5286651
-0.0444666 -0.1320466 0.5286334
-0.0447350 -0.1319759 0.5290983
-0.0447321 -0.1319500 0.5291000
-0.0447574 -0.1320207 0.5290853
-0.0447962 -0.1320466 0.5290629
-0.0449319 -0.1319500 0.5295823
-0.0449351 -0.1319759 0.5295815
-0.0450034 -0.1319759 0.5301000
-0.0450134 -0.1320000 0.5301000
-0.0449601 -0.1320207 0.5295748
-0.0450293 -0.1320207 0.5301000
-0.0450500 -0.1320366 0.5301000
-0.0450034 -0.1320466 0.5295632
-0.0449351 -0.1319759 0.5306185
-0.0449601 -0.1320207 0.5306252
-0.0450034 -0.1320466 0.5306368
-0.0447350 -0.1319759 0.5311017
-0.0447574 -0.1320207 0.5311146
-0.0447962 -0.1320466 0.5311371
-0.0444166 -0.1319759 0.5315166
-0.0444349 -0.1320207 0.5315349
-0.0444666 -0.1320466 0.5315667
-0.0440017 -0.1319759 0.5318350
-0.0440146 -0.1320207 0.5318574
-0.0440371 -0.1320466 0.5318962
-0.0435185 -0.1319759 0.5320352
-0.0435252 -0.1320207 0.5320601
-0.0435368 -0.1320466 0.5321035
-0.0430000 -0.1319759 0.5321034
-0.0430000 -0.1320207 0.5321293
-0.0430000 -0.1320466 0.5321741
-0.0424815 -0.1319759 0.5320352
-0.0424748 -0.1320207 0.5320601
-0.0424632 -0.1320466 0.5321035
-0.0419983 -0.1319759 0.5318350
-0.0419854 -0.1320207 0.5318574
-0.0419629 -0.1320466 0.5318962
-0.0415834 -0.1319759 0.5315166
-0.0415651 -0.1320207 0.5315349
-0.0415334 -0.1320466 0.5315667
-0.0412650 -0.1319759 0.5311017
-0.0412426 -0.1320207 0.5311146
-0.0412038 -0.1320466 0.5311371
-0.0410649 -0.1319759 0.5306185
-0.0410399 -0.1320207 0.5306252
-0.0409966 -0.1320466 0.5306368
3 0 49 1
3 1 50 2
3 0 2 3
3 46 49 0
3 1 49 50
3 50 251 2
3 2 259 3
3 4 0 3
3 46 73 49
3 4 46 0
3 49 52 50
3 50 248 251
3 251 252 2
3 253 259 2
3 259 262 3
3 4 3 5
3 72 73 46
3 73 81 49
3 43 46 4
3 49 81 52
3 50 52 53
3 50 53 248
3 248 252 251
3 2 252 253
3 254 259 253
3 259 263 262
3 3 262 5
3 6 4 5
3 73 72 84
3 43 72 46
3 73 84 81
3 6 43 4
3 81 77 52
3 52 56 53
3 53 57 248
3 247 252 248
3 253 252 254
3 254 260 259
3 260 263 259
3 263 266 262
3 262 265 5
3 6 5 7
3 72 88 84
3 71 72 43
3 81 84 82
3 39 43 6
3 81 82 77
3 52 77 56
3 53 56 57
3 57 244 248
3 247 255 252
3 244 247 248
3 252 255 254
3 256 260 254
3 260 264 263
3 263 267 266
3 262 266 265
3 5 265 7
3 6 7 8
3 72 71 88
3 84 88 109
3 39 71 43
3 82 84 130
3 39 6 9
3 77 82 78
3 77 74 56
3 56 60 57
3 57 240 244
3 249 255 247
3 243 247 244
3 254 255 256
3 257 260 256
3 261 264 260
3 264 267 263
3 267 270 266
3 266 269 265
3 265 268 7
3 7 268 8
3 9 6 8
3 71 90 88
3 109 88 110
3 130 84 109
3 70 71 39
3 132 82 130
3 36 39 9
3 78 82 132
3 77 78 74
3 56 74 60
3 57 60 58
3 57 58 240
3 240 243 244
3 249 258 255
3 245 249 247
3 245 247 243
3 256 255 257
3 257 261 260
3 173 264 261
3 171 267 264
3 172 270 267
3 266 270 269
3 265 269 268
3 8 268 11
3 10 9 8
3 71 70 90
3 88 90 110
3 127 109 110
3 129 130 109
3 69 70 39
3 132 130 129
3 36 69 39
3 36 9 10
3 136 78 132
3 74 78 75
3 74 76 60
3 58 60 59
3 58 236 240
3 239 243 240
3 250 258 249
3 255 258 257
3 245 250 249
3 241 245 243
3 205 261 257
3 171 264 173
3 173 261 175
3 170 267 171
3 172 273 270
3 172 267 170
3 270 273 269
3 269 272 268
3 268 271 11
3 10 8 11
3 70 93 90
3 110 90 111
3 129 109 127
3 127 110 125
3 70 69 93
3 133 132 129
3 33 69 36
3 33 36 10
3 75 78 136
3 135 136 132
3 74 75 76
3 60 76 59
3 58 59 55
3 58 55 236
3 236 239 240
3 241 243 239
3 180 258 250
3 257 258 205
3 246 250 245
3 241 246 245
3 175 261 205
3 173 159 171
3 175 158 173
3 171 160 170
3 174 273 172
3 172 170 161
3 269 273 272
3 268 272 271
3 271 274 11
3 10 11 12
3 90 93 111
3 125 110 111
3 129 127 178
3 127 125 157
3 93 69 97
3 135 132 133
3 133 129 181
3 68 69 33
3 33 10 13
3 139 75 136
3 139 136 135
3 75 79 76
3 76 80 59
3 55 59 54
3 55 232 236
3 235 239 236
3 235 241 239
3 177 258 180
3 180 250 184
3 205 258 177
3 184 250 246
3 242 246 241
3 177 175 205
3 173 158 159
3 171 159 160
3 175 157 158
3 161 170 160
3 174 276 273
3 174 172 161
3 273 276 272
3 272 275 271
3 271 275 274
3 11 274 12
3 13 10 12
3 111 93 112
3 125 111 123
3 178 127 157
3 181 129 178
3 157 125 158
3 69 68 97
3 93 97 112
3 135 133 183
3 183 133 181
3 32 68 33
3 33 13 32
3 79 75 139
3 139 135 140
3 76 79 80
3 59 80 54
3 55 54 47
3 55 47 232
3 232 235 236
3 237 241 235
3 180 178 177
3 184 183 180
3 184 246 187
3 187 246 242
3 237 242 241
3 177 157 175
3 158 123 159
3 159 122 160
3 160 124 161
3 176 276 174
3 174 161 162
3 272 276 275
3 275 277 274
3 274 277 12
3 13 12 14
3 123 111 112
3 125 123 158
3 177 178 157
3 180 181 178
3 97 68 100
3 112 97 113
3 140 135 183
3 183 181 180
3 67 68 32
3 32 13 30
3 83 79 139
3 141 139 140
3 79 83 80
3 80 86 54
3 47 54 51
3 47 228 232
3 231 235 232
3 233 237 235
3 186 183 184
3 186 184 187
3 187 242 191
3 238 242 237
3 123 122 159
3 122 124 160
3 124 126 161
3 176 279 276
3 176 174 162
3 161 126 162
3 276 278 275
3 275 278 277
3 12 277 14
3 15 13 14
3 123 112 122
3 68 102 100
3 97 100 113
3 122 112 113
3 186 140 183
3 68 67 102
3 30 67 32
3 30 13 15
3 142 83 139
3 142 139 141
3 141 140 190
3 83 85 80
3 80 85 86
3 54 86 51
3 47 51 48
3 47 45 228
3 228 231 232
3 233 235 231
3 234 237 233
3 190 186 187
3 191 242 238
3 190 187 191
3 234 238 237
3 124 122 113
3 126 124 114
3 179 279 176
3 276 279 278
3 176 162 163
3 126 128 162
3 278 281 277
3 277 280 14
3 16 15 14
3 100 102 114
3 113 100 114
3 190 140 186
3 67 66 102
3 66 67 30
3 30 15 28
3 145 83 142
3 145 142 141
3 193 141 190
3 85 83 145
3 85 87 86
3 51 86 48
3 47 48 45
3 45 224 228
3 227 231 228
3 227 233 231
3 229 234 233
3 191 238 192
3 192 190 191
3 192 238 234
3 124 113 114
3 115 126 114
3 179 282 279
3 179 176 163
3 279 281 278
3 162 128 163
3 128 126 115
3 277 281 280
3 14 280 17
3 28 15 16
3 16 14 17
3 114 102 115
3 102 66 104
3 65 66 30
3 28 65 30
3 145 141 146
3 146 141 193
3 193 190 192
3 148 85 145
3 85 89 87
3 86 87 48
3 45 48 44
3 45 42 224
3 224 227 228
3 229 233 227
3 230 234 229
3 192 234 196
3 182 282 179
3 279 282 281
3 179 163 164
3 128 131 163
3 116 128 115
3 281 284 280
3 280 283 17
3 28 16 26
3 18 16 17
3 102 104 115
3 104 66 105
3 66 65 105
3 26 65 28
3 147 145 146
3 195 146 193
3 195 193 192
3 89 85 148
3 148 145 147
3 89 91 87
3 87 92 48
3 48 92 44
3 42 45 44
3 42 40 224
3 223 227 224
3 225 229 227
3 196 234 230
3 225 230 229
3 195 192 196
3 182 285 282
3 182 179 164
3 282 285 281
3 163 131 164
3 131 128 116
3 115 104 116
3 281 285 284
3 280 284 283
3 17 283 19
3 26 16 18
3 18 17 19
3 104 105 116
3 105 65 107
3 64 65 26
3 147 146 195
3 152 89 148
3 148 147 149
3 91 89 152
3 87 91 92
3 44 92 41
3 42 44 41
3 40 42 41
3 40 220 224
3 225 227 223
3 220 223 224
3 196 230 226
3 226 230 225
3 199 195 196
3 185 285 182
3 182 164 165
3 131 134 164
3 134 131 116
3 285 287 284
3 284 287 283
3 283 286 19
3 26 18 27
3 18 19 20
3 116 105 117
3 65 64 107
3 105 107 117
3 27 64 26
3 199 147 195
3 152 148 149
3 149 147 199
3 94 91 152
3 91 94 92
3 92 95 41
3 40 41 38
3 40 216 220
3 219 225 223
3 219 223 220
3 196 226 200
3 221 226 225
3 199 196 200
3 188 285 185
3 185 182 165
3 164 134 165
3 134 116 117
3 285 288 287
3 283 287 286
3 19 286 20
3 18 21 27
3 21 18 20
3 107 64 108
3 117 107 118
3 63 64 27
3 152 149 153
3 204 149 199
3 156 94 152
3 94 95 92
3 41 95 38
3 37 40 38
3 40 37 216
3 216 219 220
3 221 225 219
3 200 226 203
3 222 226 221
3 203 199 200
3 188 288 285
3 167 188 185
3 166 185 165
3 134 137 165
3 118 134 117
3 288 291 287
3 287 289 286
3 286 289 20
3 27 21 29
3 22 21 20
3 108 64 63
3 107 108 119
3 118 107 119
3 29 63 27
3 153 149 204
3 156 152 153
3 204 199 203
3 154 94 156
3 94 96 95
3 95 98 38
3 35 37 38
3 37 34 216
3 215 219 216
3 215 221 219
3 203 226 222
3 217 222 221
3 189 288 188
3 189 188 167
3 167 185 166
3 165 137 166
3 118 137 134
3 189 291 288
3 287 291 290
3 287 290 289
3 20 289 23
3 21 22 29
3 22 20 23
3 108 63 106
3 108 106 119
3 119 138 118
3 62 63 29
3 201 153 204
3 156 153 155
3 204 203 202
3 96 94 154
3 156 155 154
3 96 98 95
3 98 101 38
3 34 37 35
3 38 101 35
3 34 209 216
3 209 215 216
3 217 221 215
3 203 222 202
3 218 222 217
3 168 189 167
3 166 138 167
3 137 138 166
3 138 137 118
3 194 291 189
3 290 291 212
3 289 290 208
3 23 289 206
3 29 22 31
3 22 23 24
3 106 63 62
3 119 106 120
3 120 138 119
3 31 62 29
3 155 153 201
3 204 202 201
3 150 96 154
3 154 155 151
3 96 99 98
3 99 101 98
3 31 34 35
3 101 61 35
3 34 25 209
3 207 215 209
3 207 217 215
3 202 222 218
3 211 218 217
3 169 189 168
3 167 143 168
3 138 143 167
3 214 291 194
3 169 194 189
3 212 291 214
3 210 290 212
3 208 290 210
3 206 289 208
3 23 206 24
3 22 25 31
3 25 22 24
3 106 62 103
3 106 103 120
3 120 143 138
3 61 62 31
3 197 155 201
3 201 202 198
3 99 96 150
3 154 151 150
3 151 155 197
3 99 103 101
3 25 34 31
3 35 61 31
3 103 61 101
3 25 24 209
3 24 207 209
3 211 217 207
3 202 218 198
3 213 218 211
3 168 144 169
3 143 144 168
3 194 213 214
3 197 194 169
3 214 213 212
3 212 211 210
3 210 211 208
3 208 207 206
3 206 207 24
3 103 62 61
3 120 103 121
3 144 143 120
3 201 198 197
3 121 99 150
3 150 151 144
3 169 151 197
3 103 99 121
3 208 211 207
3 198 218 213
3 212 213 211
3 144 151 169
3 198 213 194
3 197 198 194
3 121 144 120
3 150 144 121
3 0 1 2
