ply
format ascii 1.0
comment made by tesseract
element vertex 222
property float x
property float y
property float z
element face 444
property list uchar int vertex_indices
end_header
0.3674264 -0.0800000 1.1024264
0.3666899 -0.0800000 1.1028978
0.3672143 -0.0800000 1.1022142
0.3669496 -0.0800000 1.1030477
0.3680477 -0.0800000 1.1019497
0.3678977 -0.0800000 1.1016898
0.3663602 -0.0800000 1.1036936
0.3666500 -0.0800000 1.1037712
0.3687713 -0.0800000 1.1016499
0.3686936 -0.0800000 1.1013602
0.3662477 -0.0800000 1.1045477
0.3665477 -0.0800000 1.1045477
0.3695477 -0.0800000 1.1015477
0.3695477 -0.0800000 1.1012477
0.3663602 -0.0800000 1.1054019
0.3666500 -0.0800000 1.1053243
0.3703242 -0.0800000 1.1016499
0.3704018 -0.0800000 1.1013602
0.3666899 -0.0800000 1.1061977
0.3669496 -0.0800000 1.1060477
0.3710477 -0.0800000 1.1019497
0.3711977 -0.0800000 1.1016898
0.3672143 -0.0800000 1.1068813
0.3674264 -0.0800000 1.1066691
0.3716690 -0.0800000 1.1024264
0.3718812 -0.0800000 1.1022142
0.3721458 -0.0800000 1.1030477
0.3678977 -0.0800000 1.1074057
0.3680477 -0.0800000 1.1071458
0.3724056 -0.0800000 1.1028978
0.3724455 -0.0800000 1.1037712
0.3686936 -0.0800000 1.1077353
0.3687713 -0.0800000 1.1074456
0.3727353 -0.0800000 1.1036936
0.3725477 -0.0800000 1.1045477
0.3695477 -0.0800000 1.1078478
0.3695477 -0.0800000 1.1075478
0.3728477 -0.0800000 1.1045477
0.3724455 -0.0800000 1.1053243
0.3704018 -0.0800000 1.1077353
0.3703242 -0.0800000 1.1074456
0.3727353 -0.0800000 1.1054019
0.3721458 -0.0800000 1.1060477
0.3711977 -0.0800000 1.1074057
0.3710477 -0.0800000 1.1071458
0.3724056 -0.0800000 1.1061977
0.3716690 -0.0800000 1.1066691
0.3718812 -0.0800000 1.1068813
0.3728477 -0.0823000 1.1045477
0.3727353 -0.0823000 1.1054019
0.3724056 -0.0823000 1.1061977
0.3718812 -0.0823000 1.1068813
0.3711977 -0.0823000 1.1074057
0.3704018 -0.0823000 1.1077353
0.3695477 -0.0823000 1.1078478
0.3686936 -0.0823000 1.1077353
0.3678977 -0.0823000 1.1074057
0.3672143 -0.0823000 1.1068813
0.3666899 -0.0823000 1.1061977
0.3663602 -0.0823000 1.1054019
0.3662477 -0.0823000 1.1045477
0.3672850 -0.0823000 1.1068105
0.3679477 -0.0823000 1.1073190
0.3667765 -0.0823000 1.1061476
0.3687195 -0.0823000 1.1076387
0.3664567 -0.0823000 1.1053760
0.3695477 -0.0823000 1.1077477
0.3663477 -0.0823000 1.1045477
0.3703759 -0.0823000 1.1076387
0.3664567 -0.0823000 1.1037195
0.3663602 -0.0823000 1.1036936
0.3711477 -0.0823000 1.1073190
0.3667765 -0.0823000 1.1029477
0.3666899 -0.0823000 1.1028978
0.3718105 -0.0823000 1.1068105
0.3672850 -0.0823000 1.1022850
0.3672143 -0.0823000 1.1022142
0.3679477 -0.0823000 1.1017765
0.3723190 -0.0823000 1.1061476
0.3678977 -0.0823000 1.1016898
0.3687195 -0.0823000 1.1014568
0.3726387 -0.0823000 1.1053760
0.3686936 -0.0823000 1.1013602
0.3695477 -0.0823000 1.1013478
0.3727477 -0.0823000 1.1045477
0.3695477 -0.0823000 1.1012477
0.3703759 -0.0823000 1.1014568
0.3727353 -0.0823000 1.1036936
0.3726387 -0.0823000 1.1037195
0.3704018 -0.0823000 1.1013602
0.3723190 -0.0823000 1.1029477
0.3711477 -0.0823000 1.1017765
0.3724056 -0.0823000 1.1028978
0.3711977 -0.0823000 1.1016898
0.3718105 -0.0823000 1.1022850
0.3718812 -0.0823000 1.1022142
0.3663477 -0.0829000 1.1045477
0.3664567 -0.0829000 1.1053760
0.3667765 -0.0829000 1.1061476
0.3672850 -0.0829000 1.1068105
0.3679477 -0.0829000 1.1073190
0.3687195 -0.0829000 1.1076387
0.3695477 -0.0829000 1.1077477
0.3703759 -0.0829000 1.1076387
0.3711477 -0.0829000 1.1073190
0.3718105 -0.0829000 1.1068105
0.3723190 -0.0829000 1.1061476
0.3726387 -0.0829000 1.1053760
0.3727477 -0.0829000 1.1045477
0.3726387 -0.0829000 1.1037195
0.3723190 -0.0829000 1.1029477
0.3718105 -0.0829000 1.1022850
0.3711477 -0.0829000 1.1017765
0.3703759 -0.0829000 1.1014568
0.3695477 -0.0829000 1.1013478
0.3687195 -0.0829000 1.1014568
0.3679477 -0.0829000 1.1017765
0.3672850 -0.0829000 1.1022850
0.3667765 -0.0829000 1.1029477
0.3664567 -0.0829000 1.1037195
0.3673557 -0.0829000 1.1067398
0.3679977 -0.0829000 1.1072325
0.3668630 -0.0829000 1.1060978
0.3687454 -0.0829000 1.1075422
0.3665533 -0.0829000 1.1053501
0.3695477 -0.0829000 1.1076477
0.3664477 -0.0829000 1.1045477
0.3703501 -0.0829000 1.1075422
0.3665533 -0.0829000 1.1037453
0.3710977 -0.0829000 1.1072325
0.3668630 -0.0829000 1.1029977
0.3717397 -0.0829000 1.1067398
0.3673557 -0.0829000 1.1023557
0.3722324 -0.0829000 1.1060978
0.3679977 -0.0829000 1.1018630
0.3687454 -0.0829000 1.1015533
0.3725421 -0.0829000 1.1053501
0.3726477 -0.0829000 1.1045477
0.3695477 -0.0829000 1.1014477
0.3703501 -0.0829000 1.1015533
0.3725421 -0.0829000 1.1037453
0.3722324 -0.0829000 1.1029977
0.3710977 -0.0829000 1.1018630
0.3717397 -0.0829000 1.1023557
0.3725511 -0.0828259 1.1045477
0.3724455 -0.0828000 1.1037712
0.3725477 -0.0828000 1.1045477
0.3726219 -0.0828966 1.1045477
0.3666500 -0.0828000 1.1037712
0.3665443 -0.0828259 1.1045477
0.3665477 -0.0828000 1.1045477
0.3664736 -0.0828966 1.1045477
0.3725611 -0.0828500 1.1045477
0.3724584 -0.0828500 1.1037679
0.3725770 -0.0828707 1.1045477
0.3725977 -0.0828866 1.1045477
0.3724938 -0.0828866 1.1037583
0.3721574 -0.0828500 1.1030411
0.3721458 -0.0828000 1.1030477
0.3721891 -0.0828866 1.1030227
0.3716785 -0.0828500 1.1024170
0.3716690 -0.0828000 1.1024264
0.3717044 -0.0828866 1.1023910
0.3710544 -0.0828500 1.1019380
0.3710477 -0.0828000 1.1019497
0.3710727 -0.0828866 1.1019064
0.3703277 -0.0828500 1.1016370
0.3703242 -0.0828000 1.1016499
0.3703371 -0.0828866 1.1016017
0.3695477 -0.0828500 1.1015342
0.3695477 -0.0828000 1.1015477
0.3695477 -0.0828866 1.1014977
0.3687678 -0.0828500 1.1016370
0.3687713 -0.0828000 1.1016499
0.3687583 -0.0828866 1.1016017
0.3680410 -0.0828500 1.1019380
0.3680477 -0.0828000 1.1019497
0.3680227 -0.0828866 1.1019064
0.3674264 -0.0828000 1.1024264
0.3674169 -0.0828500 1.1024170
0.3669496 -0.0828000 1.1030477
0.3673910 -0.0828866 1.1023910
0.3669381 -0.0828500 1.1030411
0.3669063 -0.0828866 1.1030227
0.3666370 -0.0828500 1.1037679
0.3665343 -0.0828500 1.1045477
0.3665184 -0.0828707 1.1045477
0.3666016 -0.0828866 1.1037583
0.3664978 -0.0828866 1.1045477
0.3666500 -0.0828000 1.1053243
0.3724455 -0.0828000 1.1053243
0.3666370 -0.0828500 1.1053276
0.3666016 -0.0828866 1.1053371
0.3669381 -0.0828500 1.1060544
0.3669496 -0.0828000 1.1060477
0.3669063 -0.0828866 1.1060728
0.3674169 -0.0828500 1.1066785
0.3674264 -0.0828000 1.1066691
0.3673910 -0.0828866 1.1067044
0.3680410 -0.0828500 1.1071573
0.3680477 -0.0828000 1.1071458
0.3680227 -0.0828866 1.1071891
0.3687678 -0.0828500 1.1074585
0.3687713 -0.0828000 1.1074456
0.3687583 -0.0828866 1.1074938
0.3695477 -0.0828500 1.1075611
0.3695477 -0.0828000 1.1075478
0.3703242 -0.0828000 1.1074456
0.3695477 -0.0828866 1.1075978
0.3703277 -0.0828500 1.1074585
0.3703371 -0.0828866 1.1074938
0.3710544 -0.0828500 1.1071573
0.3710477 -0.0828000 1.1071458
0.3716690 -0.0828000 1.1066691
0.3710727 -0.0828866 1.1071891
0.3716785 -0.0828500 1.1066785
0.3717044 -0.0828866 1.1067044
0.3721574 -0.0828500 1.1060544
0.3721458 -0.0828000 1.1060477
0.3721891 -0.0828866 1.1060728
0.3724584 -0.0828500 1.1053276
0.3724938 -0.0828866 1.1053371
3 3 1 0
3 1 76 2
3 4 0 2
3 6 1 3
3 3 0 178
3 73 76 1
3 76 79 2
3 0 4 176
3 4 2 5
3 6 73 1
3 7 6 3
3 0 176 178
3 3 178 180
3 76 73 75
3 79 76 77
3 2 79 5
3 4 173 176
3 8 4 5
3 70 73 6
3 10 6 7
3 7 3 180
3 176 179 178
3 178 179 180
3 75 73 72
3 77 76 75
3 80 79 77
3 79 82 5
3 4 8 173
3 173 175 176
3 8 5 9
3 72 73 70
3 10 70 6
3 11 10 7
3 7 180 148
3 175 179 176
3 179 182 180
3 75 72 117
3 77 75 116
3 82 79 80
3 80 77 115
3 5 82 9
3 8 170 173
3 172 175 173
3 12 8 9
3 72 70 69
3 60 70 10
3 14 10 11
3 11 7 150
3 180 184 148
3 7 148 150
3 175 181 179
3 179 183 182
3 182 184 180
3 117 72 118
3 116 75 117
3 115 77 116
3 83 82 80
3 114 80 115
3 9 82 13
3 8 12 170
3 170 172 173
3 172 177 175
3 12 9 13
3 69 70 60
3 72 69 119
3 14 60 10
3 15 14 11
3 15 11 150
3 148 184 149
3 148 149 150
3 177 181 175
3 181 183 179
3 183 187 182
3 182 187 184
3 118 72 119
3 117 118 132
3 116 117 132
3 115 116 135
3 85 82 83
3 83 80 114
3 114 115 135
3 82 85 13
3 12 167 170
3 169 172 170
3 174 177 172
3 16 12 13
3 69 60 67
3 119 69 96
3 59 60 14
3 18 14 15
3 15 150 189
3 149 184 185
3 149 189 150
3 134 181 177
3 130 183 181
3 128 187 183
3 184 187 186
3 130 118 119
3 132 118 130
3 116 132 134
3 135 116 134
3 86 85 83
3 86 83 114
3 114 135 138
3 13 85 17
3 12 16 167
3 167 169 170
3 169 174 172
3 135 177 174
3 16 13 17
3 67 60 59
3 69 67 96
3 128 119 96
3 58 59 14
3 18 58 14
3 19 18 15
3 19 15 189
3 185 184 186
3 185 191 149
3 149 191 189
3 132 181 134
3 134 177 135
3 128 183 130
3 130 181 132
3 151 187 128
3 186 187 188
3 130 119 128
3 89 85 86
3 113 86 114
3 135 174 138
3 139 114 138
3 85 89 17
3 16 164 167
3 166 169 167
3 171 174 169
3 20 16 17
3 67 59 65
3 67 65 96
3 128 96 126
3 65 59 58
3 22 58 18
3 22 18 19
3 19 189 194
3 186 191 185
3 191 193 189
3 188 187 151
3 128 126 151
3 188 192 186
3 91 89 86
3 112 86 113
3 113 114 139
3 138 174 171
3 138 171 139
3 89 93 17
3 16 20 164
3 164 166 167
3 166 171 169
3 20 17 21
3 96 65 97
3 126 96 97
3 65 58 63
3 57 58 22
3 23 22 19
3 189 193 194
3 23 19 194
3 186 192 191
3 191 195 193
3 151 192 188
3 126 124 151
3 93 89 91
3 91 86 112
3 112 113 139
3 139 171 168
3 17 93 21
3 20 161 164
3 163 166 164
3 168 171 166
3 24 20 21
3 65 63 97
3 126 97 124
3 63 58 57
3 56 57 22
3 27 22 23
3 193 196 194
3 23 194 197
3 192 195 191
3 195 198 193
3 124 192 151
3 94 93 91
3 111 91 112
3 112 139 142
3 139 168 142
3 93 95 21
3 20 24 161
3 161 163 164
3 163 168 166
3 25 24 21
3 97 63 98
3 124 97 98
3 63 57 61
3 56 61 57
3 27 56 22
3 27 23 28
3 193 198 196
3 194 196 197
3 28 23 197
3 124 195 192
3 122 198 195
3 95 93 94
3 94 91 111
3 111 112 142
3 142 168 165
3 21 95 25
3 24 158 161
3 160 163 161
3 165 168 163
3 26 24 25
3 63 61 98
3 124 98 122
3 62 61 56
3 31 56 27
3 31 27 28
3 198 201 196
3 196 199 197
3 28 197 200
3 122 195 124
3 120 198 122
3 95 94 90
3 110 94 111
3 111 142 143
3 142 165 143
3 95 92 25
3 24 26 158
3 158 160 161
3 160 165 163
3 29 26 25
3 98 61 99
3 122 98 99
3 61 62 99
3 55 62 56
3 55 56 31
3 31 28 32
3 120 201 198
3 196 201 199
3 197 199 200
3 28 200 203
3 122 99 120
3 90 94 110
3 95 90 92
3 111 141 110
3 111 143 141
3 143 165 162
3 25 92 29
3 26 30 158
3 157 160 158
3 162 165 160
3 30 26 29
3 99 62 100
3 64 62 55
3 35 55 31
3 32 28 203
3 35 31 32
3 121 201 120
3 201 204 199
3 199 202 200
3 200 202 203
3 100 120 99
3 109 90 110
3 92 90 87
3 110 141 140
3 143 162 141
3 92 87 29
3 30 145 158
3 157 162 160
3 145 157 158
3 33 30 29
3 100 62 101
3 62 64 101
3 54 64 55
3 54 55 35
3 36 32 203
3 35 32 36
3 121 204 201
3 121 120 100
3 199 204 202
3 202 205 203
3 88 90 109
3 110 140 109
3 90 88 87
3 141 159 140
3 141 162 159
3 29 87 33
3 30 34 145
3 159 162 157
3 153 157 145
3 34 30 33
3 101 121 100
3 64 66 101
3 66 64 54
3 39 54 35
3 36 203 206
3 39 35 36
3 123 204 121
3 204 208 202
3 202 208 205
3 203 205 206
3 108 88 109
3 109 140 137
3 87 88 84
3 140 159 156
3 87 48 33
3 34 146 145
3 153 159 157
3 144 153 145
3 37 34 33
3 123 121 101
3 101 66 102
3 53 66 54
3 53 54 39
3 40 36 206
3 39 36 40
3 123 208 204
3 208 210 205
3 206 205 207
3 84 88 108
3 109 137 108
3 137 140 147
3 87 84 48
3 156 159 153
3 140 156 147
3 33 48 37
3 34 38 146
3 144 145 146
3 152 153 144
3 38 34 37
3 102 123 101
3 66 68 102
3 68 66 53
3 52 53 39
3 40 206 207
3 43 39 40
3 125 208 123
3 125 210 208
3 205 210 209
3 205 209 207
3 107 84 108
3 108 137 136
3 136 137 147
3 48 84 81
3 154 156 153
3 147 156 155
3 48 49 37
3 38 190 146
3 190 144 146
3 154 153 152
3 144 220 152
3 41 38 37
3 125 123 102
3 102 68 103
3 52 68 53
3 43 52 39
3 44 40 207
3 43 40 44
3 127 210 125
3 210 214 209
3 209 211 207
3 81 84 107
3 108 136 107
3 147 221 136
3 48 81 49
3 155 156 154
3 155 221 147
3 37 49 41
3 38 218 190
3 190 220 144
3 152 220 154
3 42 38 41
3 103 125 102
3 68 71 103
3 71 68 52
3 47 52 43
3 44 207 212
3 47 43 44
3 127 214 210
3 127 125 103
3 209 214 211
3 207 211 212
3 106 81 107
3 107 136 133
3 136 221 219
3 49 81 78
3 154 221 155
3 49 50 41
3 38 42 218
3 218 220 190
3 220 221 154
3 45 42 41
3 103 71 104
3 51 71 52
3 51 52 47
3 44 212 213
3 47 44 46
3 129 214 127
3 104 127 103
3 214 216 211
3 212 211 213
3 78 81 106
3 107 133 106
3 136 219 133
3 219 221 217
3 49 78 50
3 41 50 45
3 42 46 218
3 217 220 218
3 217 221 220
3 45 46 42
3 104 71 105
3 74 71 51
3 45 51 47
3 46 44 213
3 47 46 45
3 129 216 214
3 129 127 104
3 211 216 215
3 211 215 213
3 105 78 106
3 106 133 131
3 133 219 216
3 215 219 217
3 50 78 74
3 50 51 45
3 46 213 218
3 213 217 218
3 71 74 105
3 105 129 104
3 50 74 51
3 131 216 129
3 216 219 215
3 215 217 213
3 74 78 105
3 106 131 105
3 133 216 131
3 131 129 105
3 0 1 2
