ply
format ascii 1.0
comment made by tesseract
element vertex 120
property float x
property float y
property float z
element face 236
property list uchar int vertex_indices
end_header
-0.0503216 0.0565333 0.4401932
-0.0489448 0.0543605 0.4406899
-0.0496966 0.0542008 0.4408403
-0.0495698 0.0566930 0.4400429
-0.0510222 0.0564391 0.4405304
-0.0503972 0.0541066 0.4411774
-0.0516238 0.0564169 0.4410313
-0.0509988 0.0540843 0.4416784
-0.0520854 0.0564681 0.4416619
-0.0514604 0.0541356 0.4423089
-0.0523756 0.0565893 0.4423791
-0.0517506 0.0542568 0.4430262
-0.0524746 0.0567722 0.4431342
-0.0518496 0.0544397 0.4437812
-0.0523756 0.0570044 0.4438756
-0.0517506 0.0546719 0.4445226
-0.0520854 0.0572700 0.4445527
-0.0514604 0.0549375 0.4451998
-0.0516238 0.0575510 0.4451196
-0.0509988 0.0552184 0.4457666
-0.0510222 0.0578281 0.4455375
-0.0503972 0.0554955 0.4461845
-0.0503216 0.0580825 0.4457779
-0.0496966 0.0557500 0.4464250
-0.0495698 0.0582969 0.4458245
-0.0489448 0.0559643 0.4464716
-0.0455216 0.0569592 0.4467514
-0.0468909 0.0562405 0.4454831
-0.0465242 0.0569221 0.4475862
-0.0474925 0.0562183 0.4459840
-0.0447522 0.0568738 0.4457004
-0.0464293 0.0561893 0.4448525
-0.0481930 0.0561241 0.4463212
-0.0476918 0.0567652 0.4481481
-0.0489448 0.0564989 0.4483988
-0.0442686 0.0566718 0.4445050
-0.0461391 0.0560680 0.4441353
-0.0441036 0.0563669 0.4432466
-0.0460401 0.0558851 0.4433802
-0.0501978 0.0561417 0.4483211
-0.0442686 0.0559800 0.4420110
-0.0461391 0.0556529 0.4426389
-0.0513655 0.0557176 0.4479204
-0.0447522 0.0555373 0.4408823
-0.0464293 0.0553873 0.4419617
-0.0523681 0.0552558 0.4472239
-0.0468909 0.0551064 0.4413948
-0.0455216 0.0550691 0.4399376
-0.0531375 0.0547875 0.4462791
-0.0465242 0.0546072 0.4392411
-0.0474925 0.0548293 0.4409769
-0.0481930 0.0545749 0.4407365
-0.0536211 0.0543449 0.4451505
-0.0476918 0.0541832 0.4388404
-0.0537861 0.0539579 0.4439149
-0.0489448 0.0538259 0.4387627
-0.0536211 0.0536530 0.4426565
-0.0501978 0.0535597 0.4390133
-0.0531375 0.0534510 0.4414611
-0.0513655 0.0534027 0.4395752
-0.0523681 0.0533656 0.4404101
-0.0504217 0.0593376 0.4372337
-0.0491687 0.0596948 0.4373114
-0.0480011 0.0601189 0.4377122
-0.0469984 0.0605807 0.4384086
-0.0462291 0.0610490 0.4393534
-0.0457454 0.0614916 0.4404820
-0.0455805 0.0618786 0.4417177
-0.0457454 0.0621835 0.4429761
-0.0462291 0.0623855 0.4441715
-0.0469984 0.0624709 0.4452224
-0.0480011 0.0624338 0.4460573
-0.0491687 0.0622768 0.4466192
-0.0504217 0.0620106 0.4468699
-0.0528423 0.0589144 0.4380463
-0.0516747 0.0590713 0.4374844
-0.0538450 0.0588773 0.4388812
-0.0546143 0.0589627 0.4399321
-0.0552629 0.0594696 0.4423859
-0.0550980 0.0591647 0.4411275
-0.0550980 0.0598565 0.4436215
-0.0538450 0.0607674 0.4456950
-0.0546143 0.0602992 0.4447502
-0.0516747 0.0616533 0.4467922
-0.0528423 0.0612293 0.4463914
-0.0488180 0.0584566 0.4456741
-0.0481175 0.0585508 0.4453370
-0.0475159 0.0585730 0.4448361
-0.0470543 0.0585218 0.4442055
-0.0467641 0.0584006 0.4434882
-0.0466651 0.0582177 0.4427332
-0.0467641 0.0579855 0.4419918
-0.0470543 0.0577199 0.4413146
-0.0475159 0.0574389 0.4407478
-0.0481175 0.0571618 0.4403299
-0.0488180 0.0569074 0.4400895
-0.0498198 0.0578933 0.4407476
-0.0493186 0.0580363 0.4407787
-0.0488516 0.0582059 0.4409390
-0.0484505 0.0583906 0.4412176
-0.0481428 0.0585779 0.4415955
-0.0479493 0.0587550 0.4420470
-0.0478833 0.0589098 0.4425412
-0.0479493 0.0590317 0.4430445
-0.0481428 0.0591125 0.4435227
-0.0484505 0.0591467 0.4439431
-0.0488516 0.0591318 0.4442771
-0.0493186 0.0590691 0.4445018
-0.0498198 0.0589626 0.4446021
-0.0503210 0.0588197 0.4445710
-0.0507881 0.0586500 0.4444107
-0.0511891 0.0584653 0.4441321
-0.0514969 0.0582780 0.4437542
-0.0516903 0.0581009 0.4433028
-0.0517563 0.0579462 0.4428085
-0.0516903 0.0578242 0.4423052
-0.0514969 0.0577434 0.4418270
-0.0511891 0.0577092 0.4414066
-0.0507881 0.0577241 0.4410727
-0.0503210 0.0577869 0.4408479
3 0 3 1
3 1 57 2
3 4 0 2
3 3 0 119
3 3 51 1
3 55 57 1
3 2 57 5
3 0 4 118
3 4 2 5
3 0 118 119
3 3 119 96
3 3 95 51
3 51 55 1
3 57 55 61
3 57 59 5
3 4 117 118
3 6 4 5
3 118 97 119
3 119 97 96
3 3 96 97
3 95 3 97
3 95 50 51
3 53 55 51
3 55 53 61
3 75 57 61
3 59 57 75
3 59 60 5
3 4 6 117
3 117 97 118
3 6 5 7
3 95 97 98
3 95 94 50
3 49 51 50
3 49 53 51
3 61 53 62
3 61 62 75
3 74 59 75
3 60 59 74
3 5 60 7
3 6 116 117
3 117 98 97
3 8 6 7
3 94 95 98
3 94 46 50
3 46 49 50
3 53 49 62
3 62 64 75
3 74 75 76
3 76 60 74
3 7 60 9
3 6 8 116
3 117 116 100
3 117 99 98
3 8 7 9
3 94 98 99
3 94 93 46
3 47 49 46
3 62 49 63
3 63 64 62
3 64 81 75
3 75 78 76
3 58 60 76
3 9 60 58
3 8 115 116
3 116 101 100
3 117 100 99
3 10 8 9
3 93 94 99
3 93 44 46
3 49 47 63
3 43 47 46
3 63 47 64
3 64 72 81
3 75 81 78
3 76 78 77
3 77 58 76
3 9 58 11
3 8 10 115
3 116 115 101
3 92 100 101
3 93 99 100
3 10 9 11
3 93 92 44
3 43 46 44
3 47 43 64
3 67 72 64
3 81 72 83
3 78 81 80
3 77 78 79
3 56 58 77
3 11 58 56
3 10 114 115
3 115 102 101
3 92 93 100
3 91 92 101
3 12 10 11
3 92 41 44
3 43 44 40
3 64 43 65
3 67 70 72
3 65 67 64
3 83 72 73
3 81 83 84
3 80 81 82
3 80 52 78
3 78 54 79
3 79 56 77
3 11 56 13
3 10 12 114
3 115 114 102
3 91 101 102
3 92 91 41
3 12 11 13
3 40 44 41
3 43 40 65
3 69 70 67
3 72 70 71
3 66 67 65
3 72 33 73
3 73 39 83
3 83 39 84
3 84 42 81
3 81 45 82
3 82 48 80
3 48 52 80
3 52 54 78
3 54 56 79
3 13 56 54
3 12 113 114
3 114 103 102
3 90 91 102
3 91 38 41
3 14 12 13
3 40 41 37
3 65 40 66
3 69 26 70
3 68 69 67
3 70 28 71
3 71 33 72
3 66 37 67
3 33 34 73
3 34 39 73
3 39 42 84
3 42 45 81
3 45 48 82
3 17 52 48
3 15 54 52
3 13 54 15
3 12 14 113
3 114 113 103
3 90 102 103
3 91 90 38
3 37 41 38
3 14 13 15
3 40 37 66
3 30 26 69
3 26 28 70
3 68 30 69
3 67 35 68
3 28 33 71
3 37 35 67
3 33 32 34
3 34 23 39
3 39 21 42
3 42 19 45
3 19 48 45
3 15 52 17
3 17 48 19
3 14 112 113
3 113 104 103
3 89 90 103
3 90 36 38
3 37 38 35
3 16 14 15
3 30 31 26
3 26 27 28
3 35 30 68
3 28 32 33
3 32 25 34
3 25 23 34
3 23 21 39
3 21 19 42
3 16 15 17
3 18 17 19
3 14 16 112
3 113 112 104
3 89 103 104
3 90 89 36
3 35 38 36
3 30 36 31
3 26 31 27
3 27 29 28
3 35 36 30
3 29 32 28
3 85 25 32
3 24 23 25
3 22 21 23
3 20 19 21
3 18 16 17
3 20 18 19
3 16 111 112
3 112 105 104
3 88 89 104
3 89 31 36
3 88 27 31
3 87 29 27
3 86 32 29
3 85 24 25
3 86 85 32
3 24 22 23
3 22 20 21
3 16 18 111
3 18 20 110
3 112 111 105
3 88 104 105
3 89 88 31
3 88 87 27
3 87 86 29
3 24 85 108
3 85 86 107
3 22 24 108
3 20 22 109
3 18 110 111
3 20 109 110
3 111 106 105
3 87 88 105
3 86 87 106
3 85 107 108
3 86 106 107
3 22 108 109
3 111 110 107
3 110 109 108
3 111 107 106
3 87 105 106
3 110 108 107
3 0 1 2
