ply
format ascii 1.0
comment made by tesseract
element vertex 244
property float x
property float y
property float z
element face 488
property list uchar int vertex_indices
end_header
0.5000000 -0.0109063 1.9866064
0.5000000 -0.0098376 1.9871848
0.5000000 -0.0105528 1.9862528
0.5000000 -0.0102707 1.9874349
0.5000000 -0.0117348 1.9859707
0.5000000 -0.0114848 1.9855376
0.5000000 -0.0126995 1.9855710
0.5000000 -0.0125701 1.9850881
0.5000000 -0.0098711 1.9883995
0.5000000 -0.0093881 1.9882700
0.5000000 -0.0137348 1.9849348
0.5000000 -0.0137348 1.9854348
0.5000000 -0.0097348 1.9894348
0.5000000 -0.0092348 1.9894348
0.5000000 -0.0147700 1.9855710
0.5000000 -0.0148994 1.9850881
0.5000000 -0.0098711 1.9904701
0.5000000 -0.0093881 1.9905995
0.5000000 -0.0159848 1.9855376
0.5000000 -0.0157348 1.9859707
0.5000000 -0.0102707 1.9914348
0.5000000 -0.0098376 1.9916848
0.5000000 -0.0169167 1.9862528
0.5000000 -0.0105528 1.9926167
0.5000000 -0.0109063 1.9922632
0.5000000 -0.0165632 1.9866064
0.5000000 -0.0117348 1.9928988
0.5000000 -0.0176319 1.9871848
0.5000000 -0.0171989 1.9874349
0.5000000 -0.0114848 1.9933319
0.5000000 -0.0126995 1.9932984
0.5000000 -0.0180814 1.9882700
0.5000000 -0.0175985 1.9883995
0.5000000 -0.0125701 1.9937813
0.5000000 -0.0182348 1.9894348
0.5000000 -0.0177348 1.9894348
0.5000000 -0.0137348 1.9939349
0.5000000 -0.0137348 1.9934348
0.5000000 -0.0180814 1.9905995
0.5000000 -0.0175985 1.9904701
0.5000000 -0.0148994 1.9937813
0.5000000 -0.0147700 1.9932984
0.5000000 -0.0176319 1.9916848
0.5000000 -0.0171989 1.9914348
0.5000000 -0.0159848 1.9933319
0.5000000 -0.0157348 1.9928988
0.5000000 -0.0169167 1.9926167
0.5000000 -0.0165632 1.9922632
0.4880000 -0.0137348 1.9939349
0.4880000 -0.0125701 1.9937813
0.4880000 -0.0114848 1.9933319
0.4880000 -0.0105528 1.9926167
0.4880000 -0.0098376 1.9916848
0.4880000 -0.0093881 1.9905995
0.4880000 -0.0092348 1.9894348
0.4880000 -0.0093881 1.9882700
0.4880000 -0.0098376 1.9871848
0.4880000 -0.0105528 1.9862528
0.4880000 -0.0114848 1.9855376
0.4880000 -0.0125701 1.9850881
0.4880000 -0.0137348 1.9849348
0.4880000 -0.0158348 1.9930720
0.4880000 -0.0159848 1.9933319
0.4880000 -0.0169167 1.9926167
0.4880000 -0.0167046 1.9924047
0.4880000 -0.0173721 1.9915348
0.4880000 -0.0176319 1.9916848
0.4880000 -0.0148994 1.9937813
0.4880000 -0.0177916 1.9905219
0.4880000 -0.0180814 1.9905995
0.4880000 -0.0148218 1.9934916
0.4880000 -0.0137348 1.9936348
0.4880000 -0.0179348 1.9894348
0.4880000 -0.0182348 1.9894348
0.4880000 -0.0126477 1.9934916
0.4880000 -0.0177916 1.9883478
0.4880000 -0.0180814 1.9882700
0.4880000 -0.0116348 1.9930720
0.4880000 -0.0173721 1.9873347
0.4880000 -0.0176319 1.9871848
0.4880000 -0.0107649 1.9924047
0.4880000 -0.0167046 1.9864650
0.4880000 -0.0169167 1.9862528
0.4880000 -0.0158348 1.9857975
0.4880000 -0.0100975 1.9915348
0.4880000 -0.0159848 1.9855376
0.4880000 -0.0096779 1.9905219
0.4880000 -0.0148994 1.9850881
0.4880000 -0.0148218 1.9853779
0.4880000 -0.0137348 1.9852347
0.4880000 -0.0095348 1.9894348
0.4880000 -0.0096779 1.9883478
0.4880000 -0.0126477 1.9853779
0.4880000 -0.0100975 1.9873347
0.4880000 -0.0116348 1.9857975
0.4880000 -0.0107649 1.9864650
0.4862500 -0.0137348 1.9936348
0.4862500 -0.0148218 1.9934916
0.4862500 -0.0158348 1.9930720
0.4862500 -0.0167046 1.9924047
0.4862500 -0.0173721 1.9915348
0.4862500 -0.0177916 1.9905219
0.4862500 -0.0179348 1.9894348
0.4862500 -0.0177916 1.9883478
0.4862500 -0.0173721 1.9873347
0.4862500 -0.0167046 1.9864650
0.4862500 -0.0158348 1.9857975
0.4862500 -0.0148218 1.9853779
0.4862500 -0.0137348 1.9852347
0.4862500 -0.0126477 1.9853779
0.4862500 -0.0116348 1.9857975
0.4862500 -0.0107649 1.9864650
0.4862500 -0.0100975 1.9873347
0.4862500 -0.0096779 1.9883478
0.4862500 -0.0095348 1.9894348
0.4862500 -0.0096779 1.9905219
0.4862500 -0.0100975 1.9915348
0.4862500 -0.0107649 1.9924047
0.4862500 -0.0116348 1.9930720
0.4862500 -0.0126477 1.9934916
0.4862500 -0.0116848 1.9929855
0.4862500 -0.0108356 1.9923339
0.4862500 -0.0101841 1.9914848
0.4862500 -0.0126736 1.9933950
0.4862500 -0.0097745 1.9904959
0.4862500 -0.0137348 1.9935348
0.4862500 -0.0096348 1.9894348
0.4862500 -0.0147959 1.9933950
0.4862500 -0.0097745 1.9883736
0.4862500 -0.0157848 1.9929855
0.4862500 -0.0101841 1.9873848
0.4862500 -0.0166339 1.9923339
0.4862500 -0.0108356 1.9865357
0.4862500 -0.0116848 1.9858841
0.4862500 -0.0172855 1.9914848
0.4862500 -0.0176951 1.9904959
0.4862500 -0.0126736 1.9854745
0.4862500 -0.0137348 1.9853348
0.4862500 -0.0178348 1.9894348
0.4862500 -0.0176951 1.9883736
0.4862500 -0.0147959 1.9854745
0.4862500 -0.0172855 1.9873848
0.4862500 -0.0157848 1.9858841
0.4862500 -0.0166339 1.9865357
0.4862534 -0.0178089 1.9894348
0.4862534 -0.0096606 1.9894348
0.4863241 -0.0177382 1.9894348
0.4863241 -0.0176018 1.9883986
0.4863500 -0.0177348 1.9894348
0.4863000 -0.0177482 1.9894348
0.4863500 -0.0175985 1.9883995
0.4862793 -0.0177640 1.9894348
0.4862793 -0.0176268 1.9883919
0.4862634 -0.0177848 1.9894348
0.4862634 -0.0176468 1.9883866
0.4863241 -0.0172018 1.9874331
0.4863500 -0.0171989 1.9874349
0.4862793 -0.0172242 1.9874202
0.4862634 -0.0172422 1.9874098
0.4863241 -0.0165656 1.9866039
0.4863500 -0.0165632 1.9866064
0.4862793 -0.0165839 1.9865856
0.4862634 -0.0165985 1.9865710
0.4863241 -0.0157365 1.9859676
0.4863500 -0.0157348 1.9859707
0.4862793 -0.0157494 1.9859453
0.4862634 -0.0157598 1.9859273
0.4863241 -0.0147709 1.9855678
0.4863500 -0.0147700 1.9855710
0.4862793 -0.0147776 1.9855428
0.4862634 -0.0147830 1.9855227
0.4863241 -0.0137348 1.9854314
0.4863500 -0.0137348 1.9854348
0.4862793 -0.0137348 1.9854056
0.4862634 -0.0137348 1.9853848
0.4863241 -0.0126986 1.9855678
0.4863500 -0.0126995 1.9855710
0.4862793 -0.0126919 1.9855428
0.4862634 -0.0126865 1.9855227
0.4863241 -0.0117331 1.9859676
0.4863500 -0.0117348 1.9859707
0.4862793 -0.0117201 1.9859453
0.4862634 -0.0117098 1.9859273
0.4863241 -0.0109039 1.9866039
0.4863500 -0.0109063 1.9866064
0.4862793 -0.0108856 1.9865856
0.4862634 -0.0108710 1.9865710
0.4863241 -0.0102677 1.9874331
0.4863500 -0.0102707 1.9874349
0.4862793 -0.0102453 1.9874202
0.4862634 -0.0102274 1.9874098
0.4863500 -0.0098711 1.9883995
0.4863241 -0.0098678 1.9883986
0.4863500 -0.0097348 1.9894348
0.4863241 -0.0097314 1.9894348
0.4863000 -0.0097214 1.9894348
0.4862793 -0.0098428 1.9883919
0.4862793 -0.0097055 1.9894348
0.4862634 -0.0098228 1.9883866
0.4862634 -0.0096848 1.9894348
0.4863241 -0.0098678 1.9904710
0.4863500 -0.0098711 1.9904701
0.4862793 -0.0098428 1.9904777
0.4862634 -0.0098228 1.9904830
0.4863241 -0.0102677 1.9914364
0.4863500 -0.0102707 1.9914348
0.4862793 -0.0102453 1.9914495
0.4862634 -0.0102274 1.9914597
0.4863241 -0.0109039 1.9922656
0.4863500 -0.0109063 1.9922632
0.4862793 -0.0108856 1.9922839
0.4862634 -0.0108710 1.9922986
0.4863241 -0.0117331 1.9929018
0.4863500 -0.0117348 1.9928988
0.4862793 -0.0117201 1.9929242
0.4862634 -0.0117098 1.9929421
0.4863241 -0.0126986 1.9933017
0.4863500 -0.0126995 1.9932984
0.4862793 -0.0126919 1.9933268
0.4862634 -0.0126865 1.9933468
0.4863241 -0.0137348 1.9934381
0.4863500 -0.0137348 1.9934348
0.4863500 -0.0147700 1.9932984
0.4862793 -0.0137348 1.9934640
0.4862634 -0.0137348 1.9934847
0.4863241 -0.0147709 1.9933017
0.4862793 -0.0147776 1.9933268
0.4862634 -0.0147830 1.9933468
0.4863241 -0.0157365 1.9929018
0.4863500 -0.0157348 1.9928988
0.4862793 -0.0157494 1.9929242
0.4862634 -0.0157598 1.9929421
0.4863241 -0.0165656 1.9922656
0.4863500 -0.0165632 1.9922632
0.4862793 -0.0165839 1.9922839
0.4862634 -0.0165985 1.9922986
0.4863241 -0.0172018 1.9914364
0.4863500 -0.0171989 1.9914348
0.4862793 -0.0172242 1.9914495
0.4862634 -0.0172422 1.9914597
0.4863241 -0.0176018 1.9904710
0.4863500 -0.0175985 1.9904701
0.4862793 -0.0176268 1.9904777
0.4862634 -0.0176468 1.9904830
3 3 1 0
3 1 57 2
3 4 0 2
3 8 1 3
3 3 0 184
3 56 57 1
3 57 58 2
3 0 4 180
3 4 2 5
3 8 9 1
3 8 3 188
3 0 180 184
3 3 184 188
3 57 56 95
3 55 56 1
3 57 94 58
3 2 58 5
3 4 176 180
3 6 4 5
3 12 9 8
3 9 55 1
3 8 188 191
3 180 183 184
3 184 187 188
3 56 93 95
3 57 95 94
3 56 55 93
3 58 94 59
3 58 59 5
3 4 6 176
3 176 179 180
3 6 5 7
3 12 13 9
3 12 8 191
3 13 55 9
3 188 192 191
3 179 183 180
3 183 187 184
3 187 192 188
3 95 93 111
3 94 95 110
3 93 55 91
3 94 92 59
3 5 59 7
3 6 172 176
3 175 179 176
3 10 6 7
3 16 13 12
3 12 191 193
3 54 55 13
3 191 192 193
3 181 183 179
3 183 189 187
3 189 192 187
3 111 93 112
3 110 95 111
3 109 94 110
3 55 90 91
3 93 91 113
3 92 94 109
3 59 92 89
3 7 59 10
3 6 11 172
3 172 175 176
3 175 181 179
3 11 6 10
3 16 17 13
3 16 12 193
3 55 54 90
3 17 54 13
3 193 192 194
3 181 185 183
3 185 189 183
3 189 196 192
3 112 93 113
3 132 111 112
3 110 111 133
3 109 110 133
3 91 90 114
3 113 91 114
3 108 92 109
3 89 92 108
3 59 89 60
3 59 60 10
3 11 168 172
3 171 175 172
3 177 181 175
3 14 11 10
3 20 17 16
3 16 193 201
3 54 86 90
3 53 54 17
3 194 192 195
3 194 200 193
3 181 186 185
3 185 190 189
3 189 198 196
3 192 196 195
3 112 113 128
3 133 111 132
3 132 112 130
3 109 133 136
3 90 86 114
3 128 113 114
3 108 109 137
3 107 89 108
3 60 89 87
3 60 87 10
3 11 14 168
3 168 171 172
3 171 177 175
3 177 182 181
3 14 10 15
3 20 21 17
3 20 16 205
3 193 200 201
3 16 201 205
3 54 53 86
3 21 53 17
3 195 200 194
3 182 186 181
3 186 190 185
3 190 198 189
3 196 198 197
3 195 196 197
3 130 112 128
3 132 186 133
3 130 186 132
3 133 182 136
3 137 109 136
3 114 86 115
3 128 114 126
3 107 108 137
3 88 89 107
3 89 88 87
3 10 87 15
3 14 164 168
3 167 171 168
3 173 177 171
3 178 182 177
3 18 14 15
3 23 21 20
3 24 20 205
3 200 204 201
3 201 204 205
3 53 52 86
3 52 53 21
3 195 202 200
3 133 186 182
3 130 190 186
3 130 198 190
3 197 198 199
3 197 202 195
3 128 198 130
3 136 182 178
3 136 178 137
3 115 86 116
3 126 114 115
3 128 126 145
3 107 137 140
3 83 88 107
3 87 88 83
3 87 85 15
3 14 19 164
3 164 167 168
3 169 171 167
3 173 178 177
3 169 173 171
3 19 14 18
3 15 85 18
3 23 51 21
3 23 20 24
3 24 205 209
3 200 206 204
3 204 208 205
3 86 52 84
3 51 52 21
3 202 206 200
3 199 198 145
3 199 203 197
3 197 203 202
3 145 198 128
3 137 178 174
3 86 84 116
3 124 115 116
3 126 115 124
3 126 124 145
3 137 174 140
3 106 107 140
3 106 83 107
3 87 83 85
3 19 160 164
3 163 167 164
3 165 169 167
3 174 178 173
3 169 174 173
3 22 19 18
3 18 85 22
3 29 51 23
3 26 23 24
3 205 208 209
3 26 24 209
3 206 210 204
3 204 210 208
3 52 80 84
3 52 51 80
3 202 207 206
3 145 203 199
3 203 207 202
3 84 80 116
3 124 116 122
3 124 203 145
3 140 174 170
3 106 140 142
3 81 83 106
3 85 83 82
3 19 25 160
3 160 163 164
3 165 167 163
3 165 170 169
3 170 174 169
3 25 19 22
3 85 82 22
3 50 51 29
3 29 23 26
3 208 212 209
3 26 209 213
3 206 211 210
3 210 214 208
3 80 51 50
3 207 211 206
3 124 207 203
3 116 80 117
3 122 116 117
3 122 207 124
3 140 170 142
3 105 106 142
3 83 81 82
3 105 81 106
3 25 156 160
3 159 163 160
3 159 165 163
3 166 170 165
3 27 25 22
3 82 79 22
3 33 50 29
3 30 29 26
3 208 214 212
3 209 212 213
3 30 26 213
3 211 214 210
3 80 50 77
3 122 211 207
3 80 77 117
3 122 117 121
3 142 170 166
3 105 142 143
3 81 79 82
3 104 81 105
3 25 28 156
3 156 159 160
3 161 165 159
3 161 166 165
3 27 28 25
3 22 79 27
3 49 50 33
3 33 29 30
3 214 218 212
3 212 216 213
3 30 213 217
3 211 215 214
3 77 50 49
3 121 211 122
3 117 77 118
3 120 121 117
3 142 166 143
3 105 143 141
3 81 78 79
3 78 81 104
3 105 141 104
3 28 32 156
3 155 159 156
3 155 161 159
3 162 166 161
3 31 28 27
3 79 76 27
3 36 49 33
3 36 33 30
3 214 219 218
3 212 218 216
3 213 216 217
3 37 30 217
3 121 215 211
3 215 219 214
3 77 49 74
3 77 74 118
3 120 117 118
3 120 215 121
3 143 166 162
3 143 158 141
3 78 76 79
3 75 78 104
3 104 141 103
3 31 32 28
3 32 150 156
3 150 155 156
3 157 161 155
3 158 162 161
3 27 76 31
3 48 49 36
3 36 30 37
3 219 224 218
3 218 220 216
3 216 220 217
3 37 217 221
3 120 219 215
3 74 49 48
3 118 74 119
3 123 120 118
3 143 162 158
3 141 158 139
3 78 75 76
3 103 75 104
3 141 139 103
3 34 32 31
3 32 35 150
3 147 155 150
3 158 161 157
3 147 157 155
3 76 73 31
3 67 48 36
3 40 36 37
3 123 224 219
3 218 224 223
3 218 223 220
3 217 220 221
3 41 37 221
3 123 219 120
3 74 48 71
3 74 71 119
3 123 118 119
3 139 158 154
3 75 73 76
3 102 75 103
3 103 139 102
3 34 35 32
3 31 73 34
3 35 148 150
3 148 147 150
3 152 158 157
3 152 157 147
3 71 48 67
3 40 67 36
3 40 37 41
3 125 224 123
3 224 227 223
3 223 226 220
3 221 220 222
3 41 221 222
3 119 71 96
3 125 123 119
3 154 158 152
3 139 154 144
3 75 72 73
3 72 75 102
3 139 138 102
3 38 35 34
3 73 69 34
3 35 241 148
3 146 147 148
3 149 152 147
3 71 67 70
3 44 67 40
3 44 40 41
3 125 227 224
3 223 227 226
3 220 226 225
3 220 225 222
3 41 222 229
3 71 70 96
3 125 119 96
3 151 154 152
3 144 154 153
3 138 139 144
3 72 69 73
3 101 72 102
3 102 138 135
3 38 39 35
3 34 69 38
3 35 39 241
3 241 240 148
3 149 147 146
3 148 240 146
3 151 152 149
3 70 67 61
3 62 67 44
3 44 41 45
3 127 227 125
3 227 231 226
3 226 230 225
3 225 228 222
3 222 228 229
3 45 41 229
3 96 70 97
3 127 125 96
3 153 154 151
3 153 243 144
3 135 138 144
3 72 68 69
3 68 72 101
3 102 135 101
3 42 39 38
3 69 66 38
3 39 237 241
3 237 240 241
3 146 240 149
3 149 242 151
3 67 62 61
3 70 61 97
3 46 62 44
3 46 44 45
3 127 231 227
3 226 231 230
3 225 230 228
3 228 232 229
3 47 45 229
3 127 96 97
3 151 242 153
3 242 243 153
3 144 243 135
3 68 66 69
3 65 68 101
3 101 135 134
3 42 43 39
3 38 66 42
3 39 43 237
3 236 240 237
3 240 242 149
3 61 62 63
3 97 61 98
3 63 62 46
3 46 45 47
3 129 231 127
3 231 235 230
3 230 234 228
3 228 234 232
3 229 232 233
3 47 229 233
3 129 127 97
3 238 243 242
3 135 243 134
3 68 65 66
3 100 65 101
3 101 134 100
3 46 43 42
3 66 63 42
3 43 233 237
3 236 242 240
3 233 236 237
3 61 63 64
3 98 61 99
3 129 97 98
3 42 63 46
3 46 47 43
3 129 235 231
3 230 235 234
3 234 238 232
3 232 236 233
3 43 47 233
3 239 243 238
3 238 242 236
3 134 243 239
3 65 63 66
3 99 65 100
3 100 134 99
3 65 64 63
3 61 64 99
3 131 98 99
3 131 129 98
3 131 235 129
3 235 239 234
3 234 239 238
3 232 238 236
3 134 239 131
3 64 65 99
3 134 131 99
3 131 239 235
3 0 1 2
