ply
format ascii 1.0
comment made by tesseract
element vertex 69
property float x
property float y
property float z
element face 134
property list uchar int vertex_indices
end_header
1.6192291 -0.0753915 2.0655491
1.6190501 -0.0710000 2.0663278
1.6193742 -0.0710000 2.0651498
1.6190501 -0.0750000 2.0663278
1.6194773 -0.0757329 2.0649166
1.6199741 -0.0710000 2.0640855
1.6198313 -0.0760995 2.0642893
1.6201969 -0.0764074 2.0638051
1.6208143 -0.0710000 2.0631983
1.6205492 -0.0766611 2.0634334
1.6208825 -0.0768676 2.0631430
1.6213299 -0.0770835 2.0628252
1.6218446 -0.0710000 2.0625415
1.6217166 -0.0771807 2.0626047
1.6220515 -0.0771706 2.0624485
1.6223279 -0.0771035 2.0623412
1.6226486 -0.0769850 2.0622396
1.6230035 -0.0710000 2.0621541
1.6230292 -0.0768161 2.0621488
1.6234764 -0.0766005 2.0620816
1.6239375 -0.0763702 2.0620546
1.6242217 -0.0710000 2.0620594
1.6244676 -0.0761007 2.0620763
1.6254117 -0.0756118 2.0622585
1.6254265 -0.0710000 2.0622630
1.6265459 -0.0750000 2.0627527
1.6265459 -0.0710000 2.0627527
1.6262859 -0.0710000 2.0616672
1.6257610 -0.0710000 2.0606818
1.6250050 -0.0710000 2.0598607
1.6183703 -0.0710000 2.0654426
1.6240668 -0.0710000 2.0592558
1.6179349 -0.0710000 2.0644147
1.6230065 -0.0710000 2.0589068
1.6177723 -0.0710000 2.0633104
1.6218925 -0.0710000 2.0588357
1.6178929 -0.0710000 2.0622008
1.6207964 -0.0710000 2.0590472
1.6182889 -0.0710000 2.0611570
1.6197888 -0.0710000 2.0595279
1.6189345 -0.0710000 2.0602462
1.6262859 -0.0750000 2.0616672
1.6257610 -0.0750000 2.0606818
1.6250050 -0.0750000 2.0598607
1.6240668 -0.0750000 2.0592558
1.6230065 -0.0750000 2.0589068
1.6218925 -0.0750000 2.0588357
1.6207964 -0.0750000 2.0590472
1.6197888 -0.0750000 2.0595279
1.6189345 -0.0750000 2.0602462
1.6182889 -0.0750000 2.0611570
1.6178929 -0.0750000 2.0622008
1.6177723 -0.0750000 2.0633104
1.6179349 -0.0750000 2.0644147
1.6183703 -0.0750000 2.0654426
1.6233140 -0.0764538 2.0616090
1.6249208 -0.0757269 2.0616086
1.6225474 -0.0764538 2.0612822
1.6240119 -0.0757269 2.0606208
1.6217141 -0.0764538 2.0612998
1.6227769 -0.0757269 2.0600946
1.6209619 -0.0764538 2.0616586
1.6214347 -0.0757269 2.0601227
1.6204239 -0.0764538 2.0622952
1.6202230 -0.0757269 2.0607007
1.6201954 -0.0764538 2.0630968
1.6193563 -0.0757269 2.0617261
1.6189882 -0.0757269 2.0630171
1.6191838 -0.0757269 2.0643451
3 0 3 1
3 1 30 2
3 4 0 2
3 54 3 0
3 54 1 3
3 30 1 54
3 30 32 2
3 4 68 0
3 4 2 5
3 53 54 0
3 32 30 54
3 2 32 5
3 6 68 4
3 0 68 53
3 6 4 5
3 53 32 54
3 32 34 5
3 67 68 6
3 53 68 67
3 7 6 5
3 34 32 53
3 34 36 5
3 7 67 6
3 53 67 52
3 7 5 8
3 52 34 53
3 36 34 52
3 5 36 8
3 65 67 7
3 52 67 51
3 9 7 8
3 51 36 52
3 36 38 8
3 63 67 65
3 9 65 7
3 51 67 66
3 10 9 8
3 38 36 51
3 38 40 8
3 66 67 63
3 63 65 10
3 10 65 9
3 51 66 50
3 11 10 8
3 50 38 51
3 40 38 50
3 8 40 12
3 61 66 63
3 11 63 10
3 50 66 49
3 11 8 12
3 49 40 50
3 12 40 39
3 64 66 61
3 61 63 11
3 49 66 64
3 13 11 12
3 39 40 49
3 12 39 37
3 59 64 61
3 13 61 11
3 49 64 48
3 14 13 12
3 48 39 49
3 37 39 48
3 12 37 35
3 62 64 59
3 59 61 13
3 48 64 62
3 14 59 13
3 15 14 12
3 47 37 48
3 35 37 47
3 12 35 17
3 57 62 59
3 48 62 47
3 15 59 14
3 16 15 12
3 46 35 47
3 17 35 33
3 16 12 17
3 60 62 57
3 57 59 15
3 47 62 46
3 16 57 15
3 33 35 46
3 17 33 31
3 18 16 17
3 46 62 60
3 55 60 57
3 55 57 16
3 45 33 46
3 31 33 45
3 17 31 21
3 18 55 16
3 19 18 17
3 46 60 45
3 58 60 55
3 44 31 45
3 21 31 29
3 20 17 21
3 19 55 18
3 20 19 17
3 45 60 44
3 44 60 58
3 20 58 55
3 29 31 44
3 21 29 28
3 22 20 21
3 20 55 19
3 44 58 43
3 22 58 20
3 43 29 44
3 28 29 43
3 24 21 28
3 23 22 21
3 43 58 56
3 56 58 22
3 42 28 43
3 23 21 24
3 24 28 27
3 23 56 22
3 43 56 42
3 27 28 42
3 25 23 24
3 26 24 27
3 42 56 23
3 41 27 42
3 25 41 23
3 25 24 26
3 26 27 41
3 41 42 23
3 25 26 41
3 0 1 2
