ply
format ascii 1.0
comment made by tesseract
element vertex 69
property float x
property float y
property float z
element face 134
property list uchar int vertex_indices
end_header
1.6171291 -0.0750000 2.0476518
1.6166489 -0.0750000 2.0466440
1.6163177 -0.0754097 2.0474517
1.6159307 -0.0750000 2.0457895
1.6090517 -0.0750000 2.0510678
1.6096913 -0.0750000 2.0519829
1.6106149 -0.0756109 2.0514743
1.6105405 -0.0750000 2.0527074
1.6137573 -0.0767185 2.0477145
1.6137286 -0.0764559 2.0472083
1.6133728 -0.0769095 2.0478790
1.6142175 -0.0764815 2.0475647
1.6148450 -0.0761575 2.0474365
1.6156155 -0.0757643 2.0473902
1.6153004 -0.0757280 2.0468719
1.6129122 -0.0764559 2.0470486
1.6129194 -0.0771029 2.0481253
1.6150205 -0.0750000 2.0451434
1.6142064 -0.0757280 2.0460951
1.6139771 -0.0750000 2.0447469
1.6121023 -0.0764559 2.0472386
1.6125703 -0.0771839 2.0483599
1.6128674 -0.0750000 2.0446258
1.6128898 -0.0757280 2.0458372
1.6117628 -0.0750000 2.0447879
1.6114422 -0.0764559 2.0477450
1.6122912 -0.0771668 2.0485806
1.6107347 -0.0750000 2.0452228
1.6115835 -0.0757280 2.0461438
1.6120787 -0.0770993 2.0487719
1.6110491 -0.0764559 2.0484781
1.6118468 -0.0769816 2.0490084
1.6098491 -0.0750000 2.0459023
1.6105191 -0.0757280 2.0469604
1.6091629 -0.0750000 2.0467827
1.6113334 -0.0765982 2.0496719
1.6109922 -0.0764559 2.0493081
1.6111009 -0.0763684 2.0500698
1.6115954 -0.0768134 2.0493047
1.6087205 -0.0750000 2.0478077
1.6098847 -0.0757280 2.0481429
1.6085503 -0.0750000 2.0489109
1.6086631 -0.0750000 2.0500214
1.6097932 -0.0757280 2.0494814
1.6108805 -0.0760992 2.0505512
1.6102604 -0.0757280 2.0507393
1.6105405 -0.0710000 2.0527074
1.6106123 -0.0710000 2.0514877
1.6109779 -0.0710000 2.0503218
1.6116153 -0.0710000 2.0492792
1.6124866 -0.0710000 2.0484226
1.6135396 -0.0710000 2.0478029
1.6147114 -0.0710000 2.0474570
1.6159322 -0.0710000 2.0474055
1.6171291 -0.0710000 2.0476518
1.6166489 -0.0710000 2.0466440
1.6159307 -0.0710000 2.0457895
1.6096913 -0.0710000 2.0519829
1.6150205 -0.0710000 2.0451434
1.6090517 -0.0710000 2.0510678
1.6139771 -0.0710000 2.0447469
1.6086631 -0.0710000 2.0500214
1.6128674 -0.0710000 2.0446258
1.6085503 -0.0710000 2.0489109
1.6117628 -0.0710000 2.0447879
1.6087205 -0.0710000 2.0478077
1.6107347 -0.0710000 2.0452228
1.6091629 -0.0710000 2.0467827
1.6098491 -0.0710000 2.0459023
3 0 54 1
3 1 3 2
3 0 2 54
3 54 55 1
3 1 55 3
3 3 14 2
3 2 53 54
3 53 55 54
3 55 56 3
3 3 18 14
3 2 14 13
3 2 13 53
3 53 56 55
3 3 56 17
3 17 18 3
3 14 18 12
3 13 14 12
3 13 52 53
3 52 56 53
3 56 58 17
3 19 18 17
3 12 18 9
3 13 12 52
3 52 58 56
3 17 58 19
3 19 23 18
3 9 18 15
3 12 9 11
3 12 11 52
3 52 60 58
3 58 60 19
3 22 23 19
3 18 23 15
3 9 15 10
3 11 9 8
3 11 51 52
3 51 60 52
3 19 60 22
3 24 23 22
3 23 28 15
3 10 15 16
3 8 9 10
3 11 8 51
3 51 62 60
3 60 62 22
3 24 28 23
3 22 62 24
3 15 28 20
3 15 20 16
3 10 16 51
3 8 10 51
3 51 64 62
3 27 28 24
3 62 64 24
3 20 28 25
3 16 20 21
3 16 50 51
3 50 64 51
3 27 33 28
3 24 64 27
3 28 33 25
3 20 25 21
3 16 21 50
3 50 66 64
3 32 33 27
3 64 66 27
3 25 33 30
3 21 25 26
3 21 26 50
3 50 68 66
3 34 33 32
3 27 66 32
3 33 40 30
3 25 30 26
3 26 29 50
3 67 68 50
3 66 68 32
3 34 40 33
3 32 68 34
3 40 43 30
3 26 30 29
3 29 31 50
3 68 67 34
3 49 67 50
3 39 40 34
3 41 43 40
3 30 43 36
3 29 30 31
3 31 49 50
3 34 67 39
3 65 67 49
3 41 40 39
3 42 43 41
3 36 43 37
3 30 36 31
3 31 38 49
3 67 65 39
3 63 65 49
3 39 65 41
3 42 45 43
3 41 63 42
3 37 43 44
3 35 36 37
3 31 36 38
3 38 35 49
3 65 63 41
3 48 63 49
3 4 45 42
3 43 45 44
3 63 61 42
3 37 44 48
3 38 36 35
3 35 37 49
3 61 63 48
3 37 48 49
3 6 45 4
3 42 61 4
3 44 45 6
3 44 6 48
3 59 61 48
3 4 5 6
3 61 59 4
3 6 47 48
3 47 59 48
3 4 57 5
3 5 7 6
3 59 57 4
3 6 7 47
3 57 59 47
3 57 46 5
3 5 46 7
3 7 46 47
3 46 57 47
3 0 1 2
