ply
format ascii 1.0
comment made by tesseract
element vertex 120
property float x
property float y
property float z
element face 236
property list uchar int vertex_indices
end_header
0.0192250 0.0751683 0.4401932
0.0206018 0.0729955 0.4406899
0.0198500 0.0728357 0.4408403
0.0199768 0.0753280 0.4400429
0.0185245 0.0750741 0.4405304
0.0191495 0.0727415 0.4411774
0.0179229 0.0750518 0.4410313
0.0185479 0.0727193 0.4416784
0.0174612 0.0751031 0.4416619
0.0180862 0.0727705 0.4423089
0.0171711 0.0752243 0.4423791
0.0177961 0.0728917 0.4430262
0.0170721 0.0754072 0.4431342
0.0176971 0.0730747 0.4437812
0.0171711 0.0756394 0.4438756
0.0177961 0.0733069 0.4445226
0.0174612 0.0759050 0.4445527
0.0180862 0.0735725 0.4451998
0.0179229 0.0761859 0.4451196
0.0185479 0.0738534 0.4457666
0.0185245 0.0764630 0.4455375
0.0191495 0.0741305 0.4461845
0.0192250 0.0767175 0.4457779
0.0198500 0.0743849 0.4464250
0.0199768 0.0769318 0.4458245
0.0206018 0.0745993 0.4464716
0.0240251 0.0755942 0.4467514
0.0226558 0.0748755 0.4454831
0.0230224 0.0755571 0.4475862
0.0220542 0.0748532 0.4459840
0.0218548 0.0754001 0.4481481
0.0247944 0.0755088 0.4457004
0.0231174 0.0748242 0.4448525
0.0213536 0.0747590 0.4463212
0.0206018 0.0751339 0.4483988
0.0252781 0.0753068 0.4445050
0.0234076 0.0747030 0.4441353
0.0193488 0.0747766 0.4483211
0.0254431 0.0750019 0.4432466
0.0235066 0.0745201 0.4433802
0.0181812 0.0743526 0.4479204
0.0252781 0.0746149 0.4420110
0.0234076 0.0742879 0.4426389
0.0247944 0.0741723 0.4408823
0.0231174 0.0740223 0.4419617
0.0171786 0.0738907 0.4472239
0.0240251 0.0737040 0.4399376
0.0226558 0.0737414 0.4413948
0.0164092 0.0734225 0.4462791
0.0230224 0.0732422 0.4392411
0.0220542 0.0734643 0.4409769
0.0159256 0.0729798 0.4451505
0.0218548 0.0728181 0.4388404
0.0213536 0.0732098 0.4407365
0.0157606 0.0725929 0.4439149
0.0206018 0.0724608 0.4387627
0.0159256 0.0722880 0.4426565
0.0193488 0.0721946 0.4390133
0.0164092 0.0720860 0.4414611
0.0181812 0.0720377 0.4395752
0.0171786 0.0720006 0.4404101
0.0191250 0.0779725 0.4372337
0.0203780 0.0783298 0.4373114
0.0215456 0.0787538 0.4377122
0.0225482 0.0792157 0.4384086
0.0233176 0.0796839 0.4393534
0.0238012 0.0801266 0.4404820
0.0239662 0.0805136 0.4417177
0.0238012 0.0808185 0.4429761
0.0233176 0.0810205 0.4441715
0.0225482 0.0811059 0.4452224
0.0215456 0.0810688 0.4460573
0.0203780 0.0809118 0.4466192
0.0191250 0.0806456 0.4468699
0.0167044 0.0775493 0.4380463
0.0149323 0.0775976 0.4399321
0.0157017 0.0775123 0.4388812
0.0142837 0.0781045 0.4423859
0.0144487 0.0777997 0.4411275
0.0178720 0.0777063 0.4374844
0.0144487 0.0784915 0.4436215
0.0149323 0.0789342 0.4447502
0.0167044 0.0798643 0.4463914
0.0157017 0.0794024 0.4456950
0.0178720 0.0802883 0.4467922
0.0207286 0.0770916 0.4456741
0.0214292 0.0771858 0.4453370
0.0220308 0.0772080 0.4448361
0.0224924 0.0771568 0.4442055
0.0227826 0.0770356 0.4434882
0.0228816 0.0768526 0.4427332
0.0227826 0.0766204 0.4419918
0.0224924 0.0763548 0.4413146
0.0220308 0.0760739 0.4407478
0.0214292 0.0757968 0.4403299
0.0207286 0.0755424 0.4400895
0.0197268 0.0765283 0.4407476
0.0202280 0.0766712 0.4407787
0.0206951 0.0768408 0.4409390
0.0210961 0.0770256 0.4412176
0.0214039 0.0772129 0.4415955
0.0215973 0.0773899 0.4420470
0.0216633 0.0775447 0.4425412
0.0215973 0.0776667 0.4430445
0.0214039 0.0777475 0.4435227
0.0210961 0.0777816 0.4439431
0.0206951 0.0777668 0.4442771
0.0202280 0.0777040 0.4445018
0.0197268 0.0775975 0.4446021
0.0192256 0.0774546 0.4445710
0.0187586 0.0772850 0.4444107
0.0183575 0.0771003 0.4441321
0.0180498 0.0769130 0.4437542
0.0178563 0.0767359 0.4433028
0.0177903 0.0765811 0.4428085
0.0178563 0.0764592 0.4423052
0.0180498 0.0763784 0.4418270
0.0183575 0.0763442 0.4414066
0.0187586 0.0763590 0.4410727
0.0192256 0.0764218 0.4408479
3 0 3 1
3 1 55 2
3 4 0 2
3 3 0 119
3 3 95 1
3 52 55 1
3 55 57 2
3 0 4 118
3 4 2 5
3 0 118 119
3 3 119 96
3 95 3 97
3 95 53 1
3 55 52 61
3 53 52 1
3 57 55 79
3 2 57 5
3 4 117 118
3 6 4 5
3 118 109 119
3 119 108 96
3 3 96 97
3 95 97 98
3 95 50 53
3 61 52 62
3 79 55 61
3 50 52 53
3 74 57 79
3 57 59 5
3 4 6 117
3 117 110 118
3 6 5 7
3 118 110 109
3 119 109 108
3 96 108 107
3 96 107 97
3 97 106 98
3 94 95 98
3 95 94 50
3 62 52 63
3 61 62 79
3 49 52 50
3 59 57 74
3 79 62 74
3 5 59 7
3 6 116 117
3 117 111 110
3 8 6 7
3 20 109 110
3 22 108 109
3 85 107 108
3 97 107 106
3 98 106 105
3 94 98 99
3 94 47 50
3 52 49 63
3 63 64 62
3 47 49 50
3 76 59 74
3 74 62 75
3 59 60 7
3 6 8 116
3 117 116 111
3 18 110 111
3 8 7 9
3 20 22 109
3 18 20 110
3 22 24 108
3 85 86 107
3 24 85 108
3 86 106 107
3 87 105 106
3 98 105 99
3 93 94 99
3 94 93 47
3 63 49 64
3 62 64 75
3 46 49 47
3 60 59 76
3 74 75 76
3 7 60 9
3 8 115 116
3 116 112 111
3 16 18 111
3 10 8 9
3 22 20 21
3 20 18 19
3 24 22 23
3 86 85 33
3 85 24 33
3 86 87 106
3 87 88 105
3 99 105 104
3 93 99 100
3 93 44 47
3 49 46 64
3 64 65 75
3 44 46 47
3 75 60 76
3 9 60 58
3 8 10 115
3 116 115 114
3 116 113 112
3 16 111 112
3 18 16 17
3 10 9 11
3 20 19 21
3 22 21 23
3 18 17 19
3 24 23 25
3 86 33 29
3 24 25 33
3 87 86 29
3 88 87 27
3 88 104 105
3 99 104 100
3 92 93 100
3 93 92 44
3 64 46 65
3 65 67 75
3 43 46 44
3 58 60 75
3 9 58 11
3 10 114 115
3 116 114 113
3 14 112 113
3 14 16 112
3 16 15 17
3 12 10 11
3 21 19 45
3 23 21 40
3 17 48 19
3 25 23 37
3 29 33 30
3 33 25 34
3 87 29 27
3 88 27 32
3 88 89 104
3 100 104 103
3 92 100 101
3 92 42 44
3 46 43 65
3 66 67 65
3 75 67 80
3 43 44 42
3 78 58 75
3 11 58 56
3 10 12 114
3 12 113 114
3 12 14 113
3 16 14 15
3 15 51 17
3 12 11 13
3 19 48 45
3 21 45 40
3 23 40 37
3 17 51 48
3 34 25 37
3 30 33 34
3 28 29 30
3 27 29 28
3 26 32 27
3 89 88 32
3 89 103 104
3 100 103 102
3 100 102 101
3 91 92 101
3 92 91 42
3 65 43 66
3 66 41 67
3 67 69 80
3 75 80 77
3 41 43 42
3 56 58 78
3 75 77 78
3 11 56 13
3 14 12 13
3 14 13 15
3 15 54 51
3 45 48 83
3 40 45 82
3 37 40 82
3 48 51 81
3 34 37 73
3 30 34 73
3 28 30 72
3 26 27 28
3 31 32 26
3 89 32 36
3 89 90 103
3 90 102 103
3 91 101 102
3 91 39 42
3 43 41 66
3 41 38 67
3 68 69 67
3 80 69 81
3 80 54 77
3 41 42 38
3 77 56 78
3 13 56 54
3 13 54 15
3 51 54 80
3 83 48 81
3 82 45 83
3 84 37 82
3 81 51 80
3 73 37 84
3 72 30 73
3 71 28 72
3 26 28 71
3 31 36 32
3 31 26 70
3 90 89 36
3 90 91 102
3 91 90 39
3 38 42 39
3 67 38 68
3 68 35 69
3 81 69 82
3 54 56 77
3 81 82 83
3 82 72 84
3 84 72 73
3 72 70 71
3 70 26 71
3 35 36 31
3 69 31 70
3 90 36 39
3 38 39 35
3 38 35 68
3 35 31 69
3 82 69 72
3 69 70 72
3 35 39 36
3 0 1 2
