ply
format ascii 1.0
comment made by tesseract
element vertex 69
property float x
property float y
property float z
element face 134
property list uchar int vertex_indices
end_header
1.4909217 -0.0750000 2.0387106
1.4899696 -0.0750000 2.0392933
1.4908078 -0.0754071 2.0395331
1.4891950 -0.0750000 2.0400970
1.4951633 -0.0750000 2.0463865
1.4960065 -0.0750000 2.0456548
1.4954020 -0.0756120 2.0447893
1.4966383 -0.0750000 2.0447347
1.4913332 -0.0767152 2.0420511
1.4908358 -0.0764557 2.0421386
1.4915367 -0.0769067 2.0424170
1.4911367 -0.0764776 2.0416081
1.4909292 -0.0761198 2.0409327
1.4908187 -0.0757590 2.0402329
1.4903370 -0.0757278 2.0406106
1.4907620 -0.0764557 2.0429673
1.4918292 -0.0771011 2.0428431
1.4886473 -0.0750000 2.0410697
1.4896789 -0.0757278 2.0417798
1.4883622 -0.0750000 2.0421491
1.4910358 -0.0764557 2.0437531
1.4920992 -0.0771835 2.0431669
1.4883578 -0.0750000 2.0432653
1.4895598 -0.0757278 2.0431163
1.4886343 -0.0750000 2.0443468
1.4916085 -0.0764557 2.0443568
1.4923475 -0.0771676 2.0434217
1.4891744 -0.0750000 2.0453238
1.4900013 -0.0757278 2.0443835
1.4925598 -0.0771008 2.0436130
1.4923790 -0.0764557 2.0446713
1.4928187 -0.0769837 2.0438190
1.4899427 -0.0750000 2.0461335
1.4909250 -0.0757278 2.0453568
1.4908901 -0.0750000 2.0467238
1.4935323 -0.0766005 2.0442612
1.4932104 -0.0764557 2.0446410
1.4939525 -0.0763705 2.0444512
1.4931396 -0.0768156 2.0440385
1.4919556 -0.0750000 2.0470567
1.4921672 -0.0757278 2.0458641
1.4930706 -0.0750000 2.0471108
1.4935082 -0.0757278 2.0458152
1.4944550 -0.0761011 2.0446208
1.4941633 -0.0750000 2.0468824
1.4947103 -0.0757278 2.0452189
1.4909217 -0.0710000 2.0387106
1.4899696 -0.0710000 2.0392933
1.4891950 -0.0710000 2.0400970
1.4886473 -0.0710000 2.0410697
1.4883622 -0.0710000 2.0421491
1.4883578 -0.0710000 2.0432653
1.4886343 -0.0710000 2.0443468
1.4891744 -0.0710000 2.0453238
1.4899427 -0.0710000 2.0461335
1.4908901 -0.0710000 2.0467238
1.4919556 -0.0710000 2.0470567
1.4930706 -0.0710000 2.0471108
1.4941633 -0.0710000 2.0468824
1.4951633 -0.0710000 2.0463865
1.4960065 -0.0710000 2.0456548
1.4966383 -0.0710000 2.0447347
1.4954177 -0.0710000 2.0447907
1.4942200 -0.0710000 2.0445490
1.4931166 -0.0710000 2.0440240
1.4921736 -0.0710000 2.0432470
1.4914470 -0.0710000 2.0422647
1.4909806 -0.0710000 2.0411353
1.4908019 -0.0710000 2.0399265
3 0 47 1
3 1 3 2
3 0 2 46
3 46 47 0
3 47 48 1
3 1 48 3
3 3 14 2
3 2 68 46
3 68 47 46
3 48 47 68
3 48 49 3
3 3 18 14
3 2 14 13
3 2 13 68
3 67 48 68
3 49 48 67
3 3 49 17
3 17 18 3
3 14 18 12
3 13 14 12
3 13 67 68
3 50 49 67
3 49 50 17
3 19 18 17
3 12 18 9
3 13 12 67
3 66 50 67
3 17 50 19
3 19 23 18
3 18 23 9
3 12 9 11
3 12 11 67
3 51 50 66
3 11 66 67
3 50 51 19
3 22 23 19
3 9 23 15
3 11 9 8
3 52 51 66
3 11 8 66
3 19 51 22
3 24 23 22
3 23 28 15
3 9 15 10
3 8 9 10
3 51 52 22
3 65 52 66
3 8 10 66
3 24 28 23
3 22 52 24
3 15 28 20
3 10 15 16
3 53 52 65
3 16 65 66
3 10 16 66
3 27 28 24
3 52 53 24
3 28 33 20
3 15 20 16
3 54 53 65
3 16 21 65
3 27 33 28
3 24 53 27
3 20 33 25
3 16 20 21
3 53 54 27
3 54 65 55
3 21 26 65
3 32 33 27
3 33 40 25
3 20 25 21
3 27 54 32
3 55 65 64
3 54 55 32
3 21 25 26
3 26 29 65
3 34 33 32
3 34 40 33
3 25 40 30
3 31 64 65
3 55 64 56
3 32 55 34
3 25 30 26
3 26 30 29
3 29 31 65
3 39 40 34
3 40 42 30
3 31 38 64
3 56 64 57
3 55 56 34
3 29 30 31
3 41 40 39
3 34 56 39
3 41 42 40
3 30 42 36
3 31 36 38
3 38 35 64
3 57 64 63
3 56 57 39
3 30 36 31
3 39 57 41
3 44 42 41
3 36 42 37
3 38 36 35
3 35 37 64
3 37 63 64
3 57 63 58
3 57 58 41
3 44 45 42
3 41 58 44
3 37 42 43
3 35 36 37
3 37 43 63
3 58 63 59
3 4 45 44
3 42 45 43
3 58 59 44
3 43 6 63
3 59 63 62
3 6 45 4
3 44 59 4
3 43 45 6
3 6 62 63
3 59 62 60
3 4 5 6
3 59 60 4
3 6 7 62
3 60 62 61
3 4 60 5
3 5 7 6
3 7 61 62
3 60 61 7
3 5 60 7
3 0 1 2
