ply
format ascii 1.0
comment made by tesseract
element vertex 174
property float x
property float y
property float z
element face 348
property list uchar int vertex_indices
end_header
0.2918787 -0.2360000 1.4068787
0.2917373 -0.2360000 1.4067373
0.2924000 -0.2360000 1.4062288
0.2914019 -0.2360000 1.4075000
0.2912287 -0.2360000 1.4074000
0.2925000 -0.2360000 1.4064020
0.2931718 -0.2360000 1.4059091
0.2911022 -0.2360000 1.4082235
0.2909090 -0.2360000 1.4081718
0.2932235 -0.2360000 1.4061022
0.2908000 -0.2360000 1.4090000
0.2940000 -0.2360000 1.4058001
0.2910000 -0.2360000 1.4090000
0.2940000 -0.2360000 1.4060000
0.2909090 -0.2360000 1.4098283
0.2948282 -0.2360000 1.4059091
0.2911022 -0.2360000 1.4097764
0.2947765 -0.2360000 1.4061022
0.2912287 -0.2360000 1.4105999
0.2956000 -0.2360000 1.4062288
0.2914019 -0.2360000 1.4105000
0.2955000 -0.2360000 1.4064020
0.2917373 -0.2360000 1.4112628
0.2918787 -0.2360000 1.4111214
0.2962628 -0.2360000 1.4067373
0.2961213 -0.2360000 1.4068787
0.2924000 -0.2360000 1.4117713
0.2925000 -0.2360000 1.4115980
0.2967713 -0.2360000 1.4074000
0.2965981 -0.2360000 1.4075000
0.2931718 -0.2360000 1.4120909
0.2932235 -0.2360000 1.4118978
0.2970910 -0.2360000 1.4081718
0.2968978 -0.2360000 1.4082235
0.2970000 -0.2360000 1.4090000
0.2972000 -0.2360000 1.4090000
0.2940000 -0.2360000 1.4122000
0.2940000 -0.2360000 1.4119999
0.2968978 -0.2360000 1.4097764
0.2970910 -0.2360000 1.4098283
0.2948282 -0.2360000 1.4120909
0.2947765 -0.2360000 1.4118978
0.2965981 -0.2360000 1.4105000
0.2967713 -0.2360000 1.4105999
0.2961213 -0.2360000 1.4111214
0.2956000 -0.2360000 1.4117713
0.2955000 -0.2360000 1.4115980
0.2962628 -0.2360000 1.4112628
0.2908000 -0.2372000 1.4090000
0.2909090 -0.2372000 1.4098283
0.2912287 -0.2372000 1.4105999
0.2917373 -0.2372000 1.4112628
0.2924000 -0.2372000 1.4117713
0.2931718 -0.2372000 1.4120909
0.2940000 -0.2372000 1.4122000
0.2948282 -0.2372000 1.4120909
0.2956000 -0.2372000 1.4117713
0.2962628 -0.2372000 1.4112628
0.2967713 -0.2372000 1.4105999
0.2970910 -0.2372000 1.4098283
0.2972000 -0.2372000 1.4090000
0.2970910 -0.2372000 1.4081718
0.2967713 -0.2372000 1.4074000
0.2962628 -0.2372000 1.4067373
0.2956000 -0.2372000 1.4062288
0.2948282 -0.2372000 1.4059091
0.2940000 -0.2372000 1.4058001
0.2931718 -0.2372000 1.4059091
0.2924000 -0.2372000 1.4062288
0.2917373 -0.2372000 1.4067373
0.2912287 -0.2372000 1.4074000
0.2909090 -0.2372000 1.4081718
0.2918080 -0.2372000 1.4111921
0.2924500 -0.2372000 1.4116848
0.2913153 -0.2372000 1.4105500
0.2931977 -0.2372000 1.4119943
0.2910056 -0.2372000 1.4098023
0.2940000 -0.2372000 1.4121000
0.2909000 -0.2372000 1.4090000
0.2948023 -0.2372000 1.4119943
0.2910056 -0.2372000 1.4081976
0.2955500 -0.2372000 1.4116848
0.2913153 -0.2372000 1.4074500
0.2961920 -0.2372000 1.4111921
0.2918080 -0.2372000 1.4068080
0.2966847 -0.2372000 1.4105500
0.2924500 -0.2372000 1.4063153
0.2931977 -0.2372000 1.4060056
0.2969944 -0.2372000 1.4098023
0.2971000 -0.2372000 1.4090000
0.2940000 -0.2372000 1.4059000
0.2948023 -0.2372000 1.4060056
0.2969944 -0.2372000 1.4081976
0.2966847 -0.2372000 1.4074500
0.2955500 -0.2372000 1.4063153
0.2961920 -0.2372000 1.4068080
0.2970034 -0.2371259 1.4090000
0.2968978 -0.2371000 1.4082235
0.2970000 -0.2371000 1.4090000
0.2970741 -0.2371966 1.4090000
0.2911022 -0.2371000 1.4082235
0.2909966 -0.2371259 1.4090000
0.2910000 -0.2371000 1.4090000
0.2909259 -0.2371966 1.4090000
0.2970134 -0.2371500 1.4090000
0.2969107 -0.2371500 1.4082201
0.2970293 -0.2371707 1.4090000
0.2970500 -0.2371866 1.4090000
0.2969461 -0.2371866 1.4082105
0.2966097 -0.2371500 1.4074932
0.2965981 -0.2371000 1.4075000
0.2966414 -0.2371866 1.4074750
0.2961308 -0.2371500 1.4068693
0.2961213 -0.2371000 1.4068787
0.2961567 -0.2371866 1.4068434
0.2955067 -0.2371500 1.4063904
0.2955000 -0.2371000 1.4064020
0.2955250 -0.2371866 1.4063586
0.2947799 -0.2371500 1.4060892
0.2947765 -0.2371000 1.4061022
0.2947894 -0.2371866 1.4060539
0.2940000 -0.2371500 1.4059865
0.2940000 -0.2371000 1.4060000
0.2940000 -0.2371866 1.4059500
0.2932235 -0.2371000 1.4061022
0.2932201 -0.2371500 1.4060892
0.2925000 -0.2371000 1.4064020
0.2932106 -0.2371866 1.4060539
0.2924933 -0.2371500 1.4063904
0.2924750 -0.2371866 1.4063586
0.2918692 -0.2371500 1.4068693
0.2918787 -0.2371000 1.4068787
0.2918433 -0.2371866 1.4068434
0.2913903 -0.2371500 1.4074932
0.2914019 -0.2371000 1.4075000
0.2913586 -0.2371866 1.4074750
0.2910893 -0.2371500 1.4082201
0.2909866 -0.2371500 1.4090000
0.2909707 -0.2371707 1.4090000
0.2910539 -0.2371866 1.4082105
0.2909500 -0.2371866 1.4090000
0.2911022 -0.2371000 1.4097764
0.2968978 -0.2371000 1.4097764
0.2910893 -0.2371500 1.4097799
0.2910539 -0.2371866 1.4097894
0.2913903 -0.2371500 1.4105067
0.2914019 -0.2371000 1.4105000
0.2913586 -0.2371866 1.4105251
0.2918692 -0.2371500 1.4111308
0.2918787 -0.2371000 1.4111214
0.2918433 -0.2371866 1.4111567
0.2924933 -0.2371500 1.4116096
0.2925000 -0.2371000 1.4115980
0.2924750 -0.2371866 1.4116414
0.2932201 -0.2371500 1.4119108
0.2932235 -0.2371000 1.4118978
0.2940000 -0.2371000 1.4119999
0.2932106 -0.2371866 1.4119461
0.2940000 -0.2371500 1.4120134
0.2940000 -0.2371866 1.4120500
0.2947799 -0.2371500 1.4119108
0.2947765 -0.2371000 1.4118978
0.2947894 -0.2371866 1.4119461
0.2955067 -0.2371500 1.4116096
0.2955000 -0.2371000 1.4115980
0.2961213 -0.2371000 1.4111214
0.2955250 -0.2371866 1.4116414
0.2961308 -0.2371500 1.4111308
0.2961567 -0.2371866 1.4111567
0.2966097 -0.2371500 1.4105067
0.2965981 -0.2371000 1.4105000
0.2966414 -0.2371866 1.4105251
0.2969107 -0.2371500 1.4097799
0.2969461 -0.2371866 1.4097894
3 3 1 0
3 2 1 68
3 5 0 2
3 3 4 1
3 3 0 131
3 68 1 69
3 67 2 68
3 0 5 131
3 6 5 2
3 7 4 3
3 1 4 69
3 3 131 134
3 68 69 84
3 6 2 67
3 67 68 87
3 5 126 131
3 9 5 6
3 7 8 4
3 7 3 134
3 69 4 70
3 131 133 134
3 69 70 84
3 68 84 86
3 66 6 67
3 87 68 86
3 66 67 87
3 5 124 126
3 126 130 131
3 5 9 124
3 11 9 6
3 10 8 7
3 4 8 70
3 7 134 100
3 130 133 131
3 133 136 134
3 84 70 82
3 84 132 86
3 11 6 66
3 86 129 87
3 66 87 90
3 124 125 126
3 128 130 126
3 9 122 124
3 13 9 11
3 8 10 48
3 12 10 7
3 70 8 71
3 134 136 100
3 7 100 102
3 130 135 133
3 133 139 136
3 82 70 71
3 82 135 84
3 84 135 132
3 86 132 129
3 65 11 66
3 87 129 127
3 87 127 90
3 91 66 90
3 122 125 124
3 125 128 126
3 128 132 130
3 9 13 122
3 15 13 11
3 48 10 49
3 71 8 48
3 14 10 12
3 12 7 102
3 100 136 101
3 100 101 102
3 132 135 130
3 135 139 133
3 136 139 138
3 82 71 80
3 82 139 135
3 129 132 128
3 15 11 65
3 65 66 91
3 127 129 125
3 90 127 123
3 90 123 91
3 121 125 122
3 125 129 128
3 13 119 122
3 17 13 15
3 10 14 49
3 78 48 49
3 80 71 48
3 16 14 12
3 12 102 141
3 101 136 137
3 101 141 102
3 138 139 140
3 137 136 138
3 80 139 82
3 64 15 65
3 64 65 91
3 121 127 125
3 123 127 121
3 91 123 120
3 119 121 122
3 13 17 119
3 19 17 15
3 49 14 50
3 80 48 78
3 78 49 76
3 18 14 16
3 16 12 141
3 137 143 101
3 101 143 141
3 140 139 103
3 140 144 138
3 138 143 137
3 103 139 80
3 19 15 64
3 64 91 94
3 118 123 121
3 120 123 118
3 91 120 94
3 118 121 119
3 17 21 119
3 21 17 19
3 14 18 50
3 76 49 50
3 80 78 103
3 78 76 103
3 20 18 16
3 16 141 146
3 143 145 141
3 103 144 140
3 138 144 143
3 24 19 64
3 63 64 94
3 115 120 118
3 94 120 117
3 116 118 119
3 21 116 119
3 24 21 19
3 50 18 51
3 76 50 74
3 76 144 103
3 22 18 20
3 20 16 146
3 141 145 146
3 143 147 145
3 144 147 143
3 63 24 64
3 63 94 95
3 117 120 115
3 115 118 116
3 94 117 95
3 21 113 116
3 24 25 21
3 18 22 51
3 74 50 51
3 74 147 76
3 76 147 144
3 23 22 20
3 20 146 149
3 145 148 146
3 147 150 145
3 62 24 63
3 63 95 93
3 112 117 115
3 113 115 116
3 95 117 114
3 21 25 113
3 28 25 24
3 51 22 52
3 74 51 72
3 74 150 147
3 26 22 23
3 23 20 149
3 146 148 149
3 145 150 148
3 28 24 62
3 63 93 62
3 95 114 93
3 114 117 112
3 112 115 113
3 25 110 113
3 28 29 25
3 22 26 52
3 52 72 51
3 72 150 74
3 26 23 27
3 23 149 152
3 148 151 149
3 150 153 148
3 61 28 62
3 62 93 92
3 93 114 111
3 109 114 112
3 110 112 113
3 25 29 110
3 32 29 28
3 52 26 53
3 73 72 52
3 72 153 150
3 27 23 152
3 30 26 27
3 149 151 152
3 148 153 151
3 32 28 61
3 62 92 61
3 93 111 92
3 111 114 109
3 109 112 110
3 29 97 110
3 32 33 29
3 26 30 53
3 53 73 52
3 73 153 72
3 27 152 155
3 30 27 31
3 151 154 152
3 153 157 151
3 60 32 61
3 61 92 89
3 92 111 108
3 105 111 109
3 97 109 110
3 29 33 97
3 34 33 32
3 53 30 54
3 75 73 53
3 73 157 153
3 152 154 155
3 31 27 155
3 36 30 31
3 151 157 154
3 35 32 60
3 61 89 60
3 89 92 99
3 108 111 105
3 92 108 99
3 105 109 97
3 33 98 97
3 33 34 98
3 35 34 32
3 30 36 54
3 54 75 53
3 75 157 73
3 155 154 156
3 31 155 156
3 36 31 37
3 157 159 154
3 39 35 60
3 60 89 88
3 88 89 99
3 106 108 105
3 99 108 107
3 96 105 97
3 96 97 98
3 34 38 98
3 38 34 35
3 54 36 55
3 77 75 54
3 77 157 75
3 154 158 156
3 37 31 156
3 40 36 37
3 77 159 157
3 154 159 158
3 39 38 35
3 59 39 60
3 60 88 59
3 99 173 88
3 107 108 106
3 106 105 104
3 107 173 99
3 104 105 96
3 142 96 98
3 38 142 98
3 36 40 55
3 55 77 54
3 158 160 156
3 37 156 161
3 40 37 41
3 77 162 159
3 159 162 158
3 42 38 39
3 43 39 59
3 59 88 85
3 88 173 85
3 106 173 107
3 104 172 106
3 96 172 104
3 142 172 96
3 38 42 142
3 55 40 56
3 79 77 55
3 158 162 160
3 156 160 161
3 41 37 161
3 45 40 41
3 79 162 77
3 43 42 39
3 58 43 59
3 59 85 58
3 85 173 171
3 172 173 106
3 170 172 142
3 42 170 142
3 40 45 56
3 56 79 55
3 162 166 160
3 160 163 161
3 41 161 164
3 45 41 46
3 79 166 162
3 43 44 42
3 47 43 58
3 58 85 83
3 171 173 169
3 85 171 83
3 169 173 172
3 169 172 170
3 42 44 170
3 56 45 57
3 81 79 56
3 160 166 163
3 161 163 164
3 46 41 164
3 47 45 46
3 81 166 79
3 47 44 43
3 57 47 58
3 58 83 57
3 167 171 169
3 83 171 168
3 165 169 170
3 44 165 170
3 45 47 57
3 57 81 56
3 166 168 163
3 164 163 165
3 46 164 165
3 47 46 44
3 81 168 166
3 83 81 57
3 168 171 167
3 167 169 165
3 83 168 81
3 44 46 165
3 163 168 167
3 163 167 165
3 0 1 2
