ply
format ascii 1.0
comment made by tesseract
element vertex 69
property float x
property float y
property float z
element face 134
property list uchar int vertex_indices
end_header
1.6350780 -0.0750000 2.0971069
1.6352820 -0.0750000 2.0960095
1.6342425 -0.0756120 2.0961940
1.6352031 -0.0750000 2.0948961
1.6265355 -0.0750000 2.0951228
1.6265150 -0.0750000 2.0962391
1.6273024 -0.0754257 2.0966344
1.6267761 -0.0750000 2.0973241
1.6329788 -0.0763704 2.0954082
1.6325893 -0.0764547 2.0947483
1.6325474 -0.0766003 2.0952454
1.6321120 -0.0768156 2.0951252
1.6317285 -0.0769841 2.0950534
1.6340581 -0.0757274 2.0954008
1.6334540 -0.0761010 2.0956435
1.6320224 -0.0764547 2.0941384
1.6313961 -0.0771023 2.0950155
1.6348467 -0.0750000 2.0938382
1.6336296 -0.0757274 2.0941291
1.6342355 -0.0750000 2.0929041
1.6312547 -0.0764547 2.0938158
1.6311032 -0.0771695 2.0950010
1.6307415 -0.0771821 2.0950067
1.6334088 -0.0750000 2.0921538
1.6327156 -0.0757274 2.0931463
1.6324201 -0.0750000 2.0916357
1.6304221 -0.0764547 2.0938377
1.6303099 -0.0770919 2.0950480
1.6313326 -0.0750000 2.0913832
1.6314783 -0.0757274 2.0926263
1.6296724 -0.0764547 2.0941999
1.6297874 -0.0768868 2.0951493
1.6302168 -0.0750000 2.0914123
1.6301365 -0.0757274 2.0926614
1.6291442 -0.0750000 2.0917215
1.6291380 -0.0764547 2.0948389
1.6293763 -0.0766884 2.0952711
1.6289153 -0.0764437 2.0954554
1.6281838 -0.0750000 2.0922906
1.6289281 -0.0757274 2.0932453
1.6273975 -0.0750000 2.0930829
1.6268361 -0.0750000 2.0940478
1.6280669 -0.0757274 2.0942748
1.6283969 -0.0761462 2.0957313
1.6277055 -0.0757274 2.0955675
1.6278294 -0.0757919 2.0961337
1.6267761 -0.0710000 2.0973241
1.6275513 -0.0710000 2.0963798
1.6285323 -0.0710000 2.0956514
1.6296607 -0.0710000 2.0951827
1.6308692 -0.0710000 2.0950017
1.6320853 -0.0710000 2.0951192
1.6332366 -0.0710000 2.0955281
1.6342546 -0.0710000 2.0962043
1.6350780 -0.0710000 2.0971069
1.6352820 -0.0710000 2.0960095
1.6352031 -0.0710000 2.0948961
1.6348467 -0.0710000 2.0938382
1.6342355 -0.0710000 2.0929041
1.6334088 -0.0710000 2.0921538
1.6324201 -0.0710000 2.0916357
1.6265150 -0.0710000 2.0962391
1.6313326 -0.0710000 2.0913832
1.6265355 -0.0710000 2.0951228
1.6302168 -0.0710000 2.0914123
1.6268361 -0.0710000 2.0940478
1.6291442 -0.0710000 2.0917215
1.6273975 -0.0710000 2.0930829
1.6281838 -0.0710000 2.0922906
3 0 54 1
3 1 3 2
3 0 2 53
3 0 53 54
3 54 55 1
3 1 55 3
3 3 13 2
3 2 52 53
3 54 53 55
3 55 56 3
3 3 18 13
3 2 13 14
3 2 14 52
3 53 52 56
3 53 56 55
3 3 56 17
3 17 18 3
3 13 18 14
3 14 8 52
3 52 57 56
3 56 57 17
3 19 18 17
3 14 18 8
3 8 51 52
3 52 58 57
3 17 57 19
3 19 24 18
3 8 18 9
3 8 10 51
3 51 58 52
3 57 58 19
3 23 24 19
3 18 24 9
3 8 9 10
3 10 11 51
3 51 59 58
3 19 58 23
3 25 24 23
3 9 24 15
3 10 9 11
3 11 12 51
3 51 60 59
3 58 59 23
3 25 29 24
3 23 59 25
3 24 29 15
3 9 15 12
3 11 9 12
3 12 50 51
3 50 60 51
3 59 60 25
3 28 29 25
3 15 29 20
3 12 15 16
3 12 16 50
3 50 62 60
3 25 60 28
3 28 33 29
3 29 33 20
3 15 20 16
3 16 21 50
3 50 64 62
3 60 62 28
3 32 33 28
3 20 33 26
3 16 20 21
3 21 22 50
3 50 66 64
3 62 64 32
3 28 62 32
3 34 33 32
3 33 39 26
3 20 26 22
3 21 20 22
3 22 27 50
3 49 66 50
3 64 66 34
3 32 64 34
3 34 39 33
3 26 39 30
3 22 26 27
3 27 49 50
3 49 68 66
3 34 66 38
3 38 39 34
3 39 42 30
3 26 30 27
3 27 31 49
3 67 68 49
3 66 68 38
3 40 39 38
3 40 42 39
3 30 42 35
3 27 30 31
3 31 36 49
3 68 67 40
3 48 67 49
3 38 68 40
3 41 42 40
3 35 42 37
3 30 35 31
3 31 35 36
3 36 37 49
3 40 67 41
3 65 67 48
3 37 48 49
3 41 44 42
3 37 42 43
3 36 35 37
3 67 65 41
3 63 65 48
3 37 43 48
3 4 44 41
3 42 44 43
3 41 65 4
3 65 63 4
3 47 63 48
3 43 45 48
3 6 44 4
3 43 44 45
3 4 63 5
3 61 63 47
3 45 47 48
3 45 44 6
3 4 5 6
3 63 61 5
3 46 61 47
3 45 6 47
3 5 7 6
3 61 46 5
3 6 46 47
3 5 46 7
3 6 7 46
3 0 1 2
