ply
format ascii 1.0
comment made by tesseract
element vertex 120
property float x
property float y
property float z
element face 240
property list uchar int vertex_indices
end_header
0.2968978 -0.2262000 1.4292235
0.2970000 -0.2315000 1.4299999
0.2968978 -0.2315000 1.4292235
0.2970000 -0.2262000 1.4299999
0.2965981 -0.2262000 1.4285001
0.2965981 -0.2315000 1.4285001
0.2961213 -0.2262000 1.4278786
0.2961213 -0.2315000 1.4278786
0.2955000 -0.2315000 1.4274020
0.2955000 -0.2262000 1.4274020
0.2947765 -0.2315000 1.4271022
0.2947765 -0.2262000 1.4271022
0.2940000 -0.2315000 1.4270000
0.2940000 -0.2262000 1.4270000
0.2932235 -0.2262000 1.4271022
0.2932235 -0.2315000 1.4271022
0.2925000 -0.2315000 1.4274020
0.2925000 -0.2262000 1.4274020
0.2918787 -0.2262000 1.4278786
0.2918787 -0.2315000 1.4278786
0.2914019 -0.2315000 1.4285001
0.2914019 -0.2262000 1.4285001
0.2911022 -0.2262000 1.4292235
0.2911022 -0.2315000 1.4292235
0.2910000 -0.2262000 1.4299999
0.2910000 -0.2315000 1.4299999
0.2904645 -0.2315000 1.4264644
0.2915000 -0.2315000 1.4256699
0.2896699 -0.2315000 1.4275000
0.2927059 -0.2315000 1.4251704
0.2891704 -0.2315000 1.4287059
0.2940000 -0.2315000 1.4250000
0.2890000 -0.2315000 1.4299999
0.2891704 -0.2315000 1.4312941
0.2952941 -0.2315000 1.4251704
0.2911022 -0.2315000 1.4307765
0.2896699 -0.2315000 1.4325000
0.2965000 -0.2315000 1.4256699
0.2914019 -0.2315000 1.4315000
0.2904645 -0.2315000 1.4335356
0.2975355 -0.2315000 1.4264644
0.2918787 -0.2315000 1.4321214
0.2915000 -0.2315000 1.4343301
0.2925000 -0.2315000 1.4325980
0.2983301 -0.2315000 1.4275000
0.2927059 -0.2315000 1.4348296
0.2932235 -0.2315000 1.4328978
0.2988296 -0.2315000 1.4287059
0.2940000 -0.2315000 1.4349999
0.2940000 -0.2315000 1.4330000
0.2990000 -0.2315000 1.4299999
0.2952941 -0.2315000 1.4348296
0.2947765 -0.2315000 1.4328978
0.2988296 -0.2315000 1.4312941
0.2965981 -0.2315000 1.4315000
0.2968978 -0.2315000 1.4307765
0.2965000 -0.2315000 1.4343301
0.2955000 -0.2315000 1.4325980
0.2983301 -0.2315000 1.4325000
0.2961213 -0.2315000 1.4321214
0.2975355 -0.2315000 1.4335356
0.2940000 -0.2255926 1.4250000
0.2927059 -0.2255926 1.4251704
0.2915000 -0.2255926 1.4256699
0.2904645 -0.2255926 1.4264644
0.2896699 -0.2255926 1.4275000
0.2891704 -0.2255926 1.4287059
0.2890000 -0.2255926 1.4299999
0.2891704 -0.2255926 1.4312941
0.2896699 -0.2255926 1.4325000
0.2904645 -0.2255926 1.4335356
0.2915000 -0.2255926 1.4343301
0.2927059 -0.2255926 1.4348296
0.2940000 -0.2255926 1.4349999
0.2975355 -0.2255926 1.4335356
0.2956918 -0.2255926 1.4316918
0.2983301 -0.2255926 1.4325000
0.2965000 -0.2255926 1.4343301
0.2951963 -0.2255926 1.4320720
0.2960721 -0.2255926 1.4311963
0.2988296 -0.2255926 1.4312941
0.2952941 -0.2255926 1.4348296
0.2946193 -0.2255926 1.4323111
0.2963111 -0.2255926 1.4306192
0.2963926 -0.2255926 1.4299999
0.2990000 -0.2255926 1.4299999
0.2940000 -0.2255926 1.4323926
0.2963111 -0.2255926 1.4293808
0.2988296 -0.2255926 1.4287059
0.2933807 -0.2255926 1.4323111
0.2960721 -0.2255926 1.4288037
0.2983301 -0.2255926 1.4275000
0.2928037 -0.2255926 1.4320720
0.2956918 -0.2255926 1.4283082
0.2923082 -0.2255926 1.4316918
0.2975355 -0.2255926 1.4264644
0.2919279 -0.2255926 1.4311963
0.2951963 -0.2255926 1.4279280
0.2916889 -0.2255926 1.4306192
0.2946193 -0.2255926 1.4276890
0.2965000 -0.2255926 1.4256699
0.2916074 -0.2255926 1.4299999
0.2952941 -0.2255926 1.4251704
0.2940000 -0.2255926 1.4276074
0.2933807 -0.2255926 1.4276890
0.2928037 -0.2255926 1.4279280
0.2916889 -0.2255926 1.4293808
0.2923082 -0.2255926 1.4283082
0.2919279 -0.2255926 1.4288037
0.2968978 -0.2262000 1.4307765
0.2965981 -0.2262000 1.4315000
0.2961213 -0.2262000 1.4321214
0.2955000 -0.2262000 1.4325980
0.2947765 -0.2262000 1.4328978
0.2940000 -0.2262000 1.4330000
0.2932235 -0.2262000 1.4328978
0.2925000 -0.2262000 1.4325980
0.2918787 -0.2262000 1.4321214
0.2914019 -0.2262000 1.4315000
0.2911022 -0.2262000 1.4307765
3 0 3 1
3 1 50 2
3 4 0 2
3 3 0 87
3 3 55 1
3 1 53 50
3 2 50 47
3 0 4 90
3 4 2 5
3 0 90 87
3 3 87 84
3 3 109 55
3 55 53 1
3 53 80 50
3 50 85 47
3 2 47 5
3 4 93 90
3 6 4 5
3 87 90 88
3 84 87 85
3 109 3 84
3 109 54 55
3 54 53 55
3 76 80 53
3 80 85 50
3 85 88 47
3 5 47 44
3 4 6 93
3 90 93 91
3 6 5 7
3 88 90 91
3 85 87 88
3 80 84 85
3 109 84 83
3 109 110 54
3 54 58 53
3 76 79 80
3 58 76 53
3 47 88 44
3 5 44 7
3 6 97 93
3 93 95 91
3 6 7 8
3 88 91 44
3 83 84 80
3 110 109 83
3 110 59 54
3 59 58 54
3 75 79 76
3 79 83 80
3 74 76 58
3 7 44 40
3 6 9 97
3 93 97 95
3 91 95 40
3 8 7 40
3 9 6 8
3 44 91 40
3 110 83 79
3 110 111 59
3 59 60 58
3 111 79 75
3 74 75 76
3 60 74 58
3 9 99 97
3 97 100 95
3 40 95 37
3 8 40 37
3 9 8 10
3 111 110 79
3 111 57 59
3 57 60 59
3 112 111 75
3 74 78 75
3 77 74 60
3 9 11 99
3 99 100 97
3 95 100 37
3 10 8 37
3 11 9 10
3 111 112 57
3 56 60 57
3 112 75 78
3 77 78 74
3 56 77 60
3 11 103 99
3 99 102 100
3 37 100 34
3 10 37 34
3 11 10 12
3 112 52 57
3 52 56 57
3 113 112 78
3 77 82 78
3 81 77 56
3 11 13 103
3 103 102 99
3 100 102 34
3 12 10 34
3 13 11 12
3 112 113 52
3 51 56 52
3 113 78 82
3 81 82 77
3 51 81 56
3 13 104 103
3 103 61 102
3 102 61 34
3 31 12 34
3 14 13 12
3 113 49 52
3 49 51 52
3 114 113 82
3 81 86 82
3 73 81 51
3 13 14 104
3 104 61 103
3 34 61 31
3 15 12 31
3 14 12 15
3 113 114 49
3 48 51 49
3 114 82 86
3 73 86 81
3 48 73 51
3 14 105 104
3 104 62 61
3 61 62 31
3 29 15 31
3 14 15 16
3 114 46 49
3 46 48 49
3 115 114 86
3 73 89 86
3 72 73 48
3 14 17 105
3 105 62 104
3 31 62 29
3 16 15 29
3 17 14 16
3 114 115 46
3 45 48 46
3 115 86 89
3 72 89 73
3 45 72 48
3 17 107 105
3 105 63 62
3 62 63 29
3 27 16 29
3 18 17 16
3 115 43 46
3 43 45 46
3 116 115 89
3 72 92 89
3 42 72 45
3 17 18 107
3 107 63 105
3 29 63 27
3 19 16 27
3 18 16 19
3 115 116 43
3 42 45 43
3 116 89 92
3 71 92 72
3 71 72 42
3 18 108 107
3 107 64 63
3 27 63 26
3 26 19 27
3 18 19 20
3 116 41 43
3 41 42 43
3 117 116 92
3 71 94 92
3 39 71 42
3 18 21 108
3 108 64 107
3 63 64 26
3 26 20 19
3 21 18 20
3 116 117 41
3 39 42 41
3 117 92 94
3 71 70 94
3 70 71 39
3 21 106 108
3 65 64 108
3 64 65 26
3 28 20 26
3 22 21 20
3 117 38 41
3 39 41 38
3 118 117 94
3 70 96 94
3 36 70 39
3 21 22 106
3 106 65 108
3 26 65 28
3 28 23 20
3 22 20 23
3 117 118 38
3 36 39 38
3 118 94 96
3 70 69 96
3 69 70 36
3 22 101 106
3 66 65 106
3 65 66 28
3 30 23 28
3 24 22 23
3 118 35 38
3 36 38 35
3 119 118 96
3 96 69 98
3 33 69 36
3 22 24 101
3 101 66 106
3 28 66 30
3 30 25 23
3 24 23 25
3 118 119 35
3 33 36 35
3 119 96 98
3 69 68 98
3 68 69 33
3 24 119 101
3 67 66 101
3 66 67 30
3 32 25 30
3 119 24 25
3 119 25 35
3 33 35 25
3 119 98 101
3 98 68 101
3 32 68 33
3 68 67 101
3 30 67 32
3 33 25 32
3 67 68 32
3 0 1 2
