ply
format ascii 1.0
comment made by tesseract
element vertex 69
property float x
property float y
property float z
element face 134
property list uchar int vertex_indices
end_header
1.5092946 -0.0750000 2.0348477
1.5092946 -0.0710000 2.0348477
1.5080891 -0.0710000 2.0346489
1.5080737 -0.0756122 2.0346441
1.5069679 -0.0710000 2.0341632
1.5071819 -0.0761016 2.0342822
1.5067252 -0.0763713 2.0340114
1.5059977 -0.0710000 2.0334203
1.5063533 -0.0766016 2.0337377
1.5060153 -0.0768169 2.0334375
1.5057467 -0.0769851 2.0331552
1.5052369 -0.0710000 2.0324645
1.5055356 -0.0771022 2.0328989
1.5053685 -0.0771682 2.0326681
1.5051796 -0.0771834 2.0323689
1.5049837 -0.0771010 2.0319974
1.5047305 -0.0710000 2.0313525
1.5047857 -0.0769057 2.0315180
1.5046626 -0.0767135 2.0311165
1.5045626 -0.0764753 2.0306411
1.5045089 -0.0710000 2.0301507
1.5045007 -0.0761169 2.0299363
1.5045390 -0.0757560 2.0292284
1.5045855 -0.0710000 2.0289314
1.5046742 -0.0754049 2.0285435
1.5049555 -0.0710000 2.0277669
1.5049555 -0.0750000 2.0277669
1.5075085 -0.0710000 2.0361569
1.5084853 -0.0710000 2.0356164
1.5053109 -0.0710000 2.0364301
1.5064273 -0.0710000 2.0364342
1.5042316 -0.0710000 2.0361454
1.5032586 -0.0710000 2.0355983
1.5024546 -0.0710000 2.0348239
1.5018713 -0.0710000 2.0338721
1.5015464 -0.0710000 2.0328043
1.5015006 -0.0710000 2.0316889
1.5017369 -0.0710000 2.0305979
1.5039030 -0.0710000 2.0281389
1.5022403 -0.0710000 2.0296016
1.5029782 -0.0710000 2.0287640
1.5039030 -0.0750000 2.0281389
1.5029782 -0.0750000 2.0287640
1.5022403 -0.0750000 2.0296016
1.5017369 -0.0750000 2.0305979
1.5015006 -0.0750000 2.0316889
1.5015464 -0.0750000 2.0328043
1.5018713 -0.0750000 2.0338721
1.5024546 -0.0750000 2.0348239
1.5032586 -0.0750000 2.0355983
1.5042316 -0.0750000 2.0361454
1.5053109 -0.0750000 2.0364301
1.5064273 -0.0750000 2.0364342
1.5075085 -0.0750000 2.0361569
1.5084853 -0.0750000 2.0356164
1.5041586 -0.0764556 2.0311019
1.5039885 -0.0757278 2.0295036
1.5039141 -0.0764556 2.0318975
1.5031016 -0.0757278 2.0305104
1.5040185 -0.0764556 2.0327229
1.5027072 -0.0757278 2.0317931
1.5044533 -0.0764556 2.0334325
1.5028757 -0.0757278 2.0331244
1.5051415 -0.0764556 2.0339005
1.5035768 -0.0757278 2.0342686
1.5059612 -0.0764556 2.0340438
1.5046865 -0.0757278 2.0350230
1.5060083 -0.0757278 2.0352540
1.5073082 -0.0757278 2.0349207
3 28 1 0
3 28 2 1
3 3 0 2
3 54 28 0
3 27 2 28
3 54 0 3
3 3 2 4
3 27 28 54
3 27 4 2
3 53 54 3
3 5 3 4
3 53 27 54
3 30 4 27
3 3 68 53
3 5 68 3
3 6 5 4
3 52 27 53
3 29 4 30
3 30 27 52
3 53 68 52
3 67 68 5
3 6 67 5
3 6 4 7
3 29 7 4
3 29 30 51
3 51 30 52
3 52 68 67
3 65 67 6
3 8 6 7
3 31 7 29
3 50 29 51
3 52 67 51
3 66 67 65
3 8 65 6
3 9 8 7
3 31 32 7
3 31 29 50
3 51 66 50
3 51 67 66
3 63 66 65
3 9 65 8
3 10 9 7
3 32 31 49
3 32 11 7
3 49 31 50
3 50 66 49
3 61 66 63
3 63 65 10
3 10 65 9
3 10 7 11
3 48 32 49
3 32 33 11
3 49 66 64
3 64 66 61
3 61 63 13
3 12 63 10
3 12 10 11
3 33 32 48
3 49 64 48
3 33 34 11
3 62 64 61
3 13 63 12
3 14 61 13
3 13 12 11
3 47 33 48
3 48 64 47
3 34 33 47
3 34 35 11
3 47 64 62
3 59 62 61
3 59 61 14
3 14 13 11
3 46 34 47
3 35 34 46
3 11 35 16
3 47 62 46
3 57 62 59
3 15 59 14
3 15 14 11
3 45 35 46
3 35 36 16
3 15 11 16
3 46 62 60
3 60 62 57
3 57 59 15
3 36 35 45
3 46 60 45
3 36 37 16
3 17 15 16
3 55 60 57
3 17 57 15
3 44 36 45
3 45 60 44
3 37 36 44
3 16 37 20
3 18 17 16
3 58 60 55
3 55 57 17
3 44 60 58
3 43 37 44
3 37 39 20
3 19 16 20
3 18 55 17
3 19 18 16
3 21 58 55
3 44 58 43
3 39 37 43
3 39 40 20
3 21 19 20
3 19 55 18
3 56 58 21
3 21 55 19
3 43 58 42
3 42 39 43
3 40 39 42
3 20 40 23
3 22 21 20
3 42 58 56
3 22 56 21
3 41 40 42
3 23 40 38
3 22 20 23
3 42 56 24
3 24 56 22
3 38 40 41
3 41 42 24
3 23 38 25
3 24 22 23
3 26 38 41
3 26 41 24
3 25 38 26
3 24 23 25
3 26 24 25
3 0 1 2
