ply
format ascii 1.0
comment made by tesseract
element vertex 120
property float x
property float y
property float z
element face 240
property list uchar int vertex_indices
end_header
0.3588978 -0.2262000 0.9792235
0.3590000 -0.2315000 0.9800000
0.3588978 -0.2315000 0.9792235
0.3590000 -0.2262000 0.9800000
0.3585981 -0.2262000 0.9785000
0.3585981 -0.2315000 0.9785000
0.3581213 -0.2262000 0.9778787
0.3581213 -0.2315000 0.9778787
0.3575000 -0.2315000 0.9774019
0.3575000 -0.2262000 0.9774019
0.3567764 -0.2315000 0.9771022
0.3567764 -0.2262000 0.9771022
0.3560000 -0.2315000 0.9770000
0.3560000 -0.2262000 0.9770000
0.3552235 -0.2262000 0.9771022
0.3552235 -0.2315000 0.9771022
0.3545000 -0.2315000 0.9774019
0.3545000 -0.2262000 0.9774019
0.3538787 -0.2262000 0.9778787
0.3538787 -0.2315000 0.9778787
0.3534019 -0.2315000 0.9785000
0.3534019 -0.2262000 0.9785000
0.3531022 -0.2262000 0.9792235
0.3531022 -0.2315000 0.9792235
0.3530000 -0.2315000 0.9800000
0.3530000 -0.2262000 0.9800000
0.3595355 -0.2315000 0.9835355
0.3581213 -0.2315000 0.9821213
0.3585000 -0.2315000 0.9843301
0.3603301 -0.2315000 0.9825000
0.3585981 -0.2315000 0.9815000
0.3575000 -0.2315000 0.9825981
0.3572941 -0.2315000 0.9848297
0.3608296 -0.2315000 0.9812941
0.3588978 -0.2315000 0.9807764
0.3567764 -0.2315000 0.9828978
0.3560000 -0.2315000 0.9850000
0.3610000 -0.2315000 0.9800000
0.3560000 -0.2315000 0.9830000
0.3547059 -0.2315000 0.9848297
0.3608296 -0.2315000 0.9787059
0.3552235 -0.2315000 0.9828978
0.3535000 -0.2315000 0.9843301
0.3603301 -0.2315000 0.9775000
0.3545000 -0.2315000 0.9825981
0.3595355 -0.2315000 0.9764645
0.3538787 -0.2315000 0.9821213
0.3524645 -0.2315000 0.9835355
0.3585000 -0.2315000 0.9756699
0.3534019 -0.2315000 0.9815000
0.3516698 -0.2315000 0.9825000
0.3572941 -0.2315000 0.9751704
0.3511704 -0.2315000 0.9812941
0.3531022 -0.2315000 0.9807764
0.3560000 -0.2315000 0.9750000
0.3510000 -0.2315000 0.9800000
0.3547059 -0.2315000 0.9751704
0.3511704 -0.2315000 0.9787059
0.3535000 -0.2315000 0.9756699
0.3516698 -0.2315000 0.9775000
0.3524645 -0.2315000 0.9764645
0.3560000 -0.2255926 0.9750000
0.3547059 -0.2255926 0.9751704
0.3535000 -0.2255926 0.9756699
0.3524645 -0.2255926 0.9764645
0.3516698 -0.2255926 0.9775000
0.3511704 -0.2255926 0.9787059
0.3510000 -0.2255926 0.9800000
0.3511704 -0.2255926 0.9812941
0.3516698 -0.2255926 0.9825000
0.3524645 -0.2255926 0.9835355
0.3535000 -0.2255926 0.9843301
0.3547059 -0.2255926 0.9848297
0.3560000 -0.2255926 0.9850000
0.3595355 -0.2255926 0.9835355
0.3576918 -0.2255926 0.9816918
0.3603301 -0.2255926 0.9825000
0.3585000 -0.2255926 0.9843301
0.3571963 -0.2255926 0.9820721
0.3580720 -0.2255926 0.9811963
0.3583111 -0.2255926 0.9806193
0.3608296 -0.2255926 0.9812941
0.3572941 -0.2255926 0.9848297
0.3566193 -0.2255926 0.9823111
0.3560000 -0.2255926 0.9823925
0.3583926 -0.2255926 0.9800000
0.3610000 -0.2255926 0.9800000
0.3608296 -0.2255926 0.9787059
0.3553807 -0.2255926 0.9823111
0.3583111 -0.2255926 0.9793807
0.3548037 -0.2255926 0.9820721
0.3580720 -0.2255926 0.9788037
0.3603301 -0.2255926 0.9775000
0.3543082 -0.2255926 0.9816918
0.3595355 -0.2255926 0.9764645
0.3576918 -0.2255926 0.9783081
0.3539279 -0.2255926 0.9811963
0.3571963 -0.2255926 0.9779279
0.3585000 -0.2255926 0.9756699
0.3572941 -0.2255926 0.9751704
0.3566193 -0.2255926 0.9776889
0.3536889 -0.2255926 0.9806193
0.3536074 -0.2255926 0.9800000
0.3560000 -0.2255926 0.9776074
0.3536889 -0.2255926 0.9793807
0.3553807 -0.2255926 0.9776889
0.3539279 -0.2255926 0.9788037
0.3543082 -0.2255926 0.9783081
0.3548037 -0.2255926 0.9779279
0.3588978 -0.2262000 0.9807764
0.3585981 -0.2262000 0.9815000
0.3581213 -0.2262000 0.9821213
0.3575000 -0.2262000 0.9825981
0.3567764 -0.2262000 0.9828978
0.3560000 -0.2262000 0.9830000
0.3552235 -0.2262000 0.9828978
0.3545000 -0.2262000 0.9825981
0.3538787 -0.2262000 0.9821213
0.3534019 -0.2262000 0.9815000
0.3531022 -0.2262000 0.9807764
3 0 3 1
3 37 2 1
3 4 0 2
3 3 0 85
3 3 34 1
3 40 2 37
3 37 1 33
3 0 4 89
3 4 2 5
3 0 89 85
3 109 3 85
3 3 109 34
3 33 1 34
3 40 5 2
3 37 87 40
3 33 81 37
3 4 91 89
3 6 4 5
3 85 89 87
3 109 85 80
3 109 30 34
3 33 34 29
3 43 5 40
3 86 87 37
3 87 92 40
3 29 81 33
3 81 86 37
3 4 6 91
3 89 91 87
3 6 5 7
3 86 85 87
3 80 85 81
3 110 109 80
3 109 110 30
3 29 34 30
3 43 7 5
3 40 92 43
3 87 91 92
3 76 81 29
3 81 85 86
3 6 95 91
3 6 7 8
3 76 80 81
3 110 80 79
3 110 27 30
3 29 30 26
3 43 45 7
3 43 92 45
3 91 94 92
3 26 76 29
3 6 97 95
3 91 95 94
3 45 8 7
3 9 6 8
3 79 80 76
3 111 110 79
3 110 111 27
3 26 30 27
3 92 94 45
3 74 76 26
3 6 9 97
3 97 98 95
3 95 98 94
3 45 48 8
3 9 8 10
3 75 79 76
3 111 79 75
3 111 31 27
3 26 27 28
3 94 98 45
3 74 75 76
3 77 74 26
3 9 100 97
3 97 99 98
3 45 98 48
3 48 10 8
3 11 9 10
3 112 111 75
3 111 112 31
3 27 31 28
3 28 77 26
3 74 78 75
3 77 78 74
3 9 11 100
3 100 99 97
3 98 99 48
3 48 51 10
3 11 10 12
3 112 75 78
3 112 35 31
3 28 31 32
3 32 77 28
3 77 83 78
3 11 103 100
3 100 61 99
3 48 99 51
3 10 51 12
3 13 11 12
3 113 112 78
3 112 113 35
3 31 35 32
3 82 77 32
3 82 83 77
3 113 78 83
3 11 13 103
3 103 61 100
3 99 61 54
3 51 99 54
3 51 54 12
3 14 13 12
3 113 38 35
3 32 35 36
3 36 82 32
3 82 84 83
3 114 113 83
3 13 105 103
3 103 62 61
3 61 62 54
3 12 54 15
3 13 14 105
3 14 12 15
3 113 114 38
3 35 38 36
3 73 82 36
3 73 84 82
3 114 83 84
3 105 62 103
3 54 62 56
3 54 56 15
3 14 108 105
3 14 15 16
3 114 41 38
3 36 38 39
3 72 73 36
3 73 88 84
3 115 114 84
3 105 63 62
3 62 63 56
3 15 56 16
3 14 17 108
3 108 63 105
3 17 14 16
3 114 115 41
3 38 41 39
3 39 72 36
3 72 88 73
3 115 84 88
3 56 63 58
3 56 58 16
3 17 107 108
3 108 64 63
3 18 17 16
3 115 44 41
3 41 42 39
3 42 72 39
3 72 90 88
3 116 115 88
3 58 63 60
3 16 58 19
3 17 18 107
3 107 64 108
3 63 64 60
3 18 16 19
3 115 116 44
3 41 44 42
3 71 72 42
3 71 90 72
3 116 88 90
3 58 60 19
3 18 106 107
3 65 64 107
3 64 65 60
3 18 19 20
3 116 46 44
3 44 47 42
3 47 71 42
3 71 93 90
3 116 90 93
3 19 60 20
3 18 21 106
3 106 65 107
3 60 65 59
3 21 18 20
3 116 117 46
3 46 47 44
3 70 71 47
3 71 70 93
3 117 116 93
3 20 60 59
3 21 104 106
3 104 65 106
3 65 66 59
3 22 21 20
3 117 49 46
3 46 50 47
3 50 70 47
3 70 96 93
3 118 117 93
3 20 59 23
3 21 22 104
3 66 65 104
3 59 66 57
3 22 20 23
3 117 118 49
3 49 50 46
3 69 70 50
3 70 69 96
3 118 93 96
3 23 59 57
3 22 102 104
3 67 66 104
3 66 67 57
3 22 23 24
3 118 53 49
3 49 52 50
3 52 69 50
3 69 68 96
3 119 118 96
3 23 57 24
3 22 25 102
3 102 67 104
3 57 67 55
3 25 22 24
3 118 119 53
3 53 52 49
3 68 69 52
3 96 68 101
3 119 96 101
3 24 57 55
3 25 119 102
3 68 67 102
3 67 68 55
3 25 24 53
3 119 25 53
3 53 55 52
3 55 68 52
3 101 68 102
3 119 101 102
3 24 55 53
3 0 1 2
