ply
format ascii 1.0
comment made by tesseract
element vertex 426
property float x
property float y
property float z
element face 520
property list uchar int vertex_indices
end_header
0.4027413 -0.1953000 0.3400255
0.4028268 -0.1953000 0.3400311
0.4028268 -0.1958500 0.3400311
0.4026556 -0.1953000 0.3400215
0.4025700 -0.1953000 0.3400191
0.4024844 -0.1953000 0.3400183
0.4023986 -0.1953000 0.3400192
0.4023130 -0.1953000 0.3400217
0.4022275 -0.1953000 0.3400258
0.4016538 -0.1958500 0.3400963
0.4021420 -0.1953000 0.3400316
0.4020566 -0.1953000 0.3400390
0.4019714 -0.1953000 0.3400480
0.4018864 -0.1953000 0.3400587
0.4018016 -0.1953000 0.3400710
0.4017170 -0.1953000 0.3400848
0.4016328 -0.1953000 0.3401003
0.4015488 -0.1953000 0.3401174
0.4014652 -0.1953000 0.3401361
0.4013819 -0.1953000 0.3401563
0.4012991 -0.1953000 0.3401781
0.4012167 -0.1953000 0.3402015
0.4011347 -0.1953000 0.3402265
0.4010532 -0.1953000 0.3402531
0.4005377 -0.1958500 0.3404627
0.4009723 -0.1953000 0.3402812
0.4008919 -0.1953000 0.3403108
0.4008121 -0.1953000 0.3403419
0.4007329 -0.1953000 0.3403746
0.4006543 -0.1953000 0.3404087
0.4005764 -0.1953000 0.3404444
0.4004992 -0.1953000 0.3404815
0.4004227 -0.1953000 0.3405201
0.4003470 -0.1953000 0.3405601
0.4002720 -0.1953000 0.3406016
0.4001978 -0.1953000 0.3406445
0.4001245 -0.1953000 0.3406888
0.4000520 -0.1953000 0.3407345
0.3995545 -0.1958500 0.3411056
0.3999804 -0.1953000 0.3407816
0.3999097 -0.1953000 0.3408300
0.3998399 -0.1953000 0.3408797
0.3997712 -0.1953000 0.3409308
0.3997033 -0.1953000 0.3409832
0.3996365 -0.1953000 0.3410368
0.3995708 -0.1953000 0.3410917
0.3995061 -0.1953000 0.3411479
0.3994424 -0.1953000 0.3412053
0.3993799 -0.1953000 0.3412638
0.3993185 -0.1953000 0.3413236
0.3992583 -0.1953000 0.3413845
0.3991992 -0.1953000 0.3414466
0.3991413 -0.1953000 0.3415097
0.3987712 -0.1958500 0.3419811
0.3990846 -0.1953000 0.3415740
0.3990292 -0.1953000 0.3416393
0.3989750 -0.1953000 0.3417057
0.3989221 -0.1953000 0.3417731
0.3988704 -0.1953000 0.3418414
0.3988202 -0.1953000 0.3419108
0.3987712 -0.1953000 0.3419811
0.3987235 -0.1953000 0.3420523
0.3986773 -0.1953000 0.3421244
0.3986324 -0.1953000 0.3421974
0.3985889 -0.1953000 0.3422712
0.3985468 -0.1953000 0.3423459
0.3985062 -0.1953000 0.3424213
0.3984670 -0.1953000 0.3424975
0.3982411 -0.1958500 0.3430294
0.3984292 -0.1953000 0.3425744
0.3983929 -0.1953000 0.3426520
0.3983582 -0.1953000 0.3427303
0.3983248 -0.1953000 0.3428092
0.3982931 -0.1953000 0.3428888
0.3982628 -0.1953000 0.3429690
0.3982341 -0.1953000 0.3430497
0.3982069 -0.1953000 0.3431309
0.3981812 -0.1953000 0.3432127
0.3981572 -0.1953000 0.3432949
0.3981347 -0.1953000 0.3433776
0.3981137 -0.1953000 0.3434606
0.3980944 -0.1953000 0.3435441
0.3980767 -0.1953000 0.3436279
0.3980004 -0.1958500 0.3441793
0.3980605 -0.1953000 0.3437121
0.3980460 -0.1953000 0.3437965
0.3980330 -0.1953000 0.3438812
0.3980217 -0.1953000 0.3439661
0.3980120 -0.1953000 0.3440513
0.3980039 -0.1953000 0.3441366
0.3979974 -0.1953000 0.3442220
0.3979926 -0.1953000 0.3443075
0.3979894 -0.1953000 0.3443932
0.3979878 -0.1953000 0.3444788
0.3979879 -0.1953000 0.3445645
0.3979896 -0.1953000 0.3446501
0.3979929 -0.1953000 0.3447358
0.3980656 -0.1958500 0.3453522
0.3979979 -0.1953000 0.3448213
0.3980045 -0.1953000 0.3449067
0.3980127 -0.1953000 0.3449920
0.3980225 -0.1953000 0.3450771
0.3980340 -0.1953000 0.3451620
0.3980470 -0.1953000 0.3452467
0.3980617 -0.1953000 0.3453311
0.3980780 -0.1953000 0.3454153
0.3980958 -0.1953000 0.3454991
0.3981153 -0.1953000 0.3455825
0.3981363 -0.1953000 0.3456655
0.3981590 -0.1953000 0.3457482
0.3981832 -0.1953000 0.3458304
0.3982089 -0.1953000 0.3459121
0.3984321 -0.1958500 0.3464683
0.3982363 -0.1953000 0.3459933
0.3982651 -0.1953000 0.3460740
0.3982955 -0.1953000 0.3461541
0.3983274 -0.1953000 0.3462336
0.3983608 -0.1953000 0.3463125
0.3983957 -0.1953000 0.3463907
0.3984321 -0.1953000 0.3464683
0.3984700 -0.1953000 0.3465451
0.3985093 -0.1953000 0.3466213
0.3985501 -0.1953000 0.3466966
0.3985922 -0.1953000 0.3467712
0.3986358 -0.1953000 0.3468450
0.3986808 -0.1953000 0.3469179
0.3987272 -0.1953000 0.3469899
0.3990750 -0.1958500 0.3474515
0.3987749 -0.1953000 0.3470611
0.3988240 -0.1953000 0.3471313
0.3988744 -0.1953000 0.3472006
0.3989261 -0.1953000 0.3472688
0.3989792 -0.1953000 0.3473362
0.3990335 -0.1953000 0.3474025
0.3990890 -0.1953000 0.3474677
0.3991458 -0.1953000 0.3475319
0.3992037 -0.1953000 0.3475950
0.3992629 -0.1953000 0.3476569
0.3993233 -0.1953000 0.3477177
0.3993847 -0.1953000 0.3477774
0.3994473 -0.1953000 0.3478359
0.3995110 -0.1953000 0.3478932
0.3999504 -0.1958500 0.3482348
0.3995758 -0.1953000 0.3479492
0.3996417 -0.1953000 0.3480041
0.3997086 -0.1953000 0.3480576
0.3997765 -0.1953000 0.3481099
0.3998453 -0.1953000 0.3481609
0.3999152 -0.1953000 0.3482105
0.3999859 -0.1953000 0.3482588
0.4000576 -0.1953000 0.3483058
0.4001301 -0.1953000 0.3483514
0.4002036 -0.1953000 0.3483955
0.4002778 -0.1953000 0.3484383
0.4003528 -0.1953000 0.3484797
0.4004286 -0.1953000 0.3485196
0.4009988 -0.1958500 0.3487649
0.4005052 -0.1953000 0.3485581
0.4005824 -0.1953000 0.3485951
0.4006604 -0.1953000 0.3486306
0.4007390 -0.1953000 0.3486647
0.4008183 -0.1953000 0.3486972
0.4008981 -0.1953000 0.3487282
0.4009786 -0.1953000 0.3487577
0.4010596 -0.1953000 0.3487857
0.4011411 -0.1953000 0.3488121
0.4012231 -0.1953000 0.3488370
0.4013055 -0.1953000 0.3488603
0.4013884 -0.1953000 0.3488820
0.4014717 -0.1953000 0.3489021
0.4015553 -0.1953000 0.3489207
0.4021486 -0.1958500 0.3490055
0.4016393 -0.1953000 0.3489376
0.4017236 -0.1953000 0.3489530
0.4018082 -0.1953000 0.3489667
0.4018930 -0.1953000 0.3489788
0.4019780 -0.1953000 0.3489894
0.4020632 -0.1953000 0.3489982
0.4021486 -0.1953000 0.3490055
0.4022341 -0.1953000 0.3490112
0.4023197 -0.1953000 0.3490152
0.4024053 -0.1953000 0.3490176
0.4024910 -0.1953000 0.3490183
0.4025767 -0.1953000 0.3490174
0.4026623 -0.1953000 0.3490149
0.4027479 -0.1953000 0.3490108
0.4033215 -0.1958500 0.3489404
0.4028334 -0.1953000 0.3490050
0.4029187 -0.1953000 0.3489977
0.4030039 -0.1953000 0.3489886
0.4030890 -0.1953000 0.3489780
0.4031737 -0.1953000 0.3489657
0.4032583 -0.1953000 0.3489518
0.4033425 -0.1953000 0.3489364
0.4034265 -0.1953000 0.3489193
0.4035101 -0.1953000 0.3489006
0.4035934 -0.1953000 0.3488804
0.4036762 -0.1953000 0.3488585
0.4037587 -0.1953000 0.3488351
0.4038406 -0.1953000 0.3488101
0.4039221 -0.1953000 0.3487836
0.4044376 -0.1958500 0.3485739
0.4040030 -0.1953000 0.3487555
0.4040834 -0.1953000 0.3487259
0.4041632 -0.1953000 0.3486948
0.4042424 -0.1953000 0.3486621
0.4043210 -0.1953000 0.3486279
0.4043989 -0.1953000 0.3485923
0.4044761 -0.1953000 0.3485551
0.4045526 -0.1953000 0.3485166
0.4046284 -0.1953000 0.3484765
0.4047034 -0.1953000 0.3484350
0.4047775 -0.1953000 0.3483922
0.4048509 -0.1953000 0.3483479
0.4049233 -0.1953000 0.3483022
0.4054208 -0.1958500 0.3479310
0.4049949 -0.1953000 0.3482551
0.4050657 -0.1953000 0.3482067
0.4051354 -0.1953000 0.3481570
0.4052042 -0.1953000 0.3481059
0.4052720 -0.1953000 0.3480535
0.4053388 -0.1953000 0.3479999
0.4054046 -0.1953000 0.3479449
0.4054693 -0.1953000 0.3478888
0.4055329 -0.1953000 0.3478314
0.4055954 -0.1953000 0.3477729
0.4056568 -0.1953000 0.3477131
0.4057171 -0.1953000 0.3476522
0.4057761 -0.1953000 0.3475901
0.4058340 -0.1953000 0.3475269
0.4062042 -0.1958500 0.3470556
0.4058907 -0.1953000 0.3474627
0.4059462 -0.1953000 0.3473974
0.4060003 -0.1953000 0.3473310
0.4060532 -0.1953000 0.3472636
0.4061049 -0.1953000 0.3471952
0.4061552 -0.1953000 0.3471259
0.4062042 -0.1953000 0.3470556
0.4062518 -0.1953000 0.3469844
0.4062981 -0.1953000 0.3469123
0.4063430 -0.1953000 0.3468393
0.4063864 -0.1953000 0.3467655
0.4064285 -0.1953000 0.3466908
0.4064692 -0.1953000 0.3466154
0.4065084 -0.1953000 0.3465392
0.4067342 -0.1958500 0.3460072
0.4065461 -0.1953000 0.3464623
0.4065824 -0.1953000 0.3463847
0.4066172 -0.1953000 0.3463064
0.4066505 -0.1953000 0.3462274
0.4066823 -0.1953000 0.3461479
0.4067125 -0.1953000 0.3460677
0.4067413 -0.1953000 0.3459870
0.4067685 -0.1953000 0.3459058
0.4067941 -0.1953000 0.3458240
0.4068182 -0.1953000 0.3457418
0.4068407 -0.1953000 0.3456591
0.4068616 -0.1953000 0.3455760
0.4068809 -0.1953000 0.3454925
0.4068987 -0.1953000 0.3454087
0.4069749 -0.1958500 0.3448574
0.4069149 -0.1953000 0.3453246
0.4069294 -0.1953000 0.3452402
0.4069423 -0.1953000 0.3451555
0.4069537 -0.1953000 0.3450706
0.4069634 -0.1953000 0.3449854
0.4069715 -0.1953000 0.3449001
0.4069779 -0.1953000 0.3448147
0.4069827 -0.1953000 0.3447292
0.4069859 -0.1953000 0.3446435
0.4069875 -0.1953000 0.3445579
0.4069875 -0.1953000 0.3444722
0.4069858 -0.1953000 0.3443865
0.4069824 -0.1953000 0.3443009
0.4069098 -0.1958500 0.3436845
0.4069775 -0.1953000 0.3442154
0.4069709 -0.1953000 0.3441299
0.4069627 -0.1953000 0.3440447
0.4069529 -0.1953000 0.3439596
0.4069414 -0.1953000 0.3438746
0.4069283 -0.1953000 0.3437900
0.4069137 -0.1953000 0.3437056
0.4068974 -0.1953000 0.3436214
0.4068795 -0.1953000 0.3435377
0.4068601 -0.1953000 0.3434542
0.4068390 -0.1953000 0.3433712
0.4068164 -0.1953000 0.3432885
0.4067922 -0.1953000 0.3432063
0.4067664 -0.1953000 0.3431246
0.4065433 -0.1958500 0.3425684
0.4067391 -0.1953000 0.3430434
0.4067103 -0.1953000 0.3429627
0.4066799 -0.1953000 0.3428826
0.4066480 -0.1953000 0.3428031
0.4066146 -0.1953000 0.3427242
0.4065796 -0.1953000 0.3426460
0.4065433 -0.1953000 0.3425684
0.4065054 -0.1953000 0.3424915
0.4064661 -0.1953000 0.3424154
0.4064253 -0.1953000 0.3423401
0.4063832 -0.1953000 0.3422655
0.4063395 -0.1953000 0.3421917
0.4062946 -0.1953000 0.3421188
0.4062482 -0.1953000 0.3420468
0.4059004 -0.1958500 0.3415852
0.4062004 -0.1953000 0.3419756
0.4061514 -0.1953000 0.3419054
0.4061010 -0.1953000 0.3418361
0.4060492 -0.1953000 0.3417678
0.4059962 -0.1953000 0.3417005
0.4059419 -0.1953000 0.3416342
0.4058864 -0.1953000 0.3415690
0.4058296 -0.1953000 0.3415048
0.4057716 -0.1953000 0.3414417
0.4057125 -0.1953000 0.3413798
0.4056521 -0.1953000 0.3413189
0.4055907 -0.1953000 0.3412592
0.4055280 -0.1953000 0.3412008
0.4054643 -0.1953000 0.3411435
0.4050249 -0.1958500 0.3408018
0.4053995 -0.1953000 0.3410874
0.4053337 -0.1953000 0.3410326
0.4052668 -0.1953000 0.3409791
0.4051989 -0.1953000 0.3409268
0.4051301 -0.1953000 0.3408758
0.4050602 -0.1953000 0.3408262
0.4049895 -0.1953000 0.3407779
0.4049178 -0.1953000 0.3407309
0.4048452 -0.1953000 0.3406853
0.4047719 -0.1953000 0.3406411
0.4046976 -0.1953000 0.3405983
0.4046226 -0.1953000 0.3405570
0.4045468 -0.1953000 0.3405171
0.4039766 -0.1958500 0.3402718
0.4044702 -0.1953000 0.3404786
0.4043930 -0.1953000 0.3404416
0.4043150 -0.1953000 0.3404060
0.4042363 -0.1953000 0.3403720
0.4041571 -0.1953000 0.3403395
0.4040772 -0.1953000 0.3403084
0.4039968 -0.1953000 0.3402789
0.4039158 -0.1953000 0.3402509
0.4038343 -0.1953000 0.3402245
0.4037523 -0.1953000 0.3401997
0.4036699 -0.1953000 0.3401764
0.4035870 -0.1953000 0.3401547
0.4035037 -0.1953000 0.3401345
0.4034201 -0.1953000 0.3401160
0.4033361 -0.1953000 0.3400990
0.4032518 -0.1953000 0.3400837
0.4031672 -0.1953000 0.3400699
0.4030824 -0.1953000 0.3400578
0.4029974 -0.1953000 0.3400473
0.4029122 -0.1953000 0.3400384
0.4052579 -0.1958500 0.3477414
0.4043293 -0.1958500 0.3483486
0.4059977 -0.1958500 0.3469146
0.4032752 -0.1958500 0.3486947
0.4064983 -0.1958500 0.3459245
0.4021674 -0.1958500 0.3487563
0.4067256 -0.1958500 0.3448386
0.4010815 -0.1958500 0.3485290
0.4066641 -0.1958500 0.3437308
0.4000914 -0.1958500 0.3480284
0.4063179 -0.1958500 0.3426767
0.3992646 -0.1958500 0.3472885
0.4057108 -0.1958500 0.3417481
0.3986574 -0.1958500 0.3463600
0.4048840 -0.1958500 0.3410083
0.4038939 -0.1958500 0.3405077
0.3983113 -0.1958500 0.3453059
0.4028079 -0.1958500 0.3402804
0.3982497 -0.1958500 0.3441981
0.4017002 -0.1958500 0.3403419
0.3984770 -0.1958500 0.3431121
0.4006461 -0.1958500 0.3406880
0.3989777 -0.1958500 0.3421220
0.3997175 -0.1958500 0.3412952
0.3982497 -0.2005500 0.3441981
0.3983113 -0.2005500 0.3453059
0.3986574 -0.2005500 0.3463600
0.3992646 -0.2005500 0.3472885
0.4000914 -0.2005500 0.3480284
0.4010815 -0.2005500 0.3485290
0.4021674 -0.2005500 0.3487563
0.4032752 -0.2005500 0.3486947
0.4043293 -0.2005500 0.3483486
0.4052579 -0.2005500 0.3477414
0.4059977 -0.2005500 0.3469146
0.4064983 -0.2005500 0.3459245
0.4067256 -0.2005500 0.3448386
0.4066641 -0.2005500 0.3437308
0.4063179 -0.2005500 0.3426767
0.4057108 -0.2005500 0.3417481
0.4048840 -0.2005500 0.3410083
0.4038939 -0.2005500 0.3405077
0.4028079 -0.2005500 0.3402804
0.4017002 -0.2005500 0.3403419
0.4006461 -0.2005500 0.3406880
0.3997175 -0.2005500 0.3412952
0.3989777 -0.2005500 0.3421220
0.3984770 -0.2005500 0.3431121
0.4061535 -0.2008500 0.3438271
0.4062075 -0.2008500 0.3447994
0.4058496 -0.2008500 0.3429019
0.4053167 -0.2008500 0.3420868
0.4045910 -0.2008500 0.3414374
0.4037220 -0.2008500 0.3409981
0.4027688 -0.2008500 0.3407986
0.4017965 -0.2008500 0.3408525
0.4008712 -0.2008500 0.3411564
0.4000562 -0.2008500 0.3416893
0.3994068 -0.2008500 0.3424150
0.3989674 -0.2008500 0.3432841
0.3987679 -0.2008500 0.3442372
0.3988219 -0.2008500 0.3452096
0.3991257 -0.2008500 0.3461348
0.3996586 -0.2008500 0.3469498
0.4003844 -0.2008500 0.3475992
0.4012534 -0.2008500 0.3480386
0.4022066 -0.2008500 0.3482381
0.4031789 -0.2008500 0.3481841
0.4041041 -0.2008500 0.3478803
0.4049192 -0.2008500 0.3473474
0.4055686 -0.2008500 0.3466216
0.4060080 -0.2008500 0.3457526
3 1 353 2
3 3 0 2
3 353 352 2
3 4 3 2
3 352 351 2
3 5 4 2
3 351 350 2
3 6 5 2
3 350 349 2
3 7 6 2
3 349 348 2
3 8 7 2
3 348 347 2
3 8 2 9
3 347 333 2
3 373 9 2
3 10 8 9
3 347 346 333
3 371 2 333
3 373 375 9
3 371 373 2
3 11 10 9
3 346 345 333
3 369 371 333
3 375 373 397
3 375 24 9
3 373 371 396
3 12 11 9
3 345 344 333
3 371 369 395
3 369 333 319
3 373 396 397
3 375 397 398
3 377 24 375
3 23 9 24
3 371 395 396
3 13 12 9
3 344 343 333
3 369 394 395
3 332 319 333
3 368 369 319
3 397 396 409
3 398 397 410
3 377 375 398
3 377 38 24
3 23 22 9
3 25 23 24
3 396 395 408
3 14 13 9
3 343 342 333
3 369 368 394
3 395 394 407
3 332 331 319
3 334 332 333
3 368 319 366
3 409 396 408
3 410 397 409
3 411 398 410
3 377 398 399
3 376 38 377
3 37 24 38
3 22 21 9
3 26 25 24
3 408 395 407
3 15 14 9
3 342 341 333
3 368 393 394
3 407 394 406
3 331 330 319
3 335 334 333
3 366 319 304
3 368 366 393
3 408 407 409
3 409 407 410
3 399 398 411
3 410 406 411
3 376 377 399
3 53 38 376
3 37 36 24
3 39 37 38
3 21 20 9
3 27 26 24
3 16 15 9
3 341 340 333
3 394 393 406
3 407 406 410
3 330 329 319
3 336 335 333
3 318 304 319
3 366 304 364
3 366 392 393
3 412 399 411
3 411 406 413
3 376 399 400
3 52 38 53
3 374 53 376
3 36 35 24
3 40 39 38
3 20 19 9
3 28 27 24
3 17 16 9
3 340 339 333
3 406 393 405
3 329 328 319
3 337 336 333
3 318 317 304
3 320 318 319
3 364 304 289
3 366 364 392
3 393 392 405
3 400 399 412
3 412 411 413
3 413 406 424
3 374 376 400
3 52 51 38
3 54 52 53
3 68 53 374
3 35 34 24
3 41 40 38
3 19 18 9
3 29 28 24
3 18 17 9
3 339 338 333
3 406 405 424
3 328 327 319
3 338 337 333
3 317 316 304
3 321 320 319
3 303 289 304
3 362 364 289
3 364 391 392
3 405 392 404
3 413 400 412
3 413 424 418
3 374 400 401
3 51 50 38
3 55 54 53
3 67 53 68
3 372 68 374
3 34 33 24
3 42 41 38
3 30 29 24
3 424 405 403
3 327 326 319
3 316 315 304
3 322 321 319
3 303 302 289
3 305 303 304
3 364 362 391
3 362 289 274
3 392 391 404
3 403 405 404
3 401 400 413
3 418 424 421
3 417 413 418
3 372 374 401
3 50 49 38
3 56 55 53
3 67 66 53
3 69 67 68
3 83 68 372
3 33 32 24
3 43 42 38
3 31 30 24
3 424 403 425
3 326 325 319
3 315 314 304
3 323 322 319
3 302 301 289
3 306 305 304
3 362 390 391
3 288 274 289
3 360 362 274
3 404 391 402
3 403 404 402
3 378 401 413
3 421 424 422
3 418 421 419
3 416 413 417
3 418 381 417
3 372 401 378
3 49 48 38
3 57 56 53
3 66 65 53
3 70 69 68
3 82 68 83
3 370 83 372
3 32 31 24
3 44 43 38
3 403 389 425
3 425 388 424
3 325 324 319
3 314 313 304
3 324 323 319
3 301 300 289
3 307 306 304
3 362 360 390
3 391 390 402
3 288 287 274
3 290 288 289
3 360 274 260
3 402 390 403
3 378 413 414
3 422 424 423
3 422 385 421
3 419 421 420
3 419 382 418
3 414 413 416
3 417 380 416
3 382 381 418
3 381 380 417
3 372 378 379
3 48 47 38
3 58 57 53
3 65 64 53
3 71 70 68
3 82 81 68
3 84 82 83
3 97 83 370
3 370 372 379
3 45 44 38
3 390 389 403
3 389 388 425
3 388 387 424
3 313 312 304
3 300 299 289
3 308 307 304
3 360 358 390
3 287 286 274
3 291 290 289
3 273 260 274
3 358 360 260
3 415 378 414
3 424 387 423
3 423 386 422
3 386 385 422
3 385 384 421
3 421 384 420
3 420 383 419
3 383 382 419
3 415 414 416
3 380 379 416
3 365 381 382
3 367 380 381
3 379 378 415
3 47 46 38
3 59 58 53
3 64 63 53
3 72 71 68
3 81 80 68
3 85 84 83
3 96 83 97
3 367 97 370
3 370 379 380
3 46 45 38
3 358 389 390
3 358 388 389
3 354 387 388
3 312 311 304
3 299 298 289
3 309 308 304
3 286 285 274
3 292 291 289
3 273 272 260
3 275 273 274
3 358 260 245
3 387 386 423
3 357 385 386
3 359 384 385
3 384 383 420
3 363 382 383
3 416 379 415
3 365 367 381
3 363 365 382
3 367 370 380
3 60 59 53
3 63 62 53
3 73 72 68
3 80 79 68
3 86 85 83
3 96 95 83
3 98 96 97
3 112 97 367
3 358 356 388
3 354 355 387
3 356 354 388
3 311 310 304
3 298 297 289
3 310 309 304
3 285 284 274
3 293 292 289
3 272 271 260
3 276 275 274
3 259 245 260
3 356 358 245
3 355 386 387
3 357 359 385
3 355 357 386
3 359 361 384
3 361 383 384
3 361 363 383
3 365 112 367
3 127 365 363
3 61 60 53
3 62 61 53
3 74 73 68
3 79 78 68
3 87 86 83
3 95 94 83
3 99 98 97
3 111 97 112
3 215 355 354
3 354 356 230
3 297 296 289
3 284 283 274
3 294 293 289
3 271 270 260
3 277 276 274
3 259 258 245
3 261 259 260
3 356 245 230
3 171 359 357
3 201 357 355
3 156 361 359
3 142 363 361
3 127 112 365
3 142 127 363
3 75 74 68
3 78 77 68
3 88 87 83
3 94 93 83
3 100 99 97
3 111 110 97
3 113 111 112
3 201 355 215
3 215 354 230
3 296 295 289
3 283 282 274
3 295 294 289
3 270 269 260
3 278 277 274
3 258 257 245
3 262 261 260
3 244 230 245
3 171 156 359
3 186 171 357
3 186 357 201
3 156 142 361
3 126 112 127
3 141 127 142
3 76 75 68
3 77 76 68
3 89 88 83
3 93 92 83
3 101 100 97
3 110 109 97
3 114 113 112
3 214 201 215
3 229 215 230
3 282 281 274
3 269 268 260
3 279 278 274
3 257 256 245
3 263 262 260
3 244 243 230
3 246 244 245
3 170 156 171
3 185 171 186
3 200 186 201
3 155 142 156
3 126 125 112
3 128 126 127
3 141 140 127
3 143 141 142
3 90 89 83
3 92 91 83
3 102 101 97
3 109 108 97
3 115 114 112
3 214 213 201
3 216 214 215
3 229 228 215
3 231 229 230
3 281 280 274
3 268 267 260
3 280 279 274
3 256 255 245
3 264 263 260
3 243 242 230
3 247 246 245
3 170 169 156
3 172 170 171
3 185 184 171
3 187 185 186
3 200 199 186
3 202 200 201
3 155 154 142
3 157 155 156
3 125 124 112
3 129 128 127
3 140 139 127
3 144 143 142
3 91 90 83
3 103 102 97
3 108 107 97
3 116 115 112
3 213 212 201
3 217 216 215
3 228 227 215
3 232 231 230
3 267 266 260
3 255 254 245
3 265 264 260
3 242 241 230
3 248 247 245
3 169 168 156
3 173 172 171
3 184 183 171
3 188 187 186
3 199 198 186
3 203 202 201
3 154 153 142
3 158 157 156
3 124 123 112
3 130 129 127
3 139 138 127
3 145 144 142
3 104 103 97
3 107 106 97
3 117 116 112
3 212 211 201
3 218 217 215
3 227 226 215
3 233 232 230
3 266 265 260
3 254 253 245
3 241 240 230
3 249 248 245
3 168 167 156
3 174 173 171
3 183 182 171
3 189 188 186
3 198 197 186
3 204 203 201
3 153 152 142
3 159 158 156
3 123 122 112
3 131 130 127
3 138 137 127
3 146 145 142
3 105 104 97
3 106 105 97
3 118 117 112
3 211 210 201
3 219 218 215
3 226 225 215
3 234 233 230
3 253 252 245
3 240 239 230
3 250 249 245
3 167 166 156
3 175 174 171
3 182 181 171
3 190 189 186
3 197 196 186
3 205 204 201
3 152 151 142
3 160 159 156
3 122 121 112
3 132 131 127
3 137 136 127
3 147 146 142
3 119 118 112
3 210 209 201
3 220 219 215
3 225 224 215
3 235 234 230
3 252 251 245
3 239 238 230
3 251 250 245
3 166 165 156
3 176 175 171
3 181 180 171
3 191 190 186
3 196 195 186
3 206 205 201
3 151 150 142
3 161 160 156
3 121 120 112
3 133 132 127
3 136 135 127
3 148 147 142
3 120 119 112
3 209 208 201
3 221 220 215
3 224 223 215
3 236 235 230
3 238 237 230
3 165 164 156
3 177 176 171
3 180 179 171
3 192 191 186
3 195 194 186
3 207 206 201
3 150 149 142
3 162 161 156
3 134 133 127
3 135 134 127
3 149 148 142
3 208 207 201
3 222 221 215
3 223 222 215
3 237 236 230
3 164 163 156
3 178 177 171
3 179 178 171
3 193 192 186
3 194 193 186
3 163 162 156
3 0 1 2
