ply
format ascii 1.0
comment made by tesseract
element vertex 77
property float x
property float y
property float z
element face 150
property list uchar int vertex_indices
end_header
1.6067861 -0.0710000 2.0682545
1.6079251 -0.0710000 2.0662820
1.6074855 -0.0710000 2.0673430
1.6048137 -0.0710000 2.0693932
1.6036749 -0.0710000 2.0695431
1.6058749 -0.0710000 2.0689535
1.6080749 -0.0710000 2.0651431
1.6025361 -0.0710000 2.0693932
1.6014750 -0.0710000 2.0689535
1.6079251 -0.0710000 2.0640044
1.6067861 -0.0710000 2.0620317
1.6074855 -0.0710000 2.0629432
1.6005636 -0.0710000 2.0682545
1.5998644 -0.0710000 2.0673430
1.6058749 -0.0710000 2.0613325
1.6036749 -0.0710000 2.0607431
1.6048137 -0.0710000 2.0608931
1.5994248 -0.0710000 2.0662820
1.5992749 -0.0710000 2.0651431
1.6025361 -0.0710000 2.0608931
1.6014750 -0.0710000 2.0613325
1.5994248 -0.0710000 2.0640044
1.5998644 -0.0710000 2.0629432
1.6005636 -0.0710000 2.0620317
1.6025361 -0.0750000 2.0693932
1.6036749 -0.0750000 2.0695431
1.6048137 -0.0750000 2.0693932
1.6058749 -0.0750000 2.0689535
1.6067861 -0.0750000 2.0682545
1.6074855 -0.0750000 2.0673430
1.6079251 -0.0750000 2.0662820
1.6080749 -0.0750000 2.0651431
1.6079251 -0.0750000 2.0640044
1.6074855 -0.0750000 2.0629432
1.6067861 -0.0750000 2.0620317
1.6058749 -0.0750000 2.0613325
1.6048137 -0.0750000 2.0608931
1.6036749 -0.0750000 2.0607431
1.6025361 -0.0750000 2.0608931
1.6014750 -0.0750000 2.0613325
1.6005636 -0.0750000 2.0620317
1.5998644 -0.0750000 2.0629432
1.5994248 -0.0750000 2.0640044
1.5992749 -0.0750000 2.0651431
1.5994248 -0.0750000 2.0662820
1.5998644 -0.0750000 2.0673430
1.6005636 -0.0750000 2.0682545
1.6014750 -0.0750000 2.0689535
1.6034836 -0.0767625 2.0636890
1.6036749 -0.0776438 2.0651431
1.6029415 -0.0767625 2.0638731
1.6032920 -0.0758813 2.0622349
1.6025114 -0.0767625 2.0642502
1.6022083 -0.0758813 2.0626028
1.6022582 -0.0767625 2.0647635
1.6013478 -0.0758813 2.0633574
1.6022208 -0.0767625 2.0653346
1.6008415 -0.0758813 2.0643837
1.6024048 -0.0767625 2.0658765
1.6007668 -0.0758813 2.0655258
1.6027821 -0.0767625 2.0663066
1.6011345 -0.0758813 2.0666099
1.6018891 -0.0758813 2.0674703
1.6038663 -0.0767625 2.0665972
1.6044081 -0.0767625 2.0664134
1.6040578 -0.0758813 2.0680513
1.6048385 -0.0767625 2.0660360
1.6051416 -0.0758813 2.0676835
1.6050916 -0.0767625 2.0655227
1.6060021 -0.0758813 2.0669286
1.6051290 -0.0767625 2.0649517
1.6065083 -0.0758813 2.0659022
1.6049451 -0.0767625 2.0644097
1.6065831 -0.0758813 2.0647602
1.6045678 -0.0767625 2.0639794
1.6062152 -0.0758813 2.0636766
1.6054605 -0.0758813 2.0628159
3 0 6 1
3 2 1 30
3 0 2 29
3 5 6 0
3 1 6 31
3 30 1 31
3 29 2 30
3 28 0 29
3 5 18 6
3 5 0 28
3 31 6 32
3 31 71 30
3 30 71 29
3 29 69 28
3 4 18 5
3 6 18 9
3 27 5 28
3 6 9 32
3 32 73 31
3 31 73 71
3 29 71 69
3 28 69 67
3 13 18 4
3 3 4 5
3 9 18 10
3 3 5 27
3 28 67 27
3 32 9 33
3 32 75 73
3 71 73 68
3 69 71 66
3 67 69 64
3 17 18 13
3 8 13 4
3 4 3 26
3 18 23 10
3 9 10 11
3 26 3 27
3 27 67 26
3 9 11 33
3 33 75 32
3 73 75 70
3 68 73 70
3 66 71 68
3 64 69 66
3 63 67 64
3 18 17 43
3 17 13 44
3 12 13 8
3 7 8 4
3 25 4 26
3 22 23 18
3 10 23 14
3 11 10 34
3 26 67 65
3 33 11 34
3 34 75 33
3 70 75 72
3 68 70 49
3 66 68 49
3 64 66 49
3 65 67 63
3 63 64 49
3 43 17 44
3 42 18 43
3 44 13 45
3 13 12 45
3 12 8 46
3 8 7 47
3 7 4 25
3 26 65 25
3 23 22 40
3 21 22 18
3 14 23 20
3 10 14 35
3 34 10 35
3 34 76 75
3 75 76 72
3 70 72 49
3 49 65 63
3 44 59 43
3 21 18 42
3 43 57 42
3 45 61 44
3 45 12 46
3 46 8 47
3 47 7 24
3 24 7 25
3 25 65 24
3 40 22 41
3 39 23 40
3 22 21 41
3 20 23 39
3 14 20 19
3 35 14 36
3 35 76 34
3 72 76 74
3 72 74 49
3 24 65 49
3 44 61 59
3 43 59 57
3 41 21 42
3 42 57 41
3 46 61 45
3 47 62 46
3 24 62 47
3 41 55 40
3 40 53 39
3 38 20 39
3 19 20 38
3 14 19 15
3 14 16 36
3 36 76 35
3 74 76 36
3 49 74 36
3 49 62 24
3 59 61 58
3 57 59 54
3 41 57 55
3 46 62 61
3 40 55 53
3 39 53 38
3 37 19 38
3 15 19 37
3 14 15 16
3 16 15 36
3 36 48 49
3 60 62 49
3 61 62 58
3 56 59 58
3 54 59 56
3 55 57 54
3 53 55 50
3 38 53 51
3 38 51 37
3 36 15 37
3 36 51 48
3 48 50 49
3 58 62 60
3 58 60 49
3 56 58 49
3 54 56 49
3 52 55 54
3 50 55 52
3 48 53 50
3 51 53 48
3 37 51 36
3 50 52 49
3 52 54 49
3 0 1 2
