ply
format ascii 1.0
comment made by tesseract
element vertex 77
property float x
property float y
property float z
element face 150
property list uchar int vertex_indices
end_header
1.6040862 -0.0710000 2.0401626
1.6052250 -0.0710000 2.0381899
1.6047856 -0.0710000 2.0392513
1.6021137 -0.0710000 2.0413013
1.6009749 -0.0710000 2.0414512
1.6031749 -0.0710000 2.0408616
1.6053751 -0.0710000 2.0370512
1.6052250 -0.0710000 2.0359123
1.5998362 -0.0710000 2.0413013
1.5987749 -0.0710000 2.0408616
1.5978637 -0.0710000 2.0401626
1.6040862 -0.0710000 2.0339398
1.6047856 -0.0710000 2.0348513
1.5971644 -0.0710000 2.0392513
1.6031749 -0.0710000 2.0332408
1.5967249 -0.0710000 2.0381899
1.5965749 -0.0710000 2.0370512
1.6009749 -0.0710000 2.0326512
1.6021137 -0.0710000 2.0328012
1.5998362 -0.0710000 2.0328012
1.5967249 -0.0710000 2.0359123
1.5971644 -0.0710000 2.0348513
1.5987749 -0.0710000 2.0332408
1.5978637 -0.0710000 2.0339398
1.5998362 -0.0750000 2.0413013
1.6009749 -0.0750000 2.0414512
1.6021137 -0.0750000 2.0413013
1.6031749 -0.0750000 2.0408616
1.6040862 -0.0750000 2.0401626
1.6047856 -0.0750000 2.0392513
1.6052250 -0.0750000 2.0381899
1.6053751 -0.0750000 2.0370512
1.6052250 -0.0750000 2.0359123
1.6047856 -0.0750000 2.0348513
1.6040862 -0.0750000 2.0339398
1.6031749 -0.0750000 2.0332408
1.6021137 -0.0750000 2.0328012
1.6009749 -0.0750000 2.0326512
1.5998362 -0.0750000 2.0328012
1.5987749 -0.0750000 2.0332408
1.5978637 -0.0750000 2.0339398
1.5971644 -0.0750000 2.0348513
1.5967249 -0.0750000 2.0359123
1.5965749 -0.0750000 2.0370512
1.5967249 -0.0750000 2.0381899
1.5971644 -0.0750000 2.0392513
1.5978637 -0.0750000 2.0401626
1.5987749 -0.0750000 2.0408616
1.6007836 -0.0767625 2.0355971
1.6009749 -0.0776438 2.0370512
1.6002415 -0.0767625 2.0357809
1.6005920 -0.0758813 2.0341430
1.5998114 -0.0767625 2.0361583
1.5995083 -0.0758813 2.0345109
1.5995582 -0.0767625 2.0366716
1.5986478 -0.0758813 2.0352654
1.5995209 -0.0767625 2.0372427
1.5981416 -0.0758813 2.0362921
1.5997049 -0.0767625 2.0377846
1.5980668 -0.0758813 2.0374341
1.6000822 -0.0767625 2.0382147
1.5984346 -0.0758813 2.0385177
1.5991892 -0.0758813 2.0393784
1.6011664 -0.0767625 2.0385053
1.6017083 -0.0767625 2.0383213
1.6013578 -0.0758813 2.0399594
1.6021385 -0.0767625 2.0379441
1.6024417 -0.0758813 2.0395916
1.6023916 -0.0767625 2.0374308
1.6033021 -0.0758813 2.0388370
1.6024290 -0.0767625 2.0368598
1.6038084 -0.0758813 2.0378103
1.6022451 -0.0767625 2.0363178
1.6038831 -0.0758813 2.0366683
1.6018678 -0.0767625 2.0358875
1.6035153 -0.0758813 2.0355844
1.6027607 -0.0758813 2.0347240
3 0 6 1
3 2 1 30
3 0 2 29
3 5 6 0
3 1 6 31
3 30 1 31
3 29 2 30
3 28 0 29
3 5 7 6
3 5 0 28
3 31 6 32
3 31 71 30
3 30 71 29
3 29 69 28
3 5 14 7
3 6 7 32
3 27 5 28
3 32 73 31
3 31 73 71
3 29 71 69
3 28 69 67
3 4 14 5
3 7 14 11
3 32 7 33
3 3 5 27
3 28 67 27
3 32 75 73
3 71 73 68
3 69 71 66
3 67 69 64
3 4 23 14
3 3 4 5
3 11 14 35
3 7 11 12
3 7 12 33
3 33 75 32
3 26 3 27
3 27 67 26
3 73 75 70
3 68 73 70
3 66 71 68
3 64 69 66
3 63 67 64
3 16 23 4
3 14 23 22
3 4 3 26
3 35 14 36
3 34 11 35
3 12 11 34
3 33 12 34
3 34 75 33
3 26 67 65
3 70 75 72
3 68 70 49
3 66 68 49
3 64 66 49
3 65 67 63
3 63 64 49
3 21 23 16
3 13 16 4
3 22 23 39
3 14 22 19
3 25 4 26
3 14 18 36
3 36 76 35
3 35 76 34
3 34 76 75
3 26 65 25
3 75 76 72
3 70 72 49
3 49 65 63
3 23 21 40
3 20 21 16
3 15 16 13
3 10 13 4
3 39 23 40
3 38 22 39
3 19 22 38
3 14 19 17
3 8 4 25
3 14 17 18
3 18 17 36
3 74 76 36
3 25 65 24
3 72 76 74
3 72 74 49
3 24 65 49
3 40 21 41
3 21 20 41
3 20 16 43
3 16 15 44
3 15 13 45
3 13 10 46
3 9 10 4
3 40 53 39
3 39 53 38
3 37 19 38
3 17 19 37
3 8 9 4
3 24 8 25
3 36 17 37
3 49 74 36
3 49 62 24
3 41 55 40
3 41 20 42
3 43 16 44
3 42 20 43
3 44 15 45
3 45 13 46
3 46 10 47
3 10 9 47
3 40 55 53
3 38 53 51
3 38 51 37
3 9 8 24
3 37 51 36
3 36 48 49
3 60 62 49
3 24 62 47
3 41 57 55
3 42 57 41
3 44 59 43
3 43 57 42
3 45 61 44
3 46 61 45
3 47 62 46
3 47 9 24
3 53 55 50
3 51 53 48
3 36 51 48
3 48 50 49
3 58 62 60
3 58 60 49
3 55 57 54
3 44 61 59
3 43 59 57
3 46 62 61
3 50 55 52
3 48 53 50
3 50 52 49
3 61 62 58
3 56 58 49
3 54 57 56
3 52 55 54
3 59 61 58
3 57 59 56
3 52 54 49
3 56 59 58
3 54 56 49
3 0 1 2
