ply
format ascii 1.0
comment made by tesseract
element vertex 120
property float x
property float y
property float z
element face 240
property list uchar int vertex_indices
end_header
0.3588978 -0.2262000 1.4292235
0.3590000 -0.2315000 1.4299999
0.3588978 -0.2315000 1.4292235
0.3590000 -0.2262000 1.4299999
0.3585981 -0.2262000 1.4285001
0.3585981 -0.2315000 1.4285001
0.3581213 -0.2262000 1.4278786
0.3581213 -0.2315000 1.4278786
0.3575000 -0.2315000 1.4274020
0.3575000 -0.2262000 1.4274020
0.3567764 -0.2315000 1.4271022
0.3567764 -0.2262000 1.4271022
0.3560000 -0.2315000 1.4270000
0.3560000 -0.2262000 1.4270000
0.3552235 -0.2262000 1.4271022
0.3552235 -0.2315000 1.4271022
0.3545000 -0.2315000 1.4274020
0.3545000 -0.2262000 1.4274020
0.3538787 -0.2262000 1.4278786
0.3538787 -0.2315000 1.4278786
0.3534019 -0.2315000 1.4285001
0.3534019 -0.2262000 1.4285001
0.3531022 -0.2262000 1.4292235
0.3531022 -0.2315000 1.4292235
0.3530000 -0.2315000 1.4299999
0.3530000 -0.2262000 1.4299999
0.3524645 -0.2315000 1.4264644
0.3535000 -0.2315000 1.4256699
0.3516698 -0.2315000 1.4275000
0.3547059 -0.2315000 1.4251704
0.3511704 -0.2315000 1.4287059
0.3560000 -0.2315000 1.4250000
0.3510000 -0.2315000 1.4299999
0.3572941 -0.2315000 1.4251704
0.3511704 -0.2315000 1.4312941
0.3531022 -0.2315000 1.4307765
0.3585000 -0.2315000 1.4256699
0.3516698 -0.2315000 1.4325000
0.3534019 -0.2315000 1.4315000
0.3524645 -0.2315000 1.4335356
0.3538787 -0.2315000 1.4321214
0.3595355 -0.2315000 1.4264644
0.3545000 -0.2315000 1.4325980
0.3535000 -0.2315000 1.4343301
0.3603301 -0.2315000 1.4275000
0.3552235 -0.2315000 1.4328978
0.3547059 -0.2315000 1.4348296
0.3560000 -0.2315000 1.4330000
0.3608296 -0.2315000 1.4287059
0.3560000 -0.2315000 1.4349999
0.3567764 -0.2315000 1.4328978
0.3610000 -0.2315000 1.4299999
0.3572941 -0.2315000 1.4348296
0.3575000 -0.2315000 1.4325980
0.3608296 -0.2315000 1.4312941
0.3588978 -0.2315000 1.4307765
0.3585000 -0.2315000 1.4343301
0.3581213 -0.2315000 1.4321214
0.3603301 -0.2315000 1.4325000
0.3585981 -0.2315000 1.4315000
0.3595355 -0.2315000 1.4335356
0.3560000 -0.2255926 1.4250000
0.3547059 -0.2255926 1.4251704
0.3535000 -0.2255926 1.4256699
0.3524645 -0.2255926 1.4264644
0.3516698 -0.2255926 1.4275000
0.3511704 -0.2255926 1.4287059
0.3510000 -0.2255926 1.4299999
0.3511704 -0.2255926 1.4312941
0.3516698 -0.2255926 1.4325000
0.3524645 -0.2255926 1.4335356
0.3535000 -0.2255926 1.4343301
0.3547059 -0.2255926 1.4348296
0.3560000 -0.2255926 1.4349999
0.3595355 -0.2255926 1.4335356
0.3576918 -0.2255926 1.4316918
0.3603301 -0.2255926 1.4325000
0.3585000 -0.2255926 1.4343301
0.3571963 -0.2255926 1.4320720
0.3580720 -0.2255926 1.4311963
0.3608296 -0.2255926 1.4312941
0.3572941 -0.2255926 1.4348296
0.3566193 -0.2255926 1.4323111
0.3583111 -0.2255926 1.4306192
0.3610000 -0.2255926 1.4299999
0.3560000 -0.2255926 1.4323926
0.3583926 -0.2255926 1.4299999
0.3608296 -0.2255926 1.4287059
0.3553807 -0.2255926 1.4323111
0.3583111 -0.2255926 1.4293808
0.3603301 -0.2255926 1.4275000
0.3548037 -0.2255926 1.4320720
0.3580720 -0.2255926 1.4288037
0.3543082 -0.2255926 1.4316918
0.3576918 -0.2255926 1.4283082
0.3595355 -0.2255926 1.4264644
0.3539279 -0.2255926 1.4311963
0.3536889 -0.2255926 1.4306192
0.3571963 -0.2255926 1.4279280
0.3585000 -0.2255926 1.4256699
0.3536074 -0.2255926 1.4299999
0.3572941 -0.2255926 1.4251704
0.3566193 -0.2255926 1.4276890
0.3536889 -0.2255926 1.4293808
0.3560000 -0.2255926 1.4276074
0.3553807 -0.2255926 1.4276890
0.3539279 -0.2255926 1.4288037
0.3548037 -0.2255926 1.4279280
0.3543082 -0.2255926 1.4283082
0.3588978 -0.2262000 1.4307765
0.3585981 -0.2262000 1.4315000
0.3581213 -0.2262000 1.4321214
0.3575000 -0.2262000 1.4325980
0.3567764 -0.2262000 1.4328978
0.3560000 -0.2262000 1.4330000
0.3552235 -0.2262000 1.4328978
0.3545000 -0.2262000 1.4325980
0.3538787 -0.2262000 1.4321214
0.3534019 -0.2262000 1.4315000
0.3531022 -0.2262000 1.4307765
3 0 3 1
3 1 51 2
3 4 0 2
3 3 0 86
3 3 109 1
3 1 54 51
3 2 51 48
3 0 4 92
3 4 2 5
3 0 89 86
3 109 3 86
3 109 55 1
3 55 54 1
3 54 80 51
3 51 84 48
3 2 48 5
3 4 94 92
3 0 92 89
3 6 4 5
3 86 89 87
3 109 86 83
3 109 59 55
3 55 58 54
3 76 80 54
3 80 84 51
3 84 87 48
3 5 48 44
3 4 6 94
3 94 95 92
3 89 92 90
3 6 5 7
3 87 89 90
3 84 86 87
3 83 86 84
3 110 109 83
3 109 110 59
3 59 58 55
3 58 76 54
3 76 79 80
3 80 83 84
3 48 87 44
3 5 44 7
3 6 98 94
3 94 99 95
3 92 95 90
3 6 7 8
3 87 90 44
3 110 83 79
3 110 57 59
3 59 60 58
3 74 76 58
3 75 79 76
3 79 83 80
3 7 44 41
3 6 9 98
3 98 99 94
3 95 99 36
3 90 95 41
3 8 7 41
3 9 6 8
3 44 90 41
3 111 110 79
3 110 111 57
3 57 60 59
3 60 74 58
3 74 75 76
3 111 79 75
3 9 102 98
3 98 101 99
3 36 99 33
3 41 95 36
3 8 41 36
3 9 8 10
3 111 53 57
3 56 60 57
3 77 74 60
3 74 78 75
3 112 111 75
3 9 11 102
3 102 101 98
3 99 101 33
3 10 36 33
3 10 8 36
3 11 9 10
3 111 112 53
3 53 56 57
3 56 77 60
3 77 78 74
3 112 75 78
3 11 104 102
3 102 61 101
3 101 61 33
3 12 10 33
3 11 10 12
3 112 50 53
3 52 56 53
3 81 77 56
3 77 82 78
3 112 78 82
3 11 13 104
3 104 61 102
3 33 61 31
3 31 12 33
3 13 11 12
3 112 113 50
3 50 52 53
3 52 81 56
3 81 82 77
3 113 112 82
3 13 105 104
3 104 62 61
3 61 62 31
3 15 12 31
3 14 13 12
3 113 47 50
3 49 52 50
3 73 81 52
3 81 85 82
3 114 113 82
3 13 14 105
3 105 62 104
3 31 62 29
3 14 12 15
3 29 15 31
3 113 114 47
3 47 49 50
3 49 73 52
3 73 85 81
3 114 82 85
3 14 107 105
3 105 63 62
3 62 63 29
3 14 15 16
3 16 15 29
3 114 45 47
3 46 49 47
3 72 73 49
3 73 88 85
3 115 114 85
3 14 17 107
3 107 63 105
3 29 63 27
3 17 14 16
3 27 16 29
3 114 115 45
3 45 46 47
3 46 72 49
3 72 88 73
3 115 85 88
3 17 108 107
3 107 64 63
3 27 63 26
3 18 17 16
3 19 16 27
3 115 42 45
3 43 46 45
3 43 72 46
3 72 91 88
3 116 115 88
3 17 18 108
3 108 64 107
3 63 64 26
3 26 19 27
3 18 16 19
3 115 116 42
3 43 45 42
3 71 72 43
3 71 91 72
3 116 88 91
3 18 106 108
3 65 64 108
3 64 65 26
3 26 20 19
3 18 19 20
3 116 40 42
3 39 43 42
3 39 71 43
3 71 93 91
3 116 91 93
3 18 21 106
3 106 65 108
3 26 65 28
3 28 20 26
3 21 18 20
3 116 117 40
3 39 42 40
3 70 71 39
3 71 70 93
3 117 116 93
3 21 22 106
3 66 65 106
3 65 66 28
3 28 23 20
3 22 21 20
3 117 118 40
3 39 40 37
3 37 70 39
3 70 96 93
3 118 117 93
3 22 103 106
3 103 66 106
3 28 66 30
3 30 23 28
3 22 20 23
3 118 38 40
3 37 40 38
3 69 70 37
3 70 69 96
3 118 93 96
3 22 100 103
3 67 66 103
3 66 67 30
3 30 24 23
3 22 23 24
3 118 35 38
3 37 38 34
3 34 69 37
3 96 69 97
3 118 96 97
3 22 25 100
3 100 67 103
3 30 67 32
3 32 24 30
3 25 22 24
3 118 119 35
3 34 38 35
3 68 69 34
3 69 68 97
3 119 118 97
3 25 119 100
3 68 67 100
3 67 68 32
3 32 35 24
3 25 24 35
3 119 25 35
3 34 35 32
3 32 68 34
3 97 68 100
3 119 97 100
3 0 1 2
