ply
format ascii 1.0
comment made by tesseract
element vertex 222
property float x
property float y
property float z
element face 444
property list uchar int vertex_indices
end_header
0.0750000 -0.0545000 0.4534019
0.0750000 -0.0546500 0.4531421
0.0750000 -0.0538541 0.4528124
0.0750000 -0.0551213 0.4538787
0.0750000 -0.0553335 0.4536665
0.0750000 -0.0537765 0.4531022
0.0750000 -0.0530000 0.4527000
0.0750000 -0.0555981 0.4545000
0.0750000 -0.0558579 0.4543500
0.0750000 -0.0530000 0.4530000
0.0750000 -0.0521459 0.4528124
0.0750000 -0.0558978 0.4552235
0.0750000 -0.0561876 0.4551459
0.0750000 -0.0522235 0.4531022
0.0750000 -0.0560000 0.4560000
0.0750000 -0.0563000 0.4560000
0.0750000 -0.0515000 0.4534019
0.0750000 -0.0513500 0.4531421
0.0750000 -0.0561876 0.4568541
0.0750000 -0.0506665 0.4536665
0.0750000 -0.0558978 0.4567765
0.0750000 -0.0508787 0.4538787
0.0750000 -0.0558579 0.4576500
0.0750000 -0.0555981 0.4575000
0.0750000 -0.0501421 0.4543500
0.0750000 -0.0504019 0.4545000
0.0750000 -0.0551213 0.4581213
0.0750000 -0.0553335 0.4583335
0.0750000 -0.0498124 0.4551459
0.0750000 -0.0501022 0.4552235
0.0750000 -0.0545000 0.4585981
0.0750000 -0.0546500 0.4588579
0.0750000 -0.0497000 0.4560000
0.0750000 -0.0500000 0.4560000
0.0750000 -0.0501022 0.4567765
0.0750000 -0.0538541 0.4591876
0.0750000 -0.0537765 0.4588978
0.0750000 -0.0498124 0.4568541
0.0750000 -0.0530000 0.4593000
0.0750000 -0.0530000 0.4590000
0.0750000 -0.0501421 0.4576500
0.0750000 -0.0504019 0.4575000
0.0750000 -0.0522235 0.4588978
0.0750000 -0.0521459 0.4591876
0.0750000 -0.0506665 0.4583335
0.0750000 -0.0508787 0.4581213
0.0750000 -0.0513500 0.4588579
0.0750000 -0.0515000 0.4585981
0.0810000 -0.0497000 0.4560000
0.0810000 -0.0498124 0.4568541
0.0810000 -0.0501421 0.4576500
0.0810000 -0.0506665 0.4583335
0.0810000 -0.0513500 0.4588579
0.0810000 -0.0521459 0.4591876
0.0810000 -0.0530000 0.4593000
0.0810000 -0.0538541 0.4591876
0.0810000 -0.0546500 0.4588579
0.0810000 -0.0553335 0.4583335
0.0810000 -0.0558579 0.4576500
0.0810000 -0.0561876 0.4568541
0.0810000 -0.0563000 0.4560000
0.0810000 -0.0546000 0.4532287
0.0810000 -0.0546500 0.4531421
0.0810000 -0.0553335 0.4536665
0.0810000 -0.0552627 0.4537372
0.0810000 -0.0557713 0.4544000
0.0810000 -0.0558579 0.4543500
0.0810000 -0.0538541 0.4528124
0.0810000 -0.0561876 0.4551459
0.0810000 -0.0538282 0.4529090
0.0810000 -0.0560910 0.4551718
0.0810000 -0.0530000 0.4527000
0.0810000 -0.0530000 0.4528000
0.0810000 -0.0562000 0.4560000
0.0810000 -0.0521459 0.4528124
0.0810000 -0.0521718 0.4529090
0.0810000 -0.0560910 0.4568282
0.0810000 -0.0514000 0.4532287
0.0810000 -0.0513500 0.4531421
0.0810000 -0.0557713 0.4576000
0.0810000 -0.0506665 0.4536665
0.0810000 -0.0507373 0.4537372
0.0810000 -0.0552627 0.4582627
0.0810000 -0.0546000 0.4587713
0.0810000 -0.0501421 0.4543500
0.0810000 -0.0502287 0.4544000
0.0810000 -0.0499090 0.4551718
0.0810000 -0.0538282 0.4590910
0.0810000 -0.0498124 0.4551459
0.0810000 -0.0498000 0.4560000
0.0810000 -0.0530000 0.4592000
0.0810000 -0.0499090 0.4568282
0.0810000 -0.0521718 0.4590910
0.0810000 -0.0502287 0.4576000
0.0810000 -0.0514000 0.4587713
0.0810000 -0.0507373 0.4582627
0.0822000 -0.0530000 0.4528000
0.0822000 -0.0538282 0.4529090
0.0822000 -0.0546000 0.4532287
0.0822000 -0.0552627 0.4537372
0.0822000 -0.0557713 0.4544000
0.0822000 -0.0560910 0.4551718
0.0822000 -0.0562000 0.4560000
0.0822000 -0.0560910 0.4568282
0.0822000 -0.0557713 0.4576000
0.0822000 -0.0552627 0.4582627
0.0822000 -0.0546000 0.4587713
0.0822000 -0.0538282 0.4590910
0.0822000 -0.0530000 0.4592000
0.0822000 -0.0521718 0.4590910
0.0822000 -0.0514000 0.4587713
0.0822000 -0.0507373 0.4582627
0.0822000 -0.0502287 0.4576000
0.0822000 -0.0499090 0.4568282
0.0822000 -0.0498000 0.4560000
0.0822000 -0.0499090 0.4551718
0.0822000 -0.0502287 0.4544000
0.0822000 -0.0507373 0.4537372
0.0822000 -0.0514000 0.4532287
0.0822000 -0.0521718 0.4529090
0.0822000 -0.0545500 0.4533153
0.0822000 -0.0551920 0.4538080
0.0822000 -0.0556847 0.4544500
0.0822000 -0.0559944 0.4551977
0.0822000 -0.0538023 0.4530056
0.0822000 -0.0561000 0.4560000
0.0822000 -0.0530000 0.4529000
0.0822000 -0.0559944 0.4568023
0.0822000 -0.0521977 0.4530056
0.0822000 -0.0556847 0.4575500
0.0822000 -0.0514500 0.4533153
0.0822000 -0.0551920 0.4581920
0.0822000 -0.0508080 0.4538080
0.0822000 -0.0545500 0.4586847
0.0822000 -0.0503153 0.4544500
0.0822000 -0.0538023 0.4589944
0.0822000 -0.0500056 0.4551977
0.0822000 -0.0499000 0.4560000
0.0822000 -0.0530000 0.4591000
0.0822000 -0.0500056 0.4568023
0.0822000 -0.0521977 0.4589944
0.0822000 -0.0503153 0.4575500
0.0822000 -0.0514500 0.4586847
0.0822000 -0.0508080 0.4581920
0.0821259 -0.0530000 0.4590034
0.0821000 -0.0522235 0.4588978
0.0821000 -0.0530000 0.4590000
0.0821966 -0.0530000 0.4590741
0.0821000 -0.0522235 0.4531022
0.0821259 -0.0530000 0.4529966
0.0821000 -0.0530000 0.4530000
0.0821966 -0.0530000 0.4529259
0.0821500 -0.0530000 0.4590134
0.0821500 -0.0522201 0.4589107
0.0821707 -0.0530000 0.4590293
0.0821866 -0.0530000 0.4590500
0.0821866 -0.0522106 0.4589461
0.0821500 -0.0514933 0.4586097
0.0821000 -0.0515000 0.4585981
0.0821866 -0.0514750 0.4586414
0.0821000 -0.0508787 0.4581213
0.0821500 -0.0508692 0.4581308
0.0821000 -0.0504019 0.4575000
0.0821866 -0.0508433 0.4581567
0.0821500 -0.0503903 0.4575067
0.0821866 -0.0503586 0.4575250
0.0821500 -0.0500893 0.4567799
0.0821000 -0.0501022 0.4567765
0.0821866 -0.0500539 0.4567894
0.0821500 -0.0499866 0.4560000
0.0821000 -0.0500000 0.4560000
0.0821866 -0.0499500 0.4560000
0.0821500 -0.0500893 0.4552201
0.0821000 -0.0501022 0.4552235
0.0821866 -0.0500539 0.4552106
0.0821500 -0.0503903 0.4544933
0.0821000 -0.0504019 0.4545000
0.0821866 -0.0503586 0.4544750
0.0821500 -0.0508692 0.4538692
0.0821000 -0.0508787 0.4538787
0.0821000 -0.0515000 0.4534019
0.0821866 -0.0508433 0.4538433
0.0821500 -0.0514933 0.4533903
0.0821866 -0.0514750 0.4533586
0.0821500 -0.0522201 0.4530893
0.0821500 -0.0530000 0.4529866
0.0821707 -0.0530000 0.4529707
0.0821866 -0.0522106 0.4530539
0.0821866 -0.0530000 0.4529500
0.0821000 -0.0537765 0.4531022
0.0821000 -0.0537765 0.4588978
0.0821500 -0.0537799 0.4530893
0.0821866 -0.0537894 0.4530539
0.0821500 -0.0545067 0.4533903
0.0821000 -0.0545000 0.4534019
0.0821866 -0.0545250 0.4533586
0.0821500 -0.0551308 0.4538692
0.0821000 -0.0551213 0.4538787
0.0821866 -0.0551567 0.4538433
0.0821500 -0.0556097 0.4544933
0.0821000 -0.0555981 0.4545000
0.0821866 -0.0556414 0.4544750
0.0821500 -0.0559107 0.4552201
0.0821000 -0.0558978 0.4552235
0.0821000 -0.0560000 0.4560000
0.0821866 -0.0559461 0.4552106
0.0821500 -0.0560134 0.4560000
0.0821000 -0.0558978 0.4567765
0.0821866 -0.0560500 0.4560000
0.0821500 -0.0559107 0.4567799
0.0821000 -0.0555981 0.4575000
0.0821866 -0.0559461 0.4567894
0.0821500 -0.0556097 0.4575067
0.0821866 -0.0556414 0.4575250
0.0821500 -0.0551308 0.4581308
0.0821000 -0.0551213 0.4581213
0.0821866 -0.0551567 0.4581567
0.0821500 -0.0545067 0.4586097
0.0821000 -0.0545000 0.4585981
0.0821866 -0.0545250 0.4586414
0.0821500 -0.0537799 0.4589107
0.0821866 -0.0537894 0.4589461
3 3 1 0
3 1 62 2
3 5 0 2
3 3 4 1
3 3 0 194
3 4 62 1
3 62 67 2
3 0 5 189
3 6 5 2
3 7 4 3
3 0 189 194
3 3 194 197
3 63 62 4
3 67 62 61
3 67 71 2
3 5 150 189
3 9 5 6
3 2 71 6
3 7 8 4
3 7 3 197
3 189 193 194
3 194 196 197
3 61 62 63
3 8 63 4
3 69 67 61
3 71 67 69
3 5 9 150
3 149 189 150
3 10 9 6
3 71 74 6
3 11 8 7
3 7 197 200
3 191 193 189
3 193 196 194
3 196 199 197
3 61 63 64
3 66 63 8
3 69 61 97
3 72 71 69
3 9 13 150
3 149 191 189
3 148 149 150
3 13 9 10
3 6 74 10
3 74 71 72
3 11 12 8
3 11 7 203
3 197 199 200
3 7 200 203
3 191 195 193
3 193 198 196
3 196 201 199
3 65 64 63
3 61 64 98
3 65 63 66
3 12 66 8
3 97 61 98
3 96 69 97
3 72 69 96
3 13 148 150
3 185 191 149
3 148 184 149
3 16 13 10
3 10 74 17
3 75 74 72
3 14 12 11
3 11 203 204
3 199 202 200
3 200 202 203
3 192 195 191
3 195 198 193
3 198 201 196
3 201 205 199
3 64 65 100
3 98 64 99
3 68 65 66
3 68 66 12
3 124 97 98
3 126 96 97
3 119 72 96
3 13 180 148
3 186 191 185
3 149 184 185
3 180 184 148
3 13 16 180
3 16 10 17
3 74 78 17
3 77 74 75
3 75 72 119
3 14 15 12
3 14 11 204
3 203 202 204
3 199 205 202
3 124 195 192
3 186 192 191
3 120 198 195
3 121 201 198
3 123 205 201
3 100 65 101
3 99 64 100
3 120 98 99
3 70 65 68
3 15 68 12
3 126 97 124
3 124 98 120
3 119 96 126
3 185 184 186
3 182 184 180
3 16 21 180
3 19 16 17
3 77 78 74
3 17 78 19
3 77 75 119
3 18 15 14
3 14 204 207
3 202 206 204
3 205 208 202
3 120 195 124
3 124 192 151
3 188 192 186
3 121 198 120
3 122 201 121
3 123 208 205
3 123 201 122
3 65 70 101
3 123 100 101
3 122 99 100
3 120 99 121
3 60 70 68
3 60 68 15
3 126 124 151
3 128 119 126
3 184 187 186
3 182 187 184
3 178 182 180
3 21 16 19
3 21 179 180
3 80 78 77
3 78 80 19
3 118 77 119
3 18 60 15
3 20 18 14
3 204 206 207
3 20 14 207
3 202 208 206
3 151 192 188
3 186 187 188
3 122 121 99
3 125 208 123
3 123 122 100
3 70 73 101
3 125 123 101
3 73 70 60
3 128 126 151
3 118 119 128
3 183 187 182
3 178 183 182
3 179 178 180
3 24 21 19
3 21 176 179
3 81 80 77
3 80 84 19
3 117 77 118
3 59 60 18
3 22 18 20
3 206 209 207
3 23 20 207
3 208 211 206
3 188 187 151
3 125 211 208
3 101 73 102
3 125 101 102
3 76 73 60
3 151 187 128
3 130 118 128
3 130 187 183
3 181 183 178
3 176 178 179
3 24 25 21
3 19 84 24
3 21 25 176
3 84 80 81
3 81 77 117
3 132 117 118
3 76 60 59
3 22 59 18
3 23 22 20
3 206 211 209
3 207 209 210
3 23 207 210
3 127 211 125
3 73 76 102
3 127 125 102
3 128 187 130
3 132 118 130
3 130 183 181
3 177 181 178
3 175 178 176
3 28 25 24
3 84 88 24
3 25 173 176
3 84 81 85
3 85 81 117
3 116 117 132
3 79 76 59
3 58 59 22
3 26 22 23
3 211 213 209
3 209 212 210
3 26 23 210
3 129 211 127
3 102 76 103
3 127 102 103
3 130 181 132
3 132 181 177
3 177 178 175
3 173 175 176
3 28 29 25
3 24 88 28
3 88 84 86
3 25 29 173
3 86 84 85
3 116 85 117
3 116 132 134
3 76 79 103
3 79 59 58
3 27 58 22
3 27 22 26
3 129 213 211
3 209 213 212
3 212 214 210
3 26 210 215
3 129 127 103
3 132 177 134
3 172 177 175
3 172 175 173
3 32 29 28
3 88 48 28
3 48 88 86
3 29 170 173
3 86 85 115
3 115 85 116
3 115 116 134
3 103 79 104
3 82 79 58
3 57 58 27
3 30 27 26
3 129 216 213
3 213 214 212
3 210 214 215
3 30 26 215
3 129 103 104
3 134 177 136
3 174 177 172
3 170 172 173
3 32 33 29
3 28 48 32
3 48 86 89
3 29 33 170
3 114 86 115
3 115 134 136
3 79 82 104
3 82 58 57
3 31 57 27
3 31 27 30
3 131 216 129
3 213 216 214
3 214 217 215
3 30 215 218
3 105 129 104
3 136 177 174
3 169 174 172
3 169 172 170
3 34 33 32
3 48 49 32
3 89 86 114
3 49 48 89
3 33 167 170
3 114 115 137
3 137 115 136
3 104 82 105
3 83 82 57
3 56 57 31
3 35 31 30
3 133 216 131
3 105 131 129
3 216 219 214
3 214 219 217
3 215 217 218
3 30 218 190
3 136 174 171
3 171 174 169
3 167 169 170
3 33 34 167
3 37 34 32
3 32 49 37
3 91 89 114
3 49 89 91
3 113 114 137
3 136 171 137
3 82 83 105
3 56 83 57
3 35 56 31
3 35 30 36
3 133 219 216
3 133 131 105
3 219 221 217
3 218 217 190
3 36 30 190
3 166 171 169
3 166 169 167
3 34 162 167
3 40 34 37
3 49 50 37
3 113 91 114
3 50 49 91
3 113 137 139
3 137 171 139
3 105 83 106
3 87 83 56
3 55 56 35
3 38 35 36
3 133 221 219
3 106 133 105
3 217 221 220
3 217 220 190
3 36 190 146
3 168 171 166
3 162 166 167
3 34 41 162
3 40 41 34
3 37 50 40
3 112 91 113
3 50 91 93
3 112 113 139
3 139 171 168
3 83 87 106
3 55 87 56
3 38 55 35
3 38 36 39
3 135 221 133
3 107 133 106
3 220 221 154
3 190 220 144
3 190 144 146
3 39 36 146
3 164 168 166
3 164 166 162
3 41 160 162
3 44 41 40
3 50 51 40
3 93 91 112
3 95 50 93
3 112 139 141
3 139 168 141
3 106 87 107
3 54 87 55
3 54 55 38
3 42 38 39
3 147 221 135
3 107 135 133
3 154 221 155
3 152 220 154
3 144 220 152
3 144 145 146
3 39 146 145
3 165 168 164
3 161 164 162
3 41 45 160
3 160 161 162
3 44 45 41
3 40 51 44
3 51 50 95
3 111 93 112
3 95 93 111
3 143 112 141
3 141 168 165
3 87 90 107
3 54 90 87
3 43 54 38
3 43 38 42
3 42 39 145
3 155 221 147
3 135 138 147
3 108 135 107
3 155 156 154
3 154 153 152
3 152 153 144
3 144 153 145
3 161 165 164
3 45 47 160
3 158 161 160
3 46 45 44
3 51 52 44
3 51 95 94
3 111 112 143
3 110 95 111
3 141 163 143
3 141 165 163
3 107 90 108
3 53 90 54
3 53 54 43
3 46 43 42
3 42 145 158
3 147 156 155
3 108 138 135
3 138 140 147
3 154 156 153
3 153 157 145
3 163 165 161
3 46 47 45
3 47 158 160
3 157 161 158
3 44 52 46
3 51 94 52
3 94 95 110
3 111 143 110
3 143 163 142
3 90 92 108
3 53 92 90
3 46 53 43
3 46 42 47
3 145 157 158
3 47 42 158
3 140 156 147
3 109 138 108
3 109 140 138
3 156 159 153
3 153 159 157
3 157 163 161
3 52 53 46
3 52 94 92
3 109 94 110
3 143 142 110
3 142 163 159
3 108 92 109
3 52 92 53
3 140 159 156
3 110 140 109
3 159 163 157
3 92 94 109
3 110 142 140
3 142 159 140
3 0 1 2
