ply
format ascii 1.0
comment made by tesseract
element vertex 255
property float x
property float y
property float z
element face 510
property list uchar int vertex_indices
end_header
0.5508786 0.0415000 1.8978786
0.5501421 0.0415000 1.8983500
0.5506666 0.0415000 1.8976665
0.5515000 0.0415000 1.8974019
0.5513500 0.0415000 1.8971421
0.5504019 0.0415000 1.8985000
0.5498124 0.0415000 1.8991458
0.5522236 0.0415000 1.8971021
0.5521459 0.0415000 1.8968126
0.5501022 0.0415000 1.8992236
0.5530000 0.0415000 1.8970000
0.5530000 0.0415000 1.8966999
0.5500000 0.0415000 1.9000000
0.5497000 0.0415000 1.9000000
0.5538541 0.0415000 1.8968126
0.5537764 0.0415000 1.8971021
0.5501022 0.0415000 1.9007765
0.5498124 0.0415000 1.9008541
0.5546500 0.0415000 1.8971421
0.5545000 0.0415000 1.8974019
0.5504019 0.0415000 1.9015000
0.5501421 0.0415000 1.9016501
0.5553334 0.0415000 1.8976665
0.5551214 0.0415000 1.8978786
0.5508786 0.0415000 1.9021213
0.5506666 0.0415000 1.9023335
0.5515000 0.0415000 1.9025980
0.5558579 0.0415000 1.8983500
0.5555981 0.0415000 1.8985000
0.5513500 0.0415000 1.9028579
0.5522236 0.0415000 1.9028978
0.5561876 0.0415000 1.8991458
0.5558978 0.0415000 1.8992236
0.5521459 0.0415000 1.9031875
0.5530000 0.0415000 1.9030000
0.5563000 0.0415000 1.9000000
0.5560000 0.0415000 1.9000000
0.5530000 0.0415000 1.9033000
0.5561876 0.0415000 1.9008541
0.5558978 0.0415000 1.9007765
0.5538541 0.0415000 1.9031875
0.5537764 0.0415000 1.9028978
0.5555981 0.0415000 1.9015000
0.5558579 0.0415000 1.9016501
0.5551214 0.0415000 1.9021213
0.5546500 0.0415000 1.9028579
0.5545000 0.0415000 1.9025980
0.5553334 0.0415000 1.9023335
0.5530000 0.0392000 1.9033000
0.5521459 0.0392000 1.9031875
0.5513500 0.0392000 1.9028579
0.5506666 0.0392000 1.9023335
0.5501421 0.0392000 1.9016501
0.5498124 0.0392000 1.9008541
0.5497000 0.0392000 1.9000000
0.5498124 0.0392000 1.8991458
0.5501421 0.0392000 1.8983500
0.5506666 0.0392000 1.8976665
0.5513500 0.0392000 1.8971421
0.5521459 0.0392000 1.8968126
0.5530000 0.0392000 1.8966999
0.5507373 0.0392000 1.8977373
0.5514000 0.0392000 1.8972287
0.5502287 0.0392000 1.8984001
0.5499091 0.0392000 1.8991717
0.5521718 0.0392000 1.8969090
0.5530000 0.0392000 1.8968000
0.5498000 0.0392000 1.9000000
0.5538541 0.0392000 1.8968126
0.5538282 0.0392000 1.8969090
0.5499091 0.0392000 1.9008282
0.5546000 0.0392000 1.8972287
0.5546500 0.0392000 1.8971421
0.5502287 0.0392000 1.9016000
0.5552627 0.0392000 1.8977373
0.5553334 0.0392000 1.8976665
0.5507373 0.0392000 1.9022627
0.5514000 0.0392000 1.9027712
0.5558579 0.0392000 1.8983500
0.5557713 0.0392000 1.8984001
0.5560910 0.0392000 1.8991717
0.5561876 0.0392000 1.8991458
0.5521718 0.0392000 1.9030910
0.5562000 0.0392000 1.9000000
0.5530000 0.0392000 1.9031999
0.5563000 0.0392000 1.9000000
0.5538282 0.0392000 1.9030910
0.5561876 0.0392000 1.9008541
0.5560910 0.0392000 1.9008282
0.5538541 0.0392000 1.9031875
0.5558579 0.0392000 1.9016501
0.5557713 0.0392000 1.9016000
0.5546500 0.0392000 1.9028579
0.5546000 0.0392000 1.9027712
0.5553334 0.0392000 1.9023335
0.5552627 0.0392000 1.9022627
0.5530000 0.0386000 1.8968000
0.5521718 0.0386000 1.8969090
0.5514000 0.0386000 1.8972287
0.5507373 0.0386000 1.8977373
0.5502287 0.0386000 1.8984001
0.5499091 0.0386000 1.8991717
0.5498000 0.0386000 1.9000000
0.5499091 0.0386000 1.9008282
0.5502287 0.0386000 1.9016000
0.5507373 0.0386000 1.9022627
0.5514000 0.0386000 1.9027712
0.5521718 0.0386000 1.9030910
0.5530000 0.0386000 1.9031999
0.5538282 0.0386000 1.9030910
0.5546000 0.0386000 1.9027712
0.5552627 0.0386000 1.9022627
0.5557713 0.0386000 1.9016000
0.5560910 0.0386000 1.9008282
0.5562000 0.0386000 1.9000000
0.5560910 0.0386000 1.8991717
0.5557713 0.0386000 1.8984001
0.5552627 0.0386000 1.8977373
0.5546000 0.0386000 1.8972287
0.5538282 0.0386000 1.8969090
0.5514500 0.0386000 1.8973153
0.5508080 0.0386000 1.8978080
0.5503153 0.0386000 1.8984499
0.5500056 0.0386000 1.8991976
0.5521976 0.0386000 1.8970056
0.5499000 0.0386000 1.9000000
0.5530000 0.0386000 1.8969001
0.5500056 0.0386000 1.9008024
0.5538024 0.0386000 1.8970056
0.5503153 0.0386000 1.9015501
0.5545500 0.0386000 1.8973153
0.5508080 0.0386000 1.9021920
0.5551920 0.0386000 1.8978080
0.5514500 0.0386000 1.9026847
0.5556847 0.0386000 1.8984499
0.5559944 0.0386000 1.8991976
0.5521976 0.0386000 1.9029944
0.5561000 0.0386000 1.9000000
0.5530000 0.0386000 1.9031000
0.5559944 0.0386000 1.9008024
0.5538024 0.0386000 1.9029944
0.5556847 0.0386000 1.9015501
0.5545500 0.0386000 1.9026847
0.5551920 0.0386000 1.9021920
0.5530000 0.0386034 1.9030741
0.5530000 0.0386034 1.8969259
0.5530000 0.0386741 1.9030035
0.5537773 0.0386741 1.9029012
0.5530000 0.0387000 1.9030000
0.5530000 0.0386500 1.9030135
0.5537764 0.0387000 1.9028978
0.5530000 0.0386293 1.9030293
0.5537841 0.0386293 1.9029260
0.5530000 0.0386134 1.9030501
0.5537894 0.0386134 1.9029460
0.5545017 0.0386741 1.9026011
0.5545000 0.0387000 1.9025980
0.5545146 0.0386293 1.9026234
0.5545250 0.0386134 1.9026414
0.5551237 0.0386741 1.9021238
0.5551214 0.0387000 1.9021213
0.5551420 0.0386293 1.9021420
0.5551566 0.0386134 1.9021566
0.5556010 0.0386741 1.9015017
0.5555981 0.0387000 1.9015000
0.5556234 0.0386293 1.9015146
0.5556414 0.0386134 1.9015250
0.5559011 0.0386741 1.9007773
0.5558978 0.0387000 1.9007765
0.5559261 0.0386293 1.9007840
0.5559461 0.0386134 1.9007894
0.5560034 0.0386741 1.9000000
0.5560000 0.0387000 1.9000000
0.5560293 0.0386293 1.9000000
0.5560500 0.0386134 1.9000000
0.5559011 0.0386741 1.8992226
0.5558978 0.0387000 1.8992236
0.5559261 0.0386293 1.8992159
0.5559461 0.0386134 1.8992106
0.5555981 0.0387000 1.8985000
0.5556010 0.0386741 1.8984983
0.5551214 0.0387000 1.8978786
0.5556234 0.0386293 1.8984853
0.5556414 0.0386134 1.8984749
0.5551237 0.0386741 1.8978763
0.5551420 0.0386293 1.8978579
0.5551566 0.0386134 1.8978434
0.5545000 0.0387000 1.8974019
0.5545017 0.0386741 1.8973989
0.5537764 0.0387000 1.8971021
0.5545146 0.0386293 1.8973765
0.5545250 0.0386134 1.8973587
0.5537773 0.0386741 1.8970989
0.5530000 0.0387000 1.8970000
0.5530000 0.0386741 1.8969966
0.5530000 0.0386500 1.8969866
0.5537841 0.0386293 1.8970740
0.5530000 0.0386293 1.8969707
0.5537894 0.0386134 1.8970540
0.5530000 0.0386134 1.8969500
0.5522236 0.0387000 1.9028978
0.5522227 0.0386741 1.8970989
0.5522236 0.0387000 1.8971021
0.5522201 0.0386500 1.8970892
0.5522159 0.0386293 1.8970740
0.5522044 0.0386034 1.8970306
0.5514983 0.0386741 1.8973989
0.5515000 0.0387000 1.8974019
0.5514933 0.0386500 1.8973904
0.5514854 0.0386293 1.8973765
0.5514629 0.0386034 1.8973378
0.5508763 0.0386741 1.8978763
0.5508786 0.0387000 1.8978786
0.5508692 0.0386500 1.8978692
0.5508580 0.0386293 1.8978579
0.5508263 0.0386034 1.8978263
0.5503990 0.0386741 1.8984983
0.5504019 0.0387000 1.8985000
0.5501022 0.0387000 1.8992236
0.5503903 0.0386500 1.8984933
0.5503766 0.0386293 1.8984853
0.5503377 0.0386034 1.8984629
0.5500990 0.0386741 1.8992226
0.5500893 0.0386500 1.8992201
0.5500739 0.0386293 1.8992159
0.5500306 0.0386034 1.8992044
0.5499966 0.0386741 1.9000000
0.5500000 0.0387000 1.9000000
0.5499866 0.0386500 1.9000000
0.5499707 0.0386293 1.9000000
0.5499259 0.0386034 1.9000000
0.5500990 0.0386741 1.9007773
0.5501022 0.0387000 1.9007765
0.5500893 0.0386500 1.9007800
0.5500739 0.0386293 1.9007840
0.5500306 0.0386034 1.9007957
0.5503990 0.0386741 1.9015017
0.5504019 0.0387000 1.9015000
0.5503903 0.0386500 1.9015067
0.5503766 0.0386293 1.9015146
0.5503377 0.0386034 1.9015371
0.5508763 0.0386741 1.9021238
0.5508786 0.0387000 1.9021213
0.5515000 0.0387000 1.9025980
0.5508692 0.0386500 1.9021307
0.5508580 0.0386293 1.9021420
0.5508263 0.0386034 1.9021738
0.5514983 0.0386741 1.9026011
0.5514933 0.0386500 1.9026096
0.5514854 0.0386293 1.9026234
0.5514629 0.0386034 1.9026623
0.5522227 0.0386741 1.9029012
0.5522201 0.0386500 1.9029107
0.5522159 0.0386293 1.9029260
0.5522044 0.0386034 1.9029694
3 5 1 0
3 1 56 2
3 3 0 2
3 6 1 5
3 5 0 212
3 6 56 1
3 56 57 2
3 0 3 212
3 3 2 4
3 9 6 5
3 5 212 217
3 55 56 6
3 63 57 56
3 57 58 2
3 3 207 212
3 2 58 4
3 7 3 4
3 12 6 9
3 9 5 217
3 212 216 217
3 64 56 55
3 13 55 6
3 63 61 57
3 64 63 56
3 58 57 61
3 3 202 207
3 207 211 212
3 4 58 8
3 3 7 202
3 7 4 8
3 12 13 6
3 12 9 227
3 9 217 218
3 211 216 212
3 217 216 218
3 67 64 55
3 54 55 13
3 61 63 100
3 63 64 100
3 62 58 61
3 202 206 207
3 206 211 207
3 58 59 8
3 7 193 202
3 10 7 8
3 16 13 12
3 9 218 227
3 16 12 227
3 211 219 216
3 216 222 218
3 64 67 101
3 67 55 54
3 17 54 13
3 99 61 100
3 100 64 101
3 65 58 62
3 62 61 98
3 201 206 202
3 206 213 211
3 65 59 58
3 59 60 8
3 7 10 193
3 193 201 202
3 10 8 11
3 16 17 13
3 218 226 227
3 16 227 232
3 213 219 211
3 219 223 216
3 216 223 222
3 222 226 218
3 101 67 102
3 70 67 54
3 53 54 17
3 98 61 99
3 122 99 100
3 123 100 101
3 65 62 97
3 97 62 98
3 201 208 206
3 208 213 206
3 66 59 65
3 66 60 59
3 8 60 11
3 10 15 193
3 194 201 193
3 14 10 11
3 20 17 16
3 226 231 227
3 227 231 232
3 20 16 232
3 213 220 219
3 219 224 223
3 223 228 222
3 222 228 226
3 67 70 102
3 125 101 102
3 70 54 53
3 52 53 17
3 120 98 99
3 122 121 99
3 123 122 100
3 125 123 101
3 96 65 97
3 124 97 98
3 203 208 201
3 208 214 213
3 66 65 96
3 68 60 66
3 60 68 11
3 15 10 14
3 15 189 193
3 194 203 201
3 193 192 194
3 11 68 14
3 20 21 17
3 228 231 226
3 231 236 232
3 20 232 237
3 214 220 213
3 220 224 219
3 224 229 223
3 223 229 228
3 102 70 103
3 103 125 102
3 73 70 53
3 73 53 52
3 21 52 17
3 124 98 120
3 120 99 121
3 122 221 121
3 123 225 122
3 125 230 123
3 126 96 97
3 126 97 124
3 203 209 208
3 209 214 208
3 119 66 96
3 69 68 66
3 18 15 14
3 15 187 189
3 189 192 193
3 195 203 194
3 194 192 195
3 68 72 14
3 24 21 20
3 228 233 231
3 231 238 236
3 232 236 237
3 20 237 242
3 214 221 220
3 220 225 224
3 224 230 229
3 229 234 228
3 70 73 103
3 127 125 103
3 76 73 52
3 25 52 21
3 120 210 124
3 121 215 120
3 122 225 221
3 121 221 215
3 123 230 225
3 125 235 230
3 119 96 126
3 126 124 145
3 204 209 203
3 209 215 214
3 69 66 119
3 71 68 69
3 19 15 18
3 14 72 18
3 15 19 187
3 187 188 189
3 188 192 189
3 195 204 203
3 192 196 195
3 71 72 68
3 25 21 24
3 24 20 242
3 228 234 233
3 233 238 231
3 238 244 236
3 236 241 237
3 237 241 242
3 215 221 214
3 221 225 220
3 225 230 224
3 230 235 229
3 229 235 234
3 103 73 104
3 127 235 125
3 129 127 103
3 73 76 104
3 76 52 51
3 51 52 25
3 120 215 210
3 124 210 205
3 128 119 126
3 124 205 145
3 128 126 145
3 204 210 209
3 210 215 209
3 71 69 119
3 22 19 18
3 72 75 18
3 19 181 187
3 181 188 187
3 188 196 192
3 197 204 195
3 195 196 197
3 74 72 71
3 26 25 24
3 26 24 242
3 234 239 233
3 233 239 238
3 239 244 238
3 236 244 241
3 242 241 243
3 235 240 234
3 129 103 104
3 127 240 235
3 129 240 127
3 104 76 105
3 77 76 51
3 29 51 25
3 205 210 204
3 130 119 128
3 145 205 199
3 145 198 128
3 118 71 119
3 23 19 22
3 18 75 22
3 74 75 72
3 19 23 181
3 184 188 181
3 190 196 188
3 199 204 197
3 196 198 197
3 74 71 117
3 29 25 26
3 26 242 243
3 234 240 239
3 239 245 244
3 244 248 241
3 241 247 243
3 105 129 104
3 131 240 129
3 76 77 105
3 50 77 51
3 50 51 29
3 199 205 204
3 130 118 119
3 128 191 130
3 199 198 145
3 128 198 191
3 117 71 118
3 27 23 22
3 75 78 22
3 78 75 74
3 23 179 181
3 184 190 188
3 180 184 181
3 190 198 196
3 197 198 199
3 79 74 117
3 30 29 26
3 30 26 243
3 240 246 239
3 239 246 245
3 245 249 244
3 244 249 248
3 241 248 247
3 243 247 200
3 105 131 129
3 131 246 240
3 105 77 106
3 49 77 50
3 33 50 29
3 117 118 130
3 130 191 186
3 191 198 190
3 27 28 23
3 22 78 27
3 78 74 79
3 23 28 179
3 179 180 181
3 185 190 184
3 180 185 184
3 116 79 117
3 33 29 30
3 30 243 200
3 246 249 245
3 249 253 248
3 248 252 247
3 247 251 200
3 106 131 105
3 133 246 131
3 77 82 106
3 49 82 77
3 49 50 33
3 117 130 132
3 186 191 185
3 130 186 132
3 185 191 190
3 31 28 27
3 78 81 27
3 80 78 79
3 28 176 179
3 176 180 179
3 182 185 180
3 115 79 116
3 116 117 132
3 34 33 30
3 30 200 148
3 246 250 249
3 249 254 253
3 248 253 252
3 247 252 251
3 200 251 146
3 106 133 131
3 133 250 246
3 106 82 107
3 84 82 49
3 37 49 33
3 182 186 185
3 132 186 134
3 31 32 28
3 27 81 31
3 81 78 80
3 80 79 115
3 28 32 176
3 175 180 176
3 175 182 180
3 115 116 135
3 116 132 134
3 37 33 34
3 34 30 148
3 200 146 148
3 250 254 249
3 253 254 153
3 252 253 151
3 251 252 146
3 136 133 106
3 133 254 250
3 82 84 107
3 107 136 106
3 48 84 49
3 48 49 37
3 183 186 182
3 134 186 183
3 35 32 31
3 31 81 35
3 83 81 80
3 114 80 115
3 32 172 176
3 172 175 176
3 177 182 175
3 135 116 134
3 114 115 135
3 40 37 34
3 41 34 148
3 146 147 148
3 153 254 144
3 151 253 153
3 149 252 151
3 146 252 149
3 136 254 133
3 107 84 108
3 108 136 107
3 86 84 48
3 40 48 37
3 177 183 182
3 134 183 135
3 35 36 32
3 81 85 35
3 85 81 83
3 83 80 114
3 32 36 172
3 171 175 172
3 171 177 175
3 114 135 137
3 40 34 41
3 41 148 150
3 149 147 146
3 148 147 150
3 144 254 136
3 144 154 153
3 153 154 151
3 151 152 149
3 84 86 108
3 108 138 136
3 89 86 48
3 89 48 40
3 178 183 177
3 135 183 178
3 38 36 35
3 35 85 38
3 87 85 83
3 88 83 114
3 36 168 172
3 168 171 172
3 173 177 171
3 135 174 137
3 113 114 137
3 45 40 41
3 46 41 150
3 149 152 147
3 147 155 150
3 136 138 144
3 140 154 144
3 151 154 152
3 108 86 109
3 109 138 108
3 92 86 89
3 45 89 40
3 173 178 177
3 135 178 174
3 38 39 36
3 85 87 38
3 87 83 88
3 113 88 114
3 36 39 168
3 167 171 168
3 167 173 171
3 137 174 139
3 113 137 139
3 45 41 46
3 46 150 156
3 152 157 147
3 147 157 155
3 150 155 156
3 138 140 144
3 140 158 154
3 154 158 152
3 86 93 109
3 109 140 138
3 92 93 86
3 92 89 45
3 174 178 173
3 42 39 38
3 87 90 38
3 90 87 88
3 112 88 113
3 39 164 168
3 164 167 168
3 169 173 167
3 139 174 170
3 141 113 139
3 47 45 46
3 46 156 160
3 152 158 157
3 157 161 155
3 155 159 156
3 142 158 140
3 109 93 110
3 142 140 109
3 94 93 92
3 47 92 45
3 169 174 173
3 39 42 164
3 43 42 38
3 38 90 43
3 90 88 91
3 91 88 112
3 112 113 141
3 163 167 164
3 163 169 167
3 170 174 169
3 139 170 141
3 47 46 44
3 156 159 160
3 44 46 160
3 158 162 157
3 157 162 161
3 155 161 159
3 142 162 158
3 93 95 110
3 110 142 109
3 94 95 93
3 94 92 47
3 42 160 164
3 43 44 42
3 90 94 43
3 94 90 91
3 111 91 112
3 111 112 141
3 160 163 164
3 165 169 163
3 165 170 169
3 141 170 166
3 47 44 43
3 159 163 160
3 42 44 160
3 162 166 161
3 161 165 159
3 143 162 142
3 110 95 111
3 143 142 110
3 94 91 95
3 43 94 47
3 95 91 111
3 111 141 143
3 159 165 163
3 166 170 165
3 141 166 143
3 143 166 162
3 161 166 165
3 111 143 110
3 0 1 2
